<svg xmlns="http://www.w3.org/2000/svg" viewBox="0 0 227.6 103.38"><defs><style>.a,.b,.d{fill:none;stroke-linecap:round;stroke-linejoin:round;stroke-width:2px;}.a{stroke:#41b1c5;}.b,.d{stroke:#27bfc9;}.b,.c{fill-rule:evenodd;}.c{fill:#27bfc9;}</style></defs><title>Asset 5</title><line class="a" x1="32.91" y1="50.61" x2="37.6" y2="54.84"/><path class="b" d="M92.65,6a43,43,0,0,1,16.56,20.57c7.86,21.36-5.92,40.49-7.13,42.12"/><path class="b" d="M57.05,60.62a172.26,172.26,0,0,0,29.53,7.3c9.78,1.51,9.31.57,25.7,2.09C136.35,72.24,144.87,75,163,73.94c3.93-.23,7.13-.56,9.15-.79"/><path class="c" d="M99.08.63a8.94,8.94,0,1,0,5,11.61,8.94,8.94,0,0,0-5-11.61"/><path class="d" d="M23.14,93C28.06,88,34.2,86,36.85,88.55s.82,8.77-4.1,13.83"/><line class="d" x1="35.26" y1="87.74" x2="58.48" y2="60.18"/><path class="d" d="M1,64.27a12.77,12.77,0,0,1,.34,25.54"/><path class="d" d="M37.82,49.23C37.92,56.28,35,62,31.28,62.09s-6.79-5.63-6.88-12.68"/><line class="d" x1="31.92" y1="62.36" x2="33.79" y2="71.24"/><path class="d" d="M58.35,60.36c-3.92-1.61-8.79-2.41-15.21.33-3.06,1.31-7.35,3.85-15.91,9-5.38,3.21-9.8,6-12.75,7.82"/><line class="d" x1="13.48" y1="69.57" x2="6.05" y2="75.31"/><line class="d" x1="15.24" y1="89.98" x2="13.68" y2="80.33"/><line class="d" x1="31.77" y1="62.38" x2="20.69" y2="66.87"/><line class="d" x1="31.03" y1="51.42" x2="32.56" y2="61.5"/><line class="d" x1="29.85" y1="97.27" x2="31.75" y2="87.76"/><line class="d" x1="33.58" y1="66.26" x2="26.5" y2="77.44"/><line class="d" x1="36.99" y1="86.48" x2="43.24" y2="95.28"/><line class="d" x1="8.19" y1="78.4" x2="6.07" y2="88.98"/><path class="d" d="M197.77,74.19c2.49,2.67,4.75,4.8,6.56,6.41a67.26,67.26,0,0,0,6.08,4.94c1.63,1.17,3.07,2.08,4.14,2.72"/><path class="d" d="M196.51,73.62a11.93,11.93,0,0,1,4.1-5.14c1.92-1.31,3.24-1.26,5.43-2.55a15,15,0,0,0,4.76-4.59"/><path class="d" d="M215.37,76.76a15.37,15.37,0,0,0,9.42-6.53,13.77,13.77,0,0,0,1.81-4.69"/><path class="d" d="M186.29,73.52a35.22,35.22,0,0,1,4,4A35.91,35.91,0,0,1,197,88.93"/><path class="d" d="M221.81,72.5a9,9,0,0,1,0-9.59"/><path class="d" d="M198.31,73.08a6.15,6.15,0,0,0-9.06-5.36"/><path class="d" d="M171.62,74a35.56,35.56,0,0,1,.32,5.13A37.78,37.78,0,0,1,168.68,94"/><path class="d" d="M171.94,73.54a135.32,135.32,0,0,1,35.4,1.34c.88.15,1.7.26,2.57.47a30.36,30.36,0,0,1,12,5.88"/><path class="d" d="M30.35,20.92c4.43,5.49,5.67,11.83,2.78,14.15s-8.81-.24-13.23-5.73"/><line class="d" x1="34.12" y1="33.59" x2="58.69" y2="59.96"/><line class="d" x1="25.31" y1="27.07" x2="34.53" y2="30.1"/><line class="d" x1="35.17" y1="35.46" x2="25.68" y2="40.6"/></svg>