<svg xmlns="http://www.w3.org/2000/svg" viewBox="0 0 295.36 266.3"><defs><style>.a{fill:#e2e2e8;}.a,.d,.g,.i{stroke:#231f20;stroke-miterlimit:10;}.b{fill:#5fc9e0;opacity:0.8;}.c{fill:#231f20;}.d,.i{fill:none;}.e{fill:#c5ced6;}.f{fill:#474244;}.g{fill:#2b2728;}.h{fill:#1b1e1b;}.i{stroke-width:0.5px;}</style></defs><title>Asset 3</title><polyline class="a" points="95.53 227.38 132.27 167.42 139.66 167.42 165.66 169.93 166.02 227.38"/><polygon class="b" points="220.18 156.48 228.08 162.47 212.28 162.47 220.18 156.48"/><polyline class="a" points="236.75 227.38 236.75 210.14 201.57 210.14 201.57 227.38"/><polyline class="a" points="132.27 101.36 132.27 227.38 81.28 227.38 89.9 212.3 89.9 114.42 80.93 101.36"/><polygon class="a" points="233.88 41.03 210.18 41.03 210.18 0.82 233.88 13.03 233.88 41.03"/><polyline class="a" points="248.48 77.1 269.91 61.49 257.58 44.86 257.34 44.38 235.32 61.62"/><polygon class="a" points="294.65 41.03 285.34 27.87 270.26 37.68 280.32 50.61 294.65 41.03"/><polyline class="c" points="228.37 54.44 228.37 41.03 213.88 41.03 213.88 54.44"/><polyline class="a" points="228.85 54.2 204.2 54.92 191.75 71.19 65.85 69.76 71.11 101.83 245.85 101.36 251.11 79.81 228.37 54.44"/><polyline class="c" points="267.4 56.76 279.15 49.11 272.06 39.96 260.1 47.73"/><polyline class="c" points="70.4 97.48 53.28 97.76 52.92 74.06 66.51 73.78"/><polyline class="a" points="60.1 265.08 65.49 227.38 251.11 227.38 257.22 265.8 60.1 265.8"/><polyline class="a" points="239.74 123.73 239.74 101.83 201.57 101.36 201.57 123.25 239.74 123.25"/><polyline class="a" points="165.82 189.26 165.82 201.47 165.82 201.14 236.75 201.14 236.75 200.81 236.75 188.6 165.82 188.6"/><polyline class="c" points="206.95 210.14 206.95 200.81 231.99 201.14 232.08 210.14"/><polyline class="c" points="233.11 188.6 233.01 179.6 224.72 171.31 214.13 171.31 214.13 171.61 206.53 179.21 206.56 179.19 206.66 188.19"/><line class="d" x1="251.11" y1="169.87" x2="230.53" y2="169.87"/><line class="d" x1="139.66" y1="163.36" x2="139.66" y2="169.87"/><line class="d" x1="230.53" y1="166.62" x2="210.33" y2="166.62"/><polyline class="c" points="230.53 169.79 230.53 166.69 210.9 166.77 210.9 169.87 210.33 169.87 139.66 169.87 139.66 163.36 251.11 163.36 251.35 163.36 251.35 169.87"/><polyline class="c" points="61.84 252.92 52.92 252.92 52.92 232.81 64.71 232.81"/><polyline class="c" points="204.8 130.62 204.8 123.73 233.88 123.25 233.88 137.98"/><path class="e" d="M201.62,141.22l3.41-2.79a20.68,20.68,0,0,0,6.5,5.7L207,147.82a4.26,4.26,0,0,1-5.4-6.6Z"/><path class="e" d="M224.7,146.54V153a4.27,4.27,0,1,1-8.54,0v-7a20.74,20.74,0,0,0,5.5.74A21.87,21.87,0,0,0,224.7,146.54Z"/><path class="e" d="M238.85,145.3a4.27,4.27,0,0,1-6.84,5.1l-3.56-4.76a20.73,20.73,0,0,0,7.35-4.43Z"/><circle class="f" cx="149.04" cy="209.35" r="14.09" transform="translate(-31.61 26.58) rotate(-9.22)"/><path class="g" d="M143.78,209.35a5.27,5.27,0,1,0,5.26-5.27A5.27,5.27,0,0,0,143.78,209.35Z"/><rect class="d" x="213.71" y="161.03" width="13.88" height="1.44" transform="translate(441.31 323.5) rotate(180)"/><polyline class="a" points="4.81 115.72 4.81 59.2 53.64 56.64 53.64 115 5.53 115"/><line class="a" x1="50.76" y1="56.18" x2="50.77" y2="68.5"/><line class="a" x1="46.79" y1="56.44" x2="46.8" y2="68.5"/><line class="a" x1="42.83" y1="56.71" x2="42.83" y2="68.5"/><line class="a" x1="38.86" y1="56.98" x2="38.87" y2="68.5"/><line class="a" x1="34.9" y1="57.24" x2="34.9" y2="68.5"/><line class="a" x1="30.93" y1="57.51" x2="30.94" y2="68.5"/><line class="a" x1="26.97" y1="57.78" x2="26.97" y2="68.5"/><line class="a" x1="23" y1="58.04" x2="23.01" y2="68.5"/><line class="a" x1="19.03" y1="58.31" x2="19.04" y2="68.5"/><line class="a" x1="15.07" y1="58.58" x2="15.07" y2="68.5"/><line class="a" x1="11.1" y1="58.84" x2="11.11" y2="68.5"/><line class="a" x1="7.14" y1="59.11" x2="7.14" y2="68.5"/><polyline class="a" points="0.5 227.74 0.5 264.36 52.2 264.36 52.2 216.97 37.12 216.97"/><line class="a" x1="35.69" y1="216.97" x2="41.61" y2="222.17"/><line class="a" x1="32.49" y1="217.91" x2="38.09" y2="222.87"/><line class="a" x1="29.29" y1="218.86" x2="34.56" y2="223.58"/><line class="a" x1="26.09" y1="219.81" x2="31.04" y2="224.28"/><line class="a" x1="22.89" y1="220.75" x2="27.51" y2="224.98"/><line class="a" x1="19.69" y1="221.7" x2="23.98" y2="225.68"/><line class="a" x1="16.49" y1="222.64" x2="20.46" y2="226.38"/><line class="a" x1="13.3" y1="223.59" x2="16.93" y2="227.08"/><line class="a" x1="10.1" y1="224.54" x2="13.41" y2="227.79"/><line class="a" x1="6.9" y1="225.48" x2="9.88" y2="228.49"/><line class="a" x1="3.7" y1="226.43" x2="6.36" y2="229.19"/><line class="a" x1="0.5" y1="227.38" x2="2.83" y2="229.89"/><rect class="h" x="75.54" y="77.9" width="116.33" height="13.76" transform="translate(267.41 169.56) rotate(180)"/><path class="c" d="M201.12,129.25l36.36,9.92a20.6,20.6,0,0,1-36.36-9.92Z"/><path class="c" d="M234.83,246.59a3.48,3.48,0,1,0,3.48-3.48A3.47,3.47,0,0,0,234.83,246.59Z"/><path class="c" d="M92.05,107.63a3.48,3.48,0,1,0,3.48-3.48A3.48,3.48,0,0,0,92.05,107.63Z"/><path class="c" d="M238.31,82.49A3.48,3.48,0,1,0,241.79,79,3.47,3.47,0,0,0,238.31,82.49Z"/><line class="i" x1="149.04" y1="195.26" x2="149.04" y2="204.08"/></svg>