<svg xmlns="http://www.w3.org/2000/svg" viewBox="0 0 23.35 35.94"><defs><style>.a,.c{fill:#dfdedd;}.b{fill:none;stroke-linecap:round;stroke-linejoin:round;}.b,.c{stroke:#dfdedd;}.c{stroke-miterlimit:10;}</style></defs><title>Asset 6</title><path class="a" d="M11,3.14C10.48,2.32,10,1.48,9.55.64a1.71,1.71,0,0,0-.43-.5A.51.51,0,0,0,8.48.09c-.24.14-.5.27-.75.39C7,.84,6.25,1.23,5.51,1.61h0C3.72,2.52,2,3.47.21,4.49A.33.33,0,0,0,0,4.78a1.66,1.66,0,0,0,.18.84C.54,6.32.89,7,1.24,7.74s.27.56.88.39l.09,0c1.32-.63,2.63-1.3,3.92-2s2.67-1.45,4-2.18a3.61,3.61,0,0,1,.74-.48C11,3.38,11.06,3.31,11,3.14Z"/><path class="b" d="M16,14.77c-.82-1.65-1.59-3.32-2.44-5-1-2-2.12-3.88-3.18-5.82q-2,1.09-4,2.18c-1.29.69-2.6,1.35-3.92,2a1.8,1.8,0,0,0,.08.21l1.76,3.37c.48.92.94,1.85,1.43,2.76s.8,1.56,1.22,2.33a52.2,52.2,0,0,0,6.38,1.9c1.77.41,3.46.69,5.08.9-.11-.24-.23-.48-.35-.72C17.39,17.53,16.69,16.15,16,14.77Z"/><path class="c" d="M7,16.83l.14.25c.4.69.72,1.42,1.09,2.13.54,1,1.1,2.07,1.63,3.12.66,1.27,1.3,2.56,1.95,3.84l2,3.83q.69,1.35,1.35,2.7a.58.58,0,0,0,.26.23L20,35.36a.45.45,0,0,0,.42,0,9.5,9.5,0,0,0,1-.46,1,1,0,0,0,.59-.8,4.89,4.89,0,0,1,.09-.53c.2-1.24.4-2.49.62-3.73a2.62,2.62,0,0,0-.13-1.7q-1.25-2.47-2.48-5C19.58,22,19,20.82,18.42,19.63c-1.62-.21-3.31-.49-5.08-.9A52.2,52.2,0,0,1,7,16.83Zm12.83,9.4a5.85,5.85,0,0,1-.06.86,12.1,12.1,0,0,0-.08-1.31A3.44,3.44,0,0,1,19.79,26.23Z"/></svg>