<svg xmlns="http://www.w3.org/2000/svg" viewBox="0 0 234.75 43.9"><defs><style>.a{fill:#dfdedd;}.b{fill:none;stroke:#dfdedd;stroke-miterlimit:10;}</style></defs><title>Asset 7</title><path class="a" d="M0,40.26H234.75V43.9H0Z"/><polygon class="b" points="12.92 18.46 9.89 40.26 63.18 40.26 63.18 18.46 12.92 18.46"/><rect class="a" x="19.58" y="14.63" width="43.6" height="3.84"/><polygon class="a" points="75.29 2.72 75.29 9.99 76.5 14.63 76.5 40.26 63.18 40.26 67.11 36.33 63.18 36.33 68.22 27.95 63.18 27.95 68.43 21.49 63.18 21.49 63.18 13.42 69.84 13.42 72.26 2.72 75.29 2.72"/><polygon class="b" points="75.29 2.72 81.55 2.72 82.76 12.61 89.42 12.61 91.64 40.26 76.5 40.26 76.5 13.02 75.29 9.99 75.29 2.72"/><polyline class="b" points="83.46 12.61 87.5 0.5 94.36 0.5 97.29 12.61 99.91 1.71 105.97 1.71 109.2 12.61 111.25 6.55 118.89 6.55 120.3 12.61 125.85 12.61 127.57 3.43 135.94 3.43 138.57 14.63 140.79 0.5 146.64 0.5 149.87 14.63 151.18 2.01 157.44 2.01 160.06 14.63 161.48 7.57 169.05 7.57 169.05 15.64 197 15.64 197 18.16 138.87 18.16 138.87 40.26 133.02 40.26 133.02 19.17 129.28 19.17 129.28 12.91 131.81 12.91 131.81 3.43"/><polygon class="b" points="210.22 18.67 212.85 40.26 138.87 40.26 138.87 18.16 210.22 18.67"/><polygon class="a" points="213.86 19.07 224.66 19.07 226.27 40.26 213.86 40.26 213.86 19.07"/><line class="b" x1="210.54" y1="21.28" x2="213.86" y2="21.28"/><polygon class="a" points="132.56 26.94 129.43 26.94 125.8 20.79 127.71 20.79 132.56 26.94"/><polygon class="a" points="132.56 34.63 129.43 34.63 125.8 28.47 127.71 28.47 132.56 34.63"/><polygon class="a" points="132.56 40.26 129.43 40.26 125.8 34.11 127.71 34.11 132.56 40.26"/><rect class="a" x="167.35" y="25.7" width="8.68" height="2.62"/><rect class="a" x="176.84" y="25.7" width="3.08" height="2.62"/><rect class="a" x="163.35" y="25.7" width="3.08" height="2.62"/><rect class="a" x="180.91" y="25.7" width="3.08" height="2.62"/><line class="b" x1="117.37" y1="39.39" x2="118.28" y2="14.63"/><rect class="b" x="215.05" y="24.82" width="9.26" height="2.19"/><rect class="a" x="189.24" y="25.7" width="8.68" height="2.62"/><rect class="a" x="198.74" y="25.7" width="3.08" height="2.62"/><rect class="a" x="185.25" y="25.7" width="3.08" height="2.62"/><rect class="a" x="202.8" y="25.7" width="3.08" height="2.62"/><rect class="a" x="145.72" y="25.7" width="8.68" height="2.62"/><rect class="a" x="155.22" y="25.7" width="3.08" height="2.62"/><rect class="a" x="141.73" y="25.7" width="3.08" height="2.62"/><rect class="a" x="159.28" y="25.7" width="3.08" height="2.62"/><rect class="a" x="167.56" y="32.8" width="8.68" height="2.62"/><rect class="a" x="177.05" y="32.8" width="3.08" height="2.62"/><rect class="a" x="163.56" y="32.8" width="3.08" height="2.62"/><rect class="a" x="181.12" y="32.8" width="3.08" height="2.62"/><rect class="a" x="189.45" y="32.8" width="8.68" height="2.62"/><rect class="a" x="198.94" y="32.8" width="3.08" height="2.62"/><rect class="a" x="185.45" y="32.8" width="3.08" height="2.62"/><rect class="a" x="203.01" y="32.8" width="3.08" height="2.62"/><rect class="a" x="145.93" y="32.8" width="8.68" height="2.62"/><rect class="a" x="155.42" y="32.8" width="3.08" height="2.62"/><rect class="a" x="141.93" y="32.8" width="3.08" height="2.62"/><rect class="a" x="159.49" y="32.8" width="3.08" height="2.62"/><rect class="a" x="41.55" y="25.7" width="8.68" height="2.62"/><rect class="a" x="51.04" y="25.7" width="3.08" height="2.62"/><rect class="a" x="37.55" y="25.7" width="3.08" height="2.62"/><rect class="a" x="55.11" y="25.7" width="3.08" height="2.62"/><rect class="a" x="59.45" y="25.7" width="3.08" height="2.62"/><rect class="a" x="19.92" y="25.7" width="8.68" height="2.62"/><rect class="a" x="29.41" y="25.7" width="3.08" height="2.62"/><rect class="a" x="15.92" y="25.7" width="3.08" height="2.62"/><rect class="a" x="33.48" y="25.7" width="3.08" height="2.62"/><rect class="a" x="41.76" y="32.8" width="8.68" height="2.62"/><rect class="a" x="51.25" y="32.8" width="3.08" height="2.62"/><rect class="a" x="37.76" y="32.8" width="3.08" height="2.62"/><rect class="a" x="55.32" y="32.8" width="3.08" height="2.62"/><rect class="a" x="59.65" y="32.8" width="3.08" height="2.62"/><rect class="a" x="20.13" y="32.8" width="8.68" height="2.62"/><rect class="a" x="29.62" y="32.8" width="3.08" height="2.62"/><rect class="a" x="16.13" y="32.8" width="3.08" height="2.62"/><rect class="a" x="33.69" y="32.8" width="3.08" height="2.62"/><rect class="a" x="113.22" y="24.81" width="3.08" height="2.62"/><rect class="a" x="95.59" y="24.81" width="8.68" height="2.62"/><rect class="a" x="105.08" y="24.81" width="3.08" height="2.62"/><rect class="a" x="91.59" y="24.81" width="3.08" height="2.62"/><rect class="a" x="109.15" y="24.81" width="3.08" height="2.62"/><rect class="a" x="113.42" y="31.9" width="3.08" height="2.62"/><rect class="a" x="95.8" y="31.9" width="8.68" height="2.62"/><rect class="a" x="105.29" y="31.9" width="3.08" height="2.62"/><rect class="a" x="91.8" y="31.9" width="3.08" height="2.62"/><rect class="a" x="109.36" y="31.9" width="3.08" height="2.62"/></svg>