<svg xmlns="http://www.w3.org/2000/svg" viewBox="0 0 58.74 80.35"><defs><style>.a{fill:none;stroke:#91c84a;stroke-linecap:round;stroke-linejoin:round;stroke-width:2px;}.b{fill:#91c84a;fill-rule:evenodd;}</style></defs><title>Asset 6</title><line class="a" x1="44.06" y1="50.02" x2="49.6" y2="51.16"/><line class="a" x1="54.84" y1="1" x2="48.07" y2="7.18"/><line class="a" x1="41.71" y1="41.1" x2="50.75" y2="49.6"/><line class="a" x1="51.27" y1="10.07" x2="49.81" y2="17.42"/><line class="a" x1="41.26" y1="45.63" x2="39.79" y2="52.98"/><path class="b" d="M9.67,64.42a8,8,0,1,0,6.26,9.5A8,8,0,0,0,9.67,64.42Z"/><path class="a" d="M8.85,73.1a26.46,26.46,0,0,0,11.65,5c3,.47,12.11,1.91,16.82-3.79,3-3.68,3.4-9.32,1.76-13.61-2.45-6.43-8-6.14-18.41-14.91-5.85-4.92-10.13-8.53-12.24-14.67S6.3,16.11,11.27,9.7C20.33-2,39.67,2.62,47.32,6.76c2.35,1.27,7.27,3.93,9.44,9.44a15.37,15.37,0,0,1,1,4.08"/><path class="a" d="M15,40.75c.85.4,2.1,1,3.56,1.88,2.57,1.5,3,2.1,5.63,3.77a59.44,59.44,0,0,0,6,3.32,35,35,0,0,0,5,2.12A20.81,20.81,0,0,0,43.68,53a15.41,15.41,0,0,0,7.25-2.38,11.94,11.94,0,0,0,3.61-3.77"/><line class="a" x1="34.11" y1="11.5" x2="45.14" y2="5.81"/><line class="a" x1="41.57" y1="7.82" x2="43.9" y2="13.64"/><line class="a" x1="34.95" y1="43.02" x2="38.76" y2="52.58"/></svg>