<svg xmlns="http://www.w3.org/2000/svg" viewBox="0 0 206.18 221.87"><defs><style>.a{fill:#eae9f0;}.b{fill:#424242;}.c{fill:#4f4646;}.d{fill:#332c2a;}.e{fill:#e1e5e4;}.f,.g{fill:none;stroke-miterlimit:10;}.f{stroke:#424242;}.g{stroke:#525151;}.h{fill:#d0d5dd;}</style></defs><title>Asset 48</title><path class="a" d="M205.68,144.63v36.2H174.55q.25-15.78-.15-31.56c0-1.57-1.72-3.09-2.64-4.64l-1.47.8v-2.81l.71-1.21h31.42Zm-4.59,26.89V149h-9.63v22.55Z" transform="translate(0 -0.25)"/><rect class="b" x="191.46" y="148.72" width="9.63" height="22.55"/><polygon class="a" points="180.6 124.87 180.6 141.16 171 141.16 180.6 124.87"/><polygon class="a" points="170.29 141.16 170.29 142.37 170.17 124.87 180.6 124.87 171 141.16 170.29 141.16"/><path class="b" d="M174.4,149.27q.39,15.76.15,31.56h-4.26v-35.4l1.47-.8C172.68,146.18,174.36,147.7,174.4,149.27Z" transform="translate(0 -0.25)"/><path class="b" d="M174.55,180.83c0,.48,0,.95,0,1.43,0,2-1.55,4.05-2.38,6.08l-1.86-.49v-7h4.26Z" transform="translate(0 -0.25)"/><path class="a" d="M170.29,187.85v26.21c0,.32-.59,5.05-3.2,6.8a3.38,3.38,0,0,1-3.78,0v-84H102.6V135a9.1,9.1,0,0,0-5.86-16.06v-1.78c3.29,0,5.16-1,5.53-3.26q15.57-.27,31.73-.33l6.7,0-.09.25,21.18,2.79v-.43a18.61,18.61,0,0,1,4.36,2.54,12.58,12.58,0,0,1,2.6,2.6,12.81,12.81,0,0,1,1.12,1.86h.3v2l.12,17.5v45.23Zm-31.93-63.26a4.55,4.55,0,1,0-4.55,4.54A4.55,4.55,0,0,0,138.36,124.59Z" transform="translate(0 -0.25)"/><path class="a" d="M106,31.81v0c3.73-.18,8.64-.4,14.44-.55l2.85-.06,1.93,0c7.68-.14,13-.23,19.22,0a210.57,210.57,0,0,1,25.74,2.59v89.41h-.3a12.81,12.81,0,0,0-1.12-1.86,12.58,12.58,0,0,0-2.6-2.6,18.61,18.61,0,0,0-4.36-2.54v-10c-8,.35-15.6.81-23.24,1-9.75.25-19.52.45-29.27.3A11.22,11.22,0,0,1,106,107V31.81Zm32.37,33.7V40.69H113.54V65.51Z" transform="translate(0 -0.25)"/><polygon class="a" points="163.31 220.61 163.31 221.2 115.42 221.2 115.42 136.6 116.42 136.6 163.31 136.6 163.31 215.12 163.31 217.4 163.31 220.61"/><path class="b" d="M140.7,113.5c.45-1.29.87-2.47,1.48-4.2H106V107a11.22,11.22,0,0,0,3.29.46c9.75.15,19.52,0,29.27-.3,7.64-.19,15.27-.65,23.24-1v10.38l-21.18-2.79Z" transform="translate(0 -0.25)"/><path class="b" d="M106,109.3h36.19c-.61,1.73-1,2.91-1.48,4.2l-6.7,0q-16.17,0-31.73.33a10.22,10.22,0,0,0-.57-4.55Z" transform="translate(0 -0.25)"/><path class="b" d="M138.36,40.69V65.51H113.54V40.69Zm-3.51,8.21c-.28-2.86-.43-4.36-.57-5.78C116,42.47,116,42.47,116.6,46.84c3.44-1,6.46-2.84,9.26-2.55S131.27,47,134.85,48.9Zm-.38,12.17V53.43h-5.79C127.65,58.25,128.3,61.56,134.47,61.07Z" transform="translate(0 -0.25)"/><path class="c" d="M133.81,120a4.55,4.55,0,1,1-4.55,4.55A4.55,4.55,0,0,1,133.81,120Zm1.7,4.55a1.7,1.7,0,1,0-1.7,1.7A1.7,1.7,0,0,0,135.51,124.59Z" transform="translate(0 -0.25)"/><path class="b" d="M134.28,43.12c.14,1.42.29,2.92.57,5.78-3.58-1.94-6.18-4.32-9-4.61S120,45.8,116.6,46.84C116,42.47,116,42.47,134.28,43.12Z" transform="translate(0 -0.25)"/><path class="b" d="M134.47,53.43v7.64c-6.17.49-6.82-2.82-5.79-7.64Z" transform="translate(0 -0.25)"/><circle class="d" cx="133.81" cy="124.34" r="1.7"/><path class="e" d="M122.88.79l.4,30.36-2.85.06-.34-27.56a34.78,34.78,0,0,0-5.31-.47c-4.2-.05-12.54-.15-19,5.7a24.65,24.65,0,0,0-7.08,12.35V32.31l-3.41.1v-12A27,27,0,0,1,93.73,6.63C101.52.1,111.5.21,116.52.26A44.63,44.63,0,0,1,122.88.79Z" transform="translate(0 -0.25)"/><polygon class="a" points="115.42 136.6 115.42 221.2 110.04 219.57 109.22 219.57 109.22 136.6 115.42 136.6"/><polygon class="a" points="109.22 136.6 109.22 219.57 102.12 219.57 102.12 136.6 102.19 136.6 102.6 136.6 109.22 136.6"/><path class="b" d="M79,113.33l1.79-3.12a4.79,4.79,0,0,0,.4-1.86,2.57,2.57,0,0,1,.53-1.58c6.14-5.78,12.43-11.4,19.66-18,.7,5,2,8.55,1.49,11.84-.56,3.88.84,5.64,3.09,6.36v2.3H101.7a10.22,10.22,0,0,1,.57,4.55c-.37,2.3-2.24,3.26-5.53,3.26-.4,0-.81,0-1.25,0-4.68-.29-8.86,1.41-10.67,6.7a17.51,17.51,0,0,1-4,6.22c-4.17,4.25-7.21,8.51-4.07,14.82.48,1-.66,2.75-1.06,4.16l-1.74,0c-1.66-4.1-3-8.36-5.16-12.21-.7-1.29-3.29-2.15-5-2.13l1.37-2.48c2.18-1.93,4.45-3.24,5.73-5.2C73.75,122.49,76.41,117.91,79,113.33Z" transform="translate(0 -0.25)"/><path class="a" d="M106,106.23V107c-2.25-.72-3.65-2.48-3.09-6.36.47-3.29-.79-6.84-1.49-11.84l1.71-5.71-7.78-5.46,5.11,2.15c4.21-12.08,3-30.08-3-35V41.35H67.22V32.93l18-.52,3.41-.1,17.33-.5Z" transform="translate(0 -0.25)"/><path class="c" d="M105.84,128a9.09,9.09,0,0,1-3.24,7l-.41.32a9.1,9.1,0,1,1,3.65-7.29Zm-5.7,0a3.4,3.4,0,1,0-3.4,3.4A3.4,3.4,0,0,0,100.14,128Z" transform="translate(0 -0.25)"/><polygon class="a" points="103.12 82.84 101.41 88.55 92.67 80.38 95.34 77.38 103.12 82.84"/><path class="a" d="M102.12,219.82v.11L90.07,218.1l-.83-.13V170.83a5,5,0,0,0,.9-2.3c.1-8.72.31-17.49-.57-26.14-.33-3.28-2-8.87-7.15-6.95-2,.78-2.84,6-3.25,9.29-.11.91,3.3,2.12,4.9,3.43a25.6,25.6,0,0,1,2.62,2.59l-11,.39L75.66,149c.4-1.41,1.54-3.19,1.06-4.16-3.14-6.31-.1-10.57,4.07-14.82a17.51,17.51,0,0,0,4-6.22c1.81-5.29,6-7,10.67-6.7.44,0,.85,0,1.25,0v1.78a9.1,9.1,0,1,0,5.45,16.38l.41-.32v1.9h-.48Z" transform="translate(0 -0.25)"/><path class="a" d="M92.67,80.63l8.74,8.17c-7.23,6.57-13.52,12.19-19.66,18a2.57,2.57,0,0,0-.53,1.58q-3.36-3.67-6.7-7.36Z" transform="translate(0 -0.25)"/><path class="b" d="M74.52,101l-.15.17L73.24,100c-.12.79-.23,1.58-.36,2.41l-3.75-2.62c-1.56-9.4,1.41-21.48,8.15-25.4V72.13H97.43V44.79c6.06,4.91,7.23,22.91,3,35l-5.11-2.15-2.67,3Z" transform="translate(0 -0.25)"/><path class="d" d="M96.74,124.59a3.4,3.4,0,1,1-3.4,3.39A3.4,3.4,0,0,1,96.74,124.59Z" transform="translate(0 -0.25)"/><polygon class="a" points="97.43 44.65 97.43 71.88 77.28 71.88 53.86 71.88 53.86 44.54 97.43 44.54 97.43 44.65"/><polygon class="b" points="97.43 41.1 97.43 44.54 53.86 44.54 53.86 41.14 67.22 41.14 67.22 41.1 97.43 41.1"/><path class="b" d="M86.69,150.75a25.6,25.6,0,0,0-2.62-2.59c-1.6-1.31-5-2.52-4.9-3.43.41-3.31,1.2-8.51,3.25-9.29,5.11-1.92,6.82,3.67,7.15,6.95.88,8.65.67,17.42.57,26.14a5,5,0,0,1-.9,2.3v-7.46l-.35-11-.71,0C87.67,151.83,87.18,151.29,86.69,150.75Z" transform="translate(0 -0.25)"/><path class="a" d="M89.24,218l.83.13a43.7,43.7,0,0,1-9.34,0,45.28,45.28,0,0,1-10.86-2.6,46.76,46.76,0,0,1-15.64-9.78V191.48a5.26,5.26,0,0,0,1.83,3.17c2.66,2.3,6.77,3.06,10.39,3.87.35.07,1.85-4.26,2.51-6.64s1-5,1.51-7.74a23,23,0,0,1-4.44-.37,29.93,29.93,0,0,1-4.64-2c.9-1.16,1.6-2.63,2.75-3.39,2.69-1.77,5.69-3.07,8.38-4.83a7.3,7.3,0,0,0,2.73-3.34c.55-1.46.38-3.18.52-4.8,1.5,1.69,1.65,4.06,2.7,4.56a27.49,27.49,0,0,0,9,2.5c.42,0,1.16-.71,1.75-1.64V218Z" transform="translate(0 -0.25)"/><path class="b" d="M50.61,162.38h.86l-.11.16-.08,0,0,0c-1.24,1.79-2.5,3.58-4,5.8l8.08,1.43c.45-.64.91-1.27,1.37-1.9l-5.4-5.33,0-.06L78,157.34c2-.39,4.25-.39,6.07-1.25,1.61-.76,2.79-2.45,4.15-3.73l.71,0,.35,11v7.46c-.59.93-1.33,1.68-1.75,1.64a27.49,27.49,0,0,1-9-2.5c-1-.5-1.2-2.87-2.7-4.56-.14,1.62,0,3.34-.52,4.8a7.3,7.3,0,0,1-2.73,3.34c-2.69,1.76-5.69,3.06-8.38,4.83-1.15.76-1.85,2.23-2.75,3.39a29.93,29.93,0,0,0,4.64,2,23,23,0,0,0,4.44.37c-.52,2.74-.83,5.3-1.51,7.74s-2.16,6.71-2.51,6.64c-3.62-.81-7.73-1.57-10.39-3.87a5.26,5.26,0,0,1-1.83-3.17v-1.83A9,9,0,0,1,55.72,186c.11-.18.24-.36.37-.54,2.59-3.58,3.08-8.69,3.7-13.47-4.45,1.39-3.49,10.14-11,6.38,0-.27.1-.53.16-.79l3.73-2.23a26.46,26.46,0,0,0-3.2-.3c-.19.84-.36,1.68-.53,2.53l-.78.46.62.33c-.45,2.31-.86,4.64-1.29,7,0,.08,0,.16,0,.24l1.82.61-7.42,6.35c4.1-12.49-3.69-16.86-10.66-22.17L26.29,174l-.83-.78,3.35-4.45c-1-3.35-2.58-6.6-2.74-9.93-.13-2.77,1.41-5.63,2.21-8.45l2.69.22c.78,3.33,1.57,6.65,2.45,10.4l9.78-9.17c0,.38,0,.75,0,1.1C43.63,161,44.74,162.37,50.61,162.38Z" transform="translate(0 -0.25)"/><path class="a" d="M86.69,150.75c.49.54,1,1.08,1.49,1.61-1.36,1.28-2.54,3-4.15,3.73-1.82.86-4,.86-6.07,1.25l-26.6,5.19.11-.16h-.86a21,21,0,0,0,0-4.95c-.45-3.6-1.56-4.85-1.95-5.25l-.1-.07,22.17-.79,5-.18Z" transform="translate(0 -0.25)"/><path class="a" d="M71.81,108.17,79,113.33c-2.62,4.58-5.28,9.16-8.17,13.58-1.28,2-3.55,3.27-5.73,5.2-2.92-3.7,5.27-10.85-3.6-12.52l-2.91,3.46c-2.39-2-4.14-3.42-5.91-4.84-2-1.56-3.86-3.17-5.9-4.6-5.72-4-8.58-2.89-10.81,4.84l-1.68,2L1.07,92.45c2,1.75,8.48-2.39,14.52-9.23A42.46,42.46,0,0,0,22.51,73ZM57.19,114.1c2.23,0,4.47-2.29,6.71-3.58l-7.66-5.69-4.71,5.09C53.41,111.41,55.29,114.08,57.19,114.1Z" transform="translate(0 -0.25)"/><path class="b" d="M54.93,84.88l-.07.05c-1.18-4.38-2.14-8-3.39-12.62l2.39-.18H77.28v2.26H66.87L60.72,92.82c-.58-.55-1-4.9-.67-11.83-.91.78-1.41,1.24-1.94,1.65S56.85,83.54,54.93,84.88Z" transform="translate(0 -0.25)"/><path class="a" d="M66.87,74.39H77.28c-6.74,3.92-9.71,16-8.15,25.4L54.9,89.9l0,0v-5c1.92-1.34,2.57-1.77,3.18-2.24s1-.87,1.94-1.65c-.35,6.93.09,11.28.67,11.83Z" transform="translate(0 -0.25)"/><path class="a" d="M75.66,149l.08,2.17-5,.18-.06-1.76a13.35,13.35,0,0,0-1.63-4.4,10.18,10.18,0,0,0-2.93-3.42A10.3,10.3,0,0,0,61,140a11.36,11.36,0,0,0-2.61,0l-3.85.4,1.25-1.55.32-1,.34-1.12c3-.91,5.13-2,7.28-2.06,1.71,0,4.3.84,5,2.13,2.12,3.85,3.5,8.11,5.16,12.21Z" transform="translate(0 -0.25)"/><path class="b" d="M69.13,99.79l3.75,2.62c-.23,1.58-.48,3.28-.78,5.35A19.2,19.2,0,0,1,69.13,99.79Z" transform="translate(0 -0.25)"/><path class="a" d="M72.1,107.76l-.29.41L22.51,73c1.14-2.56,1.37-4.53.44-5.34l32,22.23,14.23,9.89A19.2,19.2,0,0,0,72.1,107.76Z" transform="translate(0 -0.25)"/><path class="a" d="M70.64,149.56l.06,1.76-22.17.79a5,5,0,0,0-2.21-.23c-.28,0-.57.05-.85.09l-.08-.54L41,141.9c0,.14,2.79,0,13.24-1.14l.34-.41,3.85-.4A11.36,11.36,0,0,1,61,140a10.3,10.3,0,0,1,5,1.79A10.18,10.18,0,0,1,69,145.16,13.35,13.35,0,0,1,70.64,149.56Z" transform="translate(0 -0.25)"/><path class="b" d="M65.13,132.11l-1.37,2.48c-2.15,0-4.29,1.15-7.28,2.06-1.43-9.16-3.88-18-15.36-20.84L36,118.45c2.23-7.73,5.09-8.85,10.81-4.84,2,1.43,3.95,3,5.9,4.6,1.77,1.42,3.52,2.87,5.91,4.84l2.91-3.46C70.4,121.26,62.21,128.41,65.13,132.11Z" transform="translate(0 -0.25)"/><path class="a" d="M54.23,186c-.72,0-1.46,0-2.25-.09a33.64,33.64,0,0,1-4.46-.61c.43-2.32.84-4.65,1.29-7,7.49,3.76,6.53-5,11-6.38-.62,4.78-1.11,9.89-3.7,13.47-.13.18-.26.36-.37.54C55.24,186,54.75,186,54.23,186Z" transform="translate(0 -0.25)"/><path class="b" d="M63.9,110.52c-2.24,1.29-4.48,3.59-6.71,3.58-1.9,0-3.78-2.69-5.66-4.18l4.71-5.09Z" transform="translate(0 -0.25)"/><path class="b" d="M56.72,167.92c-.46.63-.92,1.26-1.37,1.9l-8.08-1.43c1.55-2.22,2.81-4,4-5.8Z" transform="translate(0 -0.25)"/><path class="a" d="M56.48,136.65l-.34,1.12-.32-.1L34.32,120.4l1.68-2,5.12-2.64C52.6,118.61,55.05,127.49,56.48,136.65Z" transform="translate(0 -0.25)"/><path class="b" d="M54.23,189.65v1.83A5.11,5.11,0,0,1,54.23,189.65Z" transform="translate(0 -0.25)"/><path class="a" d="M53.86,44.79V72.13H51.42c0,.06,0,.12,0,.18l-6.73.52.65-31.93,8.47.49Z" transform="translate(0 -0.25)"/><path class="b" d="M53.86,72.13l-2.39.18c0-.06,0-.12,0-.18Z" transform="translate(0 -0.25)"/><path class="b" d="M51.36,162.53l0,.06,0,0Z" transform="translate(0 -0.25)"/><path class="a" d="M48.53,152.11l.1.07c.39.4,1.5,1.65,1.95,5.25a21,21,0,0,1,0,4.95c-5.87,0-7-1.39-7.37-9.42.27-.53,1.21-.85,2.23-1,.28,0,.57-.07.85-.09A5,5,0,0,1,48.53,152.11Z" transform="translate(0 -0.25)"/><path class="b" d="M49,177.59c-.06.26-.11.52-.16.79l-.62-.33Z" transform="translate(0 -0.25)"/><path class="a" d="M45.39,151.43l.08.54c-1,.14-2,.46-2.23,1,0-.35,0-.72,0-1.1L33.42,161c-.88-3.75-1.67-7.07-2.45-10.4l10-8.73Z" transform="translate(0 -0.25)"/><path class="a" d="M31.22,170.37c7,5.31,14.76,9.68,10.66,22.17a22.06,22.06,0,0,1-5.94-.31c-5-.95-8.3-3.48-11.07-5.53a31.45,31.45,0,0,1-10.43-12.38,29.78,29.78,0,0,1-2.6-10.43l16.44-13.48c-.8,2.82-2.34,5.68-2.21,8.45.16,3.33,1.75,6.58,2.74,9.93l-3.35,4.45.83.78Z" transform="translate(0 -0.25)"/><path class="a" d="M22.51,73a42.46,42.46,0,0,1-6.92,10.21c-6,6.84-12.54,11-14.52,9.23S2.39,83.74,8.43,76.9,21,65.92,23,67.67C23.88,68.48,23.65,70.45,22.51,73Z" transform="translate(0 -0.25)"/><path class="f" d="M170.29,214.06c0,.32-.59,5.05-3.2,6.8a3.38,3.38,0,0,1-3.78,0" transform="translate(0 -0.25)"/><path class="f" d="M170.17,125.12l.12,17.5.71-1.21,9.6-16.29H170.17V33.7a210.57,210.57,0,0,0-25.74-2.59c-6.27-.23-11.54-.14-19.22,0l-1.93,0-2.85.06c-5.8.15-10.71.37-14.44.55v77.72" transform="translate(0 -0.25)"/><polyline class="f" points="170.29 180.58 174.53 180.58 174.55 180.58 205.68 180.58 205.68 144.38 202.42 141.16 180.6 141.16 171 141.16 170.29 141.16"/><line class="f" x1="97.43" y1="44.54" x2="53.86" y2="44.54"/><path class="f" d="M106.37,31.8H106l-17.33.5-3.41.1-18,.52v8.46H53.86V72.13H97.43V44.9" transform="translate(0 -0.25)"/><polyline class="f" points="97.43 44.65 97.43 44.54 97.43 41.1 67.22 41.1"/><polyline class="f" points="53.86 41.14 45.39 40.65 44.74 72.58 51.47 72.06 53.86 71.88"/><polyline class="f" points="170.29 213.81 170.29 187.6 170.29 180.58 170.29 145.18 170.29 142.37 170.29 141.16 170.29 138.55"/><polyline class="f" points="22.26 72.58 22.51 72.76 71.81 107.92 79.03 113.08 80.12 113.85"/><polygon class="f" points="92.67 80.38 101.41 88.55 103.12 82.84 95.34 77.38 92.67 80.38"/><path class="f" d="M41.88,192.54a22.06,22.06,0,0,1-5.94-.31c-5-.95-8.3-3.48-11.07-5.53a31.45,31.45,0,0,1-10.43-12.38,29.78,29.78,0,0,1-2.6-10.43l16.44-13.48" transform="translate(0 -0.25)"/><path class="f" d="M43.2,153.06a1,1,0,0,1,0-.1c.27-.53,1.21-.85,2.23-1,.28,0,.57-.07.85-.09a5,5,0,0,1,2.21.23l.1.07c.39.4,1.5,1.65,1.95,5.25a21,21,0,0,1,0,4.95c0,.32-.09.65-.14,1" transform="translate(0 -0.25)"/><polyline class="f" points="87.18 150.48 86.69 150.5 75.74 150.89 70.7 151.07 48.53 151.86 47.63 151.89"/><path class="f" d="M1.07,92.45c2,1.75,8.48-2.39,14.52-9.23A42.46,42.46,0,0,0,22.51,73c1.14-2.56,1.37-4.53.44-5.34-2-1.75-8.48,2.38-14.52,9.23S-.9,90.7,1.07,92.45Z" transform="translate(0 -0.25)"/><polyline class="f" points="22.95 67.42 54.9 89.65 69.13 99.54 72.88 102.16 72.89 102.16"/><polyline class="f" points="109.22 136.6 102.6 136.6 102.19 136.6 102.12 136.6 102.12 219.57 102.12 219.68 90.07 217.85 89.24 217.72 89.24 172.76 89.24 170.58 89.24 163.12 88.89 152.09 88.57 142.14"/><polyline class="f" points="116.42 136.6 163.31 136.6 163.31 215.12 163.31 217.4 163.31 220.61 163.31 221.2 115.42 221.2 109.22 219.68 109.22 219.57 109.22 136.6"/><polyline class="f" points="102.06 219.57 102.12 219.57 109.22 219.57 110.04 219.57 115.42 221.2 115.42 136.6"/><path class="f" d="M90.07,218.1a43.7,43.7,0,0,1-9.34,0,45.28,45.28,0,0,1-10.86-2.6,46.76,46.76,0,0,1-15.64-9.78V185.61" transform="translate(0 -0.25)"/><path class="f" d="M47,185.24l.53.1A33.64,33.64,0,0,0,52,186c.79.05,1.53.08,2.25.09.52,0,1,0,1.49,0s.86,0,1.26-.06" transform="translate(0 -0.25)"/><polyline class="f" points="30.97 150.38 40.99 141.65 45.39 151.18"/><path class="f" d="M56.48,136.65l-.34,1.12-.32,1-1.25,1.55-.34.41C43.78,141.87,41,142,41,141.9s4.53-.64,13.58-1.55l3.85-.4A11.36,11.36,0,0,1,61,140a10.3,10.3,0,0,1,5,1.79A10.18,10.18,0,0,1,69,145.16a13.35,13.35,0,0,1,1.63,4.4" transform="translate(0 -0.25)"/><polyline class="f" points="1.07 92.2 34.32 120.15 36 118.2"/><line class="f" x1="55.82" y1="137.42" x2="34.32" y2="120.15"/><path class="f" d="M161.79,116.11a18.61,18.61,0,0,1,4.36,2.54,12.58,12.58,0,0,1,2.6,2.6,12.81,12.81,0,0,1,1.12,1.86" transform="translate(0 -0.25)"/><path class="f" d="M72.89,99.19l1.63,1.8q3.35,3.67,6.7,7.36l1,1.11" transform="translate(0 -0.25)"/><line class="f" x1="180.6" y1="124.87" x2="180.6" y2="141.16"/><polyline class="f" points="109.22 136.6 115.42 136.6 116.42 136.6"/><path class="g" d="M100.14,128a3.4,3.4,0,1,1-3.4-3.39A3.4,3.4,0,0,1,100.14,128Z" transform="translate(0 -0.25)"/><circle class="g" cx="133.81" cy="124.34" r="1.7"/><polyline class="f" points="54.93 76.03 54.93 84.63 54.93 89.61"/><path class="f" d="M97.68,113.93l4.59-.08q15.57-.27,31.73-.33l6.7,0,8.62,0" transform="translate(0 -0.25)"/><line class="f" x1="123.29" y1="31.29" x2="123.28" y2="30.9"/><path class="h" d="M177,136.93h20.39v-.85a2.34,2.34,0,0,0,1.69.85c1.76,0,3.19-2.49,3.19-5.55s-1.43-5.55-3.19-5.55a2.34,2.34,0,0,0-1.69.85v-.85H177c-1.77,0-3.2,2.49-3.2,5.55S175.18,136.93,177,136.93Z" transform="translate(0 -0.25)"/><rect class="c" x="92.39" y="162.28" width="6.7" height="6.7"/><rect class="c" x="92.39" y="176.55" width="6.7" height="6.7"/><rect class="c" x="92.39" y="191.37" width="6.7" height="6.7"/><rect class="c" x="159.96" y="37.09" width="6.7" height="6.7"/><rect class="c" x="192.93" y="151.19" width="6.7" height="6.7"/></svg>