<svg xmlns="http://www.w3.org/2000/svg" viewBox="0 0 323.08 182.26"><defs><style>.a{fill:#ef5697;}.a,.b{fill-rule:evenodd;}.b,.c{fill:none;stroke:#ef5697;stroke-linecap:round;stroke-linejoin:round;stroke-width:2px;}</style></defs><title>Asset 2</title><path class="a" d="M221,166.08a8.94,8.94,0,1,0,2,12.49,9,9,0,0,0-2-12.49"/><path class="b" d="M214.41,170.65c-.88-18.87-5.65-61.55-36.58-99.85C115-7,6,9.74,1,10.59"/><path class="b" d="M189.83,87.57a198.1,198.1,0,0,1,66.31-23.63"/><path class="c" d="M322.08,88.5c-9.74-4-19.66-3.25-22.15,1.71s3.38,12.23,13.12,16.24"/><line class="c" x1="301.82" y1="88.24" x2="253.9" y2="64.31"/><path class="c" d="M308.86,47.05c-6.6,2.47-10.11,9.44-7.83,15.57s9.49,9.1,16.09,6.63"/><path class="c" d="M269.49,47.37c2.28,6.13,6.94,10.05,10.41,8.75s4.44-7.32,2.16-13.46"/><line class="c" x1="279.39" y1="56.58" x2="280.64" y2="64.94"/><path class="c" d="M254.09,64.42a19.81,19.81,0,0,1,14.29-5.22c3.29,0,8.14.67,17.83,2,6.09.83,11.14,1.61,14.51,2.15"/><line class="c" x1="299.01" y1="56.14" x2="307.86" y2="58.42"/><line class="c" x1="304.22" y1="74.43" x2="302.44" y2="65.52"/><line class="c" x1="279.54" y1="56.55" x2="291.38" y2="56.42"/><line class="c" x1="276.55" y1="46.8" x2="278.51" y2="56.07"/><line class="c" x1="314.6" y1="97.98" x2="306.9" y2="86.29"/><line class="c" x1="279.16" y1="60.56" x2="289.51" y2="67.66"/><line class="c" x1="298.65" y1="87.52" x2="294.2" y2="102.82"/><line class="c" x1="306.9" y1="61.87" x2="312.43" y2="70.25"/><path class="c" d="M267,20.18c-2.28,6.35-1.32,12.28,2.16,13.25s8.13-3.4,10.41-9.75"/><line class="c" x1="267.69" y1="32.5" x2="253.63" y2="64.2"/><line class="c" x1="273.71" y1="23.67" x2="266.14" y2="29.63"/><line class="c" x1="267.34" y1="34.5" x2="277.91" y2="35.51"/><path class="c" d="M7.08,16.11c6.53.41,12-2.26,12.23-6s-4.89-7-11.42-7.44"/><line class="c" x1="21.65" y1="1" x2="32" y2="8.1"/><line class="c" x1="26.01" y1="15.58" x2="36.62" y2="8.87"/></svg>