<svg xmlns="http://www.w3.org/2000/svg" viewBox="0 0 83.45 76.5"><defs><style>.a{fill:#d9d9d9;}.b{fill:#e2e2e2;}.c{fill:#bfbfbf;}.d{fill:#eaeaea;}.e{fill:#bebebe;}.f{fill:#e8e8e8;}.g{fill:#e7e7e7;}.h{fill:#ececec;}.i{fill:#e9e9e9;}.j{fill:#c6c6c6;}</style></defs><title>Asset 18</title><path class="a" d="M74.49,35.38a18.17,18.17,0,0,1-3.93,10.36,7.73,7.73,0,0,0-.92,2.92c-.78,2.89-1.06,6-5,7-2.08.57-3.76,2.59-5.63,4-1.5-2.41,1.16-3.23,1.51-4.48a1.26,1.26,0,0,1-.85.37,1.28,1.28,0,0,1-.61-.29C58.65,52.49,57.9,49.77,59,47c.33-.8.65-1.79-.15-2.48s-1.63-.13-2.33.48a1.85,1.85,0,0,1-2.94-.25c-.91-1.08-2.28-1.8-2.59-3.38-.14-.7-.9-.82-1.48-1.1C47.38,39.22,47,38,47.87,35.79c.15-.37.36-.72.5-1.1.32-.87,1.26-1.89.52-2.65s-1.53.42-2.27.76c-1.91.86-3.94.06-3.93-1.91,0-3.05-1.71-4.87-3.84-6.55-2.14-1.35-4.64-1.42-7-1.7a20.64,20.64,0,0,0-6.6.73A6.5,6.5,0,0,0,23.7,25.5c-1.75,2.9-3,6.07-5.05,8.79A7.57,7.57,0,0,0,17.56,42c.65,1.74,1.09,3.65-1,4.94-1.93.41-2.57-1.39-3.71-2.25-2.34-1.76-4.07-3.83-2.78-7.16.54-1.4-.14-2.65-1.45-3.49a7.25,7.25,0,0,1-1.94-1.41c-.67-1.22-.09-2.09.78-2.89.73-.61,1-1.89,2.4-1.52a3.87,3.87,0,0,1,1.69.88c1.32,1.34,1.87.47,2.5-1.05-1.55.46-2.92,1.26-4.18,0-.44-1.62.45-3,.89-4.43s.91-2.88,1.45-4.29c.87-.77,1.5-1.77,2.43-2.49a5.28,5.28,0,0,0,3.4-1.56c.5-.45,1-1.14.48-1.67-2.25-2.51.18-4,1.18-5.75a4.66,4.66,0,0,1,1.36-1.33C23.22,5.84,23.62,6,23.76,8a4.52,4.52,0,0,0,1.34,2.73c1.93,2.24,4.23,4.1,5.8,6.74,1.2,2,3.7,1.77,5.74,1.28,1.86-.45,3.5-1.61,5.31-2.31.43-.16.92-.44.8-1-.08-.44-.53-.56-.9-.72a3.37,3.37,0,0,0-.92-.28c-4.78-.67-8.08-3.74-11.27-7-2.08-2.12-2.06-2.2.22-4.09.41-.34.41-.85.64-1.27,6.58-2.85,13-2.51,19.85-.24A47.64,47.64,0,0,1,64,9.17a19.47,19.47,0,0,1,4.49,4.2c2.4,3.31,5.06,6.44,7.53,9.72,1,1.38,2.57,1.14,3.91,1.53s3.28.22,3.52,2a4.58,4.58,0,0,1-2.3,4.26A27.26,27.26,0,0,1,76,33.92c-.56-.08-.89-.51-1.29-.84C74.45,33.84,74,34.57,74.49,35.38Z"/><path class="a" d="M7.25,32.5c4,.75,5,2,3.95,5.75a4.16,4.16,0,0,0,1.55,4.85c1.3,1.07,2.48,2.29,3.71,3.44,5.06-.76,10.17-1.19,15.25-1.86,2.09-.28,3.08,1.25,2.24,3.23-.37.88-1.1,1.6-1.2,2.61a1.07,1.07,0,0,0,.22.84,3.88,3.88,0,0,1,3.45-1.07c3.14.25,4.08,1.59,3.28,4.62-.51,1.92-1.44,3.87.73,5.47,1.29.95,2.12.74,2.31-.88.35-3,.31-6-1.89-8.44a2.68,2.68,0,0,1-.23-3.69c.88-1.35,1.75-2.7,2.67-4,.63-.9,1.32-1.66,2.56-1.42s1.62,1.18,1.73,2.3c0,.31.06.65.45.81.8-.14,1-1,1.49-1.45.68-.58,1.32-1.36,2.3-.86a2.38,2.38,0,0,1,1.43,2.56,32.77,32.77,0,0,0-.26,6c.08,2.55.86,3.27,3.43,3.19,1.1,0,2.27-.46,3.08.72l0,0c.52,2.84-2.24,2.13-3.29,3.1.61-.16,1.38-1.1,2.08-.05.55.83-.29,1.4-.63,2.07-.68,1.31-2.21,2-2.53,3.58-2.71,5.75-7.71,8.3-13.54,9.67-.21-.5.13-.71.48-.92a2.91,2.91,0,0,0-.62.29c-2.52,1-5.08.71-7.4.39.73.75,2.53-.44,3.19,1.23-2.19,1.12-4.7,1-7,1.81a1.52,1.52,0,0,1-1.85-.8c-2.48-4.48-6.84-7-10.78-9.78C8.59,59.45,2.77,51.1.77,40.19A56.45,56.45,0,0,1,0,29.63c.48-.44,1.87-.51.55-1.65a1.3,1.3,0,0,1-.09-1.77c1.05-3.53,3.32-6.39,5.23-9.45.15-.24.54-.58.71-.52,2.29.72,3-.35,2.9-2.44a.91.91,0,0,1,.53-.69c2.81-.73,4.45-3,6.57-4.72a5.58,5.58,0,0,1,2.91-1.07c.64-.24,1.13-1.08,2-.47-.52.88-1.28,1.63-.95,2.84.38,1.4-1.14,1.26-1.73,1.88,2.75,2.11,2.47,3.88-.79,5.44A6.31,6.31,0,0,1,15,17.5c-.7-.2-1.83-1.38-1.54.68a1.44,1.44,0,0,1-.4,1.26c-.24,3.15-1.71,5.88-2.91,8.71.18.11.24.21.18.32s-.12.16-.18.16a3.67,3.67,0,0,0-1.93,1.45c-1.66.65-1.86-.42-1.67-1.57a20.91,20.91,0,0,0,0-4.81C5.24,33.48,5.28,43.2,8,52.47c-.52-2.65-1.49-5.5-1.59-8.65-.09-2.81-.85-5.65-.94-8.5C5.42,34.15,5.1,32.43,7.25,32.5Z"/><path class="b" d="M21.29,6.85l-2,.47c1.71-1.7,4.07-2.1,6.14-3.08,1.66-.79,3.36-1.47,5-2.2.58,1,1.45,2-.6,2.41-1.19.22-.71.86-.21,1.34,3.18,3,6.13,6.4,10.84,7.24a25.54,25.54,0,0,1,4.56,1.55c.73.28,1.55,1,.35,1.45-4,1.46-7.31,4.76-12.12,4.1-1.49-.21-2.8-.37-3.42-1.7-1.55-3.32-4.49-5.4-6.78-8.06-.71-.83-2.18-1.45-.61-2.88C23,7.05,22.8,6.83,21.29,6.85Z"/><path class="c" d="M37.27,74.61A7.45,7.45,0,0,1,31,72.35c4.79-.38,9.46,1.81,13.66-1.27l.24.7-3.24,1.84C40.15,73.89,38.81,74.71,37.27,74.61Z"/><path class="c" d="M55.16,64c-.54-1.44,1-1.86,1.4-2.84.32-.8,1-1.42,1.09-2.51-1.34-.19-2.59,1-4.09.18,2.31-.81,4.64-1.38,6-3.53,1.21-.81,2.21-2.13,4.45-1.67a8.11,8.11,0,0,0-4.92,6.05Z"/><path class="d" d="M.48,26.21c.12.92.49,1.36,1.43.75s1.46-.22,1.41.74C3.25,29,4,30.45,2.7,31.5c-.12.11-.7-.25-1-.48C1.11,30.59.58,30.09,0,29.63,0,28.47-.17,27.28.48,26.21Z"/><path class="e" d="M74.49,35.38c-.81.22-2.07,1.12-1.35-.92a21.16,21.16,0,0,1,2-4.62c.27,1.36.53,2.72.8,4.08C75.46,34.41,75,34.9,74.49,35.38Z"/><path class="f" d="M59.5,55.22a25.58,25.58,0,0,1-4.55.53c-2.27,0-3.25-1-3.17-3.25.1-2.42-.21-4.84.3-7.24.12-.54.32-1.23-.29-1.53s-1.18.34-1.53.84c-.51.72-.88,1.53-1.35,2.28a1.67,1.67,0,0,1-2,.93c-.87-.28-.84-1.06-.83-1.81,0-1,1-2.37-.25-2.83s-1.57,1.27-2.29,2c-.33.35-.51.83-.82,1.2-1.45,1.7-1.71,3-.1,5.15,2.34,3.13,2,7,.66,10.61-.6,1.58-1.71,1.87-2.82.28a1.62,1.62,0,0,0-.28-.39c-2.66-2.05-4-4.33-1.64-7.52a1.56,1.56,0,0,0-.2-2.38,4.06,4.06,0,0,0-3.48-.56c-1.1.36-.6,1.31-.57,2.07,0,.56.16,1.26-.53,1.46s-.87-.55-1.15-1c-1.31-2.1-2.17-4.19.06-6.29A1.34,1.34,0,0,0,33,46.25c-.26-.57-.8-.48-1.27-.38-4.36,1-9,.33-13.23,2.15-1.38.6-1.34-1.06-2.08-1.48,1-2.5-.28-4.73-.85-7a3.38,3.38,0,0,1,.25-3,114.62,114.62,0,0,0,7.4-13,2.11,2.11,0,0,1,1.42-1.2,4.77,4.77,0,0,1,2.66,2.31c1,1.91,2.47,2.29,4.45,1.47a18.65,18.65,0,0,0,2.82-1.33,9.7,9.7,0,0,1,5.07-1.49c2.2,2.06,4.63,3.91,4.23,7.52-.14,1.29,1,1.56,2.05,1s2-1.39,3-2.07c.44-.3.86-.9,1.47-.49s.4,1,.4,1.57a11.5,11.5,0,0,1-1.51,4.79c-1.25,2.62-.68,3.67,2.16,3.57,1.74-.06,1.75.57,1.22,1.82-.72,1.72.82,2.2,1.69,3,1.19,1.14,1.34-.31,1.94-.76a3.8,3.8,0,0,1,4.12-.11c1.4.68.46,1.85.22,2.76-.58,2.15-1.52,4.19-.52,6.54C60.41,53.16,59.73,54.29,59.5,55.22Z"/><path class="g" d="M49.39,24.76c-1.91.2-4.47-.22-5-2C44,21.31,46.38,20,47.91,19c2-1.34,4.39-1.56,6.59-2.3a11.85,11.85,0,0,0,5-3.21,5.78,5.78,0,0,1,7.06-1,1.81,1.81,0,0,1,1,1.77,2,2,0,0,1-1.73,2c-2,.26-3.14,1.54-4.35,2.84A7.38,7.38,0,0,1,58.1,21.3a9.42,9.42,0,0,0-3.22,1.63C52.5,24.77,52.49,24.76,49.39,24.76Z"/><path class="h" d="M7.25,32.5a9.4,9.4,0,0,0-.86,5.89c.77,5.39,1,10.92,3.69,15.88A1.27,1.27,0,0,1,9.8,56c-.79.55-1.19-.2-1.51-.71A16.93,16.93,0,0,1,5.72,46c0-1.77.39-3.56-1-5.06a1.33,1.33,0,0,1-.28-.9c.39-4.78.24-9.55.16-14.33,0-1.45.82-2.93,1.36-4.36.25-.67.72-1.47,1.52-1.33,1,.16.81,1.21.66,1.81-.57,2.2,1,4.52-.46,6.67a1.07,1.07,0,0,0,.51,1.63A4.5,4.5,0,0,0,7.25,32.5Z"/><path class="b" d="M39.68,23.3a43.27,43.27,0,0,1-9.86,4.92,1.5,1.5,0,0,1-2.05-.71c-1-1.75-2.43-3.22-3.09-5.17A21,21,0,0,1,39.68,23.3Z"/><path class="i" d="M10.16,28.63v-.48c1.75-.17,3-1.47,4.56-2,.56-.2,1.19-.92,1.72-.28S16.29,27,16,27.56c-.87,1.52-1.8,3-2.71,4.52-.24.39-.45.91-1,.77s-.48-.57-.63-.94C11.13,30.81,10.64,29.72,10.16,28.63Z"/><path class="d" d="M13.07,19.44c-2.14-2.74-2.14-2.75.39-4.53.5-.35,1-1,1.65-.59s.32,1.17.22,1.79c-.08.46-.21.92-.32,1.39C14.66,18.44,14.66,19.75,13.07,19.44Z"/><path class="j" d="M67.52,26c-4.84.21-9.34,3-14.68,1.34C58,26.49,62.74,25.48,67.52,26Z"/><path class="f" d="M58.48,38.94c-3.82.08-4.93-.87-4.14-3.4.25-.81.68-1.5,1.44-.54A15.21,15.21,0,0,1,58.48,38.94Z"/><path class="f" d="M62.78,46.15A2.3,2.3,0,0,1,64,48.59c-.21,1,0,2.78-1.33,2.67s-.17-1.58-.25-2.44A4.33,4.33,0,0,1,62.78,46.15Z"/><path class="i" d="M12.34,55.15c2.57,2.76,6,4.33,9.16,6.81C17.31,62.25,14.15,59.92,12.34,55.15Z"/></svg>