<svg xmlns="http://www.w3.org/2000/svg" viewBox="0 0 114.83 114.08"><defs><style>.a{fill:#cacaca;}.b{fill:#c8c8c8;}.c{fill:#e5e5e5;}.d{fill:#d0d0d0;}.e{fill:#878787;}.f{fill:#b3b3b3;}.g{fill:#d6d6d6;}.h{fill:#bdbdbd;}.i{fill:#626262;}.j{fill:#bcbcbc;}.k{fill:#c2c2c2;}.l{fill:#afafaf;}.m{fill:#ccc;}.n{fill:#cdcdcd;}.o{fill:#777;}.p{fill:#999;}.q{fill:#a3a3a3;}.r{fill:#dbdbdb;}.s{fill:#4b4b4b;}.t{fill:#909090;}.u{fill:#b1b1b1;}.v{fill:#b5b5b5;}.w{fill:#6e6e6e;}.x{fill:#a6a6a6;}.y{fill:#adadad;}.z{fill:#7f7f7f;}.aa{fill:#9a9a9a;}.ab{fill:#666;}.ac{fill:#bbb;}.ad{fill:#c4c4c4;}.ae{fill:#cecece;}.af{fill:#7c7c7c;}.ag{fill:#555;}.ah{fill:#eaeaea;}.ai{fill:#b2b2b2;}.aj{fill:#7a7a7a;}.ak{fill:#e0e0e0;}.al{fill:#a2a2a2;}.am{fill:#aeaeae;}.an{fill:#797979;}.ao{fill:#848484;}.ap{fill:#a5a5a5;}.aq{fill:#828282;}.ar{fill:#c3c3c3;}.as{fill:#6f6f6f;}.at{fill:#656565;}.au{fill:#5a5a5a;}.av{fill:#616161;}.aw{fill:#d2d2d2;}.ax{fill:#686868;}.ay{fill:#ddd;}.az{fill:#bfbfbf;}.ba{fill:#a7a7a7;}.bb{fill:#f4f4f4;}.bc{fill:#c5c5c5;}.bd{fill:#d5d5d5;}.be{fill:#dadada;}.bf{fill:#b6b6b6;}.bg{fill:#868686;}.bh{fill:#9f9f9f;}.bi{fill:#c9c9c9;}.bj{fill:#b8b8b8;}.bk{fill:#737373;}.bl{fill:#4d4d4d;}.bm{fill:#858585;}.bn{fill:#747474;}.bo{fill:#676767;}.bp{fill:#9e9e9e;}.bq{fill:#7b7b7b;}.br{fill:#5b5b5b;}.bs{fill:gray;}.bt{fill:#dedede;}.bu{fill:silver;}.bv{fill:#6a6a6a;}.bw{fill:#838383;}.bx{fill:#acacac;}.by{fill:#a1a1a1;}.bz{fill:#cfcfcf;}.ca{fill:#363636;}.cb{fill:#ababab;}.cc{fill:#434343;}.cd{fill:#a4a4a4;}.ce{fill:#353535;}.cf{fill:#a0a0a0;}.cg{fill:#8b8b8b;}.ch{fill:#dcdcdc;}.ci{fill:#959595;}.cj{fill:#707070;}.ck{fill:#efefef;}.cl{fill:#898989;}.cm{fill:#bababa;}.cn{fill:#8f8f8f;}.co{fill:#bebebe;}.cp{fill:#d3d3d3;}.cq{fill:#313131;}.cr{fill:#919191;}.cs{fill:#272727;}.ct{fill:#8a8a8a;}.cu{fill:#787878;}.cv{fill:#989898;}.cw{fill:#969696;}.cx{fill:#5f5f5f;}.cy{fill:#757575;}.cz{fill:#a9a9a9;}.da{fill:#4a4a4a;}.db{fill:#606060;}.dc{fill:#d9d9d9;}.dd{fill:#aaa;}.de{fill:#8e8e8e;}.df{fill:#767676;}.dg{fill:#b0b0b0;}.dh{fill:#c7c7c7;}.di{fill:#949494;}.dj{fill:#b7b7b7;}.dk{fill:#545454;}.dl{fill:#6d6d6d;}.dm{fill:#575757;}.dn{fill:#585858;}.do{fill:#c6c6c6;}.dp{fill:#6c6c6c;}.dq{fill:#b9b9b9;}.dr{fill:#929292;}.ds{fill:#c1c1c1;}.dt{fill:#888;}.du{fill:#727272;}.dv{fill:#818181;}.dw{fill:#4c4c4c;}.dx{fill:#e4e4e4;}.dy{fill:#8d8d8d;}.dz{fill:#2a2a2a;}.ea{fill:#4f4f4f;}.eb{fill:#565656;}.ec{fill:#9c9c9c;}.ed{fill:#404040;}.ee{fill:#535353;}.ef{fill:#cbcbcb;}.eg{fill:#3a3a3a;}.eh{fill:#717171;}.ei{fill:#939393;}.ej{fill:#d1d1d1;}.ek{fill:#7e7e7e;}.el{fill:#9d9d9d;}.em{fill:#8c8c8c;}.en{fill:#2b2b2b;}.eo{fill:#444;}.ep{fill:#d4d4d4;}.eq{fill:#b4b4b4;}.er{fill:#a8a8a8;}.es{fill:#515151;}.et{fill:#484848;}.eu{fill:#292929;}.ev{fill:#4e4e4e;}.ew{fill:#2f2f2f;}.ex{fill:#d8d8d8;}.ey{fill:#5e5e5e;}.ez{fill:#7d7d7d;}</style></defs><title>Asset 5</title><path class="a" d="M.11,49.08c1.29-.37,1.57.62,2,1.45A4.33,4.33,0,0,1,.72,52.87,7.82,7.82,0,0,1,.11,49.08Z"/><path class="b" d="M82.3.63l5-.05c2.33,1.91,2.37,3.59-.06,4.81-1,.49-1,1.15-1.16,2a27.14,27.14,0,0,1-.56,4.13c.46-1,.25-2.4.53-3.7.22-1-.19-2.41,1.43-2.32,1.44.08.79,1.4,1,2.25.87,3.42-.12,6.91.42,10.34-.15,1.16-.18,2.37-1.25,3.16a4.34,4.34,0,0,0-4,4.15,21.79,21.79,0,0,1-.91,3.05,6.74,6.74,0,0,1-1,3c-1.22,1.39-2.37,1-3.33-.4-1.06-2.28-.23-4.81-.94-7.13a12.13,12.13,0,0,0-.82-1.07c-.78-1-.48-2.14-.46-3.25,1.54-1.85.82-4.56,2.42-6.39,2.33-2.79,1.73-6.21,2-9.43C80.79,2.44,80.83,1.19,82.3.63Z"/><path class="c" d="M7.73.58A6.63,6.63,0,0,1,11.13,0L78.49,0c-.11,1.57-1.38,1.29-2.39,1.58-3.19.93-6.39.38-9.59.16a19.54,19.54,0,0,0-4.1.42c-2-.78-3.09.07-4.15,1.9C56.47,7.2,54.12,7.42,52.19,5a1.48,1.48,0,0,0-2.41.1c-.37.45-.16,1,.1,1.45.72,1.29,1.73.77,2.71.45a1.92,1.92,0,0,1,.92.08,2,2,0,0,1,1.05,2c.17,1.72,3.28,3.09.59,5.14-2,1.14-4.26.69-6.43.65-3.29-.58-4.49-3.76-6.85-5.51a11,11,0,0,1,.38-7.53,34.34,34.34,0,0,1-6.55.54c-3.44-1.23-7,.49-10.44-.48-1.6.44-3.2-.13-4.81,0a22.16,22.16,0,0,0-4.33.87,6.27,6.27,0,0,0-5.45-.53A5.17,5.17,0,0,1,8.21,1.9,1.07,1.07,0,0,1,7.73.58Z"/><path class="d" d="M19.83.66,25,.64c1.71,2.87.19,6.7-3,7.23a13.54,13.54,0,0,0-3.24,1.22,11.27,11.27,0,0,1-2.32.15A12.27,12.27,0,0,1,13.17,9c-1.64-1.2-3.83-.27-5.52-1.51C6.93,7,6.33,7.78,6,8.5c-.44,1.08-1.45,1.44-2.34,2-1.13.48-2.17,1-1.8,2.56-.34,1.9.8,4.25-1.67,5.49C.21,13.37.21,8.23.16,3.1.14,1.33,1,.65,2.68.65S6.05.61,7.73.58c.24.24.48.48.71.73,1.47.46,3,.82,4.45,1.23C15.53,3.26,18,2.87,19.83.66Z"/><path class="e" d="M114,79.12c-.33.8-.65,1.6-1,2.4a2.32,2.32,0,0,1-1,3A5.82,5.82,0,0,0,110,87.16a12.72,12.72,0,0,0-1.29,3.78c-.63.91-.36,2.28-1.49,2.93-1.64.13-1.71-1.38-2.37-2.26-.73-1.35-1.53-2.68-1.13-4.32.4-.9,1.39-1.38,1.64-2.37,2.49-1.45,1.5-3.67,1.28-5.73a33.6,33.6,0,0,1-3.26-11.86c.44-1,1.43-1.24,2.21-1.77a3.46,3.46,0,0,1,3.79,1.13c.13,2.69,2.28.44,3.17,1.29a1.79,1.79,0,0,1,1,.77,8.63,8.63,0,0,1-.34,6.85A2.59,2.59,0,0,0,114,79.12Z"/><path class="f" d="M69.52,113.89c-4.91.43-9.78-.26-14.66-.53a1.07,1.07,0,0,1,.3-1.13,1.07,1.07,0,0,0-.31,1.13,18.91,18.91,0,0,1-8.85.12c-1.37,0-1.65-.9-1.55-2,.9-1.16,2.19-1,3.42-1a7,7,0,0,0,5.31-2.21c1.69-2.9,3.72-5.63,4.68-8.92a26.47,26.47,0,0,0,.66-3.42,1.39,1.39,0,0,1,1.56-1.24A1.22,1.22,0,0,1,61.2,96.2a8.74,8.74,0,0,0,.45,4.34,4.33,4.33,0,0,1,.49,1.86,2.45,2.45,0,0,1-.34,1.16c-1,1.46,0,1.66,1.1,1.82,1.77,2.94,3.73,5.73,6.65,7.69A.72.72,0,0,1,69.52,113.89Z"/><path class="g" d="M35.85,113.46c-5.51.88-11.07.57-16.61.55a.8.8,0,0,1,0-1c.69-.83,1.72-.91,2.66-1.2s1.92.65,2.5-.59c.14-.55-.25-1-.27-1.52,0-1.67-1.17-3-1.32-4.57.85-2,2-3,4.08-1.39.78-.51,1.35-1.4,2.42-1.26l.68-.16a2.52,2.52,0,0,0,.84-.61c.75-1,1.31-2.15,2.73-2.32a3.71,3.71,0,0,1,2.37,1.94c.46,1.43-.23,3.21,1.28,4.33.37.25.75.46,1.1.74.64.67,1.37,1.3,1.23,2.37-.35,1.21-1.34,1.53-2.41,1.78C35.41,111,35.25,112.06,35.85,113.46Z"/><path class="h" d="M65.73.65C70,.29,74.29,1.27,78.49,0l2,.49A2.09,2.09,0,0,1,80,2.18a3.6,3.6,0,0,1-.65.58A2.44,2.44,0,0,0,77.7,5.07c-.22,3.18-2.64,3.17-4.89,3.39-3.12-.31-5,2.71-7.93,2.95-1.66-.39-1.21-2.29-2.24-3.14a2.7,2.7,0,0,1-.37-.83,2.62,2.62,0,0,1,0-1.77c.94-1.13,2.39-1.95,2.39-3.69A4.17,4.17,0,0,1,65.73.65Z"/><path class="i" d="M.88,61.16C.56,58.4-.35,55.65.72,52.87a13.42,13.42,0,0,1,.62-3c1.1-1.8.52-4.51,3-5.58a4.55,4.55,0,0,1,4-1.28c1.32.64,2.2,1.53,1.75,3.16-1.29,1.79-.37,3.73-.44,5.61a8.36,8.36,0,0,1-.35,3.36,3,3,0,0,1-.52.76C6.59,57,4.44,57.86,4,61,3.69,63.25,2,62.55.88,61.16Z"/><path class="j" d="M1.28,103.06a2,2,0,0,1-.08-.43c-.31-1.51.45-3.29-1.07-4.52,0-1.51.07-3,.1-4.54,1.11-.81,1.9.28,2.84.47,1.65,1,3,2.4,5.25,2.33,1.8-.07,1.85,2.29,3.09,3.19.63,1.8-.23,3.25-1.11,4.69-2.37,1-2.82,3.71-4.77,5.1-.57.4-.93,1.21-1.66,1.39-1,.25-2.06,1.07-3,.28s-.54-1.88-.11-2.67C1.7,106.62-.51,104.64,1.28,103.06Z"/><path class="k" d="M114.19,114l-14.73,0c-.2-.74.23-1.12.8-1.42.92-.25,2.09,0,2.4-1.37.3-2.56-2-4.72-1.12-7.37.31-.76,1.27-1,1.4-2,.34-2.42,1.89-2.59,3.83-2,1.22.45,1.29,1.52,1.38,2.57a16.93,16.93,0,0,0,2.86,7.11c.13.7.2,1.43.9,1.86C112.83,112.12,114.4,112.24,114.19,114Z"/><path class="l" d="M114.71,27.34c0,1.9,0,3.8,0,5.7-.52.47-.35.94,0,1.42l0,5.08c-2.5.4-3-1.92-4.25-3.16s-3.06-1.9-4.09-3.47c-.76-1.15-1.66-2.24-1-3.76,1.2-1.38,3.09-2,3.82-4,.45-1.23,1.76-1.32,2.93-.53A11.22,11.22,0,0,1,114.71,27.34Z"/><path class="m" d="M35.85,113.46c-.73,0-1.47,0-2.2-.08s-1.9,0-2-1.07c-.16-1.28,1.15-.42,1.63-.87.16-.14.34-.25.49-.4,2.55-2.46,2.55-2.46,5.19-2.1a7,7,0,0,1,2.32-.2c1.35.68,3.18.77,3.42,2.8L46,113.48Z"/><path class="n" d="M1.28,103.06c.11,2.23,1.9,4.51-.58,6.7,3-1.37,5.92-2.35,6.81-5.73.18-.67,1.07-1.13,1.61,0,2,1.92.33,3.93.16,5.91a2.16,2.16,0,0,1-.94,1,4.34,4.34,0,0,0-3.14,2.57c-4.76.18-5.2-.13-5-4.63C.23,107-.71,104.7,1.28,103.06Z"/><path class="o" d="M114.71,27.34c-1.11-.7-2.94.29-3.57-1.9-.2-.67-1.1.67-1.42,1.38-.75,1.66-1.13,3.91-3.86,2.47l-.46.15c-1.28.49-2.26,1.84-3.88,1.4a1.91,1.91,0,0,1-1.58-1.71,6.79,6.79,0,0,1,6.73-4.89c2.08-.06,3.36-1.44,4.34-3.14a4.56,4.56,0,0,1,1.93-1.46,1.91,1.91,0,0,1,1.76.8Q114.7,23.89,114.71,27.34Z"/><path class="b" d="M97.66.5,113.05.28c.79,0,1.5.1,1.65,1.07-.61,1.27-2,2-2,3.74,0,1.07-1,1.76-2.15,2-1.62-.85-3.64-.16-5.18-1.32C103.17,3.91,100,4.3,97.77,2.51a1.9,1.9,0,0,1-.54-1.23A1.18,1.18,0,0,1,97.66.5Z"/><path class="f" d="M110.35,6.32c.28-.3.88-.73.81-.88-1.56-3.76,2-3,3.54-4.09-.64,3.37.42,6.73,0,10.1-.71,2.68-3.27,2.54-5.17,3.41-1.71-.36-3.09-1.12-3.52-3a1.91,1.91,0,0,1,.26-.87c.69-1.2,2-1,3.06-1.35-1.22-1.08-.51-2,.25-2.91A2.35,2.35,0,0,1,110.35,6.32Z"/><path class="p" d="M.2,92.38Q.41,85.74.6,79.1C.34,75,.34,75,3.51,75a1.9,1.9,0,0,1,.76.45c.58.56.23,1.43.7,2C6.06,79,6.16,81,6.79,82.72a3.23,3.23,0,0,1-.48,2.66A12.48,12.48,0,0,0,4.72,87c-1.55,1-3.08,2-3.1,4.2C1.61,92,1.18,92.63.2,92.38Z"/><path class="q" d="M.23,18.51c.88-2.08.37-4.27.53-6.41,1.61-.91,2.74-2.7,4.89-2.6a2,2,0,0,1,1.57,1.15,3.35,3.35,0,0,1,.16,2.45c-.39,1.56-2,1.81-2.93,2.83C1.92,17.47,1.82,18.28,3.8,21a4.71,4.71,0,0,1,.39,3.88c-2.07,1.45-1.11,4.28-2.7,6A1.13,1.13,0,0,1,.16,30.5Q.19,24.5.23,18.51Z"/><path class="r" d="M.16,30.5l1.18.07C2.13,29.73,2.64,28,4.2,29c1.39.94,3.18,1.79,3,4A12.61,12.61,0,0,1,5.88,36.9,5.22,5.22,0,0,1,3.4,40.77c-.87.45-1.57.35-2-.61-.32-2.37-2.14-4.65.09-7.14C2.25,32.17,0,31.69.16,30.5Z"/><path class="s" d="M.88,61.16c1.31.15,2.11.17,2.23-1.74.18-2.68,3.12-4.67,5.08-4a.83.83,0,0,1,.49.68c0,1-1,1.37-1.56,2.06-1.92,3.29.28,5.73,1.7,8.34a1.81,1.81,0,0,1,.33,1.37c-.71,1.28-1.12,2.9-3.08,2.81-2-1-2.51-3.72-4.89-4.33C.18,64.7.6,62.93.88,61.16Z"/><path class="t" d="M78.59,112.89a2.21,2.21,0,0,1-2.67.53,23.33,23.33,0,0,0-1.34-1.91c-1.65-.46-3-1.57-4.76-1.83a5.92,5.92,0,0,1-1.09-.83A6.28,6.28,0,0,1,67.15,104c.57-1.08,1.59-1,2.59-1a2.92,2.92,0,0,1,2.65,1.74c2.54,1.77,5.29,1.11,8,.68a1.86,1.86,0,0,1,1.37.13,2,2,0,0,1,.78.54,2,2,0,0,1,.28.89c-.59,1.74-2.8,2.22-3.18,4.13-.11.26-.22.53-.34.79S78.79,112.51,78.59,112.89Z"/><path class="u" d="M87.43,17.9c-.06-.74-1.25-1.17-.81-1.93,1.74-3,.56-6.19.68-9.31-1.38,2.65-.69,5.82-2,8.44-1.13,0-1.07-.76-1-1.32.43-2.6,1-5.18,1.47-7.76.08-.4.27-1,.55-1.09C89,4,87.85,2.22,87.33.58a1.11,1.11,0,0,1,1.35,0A7.8,7.8,0,0,1,90.4,3.44a8.36,8.36,0,0,0,.19,4.75,9.93,9.93,0,0,1-.5,3.75c-.34,1.22-.38,2.49-.61,3.72S89,18,87.43,17.9Z"/><path class="v" d="M114.75,61.13c0,.22,0,.44,0,.66-1,1.93-3.33,2.53-4.56,4.27a1.68,1.68,0,0,1-.94.13c-1.45-.75-3.39,0-4.61-1.51a2.81,2.81,0,0,1-.3-1,6.27,6.27,0,0,1,1.43-4.28c1.62-1,3.45-.9,5.24-1A5.82,5.82,0,0,1,114.75,61.13Z"/><path class="j" d="M114,79.12c-2.09.5-3.05-1.25-4.2-2.32s.23-1.52,1-1.94c2.28-1.22,3.2-2.93,2-5.42a1.27,1.27,0,0,1,1.89-.64C114.42,72.23,115.22,75.74,114,79.12Z"/><path class="w" d="M110.78,112.3l-1.13-1.54A9.85,9.85,0,0,1,109,108c-.58-2.76.83-4.19,4-4.24,1.93,2.1,1,4.7,1.24,7.1C113.5,112.34,112.46,113.11,110.78,112.3Z"/><path class="x" d="M5.2,113.55c.13-1.63.26-3.27.41-5.2,1.16.42,1.19,1.88,2.27,2,2.47.89,2-1.43,2.75-2.49.45-1.19.45-2.48.86-3.68a1.85,1.85,0,0,1,1.53-1.2c2.23,1,1.25,2.87,1.21,4.48a11.4,11.4,0,0,0-.37,5.09c-.17.48-.65.63-1,.93C10.34,114.75,7.76,113.55,5.2,113.55Z"/><path class="y" d="M114.72,46.52a2.51,2.51,0,0,1-.67,1.9c-1.87,1.29-3.74,2.29-5.6,0-.15-.19-.22-.43-.27-.35s-.14.4-.28.55a4.64,4.64,0,0,1-3.39,1.21A2.84,2.84,0,0,1,102,48a2.41,2.41,0,0,1,1.67-3,17.86,17.86,0,0,0,3.1-1.53c1.79-.68,3.36.12,4.94.77C113.23,44.34,113.65,45.86,114.72,46.52Z"/><path class="z" d="M105.14,48.46c1.27-.38,2.85-.32,3.08-2.5,1.14,3.4,3.61,2.59,5.83,2.46.22.43.44.87.67,1.3a24.69,24.69,0,0,1-4.35,3.19c-.81.61-1.28,1.76-2.56,1.67a2.14,2.14,0,0,1-1.42-1.12c-.26-.54-.57-1.07-.82-1.62C105.17,50.75,104.38,49.7,105.14,48.46Z"/><path class="aa" d="M79.1,1.93A2,2,0,0,1,80.49.52L82.3.63C81.08,5,82.35,9.89,79.74,14l-.43-.18a4.75,4.75,0,0,1-1.66-3.22C77.11,7.54,78.42,4.79,79.1,1.93Z"/><path class="ab" d="M1.18,66.39c.08-.07.14-.18.23-.22,1.32-.53.05-3,1.76-2.81,1.47.16.77,2.69.94,2.76,2.26.86,2.26,2.44,1.7,4.32-.37,1.34-1.42,1.25-2.46,1.15C2,71.48,1.8,69.94.81,69.36.93,68.37,1.06,67.38,1.18,66.39Z"/><path class="ac" d="M76.64,110.18c.59,1.26-.35,2.19-.72,3.24-2.09.84-4.29,0-6.4.47l0-.58c-2.44-2.18-2.4-2.62.34-4C71.93,110.82,74.42,109.53,76.64,110.18Z"/><path class="ad" d="M78.59,112.89l-.12-1.38c2.33-2.76,4.35-3,7.92-.76,1,1.28,2.48,1.58,4,1.82a1.27,1.27,0,0,1,.88.9C87,114.6,82.79,113.43,78.59,112.89Z"/><path class="ae" d="M109,86.66c-.14-2.88,2.59-3.51,4-5.14,2.17,1.7,1.49,4.15,1.67,6.38-1.51,1.15-3.1-.25-4.64.14C109.44,87.82,109.28,87.21,109,86.66Z"/><path class="ad" d="M109.72,14c.88-2.38,3.76-.83,5-2.53,0,2.16,0,4.32,0,6.48-.35.95-.13,2.21-2,1.95s-1.88-1.58-2-2.9C110.72,15.87,109.7,15.1,109.72,14Z"/><path class="af" d="M100.77,113.41l-1.31.58c-1.36.28-2.55-.33-3.78-.7a1.84,1.84,0,0,1-.42-.82,3.09,3.09,0,0,1,.83-2.2,6,6,0,0,0,.36-.52c2.18-3.73,4.58-4.16,6.82.89C103.13,112.19,101.48,112.37,100.77,113.41Z"/><path class="b" d="M88.68,3.83V.62a28.47,28.47,0,0,1,9-.12l-.12.26c-.2.89.44,1.78,0,2.66C94.67,6,91.68,5.1,88.68,3.83Z"/><path class="ag" d="M113,103.8c-2.77,1.52-4.13,3.73-3.39,7-1.11-2.4-2.6-4.69-2.42-7.51a.84.84,0,0,0,.81-.87c.91-.91,1.94-1.68,2.82-2.61a1.44,1.44,0,0,1,.87,0,1.39,1.39,0,0,1,.6,1.56C112.57,102.17,112.8,103,113,103.8Z"/><path class="ah" d="M4.53,45.17c-.61,1-1.76,1.69-1.17,3.25a1.62,1.62,0,0,1-1.28,2.11c-1.07.08-1.3-1-2-1.45.52-1.68-.5-3.53.58-5.14a3.26,3.26,0,0,0,.81-.13,3.18,3.18,0,0,0,2.07-2.06C4,40.8,4.6,40,5.84,40c2.42,1.66,2.44,1.87.18,3.55A9.66,9.66,0,0,0,4.53,45.17Z"/><path class="m" d="M110.31,87.3c1.54-.24,3.18-1.27,4.43.6-.09,1.94.37,3.93-.62,5.77-3.85,1.43-3.59-2.53-5.09-4.06C108,88.56,109.41,87.84,110.31,87.3Z"/><path class="ai" d="M110.31,87.3c-.06.2-.17.57-.16.58,2.72,1,.69,5.21,4,5.79a4.18,4.18,0,0,1,0,.61c-2.43,1.46-3.9-.73-5.74-1.51-.36-.72-.88-1.39-.65-2.28A5.43,5.43,0,0,1,109,86.66Z"/><path class="a" d="M109.7,65.47c.56-2.77,1.83-4.56,5-3.68l0,5.13C112.69,67.78,111.08,67,109.7,65.47Z"/><path class="aj" d="M.2,92.38a45.17,45.17,0,0,1,1.13-5.06,3.5,3.5,0,0,1,2.62-2c1.81,1.42-.64,3.12.29,4.59-.35,1.72.51,3.84-1.67,4.94-.34.63-.67,1.27-1,2C0,96.08,1.62,94.24.23,93.57Z"/><path class="ak" d="M12.87,113.44l.61-.73c.48-1.26-.36-2.59.21-3.85a1.81,1.81,0,0,1,.78-.67c3.47-.25,5.41,1.8,4.83,5.06l-.06.76C17.2,112.89,15,113.74,12.87,113.44Z"/><path class="al" d="M114.72,46.52l-.83.42c-.76.37-1.68.73-2.31.13s1.29-1,.54-2c-.75-.76-1.65-1.43-1.32-2.71a2.64,2.64,0,0,1,1.36-1.62,1.64,1.64,0,0,1,2,.63C115,43,114.77,44.79,114.72,46.52Z"/><path class="z" d="M95.68,112.82v.47l-4.43.18-1.23-.1c-.49-.74-1.47-1.19-1.35-2.29a2,2,0,0,1,.39-.86c.67-.52,1-1.33,1.67-1.85,1.4-1.16,2.77-1.09,3.49.74C94.7,110.34,95.68,111.4,95.68,112.82Z"/><path class="am" d="M114.26,54.26c.14,1.26.27,2.53.4,3.8-1.07,1.88-2.26,1.93-3.57.23a18.33,18.33,0,0,1-1.49-2c-.19-1.16-.57-2.36.56-3.29a2.22,2.22,0,0,1,1-.32C112.42,52.77,113.72,52.77,114.26,54.26Z"/><path class="an" d="M110.37,56c1.64.24,1.67,3.87,4.29,2l.09,3.07c-1.58,0-2.57-1.21-3.86-1.81-1.68-.12-2-1.17-1.77-2.6A1.06,1.06,0,0,1,110.37,56Z"/><path class="ao" d="M.23,73.25l0-1.14c1.1-.49,2.16-1.1,3.44-.7,1.83.39,2.16,2.1,3,3.37a2.48,2.48,0,0,1-.12,1.45,1.6,1.6,0,0,1-.71.65,1.46,1.46,0,0,1-1.87-1.07h0C2.53,75.2.36,75.71.23,73.25Z"/><path class="ap" d="M112.19,16.55c.66.74-.55,2,.61,2.51s1.38-.58,1.92-1.13c0,.83,0,1.67,0,2.51l-1.82-.05c-2.7,1.23-3.58-.39-4.09-2.6a4.55,4.55,0,0,1,.12-1C109.89,14.9,111,15.46,112.19,16.55Z"/><path class="aq" d="M114.26,54.26a5.35,5.35,0,0,1-3.29-.73c-1.47-2.16-1.32-2.61.92-2.83a2.78,2.78,0,0,1,2.81.88C114.78,52.51,115,53.46,114.26,54.26Z"/><path class="ar" d="M114.67,96.09c0,.47.07,1,.1,1.42-1.07.79-1.13,2.87-3.14,2.47l0,.09c-1.63-.57-1.94-1.92-2-3.41a2.78,2.78,0,0,1,1.21-1.74A3.34,3.34,0,0,1,114.67,96.09Z"/><path class="aa" d="M109.7,65.47a15.77,15.77,0,0,1,5.07,1.45c0,.62,0,1.25,0,1.88l-1.88.64-.6-.6c-.63-.73-1.9-.28-2.39-1.28-.11-.61-.67-1.2-.13-1.86Z"/><path class="as" d="M114.67,96.09,111,95.4a1.67,1.67,0,0,1-2.07-.65c-.31-1-1.11-2,.13-3,1.64,1,3.15,2.22,5.12,2.52A1.87,1.87,0,0,1,114.67,96.09Z"/><path class="at" d="M114.11,41.42l-1.88,0c-1.87-.67-1.27-2.88-2.49-4-.09-1.36,0-2.53,1.92-1.88a11,11,0,0,0,3.06,3.92C114.92,40.3,114.33,40.8,114.11,41.42Z"/><path class="aq" d="M110.78,112.3a2.91,2.91,0,0,0,1.53-1.48c.72-1.67,1.33-.54,2,.08.58,1,.91,2.06-.09,3.06C113.12,113.26,111.47,113.78,110.78,112.3Z"/><path class="aq" d="M111.63,100a7.05,7.05,0,0,1,3.14-2.47c0,1-1,1.9-.37,3,.38.69.55,1.55-.28,1.88s-1.15-.73-1.79-1C112.1,100.9,111.87,100.44,111.63,100Z"/><path class="n" d="M.13,98.11c3.29.55,3.29.55,1.07,4.52A7,7,0,0,1,.13,98.11Z"/><path class="ai" d="M3.31,72c-1,1.09-2,.68-3.11.15.21-.92.41-1.83.61-2.75,1.37-.56,1.76.69,2.48,1.34A.85.85,0,0,1,3.31,72Z"/><path class="ad" d="M.74,44.6c0-.22,0-.44-.05-.66a3.82,3.82,0,0,1,.7-3.78l1.34-.11C4.43,42,3.69,43.66.74,44.6Z"/><path class="au" d="M114.7,51.58a22,22,0,0,0-2.42-.33c-1.79,0-2.18.77-1.31,2.28l-.62.07c-1,0-1.08-.57-.71-1.33.67-2.88,3.28-1.91,5.08-2.55C114.71,50.34,114.71,51,114.7,51.58Z"/><path class="ai" d="M.23,73.25c.76,1.55,2.52,1.64,3.7,2.57C1,75,1.4,77.68.61,79.1-.16,77.19.14,75.22.23,73.25Z"/><path class="b" d="M114.69,34.46l-.93,0c-.72,0-1.56.21-1.75-.75a1.73,1.73,0,0,1,.34-1.43c1-.81,1.62.26,2.35.72C114.7,33.51,114.69,34,114.69,34.46Z"/><path class="a" d="M77.84,19.83l-.19,2.44c0,3.8-2.18,6.36-6.18,7.3a2.48,2.48,0,0,1-2.28-.86A10.06,10.06,0,0,1,68,25.58c-.2-2-1.47-2-3-1.64-1.2.29-2.29,1.19-3.65.71a1.89,1.89,0,0,1-1.08-.84c1.32-1.39-1-2.1-.63-3.33.68-1.28,2-.31,2.86-.79,1.3-1,1-2.11.34-3.26-.53-1-1.41-1.83-.74-3.08a2,2,0,0,1,1.72-.86c1.8.38,3.67.12,5.44.65,1,.29,1.12,1.1,1.27,2,.46,2.59,1.8,2.82,3.73,1.31C78.1,14.83,78.24,15,77.84,19.83Z"/><path class="av" d="M87.43,17.9c.45-2.15.89-4.31,1.34-6.46,1.79-.19,2.4-3.28,4.82-2,1.58,1.53.35,3.32.47,5a27.11,27.11,0,0,0-.33,5.76c.4,1.32-.68,2.26-.86,3.42a3.14,3.14,0,0,1-1.05,2.15c-1,.77-2,.14-3.06.05-1.44.07-1.42,2.46-3.19,2a1.78,1.78,0,0,1-.85-.58A5,5,0,0,1,86.65,21,5,5,0,0,0,87.43,17.9Z"/><path class="ai" d="M79.05,30.6c3.14,1.45,1.75-1.7,2.61-2.57,2.28-1,3.06.75,4,2.18.13,2.22-.46,4.38-.47,6.59-1,1.72-.31,4.25-2.62,5.31a2.74,2.74,0,0,1-3-.22c-.72-2.83-.6-5.9-2.55-8.42-.54-.7,0-1.83.73-2.55A1.75,1.75,0,0,1,79.05,30.6Z"/><path class="aw" d="M84.71,29.91c-.82.35-2.06,2-1.93-.63,0-.77-.63-.93-1.12-1.25.1-3.34,1.8-6.23,2.47-9.47,1.47.33,1.68,1.7,2.52,2.43.25,2.24-1.23,4.2-1.09,6.43C86.29,28.59,86,29.41,84.71,29.91Z"/><path class="ao" d="M71.42,28.57c3.39-.8,4.49-3.87,6.24-6.3H79.1c.33.61,0,1.16-.16,1.73-1.24,2-2.9,3.87-1.89,6.64.29.81-.58,1.73-1.46,2.23-1.43.62-2.91,1.6-4.33.1S70.46,30,71.42,28.57Z"/><path class="aa" d="M77.84,19.83c-.9-.87-.09-2-.45-3.08-1,0-1.69,1.23-2.75.63-1-.26-1.67-.78-1.52-1.95a1.88,1.88,0,0,0,.75-1.71,2.08,2.08,0,0,1,.68-.61c1.86-.36,4-2.31,5.21.93l0,0C78.05,15.61,79,18.05,77.84,19.83Z"/><path class="ax" d="M78.34,23.74l.76-1.46c1.3,2.78-.67,5.54,0,8.32-.15.14-.3.3-.44.45-2.15-.73-2-2.55-1.69-4.16A8.82,8.82,0,0,1,78.34,23.74Z"/><path class="ay" d="M80.43,17.29c-.05-2,.3-2.92,1.65-3,.24,0,.68.3.69.48C82.85,16.25,81.48,16.13,80.43,17.29Z"/><path class="az" d="M18.54,8.11c-.24-.88.16-1.67,1-1.56C24.21,7.16,24,3.36,25,.64H36.41c.63,1.2-.16,1.9-.89,2.68-1.1,1.15-.76,1.6.78,1.94,3.39.76,4.09,2.31,2.83,5.55-1.17.46-2.49.33-3.61,1-1.58.67-3.08,1.59-4.85,1.76C28.32,13.43,28.08,10.48,26,10a8.48,8.48,0,0,0-4.55-.77C20.26,9.37,19.11,9.48,18.54,8.11Z"/><path class="d" d="M39,10.06c-.71-2.7-1.65-4.43-4.67-1.89-1.12.94-1.87.32-2-1.44-.25-3.27,1-5.2,4.07-6.08h7.91c-1.51,3-1.3,6-1.51,8.87a2.33,2.33,0,0,1-1.16,1.94A2,2,0,0,1,39,10.06Z"/><path class="z" d="M63.79,13.41,62.66,14c-1,1.08-2.65.72-3.75,1.62l-.86.07c-2,.21-1.33,1.58-1.22,2.72a15.92,15.92,0,0,0,1.3,5.08c.15.86-.39,1.44-.82,2.07-1,.5-.8,1.58-1.22,2.36a2.14,2.14,0,0,1-1.21.78,2,2,0,0,1-1-.16A2.21,2.21,0,0,1,52.75,27a7.82,7.82,0,0,1,0-1.37,15.28,15.28,0,0,0,.14-2.53A5.76,5.76,0,0,1,53,20.45c.53-2.07-.83-2.63-2.41-3-.83-.37-1.81-.64-2.26-1.46s-1-2.08.74-2.4c2,.89,3.89-.43,5.85-.26,1.46-.93,2.34-2.94,4.57-2.45,1.76.33,3.58.11,5.31.62a1.33,1.33,0,0,1,1.1,1C65.59,13.64,64.46,13,63.79,13.41Z"/><path class="ba" d="M49.05,13.57c-.77,1.95,1.37,2,2,3,.5.6.32,1.11-.21,1.58a5.54,5.54,0,0,1-3.42.54c-1.24-.43-2.1-1.54-3.38-1.9a7.7,7.7,0,0,1-1.91-1.18c-.82-1.51-2-3-.59-4.76a2,2,0,0,1,1.27-1.37c1.74.23,3.43-1.69,5.31-.23C46.07,11.25,46.07,11.25,49.05,13.57Z"/><path class="bb" d="M52.86,7.61a26.15,26.15,0,0,1-.94,2.66,1.65,1.65,0,0,1-1.73,1.12c-.93-.2-.38-1-.36-1.55.06-1.16-.76-1.71-1.66-2-2.47-.89-1.67-2.26-.53-3.57a6.12,6.12,0,0,1,5.11-2c1.26.08,2.88.62.86,2.25C52.54,5.33,53.66,6.7,52.86,7.61Z"/><path class="bc" d="M63.18,5.73V7.65a11.5,11.5,0,0,1-5.67,3A3.16,3.16,0,0,1,53.56,9c0-.44,0-.88-.05-1.32,1.63-2.05,4.87-2.38,5.61-5.5.23-1,1.93-.21,2.76-.9a8.07,8.07,0,0,1,3.85-.6l0,1.85C65.51,4.07,63.38,4.14,63.18,5.73Z"/><path class="bd" d="M53.56,9l9.62-1.32h0c1.38,3.26,1.23,3.52-2.06,3.9a4.22,4.22,0,0,0-1.75.49L54.9,13.31c.43-.78.25-1.29-.57-1.71C53.2,11,53.17,10,53.56,9Z"/><path class="be" d="M61.88,1.25c-2.39,2.65-4.34,5.88-8.36,6.4l-.66,0c-.4-1.2-.53-2.33.75-3.13a2.34,2.34,0,0,0,3.88-1.33C58.24.25,59.77.37,61.88,1.25Z"/><path class="bf" d="M19.83.66c0,.79,1.16,1.8.21,2.26a10.46,10.46,0,0,1-5,1.31A16.79,16.79,0,0,0,11.39,4c-2.14.31-1.39-2.43-3-2.69l2.5-.05c1.69.37,3.43.32,5.12.69A7.81,7.81,0,0,1,19.83.66Z"/><path class="g" d="M16.06,2c-1.83.69-3.77,2.18-5.12-.69C12.79.47,14.54.33,16.06,2Z"/><path class="bg" d="M18.54,8.11a15.31,15.31,0,0,1,8.39.76c-.57,1.28-1.95.88-2.88,1.41-1.87,1.38-1.61,3.83-2.81,5.58-.62.89-1.55,1.87-2.12,1.26-1.68-1.79-4-.21-5.62-1.36-2.3-2.79-2.25-3.08.89-5.36a2,2,0,0,1,1.77-1c-.05,0,.09-.12.05-.13-.24-.31-.41-.61-.16-1Z"/><path class="bh" d="M6.39,10.83l-1.17-.56c-.45-.71-1.41,0-1.88-.68C5,8,5,8,2.87,6.3,6.65,5,12,6,13.4,8.32a1.53,1.53,0,0,1-.61,1.33C10.68,10.2,9.05,13.31,6.39,10.83Z"/><path class="aq" d="M3.34,9.59l1.88.68C3.41,10.1,2.91,13.11.76,12.1.14,9.74,2,9.89,3.34,9.59Z"/><path class="y" d="M12.83,8.93l.58-.61c.88-.13,1.76-.59,2.64,0L17.3,9.56h0l-1.88,1.26a1.4,1.4,0,0,1-1.66,0A2.87,2.87,0,0,1,12.83,8.93Z"/><path class="ar" d="M107.81,79c.37,2.47,1.86,5.15-1.31,6.95-1.2-.32-1.84.11-1.85,1.38.41,1.25.83,2.5,1.24,3.76.76,5-.31,6.61-4.69,7.06a4.89,4.89,0,0,1-1.72-1.6A11,11,0,0,0,97.36,91c-.15-3.2-3.72-4.35-4.39-7.24a10.28,10.28,0,0,0-.85-2,13.78,13.78,0,0,0-5.59-7,3.75,3.75,0,0,1-1.72-2.24,3.23,3.23,0,0,0-1.75-3.78C81.7,68,81.81,66,80.74,64.84c-.82-3.17-.45-3.57,3.59-3.86,2.08-.36,2.68,1.09,3.19,2.63A5.34,5.34,0,0,0,89.22,66a4.73,4.73,0,0,0,2.66,2.57,7.91,7.91,0,0,1,2.57,1.65c.54.76-.07,1.85.72,2.51,0,0,.24.06.25,0,.21-.08.41-.13.62-.2a2.41,2.41,0,0,1,2.69.73c1.31,1.72.43,3.65.53,5.48.27,1.21,1,1.52,2.1,1C103.4,78.72,105.35,76.86,107.81,79Z"/><path class="b" d="M107.81,79l-6.41,2.51c-.62-.69-1.49-1.19-1.62-2.23,0-2.46,2.36-4.63.93-7.28a12.76,12.76,0,0,1,.9-3.65c.47-1,.81-2.42,2.24-.82Z"/><path class="l" d="M101.45,97.47c2.28-1.57,3.07-4.17,4.44-6.37.41.86.81,1.72,1.22,2.59,1-.32,1.91-.33,2.51.73l1.37,1-.69,1.5a21.57,21.57,0,0,0-2.06,1.49c-.62.77-.81,1.86-1.82,2.31-2.74-.22-2.57,2.91-4.35,3.79a1.19,1.19,0,0,1-1.83-.33A46,46,0,0,1,101.45,97.47Z"/><path class="al" d="M103.85,67.54c-1-.21-1.17.39-1.22,1.15-1.35,1.06-1.9.14-2.13-1a8.39,8.39,0,0,0-.91-2.63,1.92,1.92,0,0,1,0-1,2.41,2.41,0,0,1,.94-1.08c1.65-.49,3.26-.71,4.65.68,0,.19,0,.39,0,.59,0,.75,1.25,1,.66,2A2.09,2.09,0,0,1,103.85,67.54Z"/><path class="bi" d="M104.65,87.34a5.1,5.1,0,0,1-.59-1.42c-.12-1-.91-2.16.38-2.79a2.65,2.65,0,0,1,2.11.15c1.51.82-.15,1.77,0,2.68Z"/><path class="bj" d="M110.33,66.9c.37.92,1.71.86,1.91,1.94-1.09.26-2.18.58-3.28.74-.76.12-1.79.66-2.24-.34-.6-1.33,1-.89,1.44-1.51a3.73,3.73,0,0,1,1-.78C109.5,66.49,109.91,66.56,110.33,66.9Z"/><path class="bk" d="M110.33,66.9l-1.21,0-3.21-.7c-.3-.63-1-1.12-.66-2l4.47,1.42C109.92,66.1,110.12,66.5,110.33,66.9Z"/><path class="bl" d="M109.62,94.42a3.75,3.75,0,0,1-2.51-.73c.08-1.1,0-2.24.67-3.2l1.27,1.26C109.13,92.67,110,93.41,109.62,94.42Z"/><path class="bm" d="M60.65,101.29c-1.24-1.7-.3-3.65-.64-6.05-1,1.87-.3,3.59-1.17,4.88a2,2,0,0,1-1.29-.33c-.41-.32-1-.71-1-1.17.3-3.27-1.88-3.89-4.36-4.23-1-.84-1.41-1.8-.27-2.78a1.69,1.69,0,0,0,.6-2.12c-.47-1.33-.52-2.5,1.12-3,2.2.24,4.55.16,5.77,2.58.75,3,1.12,3.28,3.9,2.22,1.23-.47,2.36-.7,3.5.13a2,2,0,0,1,.39.89c.05.33.08.66.1,1,.32,2.48-1.76,3.45-3.1,4.88-1.37-.41-1.82.47-2.11,1.56C61.84,100.42,61.54,101.13,60.65,101.29Z"/><path class="bn" d="M70.16,109.56c-2.08.92-1.07,2.39-.67,3.75H64.54c2-.94,2.5-1.66.52-2.69-1.8-.93-2.29-2.87-2.61-4.77a2,2,0,0,1-1-2.56,2.11,2.11,0,0,1,.74-.65c3.34.26,6.3-1.29,9.44-2a1.68,1.68,0,0,1,.92,1.14c.06,1.68-1.29,1.7-2.38,2l-2.59.57c-1,2.17-1.14,3.9,2,4l.67.71A.32.32,0,0,1,70.16,109.56Z"/><path class="bo" d="M62.59,103.23l-.64,0a.61.61,0,0,1-.62-.63c-.23-.43-.46-.85-.68-1.28.18-.62.37-1.24.56-1.86,1.11-.26,1.73-1.18,2.51-1.87,1.31-1.25,1.86-3,2.62-4.51,2.47,2.31.76,4.73.17,7.12C65.46,101.51,64.48,103,62.59,103.23Z"/><path class="bp" d="M61.33,102.57l.62.63c.17.89.34,1.77.5,2.65a3,3,0,0,0-1.74,1.74c-.37,1.08-.93,2.21-2.24,1.34a1.81,1.81,0,0,1,0-3C59.69,105,60.1,103.43,61.33,102.57Z"/><path class="bq" d="M44.68,111.54l-3.8-2c-.65-.27-1.1-.71-.92-1.45a1.11,1.11,0,0,1,1.5-.77,5.28,5.28,0,0,1,2.36.84,5.72,5.72,0,0,0,4.59,1.07,9.75,9.75,0,0,0,3.24-1c.86-.39,1.74-.79,2.48.23l.12.43C51.67,112.05,48.12,111.58,44.68,111.54Z"/><path class="as" d="M58.11,99.42l.73.7c-1.34,3-1.67,6.61-4.59,8.83l0,0c-1-1.36-.66-2.69,0-4.06,1-1.91,1.59-4,3.32-5.44Z"/><path class="br" d="M54.85,113.36c-.36-.41-1.59-.23-1.21-1,.78-1.56,4-1.84,5.78-.56-1.36,1.11-3.58-.33-4.56,1.55Z"/><path class="ad" d="M32.58,103.2c-.53,1.27-1.44,1.36-2.55.82C29,102.08,28.77,99.74,27.34,98a10.59,10.59,0,0,0-2.92-4c-.41-.5-.74-1.1-1.42-1.3-2.6.8-3.07,2.39-1.77,4.66.12,1.68-1.17,2.74-1.79,4.1a2.51,2.51,0,0,1-.69.65c-1.54.14-2.6,2.21-4.45,1.14-1.55-2.66.38-5,.92-7.36.73-3.19,2-6.37,4.87-8.41a9.79,9.79,0,0,0,3.63-1.79c1.4-.07,1.6,1.18,2.19,2,1.69,1.63,2.42,4,4.24,5.53a20.2,20.2,0,0,1,1.78,2.69C31.93,98.33,31.74,100.81,32.58,103.2Z"/><path class="bs" d="M19.3,113.25c-1.14-2.1-2.31-4.15-5.12-4.2-.94-1,.12-2.11,0-3.16,1.51-1.85,2-5.4,5.81-3.36,2.77,1.64,2.59,5.64,5.63,7.06l1.15,1.33c-.6,2.33-3,1.58-4.37,2.5Z"/><path class="bt" d="M18.58,101.3c0-.22,0-.45,0-.67.32-.78,1.32-.66,1.72-1.22,2.27-3.18,4.9-3.09,7.81-1,.6,1.76,2.17,3.29,1.32,5.4-1.79,0-1.25,1.74-1.91,2.58-.84.63-1.32.33-1.58-.6-.82-3-.82-3-3.35-1.27a3,3,0,0,1-1.7-.53A6.58,6.58,0,0,1,18.58,101.3Z"/><path class="bu" d="M43.44,109.57c-.62-.32-1.21-.7-1.86-1-1.41-.55-.92.33-.7,1a1.47,1.47,0,0,1-1.94-.65l-1.25-1.89c-.32-.49-.81-.9-.74-1.58a9.29,9.29,0,0,1,1.86-3c2.56-1.59,4.39.62,6.54,1.25C46.3,107.12,45.87,108.44,43.44,109.57Z"/><path class="bv" d="M21.08,103.29l1.29.6a1.61,1.61,0,0,1,1.22,1.33q1,2.18,2,4.37c-1.49.15-3.11-1.81-4.52.29a.59.59,0,0,1-1-.18c-.16-.35-.29-1.07-.17-1.14,4.3-2.37-.17-3.62-.67-5.36C19.88,102.67,20.45,103.68,21.08,103.29Z"/><path class="bw" d="M37.65,105.8c.23.41.9.81,0,1.25L36.57,107c-2.24-1.18-.47-3.5-1.43-5l-1.89-2.08c-.87-.51-1.23-1.17-.63-2.12a1.93,1.93,0,0,1,2-.38,7.84,7.84,0,0,1,2.59,2.47C38.2,101.76,37.79,103.79,37.65,105.8Z"/><path class="ad" d="M23.59,105.22l-1.22-1.33c2.84-2.39,2.87-2.39,4,1.15a2.28,2.28,0,0,0,1.16,1.38c0,.59.48,1.19-.05,1.85a2.76,2.76,0,0,1-1.79-2.64C25.37,103.24,24.49,104.33,23.59,105.22Z"/><path class="u" d="M32.7,98.09c.18.59.37,1.18.55,1.78-.2,1.11-1,2.1-.67,3.33a10.11,10.11,0,0,1-1.91-7C32.26,95.85,32.83,96.58,32.7,98.09Z"/><path class="bs" d="M29.41,103.84c-.53-1.71-.86-3.51-2-5a1.13,1.13,0,0,1-.08-1.43.58.58,0,0,1,.89,0c1.17,2,2.68,4,1.8,6.57A6.32,6.32,0,0,0,29.41,103.84Z"/><path class="au" d="M22.39,113.42c1-1.62,3-1.58,4.37-2.5C27.61,115.78,23.89,112.67,22.39,113.42Z"/><path class="m" d="M35.14,102c.48,1.68,1,3.36,1.43,5-2.31-.17-3.54-.85-1.7-3.25C35.19,103.32,35.06,102.55,35.14,102Z"/><path class="b" d="M79.1,1.93c1.58,2.78-.07,5.53-.09,8.3a10.26,10.26,0,0,1-6,3.14c-3.48-1.07-3.81-1.87-2-4.78L72.1,7c1.39-1,4.24.56,4.46-2.52.5-1.21,2-1.39,2.56-2.59Z"/><path class="bx" d="M72.1,7a7.81,7.81,0,0,1-.22,2.77c-.94,1.87.32,2.35,1.53,3,.57.25,1.51.11,1.3,1.2L74,14a2,2,0,0,1-2.82.14C69.51,13,67.61,13,65.78,12.7l-.7-.61c-.4-.43-.26-.84,0-1.26C66.38,7.62,69,6.9,72.1,7Z"/><path class="bc" d="M65.1,10.83l0,1.26L59.37,12c.42-.59,1.08-1.73,1.21-1.68,3.57,1.62,2.36-1.24,2.6-2.71C65.67,7.59,64.28,9.88,65.1,10.83Z"/><path class="by" d="M63.18,5.73c-.72-2.31,1.29-2.47,2.53-3.23.75-.2,1.69-.47.89.83A7.16,7.16,0,0,1,63.18,5.73Z"/><path class="e" d="M79.12,1.9c.15,1.86-.33,3.09-2.56,2.59C75.72,2.74,75.72,2.74,79.12,1.9Z"/><path class="a" d="M8.37,56.07a2.24,2.24,0,0,0-.18-.61l.06-.74c-.43-1.24.37-2,1.05-2.87a7.76,7.76,0,0,1,7.36,1c1.7,1.94.22,4.1.42,6.14a7.27,7.27,0,0,0,0,3.5c-.12,2,1.07,3.62,1.3,5.51a3.27,3.27,0,0,1-.56,3.11,4.59,4.59,0,0,1-1,.75c-1.46,1-2.92,2.68-4.72,1-1.57-1.51-2.44-3.46-1.11-5.68-.31-1.21,2-2.4,0-3.61-2.82.09-3.68-1.55-3.59-4C8.12,58.43,8.77,57.39,8.37,56.07Z"/><path class="bc" d="M8.5,45.76c.83-.71.38-1.23-.27-1.71,0-2.26,2.19-3.56,2.51-5.68A6.2,6.2,0,0,1,13,36.17c3.1-.19,3.54,2.75,5.11,4.36A26.21,26.21,0,0,1,18.26,45a7.9,7.9,0,0,1-.45,2.36,10.48,10.48,0,0,1-2.7,3.06c-1.54,1.43-3.54,2.51-5.44.22C9.2,49,9.13,47.32,8.5,45.76Z"/><path class="bz" d="M11.54,39c1.57,3.43-1.17,4-3.31,5-1.47-.39-2.6.33-3.7,1.12-.3-1.71,3.25-2.31,1.3-4.51-1.12-2.52.07-4.4,1.73-6.16,2.65-.69,2.87,1.63,3.78,3.08A4,4,0,0,1,11.54,39Z"/><path class="s" d="M8.5,45.76a4.73,4.73,0,0,1,1.76,4.57c.14.77.12,1.47-.78,1.77L8.25,54.72C7.79,54,7,53.4,7.88,52.53c.62-.58,1-1.47.51-2C6.62,48.83,8.26,47.34,8.5,45.76Z"/><path class="n" d="M2.57,94.86c.13-1.65-1.14-3.56.9-4.85.44-1.22.61-2.64,2.26-2.92a3.83,3.83,0,0,1,1.79.55c3.6,1.78,3.86,5.34,4.6,8.66.14,1.43.36,2.89-1.67,3.16-1.18.11-2.15-2.76-3.65-.14-.35.6-1-1.1-1.68-1.4C3.73,97.29,3.44,95.85,2.57,94.86Z"/><path class="ca" d="M10.45,99.46A8.65,8.65,0,0,0,11,95.8a2.29,2.29,0,0,1,.65-.83c1.7-1.07,2.69-.31,3.32,1.3-.24,2.48-.27,5-2.08,7-.21.44-.41.88-.61,1.32-.85,1.61-1.23,3.46-2.61,4.79a1.13,1.13,0,0,1-1.23.16c.22-1.85.43-3.69.64-5.54A8.16,8.16,0,0,0,10.45,99.46Z"/><path class="cb" d="M100.77,103.85l1.3.64,1.53.29c-1.15,2.54,1.57,4.86.4,7.4a1.31,1.31,0,0,1-1.44-1.38c-2.59-3.34-3-3.29-5.64.61-3-1.15-3.14-1.86-1.46-5.45a2.47,2.47,0,0,1,1-1C97.89,104.59,99.08,103.24,100.77,103.85Z"/><path class="cc" d="M106.42,100.7a6.37,6.37,0,0,1,.87-3.19c1.18-2,2.14-.86,2.67.37.81,1.89.07,3.49-1.54,4.7-.1.49-.21,1-.31,1.46l-.88-.79Z"/><path class="cd" d="M102.56,110.8l1.44,1.38c-.42,2.13-2.16.8-3.23,1.23C100.89,112.22,101.22,111.16,102.56,110.8Z"/><path class="bs" d="M111.66,35.62c-1,.36-1,1.08-.67,1.93.51,1.12,1,2.33-.5,3a3.34,3.34,0,0,1-4-1c-.63-.68-.8-1.72-1.49-2.4-.2-.19-.33-.45-.59-.59a2.86,2.86,0,0,0,0,1.13c.07.78.31,1.6-.43,2.23a1.83,1.83,0,0,1-1.48.19,2.79,2.79,0,0,1-1.17-1c-1.44-2-.68-4-.08-6,1.27-1.61,2.41-3.36,4.65-3.77h0a5.26,5.26,0,0,0,3.56,4.29A4.26,4.26,0,0,1,111.66,35.62Z"/><path class="ce" d="M8.48,109.57l.62-.67c.76-.32,1.4-1.15,2.38-.57a10.64,10.64,0,0,1-.4,2.43c-.32.8.6,2.4-1.16,2.31-1.61-.08-2.34-1.11-2-2.76Z"/><path class="cf" d="M111.62,21.65c.55,2.94-2.18,3.07-3.62,3.43-2,.51-4,.47-5,2.79-.36.84-1.54.42-2.28.79-.36,1-.39,2.45-2,2.25S97.42,29.24,97,28.23c-.16-1.76,1.33-3.25.82-5.08a3.78,3.78,0,0,1,1-2c1.15-.48,1.63-1.87,2.92-2.16a11.09,11.09,0,0,1,4.4,1.62,4,4,0,0,0,4.07,0A1.43,1.43,0,0,1,111.62,21.65Z"/><path class="f" d="M105.89,29.3a12.87,12.87,0,0,1-3.84,3.83,9.48,9.48,0,0,0-1.79,2.52c-1,1.53-2.14,2-3.76,1-1.39-1.7-.53-3,.76-4.23,1.2-1.61,3-2,4.83-2.44C103.29,29.41,104.39,28.25,105.89,29.3Z"/><path class="cg" d="M102.09,30l-3.87,3.09c-1.48.15-3,.47-3.32-1.73.12-.95-.34-1.95.22-2.87a2.32,2.32,0,0,1,3.07-.5c.41,1.83,1.08,2.68,2.51.67A2.41,2.41,0,0,0,102.09,30Z"/><path class="w" d="M111.62,21.65l-1.25-.57a1.29,1.29,0,0,1-2.28.09c-1.16-1.38-.63-2.66.41-3.84a1,1,0,0,1,1-.17,3.64,3.64,0,0,0,3.38,3.23Z"/><path class="ch" d="M98.39,2l8.49,1.38c-.4.65-.72,1.18-1,1.7a3,3,0,0,1-1.89,1.84c-2.27,0-4.75.88-6.42-1.57C97.35,4.07,97.28,2.85,98.39,2Z"/><path class="f" d="M104,5.77c.51-.51,1-1,1.83-.73,1.66-.11,3.55-1,4.52,1.28,0,.24,0,.48,0,.72-.45.45-1.11.69-1.46,1.18-.73,1-1.59,1.9-2.84,1.22S103.31,7.74,104,5.77Z"/><path class="cg" d="M98.39,2,98.3,5.09c.59,1.23,1.57,2.44.28,3.81a1.62,1.62,0,0,1-2.18-.31,4.44,4.44,0,0,1-1-2.17,6.19,6.19,0,0,1,1.45-3.23c.23-.81.47-1.62.7-2.43Z"/><path class="b" d="M98.28,8.91c0-1.27,0-2.55,0-3.82,1.8,1.08,4-1.25,5.7.68.37.19.91.29,1.09.59,1.47,2.53,3.35,1.52,5.22.68-.16.59-.59,1.57-.42,1.69.89.63.93-.88,1.85-.83.2,4.09-3.2,2.89-5.25,3.59-.25,1,.6,2.3-1,2.81a1.68,1.68,0,0,1-.87-.24c-1-1.32-2-2.53-4-2.28C98.8,11.75,97.7,11,98.28,8.91Z"/><path class="ci" d="M105.31,13.91c.39-.81.78-1.61,1.18-2.42A10.6,10.6,0,0,0,109.72,14a2.9,2.9,0,0,1,2.47,2.57l-2.44,0A6.39,6.39,0,0,1,105.9,16C105.18,15.47,104.66,14.85,105.31,13.91Z"/><path class="am" d="M7.11,88.56,5.86,88c-1.33-1.12.26-2.21,0-3.32a1.85,1.85,0,0,1-.08-1.81c-.07-1.09-.85-2.3.3-3.21,1.58-1.26.26-2.16-.28-3.18,0-.43,0-.85,0-1.28-.86-3.15.55-5,3.41-6.1a1.71,1.71,0,0,1,.87.08A1.89,1.89,0,0,1,11,70.72c0,3.16,2.09,5.16,3.88,7.34a6,6,0,0,1,.8,2.19,16.29,16.29,0,0,1,0,3.42c-.44,1.47-1.31,2.34-2.95,2.13a1.93,1.93,0,0,1-1.17-1.47C11.22,87,10.18,88.91,7.11,88.56Z"/><path class="ao" d="M5.85,76.44c1.22-.5,2.45-1,3.09.77.5,1.42.1,2.69-1.35,3C6,80.59,6.44,82,5.83,82.83L3.37,77.65c.75-.53,2-.1,2.45-1.17Z"/><path class="cg" d="M5.91,84.64c1.82,1.13.38,2.22,0,3.32a5.3,5.3,0,0,1-2.4,2c-3.08-1.89,0-3.14.49-4.67Z"/><path class="ai" d="M5.82,76.48c.44.63,1.68.53,1.56,1.75a3.75,3.75,0,0,1-4-.58c.19-.61.38-1.22.56-1.84Z"/><path class="cj" d="M3.11,24.31l-.33-2.67c-1.08-2.13-1.67-4.13,1.27-5.29,6,1.56,7.07,2.67,7.19,7.58a8.13,8.13,0,0,1-1.88,5.36C8,31.18,6.11,30.81,4.61,30A4.15,4.15,0,0,1,3.11,24.31Z"/><path class="a" d="M3.11,24.31C2.72,26.47,4.25,27.83,5.53,29a2.15,2.15,0,0,0,3.26-.77,8.91,8.91,0,0,0,1.67-4,1.12,1.12,0,0,1,.87-.29c1.21.36,1.17,1.39,1.22,2.33.11,1.74,1.56,2.72,2.31,4.09,1.05,1.94.41,3.32-1.43,4.29-1.17.18-2.31.27-2.73-1,.84,1.41,3.09,3,0,4.65-.85-1.2-1.22-2.84-3-3.2C7,36.12,6.27,37.22,4.67,36.48,7.35,33.7,4.38,32,3.28,30.09c-.35-.62-1.23.45-1.94.48l.06-4.08C1.42,25.34,1.74,24.41,3.11,24.31Z"/><path class="bm" d="M12.83,8.93a1.71,1.71,0,0,1,1.22,1.18c-1.49,1.29-1.77,3.38-3.19,4.72C9.5,15,8.13,15.21,7,14.19a1.66,1.66,0,0,1-.45-.94c0-.81-.09-1.62-.13-2.42Z"/><path class="ck" d="M6.52,13.25a3.77,3.77,0,0,0,.58.14c2.23.7,4.63,1.23,4.3,4.42-.89,1.22-1.94.69-2.89.16a20.1,20.1,0,0,0-3.36-1c-.64-.44-1.41-.79-1.39-1.77C3.37,12.75,5.32,13.52,6.52,13.25Z"/><path class="r" d="M3.76,15.23l1.46,1.31c.13.61,0,.93-.71.69C1.75,17.84,2.9,20,2.78,21.64c-.45.18-1.19.63-1.24-.1C1.38,19.16.56,16.46,3.76,15.23Z"/><path class="bs" d="M4.67,36.48,7.75,35c-.11,2.06-1.09,3.82-1.92,5.62-1.61,1.12-2.08,3.07-3.26,4.5S1,46,.74,44.6c1.1-1.32,2.89-2.35,2-4.55C2.17,38.2,4.52,37.94,4.67,36.48Z"/><path class="k" d="M8.39,59.29c.5,1.61,1,3.19,3.17,3.15,1.06,3.14,0,4.34-3.69,4.38-2-1.21-2.57-3.53-3.53-5.39s1-2.9,2.2-4C8.12,57.09,8.48,58,8.39,59.29Z"/><path class="b" d="M9.65,69.46c-.32.86-1.1,1.13-1.86,1.48-.92.42-1.28,1.2-.55,2,2.42,2.56.12,2.14-1.37,2.25C4.61,74.42,4.23,73,3.31,72c0-.42,0-.84,0-1.26l2.52-.26c1.26-.61,1.66-2,2.48-2.93C9.93,67.33,9.75,68.42,9.65,69.46Z"/><path class="cb" d="M9.65,69.46,8.29,67.51l-.42-.69c.92-1.72,4-1.59,3.69-4.38.38-.51,1-1.67,1.18-.11a25.14,25.14,0,0,1-.51,5.21,9.88,9.88,0,0,0-2.58,1.91Z"/><path class="ai" d="M8.39,59.29,6.54,57.4a2.39,2.39,0,0,1,1.83-1.33C11.33,57.12,10,58.21,8.39,59.29Z"/><path class="bw" d="M93.83,83.36c1.11.82,1.62,2.12,3.31,2.61,2,.6.47,3,1,4.53-.61,1.1-1.91,1-2.8,1.55-2.19.77-1.09,2.12-.58,3.36-.16,1.36.69,2.53.73,3.85.15,1,.73,2-.08,3-.52.63-1.51.62-1.88,1.39.95,1,3.14,1.74,1,3.6-2.61.45-5.25,1.45-7.63-.76-.56-.53-1.41-.09-2.09.12-.91.28-1.79.65-2.57-.24h-.67c-1-3,2-2.69,3.23-3.86.66-.66,1.35-1.32.88-2.4s.26-1.79.89-2.7c1-1.39,2.65-2.88,1.21-5a2.44,2.44,0,0,1,0-1.34c1.14-2,2.87-3.53,3.19-6A2.16,2.16,0,0,1,93.83,83.36Z"/><path class="cl" d="M70.17,103.81l2-1.9c.67-.74,1.76-1,2.35-2.18-1-.71-1.77.5-2.59.2a1.67,1.67,0,0,1-.82-.35,2.9,2.9,0,0,1,.53-4,3.17,3.17,0,0,0,.92-3.45c-.46-1.56-.78-3.1.32-4.55a3.68,3.68,0,0,1,4.3.09,2.25,2.25,0,0,1,.92,1.12,9.13,9.13,0,0,0,2.5,5.2A2.71,2.71,0,0,1,81,95.3c-.13,2.18.33,4.38-.26,6.55-1.1,2.4-3.39,3-5.62,3.53a36.1,36.1,0,0,1-3.78.38C70.59,105.34,70.54,104.48,70.17,103.81Z"/><path class="cf" d="M86.06,103.12c-1.21,1.46-3.52,1.43-4.44,3.28l-1.32-.05c-1.46-.77-1.65-1.7-.47-2.93a4.35,4.35,0,0,0,1.54-2.82c.91-2.09,2.62-3.79,2.78-6.26.06-.91.92-1.62,1.79-2.09a3.66,3.66,0,0,1,2.7.16c.84-.31,1.81-.52,2.06.6a3.8,3.8,0,0,1-1.27,3.61c-1,1-3.19,1.29-2.14,3.51C86.8,101.09,85.82,101.85,86.06,103.12Z"/><path class="ba" d="M82.29,106.4c2.57-1.08,5-2.73,7.81-.12,1.08,1,2.86.25,4.33.1a1.35,1.35,0,0,1,1.88,0c.1,1.68-1.14,3.52.61,5l-1.24,1.41c-1.32-1-2.74-1.94-2.92-4.1-1.31.77-2,2.17-3.45,2.17-1.85,0-3.12-1.27-4.58-2.12-.94-.44-2.33-.28-2.49-1.81C82.26,106.78,82.27,106.59,82.29,106.4Z"/><path class="cm" d="M82.27,100.75c.31,2.21-3,3.16-2,5.6-3.16,2.62-6,1-8.93-.59,1.87-2.29,5.1-1.73,7.27-3.43.4-.31,1-.4,1.13-1l.18-.42C80.67,100.16,81.41,99.75,82.27,100.75Z"/><path class="j" d="M69.59,108.34c-.85,1.16-1.73,2.23-3.41,1.46a3.09,3.09,0,0,1-2.07-3.25c.24-2,2.18-1.65,3.47-2.17C70.13,104.75,68.74,107.11,69.59,108.34Z"/><path class="cn" d="M85.5,107.06a18.44,18.44,0,0,1,3.81,3.83v0c-.8,1.11-2,1.13-3.21,1.31-2.36-2.29-4.94-2.21-7.64-.67V111C79.88,108,83.15,108.35,85.5,107.06Z"/><path class="co" d="M85.5,107.06c-1.78,2.32-5,2-7,3.89-.2-2.71,2.43-2.74,3.77-4C83.3,108.05,84.46,105.48,85.5,107.06Z"/><path class="cp" d="M70.16,109.56c0-.17.07-.34.1-.51,2.15.25,4.49-.6,6.38,1.13C74.4,110.82,72.1,112.05,70.16,109.56Z"/><path class="r" d="M96.84,3.19c0,1.07,0,2.13,0,3.19-.51,2.92-.65,4-4.25,2.27-1.16.13-2.23-.47-3.38-.39-.77-1.4-.55-2.93-.57-4.43C90,.28,92.4,3.65,94.26,3.09A4.61,4.61,0,0,1,96.84,3.19Z"/><path class="cq" d="M89.25,8.26c.78-1.46,1.67-2.3,3-.51.84.42.74,1,.35,1.7-.82,1.54-.87,4.58-3.84,2Z"/><path class="cg" d="M105.2,63.69a3.12,3.12,0,0,1-4.27,0c-1.64-1-2.92-2.58-5-2.81-1.89-1.83-4.49-3.26-3.57-6.6a2.92,2.92,0,0,1,.9-1.13c1.44-.81,2.82,1.26,4.27.07,1.35.09,2.82-.29,3.92.9.2.24.2.79.47.78s0,.17-.12-.26c-.21-.7-.91-1.11-1-1.86,1.47-3.18,2.3-3.34,5.68-1.12a.82.82,0,0,1,.64,1.17,3.47,3.47,0,0,0,.18,3.27,2.82,2.82,0,0,1-.84,3.84A7.82,7.82,0,0,1,105.2,63.69Z"/><path class="aw" d="M106.5,59.89c-.21-1.51-.4-3-.66-4.53-.2-1.22-.22-2.28,1.32-2.58l.69,1.27c1.42.31,1.57,1.53,1.89,2.62l1.15,2.65C109.54,60.37,108,60,106.5,59.89Z"/><path class="cr" d="M12.93,103.3c.63-2.34,1.45-4.66,1.08-7.15a3.59,3.59,0,0,1,.13-3.44c.17-.58.7-.95.91-1.51.43-.78.74-1.62,1.2-2.39,1.63-1.19,3.12-2.39,2.28-4.8a1.52,1.52,0,0,1,1.12-2c2,0,3.71.34,3.59,2.92A3.87,3.87,0,0,1,21,87.87c-4.59,4.15-5.45,9.81-6.26,15.49.87.87.61,1.71-.06,2.54l-.54,3.15h0c-1.23.34-.83-.92-1.3-1.32A5.1,5.1,0,0,0,12.93,103.3Z"/><path class="cs" d="M11.48,108.33a2.07,2.07,0,0,1-2.38.57,10,10,0,0,1,3.22-4.28A6.25,6.25,0,0,1,11.48,108.33Z"/><path class="ct" d="M12.89,107.73l1.3,1.32c-.1,1.25,1.35,2.79-.71,3.66C11.63,111.25,13,109.4,12.89,107.73Z"/><path class="cu" d="M100.81,54.8c-1.36-.95-2.29.52-3.47.62-1.13-1.58-.12-3.69-1.28-5.26a2.67,2.67,0,0,1,.21-.83c1-1,.38-1.89-.08-2.83a2,2,0,0,1,.07-.92,12.67,12.67,0,0,0,2.37-5.24c.49-1.78,1.46-2.81,3.39-1.49l.64.61c0,1,1,1.75.94,2.81.11,2.24,2.15.91,3.08,1.65a1.4,1.4,0,0,1,.48.69c-1,1.78-4,.65-4.55,3.1.15,1.84-1.77,3.14-1.29,5.06a2.22,2.22,0,0,1,2,1.4C102.61,54.93,101.91,55.68,100.81,54.8Z"/><path class="bw" d="M102.67,42c-.51-.85-1.21-1.7,0-2.57l1.31,0c1.72.37,3.46.67,5.18,1.07a2.87,2.87,0,0,1,2.43,2.12,3.69,3.69,0,0,1,.54,2.42l-5-.51h-.64C105.45,43.43,103,44.25,102.67,42Z"/><path class="bu" d="M101.32,52.77c-2.23-2.36-1-3.83,1.29-5.06l2.53.75a3.25,3.25,0,0,1,1.38,3.15C104.93,52.65,102.71,50.84,101.32,52.77Z"/><path class="cv" d="M109.74,56.67a4,4,0,0,1-1.89-2.62c.67-.52.24-2.15,1.79-1.78l.71,1.33c0,.81,0,1.61,0,2.42Z"/><path class="g" d="M74.71,14l-1.3-1.2c1.44-1.81,3.16-3,5.6-2.52L79.76,14C78.1,12.91,76.38,14.62,74.71,14Z"/><path class="ba" d="M86.11,112.18a2.51,2.51,0,0,1,3.21-1.31c.89.65,2.11,1.21.7,2.5C88.65,113.18,87.05,113.77,86.11,112.18Z"/><path class="ab" d="M108.42,102.58c.12-1.43.69-2.76.66-4.27,0-2-.94-1.12-1.79-.8.5-2.71,1.88-1,3-.61.43,1.06.86,2.11,1.28,3.17-.52.87-1.1,1.73-1.56,2.64C109.34,104.05,108.93,102.83,108.42,102.58Z"/><path class="cw" d="M111.58,42.7c-1.69-.83-3.27-1.9-5.35-1.47-1.24.26-1.94-.58-2.26-1.72-.21-.65-.41-1.3-.61-1.94.74-.61,1.21-1.77,2.51-1.25.49.71,2.59,0,1.65,2.08-.38.86,1,.92,1.6,1.08,1.66.43,1.48-1,1.86-1.93,1.65.91,1.38,2.44,1.25,3.92C112,41.88,111.79,42.29,111.58,42.7Z"/><path class="cx" d="M106.52,15.31a7.61,7.61,0,0,1,3.23,1.27c-.08.19-.16.39-.25.58a3,3,0,0,0-.42,0c-1.37.74-1.76,3.95-4.32,1.74a1.94,1.94,0,0,1-.24-1A4.48,4.48,0,0,1,106.52,15.31Z"/><path class="cy" d="M71.42,28.57a7.1,7.1,0,0,1,.24,1.5c-.08,2.48,1,3,3.11,1.93,2.66,2.26,3.5,5.37,2,7.63a3.13,3.13,0,0,1-2.43.28c-1.94.09-2.41-1.74-3.55-2.69-1.3-1.06-.58-3.23-2.25-4.08-.68-1.15-.27-2.64-1.16-3.73a2.28,2.28,0,0,1-.11-1.81c1-1,1.68-.65,2.29.4Z"/><path class="bt" d="M57.41,23.64c-2.49-1-1.67-3.25-1.93-5.09.07-1.77-.4-4.06,2.75-2.87,1.12,1.44,2.32,2.85,1.73,4.89.67.88,1.54,1.73.64,3C59.59,25.22,58.48,24,57.41,23.64Z"/><path class="bz" d="M62,23.57c1.47,0,2.43-1.09,3.62-1.69a3,3,0,0,1,3.94.72A1.73,1.73,0,0,1,69,25.47c-.31.75-.41,1.56-1.61,1.53C64.77,27,62.48,25.57,62,23.57Z"/><path class="ag" d="M58.65,14.65c1.11-1.55,2.53-1.26,4-.7,2.52,1.79,2.82,4.17,1.79,6.88-.34.87-.75.39-1.14,0C60.26,19.91,59.58,17.18,58.65,14.65Z"/><path class="u" d="M73.34,15.36a3.35,3.35,0,0,1,1.3,2c-1,1.37-1.5,4-3.3,3.71-2.11-.32-1-3-1.55-4.55a10.45,10.45,0,0,1-.27-2.47A4.17,4.17,0,0,1,73.34,15.36Z"/><path class="cz" d="M62,23.57c2.09,1.48,4.17,3,7,1.9A2,2,0,0,1,69.6,28c-.64-.17-1.27-.58-1.9,0-2.31.36-4.33-1.35-6.65-.93-1.47-1.1-3.65-.64-4.9-2.23l1.26-1.2c1-.72,2.13-.09,3.19-.11Z"/><path class="w" d="M73.34,15.36c-1.57.45-2.67-.48-3.82-1.29-1.91-.16-3.9.28-5.73-.66l2-.71c1.19-1.3,2.28-1.76,3.94-.42,1.15.92,2.82,1.2,4.26,1.76l2.24,1C75.3,15.93,74.25,15.11,73.34,15.36Z"/><path class="as" d="M58.65,14.65c2.53,1.34,3.45,3.87,4.66,6.2A4.73,4.73,0,0,1,60,20.57c-1.56-.83-1.61-2.61-2.45-3.9.72-.51-.28-1.57.65-2Z"/><path class="as" d="M88.66,23.58a4.55,4.55,0,0,1,2.23,1.9c1.79-.53,1.81.76,1.87,1.89.08,1.32-.32,2.64-.16,4a2.49,2.49,0,0,1-.69,1.48,3.06,3.06,0,0,1-3,.74c-1-.64-2.19-1.08-2.51-2.43a3.23,3.23,0,0,1-.29-2.36C87.41,27.27,87.8,25.31,88.66,23.58Z"/><path class="ad" d="M92.61,9.45c-.11-.57-.23-1.13-.35-1.7,1.68,0,3.76,1.39,4.62-1.37.06.66.13,1.32.19,2a5,5,0,0,1,.84,3.26A24.33,24.33,0,0,0,97.76,15a2.37,2.37,0,0,1-2.12,2.34c-1.78,0-2-1.4-2.39-2.69C93.1,12.93,93.33,11.13,92.61,9.45Z"/><path class="aa" d="M95.67,28.67c.13.88,1.21,1.51.66,2.56-2.54,1.25-2.89-1.34-4.13-2.36-.13-1.74.52-3.51-.26-5.21.21-1.11.43-2.23.64-3.35.61-.69,1.26-1.22,2.26-.81,1.25.72,1.11,1.95,1.17,3.11C94.52,24.55,96.72,26.7,95.67,28.67Z"/><path class="da" d="M86.69,28.76l.66,1.78a1.29,1.29,0,0,0,.13,1.74c1,1.3.52,2.49-.39,3.41s-2.27,2-3.85.75a27.69,27.69,0,0,0,1.47-6.53l.85-2.49H86C86.67,27.67,86.73,28.19,86.69,28.76Z"/><path class="aw" d="M94.34,19.72l-1.76.59c-.1-1.91-.22-3.83.67-5.63l2.35,1.89a3,3,0,0,1,.67.67c.45,1.37-.19,2.1-1.46,2.46Z"/><path class="bw" d="M86.69,28.76c-.22-.44-.43-.89-.65-1.33,1.12-1.11.31-3.54,2.62-3.85C89.44,25.85,88.32,27.4,86.69,28.76Z"/><path class="bj" d="M91.94,23.66c1.6,1.5.66,3.29.6,5,.78,1.57.61,2.64-1.45,2.7-1.06-1.92,2-4-.2-5.87Z"/><path class="db" d="M83.24,36.44c2-1.26,5-1.92,3-5.47-.31-.54.73-.34,1.16-.43.33,1,1.25,1.4,1.91,2.07.85,3.17-.81,6.41.28,9.58a2.46,2.46,0,0,1,.3,1.43c0,.85.17,1.69.13,2.55-1,1.9-1.1,4.49-3.85,5.07-2.05,0-2-1.74-2.6-3A17.71,17.71,0,0,1,82.38,45c-.15-.25-.28-.51-.41-.78a2.13,2.13,0,0,1,.33-2.83C82.61,39.75,82.93,38.1,83.24,36.44Z"/><path class="b" d="M76.66,39c-.56-2.34-1.85-4.47-1.89-7a3.23,3.23,0,0,0,.86-2.79,5.93,5.93,0,0,1,2.71-5.47,12.91,12.91,0,0,0,.27,7.31c-.29,1-.73,2.31.3,2.94,3.29,2,1.77,4.38.84,6.79-1,.74-2,.42-2.93-.06C76.3,40.17,76,39.61,76.66,39Z"/><path class="dc" d="M77.18,40.14l2.57.64a4.16,4.16,0,0,0,2.55.63L83,43.84c.7,1.19.12,1.95-.87,2.56a3.25,3.25,0,0,1-4.24-.6,28.56,28.56,0,0,1-1.66-4A1.83,1.83,0,0,1,77.18,40.14Z"/><path class="bs" d="M30.58,12.57l4.56-1.72a1.47,1.47,0,0,1,.94.78c.72,1.95,2.07,1.37,3.41.85,1.32.34,3.12,0,3,2.29v.89c.17,1.59-.9,2.48-1.9,3.41-1.34.81-2.49-.33-3.74-.36-2.58.82-5.12,1.13-7.55-.44a2.13,2.13,0,0,1-.81-2.22,5.1,5.1,0,0,1,.82-1.71c.33-.38.75-.67,1.08-1.07A5.64,5.64,0,0,0,30.58,12.57Z"/><path class="at" d="M30.58,12.57c.23.26.47.51.71.76-.07.73-.68.94-1.18,1.26l-.6,1.28a2.9,2.9,0,0,1-2.68-.31c-1-.74-2.34-1-3.37-1.83a5.33,5.33,0,0,1-.28-4.79l3.75-.07A10.52,10.52,0,0,1,30.58,12.57Z"/><path class="cw" d="M35.11,12.08l0-1.23c1.17-.85,2.56-.62,3.87-.79,1.46-1.59,1.63.74,2.53.83a9.6,9.6,0,0,1,1.26,4.4.47.47,0,0,1-.6,0c0-1.81-1.54-1.6-2.63-2C38.06,13,36.41,13.17,35.11,12.08Z"/><path class="bu" d="M53.68,26.72,54.36,28c-.78,2.06,1.45,4.36-.5,6.32a3.17,3.17,0,0,1-2.92,0,32.19,32.19,0,0,0-4.72-2.11c-1-2.09-.64-4.17.06-6.24C49.18,23.48,50.15,23.58,53.68,26.72Z"/><path class="bj" d="M56.15,24.84c1.82,0,3.66-.12,5.11,1.3.47,1.13,1.53,1,2.42,1a4.3,4.3,0,0,1,4,2.36c.87,2.1-.26,2.72-2.06,2.63-1.34-.07-2.66-.5-4,.11-1,.12-1.86.68-2.84.21C57.59,31.58,58.4,29,56,29.1a1.64,1.64,0,0,1-.66-1.6A2.71,2.71,0,0,1,56.15,24.84Z"/><path class="dd" d="M53.68,26.72c-2.17-.15-4.18-2.28-6.52-.56-1,1.79-2.58,1.64-4.23,1.44-1.6-1-1.8-2.54-1.67-4.22a2.58,2.58,0,0,1,1.24-1.69,2.89,2.89,0,0,1,2-.24c2.13.11,4.33-.93,6.41.33.6.76.88,1.76,2.14,1.95,1,.15,1.19,1,.6,1.84C53.65,26,53.67,26.33,53.68,26.72Z"/><path class="de" d="M50.43,17.84l.62-1.23c2.77-1.14,2.59,1.39,3,2.7a13.06,13.06,0,0,1,.16,3.77c-1.21,1.87-2.16.14-3.2-.24a2.14,2.14,0,0,0-1.44-1C48.38,20.21,49.39,19,50.43,17.84Z"/><path class="df" d="M55.35,27.5l.83,1.17c1.92.15,1.91,1.88,2.53,3.1l2.54-.54a2.32,2.32,0,0,1,.28,1.8c-.52,1.12-.85,2.36-1.9,3.16C58,36.94,57,35.55,55.71,35a2.86,2.86,0,0,1-.49-.78c.11-2.1-2.36-4.09-.29-6.28A4.16,4.16,0,0,1,55.35,27.5Z"/><path class="dg" d="M54.93,27.92c-.28,2.07,1.94,3.64,1.17,5.81-.83,1.58-1.67,1.33-2.5,0,.46-1.89-1.5-4.09.76-5.74Z"/><path class="a" d="M58.16,14.67c-.23.66.29,1.57-.65,2-1.84-.63-1.5,1.1-2,1.88C54.49,14.74,55,14,58.16,14.67Z"/><path class="dh" d="M51,22.21c1.23-.23,2,1.24,3.26.86.91,1.11.29,1.84-.62,2.5-.72-1.39-3.36-.87-3.14-3.19C50.56,22.05,50.73,22,51,22.21Z"/><path class="di" d="M44.11,22.94l-1.33-.64c-1.45.37-2.77.3-3.73-1.05A1.76,1.76,0,0,1,39.52,19c2-.45,2.18-2.17,2.62-3.72h.66l1.86.61c1.39.65,1.87,2.22,3.07,3.07a1.8,1.8,0,0,1-.19,2.26C46.44,21.9,46.36,24.61,44.11,22.94Z"/><path class="dj" d="M47.28,21c-.18-.65-.37-1.29-.55-1.94-.41-.72,0-1,.62-1.18,1-.26,2-1.2,3.08,0,2.62,1.78.79,2.74-.7,3.77C48.62,22.54,48,21.46,47.28,21Z"/><path class="cu" d="M47.35,17.86,46.72,19c-.81-.89-1.62-1.77-2.41-2.67,0,0,.23-.31.35-.47C46.3,15.53,46.53,17.1,47.35,17.86Z"/><path class="f" d="M23.18,8.94a12.2,12.2,0,0,1,1.19,4.35c2,.83,1.46,2.58,1.51,4.12a2.61,2.61,0,0,1-.09.88c-1.41,1.34.74,3.47-1,4.74a9.64,9.64,0,0,1-2.73.39c-2.05-1.24-3.65-3.1-5.73-4.3-.24-1.54-2.5-1.69-2.39-3.47l.24-.37c.41-.07,1,0,1.21-.22,1.89-1.76,3.12-1.17,4,1.26.28-2.65,2.39-4.4,2.35-7C21.73,8.34,22.62,8.82,23.18,8.94Z"/><path class="bu" d="M10.85,13.92c-.16-2.29,1.13-3.38,3.2-3.81l1.37.71c-.88,1.36-3.34,2.26-1.27,4.46h0A1.82,1.82,0,0,1,12,16.39C11,15.86,10.36,15.17,10.85,13.92Z"/><path class="y" d="M17.3,9.56a5.35,5.35,0,0,1,1.48.48,1.41,1.41,0,0,1,.63,1.65.78.78,0,0,1-.95.62c-.77-.18-.8-.9-.94-1.5-.1-.41-.15-.83-.22-1.25Z"/><path class="cw" d="M87.39,73.58c.29-.1.65-.37.87-.28,1.57.63,4.89,6.5,4.77,8.34-.34,2-1.25,3.52-3.59,3.57-2,0-3.45-.69-3.25-3,.09-1.07-.54-2-.44-3C85.31,77,85.61,75.06,87.39,73.58Z"/><path class="ai" d="M84.2,62.43c-.16.35.2,1.27-.81.56-2.07-1.45-2.1-.19-1.78,1.43a1.29,1.29,0,0,1-.84.37,1.61,1.61,0,0,1-1.16-.72c-.49-1.45-1.6-2.62-1.88-4.16.69-1.39-.21-2.26-1.07-3.14a10.59,10.59,0,0,1,.54-4,3.5,3.5,0,0,0-.2-3.72,2.63,2.63,0,0,1,.11-.88c1.92-1.89,3.72-1.52,4.39,1.16a25.26,25.26,0,0,0,1.77,4.32,3.66,3.66,0,0,1,.67,2.09C83.35,58,85.88,60.14,84.2,62.43Z"/><path class="dd" d="M98.2,73.94a2.92,2.92,0,0,0-2.58-.07,50.81,50.81,0,0,1-2.42-8.24c-.44-1.76,1.82-2.59,2.65-4a2,2,0,0,1,1.8-.52c1.27.74,2.63,1.42,2.49,3.25h0c-.47.65,0,1.18.21,1.75,1,2.65.32,5.08-.95,7.44A.94.94,0,0,1,98.2,73.94Z"/><path class="dk" d="M87.39,73.58l-.7,5.91a1.41,1.41,0,0,1-1.28.72C83.07,78.78,81,77.13,80,74.41c0-1.46-.1-2.94.94-4.16,2.48-1.68,2.84-1.58,5.34,1.5C86.68,72.36,87,73,87.39,73.58Z"/><path class="bn" d="M89.32,84.11c2.07.42,2.36-1.82,3.71-2.47.27.57.53,1.14.8,1.72-.74,1.33-2.32,2.33-1.09,4.33.47.76-.38,1.83-1.47,2s-1.81.94-2.65,1.5c-1.49.71-1.85-.29-2.13-1.41C86.67,87.48,88.22,85.9,89.32,84.11Z"/><path class="ai" d="M98.2,73.94l.67-.68c.67-1.4,1.56-2.23,3.17-1.25,2.7,2.91-.32,4.78-1.28,7-.71.87-1.76.34-2.61.63C96.17,77.74,99,75.86,98.2,73.94Z"/><path class="bl" d="M96.29,62.46c-2.3,2-2.54,4.31-.82,6.85,1,1.47.25,3,.15,4.56h0a.68.68,0,0,1-1.17,0,4.29,4.29,0,0,1-.8-3.12c-2-1.92-1.72-4.53-2-7A3.28,3.28,0,0,1,93.24,61C94.69,60.58,95.84,60.77,96.29,62.46Z"/><path class="t" d="M86.32,71.75c-1.56-.34-2.78-2.22-4.68-1a1.48,1.48,0,0,1-1.8-.37A3.24,3.24,0,0,1,79.37,69c-.49-1.89-.46-3.6,1.58-4.62l.66.09C82.81,67.1,86.1,68.44,86.32,71.75Z"/><path class="ce" d="M91.21,69.45c-1.28-.57-2.57-1.13-3.21-2.52a12.21,12.21,0,0,0-1.58-4.79c-.29-1-.74-1.94,0-2.9,2.19-1.64,2.74-1.45,4.3,1.49.62,1.43.31,3,.92,4.47a24.65,24.65,0,0,1,.84,3.28C92.87,69.66,92.3,70,91.21,69.45Z"/><path class="l" d="M87.29,60c-.16.8-.31,1.61-.47,2.41.43.72.56,1.39-.23,2-.6-.89-.41-2.75-2.39-2-1.71-1.86-1.68-4.07-1.27-6.36,2-1.41,2.78.73,4.08,1.38C87.58,58.25,86.76,59.2,87.29,60Z"/><path class="af" d="M100.77,103.85a6.63,6.63,0,0,1-3.84,1.9c-.69-.22-1.61-.17-1.54-1.29A7.68,7.68,0,0,0,98.52,98c0-.8,0-1.61.9-2a.87.87,0,0,1,.8.23l1.23,1.28A6.42,6.42,0,0,1,100.77,103.85Z"/><path class="dl" d="M100.22,96.19l-.76,0c-3.33.57-3.36-2.57-4.73-4.2a1.24,1.24,0,0,1,.23-.85c.7-1.9,1.92-1.42,3.19-.69C99.82,92,100.12,94.08,100.22,96.19Z"/><path class="dj" d="M91.21,69.45c1.78-1.54-.44-2.56-.51-3.86.3-1.28.61-2.55,2.43-1.88a17.24,17.24,0,0,0,.54,7Z"/><path class="ai" d="M94.47,73.83l1.17,0c.41.69,1.82,1.32.34,2.17-.78.44-2,.79-2.63,0C92.5,74.9,94,74.55,94.47,73.83Z"/><path class="dm" d="M98.15,79.66c.38-2.23,1.43-1.68,2.61-.63a4.21,4.21,0,0,1,.64,2.49C99.79,81.81,99,80.78,98.15,79.66Z"/><path class="dn" d="M86.59,64.39c.07-.66.15-1.31.23-2,2.7.9,1.88,2.72,1.18,4.51Z"/><path class="ad" d="M102,72c-1,.48-1.74,1.8-3.17,1.25-.78-1.21-2.69-2.43.48-3.28,1.12-.3.24-1.91.3-2.91s-1.06-2,.49-2.72c1.27,1.2.73,3.42,2.49,4.34C102.43,69.8,102.23,70.91,102,72Z"/><path class="f" d="M100.14,64.36c-.85-.87-1.71-1.73-2.57-2.6A1.2,1.2,0,0,1,97,60.19c2.67-.41,3,1.86,3.9,3.45Z"/><path class="do" d="M52.35,93.69l1.79-.58c2.71-.9,3.89,0,3.92,2.88,0,1.14,0,2.28,0,3.42L58,99.34c-2.75,2.42-2.76,2.43-5-.5-.64-.84-1.44-1.53-2-2.42a1.91,1.91,0,0,1,.82-2.65Z"/><path class="dp" d="M54.26,87.3c-1.46.64-.43,1.29,0,1.94a2.34,2.34,0,0,1-2.78,1.53c-1.63,0-3-2.72-4.87-.5a1.79,1.79,0,0,1-.91-.18c-.92-1-1.21-2.28-1.82-3.42-.34-3,2.79-2.5,4-4,1.83-1.71,3.42-.79,5,.47a2.55,2.55,0,0,1,.64.67,5.24,5.24,0,0,0,1.07,2.69A.92.92,0,0,1,54.26,87.3Z"/><path class="dq" d="M46,89.82a4.28,4.28,0,0,0,.62,0c1.58-1.26,3.06.12,4.58.2l3.08-.76c.55,1.06.63,2-.64,2.61-.77.37-1.57.73-1.27,1.84l0,0c-2.44,1.89-4.94.69-7.4.11a2,2,0,0,1-1.39-2.21C43.68,90.13,44.61,89.62,46,89.82Z"/><path class="an" d="M54.26,87.3v-.66A5.31,5.31,0,0,1,53,84.1v0c-.48-2,.55-2.64,2.31-2.69a12.24,12.24,0,0,1,3,2.47c.57,1.31,2.27,1.4,2.92,2.64.17,1.51-.24,2.61-2,2.73l-.5-.07C57,89.11,55.68,88.08,54.26,87.3Z"/><path class="q" d="M65,99.93c2-2,1.24-4.52,1.34-6.88,0-.22,0-.43.08-.65,1.19-.64,2.41-.28,3.63-.12,1.64,1.61,1.72,3.39-.07,4.75-1.37,1-.93,2.14-.84,3.33a2.44,2.44,0,0,1-3,2C64.74,102.2,64.87,101,65,99.93Z"/><path class="u" d="M66.34,91.77a5.06,5.06,0,0,0-2.43.52c-4,2.21-5,1.62-5.2-3.09h0a11,11,0,0,1,6.48.37,7.71,7.71,0,0,1,1.61.9,1.26,1.26,0,0,1,.32,1.29A.53.53,0,0,1,66.34,91.77Z"/><path class="x" d="M66.34,91.77l.67,0a5.2,5.2,0,0,1,1.44-5.29c2.35-1,3.4.54,3.94,2.29.73,2.34-.43,3.79-2.82,4.24-1.23.73-2.14-.17-3.15-.59C66.39,92.19,66.37,92,66.34,91.77Z"/><path class="l" d="M63.72,97.56c-.12,1.58-.44,2.89-2.51,1.87.3-1.27.61-2.55.93-3.9C62.79,96.14,62.69,97.32,63.72,97.56Z"/><path class="be" d="M71.44,99.52c.14-.16.28-.31.41-.48,1-1.32,1.72-3.22,3.8-2.36,1.6.66,1.7,2.2,1.06,3.75-1,2.27-2.59,2.44-4.59,1.48l-.61-.74A1,1,0,0,1,71.44,99.52Z"/><path class="bj" d="M71.44,99.52c0,.55,0,1.1.07,1.65-2.64,2.12-5.54,3.13-8.92,2.06L65,99.93c1,2.4,2.13,1.52,3.29.15.2-1.36.62-2.49,2.35-2.24.67.3.33,1.16.85,1.54Z"/><path class="u" d="M51.59,96.2a3.08,3.08,0,0,1,2.33,1.85c.88,2,2.38,1.94,4.08,1.29L54.28,109c-2.14-.6-3.49,2.44-5.76,1.26a.84.84,0,0,1-.24-.78c.69-1.11,2.22-1.7,2.09-3.34,0-.58-.21-1.14-.17-1.72a3.1,3.1,0,0,1,.24-.84c1.3-2.35,0-4.6-.26-6.9C50.48,96,50.91,95.72,51.59,96.2Z"/><path class="bz" d="M48.6,109.46c0,.26-.05.51-.08.77-1.85,1-3.49.37-5.08-.66a7.08,7.08,0,0,0,1.25-5.7,1.11,1.11,0,0,1,.93-.94c1.18,0,1.45,1.06,2,1.83C47.72,106.37,49.07,107.72,48.6,109.46Z"/><path class="dr" d="M25,88.52c-.43-.84-.85-1.69-1.27-2.53a1.35,1.35,0,0,1-.53-.65c.41-1.75-.18-2.77-2-3.17A2.9,2.9,0,0,1,19,81a2.11,2.11,0,0,1,0-2.36,4.17,4.17,0,0,1,2.16-1,3.83,3.83,0,0,0,3-2.42A2.31,2.31,0,0,1,26,73.68c1.34.43,2.67-1.13,4,0,.82,1.45,2.1,1.64,3.57,1.29.91.15,1.33.94,2,1.46a2.13,2.13,0,0,1,.53,3.11,13.52,13.52,0,0,0-5.76,6.53,3.35,3.35,0,0,1-1.68.52C27,86.41,26.14,87.8,25,88.52Z"/><path class="ds" d="M27.61,97.47c-.07.46-.13.92-.19,1.38-.52.47-1.07,2-1.75.64-1.13-2.18-2.18-1.17-3.4-.36a9.53,9.53,0,0,1-3.71,1.5c-.16-1.54,1.68-1.82,1.93-3.1C20.17,94.4,22,92.6,24.4,91.11a2,2,0,0,1,.7,2.13C27,94,27.31,95.74,27.61,97.47Z"/><path class="dt" d="M24.4,91.11c-.09,2.87-2.34,4.44-3.91,6.42-2.71-1.16-2.15-3-.84-4.78C20.8,91.17,21.76,88.54,24.4,91.11Z"/><path class="du" d="M32.7,98.09l-2-1.84-1.31-2.5a1.69,1.69,0,0,1-.37-.88c.24-1.41.6-2.67,2.47-2.39a2.6,2.6,0,0,1,1.13.92c.21,1.49,1.44,2.1,2.47,2.95,1.68,1.39,1.46,2.59-.54,3.81Z"/><path class="dv" d="M29.42,92.89l-.06.86c-2.9-.54-2.74-3.64-4.39-5.23.28-1.84,1-3.28,3.2-3.14C30.17,87.62,29.05,90.38,29.42,92.89Z"/><path class="dw" d="M14.71,105.9l.06-2.54c1-1.2,1.95-2.47,3.81-2.06l2.5,2a1.83,1.83,0,0,1-1.85-.09c-1.35-.57-2.46-.59-2.76,1.23A1.74,1.74,0,0,1,14.71,105.9Z"/><path class="dx" d="M23.66,85.41a2.83,2.83,0,0,0,0,.58c-.11,1.73-.74,2.73-2.67,1.88l1.36-2.52A.84.84,0,0,1,23.66,85.41Z"/><path class="dv" d="M27.61,97.47q-1.26-2.11-2.51-4.23c2.54.29,2.94,2.17,3.13,4.21Z"/><path class="aw" d="M45.33,103.25l-.64.62c-2.17,2.66-2.16,2.65-3.68-.51-.3-.61-.89-.3-1.37-.17-1.75-.72-2.1-2.43-2.78-3.92-.12-1.28.67-2.09,1.47-2.9,1.81-.25,3.82,0,4.68-2.31.19-.54,1-.6,1.67-.47,4.21.87,4.71,1.37,4.72,4.79-.06,1.31-1.77,1.39-1.94,2.62S46.19,102.63,45.33,103.25Z"/><path class="dj" d="M37.67,99.37c2.3.42,2.8,1.78,2,3.82-.25,1.19-1.19,1.85-2,2.61-1.43-1.7-1.26-3.7-1.07-5.71C36.68,99.45,37,99.13,37.67,99.37Z"/><path class="bm" d="M37.67,99.37l-1.09.72a2.46,2.46,0,0,1-2.06-1.93c.81-1.66.06-2.85-1.33-3.61A2.15,2.15,0,0,1,32,91.77c2.27-1.42,4.59,0,6.87-.16a1,1,0,0,0,1-.56c2-1.08,2.6-3.7,4.9-4.42,1.49.65,1.12,2,1.23,3.19-.55.67-1.69,1-1,2.3.49.94,1.33.85,2.16.94,1.76.2,3.57,0,5.28.6-.27.85-.53,1.69-.79,2.54l-1.21.6c.13,1.34.18,2.62-1.83,2-.12-2.87-1.86-4.09-4.5-4.37-1.87.44-2.54,3.15-4.93,2.61A3.83,3.83,0,0,1,37.67,99.37Z"/><path class="ac" d="M9.65,69.45c.36-1.32.91-2.37,2.58-1.91,0,1.23-1.13,2.5.22,3.68.86.76,1.79,1.63,2.29-.15.61-2.21,1.55-.79,2.44-.37a1.79,1.79,0,0,1,1.63.8c1,1.66-.07,3.63.78,5.31a1.53,1.53,0,0,1-.2,1.72c-1.82,2-3.55,1-5.27-.16C8.92,77.26,10.06,73,9.65,69.45Z"/><path class="cr" d="M16,59.25c-1.13-1.93.42-3.83,0-5.75a1.33,1.33,0,0,1,.22-2.2,2.34,2.34,0,0,1,1.88.23C20.51,53.29,22.07,56,25,57a2,2,0,0,1,.87.18,14.46,14.46,0,0,0,2.4,2,2.93,2.93,0,0,1,.91,1.62,4.5,4.5,0,0,1,.41,1.91c-.43,1.75-1.59,2.06-3.06,1.43-.95-.4-1.89-.83-2.83-1.26a6.58,6.58,0,0,1-2.21-1.64c-1.45-.59-3-.7-4.52-1.18A2.37,2.37,0,0,1,16,59.25Z"/><path class="dv" d="M16,59.25l1.45,0c1.06,1.81,3.17,1.28,4.68,2.1.81,3.22-.8,5.87-2,8.61-.44,1-.53,2.4-2.22,2.08l-.73-1.38a2.77,2.77,0,0,0,0-2.51c-.29-1.94-1.1-3.76-1.21-5.73C16,61.39,15.42,60.31,16,59.25Z"/><path class="ai" d="M16.67,51.61c-.21.63-.41,1.26-.61,1.89-2-1.16-4.6.07-6.58-1.4l.78-1.77a2.86,2.86,0,0,0,4-1.27c.6-1.07,1.67-1.17,2.33-1.93C17.81,48.6,18.73,50.08,16.67,51.61Z"/><path class="ac" d="M16,62.46a7.84,7.84,0,0,1,1.21,5.73A6.67,6.67,0,0,1,16,62.46Z"/><path class="bt" d="M4.51,17.23l.71-.69C7.36,16,9.15,17,11,17.86c1.11-.07,2.09-.82,3.26-.66,1.48.1,1.74,1.66,2.76,2.3,2.52,2.31,1,5.24,1.21,7.9A19.22,19.22,0,0,0,18.58,37c.37,1.25.91,2.77-1.22,3.14-.79.25-2.1,3.09-2.13-.41,0-1.33-1-2-1.71-2.82-1-.89-2.68-1.61-.7-3.15.4-.82,1.87-1.36.65-2.59-1.15-1.78-.63-4-1.49-5.84-.24-.52.14-1.68-1.15-1.2h-.37C10.18,20.4,8,18.26,4.51,17.23Z"/><path class="df" d="M16.67,51.61c0-1.49-.05-3-.08-4.48.24-.63.49-1.26.73-1.88A16.42,16.42,0,0,1,20.22,42a1.13,1.13,0,0,1,1.34.15c.81,1.16.44,2.47.47,3.73,0,.43-.48.88,0,1.32,1.16,1.3,3.3,1.77,3.28,4-.74,1.64-2.57,1.42-3.79,2.24-1.52.56-2.46-.71-3.65-1.17Z"/><path class="dy" d="M20.45,42.63c.35,2.54-2,1.88-3.13,2.62,0-1.69,0-3.38,0-5.07.74-1.1.33-2.16,0-3.3a17.31,17.31,0,0,1-.16-9.6,2.06,2.06,0,0,1,1.52,1.11,7.36,7.36,0,0,1,.21.93c.12.62.55,1.23.49,1.81-.35,3.31,1.26,5.61,3.65,7.55A2.65,2.65,0,0,1,22,41.61C21.6,42.09,20.23,41.12,20.45,42.63Z"/><path class="bx" d="M12.82,33.8c-.71,1.26,1.18,1.94.7,3.15l-2,2.08-.81-.79c1-1.59,0-3-.4-4.47-.28-1.17-1-2.34-.25-3.77C11.67,30.83,10.27,33.83,12.82,33.8Z"/><path class="j" d="M7.11,88.56c2.29-1.84,3-4.73,4.76-7.23L13,85.54c2.26,1.46.44,3.1.21,4.66a13.71,13.71,0,0,0,0,1.57c-.35,1.35-.58,2.76-1.68,3.78a4.91,4.91,0,0,0-.44.25c.08-3-1.91-2.27-3.76-1.84C7,92.05,11.22,90.07,7.11,88.56Z"/><path class="dz" d="M11.47,95.55c0-1.47.08-2.94.13-4.41,1.54,0,2.57.92,3.56,1.92L14,96.15A2.58,2.58,0,0,0,11.47,95.55Z"/><path class="bo" d="M95.77,104.41c.38.45.77.89,1.16,1.34l-.62.66-1.88,0c0-1.38-.91-.72-1.52-.7-.85,0-1.77,0-2.16-.86-.5-1.08.39-1.67,1.13-2.25a4.32,4.32,0,0,0,2.75.36C95.67,102.8,96.27,103.23,95.77,104.41Z"/><path class="ba" d="M102,38.85c-2.09.7-2.45,2.69-3.09,4.37-.43,1.13-.75,2.19-2,2.68-1.06,1.35-2.4,2.38-4,1.16a2.73,2.73,0,0,1-.35-4c1.77-1.75,1.74-3.91,2.28-6,.48-.75,1.07-1.22,2-.79,2.21-.26,2.86-3,5.13-3.2Z"/><path class="dd" d="M105.87,36.32c0,2.1-1.22,1.76-2.51,1.25-.44-2.15-.7-4.19,2.43-4.52C105.94,34.14,105.24,35.26,105.87,36.32Z"/><path class="cg" d="M105.22,18.46c1.69.79,2.42-1.32,3.86-1.27-.17,1.49-1.2,3.27,1.29,3.89-.62,2.66-2.32,2.36-4.1,1.39-1.47-.8-2.83-1.81-4.24-2.73a1.45,1.45,0,0,1,.7-1.86A2,2,0,0,1,105.22,18.46Z"/><path class="dq" d="M95.67,28.67C94,27,92.55,25.24,94.88,23c1.25.69,2.71-.13,4,.57,1-.14,1.69,0,1,1.23L98.19,28A1.91,1.91,0,0,1,95.67,28.67Z"/><path class="ea" d="M98.84,23.56c-1.41.41-3.11,2.88-4-.57a4.84,4.84,0,0,0-.55-3.27l.06,0c1.26-.54,2.31-1.46,3.61-1.95a2.28,2.28,0,0,1,2.2,1.23,2.43,2.43,0,0,1-.61,2.59C99.35,22.27,99.09,22.92,98.84,23.56Z"/><path class="dq" d="M99.6,21.62l-.13-2.48a1.57,1.57,0,0,1,1-2.3c.9,0,1.4.63,2,1.16l.18.44-.6,1.3C101.33,20.51,100.77,21.46,99.6,21.62Z"/><path class="x" d="M96.92,36.33,95.68,37.5c-.84,1-1.63,2.35-3.27,1.63-1.41-.62-1.28-2-1.21-3.25a6.7,6.7,0,0,0-.39-2.43,1.85,1.85,0,0,1,.27-.86c0-.42,0-.83,0-1.24a3.41,3.41,0,0,0,1.44-2.7c2.06-.31,2.09,2.36,3.79,2.58-.33,1.6,1.34,1.16,1.89,1.86C97.74,34.15,96.65,35,96.92,36.33Z"/><path class="aj" d="M96.85,12.07c.07-1.23.15-2.47.22-3.71l1.2.55a2.64,2.64,0,0,0,3.14,1.76c1.35.06,2.59.25,2.25,2.11a1.88,1.88,0,0,1-1.68.93,13.16,13.16,0,0,0-3.36.31C97.31,14.23,96.34,13.72,96.85,12.07Z"/><path class="dg" d="M103.36,12.7c-.22-1.09-1.42-1.24-2-2,2.59-1,2.88-.83,3.82,2.71-1.18,1.53,1.52,3,.12,4.49,0,.2-.09.4-.13.59l-2.59,0v0C100.06,16.16,101.93,14.46,103.36,12.7Z"/><path class="cu" d="M105.35,17.87c0-1.49-2.2-2.93-.12-4.49,0,.18,0,.35.08.53l1.21,1.4C106.46,16.31,106.42,17.33,105.35,17.87Z"/><path class="eb" d="M11.6,89.85A9.82,9.82,0,0,0,13,85.54a2.57,2.57,0,0,0,.82-2.07c2.55-2.32,2.69-2.32,4.75.09.7,2.32-.37,4.26-1.33,6.23l-1.16,2C14.05,92.3,12.5,91.84,11.6,89.85Z"/><path class="a" d="M17.19,89.79c.27-2.09.55-4.18.82-6.27-.64-1.48-2.15-2.08-3.17-3.19l-.72-2c1.69-1.68,3.39,1,5.09,0,.17.14.23.29.17.44s-.1.22-.16.22c.18.64.37,1.27.55,1.91a1.7,1.7,0,0,1-.46,1.91C20.48,85.74,19.87,88.08,17.19,89.79Z"/><path class="ce" d="M14.84,80.33c2.18,0,3.49.76,3.17,3.19a3.56,3.56,0,0,0-4.24-.06C14.13,82.42,14.48,81.38,14.84,80.33Z"/><path class="bf" d="M10.83,24.17c.45-.69.89-.86,1.35,0a14.3,14.3,0,0,1,1.29,7C11,29.45,12.4,26.26,10.83,24.17Z"/><path class="ai" d="M13.46,18.45c-1.07.82-1.84.36-2.49-.59A6.93,6.93,0,0,0,7.1,13.39l3.75.53,1.35,2C13.09,16.52,14.17,17,13.46,18.45Z"/><path class="aa" d="M95.77,104.41c-1.35-.51-3.37.41-3.89-1.84.64-2.26,2.06-.63,3.16-.63.79-1.11.11-1.86-.63-2.59.16-1.31-1.82-2.22-.69-3.7-.24-1.51-.18-2.93,1.3-3.86,1.3.14,3.3-.69,2.7,2-.3,1.36,1.25,1.53,1.74,2.4.14,1.15.3,2.3.41,3.44C100.21,103.15,99.41,104.07,95.77,104.41Z"/><path class="bo" d="M94.41,99.35c1.11-.35,1.16-1.36,1.43-2.26.15-.51.44-1.07,1.1-.82s.53.83.45,1.36A6.37,6.37,0,0,1,95,101.94C94.84,101.08,94.05,100.35,94.41,99.35Z"/><path class="ds" d="M86.06,103.12c-.52-1-1.63-1.36-2.71-1.74,1.2-1.66,2.72-.9,3.94-1.25C88.08,101.62,86.58,102.17,86.06,103.12Z"/><path class="bh" d="M95,91.79a9,9,0,0,1-1.3,3.86C92,93.56,92.41,92.08,95,91.19Q95,91.49,95,91.79Z"/><path class="l" d="M87.37,89.19a1.81,1.81,0,0,0,1.25,2c0,.42,0,.85,0,1.27a4.26,4.26,0,0,1-2.56.63,1.51,1.51,0,0,1-.94-.94c-1-2.64-.84-3,1.85-3.21Z"/><path class="bq" d="M70.8,98.05l-2.51,2c-1.08-1.52-1.28-3,.61-4,1.64-.84,1.31-1.9.67-3.13.24-.82-1.13-2.48,1.35-2.15,1.12.15,1.09-1.06.46-1.79s-1.64-1.6-2.47-2.39A2.27,2.27,0,0,1,67,85.19a1.83,1.83,0,0,1,.75-1.83,3.48,3.48,0,0,1,2.5-.61c1.44.94,3.31,1.37,3.89,3.32a1.74,1.74,0,0,1-.77,1.85c-.1,1.36-.57,2.79.71,3.9a1.36,1.36,0,0,1-.51,1.9C72,94.76,71.58,96.51,70.8,98.05Z"/><path class="bj" d="M77.26,89.21l-.71-.64a2.26,2.26,0,0,1-.48-1.9,2.13,2.13,0,0,1,1-1.07c1.4-1.1,2.29-3.82,4.79-1.53a21.11,21.11,0,0,1,1.31,5.54c.19,1.27,0,2.52-1.33,3.2C79.37,92.82,78.17,91.19,77.26,89.21Z"/><path class="bz" d="M77.26,89.21c2.71-.58,3.44,1.14,3.84,3.27a1.12,1.12,0,0,1,.33.75c-.23.76-.58,1.31-1.51.94C77,93.62,76.83,91.57,77.26,89.21Z"/><path class="ds" d="M79.92,94.17,81.05,93a2.8,2.8,0,0,1,2.56-.45c1.52,2.31,1.17,4.27-1.11,5.86a2.68,2.68,0,0,1-2.89-2.84C79.72,95.08,79.82,94.62,79.92,94.17Z"/><path class="cb" d="M70.8,98.05c-.41-2.88,1.09-4.74,3.31-6.23.9,1.56.21,2.78-.94,3.8a4.21,4.21,0,0,0-1.68,3.76Z"/><path class="di" d="M76.59,86.65c0,.64,0,1.28,0,1.92-1-.31-2.33.68-3.15-.65l-.09-2c-.36-1.65.06-2.75,2-2.79C76.41,84.08,77.1,85.14,76.59,86.65Z"/><path class="bh" d="M79.61,95.54l2.68,2.58c.47,2.12-1.71,2.13-2.55,3.22h0C80.38,99.4,78.61,97.5,79.61,95.54Z"/><path class="cl" d="M79.74,101.34l2.55-3.22c1-1.52,1.84-3.09,1.28-5-.4-.42-1.08-.69-.78-1.48,1.18-1.46,2.19-.18,3.25.2,0,.41,0,.82,0,1.22a15.78,15.78,0,0,1-3.81,7.71Z"/><path class="ct" d="M91.24,33.13c1.42,1.21,2.65,2.49,1.1,4.46,1.4.59,2.35-.17,3.34-.09a10.69,10.69,0,0,0,.79,3c1.12,1.83,1.18,2.71-1.37,2.59a1.6,1.6,0,0,0-1.67,2.16c.7,2,2.31.58,3.54.6,0,.2,0,.39,0,.59a2.36,2.36,0,0,1,0,3.23v0a1.94,1.94,0,0,0-.75,2.17c.35,2-.89,1.94-2.27,1.55l-.93.83-.43-.19c-1.55-1.39-1-3.54-1.82-5.18a11.46,11.46,0,0,0-2.14-5.55l-.6-.6c1-1.19.37-2.56.51-3.84C88.77,36.71,88,33.9,91.24,33.13Z"/><path class="dh" d="M97,60.19l.54,1.57-1.28.7a3.8,3.8,0,0,0-3.12-.62,1.16,1.16,0,0,1-1.63-.42c-.84-2.45-3-4.27-3.41-6.9.34-1.37.11-2.86.88-4.14.41-.61.9-1,1.7-.72,1.15,1.34,1,3.31,2.21,4.63l.1,0C93.48,56.81,95.62,58.25,97,60.19Z"/><path class="dg" d="M94,53.41c-.08-.55,2.76,0,.51-1.33-1.1-.63-1.38-1.42-1-2.82,1.14.8,2.35.51,3.55.43,2.29,1.77,2.7,3.66.38,5.73C95.54,55.89,95,54.17,94,53.41Z"/><path class="df" d="M100.81,54.8l2.48-.63c-.08,1.36,1,2.53.59,4.35C102.74,57.14,99.75,57.87,100.81,54.8Z"/><path class="p" d="M19.31,82.85c.15-.64.31-1.28.46-1.91,4.9-.19,5.37.35,3.89,4.47l-1.27-.06C22.23,83.45,20.93,83,19.31,82.85Z"/><path class="ea" d="M11.6,89.85c.77.46,1.48,1.08,2.51.65,1.22-.51,1.64.29,1.92,1.26l-.87,1.3c-2.16,1.17-3.08,0-3.56-1.92Z"/><path class="cd" d="M102.67,42a4.8,4.8,0,0,1,3.85,2.58c-1,.18-2,.43-3,.52s-2.37.49-2.72-.74S101.51,42.41,102.67,42Z"/><path class="dd" d="M97,49.72c-1.77-1.08-2-2.15,0-3.23,1.16.15,2.44.32,2.28,1.88C99.11,49.63,98.18,50.05,97,49.72Z"/><path class="ec" d="M71.33,36.44c2.12-.57,1.76,1.63,2.69,2.4a2.18,2.18,0,0,1,.77,1.77c-2.37,2.21-3.89,5.62-7.89,5.49a2.31,2.31,0,0,1-1.56-1c-.57-1.63,1.5-4.19-1.71-4.9a2.09,2.09,0,0,1-.83-2c.68-1.53,2.47-1,3.5-1.91a4.8,4.8,0,0,1,2.61-.77C69.8,35.6,70.24,36.86,71.33,36.44Z"/><path class="ci" d="M74,40.84c0-.67,0-1.33,0-2l2.64.11c.17.39.35.79.52,1.19L77.33,42c1.27,2.61-1.1,3.52-2.31,5a13.1,13.1,0,0,0-.93,2.49c-.89,1.19-1.91,1.14-3,.34-1.41-3-1-5.16,1.42-7A8.47,8.47,0,0,0,74,40.84Z"/><path class="d" d="M67,29.35c-1.38-1-2.77-2.25-4.24-.18-.39.53-.77,1.22-1.43.84a4.09,4.09,0,0,1-1.49-2.65c-.33-1.17.86-.89,1.41-1.22A9.36,9.36,0,0,1,67.7,28c.17.43.34.86.52,1.29A.84.84,0,0,1,67,29.35Z"/><path class="di" d="M67,29.35l1.21-.06c1.4.63.93,2.09,1.37,3.14-.3,1.26-1.53,1.22-2.37,1.74a2.84,2.84,0,0,1-1.49.28c-1.5-1.23-4.07.24-5.15-2l.67-1.18a8,8,0,0,1,4-.18C66.59,31.36,67.3,30.81,67,29.35Z"/><path class="cm" d="M67,33.17l2.62-.74a3.6,3.6,0,0,1,1.74,4c-.91,1.09-1.75,1.3-2.48-.18C67.58,35.63,66,35.15,67,33.17Z"/><path class="ed" d="M91.24,33.13a6.58,6.58,0,0,0-2.13,6.3c.16,1.25.51,2.6-1.08,3.29.1-3.41-.45-6.9,1.23-10.11l1.82,0A2.41,2.41,0,0,1,91.24,33.13Z"/><path class="cf" d="M96.85,12.07c.37.82.88,1,1.64.44a2,2,0,0,1,2.94.26c1.37,1.8.34,3.15-.83,4.47l-1.13,1.9-1.82-.58c-1.27.51-1.43-.63-1.91-1.28,0-.24-.09-.47-.14-.71L96.54,15C93.63,13.74,96.26,13,96.85,12.07Z"/><path class="cy" d="M95.74,17.28l1.91,1.28c.17.61.37,1.21.48,1.82a1.19,1.19,0,0,1-.56,1.36c-.63.31-1-.18-1.2-.66a2.1,2.1,0,0,0-2-1.33Z"/><path class="bu" d="M82.28,54.15c-1.58-.61-2.6-1.47-2.4-3.47.1-1.11.27-3-2-2.26a1.61,1.61,0,0,1-.69-.77,1.92,1.92,0,0,1,1.36-2.46c2,1.12,3.07-.64,4.49-1.35l.5.17c0,3.33,2,6.27,1.89,9.61C84.53,54.75,83.42,54.53,82.28,54.15Z"/><path class="ee" d="M89.91,50.39v4.34c-.77,1.34.18,2.53.35,3.79s.46,2.54-1,3.3c-1-.26.3-2.94-2-1.81l-1.11-2.09c-.45-1.29-2.48-2-1.34-3.87,1.22-1.06-.33-2.6.64-3.71,2.39-.54,2.2-2.86,3.08-4.45C91.33,46.69,90,48.73,89.91,50.39Z"/><path class="ef" d="M89.91,50.39c-1.08-1.31-1-3-1.35-4.5,0-.86,0-1.71.07-2.57,2.86.55,3.45,2.55,3.26,5.06.37.88.62,1.84-.15,2.54-.45.41-.89-.17-1.16-.62Z"/><path class="eg" d="M85.48,50.34c0,1.25,1.23,2.5,0,3.76-.64.3-.75,0-.68-.58-.35-3.18-1.87-6.2-1.29-9.51C85.43,45.73,84.62,48.29,85.48,50.34Z"/><path class="dg" d="M78.53,45.19c-.26.9-.52,1.8-.77,2.69C75,49,74.46,48.77,73.37,46c1.24-1.4,3.19-2.1,4-4C78,43,79.26,43.7,78.53,45.19Z"/><path class="dd" d="M27.51,14.68l2,1.19.54,2a1.6,1.6,0,0,1,.38.93,4.29,4.29,0,0,1-3.23,3.65c-2.38-.73-2.5-2.57-2.26-4.58h0A5.78,5.78,0,0,1,27.51,14.68Z"/><path class="do" d="M40.2,19.1c-.15.67-.31,1.34-.47,2-1.27,2.59-1.87,2.65-4,.37a4.85,4.85,0,0,1-.19-1.14,11.22,11.22,0,0,1,.93-4.39c2.06-.26,2.17,2.22,3.74,2.66.18.1.24.21.19.32S40.26,19.1,40.2,19.1Z"/><path class="cd" d="M36.43,15.94l-.06,4.48c-1.11,2.12-3.08,1.89-4.88,1.54-2.06-.41-2.3-1.85-1.44-3.58v-.55C32.4,17.94,35,18.89,36.43,15.94Z"/><path class="y" d="M35.11,12.08l3.45-.32c1.3-.11,1.41.57,1,1.56C37.5,15,36,14.77,35.11,12.08Z"/><path class="am" d="M30.11,14.59l1.18-1.26a6.76,6.76,0,0,1,1.5-.34c.9,0,1.8.4,1.71,1.39-.11,1.17-1.21.9-2,.8A18.41,18.41,0,0,1,30.11,14.59Z"/><path class="eh" d="M40.2,19.1a4.36,4.36,0,0,0,0-.51c-.54-1.8,1.51-2.07,2-3.29C41.71,16.68,43.06,19,40.2,19.1Z"/><path class="cr" d="M27.51,14.68a5.29,5.29,0,0,1-2.57,3.16c-.19-1.13-1.39-1.42-2-2.49,1.52,0,2.61-.38,1.46-2.06A3.83,3.83,0,0,1,27.51,14.68Z"/><path class="dt" d="M27.39,10.84a1.59,1.59,0,0,1-1.06,1.5c-.87.33-1.08-.31-1.08-1S25.07,10,26,10A1.48,1.48,0,0,1,27.39,10.84Z"/><path class="x" d="M47.24,31.86c1.22.59,3.18-1.05,3.84,1.26.29,1.1,1.36,1.49,2.06,2.21,1.93,3.6-1.53,2.91-3,3.8-1,0-1.5,1-2.4,1.18-3.32-.25-2.09-2.48-1.86-4.27.78-1.62-1.38-1.94-1.42-3.2C44.92,31.21,46.29,32.13,47.24,31.86Z"/><path class="eh" d="M47.24,31.86l-2.62,1.22c.18.68,1.2,1,.93,1.86a1.59,1.59,0,0,1-1.09.9,9.83,9.83,0,0,1-4.07-.8c-1.31-1.3-1.11-2.47.31-3.53.55-.37,1.62-.21,1.4-1.37-.18-.5-.57-.87-.71-1.38a1.86,1.86,0,0,1,.18-1.33,1.42,1.42,0,0,1,1.21-.64c1.48-.07,3,.1,4.38-.63C46.82,28.06,46,30,47.24,31.86Z"/><path class="ei" d="M52.37,35.68c-.85-.65-1.67-1.3-1.29-2.56l2.52.61h2.5c0,.23,0,.47.07.7.94.55,2,1,1.26,2.45C54.93,39.9,53.84,37,52.37,35.68Z"/><path class="ej" d="M58.71,31.77c-2.07,0-1.45-2.26-2.53-3.1.58-.58.72-1.56,1.94-2C58.1,28.48,60.32,29.77,58.71,31.77Z"/><path class="z" d="M42.78,26.79l-.48.64c-1,.39-1.19,1.64-2.06,2.2a2,2,0,0,1-.8.39,24.52,24.52,0,0,0-4.36-.45,2.57,2.57,0,0,1-.86-.24,2.32,2.32,0,0,1-.63-.62c-.92-1.66-2-3.11-4-3.62a3.12,3.12,0,0,1-2.11-2.2,2.76,2.76,0,0,1-.13-1.34l2.71-3.17c.6,3.24,2.83,2.38,4.7,1.67.85-.32,1.1.19,1.62.37a4,4,0,0,1,.05.6c-.13,2,.91,2.44,2.66,2.1,1.05-.2,2.17-.62,3,.46Z"/><path class="eh" d="M42.12,23.58a16.8,16.8,0,0,1-2.73.83c-.87.12-1.66,1.71-2.4.61s-1.92-2.46-.57-4c1.07,1.61,2.18,1.42,3.31.08a4,4,0,0,1,3.05,1.2Z"/><path class="ek" d="M47.28,21l2.45.63,1.26.6a4.2,4.2,0,0,1-.5.17c-1.29.5-2.9-.33-4,1.39-.57.9-1.87.34-2.38-.83C45.57,22.94,46.25,21.68,47.28,21Z"/><path class="co" d="M60.58,32.41a10,10,0,0,1,5.08.62c.14,1.65,1.44,3,1.29,4.7-1.07,1.58-2.55.14-3.77.52a1.68,1.68,0,0,1-1.7.15c-1.07-.62-2.81-.73-2.13-2.73C59,34.28,58.3,32.79,60.58,32.41Z"/><path class="q" d="M59.35,35.67,62,37.48c-1.19,2.64-3,1.79-4.83.86-.62-.6-.92-1.25-.28-2-.22-.62-.45-1.25-.68-1.88C58.19,32.38,58.11,35.72,59.35,35.67Z"/><path class="ek" d="M17.86,28.66c-.21-.46-.42-.92-.64-1.38.08-2.58.18-5.15-1.26-7.46-.34-.77-.38-1.38.73-1.38,2.07.76,4.71.76,5,3.82C21.43,25,19.42,26.69,17.86,28.66Z"/><path class="bz" d="M17.86,28.66a7.32,7.32,0,0,1,3.85-6.4l3.2.08a1.16,1.16,0,0,1,.4.76,6.2,6.2,0,0,1-1.47,2.68c-1.2,1.08-1.87,2.6-3.07,3.69-1,1-1.94,2.45-2.76-.11Z"/><path class="dy" d="M25,23c0-.22,0-.43,0-.64-.45-1.15-.92-2.29-1.34-3.45-.6-1.69.81-.84,1.37-1.06.8,1.24,1,2.87,2.4,3.72l.79.8c0,1.63.13,3.35-2.18,3.59C24.31,25.39,24.11,24.36,25,23Z"/><path class="el" d="M16.69,18.44c-.25.46-.49.92-.73,1.38a3.53,3.53,0,0,0-2.5-1.37C12.25,18,12.18,17,12.2,15.91l1.91-.63C14.88,16.41,17.17,16.3,16.69,18.44Z"/><path class="cz" d="M89.32,84.11c.58,2.16-.29,3.78-1.95,5.08v0c-.61-.62-1.35-1.14-1.51-2.09-1.06-2.13-1.85-4.51-4.66-5a2.57,2.57,0,0,1-.5-.76c-.48-1-1.28-2.07,0-3.06s2.12-.53,2.91.56c.51.72,1.29.52,2,.67l1.15,0a2.61,2.61,0,0,1,.72,2.33C87,83.43,88.06,83.87,89.32,84.11Z"/><path class="bc" d="M81,64.33c-.61,1.45.28,3.08-.56,4.49-.81.77-.78,1.93-1.32,2.83-1.11,1.86-2.4,2.67-4.19.75-.87-1.2,1.55-2.75-.4-3.85-1.33-1.09-1.11-2.18.14-3.08a9.43,9.43,0,0,0,2.08-2.15c1-.61,2-.22,3.07-.07a1.68,1.68,0,0,1,.62.62Z"/><path class="cy" d="M73.37,46c.74,2.3,3.44.12,4.39,1.93a3.41,3.41,0,0,0,.1.54l-.06.63A8.9,8.9,0,0,0,78.38,53l-1.06,3.78-.39.22a1.4,1.4,0,0,1-.85-.21,11.2,11.2,0,0,1-1.46-2.26c-1.27-1.86-1.21-4-1.25-6.09C72.82,47.59,73.28,46.77,73.37,46Z"/><path class="do" d="M84.81,53.52l.68.58c-.48,1.41,1,2.45.69,3.82-1.35-.15-1.8-1.88-3.25-1.85-.21-.64-.43-1.28-.65-1.92Z"/><path class="ec" d="M78.38,53a10.5,10.5,0,0,1-2.14-2.12c-.87-1.61.34-1.8,1.56-1.8C79.45,50.14,78.77,51.57,78.38,53Z"/><path class="ad" d="M77.32,56.75c1-.29,2.07-.59,2.54.84.42,1.28-.16,2-1.36,2.28a1.94,1.94,0,0,1-2.57-1.38c-.14-1,.51-1.42,1.23-1.8Z"/><path class="dy" d="M76.64,58.55c.63.44,1.6.39,1.86,1.32.72,1.3,1.75,2.44,1.89,4l-.49-.1c-1.32.5-1.88-.81-2.84-1.19-.63-1-1.85-1.81-1.55-3.29A1.26,1.26,0,0,1,76.64,58.55Z"/><path class="bk" d="M75.18,83.4c-.62.86-1.24,1.72-1.87,2.57-1.28-.49-2.53-1-3.11-2.42a1.82,1.82,0,0,1,.22-1.31c2-1.38,2.32-3.35,2-5.56.62-1.26,1-2.68,2.33-3.45,3.27,1.51,3.84-1.94,5.66-3.09l1.18.56A9.63,9.63,0,0,0,81,74.6a5.55,5.55,0,0,1-1.78,4.62,2.42,2.42,0,0,0-.61,1.47C77.77,82,77,83.39,75.18,83.4Z"/><path class="cl" d="M78.41,78.43c-.1-1.92,1.15-2.94,2.57-3.83l4.56,4.92a2,2,0,0,1-2.35,0c-2.54-1.85-1.43.54-1.63,1.41a2.08,2.08,0,0,1-1.63.27,2.87,2.87,0,0,1-.82-.24A3.47,3.47,0,0,1,78,79.62,1.11,1.11,0,0,1,78.41,78.43Z"/><path class="dj" d="M89.25,61.82c.15-2.37-.36-4.8.66-7.09.32,2.72,2.51,4.59,3.26,7.11.22.63.57,1.26,0,1.88L90.7,65.59C89.51,64.61,90.26,62.88,89.25,61.82Z"/><path class="v" d="M80.46,70.14c-1.48,4.4-1.82,4.65-5.19,3.72-.39-.12-.77-.27-.9-.72A1,1,0,0,1,75.29,72a1.84,1.84,0,0,0,2.77-.94,3.7,3.7,0,0,1,2.33-2.24C80.41,69.26,80.44,69.7,80.46,70.14Z"/><path class="bu" d="M44.75,86.63c1.25,3.65-2.09,3.82-3.9,5.14,0,1.74-1.46,1.56-2.52,1.9L32,91.77l-.64-.64c-1.21-.82-.91-1.52.19-2.14.85-.76,3,.32,2.82-1.44-.16-1.31-2-1-3.23-1A1.77,1.77,0,0,1,30,86.17a.69.69,0,0,1,0-.81c.22-3.31,1.15-6,5.13-6.25,2.49-.12,4.4.49,4.13,3.69,1.81-.86,1.74-3.51,4-3.45.46,0,.92,0,1.38,0,4,.35,4.17.52,3.85,4.14C48.23,85.7,45.12,84.54,44.75,86.63Z"/><path class="t" d="M48.48,83.47c-1.15-1.21-1.61-3.27-3.86-3.11A1.62,1.62,0,0,1,45.49,79a2.24,2.24,0,0,0,2-2.14,8,8,0,0,1,.2-.81c.1-.26.2-.52.29-.79.36-1.47.9-2.8,2.46-3.41a1.93,1.93,0,0,1,2.27,1.64,4.6,4.6,0,0,0,1.87,2.42c2.48,1.34,1.52,3.63,1.55,5.64a1.33,1.33,0,0,1-.65.69A3.83,3.83,0,0,0,53,84.12C51.39,84.47,50.12,82.67,48.48,83.47Z"/><path class="cr" d="M51.18,90c-1.58,1.26-3.07.31-4.58-.2-.09-2.21,1.27-3,3.17-2.91C52.05,87,50.81,88.91,51.18,90Z"/><path class="aa" d="M53,84.1c1.47.31,2.9.65,1.29,2.54-1.1,0-2.28-.18-2.69-1.22S52.65,84.73,53,84.1Z"/><path class="bi" d="M55.48,82.21l.09-.63c1.41-2.87,3.92-2.16,6.28-1.92,1,.65,1.82,1.39,1.59,2.74a2.68,2.68,0,0,1-.69,1.42c-1.6,1.38-3.29,2.22-5.38,1A3.91,3.91,0,0,1,55.48,82.21Z"/><path class="em" d="M65.11,90.53a11.19,11.19,0,0,1-6.39-1.32l1.91-2.55c-.2-.6.16-.83.64-1,1.43.57,3.24-.11,4.41,1.32A2.91,2.91,0,0,1,65.11,90.53Z"/><path class="p" d="M61.11,86.06l-.48.6A12.31,12.31,0,0,0,58,86.42c-2.79.32-.63-1-.58-1.61,1.54-.36,3.17-.41,4.53-1.34C63.56,84.92,62.77,85.62,61.11,86.06Z"/><path class="aa" d="M65.11,90.53l0-3.19c-1.16-1.13-1-2.54-.83-4a3.77,3.77,0,0,1,3.39-3,1.68,1.68,0,0,1,1.23.67,2.41,2.41,0,0,1-.57,3c-.19.45-.39.89-.59,1.33,1.23,2.31-1.53,3.68-1.34,5.74Z"/><path class="aq" d="M66.37,91.11c-1-2.25.94-3.81,1.34-5.74a2,2,0,0,1,1.2,1.29c-.63,1.7-1.27,3.39-1.9,5.09Z"/><path class="ae" d="M48.55,98.75c1.15-.14,1.22-1.3,1.83-2,3.58.82,1.63,4,2.45,6,.53,1.28-.87,1.27-1.83,1.12l-.43-.09c-1.11-1.32-4-.38-4-3.17A2.38,2.38,0,0,1,48.55,98.75Z"/><path class="ea" d="M48.6,109.46c-1.23-1.19-2.19-2.51-2-4.34.86-3.05,2.16-3.41,4.48-1.24l0,0a3.05,3.05,0,0,0-.14.54c-.38.85.23,1.1.83,1.35C53,109,51.14,109.51,48.6,109.46Z"/><path class="dp" d="M51.69,105.8c-.85.8-.76,2.52-2.4,2.53-.21,0-.43-.38-.65-.58,1-.92.3-3,2.23-3.3Z"/><path class="bu" d="M51.05,103.88c-1.94-1.19-3.41-.7-4.48,1.24l-1.24-1.88a2.3,2.3,0,0,1,1.28-2.59C48,101.91,51,100.86,51.05,103.88Z"/><path class="al" d="M43.53,80.19c-1.07,2.18-3.31,3.74-3.55,6.54-.87-.63-1.73-1.32-2.66-1.9-.56-.35-1.36-.79-.76-1.36,2.7-2.6-.28-3.15-1.45-4.36.56-.9.16-1.52-.62-2-.68-1.46.21-1.93,1.4-2.21,3-1.18,5.27,1.31,8,1.67C45.25,77.91,45,79.1,43.53,80.19Z"/><path class="bg" d="M36.39,75.84a1.89,1.89,0,0,0-1.9,1.25l-1.3-1.26c-1.68-.1-2.51-1.38-3.44-2.51-.56-.46-1.12-.93-1.69-1.38-1.32-1.06-1.71-2.26-.08-3.22,1.26-.73,1-1.62.79-2.64.11-1.06.37-2.09.45-3.14.27-.82.06-1.95,1.36-2.11,1,.07,1.33,1.22,2.25,1.43.82.84,2.08,1.19,2.64,2.33C36.11,66,37.63,67.1,37.18,69c-.27.69-1,1-1.27,1.74-.67.93-.06,1.53.57,2.12C37.27,73.85,38.09,74.88,36.39,75.84Z"/><path class="r" d="M26.14,74.51C25.08,76.38,24.75,79,21.78,79c-.8-1.18-1.61-2.35-2.3-3.6-.76-2.23.62-3.64,1.93-5.09,2.1-.82,3.32.64,4.67,1.79A2,2,0,0,1,26.14,74.51Z"/><path class="bp" d="M30,85.36c0,.23.05.47.08.7,2.06.6,3.31,1.57,1.78,3.83a.86.86,0,0,0-.53,1.24c-1.1.09-.65,1.83-1.89,1.76-3.4-2-2-4.82-1.25-7.51Z"/><path class="ch" d="M29.34,80.08c-.69-.18-1.8-.34-1.2-1s-.07-2.46,1.25-2c.62.22,2.11.19,2.12,1.25C31.53,79.65,30.18,79.72,29.34,80.08Z"/><path class="cg" d="M26.14,74.51l-.62-1.83c1.3-1.77,1.83-1.79,4.2-.18.94,1.54.94,1.56-.33,2C28.31,74.85,27.23,75.23,26.14,74.51Z"/><path class="m" d="M21.09,75.17c.47,1.23,2.17,2.23.69,3.81l-2.56,0c0-.22,0-.44,0-.66-.2-.41-.4-.82-.59-1.23C18.79,75.66,19.36,74.69,21.09,75.17Z"/><path class="f" d="M29.39,74.48c.54-.61.29-1.23,0-1.84a.74.74,0,0,1,1.2,0l2.58,3.16C31.37,76.92,30.31,75.9,29.39,74.48Z"/><path class="az" d="M39.12,97c1.46-1.23,2.78-2.72,4.93-2.61C44.23,97.28,42.53,98.18,39.12,97Z"/><path class="dg" d="M38.33,93.67l2.52-1.9c.85.2,2.4.18.86,1.5C40.83,94,39.59,94.74,38.33,93.67Z"/><path class="bj" d="M21.09,75.17l-2.48,2a8,8,0,0,1-.7-5.06c.44-.87.87-1.75,1.31-2.62,1.39-.6,2.29-.22,2.58,1.32C21.86,72.29,20.23,73.53,21.09,75.17Z"/><path class="cd" d="M21.8,70.78l-2.58-1.32c.17-2.74,2.12-4.88,2.53-7.54-.52-.9-.12-1.5.62-2l1.3,1.89c.69,2.75,2.64,3.57,5.23,3.39a2.6,2.6,0,0,1,1.74.43c.6,2.3.12,4-2.29,4.39l2.26,2.66-1.2,0a5.6,5.6,0,0,0-3.89,0A11.92,11.92,0,0,1,21.8,70.78Z"/><path class="j" d="M30.64,65.62c-.83.78-2.09,2.6-2.23,2.41C26.89,65.8,24.6,68,23,66.9a1.28,1.28,0,0,1-.58-1.85c.48-1.06.86-2.17,1.28-3.25a4.55,4.55,0,0,1,3.68,1c.56.52,1.09.4,1.42-.33.54-.2.79,0,.71.56C29.87,63.87,30.26,64.74,30.64,65.62Z"/><path class="g" d="M17.92,52.24c1-.84,2.08-.15,3.12-.07a15.25,15.25,0,0,0,3.71-.58c1.94-.67,2.88,0,2.27,2.18-1.7.89-.46,3.36-2.26,4.18-2,.94-3.54.26-4.09-1.71C20.18,54.51,17.23,54.63,17.92,52.24Z"/><path class="as" d="M29.48,63l-.71-.56L28.14,61a5.92,5.92,0,0,1,1.8-1.65c2.48-1.79,2.67-3.21,1-6a1.87,1.87,0,0,1,0-1.91c.68-1,1.88-.71,2.78-1.16a1.85,1.85,0,0,1,1,.09c1.58.82.9,3.1,2.53,3.9l.57.79a4.13,4.13,0,0,1,.65,3.75,2.83,2.83,0,0,1-1,1.05c-.92.34-2-.14-2.8,1-1,1.56-2.5,1.21-3.89.31C30.3,61.79,29.89,62.39,29.48,63Z"/><path class="v" d="M31.93,52.92c2.65,1.15,3.11,2.77,1.18,5a8.26,8.26,0,0,1-5,3.11l-.58-1.12c-1.47.29-.9-.74-.61-1.16a41.39,41.39,0,0,0,2-3.83C29.2,53.07,30.43,52.79,31.93,52.92Z"/><path class="as" d="M24.76,58c-.16-1.7-.87-3.58,1.46-4.46a2,2,0,0,1,2.18-.27,2.37,2.37,0,0,1,.87,1.28c.42,1.27,1.33,2.66-.09,3.76A2.87,2.87,0,0,1,25.41,58Z"/><path class="a" d="M22.37,59.91c-.21.67-.42,1.34-.62,2-2.06.16-4.47.87-4.28-2.62C19.47,56.64,20.7,60,22.37,59.91Z"/><path class="bl" d="M25.41,58a8.56,8.56,0,0,0,2.19.09c1.84-.38,2.27-1.37.91-2.83-.35-.38-1.94-.42-.25-1.21.94-.5,1.42,0,1.71.81,1.23,2.65-.29,4-2.41,5C25.55,60.72,25.84,59,25.41,58Z"/><path class="en" d="M21.18,41.48l1.28-2.55a1.23,1.23,0,0,1,.79-.5,1.8,1.8,0,0,1,1.65.84c.73,1.72-.77,3.23-.45,4.9.18,1.21-.49,2.78,1.38,3.28.56.17,1,.58,1.67.55,1.73,0,3.17.74,2.7,2.51-.56,2.16-2.53,1.17-4,1a1.94,1.94,0,0,1-1.2-.61l-3.77-3.21a.85.85,0,0,1-.28-1.16c.05-1.52.09-3,.14-4.55A.33.33,0,0,1,21.18,41.48Z"/><path class="ar" d="M25,50.93l1.23.12c1.64.58,3.48-.57,5.05.6.22.42.44.85.67,1.27l-2,1.93L28.26,54l-2-.55c.26-1.58-.76-1.53-1.78-1.32s-2.26.63-3.4,0Z"/><path class="q" d="M20.93,46.56c.1.38.19.77.28,1.16-.06.08-.11.17-.18.25-.65.75-1,1.89-2.27,1.83a.56.56,0,0,1-.36-.93C19.31,48.16,18.74,45.81,20.93,46.56Z"/><path class="ad" d="M21.18,41.48c0,.18-.07.36-.11.53l-.62.62c-.71-.11-1.54-.07-1.71-1s.54-1.07,1.09-1.29C21,39.83,20.92,40.86,21.18,41.48Z"/><path class="ch" d="M23.05,38.66l-.59.27c-2.73.1-4-1.42-4.28-3.94-.17-1.87-.12-3.75-.17-5.63,1.09,1,1.36-.27,1.93-.7,2,0,3.12,1.48,4.55,2.44.66,1.14,2.15,1.67,2.35,3.15a8.41,8.41,0,0,1-1.51,3.18A2.91,2.91,0,0,1,23.05,38.66Z"/><path class="cc" d="M100.6,17.24c1-1.35-.41-3.16.83-4.47l1.93-.07c.14,2-2,3.63-.72,5.72C101.76,18.36,100.82,18.43,100.6,17.24Z"/><path class="ci" d="M86.85,86.56c1.3.66,1,1.65.53,2.65-.53.83-2.81.75-1.34,2.61l-3.12-.06A23.37,23.37,0,0,1,82.46,89c-.42-2.72,0-3.09,3-3A4.4,4.4,0,0,0,86.85,86.56Z"/><path class="cb" d="M68.3,84l0-2.52c.37-1,.83-2.12,2.15-1.6,1.64.64.57,1.89.4,2.91l-.62.72Z"/><path class="cy" d="M86.19,87.27c-4.67-1.12-2.64,2.65-3.27,4.49l.65,1.34L81.05,93c0-.17,0-.33,0-.49,1.82-1.34.9-3,.61-4.64-.23-1.24-.47-2.48-.71-3.72-1.62-1-1.6-2.36-.64-3.83l1.21.65c0,.19.1.39.14.58C83.94,82.86,85,85.09,86.19,87.27Z"/><path class="cm" d="M78.45,79.67l1.22.69c-.41,2.16.1,4.58-1.83,6.29H76.59a6.2,6.2,0,0,1-1.41-3.25l2.73-3.2C77.75,79.67,77.91,79.48,78.45,79.67Z"/><path class="cz" d="M77.84,86.65c1.82-2.19-.65-1.75-1.89-2.24,1.6-1.37,3.23-2.24,3.72-4l.68-.07c.21,1.27.43,2.55.64,3.83a1.28,1.28,0,0,0-1.4,1.37C79.52,86.59,78.89,87,77.84,86.65Z"/><path class="dj" d="M90.58,50.3c1.59.15,1.11-1.11,1.31-1.92q.52,3,1,5.91C91,53.62,90.68,52,90.58,50.3Z"/><path class="l" d="M74,40.84c.65,2.18-1.74,3.26-1.9,5.23-.08,1-.58,2-.62,3-1.29,2.33-2.71,1.57-4.16.17-.72-.95-.6-2.12-.77-3.21a1.77,1.77,0,0,1,.48-.78C69.71,44.37,71.32,41.77,74,40.84Z"/><path class="cm" d="M64.43,39.48C68.09,41,68.09,41,65.75,44.62c-.84.76-1.7.53-2-.37-.55-1.53-1.76-1.17-2.84-1.31-1.42-.52-3.08-.68-3.72-2.42-.28-1.25,0-2,1.49-2A12.61,12.61,0,0,1,64.43,39.48Z"/><path class="db" d="M67,37.73c-3.21-2.22-3.38-2.86-1.29-4.7l1.31.14c.65,1,1.72,1.78,1.88,3.09A3.52,3.52,0,0,1,67,37.73Z"/><path class="e" d="M64.43,39.48,59.85,39c-1.28-.15-2.05.21-1.65,1.7-.24,1.41-1,2.22-2.51,2-1.38-.65-1.23-1.86-1.09-3.06.11-1.83,1.6-1.65,2.79-1.91A4.76,4.76,0,0,0,62,37.48l1.22.77Z"/><path class="dy" d="M61.25,42.14c3-1.81,3.27,1.17,4.5,2.48l1.26.62c0,.18,0,.35.06.53.23,1.81-1.28,1.44-2.23,1.77-1.77-.11-2.33-1.57-3.11-2.78C61.41,43.92,60.6,43.16,61.25,42.14Z"/><path class="ec" d="M67.7,48.41a3.68,3.68,0,0,0,3.76.65c.83.34,1.55.38,1.91-.65a31.44,31.44,0,0,0,3.83,5.75c-1.27,1.24-2.89.89-4.41.94a6.44,6.44,0,0,1-2.05-.35,13.13,13.13,0,0,0-2.7-.51c-1.27.5-2.25,2-3.91,1.17-1.39-1.68-4-1.87-5-4.07a2,2,0,0,1,.27-1.82c1.87-.89,4-.89,5.87-2A2.57,2.57,0,0,1,67.7,48.41Z"/><path class="cl" d="M44.62,35.11l.68-.63c1.87-.72,2,.91,2.55,1.91.18,1-2.89,2.14.1,3.07,1.92-.78,3.31,1,5.08,1a1.83,1.83,0,0,1,1,2.47,2.61,2.61,0,0,1-1.57,1.15c-3,0-5-2.46-7.8-2.91-1-.16-2-.77-3-.11A1.69,1.69,0,0,1,39.8,41a2.62,2.62,0,0,1-.66-1.85,7.52,7.52,0,0,1,.65-1.79C40.57,34.76,43.25,36.38,44.62,35.11Z"/><path class="du" d="M57.39,37.64c-.37.87-1.67.83-1.86,1.88-1.17,1.63-2.65.65-4,.47-.94-.21-1.84-.46-1.77-1.71-.55-1-.26-1.28.81-1,1.37.36,2.33.18,1.83-1.61.62-.49,1.6-1.49,1.87-.15.48,2.34,1.6,1,2.61.78Z"/><path class="bz" d="M49.73,38.28c.54.61,1.28.54,2,.56,1.39.84,1.75,1.85.52,3.13q-2.15-1.26-4.3-2.51A1.59,1.59,0,0,1,49.73,38.28Z"/><path class="cm" d="M47.85,36.39,45.3,34.48c-.52-.37-1.51-.14-1.48-1.14,0-.1.52-.18.81-.26C46.69,33.22,48.76,33.35,47.85,36.39Z"/><path class="bs" d="M40.86,37.48l-.66,1.46c-1.22.35-1.87-.31-2.32-1.32C37.4,36.17,36,35.13,36,33.45c-.52-3.6.27-4.5,3.59-4.12l.08,0a5.14,5.14,0,0,1,2.46-.6l1.27.61c.71,1.44-1,2-1.15,3.1-1.13.23-2.14.54-1.33,2C41.73,35.46,39.83,36.45,40.86,37.48Z"/><path class="l" d="M40.86,37.48c-1.22-1-.7-2,0-3l3.71.68C44.38,37.5,42.91,38,40.86,37.48Z"/><path class="q" d="M42.24,32.39c-.74-1.45.76-2.07,1.15-3.1.72-.91,1.45-1.26,2,.11.35.82.86,2-.64,2C43.71,31.46,43.15,32.29,42.24,32.39Z"/><path class="l" d="M42.12,28.68a1.56,1.56,0,0,1-2.46.6c.33-1.4.53-3,2.63-1.85C42.24,27.85,42.18,28.26,42.12,28.68Z"/><path class="bc" d="M26.2,25.5a6.79,6.79,0,0,1,1.93-3.15L30,24.25c.29.31-.18,0,.13.28,3.09,2.81,3.08,3.12-.21,6.13-.47.41-1.12.55-1.51,1.08-1.86,2.55-1.93,2.54-4.05.1A6.92,6.92,0,0,1,24.51,30C24.93,28.43,24.72,26.65,26.2,25.5Z"/><path class="ai" d="M29.39,29.32c.66-.88,3.56-1.33.54-3-.28-.14,0-1.37.08-2.1.87.08,2-1.36,2.57.64a15.32,15.32,0,0,0,1.79,3.19,19.9,19.9,0,0,1-2.9,5.46,1.75,1.75,0,0,1-.71.64,1.81,1.81,0,0,1-1,0C27.34,31.77,27.27,30.87,29.39,29.32Z"/><path class="ba" d="M39.58,29.33l-.24,1.51c-3.4-1.5-2.13,1.21-2.34,2.59-.58.52-1.17.78-1.82.12-.93-1.62-1.57-3.25-.06-4.9C37,26.25,38.17,28.59,39.58,29.33Z"/><path class="bi" d="M30.68,33.09c1.18-1.71,1-4.44,3.69-5a3.54,3.54,0,0,1,.22.57c.1.63,0,1.26.09,1.9.15,1.09.89,2.38-.51,3.14A2.76,2.76,0,0,1,30.68,33.09Z"/><path class="dr" d="M30.68,33.09c4.09,1,3.46-2.21,3.91-4.44h.53l.69,5a1.91,1.91,0,0,1-2,1.08c-1.16-.08-2.46.29-3.2-1.05C30.65,33.46,30.67,33.28,30.68,33.09Z"/><path class="av" d="M25.48,30.55,25,31.87a.86.86,0,0,1-1.28,0c-1.53-.74-3.5-1-3.74-3.2a5.74,5.74,0,0,1,3.15-3.73c2.26.28,3,1.54,2.19,3.62A1.78,1.78,0,0,0,25.48,30.55Z"/><path class="eo" d="M25.48,30.55c-.86-.05-1.49-.46-1.08-1.34.88-1.89-.17-3.07-1.31-4.28L25,23A2.8,2.8,0,0,0,26.2,25.5C26.82,27.31,25.7,28.87,25.48,30.55Z"/><path class="di" d="M86.19,87.27c-2.41-1.2-3.41-3.5-4.49-5.75,4.15-.8,3.66,3.13,5.15,5Z"/><path class="ep" d="M75.29,72l-.72,1.16a.66.66,0,0,1-.64.35,4.16,4.16,0,0,0-1.89-.2c-1.6-.43-3.46-.33-4.38-2.13-.68-1.92.58-3.46,1-5.17.69-1.27,1.59-1.93,3-1.09a5,5,0,0,1,1.15,1.55c.37,1.39,1.19,1.77,2.48,1.07C78.1,69.05,76.89,70.53,75.29,72Z"/><path class="eq" d="M75.32,67.54a4.74,4.74,0,0,1-2.6,1.54c-.74,0-1.87.31-2.1-.7-.18-.8.95-.92,1.44-1.4-.57-2.58.14-4.22,3.1-4.21.9,0,1.74.1,2.07,1.13-.32,1.24-.66,2.4-2.19,2.8C74.48,66.85,74.91,67.34,75.32,67.54Z"/><path class="cy" d="M77.23,63.9l-2.55-.14c-1.39.51-2.07-.06-2.21-1.45a2.15,2.15,0,0,1,2.16-1.43,4.66,4.66,0,0,1,3.15.89l2.12,2C79.05,64.49,78.14,64.12,77.23,63.9Z"/><path class="o" d="M70.84,53.54l1.77.7c1.68.16,2.67,1.4,3.81,2.41l.74,0c-.17.62-.34,1.24-.52,1.86l-.76.76c-1.24,1-2.48.1-3.72,0C70.15,57.76,69,56,70.84,53.54Z"/><path class="ds" d="M76.42,56.65c-2.23.71-3.52-.06-3.81-2.41.51-1.44,1.25-2.18,2.64-.85a3.06,3.06,0,0,0,2,.77Z"/><path class="l" d="M72.77,58.67l3.11.64,1.9,2.46-3-.05C73.71,60.94,71.09,61.2,72.77,58.67Z"/><path class="er" d="M68.34,70.68,72.75,72c.78,0,.74.94,1.34,1.15l.48,0,.7.7c-.86,1-.32,2.69-1.83,3.28-.86,3.16-3.91,2.58-6,3.54-1.75-.13-2.24-1.11-1.94-2.72a3.51,3.51,0,0,0-.61-3.17,2.39,2.39,0,0,1-.19-2.43C65.92,71.88,66.29,69.42,68.34,70.68Z"/><path class="cg" d="M67.61,80.38c2.14-.73,3.3-3.22,5.83-3.24,1.17,2.84-.14,4.54-2.62,5.69-.36-1.39-.62-3-2.55-1.31l-.61-.58a.34.34,0,0,1-.16-.36C67.53,80.44,67.57,80.38,67.61,80.38Z"/><path class="er" d="M78.45,79.67l-.54.53c-.67,0-1.48.84-2-.11A2,2,0,0,1,76.34,78c.87-1,1.46-.15,2.07.42C78.42,78.84,78.44,79.26,78.45,79.67Z"/><path class="es" d="M31.84,89.89c-.6-1.27-1.19-2.55-1.78-3.83,1.35-.73,2.26-2.34,4.37-1,1.47.94,3.71.93,3,3.45C37.05,90.17,33.88,90.84,31.84,89.89Z"/><path class="o" d="M43.53,80.19A4.44,4.44,0,0,0,43.44,77a.68.68,0,0,1,.16-.92,2.84,2.84,0,0,1,4,1.18c.2,1.28-1.23,1.46-1.59,2.36l-1.36.72Z"/><path class="am" d="M61.29,80.91l-5.72.67c-1.5-1.13.12-3.62-2-4.48-1-1.57-2-3.13.7-4,1-.16,1.88.3,2.83.15,1.41,0,2.79.32,4.19.42,1.39.59,3.3-.41,4.28,1.41C66,79.14,65.2,80.26,61.29,80.91Z"/><path class="dj" d="M47.3,77.74,43.42,76.5a2,2,0,0,1-2-1.15,6.06,6.06,0,0,1,2.36-7,2.63,2.63,0,0,1,2.44,0c.78.8,2,1.08,2.68,2,.4,2.07-1.7,4-.42,6.08,0,.25,0,.49,0,.74C48.18,77.61,47.94,78.06,47.3,77.74Z"/><path class="et" d="M50.37,72.5c-1.09,1.11,1.25,3.3-1.25,4-1.79-1.81-1-3.82-.47-5.82-.63-4.15.54-5.63,4.09-5.19,1.13,2.26,4.2,3.72,2.94,7a2.38,2.38,0,0,1-1.75.47C52.72,73,51.65,71.86,50.37,72.5Z"/><path class="du" d="M50.37,72.5c1-.68,2-1.35,3.3-.6.25.75,1.89.65,1.21,2-2.1.42-1.18,2-1.27,3.23C51,76.67,52.37,73.39,50.37,72.5Z"/><path class="ai" d="M49.05,70.76c0,1.9.05,3.8.07,5.7l-.66,0c-2.69-1.88-1.63-3.74,0-5.58C48.65,70.57,48.84,70.55,49.05,70.76Z"/><path class="h" d="M47.3,77.74l1.12-.58c.83,2.44-.78,2.48-2.44,2.48C45.25,78.2,46,77.77,47.3,77.74Z"/><path class="bs" d="M61.29,80.91a7.47,7.47,0,0,0,3.93-6.36c.17-.26.34-.25.52,0a2.3,2.3,0,0,1,.89,2.76,2.71,2.71,0,0,0,1,3.08c0,.19,0,.38,0,.57-.44,1.26-1.7,1.68-2.56,2.51-1,.45-2,1-2.51-.63A1.93,1.93,0,0,0,61.29,80.91Z"/><path class="f" d="M62.59,82.82l2.51.63c1.07,1.3.77,2.6,0,3.89-1.57.36-3.09.54-4-1.28.58-.77,1.23-1.52.79-2.59Z"/><path class="w" d="M42.13,75.2l1.29,1.3c0,.17,0,.34,0,.52l-7-1.18c.36-1-.49-1.72-.66-2.6-.52-1-1.54-1.86-.62-3.12l1.27-1.28a1.62,1.62,0,0,1,1.29.34C39.54,70.91,41.47,72.59,42.13,75.2Z"/><path class="u" d="M37,69.48l-.66-.64a1.73,1.73,0,0,0-1.29-1.18c-2.77-.35-2.08-1.44-.6-2.72.29-2.47,1.2-4.57,3.6-5.72,3.08-1.7,2.92,1.63,4.22,2.7a4.82,4.82,0,0,1,1.59,1.52c.47.8,1.27,1.36,1.69,2.19.51,1.46-.27,2.19-1.53,2.48A26.24,26.24,0,0,0,39.5,70,5.33,5.33,0,0,1,37,69.48Z"/><path class="ba" d="M30.7,61.18c1.09-.93,2.91-.39,3.69-2.29.53-1.32,1.76,0,2.64.39-1,3.87-2.24,4.77-5.74,4.27C31.1,62.76,30.9,62,30.7,61.18Z"/><path class="at" d="M31.29,63.55c2.82-.2,4.47-2,5.74-4.27l.65-.65a.58.58,0,0,1,.81,0c.19.48.24.92-.34,1.17-1.34,1.63-1.89,3.82-3.66,5.13Z"/><path class="aa" d="M35.11,70.12c.63.95,2.43,1.67.62,3.12-1.14-.06-2.54.12-2.75-1.42S34,70.22,35.11,70.12Z"/><path class="cf" d="M38.35,58.6l-.67,0-1.2-3.14a22.06,22.06,0,0,0,1-2.57c.7-2.35,2.1-2.84,4.23-2,1.55,1.53,2.71,3.16,1.41,5.43a4,4,0,0,1-1.9,2.23A7.54,7.54,0,0,1,38.35,58.6Z"/><path class="eu" d="M34.39,50.87l-.51.07c-1.3-.32-2.73-.52-2.54-2.42.41-1.79,2.51-1.15,3.34-2.34,1.45-1.1,1.41-3,2.24-4.38,1.22-1.15,2.44-2.31,3.5.14a8,8,0,0,1-1.58,6.74c-.77.63-1.35,1.45-2.09,2.11A2.75,2.75,0,0,1,34.39,50.87Z"/><path class="dm" d="M31.94,48.4c.65.85,1.3,1.69,1.94,2.54a4.85,4.85,0,0,1-2.62.71c-1.7,0-3.43.19-5.05-.6l3.13-.59c-.52-1.18-1.91-.59-2.51-1.34C28.32,47.39,29.94,46.52,31.94,48.4Z"/><path class="cd" d="M34.39,50.87a2,2,0,0,1,1.39-1.19c1-.21,2.18-1,2.78.33a2.86,2.86,0,0,1-.5,3.21,8.24,8.24,0,0,1-1.66,1.46C34.39,54.12,34.64,52.36,34.39,50.87Z"/><path class="ek" d="M36.4,54.68A6,6,0,0,1,37.2,53c2.19-2.29.66-2.92-1.42-3.35l1.81-1.36c1.84.1,3.8,0,3.4,2.83l-.12.47c-1.91.78-2.82,2.71-4.4,3.87C36.45,55.22,36.42,55,36.4,54.68Z"/><path class="ac" d="M31.94,48.4l-5.11.72-1.17-.8a1.06,1.06,0,0,1-.42-.75c.53-2.76,0-6,3.22-7.58,5.09-1.83,7.4-.16,7.26,5.26a5.4,5.4,0,0,0,0,1.88C34.9,48.85,33.24,48.1,31.94,48.4Z"/><path class="cp" d="M28.77,40.78c-.6,1.59-1.7,3-1.18,5,.33,1.26-1.11,1.52-2,2-3,.33-2.51-2.24-3.16-3.86a8.29,8.29,0,0,1,2.09-4.47,1.41,1.41,0,0,1,.43-1,2.94,2.94,0,0,1,3.62.32A1.44,1.44,0,0,1,28.77,40.78Z"/><path class="k" d="M24.9,39.11a.86.86,0,0,1-.35.33l-1.5-.78,1.23-1.39c.91-2.39,2.63-2.87,4.9-2.1,1.15,1.55-.27,2-1.17,2.57S25.72,38.17,24.9,39.11Z"/><path class="as" d="M22.46,43.91a7.26,7.26,0,0,0,3.16,3.86,3.39,3.39,0,0,1,0,.55C21.51,49.09,22.83,45.89,22.46,43.91Z"/><path class="ap" d="M23.68,31.86H25c.73.82,1.55,1.9,2-.15.3-1.43,1-2.29,2.46-2.4-1.54,1.73.18,3,.66,4.4-1.07,1.87-2.43,1.63-3.9.52C25.29,33.48,24,33.13,23.68,31.86Z"/><path class="ev" d="M26.15,34.24a5.79,5.79,0,0,0,3.9-.52,1.47,1.47,0,0,0,.59-.07l3.22.28c-1.35,2.83-2,3.09-4.51,1.76-1.89-.11-3.76-.15-5.07,1.58C23.59,35.45,25.27,35.09,26.15,34.24Z"/><path class="bm" d="M67.7,48.41c-.67.56-1.35,1.06-2,0-.67-.48-1.12-1-.6-1.91l2-.74A2,2,0,0,1,67.7,48.41Z"/><path class="df" d="M52.26,43.47l1.41-.83c.51-.49,1-1.1,1.83-.61l2.7-1.37c.93.67,2.29.47,3,1.48l1.26,1.69c-.5,1.12-.58,2.63-2.35,2.59s-3.44.82-5.23.8c-1.11-.32-1.71-1.28-2.49-2A1.51,1.51,0,0,1,52.26,43.47Z"/><path class="er" d="M55.5,42l-1.83.61c-.23-.74-.82-.72-1.43-.67-.17-1-.34-2.08-.52-3.13l3.81.68A3.92,3.92,0,0,1,55.5,42Z"/><path class="bx" d="M60,45.78l2.48-2,2.56,2.68.6,1.91c-1.29,3.09-3.57,1.77-5.66,1.25C58.82,47.33,58.83,46.86,60,45.78Z"/><path class="bc" d="M64.3,54.65c1.57-.44,1.93-2.85,4-2.45,2.13,1.91,2,4.5,2.1,7-.6,1.75-1,3.66-3.55,3.45C64.36,61.59,64.39,59,63.44,57,63.13,56,62.93,55,64.3,54.65Z"/><path class="dn" d="M64.3,54.65c0,.68.09,1.36.14,2.05-.2.76-.22,1.65-1.26,1.85-1.6-.19-3.46.62-4.63-1.22-1-2-1.36-4,0-6A1.45,1.45,0,0,1,60,50.82C61.35,52.18,64.44,51.6,64.3,54.65Z"/><path class="p" d="M60,45.78c0,1.3,2.34,2.61,0,3.89,0,.26,0,.52-.07.78-.76.38-1.52-.15-2.27,0-.71.46-1.35,1.2-2.34.63-.94-1.47-1.59-3-.38-4.62.38-1.87,1.45-1.89,2.7-.89.76-1-1-2.21.47-2.89a2,2,0,0,1,1.48,0c1.12.53.31,1.41.27,2.16A3.63,3.63,0,0,0,60,45.78Z"/><path class="bg" d="M69.46,59.26a15.1,15.1,0,0,0-1.15-7.06c1.69-1.15,1.36,1.5,2.53,1.34a5.76,5.76,0,0,0,1.93,5.13c-.1,1.51,1.48,1.93,2,3l-2,.72a1.35,1.35,0,0,1-1.77.18C69.79,61.81,70,60.39,69.46,59.26Z"/><path class="dh" d="M56.67,48.62c.47-1.22,1.16-1.1,1.86-.24.52.64.94,1.37,1.41,2.07a2.35,2.35,0,0,0,.05.37l-.81.73c-1,.86-1.85.52-2.58-.43A4.93,4.93,0,0,1,56.67,48.62Z"/><path class="bi" d="M55,46.48,56,51.07c1.39,2.58.85,4.57-2.08,7.55-1.36.43-2.66,1.31-4.19.59C48.3,56.4,48.6,54.82,51,52.89c1.84-.85,2.05-2.25,1.42-4.11-1.14.73-1.31,2-2.15,2.74-3.4,1.13-4.3.85-6.25-1.89a16,16,0,0,0-1.92-2.43c-1.52-1.36-1.58-3.33-2.13-5.09,0-.47-.09-1,.33-1.31l1.19-.75c3.95,1.27,7.6,3.31,11.58,4.49C53.68,45.18,54.31,45.83,55,46.48Z"/><path class="be" d="M53,44.54a9.68,9.68,0,0,1-11.58-4.49c3-1.45,5.38.6,7.89,1.62a20,20,0,0,1,2.91,1.8Z"/><path class="da" d="M40.27,40.8,40.12,42c-.08.38-.25.41-.5.12-1.21-1.53-1.23.44-1.86.63-3.12-1.11-2.18-3.68-2.14-5.93,1.2-1.76,2.34-.2,3.51.07l1.07,2.09C40.22,39.56,40.24,40.18,40.27,40.8Z"/><path class="ew" d="M39.13,36.85c-1.06.57-1.93-.23-2.89-.42-2.37,1.88-5.34,2.19-8.08,3.09a4.91,4.91,0,0,0-3.26-.41c.93-1.86,3.2-2,4.45-3.42,1.82.24,3.17-.76,4.51-1.76l2-.31L37,33.43C37.17,34.91,38.63,35.58,39.13,36.85Z"/><path class="cv" d="M69.46,59.26a2.76,2.76,0,0,1,2,2.53c-.46,1.33,1.35,2.68,0,4a1.16,1.16,0,0,0-1.88.4c-2.51,1.46-2.43,4.67-4.42,6.47.22.62.44,1.25.67,1.87l-.26,0h-.26c-1.15,1.27-2.54,1.06-4,.64-1.49.36-3-1-4.46,0a2,2,0,0,1-1.92-1.32c-.27-.74-1.36-1-1.21-2l1.89.11c.47-2.82,2.92-4.26,4.42-6.36a8.49,8.49,0,0,0,2.2-2.07c.34-.73,1.07-1.07,1.62-1.6.81-.69,1.65-1,2.56-.17C68.15,61.88,68.6,60.32,69.46,59.26Z"/><path class="bj" d="M65.07,72.66c.55-2.62,1.06-5.25,1.68-7.85.15-.65.33-1.66,1.23-1.56s.64,1.11.66,1.79a1.17,1.17,0,0,0,.85,1.16,6,6,0,0,1-1.15,4.48C67.13,71.13,66.58,72.68,65.07,72.66Z"/><path class="dy" d="M71.37,65.79c.17-1.33-1.53-2.68,0-4l1.33.65a2.91,2.91,0,0,0,1.93,1.32C72.8,64,73.33,66.23,72.06,67Z"/><path class="v" d="M74.09,73.18c-.93.17-1-.64-1.34-1.15,0-.88-.26-2.31,1.11-1.82S74,72.16,74.09,73.18Z"/><path class="bc" d="M56.8,75.19c1.49-1,3-.63,4.46,0C59.77,76.07,58.29,75,56.8,75.19Z"/><path class="bh" d="M49.05,70.76l-.54.08c-1-.16-2.06-.25-2.54-1.37-.47-1.42.76-2.43.88-3.71A15,15,0,0,0,46.94,64c.23-2.68,1.42-4.42,4.3-4.76a10.43,10.43,0,0,0,2.57-1c2-1.27,3.66-1.06,4.75,1.24.07.64-.58,1.61.79,1.66a2.48,2.48,0,0,1,1.34,1.41c.38,1.53-.79,2.33-1.55,3.32-2,1.23-4,1.8-6.18.47C49.43,65.82,49.69,68.68,49.05,70.76Z"/><path class="al" d="M37,69.48l1.28-1.29a7.68,7.68,0,0,1,5.77.68c-.8,2.07-1.86,4-2,6.33C40.06,73.63,37.66,72.35,37,69.48Z"/><path class="bq" d="M44.09,68.87l-5.77-.68c1.19-.83,2.56-.5,3.86-.63,1.13-.12,2.66.1,2.39-1.87-.64-2.07.47-2.18,1.85-1.47a11.07,11.07,0,0,0,2,1.24c.11,1.92-1.06,3.05-2.5,4Z"/><path class="ab" d="M53,66.29l5.8-1.35a1.46,1.46,0,0,1,2,.4,1,1,0,0,1,0,.85A9.43,9.43,0,0,1,55.56,72c-.93-.75-1.28-1.81-2.89-2.25C49.78,69,51.94,67.42,53,66.29Z"/><path class="ba" d="M48.47,65.46c-.8.41-1.56,1.06-2.39,0-.59-.8-1.17-.73-1.51.28-1.14.29-1.58-.36-1.78-1.33.53-1.33.17-1.81-1.23-1.31-1.52.31-3.09.66-2-1.85.81-1.79-.63-1.27-1.45-1.39.07-.4.13-.8.2-1.21A4,4,0,0,1,40.78,58c.43,0-.11,0,.32,0,6.07.34,6.54.78,6.79,6.41Z"/><path class="bq" d="M41.56,63.05c-.86-2.14,1.73-.78,1.93-2-.26,1.15,1,2.53-.7,3.27A1.74,1.74,0,0,0,41.56,63.05Z"/><path class="ex" d="M42.88,46.54a1.48,1.48,0,0,1,1.51.87c.93,2.39,2.85,3.32,5.23,3.58a2.48,2.48,0,0,1,.81.16,2.09,2.09,0,0,1,.92.82,2.23,2.23,0,0,1,.35,1.59,8.83,8.83,0,0,0-1.82,5.15l-.33.3c-2.41-.45-4.59-1.6-6.92-2.28a2,2,0,0,1-.41-.77c.43-1.72-.5-3-1.35-4.34h0C40.71,49.6,39.23,47,42.88,46.54Z"/><path class="eh" d="M42.22,56a1.63,1.63,0,0,0,.43.18c2.47.65,4.44,2.7,7.19,2.54l0,0,3.76-.65.2.24-.24.2c-2,1.84-5.55,2.25-5.71,5.9C47.58,60,43.64,59.59,40.78,58Z"/><path class="ar" d="M28.16,39.52a7.48,7.48,0,0,1,8.08-3.09q.76,3.15,1.52,6.28a7.53,7.53,0,0,1-2,4.42L33,45c.33-.8,2.21-1,1.09-2.38-.7-.86-1.06-2.42-2.89-1.55-.63.3-1.61-.14-2.43-.24C28.56,40.36,28.36,39.94,28.16,39.52Z"/><path class="aa" d="M42.88,46.54c-.83,1.63-2.05,3.1-2,5.08-.61-1.57-2.35-2-3.26-3.3.82-2,2.12-3.91,2-6.24l.5-.12C41,43.49,42.35,44.77,42.88,46.54Z"/><path class="bh" d="M60,62.44l-1.23-.64a1.09,1.09,0,0,1-.89-1.37c.62-.49.67-1.41,1.37-1.84,1.33-.26,2.76,0,4-.7l1.18-1.19a13.16,13.16,0,0,1,1.92,5.11,3,3,0,0,0-1.92,1.28C62.88,63.39,61.55,62.12,60,62.44Z"/><path class="eq" d="M56.89,51l2.29.6c-1.06,2,0,3.82.29,5.72a1.46,1.46,0,0,1-1.42,1.14c-2.38-.41-3.46-1.5-2.16-4C56.47,53.37,56.24,52,56.89,51Z"/><path class="do" d="M58,58.08l1.45-.81c1.23.42,2.61-.11,3.79.62-.79,1.9-2.47,1.23-3.88,1.35C58.35,59.54,58,59,58,58.08Z"/><path class="eh" d="M58,58.08l1.36,1.16-1.32,1.21c-.15-.13-.2-.24-.13-.34s.12-.16.18-.16C57,58.24,55.32,58.31,53.6,58.5c0-.15,0-.29,0-.44a13.11,13.11,0,0,0,2.39-7c.22-.81.43-1.63.64-2.45.07.78.15,1.55.22,2.33a7.76,7.76,0,0,1-.27,2.72C55.65,55.69,56.25,57,58,58.08Z"/><path class="ey" d="M49.87,51.53a4.34,4.34,0,0,0-.25-.54,10.4,10.4,0,0,0,.12-1.24c-.07-1.9.6-3.77,2.61-3.43,1.66.28,2.58,2.34,2.48,4.1s-.55,3.65-3.13,3.14l-1.47-1.31C51.13,51.5,49.93,51.8,49.87,51.53Z"/><path class="m" d="M60,62.44c2.09-3.9,3.1-.49,4.45.65l-1.32,1.18c-.88.27-1.18,1.64-2.4,1.26l-2-.59Z"/><path class="ad" d="M61.61,71.82c-.55-.11-1-.34-.9-1a1.12,1.12,0,0,1,1.08-.94.94.94,0,0,1,1,1.21C62.7,71.69,62.16,71.83,61.61,71.82Z"/><path class="u" d="M60.72,65.53c.61-.78,1.19-1.61,2.4-1.26a2.45,2.45,0,0,1-2.35,1.92C60.75,66,60.74,65.75,60.72,65.53Z"/><path class="bq" d="M58.11,60c0,.17,0,.34,0,.5.24.45.47.9.7,1.35a2.56,2.56,0,0,1-3.34.93.69.69,0,0,1-.32-1.06C55.83,60.66,56.52,59.5,58.11,60Z"/><path class="ez" d="M49.87,51.53c.16-.39.34-.77.47-1.17.26-.81-.18-2.22,1.32-2a2.39,2.39,0,0,1,2.17,2c.17,1.36-1,1.73-2,2a5.56,5.56,0,0,1-1.57-.06Z"/><path class="bi" d="M49.84,58.68c-3.17,1.33-5-1-7.19-2.54C45.27,56.35,47.78,56.86,49.84,58.68Z"/></svg>