<svg xmlns="http://www.w3.org/2000/svg" viewBox="0 0 196.98 183.88"><defs><style>.a{fill:#fff9dc;stroke:#000;}.a,.b,.c{stroke-miterlimit:10;}.b,.c{fill:none;stroke:#231f20;}.b{stroke-width:2px;}.c{stroke-width:3px;}</style></defs><title>Asset 3</title><path class="a" d="M169.26,8.26c1.42-3.89-.11-6.58,1.5-7.5,1.3-.75,3.68.22,4.75,1.75,1.72,2.45.5,7,.5,7h0s-3.54,9.85-7.75,10a4.32,4.32,0,0,1-4-3.25C163.82,13.68,167.6,12.83,169.26,8.26Z"/><path class="a" d="M181.47,11c1.41-3.89-.11-6.58,1.5-7.5,1.3-.75,3.68.22,4.75,1.75,1.71,2.45.5,7,.5,7h0s-3.54,9.85-7.75,10a4.31,4.31,0,0,1-4-3.25C176,16.43,179.8,15.58,181.47,11Z"/><path class="a" d="M60.6,79.26a14.55,14.55,0,0,1,3-2.67c1.78-1.36,2.52-1.67,4-2.67,3.72-2.52,3.14-3.34,5.66-4.66,1.59-.84,3.17-1.12,6.34-1.67a16.62,16.62,0,0,1,5.25-.34,9,9,0,0,1,4.08,1.34c2.12,1.48,2,3.49,3.33,6,1,1.9,3.12,3.51,7.34,6.67,4.87,3.64,5.41,3.53,9.66,6.66,5.8,4.27,4.48,4.24,9,7.34a42.45,42.45,0,0,1,9,7.33c1.61,1.8,2.07,2.7,2,3.67-.2,2.81-4.76,4.56-7.66,5.66a24.63,24.63,0,0,1-11.34,2c-3.34-.27-5.41-1.25-14.33-6.33-10.3-5.87-15.45-8.81-18-10.67-7.24-5.28-7.61-7-12.33-8.66-3.17-1.11-6.38-1.52-7-3.67S60.09,79.9,60.6,79.26Z"/><path class="a" d="M90.6,61.92a50.24,50.24,0,0,1,8.66-4c4.72-1.51,7.42-2.37,10-1.33,2.94,1.18,4.3,5.13,4.75,6.25a21,21,0,0,0,3.19,6l.4.47a22,22,0,0,0,3.65,3.29,58.34,58.34,0,0,0,6.35,4c6.15,3.27,9.21,5,12.33,6,8.37,2.81,13.63,2.06,14.33,4.67.31,1.16-.48,2.25-2,4.33a24.76,24.76,0,0,1-8.33,7c-1.77,1-6.49,3.75-11,4a15.39,15.39,0,0,1-4-.33c-.53-.2-1.69-.62-3.13-1.2-24.24-9.86-42.68-31-39.37-36.64C86.65,64.05,88,63.34,90.6,61.92Z"/><path class="a" d="M37.26,102.42c1.09,2,3.2,1.78,7.84,3.84,3.79,1.67,3.07,2.15,10.5,6.83a70.49,70.49,0,0,0,12.33,6.67c3.08,1.22,3,.87,6.33,2.16,8.23,3.2,8.21,5.12,12,5.84,5.9,1.11,11.17-2.58,17.5-7,3.85-2.7,6.89-4.78,6.5-6.84-.47-2.5-5.51-2.42-13.63-5.93a68.4,68.4,0,0,1-11.25-6.44C75,94.76,74.64,91.88,68.05,89.32c-1.62-.63-4.34-1.52-8.57-3.44s-3.92-2.08-5-2.29C48.82,82.57,43,88,40.1,92.26,38.79,94.19,35.48,99.1,37.26,102.42Z"/><path class="a" d="M34.43,101.26a15.1,15.1,0,0,0-3,2c-1.52,1.28-2.65,2.71-4.67,6.16-2.31,4-3.46,5.92-3.5,6.84-.21,5,5.76,8.82,7.17,9.66,3.88,2.34,5,1.06,10.5,3s5.74,3.77,14.5,8.5c5.44,2.94,8.15,4.41,10.67,4.5,8.62.33,14.55-7.62,15.83-9.33,2.24-3,2-4.23,1.83-4.67-.62-1.86-3.3-2-8.5-4.66-.66-.35-1.79-1-4.05-2.39C59.65,113.93,42,97.65,34.43,101.26Z"/><path class="a" d="M22.26,119.09c-5.79,1.72-8.48,9.18-8.83,10.17-.61,1.69-2.15,6-.39,10.17.17.39.32.69.39.83,2,3.77,6.14,5.31,9,6.33,9.26,3.3,11,3.41,16.33,5.5,5.75,2.24,5.57,2.81,7.67,3,7.89.7,17.43-6.8,16.83-12.5-.41-3.88-5.2-4.09-18-11.61C31,122.57,27.78,117.45,22.26,119.09Z"/><path class="a" d="M7.6,156.42c1.46,2.25,4.7.92,9.33,2.17,7.79,2.09,8.13,8.41,13.67,9.33,7,1.18,16.14-7.39,15-12-.86-3.44-6.76-2-17.49-7.38-9.75-4.93-13.83-10.67-16.85-8.95-.8.46-1.49,3.31-2.83,9C7,154.57,7,155.54,7.6,156.42Z"/><path class="a" d="M6.93,158.92c-1.89,2.89-1,4.46-3.25,8.35-.47.82-.72,1.12-.58,1.49.56,1.55,6-1.11,10.66,1.5a20.57,20.57,0,0,1,5.67,5c.82,1.1,1,1.63,1.67,1.83,2.5.77,8-4.35,7.5-9-.25-2.36-2.93-4.28-8.3-8.12-7.07-5.06-9.17-4.66-10.08-4.33C8.72,156.19,7.89,157.46,6.93,158.92Z"/><path class="a" d="M17.26,181.26c1.73-1.81,3.25-1.6,3.67-2.67.56-1.43-1.52-3.51-2.19-4.17-3.78-3.7-11.83-7.93-16-4.5-1.67,1.39-2.79,4.1-2,6,1,2.45,4.25,1.19,9.5,4.67,2.32,1.54,3.93,3.27,5.34,2.67C16.31,183,16.19,182.38,17.26,181.26Z"/><path class="a" d="M113,64.76a64.17,64.17,0,0,0,13,10.92c15.07,9.95,22.71,14.88,28,13.31,2.17-.64,4.28-2.59,8.52-6.48,1.92-1.76,12.74-11.71,10.75-15-1.2-2-5.66.88-12.5-1.5-1.49-.52-2.87-1.21-8.75-5.75-2.5-1.94-4.54-3.48-5.84-4.54S142,52.3,139.51,50c-8-7.5-8.6-11.69-13-12.25-2.21-.29-3.89.39-6,1.25-6.72,2.72-14.06,10-13.06,17.15C107.83,59,109.57,60.93,113,64.76Z"/><path class="a" d="M177,65c.61-.33,8-4.45,7.75-10.25a8.62,8.62,0,0,0-2-4.75c-3.3-4.47-8.12-6-13.75-7.75-17.75-5.64-18.78-6.25-20-7.5C143.4,29,145.89,22.29,142,21c-5.2-1.74-15.69,8.39-14.25,15.75.49,2.51,2.14,3.44,6.78,8.05C142.82,53,141.17,53.6,146,57.76c8.18,7,19,10.6,26.89,8.8A16.1,16.1,0,0,0,177,65Z"/><path class="a" d="M144,19c5-4.91,4.78-6.62,6.5-7.25,5.66-2.08,11.75,15.23,22,15,5.31-.13,7.89-4.86,16-4.25,2.34.17,4.14.31,5.5,1.5,5.61,4.91,1.29,25.72-9.25,30.75-16.89,8-47.93-25.34-44.5-32.25C140.65,21.72,141.3,21.66,144,19Z"/><path class="a" d="M153.2,9.58c2.81-.92,3.67,1,10.34,3,7.35,2.23,21.58,4.6,23.76,6.5a19.55,19.55,0,0,0,3.35,2.5c1.9,1.12,2.71,1.18,2.8,1.5.3,1.16-13.92,12.61-30.19,10.25-3.19-.46-14.24-2.06-16.5-9.57C145.12,18.31,148.52,11.12,153.2,9.58Z"/><path class="a" d="M155.26,21.51c.07-3.85,2.72-6.48,4-7.75,1.6-1.59,5.21-5.18,9.5-4.25a7.39,7.39,0,0,1,4.75,3.5c1.87,3.53-.45,7.4-1,8.25-1.71,2.63-4.21,3.56-6.75,4.5s-6.73,2.49-9,.5C155.2,24.88,155.24,22.51,155.26,21.51Z"/><path class="a" d="M169.9,24.71c.08-3.85,2.72-6.48,4-7.75,1.6-1.59,5.21-5.18,9.5-4.25a7.37,7.37,0,0,1,4.75,3.5c1.88,3.53-.45,7.4-1,8.25-1.71,2.63-4.21,3.56-6.75,4.5-2.69,1-6.73,2.49-9,.5C169.84,28.08,169.88,25.71,169.9,24.71Z"/><path class="b" d="M8.51,177.26A3.48,3.48,0,0,0,11,178c1.42-.2,1.57-1.95,3.75-6.5,1-2.15,2.14-4.18,3.4-6.5l1.1-2A76.93,76.93,0,0,1,28,151.51"/><path class="b" d="M30.44,155.14a12.68,12.68,0,0,1-2.93,6.25,14.18,14.18,0,0,1-3.75,3.4,14.19,14.19,0,0,1-5,1.71c-.55.08-1,.11-1.35.13"/><path class="b" d="M3.39,173.26c.93,1.13,2.12,2.26,3.12,2,1.54-.41,1.3-3.76,2.75-8.13.71-2.13,2.1-4.34,4.88-8.75,1.65-2.63,4-6.12,7-10.12"/><path class="b" d="M18,146.76a41.22,41.22,0,0,0-4.37,9.62A40.23,40.23,0,0,0,12.51,161"/><path class="b" d="M10.76,164.38a8.68,8.68,0,0,0,2.66,2.92,7.68,7.68,0,0,0,3,1.21"/><path class="c" d="M8.89,169.38a7.3,7.3,0,0,0,2.54,2.26,8.59,8.59,0,0,0,2.84.93"/></svg>