<svg xmlns="http://www.w3.org/2000/svg" xmlns:xlink="http://www.w3.org/1999/xlink" viewBox="0 0 329.09 221.69"><defs><style>.a{fill:#e2e2e2;}.b{fill:#ddd;}.c{fill:#e0e0e0;}.d{fill:#dcdcdc;}.e{fill:#d9d9d9;}.f{fill:#dadada;}.g{fill:#dedede;}.h{fill:#dfdfdf;}.i{fill:#d6d6d6;}.j{fill:#dbdbdb;}.k{fill:#e6e6e6;}.l{fill:#bfbfbf;}.m{fill:#e1e1e1;}.n{fill:#d8d8d8;}.o{fill:#bdbdbd;}.p{fill:#e4e4e4;}.q{fill:silver;}.r{fill:#cfcfcf;}.s{fill:#eee;}.t{fill:#d7d7d7;}.u{fill:#ededed;}.v{fill:#b7b7b7;}.w{fill:#efefef;}.x{fill:#c9c9c9;}.y{fill:#d4d4d4;}.z{fill:#d5d5d5;}.aa{fill:#9b9b9b;}.ab{fill:#b5b5b5;}.ac{fill:#b3b3b3;}.ad{fill:#c1c1c1;}.ae{fill:#999;}.af{fill:#eaeaea;}.ag{fill:#c2c2c2;}.ah{fill:#bebebe;}.ai{fill:#e3e3e3;}.aj{fill:#ebebeb;}.ak{fill:#e9e9e9;}.al{fill:#d1d1d1;}.am{fill:#c3c3c3;}.an{fill:#bcbcbc;}.ao{fill:#cbcbcb;}.ap{fill:#a5a5a5;}.aq{fill:#e7e7e7;}.ar{fill:#c5c5c5;}.as{fill:#ababab;}.at{fill:#a6a6a6;}.au{fill:#c6c6c6;}.av{fill:#acacac;}.aw{fill:#b9b9b9;}.ax{fill:#9d9d9d;}.ay{fill:#a7a7a7;}.az{fill:#d3d3d3;}.ba{fill:#9e9e9e;}.bb{fill:#e8e8e8;}.bc{fill:#d0d0d0;}.bd{fill:#aeaeae;}.be{fill:#e5e5e5;}.bf{fill:#c8c8c8;}.bg{fill:#afafaf;}.bh{fill:#a4a4a4;}.bi{fill:#aaa;}.bj{fill:#c7c7c7;}.bk{fill:#d2d2d2;}.bl{fill:#ccc;}.bm{fill:#adadad;}.bn{fill:#c4c4c4;}.bo{fill:#a8a8a8;}.bp{fill:#cecece;}.bq{fill:none;stroke:#7c7c7c;stroke-miterlimit:10;stroke-dasharray:1;}.br,.bx{fill:#e7353d;}.br,.bs,.bt,.bu,.bv,.bw,.bx{opacity:0.75;}.bs{fill:#9ac320;}.bt{fill:#ee747c;}.bu{fill:url(#a);}.bv{fill:#c57c43;}.bw{fill:url(#b);}.bx{fill-rule:evenodd;}.by,.ca{font-size:10px;font-family:Helvetica-Bold, Helvetica;font-weight:700;}.by{fill:#fff;}.bz{fill:#231f20;font-size:13px;}.ca{fill:#616160;}</style><linearGradient id="a" x1="220.84" y1="163.68" x2="313.18" y2="163.68" gradientUnits="userSpaceOnUse"><stop offset="0" stop-color="#e7353d"/><stop offset="1" stop-color="#9ac320"/></linearGradient><linearGradient id="b" x1="236.64" y1="189.17" x2="307.67" y2="189.17" xlink:href="#a"/></defs><title>Asset 7</title><path class="a" d="M153,135.13c-.24-3.33-.46-6.66-.71-10a3.68,3.68,0,0,1,.28-2.29c2.65-1.17,2.66-1.17,2.59-3.88s-.18-5.25-.3-7.87A47.74,47.74,0,0,1,157,95.93a44.24,44.24,0,0,1,2.7-7.42,3.22,3.22,0,0,0,.36-1.72,36.83,36.83,0,0,0-2.57-11.25,2.4,2.4,0,0,0-2.17-1.66c-2.16-.26-3.68-2.76-3.31-5,.31-1.78-.06-2.7-1.82-3.16-3-.78-5.08-3-7.43-4.71a1.4,1.4,0,0,1-.54-.57C140.87,56.6,138.61,53,139,48.6a14.41,14.41,0,0,0,.15-2.86l.78-1.2c2.06-2,3.33-4.7,5.49-6.66a4.56,4.56,0,0,1,3.14-1.25c2.41-.09,4.88.2,7.24-.59.82-.26,1.76-.43,2-1.38s-.59-1.66-1.23-2.29a11.73,11.73,0,0,0-2.38-1.76,2.05,2.05,0,0,1-.8-3.17c1.35-2.3,2.25-4.86,4.54-6.6,1.48-1.12,2-3.05,2.71-4.75a4.34,4.34,0,0,1,2.51-2.59c4.8-2,9.2-4.83,14-6.78,3.47-1.41,7.09-2.43,10.63-3.67A2.07,2.07,0,0,1,190.2,4c1.48,2.15,3.42,2.44,5.87,2.11,3.45-.47,8.81,2.69,10.14,5.63a6,6,0,0,1,0,5.52c-1.77,3.41-1.29,6.45,1.33,9.24,1.34,1.42,1,3,.24,4.59-2.54,5-5.1,10-7.74,14.9a14.15,14.15,0,0,0-2,8.2c.34,4.38.54,8.8.53,13.21,0,2.82.86,5.62.21,8.46-3.67,3.29-6.35,7.52-10.06,10.77-.68.59-1.29,1.45-2.31.53-.69-1.58-.39-3.21-.27-4.84a64.78,64.78,0,0,0,.45-7.62,20.74,20.74,0,0,0-8.52-5.38c-2.39-.76-4.84.74-7.18,1.53-.76.25-.69,1.18-.56,1.92.34,1.87.67,3.74,1.18,5.58s.86,2,2.49,1.22c2.5-1.16,5.05-2.2,7.47-3.53.63-.35,1.24-.78,2-.37,1.17,1.06.54,1.87-.43,2.53a47.88,47.88,0,0,1-5.35,3.35c-2.89,1.5-4.19,3.62-3.15,6.88a10.21,10.21,0,0,1,.26,1.36c.37,2.23.79,2.48,2.85,1.39,2.21-1.18,4.47-2.23,6.7-3.36.81-.41,1.55-.74,2.36-.06.68.84.23,1.63-.15,2.38-1.21,2.4-2.26,4.89-3.56,7.25a5,5,0,0,0-.84,3.74,1.62,1.62,0,0,1-.38,1.48c-2.78,3.21-.95,6.16.67,9,1.18,2.05,1,4.13.9,6.28-1,1-2,.43-2.83-.16a2.82,2.82,0,0,0-3.74.19c-.89.66-1.87,1.2-2.77,1.85a2.85,2.85,0,0,1-3.61.11,1.28,1.28,0,0,1-.38-.42c-.4-1.23.47-1.82,1.25-2.42a21.83,21.83,0,0,1,4.31-2.39c3.22-1.52,3.24-1.79.55-4.17a3.61,3.61,0,0,0-3.46-.88c-2.46.59-3,1.11-3.46,3.63a40.83,40.83,0,0,0-.71,5.28,2.75,2.75,0,0,1-1.92,2.67c-2.37,1-4.59,2.33-7,3.34-.49.21-1.3.56-1,1,1.05,1.53.19,3.2.6,4.75-.66,1.59-.73,3.41-1.91,4.79C155.9,135,154.46,136.27,153,135.13Z"/><path class="b" d="M77.79,82.13l.78,0a2.38,2.38,0,0,1,1.55-.77c2.71.18,5.44.43,8.13.74s5.28,1.88,8.13,2.13a1.38,1.38,0,0,1,.93.67c1.24,2.6,3.57,3.55,6.17,3.72,3.27.21,6.56,0,9.84.07a6.25,6.25,0,0,1,3.08.44c.78.86,1.64,1.26,2.7.43a2.23,2.23,0,0,1,.56-.16,25,25,0,0,1,5.73,3c.62.41,1.18.9.75,1.79a4.61,4.61,0,0,1-1,.67c-2.39.11-4.69-.57-7-.92s-4.84-.55-7.26-.79c-1.63-.17-2.91.68-4.19,1.5-1,.65-2,1.23-3.3.52-.92-.51-1.33.15-1.63.86a20.24,20.24,0,0,1-2.14,4,7.24,7.24,0,0,1-3.12,2.65c-1.72.67-2.91-.24-2.68-2.06.14-1.11.52-2.18.69-3.28.26-1.6-.22-2.15-1.78-1.94s-3.12.5-4.68.79c-.45.09-1,.21-1.05.75s.37.8.75,1.05c1.37.92,2.89,1.59,4.24,2.54.67.47,1.31,1,1.17,1.89s-1,1.17-1.74,1.39c-1.07.31-2.21.31-3.3.56a2.45,2.45,0,0,0-2.2,2A3.5,3.5,0,0,1,83.46,109q-5.33,2.15-10.7,4.1c-1,.35-2.05.67-2.62-.49s.41-1.82,1.2-2.4c1.7-1.25,3.5-2.36,5.24-3.55.9-.62,1.7-1.31,1.42-2.57a3.83,3.83,0,0,0-2.37-2.73,1.93,1.93,0,0,0-2.28.74,9.77,9.77,0,0,0-1.46,2.34,4.7,4.7,0,0,1-3.9,2.91c-1.41.15-3.12.45-3.34,2.24s1.28,2.85,2.69,3.52c2.83,1.35,6,1.4,9,2,1.55.32,3.1.65,4.66.89a1.9,1.9,0,0,1,1.72,1.41,1.92,1.92,0,0,1-.77,2.08c-2.38,2.14-4.79,3.85-8.31,2.62-1.87-.65-3.93-.31-5.9-.21-1.71.09-2.81,1.34-4,2.34a17,17,0,0,1-2.54,2.18,1.92,1.92,0,0,1-2.39,0,1.78,1.78,0,0,1-.19-2.36c1.07-2,2.26-3.86,3.45-5.76.36-.57,1.09-1.28.41-1.92s-1.5-.06-2.19.28A3.25,3.25,0,0,0,58.92,118c-1.28,2.24-3,4.19-4.34,6.36a6,6,0,0,1-2.78,2.43c-3.89,1.64-7.57,3.72-11.37,5.54a5.7,5.7,0,0,0-2.62,2.79C36.34,138,33.87,140,31.35,142a3.37,3.37,0,0,1-2.49.44,8,8,0,0,0-6.62,2.41,5.54,5.54,0,0,1-1.61,1.14c-3.48.89-4.54-.05-5.14-4.4-.27-1.92.6-3.67.57-5.2a14,14,0,0,0-.19,1.41c0,.57-.07,1.29-.79,1.41s-1.21-.41-1.4-1.1c-1.13-4.13-2.71-8.17-2.54-12.56,0-.33,0-.65,0-1a4.22,4.22,0,0,1,.16-1.5,1.18,1.18,0,0,1,.42-.38c.76.11,1.17-.4,1.62-.88,3.56-3.77,8.18-6.12,12.22-9.25-1.85,1.34-4.15,1.41-6.23,2.12a5,5,0,0,0-3.15,2.72,11.84,11.84,0,0,1-2.78,4.32c-.44.36-.65,1.25-1.52.74-.52-1.67.25-3.19.64-4.71A28.22,28.22,0,0,1,17,108.45a21.81,21.81,0,0,0,1.2-2c.31-.51.46-1.13,1-1.5,5-1.9,10.27-3.44,13.43-8.4.86-1.35,1.31-2.4-.23-3.5a2.32,2.32,0,0,1-.86-1.51,1.59,1.59,0,0,1,1-1.36c2.2-1.31,4.2-3,6.71-3.76a7.37,7.37,0,0,0,3.91-2.75c2.46-1.75,5.14-1.27,7.81-.77,1.09.2,1.3.91,1.08,1.91a48.54,48.54,0,0,1-2.49,7.11,4.85,4.85,0,0,0,1.65-3.65,8.27,8.27,0,0,1,.7-2.72c.95-2.56-.47-4.94-.56-7.43-.06-1.43-.23-2.88-.3-4.32,0-.71-.23-1.81.94-2.13a3.1,3.1,0,0,1,2.7.83c1.93,1.73,4.05,3.27,5.45,5.51.55,1.45-.35,2.82-.24,4.39,3.48-.81,6.46.72,9.5,2a1.17,1.17,0,0,1,.79,1.4,2.61,2.61,0,0,1-1.63,1.1c-.92-.49-1.93-1.16-1.85.77a1.19,1.19,0,0,1-.87.64c3.38-1,6.88-.13,9.69-.64-1.27-.13-3.15.17-5,.19-.53,0-1.1.06-1.34-.51s.41-.92.8-1.14c1.4-.76,2.22-2.22,3.65-2.94C74.92,82.73,76.37,82.49,77.79,82.13Z"/><path class="c" d="M302.1,173.1c1.32,1.35,3.2,1.5,4.83,2.12,1.79.67,1.83,1.48.91,2.91-1.54,2.38-3,4.81-4.44,7.24a6.27,6.27,0,0,0-1,2.13c-.37,2.92-2.3,3.6-4.83,3.77-2.69.18-5.37.53-8,.87-3.8.48-6.73,2.92-10,4.58-4.28,2.18-8.52,4.45-12.77,6.69a2.34,2.34,0,0,1-2.6,0c-2-1.31-4-2.58-6-3.86.78-.82,1.44.19,2.09.11-1.85-.51-3.66-1.48-5.72-1.55a7.71,7.71,0,0,1-4.9-5.27,5.16,5.16,0,0,0-2.09-2.56c-1.28-.93-2.3-2-2.19-3.71,0-.94.78-1.3,1.37-1.81,3.19-2.73,6.6-5.2,9.63-8.16,2.29-2.25,2.46-5.16,3.46-7.82a18.55,18.55,0,0,1,3.07-6.08c1.75-2,1.69-2.88.08-5-.59-.79-1.16-1.59-1.88-2.39,1.76,3.14-.12,5.61-1.39,8.18-.79,1.6-2,3-2.44,4.76a23.25,23.25,0,0,0-1.81,2.16,46.09,46.09,0,0,1-6.94,5.52,1.23,1.23,0,0,1-.62-.17,1.48,1.48,0,0,0-1-.44c-.87,0-1.72,0-2-1s.32-1.59,1.12-2c6.46-2.31,5.46-1.58,7.12-8.31,1.4-5.68,1.3-11.3,1.32-17a12.65,12.65,0,0,0-1.27-6.3c-1.36-2.91-1.29-3.22,1.22-5a10.85,10.85,0,0,0,2.45-2c1.67-2.13,4-3.35,6.34-4.49a17.72,17.72,0,0,0,3.93-2.47c4.43-.72,8.68-2.29,13.17-2.75a21,21,0,0,0,3.34-1,2.44,2.44,0,0,1,2.25,1.65,8.52,8.52,0,0,0,2.56,3.47c2.38,2,4.32,4.53,6.8,6.44,1.6,1.22,1.69,3,2.1,4.69a7.67,7.67,0,0,1-1.3,6.48,93.09,93.09,0,0,1-7,9.38,4.56,4.56,0,0,0-.21,6.27c2.94,3.87,3.42,8.27,3.18,12.9a2.48,2.48,0,0,1-1.51,2.32c-2.22,1.1-4.13,2.8-6.65,3.25-.18,0-.09,0-.13.11-.84,2-.84,2-1.72,2.58,1.25-1,2.88-1.27,4.19-2.16l.46-.34c2-.56,3.77-1.65,5.89-1.57a1.49,1.49,0,0,1,.49.28,18.85,18.85,0,0,0,3.16,3.38,43.66,43.66,0,0,0,.46-5.2,1.59,1.59,0,0,1,.17-.55c1.54-1.26,2.95-2.72,4.83-3.52A.77.77,0,0,1,302.1,173.1Z"/><path class="d" d="M242.35,188.89c-7.2,5.15-15.21,8.9-22.9,13.2-1.92,1.08-4.14.73-6.2.91-4,.36-7.9,1.37-11.87,1.94a75.2,75.2,0,0,1-7.81,1.07c-2.81.11-5.37,1.38-7.82,2.6-5.22,2.6-10.73,3.11-16.43,3.34-3.71.15-7.38,1.21-11.07,1.86l-2.53.42a1.15,1.15,0,0,1,.15-1.6,4,4,0,0,1,1.1-1.11c2.39-1.27,3.73-2.82,1.78-5.51a1.31,1.31,0,0,1,.24-1.64c.71-.48,1.35-1.05,2.07-1.52a2.17,2.17,0,0,1,2.75-.07,2,2,0,0,1,.49,2.53,2.77,2.77,0,0,0,.16,3c.24.32.64.72,1,.47.81-.65,1-1.75,1.93-2.41,1.54-1.14,0-1.78-.61-2.43s-1.2-1.25-.81-2.22,1.29-1.07,2.15-1a52.08,52.08,0,0,1,8.82.75,2.18,2.18,0,0,0,1.34-.11c5.42-1.57,10.9-2.91,16.31-4.5,4.17-1.22,8.13-3.1,12.16-4.73a45.22,45.22,0,0,1,6.66-2.4,15,15,0,0,1,3.29-.74,3.68,3.68,0,0,1-3.43-.52c-1-.73-1.11-1.5-.22-2,3-1.64,2.56-4,2.08-6.76-.4-2.27,0-4.63-.77-6.95-.45-1.43.6-2.9,1.4-4.18a1.23,1.23,0,0,1,1.59-.46c2,1.1,2.73-.08,3.33-1.65a1.52,1.52,0,0,1,.47-.63c1.18-.61,1.83.29,2.52.94,2.27,2.16,4.43,4.43,6.67,6.63,1.59,1.57,3.12,3.23,5.47,3.69.32.06.49.42.72.65a1.65,1.65,0,0,1,.77,1.3c-.47,1.67-2,1.89-3.31,2.46a5.39,5.39,0,0,0-1.9.95c-1,.79-2.13,1.3-3.07,2.14-2.28.62-4.29,2-6.58,2.48,1,0,2-1.34,3.12-.25a1.43,1.43,0,0,1-.77,2,25.54,25.54,0,0,0-7.72,7.7c-.7,1-1.86,1.58-2.56,2.58a4,4,0,0,1,3.43-1.86c6.7-.51,12.27-3.48,17.28-7.76,1.58-1.35,3.09-2.86,5.24-3.35a3.6,3.6,0,0,1,2.19,2.3A1,1,0,0,1,242.35,188.89Z"/><path class="e" d="M198.05,75.79c-.38-7.82-.69-15.64-1.18-23.45-.15-2.52,1.09-4.42,2.14-6.45,2.64-5.09,5.31-10.16,8-15.24.69-1.32.87-2.61-.31-3.81-2.83-2.9-3.34-6.16-1.4-9.73a5.22,5.22,0,0,0,0-5.11c-1.3-2.62-6.48-5.43-9.45-4.91-2.5.43-4.71.48-6.07-2.22a1.75,1.75,0,0,0-2.41-.72c-6.53,2.56-13.16,4.79-19.4,8.18-3.65,2-6.51,3.9-8.32,7.88-1.14,2.53-3.77,4.42-5.14,7.09-.66,1.3-.67,2,.61,2.7a18.22,18.22,0,0,1,4.17,3.61c1,1,.8,1.67-.48,2.39-3.22,1.8-6.74,1.58-10.18,1.69a3.51,3.51,0,0,0-2.76,1.13c-1,1.12-2.13,2.14-3.06,3.35a5.71,5.71,0,0,1-2.84,2.37c1.91-4.1,4.22-7.89,8.06-10.5a10,10,0,0,0,4.54-6.37c1-4.41,3.38-8.27,5.35-12.29a4.09,4.09,0,0,1,1.56-1.74c4.06-2.57,8.29-4.93,12.12-7.81,5.19-3.92,11.09-4.74,17.26-5.28A19.63,19.63,0,0,1,199,2a8.48,8.48,0,0,1,2.95,1.89C203.79,6,205.69,8,207.54,10a9.24,9.24,0,0,1,2.09,3.76c1.19,4.29,3.44,8.31,3.07,13a6.42,6.42,0,0,1-.93,3.16c-1.08,1.65-2,3.42-3.13,5-3.34,4.71-3.77,10.35-5,15.7-1.16,5.14-1,10.47-1.66,15.69-.79,6.32.46,12.62,0,18.93-.64.51-1.44.4-1.67-.21-.7-1.84-2.27-3.14-2.88-5-.21-.78.08-1.57-.06-2.35A3.42,3.42,0,0,1,198.05,75.79Z"/><path class="f" d="M126.06,94c-2.09-1.58-4.53-2.58-6.74-4a14,14,0,0,1-7-3.42,1,1,0,0,1-.26-1.1l.17-.26a32.24,32.24,0,0,0,7.44.75c4.49.11,8.74.74,12.64,3.16A45.94,45.94,0,0,0,138,91.93c1.54.69,2.21,2.22,3.32,3.31,1.34,1.34,2.43,2.94,3.69,4.37a5.59,5.59,0,0,1,1.24,2.65q1.11,5.63,2.23,11.24a6.81,6.81,0,0,1-.2,3.9c-2.74,6.87-5.66,13.65-10.23,19.54a94.22,94.22,0,0,1-21.4,20.59c-3.6,2.45-6.56,5.69-9.78,8.59a46.72,46.72,0,0,1-6.92,5.23c-.43.26-1.1.42-1,1.06s.74.67,1.18.93a3,3,0,0,0,3.35-.13,6.64,6.64,0,0,1,3.27-1.29c.87.54,1.56-.12,2.12-.52a16.94,16.94,0,0,1,5.2-2.2,92.3,92.3,0,0,1,12.25-2.92c-1,.39-2.61.41-4.13.8-.76.19-1.94.59-2.41-.73,2-2.47,4.78-2.07,7.42-1.86,1.63.14,3.25.28,4.88.33,1,1.26,1.84,2.55,1.33,4.27a14.74,14.74,0,0,1-5.89,1.13,5.75,5.75,0,0,0-3.07.54c-3.38,1.9-7,3.42-10.15,5.7a2.13,2.13,0,0,1-1.08.44c-2,.14-3.54,1.31-5.13,2.35a1.36,1.36,0,0,1-.87,0c-1.56-.91-1.12.25-1.06,1a1.34,1.34,0,0,1-.2.58,1.44,1.44,0,0,1-1,.65,2.76,2.76,0,0,1-1.54-.35c-1.93.23-3.71,1.05-5.63,1.32-1,.15-2.08.45-3-.38-.74-1.75.84-2.34,1.66-3.31a7.19,7.19,0,0,0,2.52-1.46c1.73-1.57,4-1.4,6-2,3.73-1.27,7.65-1.89,10.78-2.9-3.13.7-6.78,2.1-10.66,2.45a5,5,0,0,0-1.61.64c-1.42,0-2.76.55-4.17.6-2.66.39-5.32.8-8,1.38-.66.14-1.38.3-1.68-.5s.34-1.12.91-1.51a16.9,16.9,0,0,1,3.88-1.86c1.39-.51,1.8-1.29,1.07-2.61a5.23,5.23,0,0,1,0-.56c.49-1.2.35-2.13-1-2.61a1.46,1.46,0,0,1-1.12-1.23c.16-1.15,1-1.38,2-1.57,1.61-.32,3.23-.51,4.85-.77a5.51,5.51,0,0,0,3.61-2.15,30.46,30.46,0,0,1,4.68-4.88c.92-.74,1.11-1.77,1.7-2.63a6.28,6.28,0,0,0,1.15-1.09c2.18-3.24,5.51-4.39,9.1-4.72,4-.36,6.26-2.33,7.06-6.16a40.86,40.86,0,0,1,2.53-3.46,5.41,5.41,0,0,0,2-2.1,87.66,87.66,0,0,1,5.3-8.77c.93-1.51,1.57-3,.95-4.8.1-1.09,1.14-1.29,1.78-1.87,1.36-.31,1.34-1.37,1.29-2.43.07-.85.07-1.71.17-2.57,1-2.6,2.71-5,2.37-8,0-.29.07-.57.08-.86a4.32,4.32,0,0,0-2.77-5.38,2.52,2.52,0,0,1-1-.57c-.59-.73-.88-1.66-1.5-2.37-1.24-1.27-2.81-1.25-4.42-1.12a3.9,3.9,0,0,1-.59,0c-2.18-1.16-4.22-2.64-6.78-3A1.57,1.57,0,0,1,126.06,94Z"/><path class="g" d="M198.05,80.14a8.09,8.09,0,0,1,2.8,3.93A1.54,1.54,0,0,0,202,85.28c-1.78,6.33-3.66,12.64-7,18.35-1.79,3-2.3,6.4-2.9,9.76-.19,1.07.15,1.71,1.21,1.81a5.06,5.06,0,0,1,3.14,1.85c3.63,3.8,7.34,7.53,10.91,11.39a5.45,5.45,0,0,0,4.86,2,4.92,4.92,0,0,1,2.9.34c-.76,1.2-2,.71-3,.74s-2-.38-2.88.24a5.24,5.24,0,0,1-2.16.77c-.24.09-.51.28-.74.17-2.39-1.15-4.06.26-5.82,1.54s-3.35,2.69-5.08,4c-.57.42-1.11,1-1.92.78-1.53-.67-3.4-.17-4.76-1.41-.87-1.71.46-2.19,1.58-2.74s2.57-.25,2.86-1.44-1.34-1.57-2-2.39a4,4,0,0,1-.48-4.87,3.82,3.82,0,0,1,4.8-1.43c1.15.49,2.37.8,3.53,1.26.62.25,1.36.46,1.72-.35a1.32,1.32,0,0,0-.68-1.68,21.19,21.19,0,0,0-6.5-2.81c-2.82-.67-5.66-1.26-8.53-1.66-1-.14-2-.34-2-1.71-.43-1.31-1.5-2.49-.67-4,.22-.42-.11-.91-.46-1.22-1.73-1.51-1.52-4-2.88-5.74-.73-1,.54-2.16,1.09-3.17s1.35-1.85.84-3.24c-.31-.84.39-1.75.8-2.57,1.6-3.24,3.22-6.46,4.83-9.69-.21-.44,0-.65.4-.79,3.72-3.8,7-8,11.08-11.47v2C197.29,78.56,197.14,79.35,198.05,80.14Z"/><path class="f" d="M139.12,45.74c.27,4,1.63,7.8,2.84,11.62s4.35,5.36,7.46,7a11.68,11.68,0,0,0,1.52.44c2.54.9,3,1.66,2.05,4.27-.61,1.7.76,2.37,1.39,3.42s1.26.57,2,.15c1-.53,1.33.31,1.53,1,1.32,4.33,2.94,8.58,3.24,13.15a3.2,3.2,0,0,1-.22,1.54c-4.71,9.48-5.56,19.64-5.21,30a13.67,13.67,0,0,0,.46,3.11c.39,1.48.09,2.15-1.57,1.83a5.2,5.2,0,0,1-2.1-.44,21,21,0,0,1,1.21-5.13c1.58-.65.61-2.22,1.23-3.13-.61.49.41,2-1.26,2-1.79-2.91-2.14-6.18-2.31-9.47s0-6.7-.35-10.06c-.29-2.57.58-5.13,1.32-7.54a17.69,17.69,0,0,0-1.92-15.38,35.94,35.94,0,0,0-6.19-7.85c-4.14-3.78-5.47-8.74-6.55-13.81C137.25,50.19,138.46,47.94,139.12,45.74Z"/><path class="e" d="M232,131.52a19.6,19.6,0,0,1,4.85-4.54c8.14-6.23,17.7-8.33,27.53-9.65,3.38-.45,6.59-1.2,9.34-3.3a2.79,2.79,0,0,1,3.61-.18c.71.47,1.59.7,2.26,1.21,1.78,1.37,3.66,2,5.84,1.07.52.94-.3,1.35-.79,1.76a1.62,1.62,0,0,0-.49,2.38c.85,1.43.23,2.31-1.14,2.89a10.53,10.53,0,0,1-6.12.64c-3.48-.59-7-1.38-10.56-.11a3.55,3.55,0,0,1-1.37.15,2.89,2.89,0,0,0-2.89,1.12c-.66.92-2,1-3.07,1.2-4.45.67-8.62,2.43-13,3.31-3.59.72-6.87,2.27-10.36,3.21a2.39,2.39,0,0,1-.91.26,4.47,4.47,0,0,1-2.64-1.11Z"/><path class="h" d="M2.24,133.54c.21-4.26,1.14-8.43,1.31-12.71.2-5.11.78-10.2.66-15.32,0-1.29.23-2.35,1.6-2.82,2.39.49,4.72,1.26,7.16,1.62a7,7,0,0,1,4.29,2.53c.51,1.27-.63,2-1.08,2.84a43.68,43.68,0,0,0-3.54,7.59c-.25.89-.39,1.77-.57,2.66-1,2.75-.94,5.69-1.7,8.47a36,36,0,0,0-.32,15.37c.51,2.68,1,5.28,2.48,7.6a3,3,0,0,1,.42,2.25,1.22,1.22,0,0,1-.42.48c-2.28.39-3.32-.73-3.81-2.87-.58-2.5-1.42-4.93-2.14-7.39a14.6,14.6,0,0,1-4.52-9.58A.86.86,0,0,1,2.24,133.54Z"/><path class="i" d="M132.38,221.35a39.74,39.74,0,0,1-19-4.87c-4-2.26-8.18-4.15-11.82-7,.4-.7,1-.5,1.55-.32,1.12.35,2.25.67,3.37,1-2.27-.73-4.61-1.23-6.86-2-.83-.28-1.77-.45-1.94-1.56a1,1,0,0,1,.16-.5l.11-.14a1,1,0,0,0,.07-.15c-1.81,0-3.57-.66-5.4-.46a1.42,1.42,0,0,1-1-.56c-.49-1.33-2.53-1.81-2-3.69.76-1.81,1.45-3.67,3.16-4.87.38-.26.68-.63,1.18-.66,1.19.15,1.62.89,1.68,2a3.39,3.39,0,0,0,5.44,2.81c1.17-.74,2.21-1.67,3.37-2.41.66-.42,1.36-.73,1.92,0s.07,1.36-.47,1.89a20.3,20.3,0,0,0-2.41,2.21,3.93,3.93,0,0,0,1.72-.11c1.28-.11,2.18.42,2,1.74s.63,2.16,1.65,2.86a10,10,0,0,0,4.92,1.88,50.65,50.65,0,0,1,15.88,4.34,15.79,15.79,0,0,0,6,1.75,2.1,2.1,0,0,1,2.11,1.18c.24,1.37-1.53,1.15-1.72,2.18-1.37,1.29-2.79,2.12-4.86,1.55a35.39,35.39,0,0,0-6.1-.69,5,5,0,0,1-1.45-.18c2.13.47,4.57.28,6.93.77.65.13,1.32.1,1.78.68C132.53,220.47,132.71,220.9,132.38,221.35Z"/><path class="c" d="M96.79,85.28a15.7,15.7,0,0,1-4.41-.88C88,82.53,83.15,83,78.57,82.11c.76-2.18,1.54-4.34,2.26-6.53a1.34,1.34,0,0,1,2-1c2.7.86,5.4,1.67,8.11,2.49a4,4,0,0,1,2.35,2.24c.35.67.56,1.8,1.38,1.72s.82-1.23,1.12-1.93c.85-2.07,1.8-4.11,2.47-6.24a3.3,3.3,0,0,1,4.06-2.54,14.41,14.41,0,0,1,7.55,3.85,13.94,13.94,0,0,1-.93,4.64,22.1,22.1,0,0,0-1.71,6.36c-1.63,1-3.52.71-5.29,1a19,19,0,0,1-3.28.23C97.94,86.44,96.88,86.45,96.79,85.28Z"/><path class="b" d="M50.51,63.93c.81,2.3.68,4.76,1.17,7.12-.22,2.14-1.58,3.67-2.9,5.19C46.85,78.48,44.89,80.69,43,83a5,5,0,0,0-1.17,2.22c-.52.72-1.4.68-2.12,1-2.79,1.13-5.62,2.15-7.8,4.38a1.82,1.82,0,0,1-1.52.78c-1-.55-2.27-.89-2-2.47a62.37,62.37,0,0,1,4-8.2,7.35,7.35,0,0,0,.75-3.39c.21-2.09-.2-4.32,1.15-6.2a18.7,18.7,0,0,1,7.85-2.75c1.06-.11,1.64-1.05,2.46-1.57A19.48,19.48,0,0,1,50.51,63.93Z"/><path class="j" d="M153,135.13c.52,0,1.15-.1,1.39-.56,1-1.89,1.75-.88,2.54.15.47.88,1.6.17,2.15.89,1,2.65,1.09,5.19-.79,7.53a2.31,2.31,0,0,1-.81,1.09c-1.74,1.14-2.76,2.51-1.92,4.75.31.84-.29,1.68-.74,2.38a3.59,3.59,0,0,0,.2,4.7,1.92,1.92,0,0,1,.59,1.61,12,12,0,0,1-2.51,3.42c-2.14,2-2.53,4.59-2.85,7.25a2,2,0,0,1-.22.93c-1.07.9-2.52.42-3.67,1-1.26.16-1.67-1-2.42-1.57-.33-1.58-.94-2.61-2.88-2.77-1.51-.12-2.19-1.69-2.74-3.05s.35-2.07,1.23-2.8c.3-.25.65-.45.75-.87a26.32,26.32,0,0,1,5.06-6,15.89,15.89,0,0,0,5-8.88A95.09,95.09,0,0,1,153,135.13Z"/><path class="k" d="M28.34,88.83a8.87,8.87,0,0,1,2,2c.36,0-.43,1.57.74.55.24-.2.6,0,.84.22,4.24,3.07,3.94,1.83.67,6.38s-8.07,6-12.94,7.46c-.57-.6-.28-1.14,0-1.77a22.23,22.23,0,0,1,3-4.2c-2.1,2-3.13,5-5,7.42a1.09,1.09,0,0,1-.81.13,24.7,24.7,0,0,0-8-2.52c-1.19-.22-2.48-.5-3.09-1.82A21.21,21.21,0,0,1,11,100.32c1,.6,1.21-.23,1.58-.79a50.93,50.93,0,0,0,5.51-5C20.78,91.19,24.44,89.87,28.34,88.83Z"/><path class="c" d="M294.17,107.44c1.67-1.19,3.74-1.46,5.52-2.39a1.94,1.94,0,0,1,1.14-.23c4.78,1.72,10.32,2,13.41,7a4.11,4.11,0,0,1,.62,2.6c-.09,1,.15,2-.34,2.89s-1.37.62-2.14.33c-1.18-.44-2.46-.5-3.63-.91-4.47-1.57-8.29-.64-11.78,2.57-2.05,1.89-4.7,3.15-5.7,6a1.86,1.86,0,0,1-1.62,1.27c-1.4-.18-3.51-2.27-3.59-3.55a1.25,1.25,0,0,1,1.18-1.41c-.55,0-1,.6-1.64.37-2.29-1.88-2.36-3.14-.2-4.83a12.3,12.3,0,0,0,2.71-2.58C290.2,112.25,292.88,110.44,294.17,107.44Z"/><path class="l" d="M96.78,179.49l-2,2.31a5.32,5.32,0,0,1-4.07,4.06,1.22,1.22,0,0,1-.56-.2c-.66-.55-.57-1.24-.19-2.32-.41,1-.91,1.35-1.62,1.34a2.89,2.89,0,0,1-2.14-3.15c0-1.4,1.29-1.67,2.33-2.05a32,32,0,0,1,4.6-1.38c-2.42.56-4.94.53-7.32,1.35s-4.71,1.64-7.1,2.35c-2.86.86-5.27,2.68-8,3.68a18.88,18.88,0,0,1-2.19.88c-2-1.09-3.7-.26-5.31.95a1.26,1.26,0,0,0-.44.24c-.79.35.27,1.93-1.2,1.81l-1.49-2.1c0-.51-.4-.8-.59-1.21-.78-1.62.12-3.18,1.93-3.08a10.1,10.1,0,0,0,3.43-.41,22.8,22.8,0,0,1,3.49-.53,33.47,33.47,0,0,0,6.75-1.73c2.9-1,4.92-2.85,7.18-4.55,2,.56,3.64-.65,5.44-1.05.81-.18,1-.87.24-1.46a2.69,2.69,0,0,1-.8-1.09c-.32-1.83,1.59-2.47,1.83-3.6-.34.5-.88,1.3-1.49,2s-1.19,1.25-2.16.7c-1.06-1.24-1.32-2.81-1.75-4.29a5.62,5.62,0,0,0-2.36-3.65c-.86-.52-1.25-1.22-.1-1.92,1.25.06,2.38-.59,3.61-.59.55.1,1,.5,1.58.5.74.08,1.46.25,2.21.3,2.9-.06,3.8,2.18,4.86,4.24a1.73,1.73,0,0,0,.46,1.93c.88.85,1.37,2,2.19,2.89s1.75,1.38,2.12,2.49a35.13,35.13,0,0,0-7.8,3.68l8.82-1.42c.88.89,1,1.73-.27,2.31A8.55,8.55,0,0,0,96.78,179.49Z"/><path class="m" d="M69.89,85.63c-2.62-.94-5.07-2.4-8-2.51-.6,0-1.41-.26-1.29.62.2,1.48-.66.89-1.27.79-.81-.13-1.35-.42-1-1.44.48-1.63.86-3.28,1.28-4.93,0-.46-.47-1-.22-1.32,1.74-2.26.16-4.68.4-7a7.72,7.72,0,0,1,1-3.92h.78a10.09,10.09,0,0,1,3.66,2.47c1,1.16,2.16,1,3.26.07a8.61,8.61,0,0,1,2.77-1.64c1.29-.46,1.36.06,1,1.07-.44,2.25-.79,4.51-1.34,6.74s0,4.42.21,6.62c.07.91.7,1.11,1.55,1.06,1.7-.1,3.4-.11,5.1-.17l-3.55,2a23.27,23.27,0,0,0-2.61,1.27C71.11,85.63,70.57,86.25,69.89,85.63Z"/><path class="n" d="M91.62,209.08c-.82.59-1.58,1.39-2.75.83-1.65-1.13-3.67-1.17-5.49-1.82s-3.77-1.38-5.6-2.24c-.59-.28-1.19-.87-2-.34-4.41-.37-6.35-3.32-7.46-7.14a1,1,0,0,1,1.38-.11c-.63-.93-1.76-1.72-.83-3.07,1.58-.75,3.13-1.82,4.8-.14.31.31.88.17,1.33.21a19.77,19.77,0,0,1,3,.68c.78.26,1.26.71,1,1.59-.16.59-.77,1.24.13,1.67s1.43-.12,2-.78c.66-.82,1.58-1.13,2.36-.31s1.77,1.59.59,2.8c0-.26,0,.25-.19.05s-.11-.05-.2,0-.44.1-.2,0a5.27,5.27,0,0,1,6.36,2.08c.42.74.63,1.52-.45,1.63-2.6.26-5.18,1.07-7.82.42a5.42,5.42,0,0,0,4,.2,9.93,9.93,0,0,1,7.38.41c.48.3,1.09.46,1.23,1.12.07.87-.72.92-1.22,1.22S91.86,208.36,91.62,209.08Z"/><path class="o" d="M289,115.34c-.8.57-1.6,1.13-2.39,1.71-2.64,1.93-2.64,1.93-.75,4.6.13,1.46-.67,2-2,2-5.39,2-11,2.82-16.62,4-2.74,1.86-5.83,1.59-8.82,1.16a13.85,13.85,0,0,0-4.85.08c-2.52.5-5,1.08-7.51,1.61-.58.12-1.37.16-1.51.77-.57,2.55-2.54,2-4.25,2.05-1-.49-2,0-3-.29a2.85,2.85,0,0,1-1.73-1.1c3.14-1.25,6.74-1.41,9.4-4.36-.08,1-.4,1.73.87,1.35,4.91-1.46,9.86-2.79,14.78-4.22.37-.1,1.42.08.82-1-.33-.59.33-.39.52-.39,4.13,0,8.16-1.28,12.33-.84A13.89,13.89,0,0,1,278,123a6.68,6.68,0,0,0,4.63-.36,1.33,1.33,0,0,0,1.08-1.62c-.2-1-.69-1.42-1.72-.64.41-2.3,2.6-2.7,3.5-4.24l1.15-.82C288.35,114.51,288.35,114.51,289,115.34Z"/><path class="g" d="M132.38,221.35l-1.18-.79c2.18-1.4,4.72-1.78,7.11-2.6a4,4,0,0,0,2.6-2.69,4.21,4.21,0,0,1,1.58-2.13c2.11-1.66,4.21-3.32,6.28-5s2.06-1.7,3.62.49a16.07,16.07,0,0,0,1.91,3.65,3.94,3.94,0,0,1,.66,2.41c-4.1,4-8.77,6.5-14.75,5.63-1.75-.25-3.5-.39-5,1C134.41,222.1,133.34,221.39,132.38,221.35Z"/><path class="f" d="M52.87,186.56A17.94,17.94,0,0,1,46.55,183c-2.51-2.26-2.58-5.52-3.46-8.46,2.64-2.63,4.89-2.84,7.78-.72a36.3,36.3,0,0,1,4.34,3.67c.87,1.24.11,2.55.12,3.82,0,.6-.61.77-1.21.67a15.25,15.25,0,0,1-1.94-.57,7.23,7.23,0,0,0,3.66.6,2.4,2.4,0,0,1,1,.66c.36.88,1.52,1.39,1.19,2.59C56.58,186.8,54.67,186.44,52.87,186.56Z"/><path class="n" d="M12.53,154.1l0-.43c.6-.91.32-2.57,1.91-2.6,1.42,0,1.41,1.51,2,2.36a14.36,14.36,0,0,1,1.35,3,9.27,9.27,0,0,0,2.3,3.31,7.84,7.84,0,0,0,5.46,4.3,3.81,3.81,0,0,1,1.64,1.66,5.59,5.59,0,0,0,2,3c1.19,1,1.52,2.52,2.43,3.67a2.37,2.37,0,0,0,1.59,1.17c.9.14,1.37.54,1.07,1.51a3.2,3.2,0,0,1-4.14.33c-1.63-1-3.34-1.82-5-2.75-.39-.22-.91-.47-1.06-.83-2-4.76-6-8.07-8.52-12.46C14.56,157.6,14.05,155.56,12.53,154.1Z"/><path class="p" d="M41.41,84.88c0-2.45,1.92-3.76,3.25-5.4,2.3-2.85,5-5.38,7-8.43l.41.38a.26.26,0,0,1,.09.27c0,.09-.06.13-.09.13-.67,1.89,0,3.77.19,5.63s0,3.73,1.33,5.25a.72.72,0,0,1-.09,1.07c-1.42.92-1.37,2.53-1.27,3.75.29,3.6-2.33,5.15-4.34,7.22-.7-.49-.26-.91-.11-1.28,1-2.56,2-5.15,3.17-7.66.74-1.6.33-2-1.34-2.19-2.06-.21-4.05-.59-5.84.85C43,84.63,42.33,85.5,41.41,84.88Z"/><path class="q" d="M133.16,168.75a4,4,0,0,1-1.15-3.93,14,14,0,0,0,4-2.39c1.91-.81,1.91-.81,2.2,1.17.13.88,2.86,3.56,3.87,3.75.77.14,1.6.12,2,1,.36.48.79.92.63,1.61-.43.84-1.36,1.16-1.94,1.84a1.59,1.59,0,0,1-2.24,0c1.57,1.24,1.56,3.33,0,5.28-.89.36-1.51-.14-2.06-.71-1.82-1.87-3.35-4-5.09-5.92A1.24,1.24,0,0,1,133.16,168.75Z"/><path class="r" d="M155,214.66a21,21,0,0,1-3.58-5.57c.39-3.2,2.68-5.25,4.6-7.5a1.75,1.75,0,0,1,1.45-.5,3,3,0,0,1,1.85,3.65,8.38,8.38,0,0,0,1.46,3c.94,1.36.86,2.33-.81,3.06a9.88,9.88,0,0,0-4.21,3.45Z"/><path class="e" d="M314,114.16c-.42-2.88-4.46-6.23-7.37-6.41-2.54-.15-4.55-1.9-6.89-2.7,1.89-2.25,2.06-2.26,4.61-1q4.81,2.28,9.67,4.46a7.23,7.23,0,0,1,3.28,2.69c1.74,2.63,3.61,5.17,5.43,7.75a1,1,0,0,1-.75.48c-.86,0-1.41-.62-2.05-1-1.62-1.06-2.93-2.6-4.95-3C314.38,115.2,314.26,114.56,314,114.16Z"/><path class="n" d="M242.35,188.89v-.34c.16-1.28,1.73-.82,2.16-1.76a2.72,2.72,0,0,1,.42-.34.78.78,0,0,1,1,.11,2.75,2.75,0,0,0,.31.72c2.33,2.58,4.71,5.09,6.13,8.38.33.75,1.74,1,2.65,1.54.56.94,2.06.76,2.37,2-2.35,0-4.72-.1-7.07,0-2,.13-3-.5-3.4-2.53-.51-2.4-1-4.89-3-6.67A3.89,3.89,0,0,0,242.35,188.89Z"/><path class="j" d="M321.1,152.94a3.86,3.86,0,0,1-1.79,2.9c-1.53,1.13-2.79,2.59-4.52,3.44A5,5,0,0,0,313,160.8c-.49.54-.93.95-1.6.29a12.31,12.31,0,0,1-.89-4.64,3.08,3.08,0,0,1,2.46-2.89,3.6,3.6,0,0,0,2.19-1.54c2.41-3.25,5.31-6.17,6.71-10.1a1,1,0,0,1,.89-.67,4.29,4.29,0,0,1,1,4.57c-.7,1.43-1,3-1.59,4.43-.75,1.62-2.15,2.72-3.16,3.93C319.71,153.85,319.86,152.56,321.1,152.94Z"/><path class="s" d="M52.09,71.83v-.4c2.7-2.17,5.85-3.62,8.71-5.52,0,1.64,0,3.28,0,4.93,0,1.35-.21,2.85,2.38,2.62-1.54,1.75-2.92,3-3.57,4.7C57.1,76.06,54.84,73.65,52.09,71.83Z"/><path class="f" d="M302.1,173.1h-.44c-1.71,1.17-3.05.21-4.38-.77a1,1,0,0,1-.3-.5c-.09-1.07.86-1.57,1.36-2.26.81-1.13,1.53-2.11.61-3.49-.18-.26,0-.64.11-.94a7.14,7.14,0,0,1,6.38-1.67c.77.86,1.9.75,2.88,1.07.65.21,1.49.11,1.69,1.05C308.13,168.89,305.2,171.09,302.1,173.1Z"/><path class="e" d="M321.46,150.54a4.81,4.81,0,0,1,.76-3.19c1.54-1.91,1.09-3.88.43-5.9a1.24,1.24,0,0,1-.65-1.33c.53-1.28,2-1.89,2.32-3.36a6.92,6.92,0,0,0-2.07-7c-.41-.4-1.06-.59-1.18-1.27a10.06,10.06,0,0,1,.16-4.66c1-1.06,1.64-.52,2.25.45.78,1.24,1.17,2.73,2.41,3.67a1.29,1.29,0,0,1,.32.84,85,85,0,0,0,.51,11.83,2.45,2.45,0,0,1-.86,2.45c-.41.59-1.18,1.08-.46,1.93a7.43,7.43,0,0,1-3.51,6.77C321.25,151.53,321.83,150.87,321.46,150.54Z"/><path class="t" d="M208.73,131.17c2.08-.75,4.24-.24,6.36-.42,5.67-.2,11.29.76,16.95.77l0,.07c.49,2.09-1.36,2.61-2.46,3.64a4.06,4.06,0,0,1-.69.08c-2.85,0-5.58-.86-8.38-1.21-3.42-.44-6.86-.72-10.26-1.37C209.37,132.56,208.51,132.43,208.73,131.17Z"/><path class="q" d="M34.28,175.06c-1-.93-2.56-.94-3.55-2,.95-1.67,2.79-1.22,4.21-1.76,1.76-.21,3.5-.63,5.27-.78,2.57-.22,3.87,1.44,3.21,4.1A67.82,67.82,0,0,1,46.55,183a6,6,0,0,1-4.14-3.48,9.68,9.68,0,0,0-3.36-3.7,3.49,3.49,0,0,0-3.58-.79Z"/><path class="u" d="M50.51,63.93c-1.62,1.12-3.19,2.29-4.86,3.32-1.29.81-2.61,1.52-3,3.91C42,68.89,41,69.31,40,69.65A22.48,22.48,0,0,1,34.28,71c2.12-2.54,4.78-4.48,7.28-6.6a3.24,3.24,0,0,1,2.25-.52Z"/><path class="v" d="M119.71,166.35a28.48,28.48,0,0,0,6.82-.89,4.31,4.31,0,0,1,3,.08c-.51.94-1.33.88-2,1-5.33,1.12-10.53,2.76-15.77,4.22a37.13,37.13,0,0,0-4.5,2c-.31.13-.77.51-.94-.12-.06-.19.2-.47.31-.7C110.39,168.59,115.39,168.27,119.71,166.35Z"/><path class="s" d="M107.08,84.5c-1.29-.18-1-1-.67-1.76a75.65,75.65,0,0,1,3.42-8.54c.52,2.82,1.07,5.63,1.54,8.46a8,8,0,0,0,.83,2.58l0,.1A4.77,4.77,0,0,1,107.08,84.5Z"/><path class="r" d="M143.86,168.35c-2,0-4.21.43-5-2.29-.07-.25-.49-.45-.79-.56-1.79-.66-2-1.65-.56-2.93-.54-.55-1.05-.06-1.52-.14a27.47,27.47,0,0,1,4.29-3.22.85.85,0,0,1-.25.89c-.71.76-1.64,1.49-.86,2.69s1.46,2.41,3.25,2.43c2.91,0,3.12.47,1.86,3.08C144.16,168.51,144,168.52,143.86,168.35Z"/><path class="c" d="M326.21,128.79l-.4-.39c-1.58-2.25-3.33-4.38-3.15-7.44,0-1,.28-1.42,1.15-1.63l4.44,3.19a1.49,1.49,0,0,1,.47,2.32C327.84,126.13,327,127.47,326.21,128.79Z"/><path class="w" d="M2.24,133.54a29.91,29.91,0,0,0,4,8.65,2.2,2.2,0,0,1,.33,1.65c-2-.34-3.81-1.43-5.7-2.17-.94-.37-1-1.12-.74-2Z"/><path class="s" d="M72.27,67.88c-.08-.82-.43-.85-1-.38-1.18.94-2.4,1.84-3.55,2.8a1.3,1.3,0,0,1-2-.13c-1.35-1.43-2.72-2.84-4.08-4.26,3.2-.26,6.36.45,9.56.41C72.14,66.31,72.88,66.65,72.27,67.88Z"/><path class="x" d="M310,165.59c-1.43-.14-2.86-.3-4.29-.41-1-.08-.83-.58-.47-1.18a1.15,1.15,0,0,1,.21-1.45c1.19-1,1.93-2.33,3.06-3.35s2.13-.88,2.47.71a1.63,1.63,0,0,0,1,1.28c1.1-.4,1.44-1.94,2.84-1.91-1.38,1.76-3.12,3.28-3.73,5.57C310.92,165.35,310.46,165.48,310,165.59Z"/><path class="y" d="M61.55,189.36a1,1,0,0,0,0-1.09c-.7-1.06-.22-1.53.84-1.72,1.44,1.41,3.42,2.28,4.32,4.25a12.78,12.78,0,0,0,1.76,5.58,1.11,1.11,0,0,1-.18,1.68C64.54,196.31,63.23,192.7,61.55,189.36Z"/><path class="z" d="M289,115.34c-.8-.38-1.61.11-2.4,0a66,66,0,0,1,7.54-7.87,1.62,1.62,0,0,1-.12,2.18A73.61,73.61,0,0,0,289,115.34Z"/><path class="aa" d="M56.39,183l-.75-.45c-.11-1.06.64-1.15,1.38-1.19a14.8,14.8,0,0,0,2.89-.58c.91.49,1.84-.16,2.76.06.67.37,1,1.22,2,1.21.54,0,1,.61.45,1.28-1,.13-2.07.33-3.12.38-1.75.09-2.66.67-1.82,2.58.11.25-.08.62-.13.93l-.45-.33c-.28-.23-.65-.34-.93-.56C58.23,185,57.83,183.68,56.39,183Z"/><path class="ab" d="M98,206.34a4.24,4.24,0,0,0,2.52,1.41,62.79,62.79,0,0,1,8.2,3.22l-7.16-1.5-5.55-2C96.14,206.22,96.73,205.71,98,206.34Z"/><path class="ac" d="M68.27,198.06c-.85-2.4-2.15-4.64-2.73-7.14a.74.74,0,0,1,.92,0c1.29,1.35,2.78,2.61,2.63,4.76l3,4.85c-1.67-.36-2.43-1.78-3.77-2.12Z"/><path class="ad" d="M75.83,205.51c-.2-.26-.4-.51-.76-1a18.78,18.78,0,0,1,4.64,1.63,41.19,41.19,0,0,0,7.8,2.72c.55.12,1.44,0,1.36,1A54,54,0,0,1,75.83,205.51Z"/><path class="j" d="M323.81,119.33a7.46,7.46,0,0,0,1.05,7,3.93,3.93,0,0,1,.95,2.09c-1.33-.42-1.7-1.67-2.32-2.69-.46-.76-.66-1.71-1.63-2.06a3.48,3.48,0,0,1,0-4.75h.82Z"/><path class="ae" d="M98,206.34c-.66.38-1.12,1.13-2,1.15l-1.18,0c-.47.24-.6-.14-.78-.43l-1.2-.79c-.52-.38-1.15-.57-1.66-.94-.32-.24-.58-.6-.31-1s.76-.36,1.14,0l.81.38c1.44.35,2.82,1,4.36.82.47-.05.93.09.82.75Z"/><path class="q" d="M153.72,116.54c.75-1.19.7-2.64,1.37-4.09v7.23c-.92-.58-.83-1.45-1.34-2Z"/><path class="af" d="M59.2,186.16l.41.77c-2.24-.15-4.52.38-6.74-.37,1.57-.58,3.3-.7,4.75-1.61C58.68,184.67,58.71,185.72,59.2,186.16Z"/><path class="ag" d="M257.38,199.19c-.78-.68-2.11-.69-2.37-2l7.64,3.08c-1.6.3-3-.57-4.46-.7Z"/><path class="ah" d="M321.46,150.54c1.24,0,.2.85.43,1.23l-.79,1.17-3.89,3.49-.2-.17Z"/><path class="h" d="M35.47,175.05c1.81-1.53,2.42-1.39,3.58.79A6.39,6.39,0,0,1,35.47,175.05Z"/><path class="h" d="M12.53,99.53c0,.73,1.26,1.63-.07,2.15-1,.38-1.28-.59-1.51-1.36Z"/><path class="ah" d="M325.4,145l-1.66,1.84a34.05,34.05,0,0,1,1.52-4.07c.38-.73.48,0,.6.3C325.71,143.72,325.55,144.36,325.4,145Z"/><path class="ad" d="M94,207.1l.78.43-3.2,1.55a1.85,1.85,0,0,1-.58,0c-.49-.19-.16-.35,0-.47C92,208,93.2,207.88,94,207.1Z"/><path class="ai" d="M157.31,143c1.75-2.29,1.49-4.89,1.19-7.51-.74-.88-.21-1.54.32-2.26,3.24-4.47,7-8.56,10.29-12.95a4.09,4.09,0,0,1,1.64-1c2.5.47,4.08-1.28,5.85-2.48,1.57-1.07,2.93-2,4.49,0,.37.49,1.27.59,1.93.87,2.88,1.19,6,1.34,9,2a34.15,34.15,0,0,1,8.94,3.5c1.09.56,1.59,3.3.82,4.15-.49.56-1.12.27-1.65.09a32.5,32.5,0,0,1-5-1.82c-1.67-.88-2.69,0-3.57,1a2.5,2.5,0,0,0,.15,3.57,5.77,5.77,0,0,0,2.23,1.57c.59.23,1.39.41,1.39,1.21a1.86,1.86,0,0,1-1.42,1.71c-1,.36-2,.63-3,1a2.73,2.73,0,0,0-2,1.46c-.47,1.13-1.77.65-2.51,1.3-2.79,2.45-6,4.44-8,7.74a4.43,4.43,0,0,0-.43,4.46,1.77,1.77,0,0,1-.52,1.42c-2.31,2.93-4.44,6-7.49,8.28-2.17,1-4.61,1-6.79,1.93-2.15.39-3.75,1.83-5.51,2.95-.83.52-1.6,1-2.49.17a3.6,3.6,0,0,1-.58-2.81,6.34,6.34,0,0,1,3.2-1.76,2.35,2.35,0,0,0,2-2.68,5.52,5.52,0,0,1,1.81-4.78c.88-.77.54-1.63-.06-2.45-1.07-1.44-2.13-2.9-1.41-5a5.73,5.73,0,0,0-2.27,1.11,1.44,1.44,0,0,1-1.82-.15A1.18,1.18,0,0,1,156,145C156.5,144.38,156.81,143.65,157.31,143Z"/><path class="aj" d="M187,87.26l-.4.79a70.87,70.87,0,0,0-10.25,5c-1.64.88-2,.39-2.23-1.15-.27-2.16-.62-4.3-.92-6.45a2.66,2.66,0,0,1,1.44-3c2.44-1.43,4.8-3,7.14-4.58.65-.44,1.69-.61,1.66-1.74.22-1.72,1.51-2.49,4-2.37.95,2.66-.14,5.31-.15,8C187.21,83.58,187,85.43,187,87.26Z"/><path class="w" d="M187.37,73.81l-4,2.37c-3.5,1.69-7,3.33-10.48,5.08-1.21.6-1.77.45-2-.93q-.82-4.36-1.8-8.71c-.26-1.16.11-1.74,1.25-2a15.09,15.09,0,0,0,3.45-.81c3.16-1.44,5.84-.71,8.41,1.36C183.84,71.52,185.91,72.23,187.37,73.81Z"/><path class="ak" d="M158.48,130c-.34-1.52-.15-3.13-1.36-4.49-.58-.65-.09-1.64,1.06-1.81,3.14-.46,5.59-2.55,8.46-3.65.79-.3.87-1,1-1.8.24-2.15.55-4.29.8-6.44a2.93,2.93,0,0,1,.8-1.75,5.89,5.89,0,0,1,7.73-.2c.19.19.37.38.57.55,3.37,3,3.37,2.94-.74,4.84-2.31,1.07-4.79,1.9-6.39,4.08a84.07,84.07,0,0,1-9.74,10A2,2,0,0,1,158.48,130Z"/><path class="af" d="M192.6,52.81a5.3,5.3,0,0,0-.16,1.16c0,1.21.56,1.72,1.78,1.14,2.19-1,2-1,2.12,1.2.16,2.86-1.38,5.67-.11,8.55.32.71-.25,1.2-1,1.39a20.88,20.88,0,0,0-2.83.82c-1.17.5-1.73,0-2.12-1-1.76-4.59-3.5-9.2-5.28-13.79-.91-2.36,1.25-2.54,2.41-3.32s2,0,2.4,1.12a1.91,1.91,0,0,0,1.85,1.22C192.48,51.35,192.84,51.78,192.6,52.81Z"/><path class="w" d="M152,58.93c-2.27-1.17-4.6.08-7,.36-.38.05-.83.27-1.08-.13s.16-.72.4-1c3-3.55,6-7.1,9.06-10.62.4-.46.79-1.24,1.56-.94.61.24.44,1,.61,1.57.71,2.18,0,4.79,2,6.6.08.07-.12.47-.22.7C156.8,56.69,153.43,58.94,152,58.93Z"/><path class="w" d="M174.56,30.16q-1.78,5.73-3.55,11.45c-.34,1.1-.84,1-1.52.28-1.76-1.78-3.53-3.54-5.3-5.31-.67-.66-1-1.29.09-1.84l9.85-4.94Z"/><path class="al" d="M158.48,130l11.88-10.67h.39q-5.66,7.35-11.31,14.72c-.36.47-.63,1-.94,1.5-.62.64-1.23,1.28-2,2.12-.35-1.22.36-2,.42-2.92A19.94,19.94,0,0,1,158.48,130Z"/><path class="c" d="M26.77,166l-1.58-1.19a18.93,18.93,0,0,1-6.14-7.94c-.34-.93-1.22-.88-1.83-1.3-.63-1.37-1.24-2.75-1.79-4.16a2.41,2.41,0,0,1,0-2.2c.61-.45,1.33-.82,1.19-1.78.94-1.35,2.54-1.65,3.87-2.4a20.08,20.08,0,0,0,2.15-1.73A6.08,6.08,0,0,1,28,141.45,5.51,5.51,0,0,0,33,139.37c1.62-1.87,3.81-3.27,4.36-6,.18-.9,1.14-1.22,1.91-1.6q6.12-3,12.26-6a4.93,4.93,0,0,0,2.06-1.78q2.29-3.45,4.62-6.88a6.38,6.38,0,0,1,5.92-2.31c1.21.31.48,1.05.21,1.51-1.47,2.5-3,5-4.49,7.44-.35.58-1.15,1.32-.44,1.9s1.44-.22,2.06-.67a1.86,1.86,0,0,0,.44-.4c3.12-4.29,7.57-4.5,12.06-3.44,3,.71,5.09-.24,7.06-2.2.41-.4,1.06-.72.76-1.44-.23-.57-.83-.57-1.35-.66-3.56-.65-7.12-1.33-10.69-1.94a8.88,8.88,0,0,1-5.42-3c-1.66-1.89-1.4-4.46,1-5,3.42-.69,5.4-2.44,7.07-5.41,1.52-2.7,5.26-1.94,6.32,1.22.94,2.8,1.75,2.33-1.34,4.38q-3.06,2-6.07,4.08c-.3.21-.68.46-.54,1,.68.38,1.28,0,1.86-.25,3.33-1.26,6.64-2.57,10-3.81,1.27-.48,2.18-1.14,2.27-2.64a2.16,2.16,0,0,1,2.18-2.13c1.18-.14,2.35-.3,3.52-.5.56-.1,1.38,0,1.55-.63s-.64-.91-1.1-1.19c-1.58-1-3.2-1.83-4.8-2.75-.74-.44-1.64-.89-1.55-1.87.11-1.16,1.27-1,2-1.14,2.39-.48,4.8-.88,7.19-1.3,1.49-.26,2.17.28,1.81,1.84s-.68,3-1,4.43c-.1.5-.39,1.09.12,1.48s1.14,0,1.64-.27c2.18-1.28,3.16-3.46,4.11-5.64a12.85,12.85,0,0,1,.79-2c.68-1,1.58-1.61,2.38-.11.5.94,1.13.89,1.74.33,3-2.77,6.62-2,10.11-1.55,3.07.38,6.12.92,9.18,1.38,1.7.84,1.84,1.4.7,2.77A13.28,13.28,0,0,1,123.05,99a10.15,10.15,0,0,0-3.8,4.45c-.61,1.49-2,2-3.35,2.54-.55.2-1.27.34-1.16,1.11s.92,1,1.56.83c4.1-.8,8.42.15,12.44-1.55a7.15,7.15,0,0,1,3.9-.07c2,.31,2.31-.07,3-2s1.23-3.87,2.64-5.42a.9.9,0,0,1,.85.24,4.14,4.14,0,0,1,1.58,2,14,14,0,0,1,4.35,6.73v.79a14.19,14.19,0,0,1-1,1.61,15.39,15.39,0,0,1-4,1.81,4.87,4.87,0,0,0-1.93,1.26,7.21,7.21,0,0,0-.74.82,7.89,7.89,0,0,1-1,.63c-1.67,1.06-2.38.82-3.5-1.17,0,.89.53,1.9-.49,2.63s-1.87-.07-2.66-.68a5.11,5.11,0,0,0-2.24-3.48c-2.71-1.77-3.26-1.85-6,0a76.46,76.46,0,0,1-12.74,7.1c-2.78,1.19-5.39,2.62-8,4A10.13,10.13,0,0,1,97,124.27c-3.52.4-6.66,2-9.87,3.36-3,1.26-4.49.65-5.4-2.51-.09-.32-.1-.66-.18-1s-.22-.84-.75-.69-.51.56-.48,1a2.89,2.89,0,0,0,.69,1.62c2.94,3.53,2,6.79-.44,10.17s-3.94,7-6,10.41a14.65,14.65,0,0,1-3.15,3.9c-2.63,0-4.95,1.44-7.53,1.68-1.09.1-2.16.56-3.29.2a1.6,1.6,0,0,1-.63-2.2A22.31,22.31,0,0,0,61,147.48c-2.23,2.73-3.66,5.64-6.11,7.72-.47.4-.1.83,0,1.25a8.07,8.07,0,0,1-.39,2.06,2.15,2.15,0,0,1-.81,1,24.21,24.21,0,0,0-8.39,1.84,58.77,58.77,0,0,1-9.62,2A1.73,1.73,0,0,1,33.46,162a5.56,5.56,0,0,1-.43-2.68c.47-1,1.34-.9,2.21-.85a5.38,5.38,0,0,1,1.49.4c5.64,1.84,5.18-.18,6-3.89.43-2,.55-4.12,1-5.67-.41,2.71-1.85,5.58-2.85,8.59-.5,1.51-1.51,1.95-2.86,1.38-3.16-1.32-6.6-1.87-9.61-3.61a5.08,5.08,0,0,0-4.8-.4,27.31,27.31,0,0,0,4.76,1.52c.93.29,2,.49,2.08,1.78a23.22,23.22,0,0,0-1.59,5.86,2.8,2.8,0,0,1-1,2.06C27.29,166.67,27,166.37,26.77,166Z"/><path class="am" d="M20.45,145a19.93,19.93,0,0,0-3.17,2.77,1.86,1.86,0,0,1-1.21,1.57c-.59,2.28.79,4,1.59,6,1.87,1.52,2.5,3.51,1.61,5.13-1.27-.74-1.3-2.19-1.89-3.32-.33-.64-.58-1.33-.88-2-.48-1-.71-2.39-1.51-2.94-1.3-.88-1.27,1.49-2.43,1.48-3-4.39-3.32-9.51-4.16-14.53-.64-3.81.44-7.23,1.35-10.75.67-.69.61-1.65.93-2.45.22-.54-.07-1.56,1.05-1.5,0,4.92,1.95,9.39,3.19,14.46,1.16-1.76.64-3.45,1.59-5.31-.1,1.37-.14,2.28-.24,3.18-.27,2.42-.39,4.77.74,7.11.68,1.41,1.21,2.12,2.7,1.06C19.86,144.83,20.2,145,20.45,145Z"/><path class="b" d="M138.32,99.13c-.6,2-1.27,4-1.78,6.06-.33,1.3-1,2-2.35,1.84-5.77-.53-11.22,1.89-17,1.82-.85,0-1.71.16-2.55.08-1.2-.1-1.64-.94-1.66-2.07a1.55,1.55,0,0,1,1.64-1.79,4.36,4.36,0,0,0,4.15-3c1-2.29,3.21-3.4,5-4.93.87-.75,2.56-1.47,1.05-3.12h1.19l1.18.4c2.41,1.1,2.62,3.47,3.16,5.59.68,2.74-2.23,3.57-3.46,5.87,2.51-.61,4.66-.44,6.78-.72,1-.14,1.51-1,1.81-1.9s.46-1.93.81-2.85S137.05,98.57,138.32,99.13Z"/><path class="q" d="M107.08,84.5a13.84,13.84,0,0,1,5.14.84c2.07,2,4.81,3,7.1,4.68h0a2.94,2.94,0,0,1-3.15,0c-1.31-.64-2.71-.35-4.07-.37a55.88,55.88,0,0,0-7.09,0c-3.28.36-5.67-1.16-8-3.05-.51-.41-1-.76-.22-1.35,1.35.76,2.71,0,4.06,0A24.74,24.74,0,0,0,107.08,84.5Z"/><path class="k" d="M36.11,113.55c-1.58,3.37-3.15,6.74-4.75,10.1a1.47,1.47,0,0,1-1.5.76,46.84,46.84,0,0,0-5.69-.31c-.69.05-1.28-.39-.48-1.06,3.95-3.32,7.94-6.6,11.91-9.89Z"/><path class="af" d="M12.16,122.47a17.8,17.8,0,0,0,2.8-4.94,6,6,0,0,1,4.62-4c2.87-.57,5.67-1.52,8.53-2.31.19.76-.38.86-.7,1.09q-6.91,5-13.87,10c-.41.3-.81.7-1.41.54-.1-.09-.12-.17-.08-.25S12.12,122.47,12.16,122.47Z"/><path class="l" d="M41.41,84.88l2.38-.41c-3.25,2.43-7.15,3.76-10.4,6.19-.47.35-1,.64-1.47,1l-3.67,2.18L28,93.54l2.34-2.7C33.14,87.2,37.28,86.05,41.41,84.88Z"/><path class="an" d="M12.16,122.47a2.43,2.43,0,0,0,0,.38l-.36,0c-1-.94.17-2.18-.41-3.18-.13-2.37,1.13-4.26,2.16-6.23,1.12-2.14,2.22-4.3,3.33-6.45l.42-.39c.53-.15,1.07-1.31,1.59,0A36.37,36.37,0,0,0,12.16,122.47Z"/><path class="ah" d="M69.89,85.63c1.55-.23,2.74-1.46,4.35-1.53l-4.95,3.09h9.22c0,.16,0,.31,0,.47L63.49,89l-.12-.28,2.95-1.48c.29-1.2,1-1.28,2-.8Z"/><path class="ao" d="M18.86,106.64c-.53-.33-1.06-.08-1.59,0A21.16,21.16,0,0,1,24.79,97l-5.14,8.5C19.39,105.85,19.13,106.25,18.86,106.64Z"/><path class="ap" d="M11.36,119.71c.59,1,.3,2.12.41,3.18,0,.52,0,1,0,1.55-.54,1.61-1.08,3.23-1.64,4.87-.42-.27-.27-.63-.34-.92C10.29,125.5,10.82,122.6,11.36,119.71Z"/><path class="m" d="M68.3,86.46l-2,.8c-.86-.53-1.09-1.4-.28-1.89C67,84.76,67.9,85.34,68.3,86.46Z"/><path class="b" d="M116.18,90h3.15c-.86,1.51-2.2,1-3.39.7C115.54,90.62,115.86,90.19,116.18,90Z"/><path class="aq" d="M254.22,139.87a21.2,21.2,0,0,1,1.17,6.55c.07,1.25-.11,2.51,0,3.75.73,6.34-1.25,12.34-2.2,18.47a3.56,3.56,0,0,1-3,3.23c-1.34.29-2.64.81-3.95,1.23-2.27.42-4,1.77-5.81,3.11a16.16,16.16,0,0,1-1.69,1.3c-.65.38-1.35.76-2.11.24a1.8,1.8,0,0,1-.6-2.12,26,26,0,0,1,1.19-3.34,4,4,0,0,0-.71-4.36c-1.74-2.12-3.9-3.92-5.08-6.48-.45-1.41.94-2.4.81-3.84a15.22,15.22,0,0,0-.27-3c.2-2,1.29-3.68,2.25-5.37.81-1.42,2.14-1.45,2.86,0s1.49,1.11,2.49.48a22.9,22.9,0,0,0,3.39-3,69.09,69.09,0,0,1,9-7.85A4.8,4.8,0,0,1,254.22,139.87Z"/><path class="ag" d="M245.92,186.56l-.76.39c-1.58.14-2.94-.62-4.37-1.09-2.36-.78-4.67-1.72-7.09-2.34-.9-.24-2-.38-2-1.75l5.15-2.76c.42-1,1.48-1.23,2.34-1.65a18,18,0,0,1,8.14-1.93c.8.66.54,1.28-.2,1.7s-1.49,1.26-2.25,1.63a21.31,21.31,0,0,1,4.83-3c-.55.07-.84,0-1-.36,1.79-2.22,4.25-3.66,6.35-5.51a1.15,1.15,0,0,0,1.19-.51c1.4-1.67,3.19-3,4.58-4.67A25.59,25.59,0,0,1,258,167.5c-.4.34-.76.93-1.43.45a39.57,39.57,0,0,1,3.06-6.4,6.58,6.58,0,0,0,.71-5.64,6.54,6.54,0,0,1-.39-3.5,61.8,61.8,0,0,1,5.62,7.2c.43.6,0,1.16-.43,1.56-3.41,3-4.49,7.08-5.25,11.2-.64,3.42-3.18,5.27-5.33,7.34A105.05,105.05,0,0,1,245.92,186.56Z"/><path class="ar" d="M299.31,165.58c2.28,1.85,2.29,1.86.2,3.94-.69.69-1.43,1.34-2.14,2-1.94.66-2.23.52-2.69-1.4.43,2.57-.59,4.88-.85,7.28a1.85,1.85,0,0,1-1.24,1.61l-5.94,2c-.47-.41-1.1-.35-1.39-.48a3.15,3.15,0,0,1,1.39.48l-6.83,3.41-.34-.41a21.55,21.55,0,0,1,2.48-2.31c1.53-1,1.35-1.72-.24-2.37a6.35,6.35,0,0,1-1-.67c.25-.13.41-.26.46-.23,2.15,1.36,3.78.35,5.69-.81,4.48-2.72,4.5-2.92,4-8.13a16.52,16.52,0,0,0-3.14-7.71c-1.83-2.73-1.57-4.83.81-7.22,3.43-3.45,5.58-7.8,8-11.92,1.08-1.83-.59-6.49-2.4-8-2.15-1.83-4.16-3.84-6.37-5.6-1.83-1.45-2.5-3.65-3.9-5.36l2-2,3.67-1.1c-.11.29-.13.44-.2.48-3.16,1.45-3.16,2,0,5a4.56,4.56,0,0,1,1.89,1.35c2,2.61,3.86,5.32,5.85,7.94,2.17,2.86,2.35,6.19,2.29,9.57,0,2.08-1.77,3.13-2.88,4.55-2.39,1.24-3.72,3.51-5.25,5.54-1.07,1.43,0,4.85,1.55,5.69,1.48,1.16,3.17,2,4.73,3C298.3,164.16,299.27,164.46,299.31,165.58Z"/><path class="f" d="M254.22,139.87l-2.37-.4a5.39,5.39,0,0,1-3.61.05c-3-.8-6-1.25-9-2.14a4.84,4.84,0,0,1-.46-.33c-2.43-1.49-2.45-2.38,0-4a5.7,5.7,0,0,1,1.5-.85.41.41,0,0,1,.49.1h2.34c-1.68-.52-1-1.19-.2-1.86a4.34,4.34,0,0,1,2-.82c1.92-.42,3.89-.69,5.76-1.26a22.91,22.91,0,0,1,10.82-.39,13.58,13.58,0,0,0,5.81-.39c-1.62,1.56-3.72,2.38-5.58,3.55a12.8,12.8,0,0,0-3.46,2.53,12.71,12.71,0,0,1-3.63,3C253,137.62,252.82,138.63,254.22,139.87Z"/><path class="m" d="M247.5,175.88A102.2,102.2,0,0,0,236.81,179l-.79-.78a48.76,48.76,0,0,1-8.94-8.64c-.41-.52-.84-1-.63-1.74,1.32-2,2.89-3.92,4-6.06.37-.68.85-.94,1.58-.58,2,2.33,4,4.71,6,7a2.55,2.55,0,0,1,.62,3c-.52,1.27-1,2.57-1.41,3.88-.2.63-.83,1.44,0,1.94.64.41,1.17-.33,1.66-.73.67-.53,1.35-1,2-1.62a5.61,5.61,0,0,1,5.4-1.57c-.83.56-1.25,1.11.12,1.47.68.18,1.47.08,1.85.87C248.16,175.83,247.94,176.05,247.5,175.88Z"/><path class="as" d="M292.59,179l2-11.56c.59,1.53.15,3,1.33,3.64.59.34.69-.62,1.15-.84.4.36.16.85.27,1.27v.33c1.24,1.61,1,3.21,0,4.81,0,.12,0,.24-.05.36-1.41,2.4-2.81,3-4.72,2Z"/><path class="ar" d="M292.59,179a14.56,14.56,0,0,0,4.72-2c0,2.09,0,4.17,0,6.26,0,.38.11.86-.31,1.06s-.76-.19-.95-.49C295,182.21,293,181.17,292.59,179Z"/><path class="o" d="M297.36,176.68v-4.81l4.29,1.23C300.67,174.83,299,175.68,297.36,176.68Z"/><path class="ap" d="M256.59,168c2-1.61,4-3.3,6.1-4.84q-3.94,4.41-7.9,8.83l-.32-.21c.18-.6.36-1.21.53-1.81Z"/><path class="at" d="M247.5,175.88l.78-.44h.37l2.85-.61a30,30,0,0,1-8.33,4.86Z"/><path class="au" d="M286.33,182.48a8.66,8.66,0,0,1-2.12,5.4C284.44,185.89,285.56,184.25,286.33,182.48Z"/><path class="p" d="M221.38,166c.61,2.11-1.17,3-2.23,4.24-.56.64-1.23.08-1.55-.57-.74-1.48-1.11-.78-1.56.2-.67,1.48-1.16,2.91-.27,4.5a3.29,3.29,0,0,1,.37,2.49,8.32,8.32,0,0,0,.37,5c.73,2.09.08,3.39-1.76,4.37-.55.29-1.21.55-1.46,1.26,1.46,1.55,3.27.84,5.48.55-1.7,1.53-3.52,1.54-4.9,2.43a1.54,1.54,0,0,0-1.73-.59,14.28,14.28,0,0,1-3.5.49c-3.57.21-6.84,1-9.15,4.08a4.57,4.57,0,0,1-1.28.91c-1.58,1-2,.86-3.11-.84a1.35,1.35,0,0,1,0-.91c1.44-1.19,2.53-2.76,4.13-3.8a2.31,2.31,0,0,0,.88-2.62c-.46-2.25-1.58-4.39-1.17-6.8.11-.66-.48-.86-.93-1.11a2.67,2.67,0,0,0-2.05-.43c-2.69.49-5.41.83-8.11,1.29-2,.33-3,2-4.5,3a13.87,13.87,0,0,0-1.94,1.65c-1,1-1.86,2.25-3.57,1.83a2.12,2.12,0,0,1-1.2-1.69c-1-4.08-2.78-8-2.15-12.4a7.57,7.57,0,0,1,.41-1.9,7,7,0,0,0-.73-6.59c-.39-1.9,1.34-2.52,2.21-3.66,3.21-1,5.61-3.33,8.28-5.22,1.07-.76,1.91-2.13,3.56-1.71,1,.82.5,1.83.28,2.74-.85,3.57-2,7.06-2.88,11a14.31,14.31,0,0,0,3.06-2.41c2.76-2.22,5.39-4.61,8.05-6.94,1.15-1,1-1.44-.34-2.1-1.54-.73-3.2-1.17-4.76-1.87-.79-.36-1.6-.69-1.69-1.72a1.57,1.57,0,0,1,.72-1.52,54.86,54.86,0,0,0,8.14-6.92,12.38,12.38,0,0,0,8-1.36,2,2,0,0,1,1.15-.22c3.81.69,7.67-.4,11.48.37,1.22.25,2.1.82,1.66,2.1-.68,2-.23,3.31,1.72,4.12.16.07.22.32.29.5.08.42.13.83.22,1.24a2,2,0,0,1-.4,1.2c-3,1.4-1.74,3.78-1.35,6a6.32,6.32,0,0,1,0,.87c-.39,1.2-1.76,2-1.36,3.51a2.49,2.49,0,0,0,.85,3A1.06,1.06,0,0,1,221.38,166Z"/><path class="p" d="M159.28,204.74c-.66-1.05-1.31-2.11-2-3.17a.69.69,0,0,1-.21-.51c.12-.6.77-.85,1-1.4a10.37,10.37,0,0,0,4.87-3.82,8.14,8.14,0,0,0,2.83-2.45,6.67,6.67,0,0,1-.91,1c-.39.35-.78.83-1.34.37a1.12,1.12,0,0,1-.19-1.45,26.65,26.65,0,0,0,1.6-4.23,10.36,10.36,0,0,0,0-6.58c-.66-1.85-.43-3.9-1.27-5.73a2.55,2.55,0,0,1,.31-2.09c.52-1.07,1-2.16,1.42-3.25a5.19,5.19,0,0,1,2.72-2.79,12.91,12.91,0,0,0,4.78-3.73c.91-1.18,1.34-1,2,.32,1,1.87.68,3.74.22,5.63-.79,4.08-.65,8.29-1.89,12.3a2.43,2.43,0,0,0,1.19,2.86c.7.46,1.57.7,2,1.54.3,1.53-1.27,3-.26,4.54.43,2.47,1.81,4.63,2.27,7.08.2,1,.89,2.14-.13,3.15-3.27-.26-6.54-.54-9.82-.76-.6,0-1.47-.26-1.69.57-.18.67.62.92,1,1.35a5.09,5.09,0,0,0,.6.52c2.36,1.88,2.36,1.89-.33,3.2-.57.27-1,.61-1,1.32s.79,1.7-.47,1.93c-1,.18-2.36,0-2.76-1-.54-1.43-2.63-2.84-.47-4.62a.88.88,0,0,0-.08-1.26,1,1,0,0,0-1.58.12A2.79,2.79,0,0,1,159.28,204.74Z"/><path class="af" d="M178.27,202.36q-1.58-5.13-3.16-10.28a11.83,11.83,0,0,1,6.54-.26,69,69,0,0,1,7,2.07c-3.15-1.09-6.44-1.8-9.42-3.38-.62-.33-1.38-.52-1.53-1.38.1-1-.86-2.21.54-3a14.26,14.26,0,0,0,2.77-2c.86-.42,1.48,0,2.11.55,3.25,2.62,6.46,5.29,9.53,8.12a8.3,8.3,0,0,0,3,1.62,1.17,1.17,0,0,0,1.85.28,7.41,7.41,0,0,0,1.55-1.19c2.17-2.93,5.17-4,8.67-4a40.29,40.29,0,0,0,4.08-.53c1.13-.14,1.95.2,2,1.5-4.29,1.63-8.59,3.23-12.85,4.91a175.37,175.37,0,0,1-19,5.83C180.77,201.57,179.53,202,178.27,202.36Z"/><path class="c" d="M240.39,186.54c-2.68,2.11-5.3,4.3-8.07,6.3a27.11,27.11,0,0,1-13.4,5.19,18.21,18.21,0,0,0-1.94.31c-1.55.3-2.33.88-.62,2.16-.6.56-1.06.13-1.51,0-1.48-.43-1.68-1-.6-2.33,3.37-4.08,6.5-8.37,11.09-11.24.51-2.1,2.4-1.89,3.86-2.1a10.19,10.19,0,0,0,3.53-1.11,6.15,6.15,0,0,1,1.66,0,41.17,41.17,0,0,0,5.11,1.54,1.24,1.24,0,0,1,1,.66A.58.58,0,0,1,240.39,186.54Z"/><path class="ad" d="M221.38,166l-.77-.41c-.1-.09-.22-.2-.21-.31a4.4,4.4,0,0,0-1.38-3.64,13.82,13.82,0,0,1,1.94-3.18c.83-1,1.31-.33,1.71.41a18.64,18.64,0,0,1,1.28,3.63,1.77,1.77,0,0,0,1.74,1.48c1.3.81.92,2.31,1.43,3.45a1,1,0,0,1-.16.57c2.8,3.62,6.37,6.55,9.06,10.26a19.66,19.66,0,0,1-6.64-4.42C226.81,171.12,224.06,168.59,221.38,166Z"/><path class="av" d="M240.38,186.15l-.8-.42c-1.72-.37-3.34-1.17-5.15-1.14h-1.56c-.87,0-1.74.17-2.6.08s-1.83,0-1.74-1.29c1.24-.16,2-1.25,3.13-1.62l11.22,4.09a6.25,6.25,0,0,1,2.28,1.09h0C243.29,188.15,241.82,187.21,240.38,186.15Z"/><path class="q" d="M228.53,183.39c1.32.87,3,.55,4.34,1.21-2.41,1.1-5.17,1.06-7.53,2.33l-4.54.87-.1-.22Z"/><path class="ag" d="M240.38,186.15l4.75.81a3.5,3.5,0,0,1-2.78,1.59l-2-2C240.39,186.41,240.38,186.28,240.38,186.15Z"/><path class="ar" d="M222,176.66c.92,1.22,1.83,2.44,2.75,3.65C223.1,179.64,222.43,178.24,222,176.66Z"/><path class="a" d="M198.05,80.14c-.55-.07-1.28,0-1.34-.75s.52-1.38,1.34-1.62Z"/><path class="a" d="M71.47,149.76c2.83-4.06,4.84-8.59,7.38-12.81,1-1.62,2.32-3,2.85-4.92a3.77,3.77,0,0,0-.39-3.54A28.44,28.44,0,0,1,79.77,126c-1.51-2.63-1.4-2.93,1.19-4.41,1.18-.67,1.56-.22,1.58.94A7.49,7.49,0,0,0,83.1,126c.68,1.35,1.54,1.85,3,1.08a37.42,37.42,0,0,1,8.07-3.18c10.13-2.6,18.94-7.87,27.71-13.25,2.38-1.45,7.12-.09,8.18,2.4.27.66-.05,1.3-.05,2-1.74.86-3.27,0-4.8-.66-.54-.22-1.11-.81-1.61-.31-1.18,1.18-2.77,1.42-4.17,2.09a5.11,5.11,0,0,0-2.42,3c-1.17,3.16-2.18,6.36-3.22,9.56a2.51,2.51,0,0,0,.1,2.3,4.65,4.65,0,0,1,.38,5,.92.92,0,0,0,.08,1.1.81.81,0,0,0,.9-.27c2.1-2.18,5-3.08,7.39-4.87.7-.54,1.56-.89,2.33-.12s.41,1.46,0,2.2c-.11.24-.28.45-.38.69-.21.51-.39,1.06.22,1.39s.85-.14,1.11-.53c.36-.55.62-1.19,1.38-1.31a1.28,1.28,0,0,1,.89.25c.94,2.29.53,4.57,0,6.85-.1.42-.49.8-.17,1.28.14,2-1,3.62-1.91,5.28a2.55,2.55,0,0,1-2,1.1,52.06,52.06,0,0,1-5.57,1.17c-3.53.32-5.52,2.7-7.53,5.12-4.4,4.11-10.12,5.78-15.36,8.34a1.79,1.79,0,0,1-2.34-.27,1.82,1.82,0,0,1-.12-2.2,28,28,0,0,1,3-5.07,5,5,0,0,0,1.25-2.3c.56-1.29,1.78-1.89,2.79-2.69s1.92-1.4,2.13-2.69c1.24-1.27,2.66-2.34,4.36-3.78a57.34,57.34,0,0,0-7,1.68A.82.82,0,0,0,99,147c-.07.5.36.65.71.81.81.36,1.89.32,2.11,1.51-.18,1-1.07,1.42-1.78,1.94-1.75,1.28-3.2,2.91-5,4.17a4.8,4.8,0,0,0-1.42,2.45,18.72,18.72,0,0,1-5.13,4.58l-2.38,0c-.73-.91-.8-1.74.22-2.51,2.88-2.16,4.17-5.47,6-8.36.92-1.43.74-1.74-1.19-2.75-.35-1.3.57-1.6,1.49-1.85.68-.19,1.45-.13,2-.72a4.64,4.64,0,0,0-4.11,2.86,4.72,4.72,0,0,1-4.5-.36c-1.38-.86-3.35-.44-5-.18a19.52,19.52,0,0,1-4.3.28,3.38,3.38,0,0,0-3.14,1.28,1.47,1.47,0,0,1-.64.24,1.53,1.53,0,0,1-1.28-.27Z"/><path class="c" d="M137.52,215.81c-6-.12-10.88-3.74-16.51-5.05a40.45,40.45,0,0,0-6.77-1.23c-3.39-.2-5.93-1.94-8.36-4-.56-.48-.66-.94-.09-1.48.27-.26.7-.53.37-1s-.74-.18-1.12-.09c-1,.24-1.9.51-2.86.75a1,1,0,0,1-1.35-.51c-.24-.56.29-.79.65-1.07l4.43-3.52-.3-.4c-1.48,1.11-3,2.17-4.43,3.32a3.57,3.57,0,0,1-4.52-.14c-1.22-.85-3.27-1.72-2.15-4,.29-.59,0-1-.49-1.35-.36-.56-.11-1,.28-1.4a23,23,0,0,1,1.77-2.11,10.83,10.83,0,0,0,4.23-8.7,2.77,2.77,0,0,1,1.9-2.54,5.31,5.31,0,0,0,1.7-1.07l.8.79c.42.25.87.46,1.09.58a1.2,1.2,0,0,1-.3-1v-.39c-.32-1.38.4-1.71,1.58-1.59h.79a11.66,11.66,0,0,0,3.61-1.63,3.18,3.18,0,0,1,2.39-.48,13.19,13.19,0,0,0,2,4.57c.82,1.14-.25,2.38-1.27,3.09a10.9,10.9,0,0,1-4.49,2c-1.37.23-1.78.42-1.55,2.16a18.22,18.22,0,0,0,2,6.07,3.63,3.63,0,0,0,2,1.82c1.93.81,4.1,1,5.84,2.32.65.49,1.4,0,2.09-.2,3.25-1,6.44-2.27,9.76-3.11a6.65,6.65,0,0,1,3.85.12c6.27,2,6.28,2,10.52-3.11a2,2,0,0,1,.61-.48,1.19,1.19,0,0,1,.62,0,1.63,1.63,0,0,1,1,.9,78.54,78.54,0,0,1,3.12,7.24,6.41,6.41,0,0,1-1.86,7.31c-2.83,2.65-5.34,5.64-8.46,8C139,215.54,138.47,216.34,137.52,215.81Z"/><path class="h" d="M113.8,176.66a4,4,0,0,0-2.49,1c-1,.67-2.1,1.36-3.45,1a23.08,23.08,0,0,1,4.86-2.45c2.43-1.05,4.53-2.81,6.89-4,2-1,3.87-2.81,6.16-2.89,2.48-.08,4.9-.81,7.39-.53,2.5,2.52,4.41,5.58,7.1,7.94a1,1,0,0,1,.56.68c-.23,1.24.43,2.26.79,3.36s1.34,2.17.61,3.49c-.13.15-.31.36-.47.33-1.67-.34-3.15-.38-4.6.94-.69.63-1.76,0-2.24-1a14.4,14.4,0,0,1-.79-2.23,7.16,7.16,0,0,0-10-4.13,1.8,1.8,0,0,1-1.68.16c-1.87-.8-3.85-.63-5.8-.7C115.59,177.57,114.44,177.8,113.8,176.66Z"/><path class="p" d="M103.9,180.22c-.13.3-.18.73-.4.87-2.52,1.54-2.45,4.14-2.71,6.57a3.87,3.87,0,0,1-1.33,2.73c-2,1.7-3.35,4-5.44,5.65-1.06,1.49-2.82,2.51-3,4.59,0,.38-.57.48-1,.55a1,1,0,0,1-1.54-.27c-.81-1.67-2.3-2.89-3-4.62,0-1-.44-1.86-.33-2.9.27-2.43,1.1-4.1,3.82-4.44a1.67,1.67,0,0,0,1.44-2.18,1.25,1.25,0,0,1,.4-1.41l4-3.56C97.94,181.82,100.82,180.45,103.9,180.22Z"/><path class="c" d="M88.48,162.41c0-1.28,1.12-1.68,1.81-2.41.85-.9,1.69-1.82,2.53-2.72,1.46-.68,2.16-2.21,3.45-3.07.52-.34.91-1.06,1.7-.52-.36,2.45-2.11,4.2-3.1,6.33-.42.89-1.63,1.91-.75,2.78s1.77-.42,2.65-.78c4.86-2,9.55-4.39,14.26-6.73-2.44,2.77-4.91,5.49-7.29,8.3-1.46,1.72-3.5,1.6-5.41,2-1.59.32-3.31.12-4.71,1.19a.71.71,0,0,1-.48.21c-.29-.1-.47-.25-.32-.59C91.59,164.82,90.87,162.7,88.48,162.41Z"/><path class="b" d="M138.32,99.13c-1.31,1-1.26,2.52-1.65,3.88-.82,2.87-1.25,3.28-4.24,3.21a26.5,26.5,0,0,0-5.63.76c-.64.13-1.52.67-2-.2-.35-.71.49-1.11.89-1.59.25-.3.55-.56.83-.84,3.46-3.45,3.62-5.88.67-10L134,97.15c.32.82-.74.75-.87,1.32,1.14.21,1-.73,1.26-1.32,1.68.43,3.72,0,4.75,2Z"/><path class="ao" d="M140.7,122.47l-2,1.18c-.69,2-2.67,2.32-4.18,3.28-1.54.58-2.73,1.77-4.25,2.41-2,.84-2.59.55-2.83-1.55a15.53,15.53,0,0,1-.39-2.71c.18-1.28,1.21-2,2-2.8,1.31-1.36,2.67-2.67,4-4a6.09,6.09,0,0,1,1.65-.67c1.78,0,2.36,1.62,3.42,2.6a.92.92,0,0,0,1.18,0,1.23,1.23,0,0,1,1.67.32A1.64,1.64,0,0,1,140.7,122.47Z"/><path class="b" d="M134.36,126a25.12,25.12,0,0,1,4.35-2.37c1.2,1,1.25,2.1.38,3.44-2.43,3.71-4.78,7.49-7.15,11.24a2.39,2.39,0,0,1-1.53,1.14.77.77,0,0,1-.56-1c1-1.87,1.24-4,1.93-5.95C132.55,130.34,132.91,128,134.36,126Z"/><path class="b" d="M136.74,113.37l.39-.8c.27-.38.52-.7,1.11-.6a6.16,6.16,0,0,0,5.62-2.16l1.18-1.19c-.62,2.32-1.24,4.65-1.88,7a1.72,1.72,0,0,1-1.29,1.34,4.86,4.86,0,0,1-5.94-.41C135.27,115.23,136.46,114.41,136.74,113.37Z"/><path class="ad" d="M136.34,116.15a18.48,18.48,0,0,0,5.53.78l1.45.62c-.2.84-1.16,1-1.45,1.73-.44.4-.62,1.19-1.47,1-1.36-.83-1.75,1.15-2.87,1-.85-1.12-1.48-2.43-2.77-3.17C134.3,116.44,134.56,116.12,136.34,116.15Z"/><path class="aw" d="M103.09,174.64l15.35-3.16c0,.13.06.25.1.37l-13.46,4.38C104.54,175.54,103.07,176,103.09,174.64Z"/><path class="ar" d="M130,138.68c.13.26.25.53.38.79,0,1.66-1.57,2.11-2.37,3.15-1.1,0-.62-.75-.58-1.26.18-2.21.38-4.42.57-6.63a1.13,1.13,0,0,1-.28-.9c.12-.72-.1-1.75.87-1.89s1.1.83,1.24,1.51C130.2,135.17,131.11,136.9,130,138.68Z"/><path class="ax" d="M103.09,174.64c.59.62,1.92.32,2,1.59a17.41,17.41,0,0,0-8.3,3.26A2.19,2.19,0,0,1,98,177.81c.49-.22.37-.26.17-1.07s.72-.8,1-1.28C100.43,175,101.62,174.16,103.09,174.64Z"/><path class="b" d="M134.36,97.15c.41.54,1.52.64,1.27,1.53s-1.25,1.08-2,1.33a1.57,1.57,0,0,1-1.91-1c-.16-.28-.31-.57-.46-.86s-.66-.81-.38-1.24c.4-.6.94,0,1.4.05a3.52,3.52,0,0,0,1.73.14Z"/><path class="b" d="M145,107.83l-4.35-6.73C143.38,102.43,145.29,105.4,145,107.83Z"/><path class="h" d="M107.07,178.63c-.52.53-1.34.77-1.58,1.59-.12-.24-.33-.47-.33-.71,0-.89-1.43-2-.16-2.58S106.45,177.94,107.07,178.63Z"/><path class="q" d="M93.23,166.76h.39a6.43,6.43,0,0,0,1.22.57c1.9.45,2,1.55,1.14,3C94.38,169.66,93.73,168.27,93.23,166.76Z"/><path class="h" d="M105.49,180.61a7.21,7.21,0,0,1,2.25,3.15c-1.19-.74-2.45-1.37-3-2.75Z"/><path class="ay" d="M93.23,166.76,96,170.34l0,.37c-1.78-.75-3.37-2.91-3.19-4.33Z"/><path class="b" d="M140.3,120.09l1.57-.81c-.16,1.15.44,2.57-1.17,3.19a4.19,4.19,0,0,0-.42-2,.23.23,0,0,1-.08-.26C140.24,120.13,140.27,120.09,140.3,120.09Z"/><path class="l" d="M198.87,144.23c-1.31,3-4.14,4.48-6.51,6.41l-1.84,1.48c-.43,1.06-1,2-2.36,1.59l-11.07,7.53c-.79-.79-.41-1.44.3-2,3.83-2.8,7.33-6,11-8.69-.4.09-.77,1-1.55.46-.66-1,.17-1.56.68-2.21a45.8,45.8,0,0,1,7.66-7.06,33.67,33.67,0,0,0,6.59-6.47c.55-.74,1.14-1.42.86-2.49-.24-.92.22-1.35,1.21-1.19a5.36,5.36,0,0,0,2.89-.06l2-.4a2.17,2.17,0,0,0,1.53.77q9.54,1.4,19.07,2.82c1.51.74,3.23.38,4.75,1-1.41-.59-3-.24-4.4-1.07l2.4-3.12a5.21,5.21,0,0,1,2.76.34c1.82.64,3.76-.22,5.57.48l-2.52,2.74c-.42,1.64,2.47-.84,1.29,1.55.29,1-.42,1.62-1.06,2.16-1.86,1.58-3.76,3.1-5.57,4.73a7.39,7.39,0,0,1-1,.64c-.54.33-1.12.52-1.6,0s-.08-1.11.34-1.54a2.33,2.33,0,0,1,.61-.44c-1.23.66-1.58,1.9-2.08,3.08a6.25,6.25,0,0,1-1.5,2.52,2,2,0,0,1-.53.16c-.93,0-1.21.77-1.69,1.37-.63.77-1.12,2-2.56,1.21l0-1.17c-1.09-2.53-.86-4.14.79-5.72a.82.82,0,0,1,1,.82c.24-.89-.81-1-1.1-1.56-.38-1,.28-1.64.74-2.32.62-.93,1.37-1.78,2-2.68.84-1.15.63-1.62-.74-1.81-2.61-.36-5.24-.51-7.85-.77-2.42-.24-4.86-.32-7.25-.78a3.57,3.57,0,0,0-4,1.52c-.85,1.18-1.87,2.21-2.77,3.35-.52.65-1.06,1.4-2.11,1.11a.71.71,0,0,1-.2-1.16c-.44,1.43-1.75,2.68-2,4.43A4.46,4.46,0,0,1,198.87,144.23Z"/><path class="az" d="M206.76,131.57c-1,.59-2.06.28-3.69.56,2,.3,1.83.82,1.08,1.89-3.45,4.93-8.31,8.33-12.71,12.24-1.61,1.43-3,3.12-4.46,4.69-.22,1.66-2,1.87-2.79,3s-2.49,1.31-3.73,2a4.25,4.25,0,0,0-2.37,2.66c-1.7,1.19-3,3.1-5.34,3.2a19.9,19.9,0,0,0-2.79-2.12l7.53-9.09a3.72,3.72,0,0,1,1.85-2.42c3.82-2.87,7.54-5.85,11.33-8.77a5,5,0,0,1,3-1.09c2.32-1.8,4.77-3.46,6.92-5.45C202.5,131.07,204.58,131.36,206.76,131.57Z"/><path class="w" d="M193.69,138.28q-7.42,5.76-14.86,11.5a12.66,12.66,0,0,1-1.34.78,2.19,2.19,0,0,1-.74-3.24c1.11-2.06,2.11-4.17,4.14-5.61a52.39,52.39,0,0,0,4.64-3.93,3,3,0,0,1,3.42-.68A17.17,17.17,0,0,1,193.69,138.28Z"/><path class="a" d="M154.94,74.29a5.32,5.32,0,0,1,2.62,3.09c.41,1.14-1.22,1.43-2,2.05-.14.12-.53.06-.73-.05-.83-.41-1.3-4.2-.61-4.76A2.9,2.9,0,0,1,154.94,74.29Z"/><path class="ba" d="M240.41,132.41c-1.84-.35-3.78.47-5.57-.48l.75,0c1.72.23,3.5-.33,5.17.44Z"/><path class="ag" d="M139.11,214.63c3-2.94,5.95-5.95,9-8.79a4.08,4.08,0,0,0,1.23-4.56c-.82-3.22-2.71-6-3.56-9.18-.54-1.07.26-1.56.94-2a2.2,2.2,0,0,0,.87-2.72,50.82,50.82,0,0,1-1.74-6.79c1-3.22,1.77-3.56,5.25-2.44.76.89.6,1.92.52,3-.22,2.81-.62,5.67,1.41,8.1a10.86,10.86,0,0,0,.74,1.63c0,1-.77,1.62-1.2,2.41s-1.21,1.93-.16,2.83,1.84.08,2.61-.54a8.86,8.86,0,0,1,2.33-1.43,1.55,1.55,0,0,1,1.82.2,1.52,1.52,0,0,1,.29,2c-1.12,1.48-1.23,3.36-2.17,4.9,0,.13,0,.26,0,.38a53.73,53.73,0,0,0-5.93,7.52c-.16-.48-.13-1.06-.6-1.35-2.28,1.81-4.55,3.58-6.77,5.42-.9.74-2,1.32-2.45,2.51-.91,2.68-3.34,3.39-5.58,3.92a31.62,31.62,0,0,1-4.78,1c.32-.43.25-.69-.31-.81a12.31,12.31,0,0,0-3.91-.35,8.62,8.62,0,0,1-6.1-1.89c2.7.43,5.42.76,8.1,1.33,2.46.52,4.67.39,6.55-1.45C137.1,217,138.85,216.76,139.11,214.63Z"/><path class="q" d="M86.09,196.07a20.3,20.3,0,0,0,4,5.11c.39,1.23,1.71,1.89,2,3.2-.53,0-1,.12-.45.77a14.1,14.1,0,0,0,1.28,1.16,8.7,8.7,0,0,0-7.88.27c-2.13,1.07-3.82-1.1-5.8-1.53,0-.19,0-.38,0-.56H89.43c-1.36-4.35-5.06-2.54-8.15-3.73h2.86c1-.83,1.66-1.76,1-3.15a1.22,1.22,0,0,1,.49-1.68A.44.44,0,0,1,86.09,196.07Z"/><path class="aa" d="M139.11,214.63c.57.21,1.17.39.75,1.21a3.32,3.32,0,0,1-4.33,1.55c.26-1,1.37-1,2-1.58Z"/><path class="ab" d="M98,206.33c-1.82-.21-3.7-.21-5.18-1.57l7.55.57c0,.17,0,.34,0,.51Z"/><path class="c" d="M157.31,143c0,1.1-1.62,2.3-.65,3s1.91-.88,2.87-1.44a21.81,21.81,0,0,0,1.81-1.28c.48.24.5.52.39.75a5.75,5.75,0,0,0,1.48,7.13c1,.94.7,2-.39,2.62-1.63,1-2,2.45-2,4.22,0,3,0,3-3,3.77-.83.21-1.66.4-2.49.6-1.17-.64-.87-1.73-.8-2.74.05-.68.52-1.28.4-2a6.72,6.72,0,0,0-.66-1c-1.86-1.84-1.9-3.76-.32-5.78a2,2,0,0,0,.27-.53c.2-.53.79-1.07.32-1.63s-1,.55-1.81.07A38.87,38.87,0,0,1,157.31,143Z"/><path class="ac" d="M172.74,161.21c1.74-.8,3.12-2.15,4.72-3.16.9-1.65,2.74-2.1,4.09-3.18.71-.57,1.54-1,2.26-1.55l3.17-2.38c1.3-.33,2.18-1.39,3.55-1.73-1.45,1.27-2.88,2.56-4.34,3.81-2.73,2.34-5.48,4.65-8.22,7a2.29,2.29,0,0,0-.88,1.26c-.86.86-2.1,1.39-2.36,2.77a4.1,4.1,0,0,0-1.84,1,15.21,15.21,0,0,1-10.2,5.07,39.54,39.54,0,0,0-5.4,1,3.8,3.8,0,0,0-2.55,1.32c-1.18.68-2,1.94-3.34,2.35a2.29,2.29,0,0,1-2.15-2.39c-.06-.71-.13-.75-.86-.72-1.39.07-2.48-.46-2.21-2.2,1.13-.61,2.5-.06,3.63-.72.29-1.07,1.26-1.19,2.09-1.53,3.08.32,5.72-1.18,8.43-2.23,3.7-1.43,7.52-2.49,11.21-3.94A2.88,2.88,0,0,1,172.74,161.21Z"/><path class="as" d="M146.18,169.48c1,1.19,2.08,1.71,3.55.75a1.57,1.57,0,0,1,1.68,0c.46.28.75.86.16,1-2.82.87-.82,2-.2,3,1.23.84,2,2.15,3.2,3.07a1.29,1.29,0,0,1,0,2.07,3.12,3.12,0,0,1-3.54-.79,6.77,6.77,0,0,1-.78,0c-1.85-.26-3.45-.19-3.19,2.38-.06,0-.16.09-.17.07-1.62-1.6-3.7-2.13-5.84-2.55-.5-.09-.55-.68-.7-1.1,0-.25,0-.5-.05-.75.69-2.37.77-4.56-2.13-6,1.74-.35,2.8,1.14,4.14.45.92-.51,1.6-.35,1.94.71.27.87.77,1.43,1.73,1.26-1.71-.35-2.18-1.21-1.7-3.16-.13-.52-.25-1-.38-1.57l.41,0C144.89,168.72,145.38,169.36,146.18,169.48Z"/><path class="bb" d="M152.16,168.32l-2.35.44c-1.21-.19-.77-.82-.69-1.69.38-4.15,3.3-6.63,5.81-9.4.73,1.53.26,3.16.4,4.74.14.93.27,1.86.4,2.79a1.26,1.26,0,0,1-.86,1.93C153.91,167.43,153.12,168.08,152.16,168.32Z"/><path class="k" d="M295.75,149c3.7-4.6,3.59-9.09,0-14-2.19-2.92-4.61-5.7-6.32-9,.35-.39.91-.73,1-1.18.7-3.2,3.5-4.39,5.73-6.14,1.19-.93,2.43-1.8,3.61-2.74a5,5,0,0,1,3.51-1A27.38,27.38,0,0,1,314,117.32c1,.3,1.23,1.07,1.08,2s-.17,1.7-.39,2.54,0,1.54,1,1.77a2.35,2.35,0,0,1,1.69,1.76c.71,2,1.33,4.14,1.88,6.24a8.87,8.87,0,0,1-1.26,7.85c-2.1,3-3.15,6.67-5.53,9.55a1.33,1.33,0,0,0-.38.9c.19,2.08-.37,4.09-.47,6.15a18.19,18.19,0,0,0,.38,5.1c-1,1-1.37.23-1.5-.64-.24-1.67-.88-1.32-1.59-.34a23.55,23.55,0,0,1-3.61,3.79,23.91,23.91,0,0,0-5.94,1.58c-2.59-.92-4.69-2.74-7.11-4a3.48,3.48,0,0,1-.48-3c.69-2.91,1.11-5.94,3.18-8.32C295.24,149.86,295.45,149.38,295.75,149Z"/><path class="c" d="M311.57,156.09c-.63-2-.46-4.15-.74-6.22a1.47,1.47,0,0,1,.46-1.26c3.31-3.28,4.27-8,7-11.62.77-1,.56-2.43.26-3.65-.61-2.42-1.3-4.82-2-7.22-.36-1.27-1-2-2.44-1.24-.33.18-.7.5-1.06.14s-.14-.75,0-1.12a14.75,14.75,0,0,0,.93-6.58v-3.16c3.36.38,5.62,2.57,7.91,4.74v9.89a5.42,5.42,0,0,1,.57,2.83c.06,2.06-.19,4.16.55,6.17.27.73-.24,1.38-.33,2.08v1.58c.12,3-2,4.86-3.45,7.07-1.13,1.74-2.53,3.32-3.79,5a2,2,0,0,1-1.94,1.07C312.34,154.43,311.79,155.05,311.57,156.09Z"/><path class="k" d="M306,112.88c-.75,0-1.29,0-1.58-.54s0-1,.36-1.41a3,3,0,0,1,5.07.54c.4.69.1,1-.55,1A15.09,15.09,0,0,0,306,112.88Z"/><path class="bc" d="M81,162c4.07,1.74,3.53,5.88,4.74,9.11.46.69,0,1.27-.4,1.66-1.85,1.76-3.73,3.49-5.52,5.32-1.51,1.54-3.66,1.76-5.65,2.21A59.94,59.94,0,0,1,65,181.87c-2.11-.78-2.13-1-.27-3.84.23-.12-.19-.27,0-.05,0,0,0,.06-.14.13a4.52,4.52,0,0,1-.7.34c-.48.19-.84.66-1.43.57a5.23,5.23,0,0,1-2.36-6c.22-1,.94-1.91.78-3-.07-.93.57-1.4,1.2-1.88,3-2.27,6-4.47,8.93-6.72a4.25,4.25,0,0,1,2.9-1c1.84,0,3.66.21,5.48.29C80.13,160.78,81,160.87,81,162Z"/><path class="b" d="M69.09,195.64c-1.51-1.33-2.17-3.29-3.55-4.72-.49-1.12-1.6-1.67-2.34-2.56-.45-.53-1.12-1-.83-1.81h0c2-.47,3.86-1.3,5.93-1.19,5.77-2.54,11.45-5.27,17.56-7,3.24-.92,6.55-.77,9.87-1-1.86,1.57-4.14,2.15-6.34,2.91-2.76.95-2.92,1.61-.93,3.95a.57.57,0,0,1,.1.52c-4.22,2.73-7.69,6.4-11.66,9.45A7,7,0,0,0,75,196.42C73.13,195.57,71.2,194.91,69.09,195.64Z"/><path class="bd" d="M64.75,181l12.41-2.33a5.23,5.23,0,0,0,3.13-1.85c1.71-2,3.61-3.82,5.42-5.72,1.94-1.44,3.06-3.69,5.33-4.91l-3.35,5.71a6.35,6.35,0,0,1-5.15,4.34c-.49.42-1,.84-1.47,1.28A18.83,18.83,0,0,1,68.62,183c-1.16.05-2.33.24-3.49.37-.28-.63-.85-.74-1.44-.81s-1.11-.37-.93-1.15l.16-.23C63.49,180.64,64.18,181.52,64.75,181Z"/><path class="be" d="M91.25,148.57c1.07.16,2.59-.55,3.12.51.63,1.26-.76,2.21-1.49,3.16a16,16,0,0,0-2,3.15,10.9,10.9,0,0,1-3.22,4.18,3.22,3.22,0,0,0-1.55,2.81L84.92,162a1.57,1.57,0,0,0-.93-.2c-2.65-.3-2.84-.54-2.72-3.33.71-1.17,1.73-.88,2.78-.59,2.38.65,3.78-.11,4.49-2.45a13.59,13.59,0,0,1,1-2.77c.31-.55.47-1.41-.33-1.41-2.21,0-4.05-1.66-6.28-1.3-2.47.39-5,.27-7.44.52-.9.09-1.86.35-2.41-.73a3.16,3.16,0,0,1,2.6-1.54c2.86-.16,5.73-.3,8.6-.44a4.07,4.07,0,0,1,2.8.69c1.23.93,2.53,0,3.8.1A.23.23,0,0,1,91.25,148.57Z"/><path class="c" d="M81.75,158.46A3.59,3.59,0,0,0,84.92,162H81c-2.46-.77-5.06-.14-7.52-.79-.58-.6-1.52-1-1.35-2.06a2,2,0,0,1,.14-.64c.44-.63,1.17-1.05,1.43-1.82.67-2,2.15-2.62,4.11-2.45C79.32,155.44,81.29,156.24,81.75,158.46Z"/><path class="b" d="M86.09,196.07l-.36,0c-1.22.33-1.67-.44-1.56-1.37.15-1.23-.5-1.77-1.35-2.36-1.46-1-1.52-1.72-.33-3s3.13-2.12,4.41-3.55c.24-.28.75-.16,1.12,0,.94.6,1.59-.62,2.46-.41l.38,0c-.08,1.29,1.09,1.46,2,2-1.32,1.14-2.86,1.91-3.15,3.73-1.83-1.46-3-1-3.47,1.25A8.23,8.23,0,0,0,86.09,196.07Z"/><path class="bf" d="M82.54,176.26a53.25,53.25,0,0,1,5.15-4.34l.68.39c.75.44,2,.48,1.85,1.72s-1.28,1.61-2.34,1.74C86.11,176,84.42,177.28,82.54,176.26Z"/><path class="bg" d="M90.48,185.39c-.41,1.21-1,2.08-2.42,1.15-.65-.82-.17-1.41.41-2a2.38,2.38,0,0,0,0-.38,8.31,8.31,0,0,0,1.68-2.7C90.71,182.91,90.31,184.18,90.48,185.39Z"/><path class="y" d="M68.3,185.36a20.63,20.63,0,0,1-5.93,1.19C64.26,185.69,66.08,184.51,68.3,185.36Z"/><path class="ai" d="M88.47,184.57c-.13.65-.27,1.31-.41,2a12.26,12.26,0,0,0-5.13,3.56c-1.1,1.38.6,1.77,1.33,1.67,1.49-.2,1.28.43,1.12,1.4s-.82,2.05.35,2.88a5.67,5.67,0,0,0,.77,2.36c1,2.06.81,2.33-1.4,2.37l-1,0a4,4,0,0,0-1.76-2.41c-.65.65,1.06,1.88-.4,1.89s-3.25,1.48-4.44-.62c-.58-1-.83-2,.79-2.57a8.5,8.5,0,0,0-3.3-.63c-.83-1-.52-1.67.46-2.43,3.59-2.77,7.12-5.62,10.66-8.46A4,4,0,0,1,88.47,184.57Z"/><path class="bh" d="M263.47,124c3.52-.67,6.58-.12,10,.23C270,125.7,267,126,263.47,124Z"/><path class="ai" d="M72.66,159.26a3.64,3.64,0,0,1,.79,2c-4.29,2.45-8,5.64-11.87,8.69-1.63,2.63-4.19,4.59-5.38,7.55a.89.89,0,0,1-1.34.38,11.82,11.82,0,0,1-3.79-2.68c-1.89-1.68-3.82-2.39-6.17-.95a5.8,5.8,0,0,1-1.48.45c-1.76-3.36-1.76-3.35-5.6-2.76l-2.74.41a1.84,1.84,0,0,1-2-.09c-2.11-1.67-4.27-3.33-5.49-5.85.33-2,.64-3.9,1-5.84a2.91,2.91,0,0,1,1.39-2.07c1.6-1.26,2.59-1,3.56.79,1.49,3.25,1.48,3.21,5.1,2.67,3.8-.56,7.37-1.93,11-3a6.6,6.6,0,0,1,4.05-.07c1.35-1,2.76-.13,4.14-.1a32.36,32.36,0,0,0,5.74-.06c1.43-.05,2.85-.16,4.28-.33C69.51,158.15,71.22,158.05,72.66,159.26Z"/><path class="am" d="M54.86,177.84a20.29,20.29,0,0,0,1.28-2.2,11.49,11.49,0,0,1,5.44-5.73,8.59,8.59,0,0,1-.26,2.11c-1,2.55-.24,4.67,1.45,6.61.57,1.14-.34,1.67-1,2.23a11.6,11.6,0,0,1-1.79.92c-1.35.83-2.92.42-4.35.81A25.42,25.42,0,0,1,50,181c.19-.14.29-.26.36-.25,1.27.27,2.8,1.12,3.72.68S54.27,179,54.86,177.84Z"/><path class="v" d="M59.2,186.16,57.62,185,56.39,183C58.62,182.92,59.06,184.4,59.2,186.16Z"/><path class="b" d="M19.27,160.44c-.54-1.71-1.07-3.42-1.61-5.13.71-.32,1.51-.49,1.84.39,1.18,3.13,3.46,5.52,5.32,8.19a4.48,4.48,0,0,1,.37.9C22.81,163.9,20.35,163.11,19.27,160.44Z"/><path class="b" d="M27.56,166.37a25.64,25.64,0,0,1,5.47,5,2.3,2.3,0,0,0,2,.91c-1.38.6-2.92.39-4.35.79a20.7,20.7,0,0,0-3.15-5.16,3.06,3.06,0,0,1-.81-2Z"/><path class="ac" d="M144.24,169.92c.68,1.24.83,3,3,2.65.25,0,.47.3.38.57s-.33.52-.48.51c-1.26-.11-2.83.58-3.51-1.22a1.88,1.88,0,0,0-1.34-1.32A3.07,3.07,0,0,1,144.24,169.92Z"/><path class="j" d="M322.65,139.87c-1.63-3.6-1.46-7.32-.79-11.08,4.08,1.27,4.61,7,2.57,10.41C324,139.88,323.24,139.63,322.65,139.87Z"/><path class="bi" d="M229.68,134.71l6.51,1c-2.33-.07-4.76.49-6.86-1Z"/><path class="ay" d="M43.83,178a4.44,4.44,0,0,1-2.57-4.63A16.52,16.52,0,0,1,43.83,178Z"/><path class="bd" d="M60,181.78l2.78-3.15c.26-.26.52-.53.79-.79.64-.08.91.44.75.81-.42.95-.35,2.19-1.51,2.73l0,0Z"/><path class="az" d="M152.16,168.32l3.57-3.12c1.54-1,3.09-2,4.61-3a4.67,4.67,0,0,1,2.52-1c1.7.84,3.35.1,5-.25.87-.19,1.74-.55,2.63-.76,1.14-.28,1.75.11,1.47,1.38-4.75,1.82-9.52,3.6-14.25,5.49A27.66,27.66,0,0,1,152.16,168.32Z"/><path class="bj" d="M171.93,161.61c-.38-1.38-1.32-.87-2.18-.64-1.72.46-3.24,1.73-5.21,1.12-.62-.2-1.27-.27-1.68-.85a43.92,43.92,0,0,0,7.1-1.59l3.1-.31c-.57.66-1,1.24-.32,1.87Z"/><path class="be" d="M133.57,118.9,128,124.84a13.72,13.72,0,0,0,0,4.61,9.23,9.23,0,0,1-.75,5.28c-.12.51-.27,1-.35,1.54-.23,1.56-1.15,1.75-2.43,1.27s-1.78-1.28-1.23-2.62c.35-.87,1.44-1.42,1.07-3-2.53,2.15-5.59,3.08-8,5.2a20.29,20.29,0,0,1-1.84,1.49c-.49.33-.87,1.28-1.6.7-.57-.45-.23-1.24-.08-1.87a23.83,23.83,0,0,1,.76-2.66,2.57,2.57,0,0,0-.44-2.94,2.7,2.7,0,0,1-.48-3.09c1.13-3.23,2.12-6.51,3.29-9.73.81-2.25,2.08-4.14,4.75-4.48a3.12,3.12,0,0,0,2.35-1.91c.6-1.09,1.28-1.39,2-.11a3.19,3.19,0,0,0,2.58,1.59A7.6,7.6,0,0,1,130,115l2.38.79C134.37,115.93,134.63,116.61,133.57,118.9Z"/><path class="b" d="M33.5,159.25a7.72,7.72,0,0,0-3.56-.79c-2.57-1.23-5.46-1.5-8.06-2.63-.5-.22-1.39-.18-1.3-.94s.91-.61,1.47-.72a11,11,0,0,1,8.32,1.27c2.35,1.41,5.25,1.63,7.69,3,1.12.62,1.64-.18,2-1.18q1.56-4.59,3.19-9.14c.27-.78.36-1.69,1.18-2.16.54.19.54.63.48,1-.64,4.09-1.28,8.18-2,12.27-.23,1.37-1.25,1.5-2.43,1.31C38.15,160.14,35.9,159.27,33.5,159.25Z"/><path class="s" d="M60.39,151.73l11.08-2h0c.45,1-.32,1.47-1,1.87A120.75,120.75,0,0,1,59.79,158a1.5,1.5,0,0,1-1.32.05c-.92-.59-.68-1.42-.51-2.26.25-1.16,1-2.15,1.08-3.37C59.32,151.86,59.7,151.5,60.39,151.73Z"/><path class="b" d="M60.39,151.73l-.79.8A9.4,9.4,0,0,1,56,156.19c-.6.37-1.21.82-2,.29-.41-.6-.16-1.09.22-1.6,2.21-2.92,4.38-5.87,6.59-8.79.37-.49.75-1.38,1.46-1s.25,1.3,0,1.93C61.72,148.6,61.05,150.16,60.39,151.73Z"/><path class="ai" d="M54.07,156.48a59.7,59.7,0,0,1,5.53-3.95c.15,1.77-1.15,3.33-.79,5.14a.5.5,0,0,1-.15.66,6.39,6.39,0,0,1-4.59-.27Z"/><path class="b" d="M133.57,118.9c0-1.21.08-2.44-1.18-3.16a10.25,10.25,0,0,1-.31-4.58c1.85.52,1.35,5.29,4.66,2.21-.14.92-.27,1.85-.4,2.78a3.22,3.22,0,0,0-1.58,2Z"/><path class="b" d="M54.07,158.06h4.74c2.55-1.23,5.12-.9,7.69-.1.56.66.42,1-.46,1.1s-1.69-.23-2.48.2c-2.4.85-4.78.25-7.17-.06l-2.72-.35Z"/><path class="b" d="M143.86,109.81c-1.1,2.2-2.26,2.9-4.62,2.72a4.19,4.19,0,0,0-2.11,0c.14-.44.32-.93.86-.92C140.16,111.68,141.89,110.37,143.86,109.81Z"/><path class="b" d="M16.07,149.35a2.48,2.48,0,0,1,1.21-1.57C17.66,148.9,18,150,16.07,149.35Z"/><path class="as" d="M15,150.36c-1-3.14-.41-6.23.39-9.31C15.87,144.18,14.67,147.24,15,150.36Z"/><path class="a" d="M226.91,147.38c.81-3.15,2.78-5.37,6.07-7.31-1.09,1.47-1.85,2.48-2.6,3.48l.25.29,8.55-7.14a77.17,77.17,0,0,1,12.67,2.77,115,115,0,0,1-13.11,12.14c-1.56,1.21-1.88,0-2.27-1.12-.19-.5.12-1.38-.71-1.39-.67,0-.84.79-1,1.31-.49,1.42-1.62,2.55-1.87,4.08-.76.56-1.37.14-1.87-.39a7,7,0,0,0-3.89-2,2,2,0,0,1-.39-.53C226.65,150.16,226.18,148.74,226.91,147.38Z"/><path class="x" d="M227.3,151.77c2.61-.65,3.89,1.44,5.56,2.72.73.74,1.24,1.48.53,2.55-.26.4-.83,1.18.52.77.45-.14.05.44-.07.64-.57.93-1.18,1.85-1.77,2.77L227,168c0-.15,0-.3,0-.46a3.9,3.9,0,0,1,.7-3.93,2.71,2.71,0,0,1-2.44.41c-.81-.08-.92-.7-1.18-1.32a28.89,28.89,0,0,0-1.27-3.28c-1.29-2.36-.39-4.43.8-6.47a1.37,1.37,0,0,1,1.82-.71A1.78,1.78,0,0,0,227.3,151.77Z"/><path class="d" d="M295.75,149c-.87,2.89-2.2,5.62-2.81,8.59a17,17,0,0,0-.74,4.06c-1.7-1.36-2-3.46-2.64-5.33-.22-.59.25-1.1.61-1.58A38.34,38.34,0,0,1,295.75,149Z"/><path class="as" d="M286.65,181h-.19c-.74-.08-1.58.24-2.12-.53-.06-.08.09-.42.19-.45a2,2,0,0,1,2.12,1Z"/><path class="bk" d="M151,178.64a10.78,10.78,0,0,1,3.53.37,2,2,0,0,1,2.09-.71c1.48.24,2.95.57,4.51.68-2.61-1.06-3.94-3.52-5.91-5.29a2.35,2.35,0,0,1-1.08-1.78,4.21,4.21,0,0,1,3-1.79,30,30,0,0,1,4.65-.89,17.69,17.69,0,0,0,10.72-4.41c.65-.56,1.3-1.17,2.28-.81,2.4,2.67,1.23,5.49.39,8.31-.52-.44.06-1.14-.4-1.59a9.12,9.12,0,0,0-.25-4.86c-.09-.35-.07-.89-.57-.9-.24,0-.55.32-.73.57a12.61,12.61,0,0,1-4.72,3.78c-1.91,1-4.15,5.85-3.75,8a17.3,17.3,0,0,0,.79,3.45c1.93,4.77.73,9.14-1.32,13.69.56-.54,1.1-1.1,1.68-1.61a6.44,6.44,0,0,1,2.37-1.83c-1.8,2.08-3.07,4-5,5.42-1.87,1-3,2.87-4.77,4l-1.16.77c-.12-1.72-.2-3.42,1-4.86.34-.4.67-1,.22-1.41s-1.07,0-1.52.35c-.79.58-1.56,1.2-2.32,1.82a2.19,2.19,0,0,1-3,.12A2.42,2.42,0,0,1,151,194a8.62,8.62,0,0,1,2.33-3.12c.79-.76,1.45-.1,2.11.23a9.18,9.18,0,0,0,1.57.78c.33.09.68.09.86-.25s0-.75-.35-1a1.3,1.3,0,0,0-1.11-.27c-1.45.39-2.82-.2-4.22-.31-2.16-2.91-1.88-6.21-1.49-9.52C150.79,179.93,150.89,179.29,151,178.64Z"/><path class="g" d="M201.23,140.28a42.06,42.06,0,0,0,5-5.82,2.67,2.67,0,0,1,2.88-1.14c5.7,1.07,11.49,1.24,17.24,1.81.71.07,1.59-.15,2,.56s-.42,1.28-.79,1.85c-1.21,1.87-3.05,3.3-3.76,5.51a.53.53,0,0,1-.05.76c-1,1.73-.87,3.69-1.17,5.56a1.92,1.92,0,0,0-.35-.18c-3.11-.87-3.21-.9-2.28-4,.42-1.42,0-1.74-1.27-1.74-1,0-2-.18-2.93-.27-.52,0-1.25-.28-1.53,0-1.8,1.62-3.49.39-5.27,0-1.55-.34-2.91.62-4.29,1.17-1.95.78-3.87,1.25-5.79-.05,0-.13,0-.27,0-.4A4.84,4.84,0,0,1,201.23,140.28Z"/><path class="s" d="M195.68,194.46c-.52,1.23-1.16,2-2.35.6-3.65-4.14-8.22-7.23-12.29-10.89,2.5-2.7,5-5.27,9.09-5.46a59.36,59.36,0,0,0,7-1c.88-.15,1.58-.13,1.73,1,.44,4.56-.8,8.88-1.93,13.2a3.74,3.74,0,0,1-1.23,1.84Z"/><path class="w" d="M188.16,153.71a4.9,4.9,0,0,1,2.36-1.59c2.46,1.58,5.38,2.09,8,3.38.87.44,1.61.87.51,1.82L184.51,169.7l-.53-.23Q186.07,161.58,188.16,153.71Z"/><path class="bl" d="M174.72,170.73a2.77,2.77,0,0,1,.39,1.59c-.11,4.87,1.67,9.32,3.16,13.83-.14.93.39,1.86,0,2.79-1.23,1-1.84.18-2.38-.83a4.06,4.06,0,0,0-.46-.36c-3.75-2.26-3.71-2.25-2.82-6.46C173.37,177.78,174,174.25,174.72,170.73Z"/><path class="af" d="M195.68,193.67q1.57-7.53,3.16-15c1.28,2.07,1.1,4.54,1.83,6.78,1.28,3.86,1.15,3.93-2.15,6.21C197.56,192.28,196.91,193.39,195.68,193.67Z"/><path class="bm" d="M227.3,151.77c0,.73.6,1.11.94,1.63-.2.32-.47.17-.71.16-1-.05-2.18-1.39-3.07-.21-1,1.34-2,3-1.56,4.74a12.34,12.34,0,0,0,2.44,5.51.51.51,0,0,1,0,.78c-.78.45-1.37.67-1.65-.59a37.24,37.24,0,0,0-1.28-4c-.23-.68-.49-1.37-1.42-1.3,0-.26,0-.52.07-.77-.33-2.24-.44-4.44,1.15-6.33l.36-.8a8.24,8.24,0,0,0,2.58-2.8c.36-.54.73-1.21,1.44-.34a4.06,4.06,0,0,1,.1,2.53c-.16.8-.15,1.42.64,1.84Z"/><path class="ad" d="M222.18,151.34a51.81,51.81,0,0,0-1.15,6.33C219.76,153.84,219.87,153.25,222.18,151.34Z"/><path class="s" d="M175.9,188.11l2.38.83c3.79,2.1,8.09,3,12.41,5.31a7.05,7.05,0,0,1-3.29-.07c-3.47-.56-6.78-2.22-10.45-1.51-.56.11-1.23-.38-1.84-.59C173.72,190.43,175,189.3,175.9,188.11Z"/><path class="ag" d="M158.49,200.42a29.25,29.25,0,0,1,3.41-3.63c.37-.38.79-.67,1.36-.35C161.9,198.05,160.56,199.67,158.49,200.42Z"/><path class="q" d="M234.43,184.59c2-.74,3.52.37,5.15,1.14A13.27,13.27,0,0,1,234.43,184.59Z"/><path class="c" d="M225.31,164.38l0-.78,3.92-1.35a28.55,28.55,0,0,0-2.34,5.27C226,166.65,225.84,165.43,225.31,164.38Z"/><path class="be" d="M109.76,132.15c-.81,3-1.44,6.45-5.17,8-1.52.62-3,1.35-4.49,2-.54.24-1.12.57-1.67.15s-.44-1.08-.23-1.64c2.31-6.14,4.08-12.5,7-18.41.37-.74.7-1.69,1.81-1.47a2,2,0,0,1,1.53,1.87C109,125.71,109.33,128.78,109.76,132.15Z"/><path class="be" d="M81.75,158.46a11.44,11.44,0,0,1-4-3.56A10.07,10.07,0,0,1,73,152c-.64-.64-1.14-1.33-.34-2.21h.39c2.88-.24,5.75-.5,8.63-.72,1.77-.13,3.53-.28,5.17.74,1,.64,2.17.28,3.27.09,1.28-.21,2.06.09,1.27,1.55a25.79,25.79,0,0,0-2,4.87c-.84,2.8-2.75,3.53-5.5,2.63A20.8,20.8,0,0,0,81.75,158.46Z"/><path class="be" d="M72.66,149.76c1.06,2.36,3.53,3.32,5.14,5.14a2.83,2.83,0,0,0-3.17,2.34,1.93,1.93,0,0,1-2,1.61,41.89,41.89,0,0,1-5.93-.39l-7.92-.4v-.39c4.27-2.55,8.57-5.06,12.66-7.91Z"/><path class="b" d="M127.24,134.73a47.51,47.51,0,0,1,.79-9.89,7.73,7.73,0,0,0,0,1.18c.13.94-.51,2.21.53,2.72.83.41,1.68-.52,2.48-.93,1.12-.57,2.21-1.19,3.3-1.79-.37,4.08-2,7.82-3.2,11.67a1.52,1.52,0,0,1-1.13,1c-.42-2-.84-4-1.38-6.44-.29,1.16-.45,1.82-.62,2.49Z"/><path class="be" d="M101.54,149.36c-1.08-.27-2.16-.55-3.24-.79-.6-.14-1.21-.24-1.31-1a1.61,1.61,0,0,1,.73-1.53,4.31,4.31,0,0,1,1.39-.69c2.79-.74,5.59-1.45,8.38-2.14.49-.12,1.13-.41,1.42.17s-.32,1-.69,1.28c-1.69,1.45-3.41,2.87-5.11,4.29C102.6,149.2,102.18,149.73,101.54,149.36Z"/><path class="c" d="M91.25,148.57h-.4c-.67-.65-.63-1.23.13-1.79a25.69,25.69,0,0,1,4.84-2.61,1.13,1.13,0,0,1,.92,0c.41.25.26.71.08,1.06-.68,1.33-1.49,2.5-3.21,2.53A3.28,3.28,0,0,0,91.25,148.57Z"/><path class="bn" d="M101.54,149.36l1.57-.38c-1.47,1.84-3.79,2.75-5.14,4.71-1.26.38-2,1.46-2.85,2.29a3.4,3.4,0,0,1-2.3,1.3c1.7-2.92,4.71-4.39,7.17-6.47A5.94,5.94,0,0,0,101.54,149.36Z"/><path class="be" d="M116,140.36a15.29,15.29,0,0,1,5-3,.64.64,0,0,1,.87.18c.27.49,0,.88-.39,1.19C119.87,140.15,118,140.31,116,140.36Z"/><path class="c" d="M111.42,136.43c-.12,1.13.13,3.15-.88,3.06-1.23-.1-.56-2.11-.9-3.25A2,2,0,0,1,110,135c.26-.46.63-1,1.25-.72s.32.78.28,1.21S111.46,136.11,111.42,136.43Z"/><path class="bb" d="M122.89,177.84a8,8,0,0,1,12,3.64c.17.49.26,1,.44,1.51.23.66.27,1.57,1.13,1.7s1.15-.76,1.43-1.38c.57-1.27,1.2-1.37,2.17-.36a10.27,10.27,0,0,0,1.77,1.22c.39,0,.91-.1,1.09.24,1.28,2.4,3.32,4.58,2.47,7.68-.72,2.35-2.61,3.84-4.13,5.6-.4.46-1.12.28-1.7.15a23.13,23.13,0,0,1-4.19-1c-2.48-1.11-4.8-.73-7.26,0s-5,2-7.64,2.38a1.08,1.08,0,0,1-1.66-.42,1.5,1.5,0,0,1,.43-1.79,62.82,62.82,0,0,1,4.95-4.91c-3.28,1.09-7,2.56-11,3.53-2.07.52-3.21-.93-2.4-2.91,1.4-3.4,2.64-7,4.93-9.83A13.8,13.8,0,0,1,122.89,177.84Z"/><path class="p" d="M122.89,177.84a9.38,9.38,0,0,1-3.48,3.14c-3.22,1.74-4.25,4.86-5.71,7.75-.68,1.35-1.25,2.76-1.86,4.14-.21.48-.47,1-.11,1.5s1.06.45,1.62.27c2.13-.68,4.27-1.34,6.37-2.11,2.31-.85,4.84-1.09,6.93-2.64-1.6,2.9-4.06,5-6.22,7.26-.59.62-1.91,1.47.09,2a2.81,2.81,0,0,1-3.54-.3c-1.22-.89-2.9-1.16-4.41-1.61a4,4,0,0,1-2.74-2.29c-.89-2-2.65-3.65-2.11-6.15.16-.7-.39-.86-1-.94a1,1,0,0,1-1-1c0-.77.61-1,1.19-1.09,2.23-.5,4.5-.83,6.54-2s2.08-1.69.69-3.44c-.89-1.11-2.05-2.28-.35-3.67,1.83,0,3.66.05,5.49,0A4.72,4.72,0,0,1,122.89,177.84Z"/><path class="bf" d="M145.44,192.09a46.11,46.11,0,0,0-3.56-7.92c-.5-1.25-.95-2.53-1.5-3.76a3.31,3.31,0,0,1-.07-3,11,11,0,0,0,2.49.5c2.23,0,3.79.71,4.22,3.08.54,2.09,1.13,4.17,1.61,6.27.37,1.62,1.33,3.54-1.63,3.83-.42,0-.79.64-1.18,1Z"/><path class="bf" d="M137.28,212.23a21.26,21.26,0,0,1,5.28-3.46A5.33,5.33,0,0,1,137.28,212.23Z"/><path class="p" d="M102.47,193.22c.57.14.54.58.39.92-.32.75.08,2-1.12,2.14-.47.05-.56-.79-.53-1.3A1.9,1.9,0,0,1,102.47,193.22Z"/><path class="bm" d="M140.3,120.09c0,.13,0,.26,0,.38l-2.05,1.13c-.37.2-.76.42-.7-.32.36-.47.74-.93,1.08-1.41C139.33,118.82,139.85,119.19,140.3,120.09Z"/><path class="at" d="M201.23,140.28c-.8,1.18-1.59,2.36-2.38,3.55-.24.1-.51.35-.7.29-.4-.11-.13-.41,0-.6,1.36-2.13,2.72-4.26,4.22-6.3C202.44,138.44,201.42,139.2,201.23,140.28Z"/><path class="x" d="M227.3,151.77c-.61.2-1.28.6-1.82.09s0-1.18.28-1.72a6.63,6.63,0,0,0,.8-2.74l.35,0A15.8,15.8,0,0,1,227.3,151.77Z"/><path class="ay" d="M223.75,143.81c0-.25,0-.51.05-.76,1.52.1,1.35,1.46,1.52,2.33s-.73,1.34-1.73,1.73C223.65,145.85,223.7,144.83,223.75,143.81Z"/><path class="bj" d="M183.81,153.32c-1.84,2-4.17,3.23-6.35,4.73-.47-.5-.42-.91.2-1.25C179.73,155.68,181.61,154.21,183.81,153.32Z"/><path class="bb" d="M152.2,190.09a20,20,0,0,1,4.8-.75c.77-.08,1.69-.11,2,.78a4,4,0,0,1,0,3.24c-.41.81-1.13.39-1.69,0-1.33-.82-2.65-1.66-4-2.49Z"/><path class="bo" d="M154.61,199.88q-1.38,2.73-2.77,5.44c-.21.39-.38,1-1,.84s-.51-.71-.6-1.15a1.93,1.93,0,0,1,.51-1.83c1.18-1.21,2.38-2.4,3.57-3.6Z"/><path class="ag" d="M154.13,171.91c1.72.57,2.69,2.07,3.83,3.29a9.49,9.49,0,0,0,4.68,3.06c.54.13,1.34.28,1.29,1s-.89.87-1.49,1.08-1.16-.1-1.73-.21c-2.06-.38-4.13-.73-6.19-1.1a2,2,0,0,0-1.31-1.54,2.7,2.7,0,0,1-1.84-3.18A5.67,5.67,0,0,1,154.13,171.91Z"/><path class="am" d="M62.8,181.38c.61-1.1,1.32-2.18.76-3.54a3.36,3.36,0,0,1,3.16-1.46,8.34,8.34,0,0,1-1.9,2.79c-.51.58-1.22,1.19-.07,1.85A3.23,3.23,0,0,1,62.8,181.38Z"/><path class="bp" d="M66.73,158.46a24.1,24.1,0,0,1,5.93.39v.41c-3-.7-6.07.14-9.1,0C64.46,158.39,65.8,159.23,66.73,158.46Z"/><path class="bq" d="M306.88,170.33a29.21,29.21,0,0,1-11.81,7.75,33.65,33.65,0,0,1-10.78,1.75c-10.39.1-12.85-3.91-22.57-5.2-8.26-1.1-14.88.68-21.1,2.35-9.37,2.53-9.35,4.62-20.42,9.08-8.43,3.41-21.46,8.5-36.73,6.5a53.2,53.2,0,0,1-10.34-2.43"/><path class="br" d="M153.46,20c-.12-1.7,3.67-4.63,5.25-7.34,2.23-3.83,6.19-5.37,12.73-7.81a68.71,68.71,0,0,1,11.9-3.27C191.68,0,195.85-.75,200.24,1c4.56,1.84,7.08,5.33,9,8,1.81,2.5,4.55,6.3,4.82,11.27.41,7.81-5.81,9.26-7.38,19.9-.79,5.34.46,7.11-1.53,9.47C203,52.25,199.9,52,190.71,53.07c-14.05,1.61-16.76,3.29-19.05,1.17-2.88-2.65.56-6.05-2.37-13.35a24.52,24.52,0,0,0-8.7-10.65,26.36,26.36,0,0,0-8.2-3.8"/><path class="br" d="M201,84.28c.76-4.58,1.41-8.59,1.94-11.89,2.18-13.66,2.56-17,.58-18.73-.85-.76-1.36-.47-10.3.45-6,.61-11.81,2.37-17.8,2.47a4.44,4.44,0,0,0-3.22.88c-1.86,1.83-.11,5.54.59,10.39.67,4.55-.46,4.1-.88,13.61-.43,9.93.78,10.9-.29,16.1s-3,8.2-5,11.71c-7.41,13.26-13.8,30.27-11.7,31.6,1.29.82,5.19-4.66,12.58-11.12a94.81,94.81,0,0,1,24.76-15.55"/><path class="bs" d="M190.58,115.76c-5.19,1.59-8.43,5-10.65,7.2-8.2,8.06-9.64,6-15.8,13.14-2.55,3-1.27,2.11-6.63,9.28-6.85,9.16-9.4,11.15-8.75,14.1.23,1,1.16,5.76,8.54,11.64,5.65,4.5,10.82,6.49,12.67,6.71.77.09-.8-5.36,4.08-9.27,5.58-4.48,7.1-9.41,10.39-16,8.14-16.21,14.87-17.82,14.47-27,0-1-.44-8.57-4.43-10.08A5.81,5.81,0,0,0,190.58,115.76Z"/><path class="br" d="M145.05,161.66h0c-2.27.94-5.59,2.79-7.28,6.34-1,2.07-2.26,6.5,5.6,22.51,6.72,13.68,10.08,20.52,14.95,20.67,5.66.17,10.88-7.38,12.43-13.79,1.37-5.71.36-12.69-3.5-17.39-4.15-5.07-8.79-4-14.27-10.2a26.88,26.88,0,0,1-5-8.34"/><path class="bt" d="M139.55,55.7a34.57,34.57,0,0,1-1.83-4.27c-1.37-5.81,1.86-10.85,2.12-11.24,1.71-2.59,2.51-1.91,6.73-6.14s4-5.45,5.85-5.86c3.72-.82,7.74,3.63,10.54,6.73a26.55,26.55,0,0,1,5.27,8.2c.55,1.38.86,2.62,1.75,12,.53,5.49.79,8.31.88,11.41.18,6,.27,9-.58,10.83-3.25,6.86-14.53,9.53-17,6.73-1.1-1.25-.54-2.24-1.14-7.93-.32-3-1.51-3.1-2.76-4.73-2.05-2.68-2.31-3.6-5.13-6.19C143.45,64.49,143.27,64.06,139.55,55.7Z"/><path class="br" d="M154.18,86.85a4.12,4.12,0,0,1,2.69-.29c2.15.25,2.94-.44,4.39-1s5.53-.64,7.55-3.43c1.28-1.77,1.39-3.13,1.76-3.08.57.09.41,3.25.29,11.13-.08,5.88,0,6.3-.29,7.75-.49,2.72-1.36,4.91-3.51,9.22-2.53,5.06-4.27,7.94-5.71,10.54-5.45,9.85-7.64,17.63-8.38,17.4-.52-.17,1-3.8,0-9.21a11.49,11.49,0,0,1-.47-3.07c.2-3.38,2-4.62,1.18-6.31a5,5,0,0,0-1-1.88c-1.44-1.65-1.58-6.71-1.32-8.49.62-4.25,0-1,.15-8C151.61,94.3,151.71,87.59,154.18,86.85Z"/><path class="bs" d="M301.84,103.24c2.62-.43,4.59.91,9,3.51,7.51,4.44,6.78,3.51,8.12,4.61,6.75,5.57,7.71,14.77,8.12,18.66a37.2,37.2,0,0,1-1.68,15c-1.27,4.49-2.44,8.42-6.09,10.84a13.29,13.29,0,0,1-5,1.84c-4.92,1.08-6.73-.29-16.24-1.32-4.94-.53-6.39-.38-6.81-1.37-1-2.43,6.92-5.22,7.9-11.58.77-4.93-3-9.64-6.36-13.83-5.4-6.73-9.46-7.48-9.22-10.75.13-1.76,1.29-1.48,8.78-9.22a26,26,0,0,1,5.27-4.39C299.53,104.06,300.48,103.46,301.84,103.24Z"/><path class="bs" d="M275.94,113.78a7,7,0,0,1,4.61,2.19c1.14,1.4.82,2.56,1.42,4.4.73,2.21,2,2.87,5.82,6.36,4.34,3.93,6.51,5.9,7.4,7.87,1.2,2.66,1.29,5.25,1.37,8,.08,2.42.1,3.7-.65,5.17-1,1.88-2.61,2.92-4.61,4.17a15.39,15.39,0,0,1-3.95,2c-2.46.7-3.79-.07-9.44-1.54-5.81-1.51-7.63-1.52-11.63-3.29-2.14-1-3.22-1.44-3.95-2.42-1.93-2.55-1-6.15.22-11,1.77-6.81,3.32-7.08,3.82-12,.33-3.28-.24-4.21.79-6C268.8,114.91,272.6,113.36,275.94,113.78Z"/><path class="br" d="M261.89,118.17a69.38,69.38,0,0,0-7.25.88c-4.14.71-6.26,1.1-8.56,2.41a15.46,15.46,0,0,0-5.27,4.83c-1.77,2.67-.91,3.37-2.19,15.15-.27,2.45-.54,4.61.66,5.48.86.63,1.91.16,3.75-.18,3-.56,5.31-.23,9.86.4,5,.7,6.23,1.8,7.24.88,1.25-1.14-.33-3.16-.22-7.46.07-2.72.71-2.22,3.23-11.29.78-2.81,1.34-5.05,1.82-7.59.31-1.63.52-3,.66-4"/><path class="br" d="M225.67,132.44a21.78,21.78,0,0,0-6.81,6.14c-.68,1-4,5.65-2.63,7.47.5.65,1.27.49,5.27.43,3.22,0,7.73,0,9,0,4.41.05,5.06.24,5.92-.43,1.58-1.23,1.65-3.58,1.7-7.19.07-5.1-1-6.66-.16-9.72a11.65,11.65,0,0,1,2.85-4.83"/><path class="br" d="M201,123.17a17.71,17.71,0,0,1-1,8.17c-1,2.75-2.38,4-4.56,6.83-3.12,4-8.08,11.32-7,12.42.88.88,4.23-3.71,10.91-5,7.09-1.35,10.75,2.42,14.26-.22,2.45-1.84,1.13-4,4.18-7.91,3.38-4.32,7.77-5.15,7.46-6.14-.44-1.42-9.68-.77-11.2-.66-1.68.12-3.29.3-4.83-.66-1.11-.7-1.42-1.53-3.07-3.29a26.9,26.9,0,0,0-2.85-2.64"/><path class="bu" d="M222.54,150.54c-3.71,3.53-.3,12.15.49,14.16a25.27,25.27,0,0,0,6.35,9.12c3.08,3.07,4.66,3.34,5.29,3.4,2.31.21,3.39-1.23,6.24-2.55,2.2-1,2.32-.51,11.54-1.62,6.9-.84,8.36-1.3,11.41-.66a41.59,41.59,0,0,1,4.83,1.53c4.7,1.66,5.26,2.32,8.34,3.3a27.81,27.81,0,0,0,8.13,1.53,24.31,24.31,0,0,0,8.67-1.33c1.84-.67,3.81-1.95,7.75-4.52a50,50,0,0,0,5.75-4c2.5-2.17,6.66-6.49,5.7-8.07-.24-.4-.7-.42-4.17-.59-3.73-.19-5.26-.27-6.14-.34a51.93,51.93,0,0,1-6.59-1.09c-4.27-.86-5.65-1.25-9-2-6.49-1.4-6.26-1-11.41-2.19-3.42-.79-3.12-.87-9.44-2.42-5.11-1.25-6.72-1.54-8.12-1.75a76.83,76.83,0,0,0-7.69-.66c-10.19-.59-8.95-.08-13.32-.54-4.05-.43-6.25-1-10-.34C224.88,149.3,223.62,149.52,222.54,150.54Z"/><path class="bv" d="M184.18,157h0a19.31,19.31,0,0,1,4.08-3.56c2.05-1.31,4-2,13.48-3.68,3.86-.69,6.22-1.06,9.22-1.32,7.57-.65,8.62.3,9,.88.91,1.37-.68,2.57-.88,6.58a20.32,20.32,0,0,0,1.54,8.13,21.23,21.23,0,0,0,3.29,6.58c4.09,5.22,9.53,5.33,9.44,7.46,0,.76-.74,1.48-6.37,4-4.85,2.13-8.66,3.51-9.87,3.95-10.45,3.78-9.93,3.87-12.3,4.39a52.46,52.46,0,0,1-11.19,1.09,80.67,80.67,0,0,1-10.76-.65c-6.56-.66-7.46-1.19-8.12-1.76-3.12-2.71-2.59-7.93-2.41-9.66.11-1.08.46-3.52,3.73-9.44a79.7,79.7,0,0,1,6.8-10.31"/><path class="bw" d="M236.64,181.61a12.68,12.68,0,0,1,1.44.57,14.31,14.31,0,0,1,4.8,3.68c1.27,1.54,1.77,3,2.76,6.06,1.62,4.9,1,5.82,2.2,6.59,1.81,1.19,3.76-.67,8.34.44a12.33,12.33,0,0,1,2,.63c2.12.88,2.74,1.85,5,3.1a8.48,8.48,0,0,0,2.42,1.1c2.57.33,3.63-2.49,7.68-5.05,3.77-2.38,4.7-1.11,8.34-3.73,2.75-2,2.58-3,4.83-3.95s3.17-.2,7.47-.88c3.14-.5,5.28-.84,7.24-2.42.94-.75.69-.87,3.95-6.14,2.1-3.4,2.86-4.41,2.42-5.49a2.92,2.92,0,0,0-3.08-1.54c-1.26.3-1.44,1.69-2.63,3.08-.68.79-1.65,1.53-6.37,2.85s-6.87,1.92-9.14,2c-1.26,0-2-.07-10-2-6.41-1.53-9.61-2.29-10.09-2.42a54.22,54.22,0,0,0-7.91-1.75,28.4,28.4,0,0,0-6.14-.22,26,26,0,0,0-7,1.54"/><path class="bx" d="M93,170a14.12,14.12,0,0,0,7.61,4.69c1.15.22,4.5.69,15.22-4.4,7.67-3.64,10.43-6,13.73-4.72.46.18,1.82.78,3.77,3.55,3.52,5,3.64,9.61,4.6,14.22A51.86,51.86,0,0,0,148,204.22c4.55,5.53,8.3,7.14,7.69,10-.77,3.7-7.86,5.22-9.15,5.5-2,.42-3.18.37-10.59-.14-10.71-.74-11.43-.85-12.33-1a52.58,52.58,0,0,1-11.91-3.83c-10.37-4.46-11.65-8-17.42-7.91-4.6.07-5.17,2.35-9.21,1.77s-5.72-3.15-11.13-8.2c-10-9.36-13.94-9.64-13.92-13.15,0-4.3,5.94-7.5,11.58-10.56A60.2,60.2,0,0,1,93,170Z"/><path class="bq" d="M136,162.43a45.81,45.81,0,0,0,15.08-14c4.17-6.36,4.86-11.34,6.82-18.57,5.58-20.53,10.4-18.49,13.64-33.51.81-3.79.39-14.8-.46-36.83-.37-9.53-.74-15.12-4.58-21a32.62,32.62,0,0,0-13.64-11.38"/><path class="bq" d="M317.33,159.2a239.08,239.08,0,0,1-28.79-3.28c-16.29-2.85-19.2-5.09-33.39-7-1.76-.24-12.46-.6-33.86-1.32-12.27-.41-19.71-.58-28.39,3.06a44.2,44.2,0,0,0-8.2,4.53"/><path class="bs" d="M175.18,193.46c-1.58,1.16-.35,3.24-2,7.24-.43,1.08-.52.91-3.51,5.93-2.24,3.76-2.4,4.21-2.19,4.61,1,1.85,8.22-.08,11.19-.88,5.5-1.47,6.55-2.46,11.2-4a69.65,69.65,0,0,1,15.8-2.85c10.1-1,10.85.48,15.15-1.32,5.14-2.16,4.18-4.3,11-7.68,5-2.49,8.74-2.95,9.22-5.49a4.32,4.32,0,0,0-1.53-3.77c-1.3-1.13-2.61-.78-9.23-.62-3.81.09-3.9,0-4.82.22-3.08.77-4.24,2.49-6.81,4.17-1.93,1.27-4.21,1.87-8.78,3.07a75.77,75.77,0,0,1-14.76,2.4c-6.72.38-10.08.57-13.77-.42C178.6,193.39,176.61,192.4,175.18,193.46Z"/><text class="by" transform="translate(153.55 99.53)">2<tspan class="bz" x="15.01" y="0"> </tspan></text><text class="by" transform="translate(148.24 194.55)">1<tspan class="bz" x="15.01" y="0"> </tspan></text><text class="by" transform="translate(147.07 54.02)">3<tspan class="bz" x="15.01" y="0"> </tspan></text><text class="by" transform="translate(179.73 28.64)">3<tspan class="bz" x="11.68" y="0"> </tspan></text><text class="by" transform="translate(181.22 69.27)">2<tspan class="bz" x="15.01" y="0"> </tspan></text><text class="by" transform="translate(170.54 146.98)">1<tspan class="bz" x="11.68" y="0"> </tspan></text><text class="by" transform="translate(249.31 164.73)">2<tspan class="bz" x="14.93" y="0"> </tspan></text><text class="by" transform="translate(193.08 181)">1<tspan class="bz" x="14.93" y="0"> </tspan></text><text class="by" transform="translate(194.55 202.36)">1<tspan class="bz" x="11.6" y="0"> </tspan></text><text class="by" transform="translate(260.86 194.16)">2<tspan class="bz" x="11.6" y="0"> </tspan></text><text class="by" transform="translate(225.61 140.07)">2<tspan class="bz" x="11.12" y="0"> </tspan></text><text class="by" transform="translate(201.33 140.67)">1<tspan class="bz" x="11.12" y="0"> </tspan></text><text class="by" transform="translate(272.11 137.28)">4<tspan class="bz" x="11.12" y="0"> </tspan></text><text class="by" transform="translate(244.74 138.89)">3<tspan class="bz" x="11.12" y="0"> </tspan></text><text class="by" transform="translate(296.27 127.56)">5<tspan class="bz" x="11.12" y="0"> </tspan></text><text class="by" transform="translate(103.7 196.22)">ped</text><text class="ca" transform="translate(58.44 129.78)">calyx</text></svg>