<svg xmlns="http://www.w3.org/2000/svg" viewBox="0 0 96.04 100.01"><defs><style>.a{fill:#e3e3e3;}.b{fill:#efefef;}.c{fill:#e5e5e5;}.d{fill:#ddd;}.e{fill:#c9c9c9;}.f{fill:#cecece;}.g{fill:#c8c8c8;}.h{fill:#eaeaea;}.i{fill:#c3c3c3;}.j{fill:#c7c7c7;}.k{fill:#c6c6c6;}.l{fill:#f0f0f0;}.m{fill:#f3f3f3;}.n{fill:#f7f7f7;}.o{fill:#fdfdfd;}.p{fill:#d6d6d6;}.q{fill:#d1d1d1;}.r{fill:#e0e0e0;}</style></defs><title>Asset 19</title><path class="a" d="M64.15,90.78c-2.6,3.81-5.7,7.1-10.09,8.84a7.63,7.63,0,0,1-5-.06,11.91,11.91,0,0,0-4-.75c-.6-1.37,0-2.09,1.29-2.5,1.69-.54,3.21.46,4.83.57.33,0-.05.05.21-.08s-.22-.14-.28-.3a1.48,1.48,0,0,1,.35-2.32c1.58-.84,1.78-2.17,1.82-3.68.28-.51.69-.94,1-1.45a7.54,7.54,0,0,0,5-3.79c.47-.88.86-1.82.11-2.69-.9-1-.55-2.08-.28-3.17a3.8,3.8,0,0,1,2.59-1.82c.87-.29,1.58-.67,1.71-1.68s.66-1.89.33-3c-.54-1.86.51-3.19,2.47-3.32a8,8,0,0,0,3.55-.94c.81-.47,1.57-.95,1.47-2,0-1.77-1.12-3.15-1.72-4.71-.87-2.27-.72-2.68,1.56-3.54,4.24-2.23,4.24-2.23,7,1.63a8.28,8.28,0,0,0,1.1,1.26c-1-.79-1.47-2-2.27-2.95-.64-.76-1.23-1.54-.63-2.57a3,3,0,0,1,2.61-1.47,11.61,11.61,0,0,1,1.44.1c1.06,0,1.53-.45,1.18-1.5-.49-1.43-.81-3-2.25-3.85a4.91,4.91,0,0,0-.79-.64c-3.07-2.76-3-2.71-1-6.52a13.83,13.83,0,0,1,3.54-5c1.19-.94.84-2.14-.12-3.12S78.7,32,77.72,31c-1-3.66.42-5.47,3.94-5.14,1.81.17,3.7-.32,5.14.62-3.32-.78-4.91-3.85-6.74-6.53-1.28-1.86-3.53-2.7-4.5-4.84-.27-.61-1.3-.63-2-.42a7.33,7.33,0,0,1-5.84-1,4.89,4.89,0,0,0-.45-.46c.1.11.22.2.32.32,2.31.84,4,2.1,3.86,4.93,0,1.1,1,1.49,2,1.7,4.42,1,4.63,1.48,2.23,5.38-.17.27-.28.58-.44.86-.34.6-1,.77-1.5,1.16-3,2.42-3.2,2.41-5.43-.69a4.33,4.33,0,0,0-.71-.64c-1.43-2.74-3.55-3.51-6.56-2.72-1.42.36-3.63,1-4.29-.81s1.7-2.19,2.79-3.14a1.67,1.67,0,0,0,.58-.69c0-1.67-1.46-.95-2.19-1.14-2.54-.65-2.91-1.24-1.47-3.32a1.75,1.75,0,0,0,.19-2.2c-1-1.41-2.14-3-4-2.65-6.94,1.15-14.15.77-20.77,3.67a5.69,5.69,0,0,1-3.29.48c-2.84-.47-3.16-.25-4.11,2.36-.14.36-.43.67-.58,1.05-.76.93-.39,2.22-1,3.2-.36.85.1,1.78-.22,2.63-.64,2.35-2.81,3.29-4.41,4.75-.8.73-1.58,1.35-.58,2.45a4.29,4.29,0,0,0,2.08,2.49c1.9,1.29,1.74,2.87-.36,3.78-1.26.55-2.55,1.53-4.07.61a15.42,15.42,0,0,1-2.7-5.53C12,28.63,10,26.14,9.72,23c-.22-2.17-.14-2.74,2.07-3.13a3.1,3.1,0,0,0,2.65-2.44c.66-2.49,2.34-4.37,3.69-6.45C19,9.63,20.4,9.51,21.77,9.63a9.51,9.51,0,0,0,4.84-1.12c3.95-1.79,8.26-2.54,12.33-4a16.22,16.22,0,0,1,9-1,5,5,0,0,0,2.75-.76,3.38,3.38,0,0,1,1.86.14c2.68,1.11,5.2,0,7.76-.61,9.29-.26,17.31,4.24,25.2,7.92A18.15,18.15,0,0,1,96,26.29a5.63,5.63,0,0,1-.39,1.87c-.78,2.36-1.6,4.71-2.4,7.06a7,7,0,0,0-1.09,5c0,.38.15.93.8.85,1.08,3.72,3.17,7.44.06,11.18a.78.78,0,0,1-.43-.51c-.06-.21,0-.43,0-.09,0,.64-.66,1.88.46,2.93A7.58,7.58,0,0,1,91.38,60c-.89.48-1.33-.12-1.73-.74-.93-1.4-1.48-.78-1.89.36-.63,1.75-.35,3.64-.93,5.65a5.39,5.39,0,0,0,2.45-2.91c.43-.82.76-1.88,2.08-1.41-.4,4.87-2.86,9.11-4.26,13.67a3.87,3.87,0,0,1-2.3,2.6c-1.86.59-3.87,1-4.64,3.15-2.42,3.33-5.61,5.92-8.53,8.73-1.6,1.54-4.24,1.48-6.57,1.06a1,1,0,0,0-1.26-.24C63.41,90.24,64.23,90.39,64.15,90.78Z"/><path class="b" d="M59.76,79.77a3.71,3.71,0,0,0,.14,1.4c.5.87,2.32,1.06,1.55,2.56-1,1.87-1.64,4.06-3.88,5-.89.36-1.8.66-2.7,1-.53-1.48-1.9-1.9-3.15-2.35s-2.17-.78-2.6-2.12c-.3-1-.85-.76-1.62-.19-1.8,1.34-3.86.69-5.41.7.47.29.47.25,1.54.13,3.59-.39,6.78,1,10,2.33,1.19.49.74,1.59.35,2.51.61,1.14,1.82,2.19.62,3.63-.38.46-.31,2-1.55.4-.54-.69-1.19.84-1.74,1.42-1.13,1.57-2.71,1.42-4.32,1.14a2.11,2.11,0,0,0-1.86,1.53c-.94,1.61-1.83,1.55-2.77,0-.32-.54-.69-1.22-1.21-1.43C38,96,36.68,93.17,35.05,90.57,32.42,88.8,31,86,29.12,83.6c-.3-.38-.7-.83-.66-1.26.32-3.93-2.31-7.14-2.61-10.91a9.44,9.44,0,0,1-.1-2.49,1.41,1.41,0,0,1,1.94-.9c4,1.93,7.89,1,11.8-.19,3.26.56,6.31,1.52,8.68,4,.49.52,1.14.87,1.24,1.66.39,1.23-1.22,1.6-1.14,2.71a5.43,5.43,0,0,0,2.79,5.43,1.66,1.66,0,0,0,1.94-.5c1.33-1.28,3.11-1.53,4.75-2.09A1.43,1.43,0,0,1,59.76,79.77Z"/><path class="a" d="M51.13,3.61a2.37,2.37,0,0,1-2.85,1.22c-4.13-1.31-7.92.46-11.59,1.72-3.93,1.34-8.24,1.67-11.77,4.16a2.69,2.69,0,0,1-1.4.29c-1.33.05-2.87-.83-3.95.31a16.54,16.54,0,0,0-3.67,5.62c-.3.83-.46,1.72-.83,2.52-.61,1.3-1.36,2.41-3.15,1.76-1.16-.42-1.36.07-1.12,1.22.89,4.13,2.79,7.84,4.59,11.6a8.74,8.74,0,0,1,.36,2.6,1.78,1.78,0,0,1-1.08,2.8c-1.62,0-1.48-1.63-2.2-2.52.42,3-1.59,7.21-3.63,7.77-1.18-2.29-1.5-4.52.12-6.81a2.63,2.63,0,0,0,.21-3.32C4.37,27.47,5.6,23.74,9.45,18c2.93-4.35,6.82-7.92,10.3-11.82a4.85,4.85,0,0,1,3.62-1.71c5.24,0,10-2.52,15.1-3C43.87.94,49.19-.76,54.71.39a15.45,15.45,0,0,1,4.59,1.4c0,1.13-.89.89-1.52,1.07A23,23,0,0,1,51.13,3.61Z"/><path class="c" d="M6.91,67c-1.69.07-3.38.14-5.07.24-1.52.08-2-.67-1.8-2.09a7.66,7.66,0,0,1,3.4-5.86,4.7,4.7,0,0,0,2.44-5C5.5,51.35,7.07,49,8.43,46.63,10,45.86,10,44,10.93,42.81c.62-.83,1-2,2.43-1.66A3,3,0,0,1,15,42.85a41.63,41.63,0,0,0,4.38,9.57,2.41,2.41,0,0,1-.13,2.7,17.05,17.05,0,0,1-4,4.43c-.79.5-1.32-.21-1.89-.41.49.35,1.23.51,1.47,1.26,0,.48,0,1,0,1.43.09,1.82-.69,2.38-2.53,2.1-1.25-.19-2.25-1.36-3.76-.85,2,.59,3.88,1.23,5.9.8A2.06,2.06,0,0,1,16.88,65c.72,1.31,1.84,2.48,1.64,4.16-1.92,2-2.86,2.26-4.72.49a9.5,9.5,0,0,0-3.93-2C8.83,67.69,8.11,66.26,6.91,67Z"/><path class="d" d="M9.79,66.92a6,6,0,0,1,3.59,1.27c1.48,1.13,3,1.69,4.74.79a1.86,1.86,0,0,1,1,0c2.35,1.07,4.51,2.47,6.88,3.5.47,1.43.79,2.9,1.2,4.34.25.89.48,1.76-.42,2.45-4.78-2.94-9.57-5.87-14.33-8.83a26.31,26.31,0,0,1-2.09-1.6C10.44,68.1,9.26,67.78,9.79,66.92Z"/><path class="e" d="M91.36,61c-1.16,2.79-2.66,5.31-5.51,6.73a1.79,1.79,0,0,1-1.81.25c2.35-2.48,1.8-5.65,2.43-8.56a2.69,2.69,0,0,1,.2-.7c.6-1.15,1.33-2.6,2.54-2.67s.9,1.64,1.37,2.52l.8,1.48C91.37,60.32,91.37,60.63,91.36,61Z"/><path class="f" d="M26.8,79.25a23,23,0,0,0-1.74-6.7c-1.39-.77-1.2-2.12-1.18-3.37s.32-2.55,1.66-2.45.73,1.5.79,2.39c.82,3.56.92,7.36,3.43,10.37.24.28.5,1,.4,1-2.23,1.87.1,2.91.79,4.14,1.18,2.09,3,3.73,4.1,5.91a8.64,8.64,0,0,1-5-4.17c-1.86-2-2.47-4.61-3.21-7.13Z"/><path class="g" d="M13.06,41.59A24.22,24.22,0,0,0,9.65,47c-.16.37-.31,1.06-.94.68-.23-.13-.2-.71-.28-1.09.13-.65.27-1.3.41-2,1.69-1.89,1.83-4.39,2.62-6.63.28-.79-.34-1.34-.68-2a1.28,1.28,0,0,1,.4-1.89c.71-.34.78.58,1.07,1,.85,1.23,2.11,2.24,2.16,3.92C15.13,40.57,14.43,41.26,13.06,41.59Z"/><path class="h" d="M51.13,3.61,59.3,1.79l1,.43c.25.73.5,1.45,1,2.84C59.4,3.19,58,2.78,56.67,4.66c-.24.33-.77.59-1.05.3C54.35,3.68,52.54,4.32,51.13,3.61Z"/><path class="i" d="M93,41l-.77,2.62c-.47-3.35-2-6.18,1.06-8.43A25.72,25.72,0,0,0,93,41Z"/><path class="i" d="M93,54.54c-1.1-.19-1.13.94-1.83,1.56-.8-2.83,2-4.93,1-7.59l.63,0c0,1.24.1,2.48.16,3.72Z"/><path class="h" d="M26.79,79.27A30.49,30.49,0,0,1,30,86.4C27.15,84.82,26.79,82.13,26.79,79.27Z"/><path class="j" d="M64.15,90.78l-3.77-.59c1.51-.54,2.68-1,3.87-1.39.42-.14,1-.51,1.23.08.13.33-.26.85-.42,1.28Z"/><path class="k" d="M9.79,66.92c.43.37.86.72,1.28,1.09.26.24.86.43.46.87-.16.18-.75,0-1.15-.06C9.23,68.21,8.07,67.61,6.91,67c-.18-.25-.53-.5-.53-.75,0-.46.43-.35.72-.25C8,66.3,8.89,66.62,9.79,66.92Z"/><path class="g" d="M80.16,80.37c-1.15-.91-.07-1.5.44-1.84,1.24-.82,2.56-1.65,4.2-1.31Z"/><path class="h" d="M48.86,74C46,71.8,43.33,69.22,39.43,69c-.83-1.33.12-2.27.84-3.13a21.38,21.38,0,0,0,1.55-1.74.91.91,0,0,1,.41-.24c3.08-.28,3.06-.27,1.94-3.44-.58-1.63-.86-3.22.42-4.77.88-1.06.51-2.6,1.19-3.84.45-.83-.56-1.13-1.23-1.41A6.19,6.19,0,0,1,40.71,47c1-3.24,2.7-4.38,5.7-3.56,2,.55,3.8-.27,5.66-.68a19.23,19.23,0,0,1,4.87,1.92,3.48,3.48,0,0,0,3.45,0c.71-.35,1.15-.75.68-1.69-1.31-2.63-.73-3.44,2.26-3.39a4.18,4.18,0,0,1,1.17.22c.62.46,1.49.66,1.81,1.43.51,1.26.93-.19,1.39,0A1.4,1.4,0,0,1,69,41.9c.87,1.1,1.81,1.57,3,.34s1.71-2.22.6-3.78c-3.2-4.46-4.06-4.41-6.43.51a1.6,1.6,0,0,1-.81.85,7.16,7.16,0,0,1-2.56-.37,1.49,1.49,0,0,1-.49-.54c-.44-1.57-.83-3.14.48-4.53.11-.11.24-.31.2-.43-1.39-3.89,2.64-5,3.87-7.53a1.33,1.33,0,0,1,1.78-.8c.23.32.46.65.71,1,1.66,2.13,2.35,2.15,4.06.11.36-.43.68-.89,1-1.33,2,1.47.54,3.33.53,5,0,.5-.67.89-.38,1.68a33.41,33.41,0,0,0,3.95-1.55,16.9,16.9,0,0,1,3.67,2.67c1.66,1.66,1.57,3.49-.43,4.77-1.51,1-2.64,2-2.55,4,0,1-1.25,1.19-1.6,2-.43,1-1.59,2.4.91,2.14,1.13-.12,1.07.69,1.22,1.37-.55,1.17-1.8.79-2.74,1.26a3.34,3.34,0,0,0,3.23-.79c2,1.87,2.54,4.51,3.43,6.91.41,1.1-1,1.13-1.89,1.05-1.53-.13-3.55-1.36-4.4.47-.77,1.66,1.38,2.6,2.32,3.81a31.65,31.65,0,0,1,2.26,3c-1.69-.36-3.4-.48-4.41-2.09-2.32-3.69-2.33-3.69-6-1.66-1.58-1-2.28-2.64-3.27-4.07a1.77,1.77,0,0,0-2.84-.57c-3.68,2.48-6.25,6-8.91,9.45-.5.66-.35,1.32.55,1.4a50.46,50.46,0,0,1,8.7,1.77c1.43.38,2.76-.7,4.1-1.24,1.1-.45,2.15-.83,3,.47-1.4,2.13-3,3.85-5.89,3.72-1.52-.07-2.27.94-2.15,2.51.1,1.26.17,2.53.25,3.8a1,1,0,0,1-1.3-.22C61.57,74,59,74,56.24,74.85a7.47,7.47,0,0,1-2.1.43C52.37,74.89,50.51,74.85,48.86,74Z"/><path class="b" d="M41.38,47.14c1.55,1,2.93,2.18,4.95,2.31a1.72,1.72,0,0,1,1,3.06c-1.49,1.45-.84,2.3.53,3.29-.88,1-2.86.39-3,2.13-.08,1.36.68,2.44,1.15,3.63s1.87,3,1,4c-1.07,1.14-2.78-.32-4.2-.7a5.51,5.51,0,0,1-.66-.29,2.41,2.41,0,0,1-2.84.67,6.79,6.79,0,0,0-4.59.4c-3,1.07-6,2.29-9.5,1a4.92,4.92,0,0,1-2.73-2.75c-.81-1.58-1.83-1.75-3.27-1.43-1.36-1.17-3.59-1.09-4.41-3,.33-1.61,1.76-2.44,2.63-3.68.7-1,1.62-2,.63-3.25-2.62-3.21-3.21-7.33-5-10.9a7.4,7.4,0,0,1,1.35-2.48c.45-.83.89-1.66,1.34-2.48,1-.35,1.95-.67,2.9-1.05.56-.22,1.36-.35,1.34-1.14s-.86-.87-1.44-.92c-2.33-.22-2.51-1.45-1.63-3.24-.07-.4-.19-.93.1-1.16,2-1.61,3.52-3.83,5.7-5.29a1.65,1.65,0,0,1,1.35,2.31c-.36,1.3-.36,2.67-.77,4-.08.79-.75,1.21-1.17,1.78a1.55,1.55,0,0,0,.05,2.2c2.36,2.25,2.75,5.38,3.77,8.22.34.94.63,1.73,1.89,1.86,2.53.25,2.7.67,1.47,3a1.34,1.34,0,0,0-.17.89c1.59.42,2.39-.72,3.16-1.75a40.27,40.27,0,0,1,6.64-7c1-.78,1.9-1.6,3.21-.66.89,1.29-.08,2.12-.81,2.92a32.65,32.65,0,0,0-5,8.18,5.34,5.34,0,0,0-.64,2c0,.92.05,2,1.05,2.19,1.32.29,1.16-1,1.37-1.77s.15-1.93.36-2.86C38.84,47.85,39.38,46.48,41.38,47.14Z"/><path class="h" d="M22.24,30.05a33.14,33.14,0,0,1,.73-3.7,1.85,1.85,0,0,0-.49-2.12c.65-.78-.43-.59-.53-.95l-.14-3.39c.86-1,1.69-.47,2.54,0a1.15,1.15,0,0,0,1.53-.11,1.34,1.34,0,0,0,.3-1.54c-.38-.82-.95-.18-1.43-.08-1.05.23-1.43-.37-1.62-1.24.4-.69.92-1.31,0-2.08-.71-.6-.68-1.59-.94-2.58a18.09,18.09,0,0,1,4.77.36c2.67.27,4.82-.78,7.2-1.52C37.9,9.94,41.84,9.66,45.72,9.2c2.14-.26,4.34-.06,6.41-.94A2.66,2.66,0,0,1,55,8.89a27.94,27.94,0,0,1,2.74,2.7c2,2.33,1.9,2.56-.73,4.05a3.14,3.14,0,0,0-.54.63,6.08,6.08,0,0,0,3.91.82c.7,0,1.53-.52,2,.29.54,1-.23,1.64-.88,2.25-1.45.37-2.69-.42-4-.7-4.45,1.3-9.06,2-13.5,3.28-3.84,1.11-7.78,1.9-11.52,3.32-1.25,1.82-3.06,1.27-5,1a2.66,2.66,0,0,0,2,.82c.79.08,1.43.33,1.64,1.14a1.41,1.41,0,0,1-.9,1.74,67,67,0,0,1-6.88,2.45,1.16,1.16,0,0,1-1.51-.84A2,2,0,0,1,22.24,30.05Z"/><path class="l" d="M58.05,17.85a11,11,0,0,1,3.47,1.78c-1.1,1.21-3,1.17-4.2,2.77a7.7,7.7,0,0,0,4.08-.06c4.36-.87,5-.6,7.16,3.28-1.24,1.71-1.18,4.52-4.19,4.73-.61,0-.55.76-.07,1.09,1.41,1,.64,1.9,0,2.83-.9,1.25-1.75,2.52-1.45,4.18-.28.29-.58.76-1,.66-2.28-.66-4.34.33-6.47.8-.56-.24-1.19-.23-1.74-.5-.94-1.73-2.26-2-4-1.19a9.07,9.07,0,0,1-4,.58,2.18,2.18,0,0,1-1.34-.44c-1.12-1.2-.14-2.24.28-3.3.63-1.54.64-2.7-1.43-2.89-.85-.07-1.6-.35-1.82-1.28a2,2,0,0,1,1.11-2.21c1-.67,2-1.39,3-2.07a5.75,5.75,0,0,1,8.21,1.26c.88,1.16,1.3.56,1.72-.21a2.74,2.74,0,0,0-.15-2.78c-1.24-2-.52-3.45.93-4.9A12.66,12.66,0,0,0,58.05,17.85Z"/><path class="m" d="M72.75,66.61c-4.59,2.62-9.32,1.69-14.07.55-.85-.2-1.76-.17-2.64-.3s-2,.56-2.37-.45c-.18-.49.56-1.44,1-2,3.26-4,6.22-8.23,10.61-11.15,2.48-1.64,2.44-1.69,3.75.94.86,1.72,2.09,3.27,2.39,5.24-1.44,0-1.46.6-1,1.84C71.13,63.08,72.78,64.49,72.75,66.61Z"/><path class="l" d="M78.46,30.52c-.69,2-2.81,2.49-4.06,3.91-.37.42-.93,0-1.15-.48-.47-1-1.5-2.31-.62-3.07,1.83-1.59,1.27-3.65,1.73-5.51a1.43,1.43,0,0,1,.12-.21c2.32-3.06,2.31-3-1.47-3.74a21.47,21.47,0,0,1-2.69-1c-1-.35-1.43-.64-.72-1.86C70.66,16.74,70.08,16,68,16c-1.2,0-1.31-.55-.48-2.47h0c2.6-.1,5.22.33,7.82-.26.27-.06.83.09.88.25.75,2.57,3.81,3.11,4.78,5.53s2.71,4,4.42,5.67c1.46,1.43.91-1.29,2.14-1,.64,1.83.48,3.82-.15,6.5-1-5.61-4.94-2.39-7.43-3.14C78.51,26.64,78.88,29.26,78.46,30.52Z"/><path class="n" d="M54.18,74.2c2-.52,4-1.48,6.13-1.08s4.08,1,4.65,3.52c1.79.5.72.92-.07,1.21-1.72.63-3.56.92-5.13,1.92-2.49.77-5.29.92-6.83,3.57-.51.88-1.33.85-2,.13-1.46-1.5-2.92-3-4.34-4.54s.42-2,.93-3C49.31,73.8,51.77,74.08,54.18,74.2Z"/><path class="n" d="M53.94,90.69c-.51-2.16-2-2.88-4-2.33a1.9,1.9,0,0,1-2.33-.58c-1.16-1.47-2.71-1.16-4.21-.82-.62.14-1.19,1.05-1.77,0s-2.29-1.76-1.83-3.44a1.48,1.48,0,0,1,1.82-1.19c1.59.33.89,1.6.94,2.53.73.3,1-.7,1.47-.55,2.43.83,3-.31,2.87-2.45,0-.63.64-.67,1.06-.25a6.56,6.56,0,0,1,1.55,1.84,6.93,6.93,0,0,0,5.19,4.13c1.91.48.33,1.41.13,2.15Z"/><path class="n" d="M23.13,16.94c1.67,1.14,1.94-.75,2.81-1.31.45-.29.72-1,1.36-.78s.28,1,.29,1.49c0,1,0,2.08,0,3.12s-.15,1.91-1.25,2.34a2,2,0,0,1-2.57-.62,3.22,3.22,0,0,0-2-1.29A7.79,7.79,0,0,1,23.13,16.94Z"/><path class="o" d="M80.17,47.89c.4,1.84-.1,2.81-2.18,2.33a1.8,1.8,0,0,0-.95,0c-.9.31-2,.91-2.5-.28s.2-2.31.67-3.4c.14-.32.57-.53.77-.22.93,1.48,2.53.51,3.7,1.09Z"/><path class="a" d="M22,23.28c.76,0,1.06.24.53.95a18.3,18.3,0,0,1-5.56,6.05c-1.55.27-1.42-.53-.92-1.5.66-1.26,2-1.8,3-2.71S21.26,24.52,22,23.28Z"/><path class="l" d="M67.55,13.55A2,2,0,0,1,66,12.94c-.59-.69-1.61-1.23-1.24-2.37.14-.43.7-.4,1-.22,1,.5,2.15.84,2,2.3a4.29,4.29,0,0,1-.29.9Z"/><path class="k" d="M47,97.28a10,10,0,0,0,4.32-1.14,5,5,0,0,1,2.79.8A11.39,11.39,0,0,1,47,97.28Z"/><path class="b" d="M56,94.07c1.45-.88,2.55-.09,3.63-.22A4.22,4.22,0,0,1,56,94.07Z"/><path class="c" d="M19.26,61.67a16.9,16.9,0,0,0,1.84-.55c1.13-.48,1.47-.15,1.71,1.07.6,3,2.62,4.43,5.6,3.83,2.4-.49,5-.59,7-2.32a2.27,2.27,0,0,1,2.28-.23c1.47.41,3,.73,4.45,1.08-.5,1.74-1.84,3-2.72,4.47a19.38,19.38,0,0,1-10,1.29c-1.22-.11-1.62-2-3.1-1.19l-.87-1.74c-.8,1.84-.39,3.53-.4,5.17-2.73.19-4.56-1.5-6.44-3.1-.5-2,.21-3.9,1-5.75a1.22,1.22,0,0,1,1.46.07C20.57,63.05,18.87,63.26,19.26,61.67Z"/><path class="p" d="M54.18,74.2c-2.27.41-4.6.65-6.69,1.76-.36-.07-.88,0-1.06-.23s.22-.46.46-.61l2-1.17C50.65,73.72,52.45,73.29,54.18,74.2Z"/><path class="b" d="M19.85,64.05c-.34,1.88,1.78,1.22,2.41,2.52-2.26-.29-3.11,1.12-3.64,2.88l-.5-.47a9.92,9.92,0,0,1-1.25-1.76,3.74,3.74,0,0,0-4.68-2.33c-2.06.43-4-1.22-6.13-.19a.61.61,0,0,1-.88-.53.82.82,0,0,1,.6-.94c1.86-.36,3-1.77,4.12-3,.79.35.58,1.18,1,1.64a2.64,2.64,0,0,0,2.3,1.1c1.07-.19.36-1.2.57-1.81.09-.27.38-.48.58-.72A6.35,6.35,0,0,1,19.85,64.05Z"/><path class="q" d="M19.85,64.05a33.45,33.45,0,0,0-5.49-3.63c-.91-.81-2.29-1-3.12-2.51a9.18,9.18,0,0,1,3.57,1.51l4.45,2.25,3.92,3c-.05.11-.09.22-.13.33Z"/><path class="p" d="M53.66,38.84l1.91-.07c.4,2.25-.75,4.06-3.18,5a8.54,8.54,0,0,1-7.13.62c-2.31-.81-2.67,1.7-3.88,2.76-2.18,1.21-1.69,3.45-2,5.36-.23,1.38.1,3-1.79,3.53-.66.19-1.32.34-1.73-.33-.89-1.49-2.2-2.9-1.32-4.86,1.65-3.65,3.22-7.36,6.13-10.27A20,20,0,0,0,42,38.89c.33-1.35,1-1.92,2.37-1.13l1.43,0C48.56,37.25,51.28,36.87,53.66,38.84Z"/><path class="l" d="M65.27,39.34a6.32,6.32,0,0,1,.63-3.5c.53-1,1.06-2.24,2.31-2.19a4.59,4.59,0,0,1,4,1.88c.54.89,1.16,1.68,1.75,2.52,1,1.38,1.83,3-.35,4.18a2.45,2.45,0,0,0-.49.52c-2.89,3.36-3.47,3.24-5.28-1.12C66.91,40.92,65.11,41.2,65.27,39.34Z"/><path class="r" d="M52.39,43.76l3.18-5a6.85,6.85,0,0,1,7.25-.32c0,.17,0,.33,0,.49.51.45,1.75.13,1.48,1.41a5.39,5.39,0,0,0-3.11.93,2.83,2.83,0,0,0,.19.47c.74,1,3.07.6,2.42,2.59-.43,1.3-5.44,2.56-6.78,1.89C55.47,45.44,53.94,44.58,52.39,43.76Z"/><path class="e" d="M64.32,40.35l-1.48-1.41,2.43.4c.94.65,2.42.71,2.52,2.29-.57.74-.23,1.71-.62,2.63Z"/><path class="a" d="M67.41,32.58c-.58,0-1-.14-1-.58-.11-.79.46-1.13,1.11-1.3.41-.11.87,0,.88.51A1.5,1.5,0,0,1,67.41,32.58Z"/><path class="n" d="M44.39,37.76,42,38.89c-3.6,1.69-6.11,4.61-8.41,7.7-1.26,1.68-2.59,3-4.78,3.3-.83.1-1.66.26-2.09-.66a1.76,1.76,0,0,1,.67-2.13c.58-.53,1.17-1.05,1.8-1.6-.72-.69-1.16-.08-1.58.1-1.25.54-1.95.2-2.34-1.11a48.06,48.06,0,0,0-3.88-10.33,3.1,3.1,0,0,1,.83-4.11L22.33,32a1.59,1.59,0,0,0,1.89.45c2.74-.91,5.38-2.1,8.17-2.85.36-.1.58-.54.71-.92a1.69,1.69,0,0,0-.39-.82c-.48-.8-1.83-1.26-1-2.56.55-.89,1.06-1.84,2.26-2,6-.7,11.57-3.09,17.48-4.1,2.21-.38,4.31-1.27,6.59-1.35.49,1.3-.32,2.16-1.12,2.95a2.59,2.59,0,0,0-.67,3.36c1.53,3.53.69,5.29-2.83,7-.38.18-.75.36-1.11.08S52,30.36,52,29.87c.11-.74.8-2.14,0-2.08-1.74.13-2.73-2.34-4.58-1.11-.47.31-1,.59-1.42.91l-3.87,2.77c.58,1.07,1.36.67,2,.5,2.26-.63,2.47.67,2.3,2.36S45.27,36.33,44.39,37.76Z"/><path class="b" d="M31.72,25.28c.38.95,1.51,1.06,2,1.85-.32,1.09.59,1.63,1.06,2.37a109.13,109.13,0,0,1-10.66,3.83c-1.34.47-1.78-.13-1.82-1.35a22,22,0,0,0,7.85-3.48,11.34,11.34,0,0,1-2.66.07c-.73-.14-1.94.71-2.16-.72-.11-.7-.9-1.54.12-2.16s1.89-1.33,3.08-.58A2.85,2.85,0,0,0,31.72,25.28Z"/><path class="r" d="M53.66,38.84c-2.63-.24-5.07-1.8-7.84-1.1,2.85-1.23,6-.13,8.81-1.4C55,37.69,53.87,38.05,53.66,38.84Z"/><path class="l" d="M52.79,23.2c0,.24,0,.36,0,.38-1.45.84-2.75,2.42-4.65,1-.49-.36-1.08-1.34-.64-1.61C49.26,21.9,51,22.83,52.79,23.2Z"/><path class="h" d="M34.81,29.5a4.9,4.9,0,0,1-.94,0c-.83-.15-2-.13-2-1.25s1.11-.92,1.86-1.09C34.36,27.8,36.93,27.6,34.81,29.5Z"/></svg>