<svg xmlns="http://www.w3.org/2000/svg" viewBox="0 0 180.78 121.54"><defs><style>.a{fill:#e2e2e2;}.b{fill:#ddd;}.c{fill:#e0e0e0;}.d{fill:#dcdcdc;}.e{fill:#d9d9d9;}.f{fill:#dadada;}.g{fill:#dedede;}.h{fill:#dfdfdf;}.i{fill:#d6d6d6;}.j{fill:#dbdbdb;}.k{fill:#e6e6e6;}.l{fill:#bfbfbf;}.m{fill:#e1e1e1;}.n{fill:#d8d8d8;}.o{fill:#bdbdbd;}.p{fill:#e4e4e4;}.q{fill:silver;}.r{fill:#cfcfcf;}.s{fill:#eee;}.t{fill:#d7d7d7;}.u{fill:#ededed;}.v{fill:#b7b7b7;}.w{fill:#efefef;}.x{fill:#c9c9c9;}.y{fill:#d4d4d4;}.z{fill:#d5d5d5;}.aa{fill:#9b9b9b;}.ab{fill:#b5b5b5;}.ac{fill:#b3b3b3;}.ad{fill:#c1c1c1;}.ae{fill:#999;}.af{fill:#eaeaea;}.ag{fill:#c2c2c2;}.ah{fill:#bebebe;}.ai{fill:#e3e3e3;}.aj{fill:#ebebeb;}.ak{fill:#e9e9e9;}.al{fill:#d1d1d1;}.am{fill:#c3c3c3;}.an{fill:#bcbcbc;}.ao{fill:#cbcbcb;}.ap{fill:#a5a5a5;}.aq{fill:#e7e7e7;}.ar{fill:#c5c5c5;}.as{fill:#ababab;}.at{fill:#a6a6a6;}.au{fill:#c6c6c6;}.av{fill:#acacac;}.aw{fill:#b9b9b9;}.ax{fill:#9d9d9d;}.ay{fill:#a7a7a7;}.az{fill:#d3d3d3;}.ba{fill:#9e9e9e;}.bb{fill:#e8e8e8;}.bc{fill:#d0d0d0;}.bd{fill:#aeaeae;}.be{fill:#e5e5e5;}.bf{fill:#c8c8c8;}.bg{fill:#afafaf;}.bh{fill:#a4a4a4;}.bi{fill:#aaa;}.bj{fill:#c7c7c7;}.bk{fill:#d2d2d2;}.bl{fill:#ccc;}.bm{fill:#adadad;}.bn{fill:#c4c4c4;}.bo{fill:#a8a8a8;}.bp{fill:#cecece;}</style></defs><title>Asset 17</title><path class="a" d="M84,74c-.13-1.83-.25-3.66-.39-5.48a2,2,0,0,1,.16-1.26c1.45-.65,1.46-.65,1.42-2.13s-.1-2.89-.16-4.32a26,26,0,0,1,1.19-8.34,24,24,0,0,1,1.48-4.08,1.8,1.8,0,0,0,.2-.94,20.15,20.15,0,0,0-1.42-6.18,1.32,1.32,0,0,0-1.19-.91,2.38,2.38,0,0,1-1.81-2.73c.16-1,0-1.48-1-1.73-1.66-.43-2.79-1.62-4.09-2.59a.89.89,0,0,1-.3-.31c-.73-2.14-2-4.13-1.78-6.53a8.23,8.23,0,0,0,.09-1.57l.43-.66c1.12-1.12,1.82-2.58,3-3.66a2.44,2.44,0,0,1,1.72-.68,14.36,14.36,0,0,0,4-.33c.45-.15,1-.24,1.12-.76s-.33-.91-.68-1.26a6.49,6.49,0,0,0-1.31-1,1.12,1.12,0,0,1-.43-1.74c.74-1.27,1.23-2.68,2.49-3.63A5.76,5.76,0,0,0,88.25,8.6a2.36,2.36,0,0,1,1.38-1.42c2.63-1.1,5.05-2.66,7.69-3.73,1.9-.77,3.89-1.33,5.83-2a1.12,1.12,0,0,1,1.33.51,3,3,0,0,0,3.23,1.16,6.54,6.54,0,0,1,5.57,3.1,3.31,3.31,0,0,1,0,3,4,4,0,0,0,.73,5.07,2,2,0,0,1,.13,2.52c-1.4,2.74-2.8,5.48-4.25,8.19a7.71,7.71,0,0,0-1.11,4.51c.19,2.4.3,4.83.29,7.25,0,1.55.47,3.09.11,4.65-2,1.81-3.48,4.13-5.52,5.92-.38.32-.71.79-1.27.29a5.34,5.34,0,0,1-.15-2.66,34.64,34.64,0,0,0,.25-4.19,11.56,11.56,0,0,0-4.68-3c-1.32-.41-2.66.42-3.94.84-.42.14-.39.65-.31,1.06.18,1,.37,2.06.64,3.07s.48,1.08,1.37.67c1.37-.64,2.78-1.21,4.1-1.94.35-.2.69-.43,1.11-.2.64.58.29,1-.24,1.39a30.63,30.63,0,0,1-2.93,1.84c-1.59.82-2.31,2-1.74,3.78a4.41,4.41,0,0,1,.15.74c.2,1.23.43,1.37,1.56.76s2.46-1.22,3.68-1.84c.45-.23.85-.41,1.3,0s.13.89-.08,1.31c-.67,1.31-1.25,2.68-2,4a2.75,2.75,0,0,0-.46,2.05.89.89,0,0,1-.21.81c-1.53,1.77-.52,3.39.37,4.93a5.83,5.83,0,0,1,.49,3.45c-.54.54-1.1.24-1.55-.09a1.56,1.56,0,0,0-2.06.11c-.48.36-1,.66-1.52,1a1.55,1.55,0,0,1-2,.06.58.58,0,0,1-.21-.23c-.22-.67.26-1,.69-1.33a12.14,12.14,0,0,1,2.37-1.31c1.77-.83,1.78-1,.3-2.29a2,2,0,0,0-1.9-.48c-1.35.32-1.66.6-1.9,2a21.73,21.73,0,0,0-.39,2.9,1.52,1.52,0,0,1-1.06,1.47c-1.3.55-2.52,1.28-3.82,1.83-.27.12-.71.31-.55.55.58.84.11,1.76.33,2.61a8.68,8.68,0,0,1-1,2.63C85.64,73.94,84.85,74.62,84,74Z"/><path class="b" d="M42.73,44.88h.43c.26-.2.51-.45.85-.43,1.49.1,3,.24,4.47.41s2.9,1,4.46,1.17a.78.78,0,0,1,.52.37,3.68,3.68,0,0,0,3.38,2c1.8.12,3.61,0,5.41,0a3.49,3.49,0,0,1,1.69.24c.43.48.9.69,1.49.24a1.58,1.58,0,0,1,.31-.09,13.71,13.71,0,0,1,3.14,1.67c.34.23.65.5.42,1a2.43,2.43,0,0,1-.57.37,20,20,0,0,1-3.85-.5c-1.33-.2-2.66-.3-4-.44a3.64,3.64,0,0,0-2.31.83,1.65,1.65,0,0,1-1.81.29c-.5-.29-.72.07-.89.46a10.58,10.58,0,0,1-1.18,2.2A3.92,3.92,0,0,1,53,56.18c-.94.37-1.6-.13-1.47-1.13.07-.61.28-1.2.38-1.81.14-.88-.12-1.18-1-1.06s-1.72.27-2.57.44c-.25,0-.53.11-.58.41s.21.43.41.57c.76.51,1.59.88,2.33,1.4.37.26.72.53.65,1s-.55.64-1,.76c-.59.17-1.21.17-1.82.31a1.34,1.34,0,0,0-1.2,1.08,2,2,0,0,1-1.33,1.45Q42.93,60.81,40,61.89c-.52.19-1.12.37-1.44-.27s.23-1,.66-1.32c.93-.69,1.92-1.3,2.88-1.95.49-.34.93-.72.78-1.42a2.09,2.09,0,0,0-1.31-1.49,1.05,1.05,0,0,0-1.25.4,5.56,5.56,0,0,0-.8,1.29,2.56,2.56,0,0,1-2.14,1.6c-.78.08-1.71.25-1.84,1.23s.71,1.56,1.48,1.93c1.56.74,3.3.77,5,1.12.85.17,1.7.36,2.56.49a1,1,0,0,1,1,.77A1.06,1.06,0,0,1,45,65.41c-1.31,1.18-2.64,2.12-4.57,1.44a8.59,8.59,0,0,0-3.24-.11A3.9,3.9,0,0,0,35,68a8.88,8.88,0,0,1-1.4,1.2,1.05,1.05,0,0,1-1.31,0,1,1,0,0,1-.1-1.3c.58-1.08,1.24-2.12,1.89-3.16.2-.32.6-.71.23-1.06s-.82,0-1.21.16a1.78,1.78,0,0,0-.75.76c-.7,1.23-1.63,2.3-2.39,3.5a3.31,3.31,0,0,1-1.53,1.33c-2.13.9-4.15,2-6.24,3A3.13,3.13,0,0,0,20.77,74a11.5,11.5,0,0,1-3.55,3.73,1.79,1.79,0,0,1-1.36.24,4.37,4.37,0,0,0-3.64,1.33,3.24,3.24,0,0,1-.89.62c-1.91.49-2.49,0-2.82-2.41-.15-1.06.33-2,.31-2.86,0,.13-.09.45-.1.77s0,.71-.44.78-.66-.23-.76-.61C6.9,73.34,6,71.12,6.12,68.71c0-.18,0-.37,0-.54a2.33,2.33,0,0,1,.09-.83.66.66,0,0,1,.23-.21c.42.06.64-.22.89-.48,1.95-2.07,4.49-3.36,6.71-5.08-1,.74-2.28.77-3.42,1.16a2.7,2.7,0,0,0-1.73,1.5A6.49,6.49,0,0,1,7.36,66.6c-.24.19-.36.69-.84.4a4.57,4.57,0,0,1,.36-2.58,15.37,15.37,0,0,1,2.43-5.08A11.35,11.35,0,0,0,10,58.22c.17-.28.25-.62.55-.83,2.76-1,5.63-1.89,7.37-4.61.48-.75.72-1.32-.12-1.92A1.21,1.21,0,0,1,17.3,50a.87.87,0,0,1,.54-.75,17.7,17.7,0,0,1,3.68-2.06,4.06,4.06,0,0,0,2.15-1.52c1.35-1,2.82-.7,4.29-.42.6.11.71.5.59,1a26.54,26.54,0,0,1-1.36,3.91,2.65,2.65,0,0,0,.9-2,4.62,4.62,0,0,1,.39-1.5c.52-1.4-.26-2.71-.31-4.07,0-.79-.13-1.59-.16-2.38,0-.39-.13-1,.51-1.17a1.69,1.69,0,0,1,1.48.46,14.85,14.85,0,0,1,3,3c.3.79-.19,1.54-.13,2.41,1.91-.45,3.55.39,5.21,1.09a.64.64,0,0,1,.44.77,1.43,1.43,0,0,1-.89.61c-.51-.27-1.06-.64-1,.42a.64.64,0,0,1-.48.35c1.86-.57,3.78-.07,5.32-.35-.7-.07-1.72.1-2.76.11-.29,0-.6,0-.73-.28s.22-.51.43-.63c.77-.42,1.23-1.22,2-1.62S42,45.08,42.73,44.88Z"/><path class="c" d="M166,94.85A6.31,6.31,0,0,0,168.61,96c1,.38,1,.82.5,1.61-.85,1.3-1.64,2.64-2.44,4a3.33,3.33,0,0,0-.55,1.16c-.2,1.61-1.26,2-2.65,2.08s-2.95.29-4.42.47c-2.09.27-3.7,1.6-5.49,2.52-2.35,1.19-4.68,2.44-7,3.67a1.28,1.28,0,0,1-1.43,0c-1.08-.72-2.18-1.42-3.27-2.12.42-.45.79.1,1.14.06a13.46,13.46,0,0,0-3.14-.85,4.23,4.23,0,0,1-2.69-2.9A2.89,2.89,0,0,0,136,104.3a2.28,2.28,0,0,1-1.2-2c0-.52.42-.72.75-1,1.75-1.51,3.62-2.86,5.29-4.49,1.26-1.23,1.35-2.83,1.9-4.3a10.08,10.08,0,0,1,1.69-3.33c1-1.11.92-1.59,0-2.77-.32-.43-.64-.88-1-1.31,1,1.72-.07,3.07-.76,4.49a11.71,11.71,0,0,0-1.34,2.61,11.25,11.25,0,0,0-1,1.19,25.22,25.22,0,0,1-3.81,3,.7.7,0,0,1-.35-.09.74.74,0,0,0-.57-.24c-.48,0-1,0-1.11-.56s.17-.87.61-1.12c3.55-1.26,3-.86,3.92-4.56a38.66,38.66,0,0,0,.72-9.33,6.82,6.82,0,0,0-.7-3.46c-.74-1.6-.7-1.77.67-2.73a5.9,5.9,0,0,0,1.35-1.07,9.29,9.29,0,0,1,3.49-2.46,9.78,9.78,0,0,0,2.15-1.36c2.44-.4,4.77-1.26,7.24-1.51a12,12,0,0,0,1.83-.56,1.36,1.36,0,0,1,1.24.91,4.67,4.67,0,0,0,1.4,1.9c1.31,1.12,2.38,2.5,3.74,3.54a4,4,0,0,1,1.15,2.58,4.19,4.19,0,0,1-.71,3.56A51.1,51.1,0,0,1,158.75,85a2.5,2.5,0,0,0-.12,3.45,10.18,10.18,0,0,1,1.74,7.08,1.37,1.37,0,0,1-.83,1.28c-1.21.6-2.26,1.54-3.65,1.79-.1,0,0,0-.07,0-.46,1.13-.46,1.12-.95,1.42.69-.55,1.59-.7,2.31-1.19l.25-.18a10.38,10.38,0,0,1,3.24-.87.92.92,0,0,1,.27.16,10.49,10.49,0,0,0,1.73,1.85,23.25,23.25,0,0,0,.25-2.85,1,1,0,0,1,.1-.3,11.43,11.43,0,0,1,2.65-1.94A.44.44,0,0,1,166,94.85Z"/><path class="d" d="M133.14,103.53c-4,2.83-8.36,4.89-12.59,7.25-1,.59-2.27.4-3.4.5-2.21.2-4.34.75-6.52,1.06a38.47,38.47,0,0,1-4.29.59,10.73,10.73,0,0,0-4.3,1.43,21.6,21.6,0,0,1-9,1.84,47.59,47.59,0,0,0-6.08,1l-1.38.24a.63.63,0,0,1,.07-.88,2.52,2.52,0,0,1,.61-.61c1.31-.7,2-1.55,1-3a.73.73,0,0,1,.13-.9c.39-.26.74-.58,1.14-.83a1.19,1.19,0,0,1,1.51,0,1.14,1.14,0,0,1,.27,1.4,1.52,1.52,0,0,0,.08,1.63c.14.18.36.4.53.26.45-.35.57-1,1.06-1.32.85-.63,0-1-.33-1.34s-.66-.68-.45-1.22.71-.58,1.18-.57a29.13,29.13,0,0,1,4.85.41,1.21,1.21,0,0,0,.73-.06c3-.86,6-1.6,9-2.47a71.31,71.31,0,0,0,6.67-2.6,25.08,25.08,0,0,1,3.67-1.32,7.8,7.8,0,0,1,1.8-.41,2,2,0,0,1-1.88-.28c-.54-.4-.61-.83-.12-1.1,1.63-.9,1.4-2.2,1.14-3.71a27.89,27.89,0,0,0-.42-3.82c-.25-.79.33-1.6.77-2.3a.66.66,0,0,1,.87-.25c1.08.6,1.5,0,1.82-.91a.88.88,0,0,1,.26-.34c.65-.34,1,.15,1.39.51,1.24,1.19,2.44,2.44,3.66,3.65a6.05,6.05,0,0,0,3,2c.17,0,.26.23.39.36a.92.92,0,0,1,.43.71c-.26.92-1.13,1-1.82,1.35a3.13,3.13,0,0,0-1.05.52c-.52.44-1.17.72-1.68,1.18-1.25.34-2.36,1.08-3.62,1.37.57,0,1.08-.74,1.72-.14a.79.79,0,0,1-.42,1.08,13.94,13.94,0,0,0-4.25,4.23c-.38.56-1,.87-1.4,1.42a2.17,2.17,0,0,1,1.88-1,16.32,16.32,0,0,0,9.49-4.26,7,7,0,0,1,2.88-1.84,2,2,0,0,1,1.2,1.26A.58.58,0,0,1,133.14,103.53Z"/><path class="e" d="M108.8,41.39c-.21-4.29-.38-8.59-.65-12.88A6.68,6.68,0,0,1,109.33,25c1.44-2.79,2.91-5.58,4.36-8.37a1.63,1.63,0,0,0-.17-2.1,4.16,4.16,0,0,1-.77-5.34,2.83,2.83,0,0,0,0-2.8c-.71-1.45-3.56-3-5.19-2.71-1.38.24-2.59.27-3.33-1.22A1,1,0,0,0,102.89,2a91,91,0,0,0-10.65,4.5c-2,1.09-3.58,2.14-4.57,4.32-.63,1.39-2.08,2.43-2.83,3.9-.36.72-.37,1.11.34,1.48a9.88,9.88,0,0,1,2.29,2c.56.56.44.91-.27,1.31-1.76,1-3.7.87-5.59.93a1.91,1.91,0,0,0-1.51.62,24.56,24.56,0,0,0-1.69,1.84,3.09,3.09,0,0,1-1.55,1.3,13.32,13.32,0,0,1,4.42-5.77A5.51,5.51,0,0,0,83.77,15c.55-2.42,1.86-4.54,2.94-6.75a2.32,2.32,0,0,1,.86-1C89.8,5.84,92.13,4.55,94.23,3c2.85-2.15,6.09-2.6,9.48-2.9a10.87,10.87,0,0,1,5.59.81,4.84,4.84,0,0,1,1.62,1C112,3,113,4.14,114,5.26a5.09,5.09,0,0,1,1.15,2.07c.65,2.36,1.89,4.57,1.68,7.14a3.42,3.42,0,0,1-.51,1.73c-.59.91-1.09,1.88-1.72,2.77-1.83,2.59-2.07,5.68-2.74,8.62s-.55,5.75-.91,8.62c-.43,3.47.25,6.93,0,10.4-.35.28-.79.22-.92-.12-.38-1-1.25-1.72-1.58-2.74a11.11,11.11,0,0,1,0-1.29A1.88,1.88,0,0,1,108.8,41.39Z"/><path class="f" d="M69.25,51.39c-1.15-.87-2.49-1.42-3.7-2.18a7.69,7.69,0,0,1-3.87-1.88.58.58,0,0,1-.14-.6l.1-.14a18.2,18.2,0,0,0,4.09.41,13.38,13.38,0,0,1,6.94,1.73,25.61,25.61,0,0,0,3.11,1.53c.85.38,1.22,1.22,1.83,1.82s1.34,1.62,2,2.4a3.12,3.12,0,0,1,.68,1.46c.41,2.06.82,4.11,1.22,6.17a3.66,3.66,0,0,1-.11,2.15A43.09,43.09,0,0,1,75.81,75,51.71,51.71,0,0,1,64.06,86.3,53.49,53.49,0,0,0,58.69,91a26.13,26.13,0,0,1-3.8,2.87c-.24.15-.61.23-.57.58s.41.37.65.51a1.63,1.63,0,0,0,1.84-.07,3.7,3.7,0,0,1,1.79-.71c.48.3.86-.06,1.17-.28a9.21,9.21,0,0,1,2.85-1.21,50.86,50.86,0,0,1,6.73-1.6c-.55.21-1.43.22-2.27.43-.41.11-1.06.33-1.32-.39,1.1-1.36,2.63-1.14,4.08-1,.89.07,1.78.15,2.68.17a2.52,2.52,0,0,1,.73,2.35,8.2,8.2,0,0,1-3.24.62,3,3,0,0,0-1.68.3,56.46,56.46,0,0,0-5.58,3.13,1.22,1.22,0,0,1-.59.24,6,6,0,0,0-2.82,1.29.79.79,0,0,1-.48,0c-.86-.5-.61.14-.58.56a.72.72,0,0,1-.11.32.78.78,0,0,1-.58.36,1.46,1.46,0,0,1-.84-.2c-1.06.13-2,.58-3.1.73-.57.08-1.14.25-1.64-.21-.4-1,.47-1.28.91-1.82a3.78,3.78,0,0,0,1.39-.8c.95-.86,2.19-.77,3.29-1.11,2-.7,4.2-1,5.92-1.59a43.16,43.16,0,0,1-5.86,1.34,2.8,2.8,0,0,0-.88.35c-.78,0-1.51.31-2.29.34-1.46.21-2.92.43-4.37.75-.36.08-.76.17-.92-.27s.19-.61.5-.83a9.48,9.48,0,0,1,2.13-1c.76-.28,1-.71.59-1.43a1.6,1.6,0,0,1,0-.31c.27-.66.19-1.17-.57-1.44a.8.8,0,0,1-.62-.67c.09-.64.57-.76,1.08-.87.89-.17,1.78-.28,2.67-.42a3,3,0,0,0,2-1.18,16.31,16.31,0,0,1,2.57-2.68c.51-.4.61-1,.94-1.45a3.53,3.53,0,0,0,.63-.59,6.28,6.28,0,0,1,5-2.6A3.92,3.92,0,0,0,70,78.12a21.38,21.38,0,0,1,1.38-1.9,3,3,0,0,0,1.11-1.16,48,48,0,0,1,2.91-4.81,3,3,0,0,0,.52-2.64c.06-.6.63-.71,1-1,.74-.17.73-.75.71-1.33s0-.94.09-1.41c.57-1.43,1.49-2.75,1.3-4.4,0-.16,0-.32,0-.48a2.38,2.38,0,0,0-1.52-3A1.43,1.43,0,0,1,77,55.7c-.32-.41-.48-.91-.82-1.31a2.81,2.81,0,0,0-2.43-.61l-.32,0a11,11,0,0,0-3.73-1.63A.85.85,0,0,1,69.25,51.39Z"/><path class="g" d="M108.8,43.79a4.5,4.5,0,0,1,1.54,2.15.82.82,0,0,0,.63.67,41.75,41.75,0,0,1-3.86,10.08,15.38,15.38,0,0,0-1.6,5.36c-.1.59.09.94.66,1a2.73,2.73,0,0,1,1.73,1c2,2.09,4,4.14,6,6.26a3,3,0,0,0,2.67,1.08,2.68,2.68,0,0,1,1.6.19c-.42.66-1.07.39-1.64.4s-1.08-.2-1.59.14a2.93,2.93,0,0,1-1.18.42c-.13,0-.29.15-.41.09-1.31-.63-2.23.14-3.2.85s-1.84,1.48-2.79,2.17c-.31.23-.6.53-1,.43-.84-.37-1.87-.09-2.62-.77-.47-.94.26-1.2.87-1.51s1.42-.13,1.57-.79-.74-.86-1.11-1.31a2.19,2.19,0,0,1-.27-2.68,2.1,2.1,0,0,1,2.64-.78c.63.27,1.3.44,1.94.69.34.14.74.25.94-.19a.73.73,0,0,0-.37-.93,11.78,11.78,0,0,0-3.57-1.54c-1.55-.37-3.11-.69-4.69-.91-.55-.08-1.1-.19-1.09-.94-.24-.72-.82-1.37-.37-2.22.12-.23-.06-.5-.25-.67-1-.83-.84-2.18-1.58-3.15-.4-.53.29-1.19.6-1.75s.74-1,.46-1.77c-.17-.47.21-1,.44-1.42l2.65-5.32c-.12-.24,0-.35.22-.43,2-2.09,3.85-4.41,6.09-6.31v1.09C108.38,42.92,108.3,43.35,108.8,43.79Z"/><path class="f" d="M76.43,24.89A27,27,0,0,0,78,31.27c.66,2.09,2.39,2.95,4.1,3.87a7.24,7.24,0,0,0,.83.24c1.4.5,1.65.91,1.13,2.35-.33.93.42,1.3.77,1.87s.69.32,1.11.09.73.17.84.54a31.51,31.51,0,0,1,1.78,7.22,1.69,1.69,0,0,1-.12.84c-2.58,5.22-3,10.79-2.86,16.48a8.3,8.3,0,0,0,.25,1.72c.22.81,0,1.18-.86,1a2.82,2.82,0,0,1-1.15-.24,11.25,11.25,0,0,1,.66-2.82c.87-.36.34-1.22.68-1.72-.34.27.22,1.1-.7,1.07a10.7,10.7,0,0,1-1.27-5.2c-.1-1.84,0-3.68-.19-5.52a10.37,10.37,0,0,1,.73-4.15,9.7,9.7,0,0,0-1.06-8.45,19.2,19.2,0,0,0-3.4-4.31c-2.27-2.08-3-4.8-3.59-7.59C75.4,27.33,76.06,26.1,76.43,24.89Z"/><path class="e" d="M127.47,72a10.7,10.7,0,0,1,2.66-2.49c4.47-3.43,9.73-4.58,15.13-5.3a10.41,10.41,0,0,0,5.13-1.82,1.52,1.52,0,0,1,2-.09c.39.25.87.38,1.24.66a3.06,3.06,0,0,0,3.21.59c.29.51-.16.74-.44,1a.89.89,0,0,0-.26,1.3c.47.78.12,1.27-.63,1.59a5.82,5.82,0,0,1-3.36.35c-1.91-.33-3.86-.76-5.8-.06a1.93,1.93,0,0,1-.75.08,1.59,1.59,0,0,0-1.59.62c-.36.5-1.1.57-1.69.66-2.45.36-4.74,1.33-7.14,1.81-2,.4-3.77,1.25-5.69,1.77a1.38,1.38,0,0,1-.49.14,2.48,2.48,0,0,1-1.46-.61Z"/><path class="h" d="M1.23,73.12c.11-2.34.63-4.63.72-7,.11-2.81.43-5.6.36-8.42,0-.71.13-1.29.88-1.55,1.32.27,2.6.7,3.93.89a3.81,3.81,0,0,1,2.36,1.39c.28.7-.34,1.08-.59,1.57a23.68,23.68,0,0,0-1.95,4.17c-.14.48-.21,1-.31,1.45-.52,1.51-.52,3.13-.93,4.66a19.69,19.69,0,0,0-.18,8.44,11.44,11.44,0,0,0,1.36,4.17,1.6,1.6,0,0,1,.23,1.24.73.73,0,0,1-.22.27c-1.26.21-1.83-.41-2.1-1.58-.32-1.37-.78-2.71-1.18-4.06a8,8,0,0,1-2.48-5.26A.52.52,0,0,1,1.23,73.12Z"/><path class="i" d="M72.72,121.36a21.74,21.74,0,0,1-10.44-2.68,49.26,49.26,0,0,1-6.49-3.85c.21-.38.54-.27.85-.17.61.19,1.23.36,1.85.54-1.25-.4-2.53-.68-3.77-1.1-.46-.16-1-.25-1.07-.86a.66.66,0,0,1,.09-.28l.06-.07a.59.59,0,0,0,0-.08,24.46,24.46,0,0,0-3-.26.8.8,0,0,1-.56-.3c-.27-.73-1.39-1-1.11-2A5.52,5.52,0,0,1,51,107.54c.2-.14.37-.34.64-.36.66.08.9.49.93,1.12a1.86,1.86,0,0,0,3,1.54c.64-.41,1.21-.92,1.85-1.33.36-.23.74-.39,1,0s0,.75-.25,1a9.84,9.84,0,0,0-1.33,1.21,2.1,2.1,0,0,0,.94-.06c.7-.06,1.2.24,1.12,1s.35,1.18.9,1.57a5.47,5.47,0,0,0,2.71,1,27.78,27.78,0,0,1,8.72,2.39,8.7,8.7,0,0,0,3.31,1,1.16,1.16,0,0,1,1.16.66c.13.75-.84.63-.94,1.19a2.63,2.63,0,0,1-2.68.86,18.68,18.68,0,0,0-3.35-.38,2.67,2.67,0,0,1-.79-.11c1.17.27,2.51.16,3.8.43.36.07.73,0,1,.37A.71.71,0,0,1,72.72,121.36Z"/><path class="c" d="M53.17,46.61a8.67,8.67,0,0,1-2.42-.48c-2.43-1-5.07-.76-7.59-1.26.42-1.2.85-2.39,1.24-3.59a.74.74,0,0,1,1.08-.53c1.48.47,3,.92,4.46,1.36a2.17,2.17,0,0,1,1.28,1.24c.2.37.31,1,.76.94s.46-.67.62-1.06c.47-1.14,1-2.26,1.35-3.43a1.82,1.82,0,0,1,2.24-1.39,7.84,7.84,0,0,1,4.14,2.11,7.43,7.43,0,0,1-.51,2.55,11.71,11.71,0,0,0-.93,3.49c-.9.56-1.94.4-2.91.56a10.9,10.9,0,0,1-1.8.13C53.8,47.25,53.22,47.25,53.17,46.61Z"/><path class="b" d="M27.75,34.88a30.63,30.63,0,0,1,.64,3.91,5.24,5.24,0,0,1-1.59,2.85c-1.07,1.23-2.14,2.45-3.19,3.69A2.73,2.73,0,0,0,23,46.55c-.28.39-.77.37-1.16.53a11.77,11.77,0,0,0-4.29,2.41c-.22.22-.45.48-.83.42-.56-.29-1.25-.48-1.11-1.35a34.29,34.29,0,0,1,2.22-4.51,4.14,4.14,0,0,0,.41-1.86c.11-1.15-.11-2.37.63-3.41a10.35,10.35,0,0,1,4.31-1.51c.58-.06.91-.57,1.35-.86A10.8,10.8,0,0,1,27.75,34.88Z"/><path class="j" d="M84,74c.29,0,.64,0,.77-.3.54-1,1-.48,1.39.08.26.48.88.09,1.18.49a3.89,3.89,0,0,1-.43,4.14,1.25,1.25,0,0,1-.45.59,2,2,0,0,0-1,2.61c.17.47-.16.92-.41,1.31a2,2,0,0,0,.11,2.58,1.06,1.06,0,0,1,.33.89,6.92,6.92,0,0,1-1.38,1.88c-1.18,1.07-1.39,2.51-1.57,4a1,1,0,0,1-.12.52c-.59.5-1.38.23-2,.55-.69.09-.91-.53-1.32-.87-.18-.86-.52-1.43-1.59-1.52-.83-.06-1.2-.93-1.5-1.67s.19-1.14.67-1.54c.17-.14.36-.25.41-.48a14.36,14.36,0,0,1,2.79-3.28,8.76,8.76,0,0,0,2.72-4.87C82.89,77.34,83.53,75.68,84,74Z"/><path class="k" d="M15.57,48.56a5.21,5.21,0,0,1,1.1,1.1c.19,0-.24.86.41.31.13-.12.32,0,.45.12,2.33,1.68,2.17,1,.37,3.5s-4.43,3.27-7.1,4.1c-.32-.33-.16-.63,0-1a12.46,12.46,0,0,1,1.63-2.31c-1.15,1.1-1.72,2.74-2.74,4.08a.68.68,0,0,1-.44.07,13.7,13.7,0,0,0-4.37-1.39,2,2,0,0,1-1.7-1A11.71,11.71,0,0,1,6,54.87c.52.33.66-.12.86-.43a28.62,28.62,0,0,0,3-2.77A10.23,10.23,0,0,1,15.57,48.56Z"/><path class="c" d="M161.6,58.78a23.88,23.88,0,0,1,3-1.31,1,1,0,0,1,.63-.12c2.62.94,5.67,1.07,7.37,3.82A2.27,2.27,0,0,1,173,62.6a3.68,3.68,0,0,1-.18,1.58c-.33.43-.75.34-1.18.18-.64-.24-1.35-.27-2-.5a6,6,0,0,0-6.47,1.42c-1.13,1-2.58,1.72-3.13,3.31a1,1,0,0,1-.9.7,2.9,2.9,0,0,1-2-2,.67.67,0,0,1,.64-.77c-.3,0-.55.33-.9.2-1.25-1-1.3-1.72-.11-2.66a6.24,6.24,0,0,0,1.49-1.41C159.42,61.43,160.89,60.43,161.6,58.78Z"/><path class="l" d="M53.16,98.36l-1.08,1.27a2.91,2.91,0,0,1-2.23,2.23.64.64,0,0,1-.31-.11c-.37-.3-.31-.68-.11-1.27-.22.57-.5.74-.88.73a1.58,1.58,0,0,1-1.18-1.73c0-.77.71-.91,1.28-1.12a17.13,17.13,0,0,1,2.53-.76,38.94,38.94,0,0,0-4,.74c-1.3.44-2.59.9-3.91,1.29-1.57.48-2.89,1.47-4.42,2a8.34,8.34,0,0,1-1.2.48,2.55,2.55,0,0,0-2.92.53.7.7,0,0,0-.24.13c-.43.19.15,1.06-.66,1L33,102.63c0-.28-.21-.44-.32-.66a1.1,1.1,0,0,1,1.06-1.7,5.37,5.37,0,0,0,1.88-.22,12.54,12.54,0,0,1,1.92-.29,18.55,18.55,0,0,0,3.71-1,14.37,14.37,0,0,0,3.94-2.5c1.1.31,2-.36,3-.58.45-.1.53-.48.14-.8a1.44,1.44,0,0,1-.44-.6c-.18-1,.87-1.36,1-2-.19.28-.49.72-.82,1.13s-.65.68-1.19.38a6,6,0,0,1-1-2.35,3.08,3.08,0,0,0-1.3-2c-.46-.28-.68-.67-.05-1,.69,0,1.31-.33,2-.33.3.06.55.28.86.28s.81.13,1.21.16c1.6,0,2.09,1.2,2.67,2.33A1,1,0,0,0,51.54,92c.48.47.75,1.1,1.2,1.59s1,.76,1.17,1.37a19.28,19.28,0,0,0-4.29,2l4.85-.78c.48.49.53.95-.15,1.27A4.83,4.83,0,0,0,53.16,98.36Z"/><path class="m" d="M38.39,46.8C37,46.29,35.61,45.48,34,45.42c-.33,0-.77-.14-.71.34.11.82-.36.49-.7.44s-.74-.23-.57-.79c.26-.9.47-1.81.7-2.71,0-.25-.25-.56-.12-.73,1-1.24.09-2.57.22-3.85A4.14,4.14,0,0,1,33.4,36h.43a5.47,5.47,0,0,1,2,1.36,1.14,1.14,0,0,0,1.79,0,4.86,4.86,0,0,1,1.52-.9c.71-.25.75,0,.55.59-.24,1.24-.43,2.48-.73,3.7a11.39,11.39,0,0,0,.11,3.64c0,.5.39.61.85.58.94,0,1.87-.06,2.8-.09L40.78,46a13.49,13.49,0,0,0-1.43.7C39.06,46.8,38.77,47.14,38.39,46.8Z"/><path class="n" d="M50.33,114.62c-.45.32-.87.76-1.51.45a11.94,11.94,0,0,0-3-1c-1.05-.38-2.08-.76-3.08-1.23-.33-.16-.66-.48-1.08-.19-2.42-.21-3.48-1.83-4.09-3.93a.53.53,0,0,1,.76,0c-.35-.52-1-1-.46-1.69.87-.42,1.72-1,2.64-.08.17.17.48.1.73.12a9.58,9.58,0,0,1,1.67.37c.43.14.69.39.57.87s-.43.68.07.92.79-.06,1.08-.43.86-.62,1.29-.17,1,.87.33,1.54c0-.15,0,.14-.11,0s-.06,0-.11,0-.24,0-.1,0a2.89,2.89,0,0,1,3.49,1.14c.23.41.34.84-.25.9-1.43.14-2.84.58-4.3.23a3,3,0,0,0,2.22.11,5.49,5.49,0,0,1,4.06.22c.26.17.59.25.67.62s-.39.5-.66.67S50.46,114.22,50.33,114.62Z"/><path class="o" d="M158.78,63.12l-1.32.94c-1.45,1.06-1.45,1.06-.41,2.53.07.8-.37,1.09-1.1,1.09a66.64,66.64,0,0,1-9.13,2.19c-1.5,1-3.2.88-4.84.64a7.72,7.72,0,0,0-2.67,0c-1.38.27-2.75.59-4.13.88-.31.07-.75.09-.82.42C134.05,73.26,133,73,132,73c-.53-.27-1.11,0-1.65-.16a1.58,1.58,0,0,1-1-.6c1.72-.69,3.7-.78,5.16-2.4,0,.54-.22,1,.48.74,2.7-.8,5.42-1.53,8.12-2.32.2,0,.78,0,.45-.56-.18-.32.18-.21.29-.21,2.27,0,4.48-.71,6.77-.46a7.33,7.33,0,0,1,2,.31,3.66,3.66,0,0,0,2.54-.2c.4-.14.69-.4.59-.89s-.37-.78-.94-.36c.22-1.26,1.43-1.48,1.92-2.32l.63-.45C158.4,62.67,158.4,62.67,158.78,63.12Z"/><path class="g" d="M72.72,121.36l-.65-.44A17.6,17.6,0,0,1,76,119.5,2.25,2.25,0,0,0,77.41,118a2.33,2.33,0,0,1,.86-1.17c1.16-.91,2.32-1.82,3.45-2.77s1.14-.93,2,.28a9.54,9.54,0,0,0,1.05,2,2.18,2.18,0,0,1,.37,1.32c-2.26,2.21-4.82,3.57-8.11,3.1a3,3,0,0,0-2.74.56C73.83,121.77,73.25,121.38,72.72,121.36Z"/><path class="f" d="M29.05,102.25a9.89,9.89,0,0,1-3.48-2c-1.38-1.24-1.42-3-1.9-4.64,1.45-1.45,2.69-1.56,4.28-.4a20.83,20.83,0,0,1,2.38,2c.48.68.06,1.4.06,2.09,0,.34-.33.43-.66.37a8.58,8.58,0,0,1-1.06-.31,4,4,0,0,0,2,.33,1.29,1.29,0,0,1,.55.36c.2.49.84.77.66,1.42C31.08,102.38,30,102.18,29.05,102.25Z"/><path class="n" d="M6.89,84.42a1.93,1.93,0,0,1,0-.24c.33-.5.18-1.42,1-1.43s.77.83,1.1,1.3a7.51,7.51,0,0,1,.74,1.66,5,5,0,0,0,1.26,1.81,4.34,4.34,0,0,0,3,2.37,2.08,2.08,0,0,1,.9.91A3.11,3.11,0,0,0,16,92.44c.66.54.84,1.38,1.34,2a1.29,1.29,0,0,0,.87.64c.5.08.76.3.59.83a1.75,1.75,0,0,1-2.27.18c-.9-.54-1.84-1-2.75-1.51-.22-.12-.5-.26-.58-.46-1.08-2.61-3.31-4.43-4.68-6.84A11.48,11.48,0,0,0,6.89,84.42Z"/><path class="p" d="M22.75,46.39c0-1.35,1.05-2.06,1.78-3,1.26-1.56,2.73-3,3.86-4.63l.22.21a.14.14,0,0,1,.05.15c0,.05,0,.07,0,.07-.37,1,0,2.07.1,3.09a4.46,4.46,0,0,0,.73,2.89.39.39,0,0,1-.05.59,2,2,0,0,0-.7,2.05c.16,2-1.28,2.84-2.38,4-.38-.27-.14-.5-.06-.7.56-1.41,1.1-2.83,1.74-4.21.41-.88.18-1.11-.73-1.2-1.14-.12-2.23-.33-3.21.46C23.62,46.26,23.26,46.73,22.75,46.39Z"/><path class="q" d="M73.15,92.46a2.21,2.21,0,0,1-.63-2.16A7.58,7.58,0,0,0,74.7,89c1-.45,1-.45,1.21.64A4.83,4.83,0,0,0,78,91.69c.42.08.87.07,1.1.53.2.26.44.51.35.88s-.75.64-1.07,1a.88.88,0,0,1-1.23,0c.86.68.86,1.83,0,2.9-.49.2-.83-.08-1.13-.39-1-1-1.84-2.19-2.8-3.25A.69.69,0,0,1,73.15,92.46Z"/><path class="r" d="M85.13,117.68a11.21,11.21,0,0,1-2-3.06c.21-1.76,1.47-2.88,2.53-4.12a1,1,0,0,1,.79-.27,1.62,1.62,0,0,1,1,2,4.48,4.48,0,0,0,.8,1.64c.52.75.48,1.28-.45,1.68a5.44,5.44,0,0,0-2.3,1.9Z"/><path class="e" d="M172.47,62.47c-.24-1.58-2.45-3.42-4.06-3.51-1.39-.09-2.49-1.05-3.78-1.49,1-1.23,1.13-1.24,2.54-.58q2.64,1.26,5.3,2.45a4,4,0,0,1,1.81,1.48c1,1.44,2,2.84,3,4.26a.52.52,0,0,1-.41.26c-.47,0-.77-.34-1.13-.57A8.39,8.39,0,0,0,173,63.11C172.7,63,172.64,62.69,172.47,62.47Z"/><path class="n" d="M133.14,103.53a1.21,1.21,0,0,1,0-.19c.09-.7,1-.45,1.19-1a2.11,2.11,0,0,1,.23-.19.41.41,0,0,1,.54.07,1.53,1.53,0,0,0,.17.39,17.27,17.27,0,0,1,3.37,4.61c.18.41,1,.57,1.46.84.31.52,1.13.42,1.3,1.09-1.29,0-2.59-.05-3.88,0a1.52,1.52,0,0,1-1.87-1.39,6.25,6.25,0,0,0-1.65-3.67A2.08,2.08,0,0,0,133.14,103.53Z"/><path class="j" d="M176.39,83.78a2.12,2.12,0,0,1-1,1.59,17.46,17.46,0,0,1-2.48,1.89,2.7,2.7,0,0,0-1,.84c-.27.29-.51.52-.88.15a6.71,6.71,0,0,1-.49-2.54,1.7,1.7,0,0,1,1.35-1.59,2,2,0,0,0,1.21-.85c1.32-1.78,2.91-3.39,3.68-5.54a.54.54,0,0,1,.49-.37,2.35,2.35,0,0,1,.58,2.51c-.39.78-.57,1.63-.88,2.43a10.07,10.07,0,0,1-1.73,2.16C175.63,84.28,175.71,83.57,176.39,83.78Z"/><path class="s" d="M28.62,39.22V39c1.49-1.19,3.22-2,4.79-3,0,.9,0,1.8,0,2.71,0,.74-.11,1.56,1.31,1.43a9.51,9.51,0,0,0-2,2.59A47.07,47.07,0,0,0,28.62,39.22Z"/><path class="f" d="M166,94.85h-.24c-.94.65-1.68.12-2.41-.42a.62.62,0,0,1-.17-.28c0-.58.48-.86.75-1.24.45-.62.84-1.15.33-1.91a.55.55,0,0,1,.07-.52,3.92,3.92,0,0,1,3.5-.92c.42.48,1.05.42,1.58.59.36.11.82.06.93.58A12.41,12.41,0,0,1,166,94.85Z"/><path class="e" d="M176.59,82.46a2.64,2.64,0,0,1,.42-1.75c.85-1,.6-2.13.24-3.24a.68.68,0,0,1-.36-.74c.29-.7,1.09-1,1.27-1.84A3.83,3.83,0,0,0,177,71c-.23-.22-.59-.32-.65-.69a5.67,5.67,0,0,1,.08-2.56c.55-.58.91-.29,1.24.24a6.6,6.6,0,0,0,1.32,2,.67.67,0,0,1,.18.46,47.06,47.06,0,0,0,.28,6.5,1.36,1.36,0,0,1-.47,1.35c-.23.32-.65.59-.25,1.06a4.11,4.11,0,0,1-1.93,3.72C176.47,83,176.79,82.64,176.59,82.46Z"/><path class="t" d="M114.66,71.82c1.15-.41,2.33-.13,3.5-.23,3.11-.11,6.2.42,9.31.42l0,0c.27,1.15-.75,1.43-1.35,2a2.45,2.45,0,0,1-.38,0,42.1,42.1,0,0,1-4.6-.66c-1.88-.24-3.77-.4-5.64-.75C115,72.58,114.54,72.51,114.66,71.82Z"/><path class="q" d="M18.83,95.93c-.56-.51-1.41-.52-1.95-1.08.52-.91,1.53-.67,2.31-1,1-.12,1.92-.35,2.9-.43,1.41-.12,2.12.79,1.76,2.25a36.25,36.25,0,0,1,1.72,4.59,3.25,3.25,0,0,1-2.27-1.91,5.37,5.37,0,0,0-1.85-2,1.91,1.91,0,0,0-2-.44Z"/><path class="u" d="M27.75,34.88c-.89.61-1.76,1.26-2.67,1.83a2.86,2.86,0,0,0-1.68,2.14c-.31-1.24-.9-1-1.43-.82a12.61,12.61,0,0,1-3.14.75,31.89,31.89,0,0,1,4-3.62,1.79,1.79,0,0,1,1.24-.28Z"/><path class="v" d="M65.76,91.15a15.81,15.81,0,0,0,3.75-.49,2.3,2.3,0,0,1,1.67,0c-.28.52-.73.48-1.09.56-2.93.62-5.79,1.51-8.67,2.32A20.56,20.56,0,0,0,59,94.66c-.17.07-.42.28-.52-.07,0-.11.11-.26.17-.39C60.64,92.38,63.39,92.2,65.76,91.15Z"/><path class="s" d="M58.82,46.18c-.7-.1-.52-.56-.36-1a41.42,41.42,0,0,1,1.87-4.7c.29,1.55.59,3.1.85,4.65a4.38,4.38,0,0,0,.46,1.42v0A2.61,2.61,0,0,1,58.82,46.18Z"/><path class="r" d="M79,92.24c-1.1,0-2.32.24-2.75-1.26,0-.13-.27-.24-.44-.3-1-.37-1.09-.91-.3-1.61-.3-.3-.58,0-.84-.08a15.55,15.55,0,0,1,2.35-1.77.45.45,0,0,1-.13.49c-.39.42-.9.82-.47,1.48s.8,1.32,1.78,1.33c1.6,0,1.72.26,1,1.7C79.19,92.33,79.12,92.34,79,92.24Z"/><path class="c" d="M179.2,70.51,179,70.3c-.87-1.24-1.83-2.41-1.73-4.09,0-.53.16-.78.63-.9l2.44,1.76a.81.81,0,0,1,.26,1.27C180.1,69.05,179.66,69.79,179.2,70.51Z"/><path class="w" d="M1.23,73.12a16.34,16.34,0,0,0,2.21,4.75,1.2,1.2,0,0,1,.17.91A16.67,16.67,0,0,1,.48,77.59C0,77.38-.08,77,.08,76.5.46,75.38.85,74.25,1.23,73.12Z"/><path class="s" d="M39.7,37.05c0-.45-.23-.47-.56-.21-.64.52-1.31,1-2,1.54a.71.71,0,0,1-1.12-.07c-.74-.79-1.5-1.56-2.24-2.34,1.76-.15,3.49.25,5.25.23C39.63,36.19,40,36.38,39.7,37.05Z"/><path class="x" d="M170.3,90.73c-.78-.08-1.57-.17-2.35-.23-.55,0-.46-.32-.27-.65a.63.63,0,0,1,.12-.79c.65-.53,1.06-1.29,1.68-1.84s1.17-.49,1.36.39a.89.89,0,0,0,.53.7c.6-.22.79-1.07,1.56-1a8.82,8.82,0,0,0-2.05,3.06C170.8,90.59,170.55,90.67,170.3,90.73Z"/><path class="y" d="M33.81,103.79a.53.53,0,0,0,0-.61c-.38-.58-.12-.84.46-.94.8.78,1.88,1.25,2.37,2.33a7.1,7.1,0,0,0,1,3.07.61.61,0,0,1-.09.92C35.45,107.6,34.73,105.62,33.81,103.79Z"/><path class="z" d="M158.78,63.12c-.44-.21-.89.06-1.32,0a35.32,35.32,0,0,1,4.14-4.33.89.89,0,0,1-.07,1.2A40.91,40.91,0,0,0,158.78,63.12Z"/><path class="aa" d="M31,100.31l-.41-.24c-.07-.58.35-.63.76-.66a7.75,7.75,0,0,0,1.58-.31c.5.26,1-.09,1.52,0s.54.67,1.1.66c.3,0,.53.33.25.7a16.62,16.62,0,0,1-1.71.21c-1,0-1.47.37-1,1.42.06.14,0,.34-.07.51l-.24-.18c-.16-.12-.36-.18-.52-.31A2.57,2.57,0,0,0,31,100.31Z"/><path class="ab" d="M53.83,113.11a2.33,2.33,0,0,0,1.38.78,33.19,33.19,0,0,1,4.51,1.77l-3.93-.83-3.06-1.08C52.82,113.05,53.14,112.76,53.83,113.11Z"/><path class="ac" d="M37.51,108.56A34.46,34.46,0,0,1,36,104.64a.41.41,0,0,1,.51,0c.71.74,1.53,1.43,1.44,2.62l1.68,2.66c-.92-.2-1.34-1-2.07-1.17A.84.84,0,0,1,37.51,108.56Z"/><path class="ad" d="M41.65,112.66l-.41-.55a10.49,10.49,0,0,1,2.55.9,22.38,22.38,0,0,0,4.28,1.49c.31.07.79,0,.75.57A29.26,29.26,0,0,1,41.65,112.66Z"/><path class="j" d="M177.88,65.31a4.1,4.1,0,0,0,.58,3.84A2.13,2.13,0,0,1,179,70.3c-.73-.23-.93-.92-1.27-1.48s-.37-.94-.9-1.13a1.9,1.9,0,0,1,0-2.61h.45Z"/><path class="ae" d="M53.83,113.11c-.36.21-.62.62-1.1.64l-.64,0c-.26.13-.33-.08-.43-.24L51,113.1c-.28-.21-.63-.31-.91-.52s-.32-.33-.17-.54.42-.2.63,0l.44.21a7,7,0,0,0,2.39.44c.26,0,.52,0,.46.42Z"/><path class="q" d="M84.44,63.78a20.19,20.19,0,0,0,.76-2.24v4c-.51-.32-.46-.8-.74-1.08Z"/><path class="af" d="M32.52,102l.23.42c-1.24-.08-2.49.21-3.7-.2a13.63,13.63,0,0,0,2.61-.89C32.23,101.21,32.25,101.78,32.52,102Z"/><path class="ag" d="M141.39,109.18c-.43-.37-1.16-.37-1.3-1.09l4.19,1.69c-.88.17-1.62-.31-2.44-.38Z"/><path class="ah" d="M176.59,82.46c.68,0,.11.47.24.68l-.44.64-2.13,1.92-.11-.1Z"/><path class="h" d="M19.49,95.92c1-.84,1.33-.76,2,.44A3.44,3.44,0,0,1,19.49,95.92Z"/><path class="h" d="M6.88,54.44c0,.4.7.89,0,1.18-.54.21-.7-.32-.82-.75Z"/><path class="ah" d="M178.76,79.42l-.92,1a20.69,20.69,0,0,1,.84-2.24c.21-.4.26,0,.33.17C178.92,78.71,178.84,79.06,178.76,79.42Z"/><path class="ad" d="M51.66,113.53l.43.24-1.76.85a1.67,1.67,0,0,1-.32,0c-.27-.11-.09-.19,0-.26A7.67,7.67,0,0,0,51.66,113.53Z"/><path class="ai" d="M86.41,78.34c1-1.26.83-2.69.66-4.13-.41-.48-.11-.84.18-1.25,1.78-2.45,3.82-4.7,5.65-7.11a2.28,2.28,0,0,1,.9-.55c1.37.26,2.24-.71,3.21-1.37s1.61-1.09,2.47,0c.21.27.7.33,1.06.48a25.41,25.41,0,0,0,4.95,1.07,18.93,18.93,0,0,1,4.91,1.92,1.94,1.94,0,0,1,.45,2.28c-.27.31-.61.15-.91.06a18.18,18.18,0,0,1-2.73-1c-.92-.48-1.48,0-2,.56a1.39,1.39,0,0,0,.08,2,3.39,3.39,0,0,0,1.22.86c.33.12.77.22.77.66a1,1,0,0,1-.78.94c-.54.2-1.1.35-1.65.53s-.9.3-1.09.8-1,.36-1.38.72c-1.53,1.34-3.3,2.43-4.39,4.25a2.43,2.43,0,0,0-.23,2.45,1,1,0,0,1-.29.78,23,23,0,0,1-4.11,4.54c-1.19.54-2.54.54-3.73,1.07a8.63,8.63,0,0,0-3,1.62c-.45.28-.88.52-1.37.09A2,2,0,0,1,85,89.05a3.47,3.47,0,0,1,1.75-1,1.28,1.28,0,0,0,1.12-1.47,3,3,0,0,1,1-2.63c.48-.42.3-.9,0-1.35A2.83,2.83,0,0,1,88,79.87a3.18,3.18,0,0,0-1.25.61.79.79,0,0,1-1-.09.65.65,0,0,1-.06-1C86,79.08,86.14,78.68,86.41,78.34Z"/><path class="aj" d="M102.71,47.7l-.22.43a38.06,38.06,0,0,0-5.63,2.75c-.9.48-1.12.21-1.23-.64-.14-1.18-.34-2.36-.5-3.54a1.44,1.44,0,0,1,.79-1.61c1.34-.79,2.63-1.66,3.92-2.52.36-.25.93-.34.92-1,.12-.94.82-1.37,2.17-1.3.52,1.46-.08,2.91-.08,4.37C102.84,45.68,102.72,46.69,102.71,47.7Z"/><path class="w" d="M102.93,40.31l-2.17,1.3c-1.93.93-3.86,1.83-5.76,2.79-.67.33-1,.25-1.12-.51-.3-1.6-.63-3.19-1-4.78-.15-.64.06-1,.68-1.08a8,8,0,0,0,1.9-.45,4.11,4.11,0,0,1,4.62.75A22.2,22.2,0,0,1,102.93,40.31Z"/><path class="ak" d="M87.06,71.16c-.19-.84-.08-1.72-.75-2.47-.32-.36,0-.9.59-1,1.72-.26,3.06-1.4,4.64-2,.44-.16.48-.57.52-1,.14-1.19.31-2.36.45-3.54a1.57,1.57,0,0,1,.43-1,3.24,3.24,0,0,1,4.25-.1l.31.3c1.85,1.62,1.85,1.61-.4,2.66a8,8,0,0,0-3.51,2.24,47.29,47.29,0,0,1-5.35,5.52A1.14,1.14,0,0,1,87.06,71.16Z"/><path class="af" d="M105.8,28.77a3.91,3.91,0,0,0-.09.64c0,.66.32.94,1,.62,1.21-.57,1.1-.56,1.17.66.09,1.57-.76,3.12-.06,4.7.17.39-.14.66-.55.77a10.18,10.18,0,0,0-1.55.44c-.65.28-1,0-1.17-.55-1-2.52-1.93-5-2.9-7.58-.5-1.29.69-1.39,1.32-1.82s1.08,0,1.32.62a1.08,1.08,0,0,0,1,.67C105.74,28,105.93,28.21,105.8,28.77Z"/><path class="w" d="M83.48,32.14c-1.26-.65-2.53,0-3.84.19-.2,0-.45.15-.59-.07s.09-.4.22-.55c1.66-1.95,3.31-3.9,5-5.84.22-.25.43-.68.85-.52s.24.57.34.87c.39,1.2,0,2.63,1.1,3.62,0,0-.07.26-.12.39A5,5,0,0,1,83.48,32.14Z"/><path class="w" d="M95.89,16.33l-2,6.29c-.18.6-.46.53-.83.16-1-1-1.94-2-2.92-2.92-.36-.36-.54-.71.06-1l5.41-2.71Z"/><path class="al" d="M87.06,71.16l6.53-5.86h.21l-6.21,8.08a8.88,8.88,0,0,0-.52.83L86,75.37c-.19-.67.2-1.11.23-1.6A11,11,0,0,1,87.06,71.16Z"/><path class="c" d="M14.71,90.94l-.87-.65a10.34,10.34,0,0,1-3.37-4.37c-.19-.5-.67-.48-1-.71-.34-.75-.68-1.51-1-2.28a1.33,1.33,0,0,1,0-1.21c.34-.25.74-.45.66-1,.52-.74,1.39-.91,2.12-1.32a10,10,0,0,0,1.18-1,3.32,3.32,0,0,1,3-1,3.06,3.06,0,0,0,2.78-1.15c.89-1,2.09-1.79,2.4-3.27.1-.49.62-.67,1.05-.87,2.24-1.1,4.48-2.2,6.73-3.28a2.75,2.75,0,0,0,1.13-1c.84-1.27,1.69-2.52,2.54-3.78a3.52,3.52,0,0,1,3.25-1.27c.67.17.27.57.12.83-.81,1.37-1.66,2.72-2.47,4.09-.19.31-.63.72-.24,1s.79-.12,1.13-.37a.84.84,0,0,0,.24-.22c1.72-2.35,4.16-2.47,6.63-1.89a3.79,3.79,0,0,0,3.88-1.21c.22-.22.58-.39.41-.79S44.5,64,44.21,64c-2-.36-3.91-.73-5.87-1.07a4.85,4.85,0,0,1-3-1.61c-.91-1-.77-2.45.58-2.73a5.34,5.34,0,0,0,3.88-3c.84-1.48,2.89-1.07,3.48.67.51,1.53,1,1.28-.74,2.4-1.12.74-2.23,1.49-3.34,2.25-.16.11-.37.25-.29.53.37.21.7,0,1-.14,1.83-.68,3.64-1.4,5.47-2.09a1.58,1.58,0,0,0,1.25-1.45,1.2,1.2,0,0,1,1.2-1.17c.65-.07,1.29-.16,1.93-.27.31-.06.76,0,.86-.35s-.36-.5-.61-.65c-.87-.53-1.76-1-2.64-1.51-.4-.24-.9-.49-.85-1s.7-.54,1.12-.63c1.32-.26,2.64-.48,4-.71.81-.14,1.18.15,1,1s-.38,1.62-.55,2.44c-.06.27-.21.59.06.81s.63,0,.9-.15a6,6,0,0,0,2.26-3.1,7.77,7.77,0,0,1,.44-1.11c.37-.56.87-.88,1.3-.06.28.52.62.49,1,.18,1.67-1.52,3.64-1.08,5.56-.85,1.68.21,3.36.5,5,.76.93.46,1,.77.38,1.52a6.68,6.68,0,0,1-1.39,1.21,5.64,5.64,0,0,0-2.08,2.45A2.73,2.73,0,0,1,63.67,58c-.3.11-.7.18-.64.6s.51.53.86.46c2.25-.44,4.62.08,6.83-.85a3.88,3.88,0,0,1,2.14,0c1.08.17,1.27,0,1.64-1.07a8.52,8.52,0,0,1,1.45-3,.49.49,0,0,1,.47.13,2.25,2.25,0,0,1,.87,1.08A7.73,7.73,0,0,1,79.68,59v.43a7.36,7.36,0,0,1-.57.88,8.5,8.5,0,0,1-2.19,1,2.74,2.74,0,0,0-1.06.69,4.28,4.28,0,0,0-.4.45,5.14,5.14,0,0,1-.55.35c-.92.58-1.3.45-1.92-.64,0,.48.29,1-.27,1.44s-1,0-1.46-.37A2.74,2.74,0,0,0,70,61.32c-1.49-1-1.79-1-3.27,0a42.15,42.15,0,0,1-7,3.9c-1.53.66-3,1.44-4.42,2.21a5.85,5.85,0,0,1-2.06.61,20.54,20.54,0,0,0-5.42,1.84c-1.66.7-2.46.36-3-1.38,0-.17-.06-.35-.1-.53s-.12-.46-.41-.38-.28.31-.26.54a1.49,1.49,0,0,0,.37.88c1.62,2,1.12,3.73-.24,5.59s-2.17,3.84-3.32,5.72a7.94,7.94,0,0,1-1.73,2.14c-1.44,0-2.72.79-4.13.92a4.42,4.42,0,0,1-1.81.12.88.88,0,0,1-.35-1.21,11.33,11.33,0,0,0,.6-1.5c-1.23,1.5-2,3.1-3.35,4.24-.26.22-.06.46,0,.69A4.89,4.89,0,0,1,30,86.84a1.31,1.31,0,0,1-.45.54,13.07,13.07,0,0,0-4.61,1,32,32,0,0,1-5.28,1.11,1,1,0,0,1-1.23-.76,3,3,0,0,1-.23-1.48c.25-.53.73-.49,1.21-.47a3.67,3.67,0,0,1,.82.22c3.1,1,2.84-.1,3.28-2.14.23-1.11.3-2.25.55-3.11a32.58,32.58,0,0,1-1.57,4.72,1.05,1.05,0,0,1-1.57.76c-1.74-.73-3.63-1-5.28-2A2.77,2.77,0,0,0,13,85a15.23,15.23,0,0,0,2.62.83c.51.16,1.09.27,1.14,1a12.79,12.79,0,0,0-.87,3.22,1.57,1.57,0,0,1-.56,1.13C15,91.32,14.84,91.16,14.71,90.94Z"/><path class="am" d="M11.23,79.42a11,11,0,0,0-1.74,1.52,1,1,0,0,1-.66.86c-.33,1.26.43,2.23.87,3.28a2.26,2.26,0,0,1,.89,2.82c-.7-.41-.72-1.21-1-1.83-.18-.35-.32-.73-.49-1.09-.26-.55-.39-1.31-.83-1.61-.71-.49-.69.81-1.33.81-1.65-2.41-1.83-5.22-2.29-8-.35-2.09.25-4,.75-5.91.36-.38.33-.9.51-1.35.12-.29,0-.85.57-.82,0,2.7,1.08,5.16,1.76,7.94.63-1,.35-1.89.87-2.91C9,73.9,9,74.4,8.94,74.89a6.91,6.91,0,0,0,.4,3.91c.38.78.67,1.16,1.49.59C10.91,79.33,11.09,79.41,11.23,79.42Z"/><path class="b" d="M76,54.22c-.33,1.1-.69,2.21-1,3.33-.19.71-.55,1.07-1.29,1-3.17-.29-6.17,1-9.31,1-.47,0-.94.08-1.4,0-.66-.06-.91-.51-.92-1.13a.85.85,0,0,1,.9-1,2.39,2.39,0,0,0,2.28-1.67C65.79,54.55,67,53.94,68,53.1c.48-.41,1.41-.8.58-1.71h.65l.65.22c1.32.6,1.44,1.9,1.73,3.07.38,1.5-1.22,2-1.9,3.23a28.14,28.14,0,0,1,3.73-.4c.56-.08.83-.54,1-1s.25-1.05.45-1.56S75.29,53.91,76,54.22Z"/><path class="q" d="M58.82,46.18a7.78,7.78,0,0,1,2.83.46c1.13,1.11,2.64,1.65,3.9,2.57h0a1.59,1.59,0,0,1-1.73,0,5,5,0,0,0-2.24-.2,29.69,29.69,0,0,0-3.89,0,5.75,5.75,0,0,1-4.4-1.68c-.28-.22-.55-.42-.12-.74.74.42,1.49,0,2.23,0A13.17,13.17,0,0,0,58.82,46.18Z"/><path class="k" d="M19.84,62.14l-2.61,5.55a.8.8,0,0,1-.83.41,27.06,27.06,0,0,0-3.12-.17c-.38,0-.71-.21-.27-.58,2.17-1.82,4.37-3.62,6.55-5.43Z"/><path class="af" d="M6.68,67a9.51,9.51,0,0,0,1.54-2.72,3.32,3.32,0,0,1,2.54-2.21c1.57-.32,3.11-.84,4.68-1.27.1.41-.21.47-.38.6L7.44,67c-.23.16-.45.38-.78.3a.13.13,0,0,1,0-.15S6.66,67,6.68,67Z"/><path class="l" d="M22.75,46.39l1.3-.23c-1.78,1.34-3.92,2.07-5.71,3.4-.25.2-.54.35-.81.53l-2,1.2-.14-.15,1.29-1.48C18.21,47.66,20.48,47,22.75,46.39Z"/><path class="an" d="M6.68,67c0,.07,0,.14,0,.21l-.19,0c-.57-.52.09-1.19-.23-1.75A6.59,6.59,0,0,1,7.43,62.1l1.83-3.54.23-.22c.29-.08.58-.71.87,0A20,20,0,0,0,6.68,67Z"/><path class="ah" d="M38.39,46.8c.85-.12,1.51-.8,2.39-.84l-2.72,1.7h5.07a2.35,2.35,0,0,0,0,.26l-8.26.74-.07-.15,1.62-.81c.16-.66.56-.7,1.09-.44Z"/><path class="ao" d="M10.36,58.34c-.29-.18-.58,0-.87,0A11.61,11.61,0,0,1,13.62,53L10.8,57.69C10.65,57.91,10.51,58.13,10.36,58.34Z"/><path class="ap" d="M6.24,65.52c.33.55.16,1.17.23,1.75l0,.85c-.29.89-.59,1.78-.9,2.68-.23-.15-.15-.35-.18-.51C5.65,68.7,5.94,67.11,6.24,65.52Z"/><path class="m" d="M37.52,47.26l-1.09.44c-.47-.29-.59-.77-.15-1S37.3,46.64,37.52,47.26Z"/><path class="b" d="M63.82,49.21h1.73c-.47.83-1.21.55-1.86.39C63.47,49.54,63.65,49.3,63.82,49.21Z"/><path class="aq" d="M139.65,76.6a11.62,11.62,0,0,1,.65,3.6c0,.68-.06,1.38,0,2,.4,3.49-.69,6.79-1.21,10.15a2,2,0,0,1-1.63,1.78c-.74.16-1.45.44-2.17.67a7.61,7.61,0,0,0-3.19,1.71,10.4,10.4,0,0,1-.93.71c-.36.21-.75.42-1.16.14a1,1,0,0,1-.33-1.17,14.73,14.73,0,0,1,.65-1.83A2.18,2.18,0,0,0,130,92a17.76,17.76,0,0,1-2.79-3.55c-.25-.78.52-1.32.45-2.12a8.27,8.27,0,0,0-.15-1.64,7.6,7.6,0,0,1,1.24-3c.44-.77,1.17-.79,1.57,0s.82.62,1.36.27a12.14,12.14,0,0,0,1.87-1.64,37.5,37.5,0,0,1,4.93-4.31A2.6,2.6,0,0,1,139.65,76.6Z"/><path class="ag" d="M135.09,102.25l-.41.21a5.87,5.87,0,0,1-2.4-.6c-1.3-.42-2.57-.94-3.9-1.29-.49-.12-1.12-.2-1.12-.95l2.83-1.52c.23-.58.82-.68,1.28-.91a9.94,9.94,0,0,1,4.48-1.06c.44.37.29.71-.11.94s-.82.69-1.24.89a11.93,11.93,0,0,1,2.65-1.63c-.3,0-.46,0-.56-.2a27.1,27.1,0,0,1,3.49-3,.63.63,0,0,0,.65-.28c.78-.92,1.76-1.64,2.52-2.57a12.67,12.67,0,0,1-1.51,1.51c-.22.19-.42.51-.79.25a21.79,21.79,0,0,1,1.69-3.51,3.65,3.65,0,0,0,.39-3.1,3.47,3.47,0,0,1-.22-1.92,32.93,32.93,0,0,1,3.09,4c.23.33,0,.64-.24.86-1.87,1.62-2.46,3.89-2.88,6.15-.35,1.88-1.75,2.9-2.93,4A58.36,58.36,0,0,1,135.09,102.25Z"/><path class="ar" d="M164.42,90.72c1.26,1,1.26,1,.11,2.16-.38.38-.78.74-1.17,1.11-1.07.37-1.22.29-1.48-.76.24,1.41-.32,2.68-.47,4a1,1,0,0,1-.68.89l-3.26,1.08c-.26-.22-.61-.19-.77-.26a1.79,1.79,0,0,1,.77.26l-3.75,1.88-.19-.23a11.63,11.63,0,0,1,1.36-1.27c.84-.57.74-.94-.13-1.3a3.73,3.73,0,0,1-.54-.37c.14-.07.23-.14.26-.12,1.17.74,2.07.19,3.12-.45,2.46-1.5,2.47-1.61,2.19-4.46a9,9,0,0,0-1.72-4.24c-1-1.5-.87-2.65.44-4,1.89-1.89,3.07-4.28,4.4-6.55.6-1-.32-3.56-1.32-4.41-1.18-1-2.28-2.11-3.5-3.08-1-.8-1.37-2-2.14-2.94l1.1-1.09,2-.61c-.07.16-.07.25-.11.27-1.74.79-1.74,1.11,0,2.75a2.53,2.53,0,0,1,1,.74c1.1,1.43,2.12,2.92,3.21,4.36a8,8,0,0,1,1.26,5.26c0,1.14-1,1.72-1.58,2.5a9.36,9.36,0,0,0-2.89,3c-.59.78,0,2.66.85,3.12.82.64,1.75,1.08,2.6,1.65C163.87,89.94,164.4,90.11,164.42,90.72Z"/><path class="f" d="M139.65,76.6l-1.3-.22a3,3,0,0,1-2,0c-1.64-.44-3.32-.69-4.94-1.18-.1,0-.17-.13-.26-.18-1.33-.82-1.34-1.31,0-2.17a3.18,3.18,0,0,1,.82-.47.23.23,0,0,1,.27.06h1.28c-.92-.29-.55-.66-.11-1a2.56,2.56,0,0,1,1.09-.45c1.06-.22,2.14-.38,3.17-.69a12.7,12.7,0,0,1,5.94-.21,7.31,7.31,0,0,0,3.19-.22,17.87,17.87,0,0,1-3.06,2,7.12,7.12,0,0,0-1.91,1.38,6.55,6.55,0,0,1-2,1.64C139,75.36,138.88,75.92,139.65,76.6Z"/><path class="m" d="M136,96.38a54.74,54.74,0,0,0-5.87,1.72l-.43-.43a26.61,26.61,0,0,1-4.92-4.74c-.22-.28-.46-.55-.34-1,.73-1.11,1.58-2.15,2.22-3.33.2-.37.46-.51.86-.31,1.1,1.28,2.17,2.58,3.31,3.83a1.37,1.37,0,0,1,.34,1.65c-.28.7-.54,1.41-.77,2.13-.11.35-.46.79,0,1.07s.64-.19.91-.4.74-.58,1.08-.89a3.07,3.07,0,0,1,3-.87c-.46.31-.69.61.06.81.38.1.81,0,1,.48C136.33,96.35,136.2,96.47,136,96.38Z"/><path class="as" d="M160.73,98.11c.36-2,.71-4.07,1.11-6.35.33.84.09,1.63.74,2,.32.19.38-.34.63-.46.22.2.09.47.15.69v.19a2.12,2.12,0,0,1,0,2.64l0,.2c-.77,1.31-1.54,1.64-2.59,1.09Z"/><path class="ar" d="M160.73,98.11A8.11,8.11,0,0,0,163.32,97c0,1.14,0,2.29,0,3.44,0,.2,0,.47-.17.58s-.42-.11-.53-.27C162,99.86,161,99.29,160.73,98.11Z"/><path class="o" d="M163.35,96.82V94.18l2.36.67A6.2,6.2,0,0,1,163.35,96.82Z"/><path class="ap" d="M141,92c1.12-.88,2.19-1.81,3.36-2.66L140,94.22l-.18-.12c.1-.33.2-.66.29-1Z"/><path class="at" d="M136,96.38l.43-.24h.2l1.57-.33a16.66,16.66,0,0,1-4.58,2.67Z"/><path class="au" d="M157.3,100a4.78,4.78,0,0,1-1.17,3A10.51,10.51,0,0,1,157.3,100Z"/><path class="p" d="M121.62,90.94c.33,1.16-.65,1.67-1.23,2.33-.31.35-.68,0-.85-.31-.41-.81-.61-.43-.86.11a2.53,2.53,0,0,0-.15,2.47,1.82,1.82,0,0,1,.21,1.37,4.59,4.59,0,0,0,.2,2.77,1.74,1.74,0,0,1-1,2.4c-.3.16-.66.3-.8.69.8.85,1.79.46,3,.3-.93.84-1.93.85-2.69,1.34a.85.85,0,0,0-1-.33,7.72,7.72,0,0,1-1.91.27c-2,.11-3.76.57-5,2.24a2.28,2.28,0,0,1-.71.5c-.86.54-1.09.47-1.7-.46a.72.72,0,0,1,0-.5,28.24,28.24,0,0,1,2.27-2.09,1.26,1.26,0,0,0,.48-1.43c-.25-1.24-.87-2.42-.64-3.74.06-.36-.26-.47-.51-.61a1.47,1.47,0,0,0-1.13-.24c-1.48.27-3,.46-4.46.71-1.07.18-1.66,1.07-2.47,1.65a7,7,0,0,0-1.06.9c-.54.56-1,1.24-2,1a1.19,1.19,0,0,1-.65-.93c-.56-2.24-1.53-4.42-1.18-6.81a3.71,3.71,0,0,1,.22-1,3.8,3.8,0,0,0-.4-3.62c-.21-1,.74-1.38,1.22-2C98.68,87.31,100,86,101.47,85c.58-.41,1-1.17,2-.93.55.44.27,1,.15,1.5-.46,2-1.1,3.88-1.58,6a7.68,7.68,0,0,0,1.68-1.32c1.52-1.22,3-2.53,4.43-3.81.63-.56.57-.8-.19-1.16s-1.76-.64-2.62-1c-.43-.19-.87-.37-.92-.94a.83.83,0,0,1,.39-.83,30.71,30.71,0,0,0,4.47-3.81A6.82,6.82,0,0,0,113.6,78a1,1,0,0,1,.64-.13c2.09.38,4.21-.21,6.3.21.67.14,1.15.45.91,1.15a1.58,1.58,0,0,0,1,2.27c.09,0,.12.17.16.27s.07.46.12.68a1.11,1.11,0,0,1-.22.66c-1.66.77-.95,2.08-.74,3.27,0,.16,0,.32,0,.48-.22.65-1,1.1-.75,1.93a1.35,1.35,0,0,0,.47,1.64A.6.6,0,0,1,121.62,90.94Z"/><path class="p" d="M87.5,112.23c-.36-.58-.72-1.15-1.08-1.74a.36.36,0,0,1-.12-.28c.07-.33.42-.46.53-.77a5.62,5.62,0,0,0,2.67-2.09A4.58,4.58,0,0,0,91.06,106a4.71,4.71,0,0,1-.5.56c-.21.2-.43.46-.74.21a.62.62,0,0,1-.1-.8,14.4,14.4,0,0,0,.88-2.32,5.75,5.75,0,0,0,0-3.62c-.37-1-.24-2.14-.7-3.14a1.4,1.4,0,0,1,.17-1.15c.28-.59.53-1.19.78-1.79a2.81,2.81,0,0,1,1.5-1.53,7.2,7.2,0,0,0,2.62-2c.5-.65.73-.55,1.11.18a4.18,4.18,0,0,1,.13,3.09c-.44,2.24-.36,4.55-1,6.76a1.32,1.32,0,0,0,.65,1.56c.38.26.86.39,1.09.85.16.84-.7,1.63-.14,2.5.23,1.35,1,2.54,1.24,3.89.11.57.49,1.17-.07,1.73-1.79-.15-3.59-.3-5.39-.42-.33,0-.81-.14-.93.31s.34.51.55.74a1.85,1.85,0,0,0,.33.29c1.29,1,1.29,1-.19,1.76-.31.15-.56.33-.52.72s.43.94-.26,1.06-1.29,0-1.52-.56c-.29-.79-1.44-1.56-.26-2.54a.47.47,0,0,0,0-.69.57.57,0,0,0-.87.06A1.51,1.51,0,0,1,87.5,112.23Z"/><path class="af" d="M97.93,110.93l-1.74-5.65a6.58,6.58,0,0,1,3.6-.14,37.06,37.06,0,0,1,3.86,1.13,35,35,0,0,1-5.17-1.85c-.35-.19-.76-.29-.85-.76.06-.56-.47-1.22.3-1.64a7.8,7.8,0,0,0,1.52-1.09c.48-.23.82,0,1.16.31,1.79,1.44,3.55,2.9,5.24,4.45a4.33,4.33,0,0,0,1.64.89.65.65,0,0,0,1,.16,4.06,4.06,0,0,0,.85-.65,5.68,5.68,0,0,1,4.77-2.22,19.07,19.07,0,0,0,2.24-.29c.62-.07,1.07.11,1.12.83-2.36.89-4.72,1.77-7.06,2.69A97.36,97.36,0,0,1,100,110.31C99.31,110.49,98.62,110.72,97.93,110.93Z"/><path class="c" d="M132.06,102.24c-1.48,1.15-2.92,2.36-4.43,3.46a15,15,0,0,1-7.37,2.85,9.91,9.91,0,0,0-1.07.17c-.85.17-1.27.48-.33,1.19-.33.3-.59.07-.83,0-.82-.23-.93-.56-.33-1.28,1.85-2.24,3.57-4.59,6.09-6.17.28-1.15,1.32-1,2.12-1.16a5.63,5.63,0,0,0,1.94-.6,3.09,3.09,0,0,1,.91,0,22.7,22.7,0,0,0,2.81.84.68.68,0,0,1,.54.37A.34.34,0,0,1,132.06,102.24Z"/><path class="ad" d="M121.62,90.94l-.43-.22s-.12-.11-.12-.18a2.4,2.4,0,0,0-.75-2,7.43,7.43,0,0,1,1.06-1.75c.46-.53.72-.18.94.23a10,10,0,0,1,.7,2,1,1,0,0,0,1,.81c.72.45.51,1.27.79,1.9a.56.56,0,0,1-.09.31c1.53,2,3.5,3.6,5,5.63A10.73,10.73,0,0,1,126,95.25C124.6,93.76,123.08,92.37,121.62,90.94Z"/><path class="av" d="M132.05,102l-.44-.23a13,13,0,0,0-2.83-.63h-.85c-.48,0-1,.09-1.44,0s-1,0-.95-.7c.68-.09,1.1-.69,1.72-.89l6.16,2.24a3.49,3.49,0,0,1,1.26.6h0C133.65,103.12,132.84,102.6,132.05,102Z"/><path class="q" d="M125.54,100.51c.72.47,1.63.3,2.39.66-1.33.6-2.85.58-4.14,1.28l-2.5.48-.05-.12Z"/><path class="ag" d="M132.05,102l2.61.45a1.92,1.92,0,0,1-1.53.87c-.36-.37-.71-.74-1.07-1.1C132.06,102.16,132.05,102.09,132.05,102Z"/><path class="ar" d="M121.94,96.81l1.51,2A2.75,2.75,0,0,1,121.94,96.81Z"/><path class="a" d="M108.8,43.79c-.31,0-.71,0-.74-.42a.86.86,0,0,1,.74-.89Z"/><path class="a" d="M39.26,82c1.55-2.23,2.66-4.72,4.06-7a11.38,11.38,0,0,0,1.56-2.71,2.06,2.06,0,0,0-.22-2A15.84,15.84,0,0,1,43.82,69c-.83-1.45-.77-1.61.66-2.42.64-.37.85-.13.86.51a4.14,4.14,0,0,0,.31,1.9c.38.74.84,1,1.65.59a20.5,20.5,0,0,1,4.43-1.74c5.56-1.43,10.41-4.33,15.23-7.28,1.3-.8,3.91-.05,4.49,1.32.15.36,0,.71,0,1.07-1,.47-1.8,0-2.64-.36-.29-.13-.61-.45-.88-.17a7.23,7.23,0,0,1-2.29,1.14,2.82,2.82,0,0,0-1.33,1.66c-.64,1.74-1.2,3.5-1.77,5.25a1.38,1.38,0,0,0,.05,1.27,2.55,2.55,0,0,1,.21,2.75.5.5,0,0,0,0,.6.44.44,0,0,0,.49-.14c1.15-1.2,2.77-1.7,4.06-2.68.39-.3.86-.49,1.28-.06s.23.8,0,1.2c-.06.13-.16.25-.21.38-.12.28-.21.59.12.77s.47-.08.61-.3.34-.65.76-.71a.72.72,0,0,1,.49.13,5.9,5.9,0,0,1,0,3.76c-.06.24-.27.44-.09.71a5.53,5.53,0,0,1-1,2.9,1.41,1.41,0,0,1-1.1.6,27.28,27.28,0,0,1-3.06.64c-1.94.18-3,1.49-4.14,2.82-2.42,2.26-5.56,3.18-8.43,4.58A1,1,0,0,1,51.2,88.3a15.59,15.59,0,0,1,1.64-2.79,2.77,2.77,0,0,0,.68-1.26c.31-.71,1-1,1.54-1.48s1-.77,1.17-1.48c.68-.7,1.46-1.28,2.39-2.08a33.86,33.86,0,0,0-3.86.92.46.46,0,0,0-.38.36c0,.27.2.36.39.44.45.2,1,.18,1.16.83-.1.56-.59.78-1,1.07-1,.7-1.76,1.6-2.74,2.29a2.66,2.66,0,0,0-.79,1.34A10.24,10.24,0,0,1,48.61,89H47.3a.85.85,0,0,1,.12-1.39c1.58-1.18,2.29-3,3.32-4.59.5-.78.4-.95-.66-1.51-.19-.71.32-.88.82-1s.8-.06,1.1-.39a2.56,2.56,0,0,0-2.26,1.57,2.58,2.58,0,0,1-2.47-.2,4.24,4.24,0,0,0-2.76-.1,11.12,11.12,0,0,1-2.37.16,1.84,1.84,0,0,0-1.72.7.71.71,0,0,1-.35.13.83.83,0,0,1-.71-.15Z"/><path class="c" d="M75.54,118.32c-3.28-.07-6-2.06-9.06-2.78a21.86,21.86,0,0,0-3.72-.67,7.8,7.8,0,0,1-4.6-2.21c-.31-.27-.36-.52,0-.82.15-.14.39-.29.21-.52s-.41-.1-.62,0l-1.57.41a.57.57,0,0,1-.74-.28c-.13-.31.16-.43.35-.59l2.44-1.93-.16-.22c-.81.61-1.65,1.19-2.44,1.82a1.94,1.94,0,0,1-2.48-.08c-.67-.46-1.8-.94-1.18-2.2.16-.33,0-.55-.27-.74s-.06-.55.15-.78a11,11,0,0,1,1-1.15,6,6,0,0,0,2.32-4.78,1.51,1.51,0,0,1,1-1.4,3,3,0,0,0,.94-.59l.43.44.61.32A.68.68,0,0,1,58,99v-.22c-.18-.75.22-.94.87-.87h.43a6.14,6.14,0,0,0,2-.9,1.82,1.82,0,0,1,1.32-.26,7.33,7.33,0,0,0,1.08,2.51c.45.63-.14,1.31-.7,1.7A5.93,5.93,0,0,1,60.47,102c-.76.13-1,.23-.86,1.19a10.24,10.24,0,0,0,1.12,3.33,2,2,0,0,0,1.12,1,13.45,13.45,0,0,1,3.21,1.28c.36.27.77,0,1.14-.11,1.79-.57,3.55-1.25,5.37-1.71a3.53,3.53,0,0,1,2.11.07c3.45,1.12,3.45,1.1,5.78-1.71a1.1,1.1,0,0,1,.34-.27.77.77,0,0,1,.34,0,.91.91,0,0,1,.55.5c.6,1.31,1.24,2.6,1.71,4a3.52,3.52,0,0,1-1,4A56.65,56.65,0,0,1,76.73,118C76.37,118.16,76.07,118.6,75.54,118.32Z"/><path class="h" d="M62.51,96.81a2.18,2.18,0,0,0-1.37.52,2.31,2.31,0,0,1-1.89.56,13.39,13.39,0,0,1,2.67-1.35c1.33-.57,2.49-1.54,3.79-2.2,1.11-.57,2.12-1.54,3.38-1.58a27.63,27.63,0,0,1,4.06-.3c1.38,1.39,2.42,3.07,3.9,4.37a.53.53,0,0,1,.31.37A3.57,3.57,0,0,0,77.79,99c.21.62.74,1.19.34,1.92-.07.08-.17.2-.26.18a2.58,2.58,0,0,0-2.53.52c-.37.34-1,0-1.23-.54a7.69,7.69,0,0,1-.43-1.22,3.93,3.93,0,0,0-5.52-2.27,1,1,0,0,1-.92.09,8.41,8.41,0,0,0-3.19-.39C63.5,97.31,62.87,97.44,62.51,96.81Z"/><path class="p" d="M57.08,98.76c-.07.17-.1.4-.23.48-1.38.85-1.34,2.28-1.48,3.61a2.14,2.14,0,0,1-.73,1.5c-1.1.94-1.84,2.22-3,3.11-.58.81-1.55,1.37-1.66,2.52,0,.21-.31.26-.52.3-.33.21-.69.17-.84-.15-.44-.92-1.27-1.59-1.65-2.54a15.8,15.8,0,0,1-.17-1.59c.14-1.34.6-2.25,2.09-2.44a.92.92,0,0,0,.79-1.2.7.7,0,0,1,.22-.77l2.17-2C53.8,99.64,55.39,98.89,57.08,98.76Z"/><path class="c" d="M48.61,89c0-.7.61-.92,1-1.32L51,86.16c.8-.37,1.18-1.21,1.9-1.68.28-.19.5-.59.93-.29-.2,1.34-1.16,2.31-1.71,3.48-.22.49-.89,1-.4,1.52s1-.23,1.45-.43c2.67-1.1,5.24-2.41,7.83-3.69-1.34,1.52-2.69,3-4,4.56-.8.94-1.92.88-3,1.09a5.59,5.59,0,0,0-2.59.65.36.36,0,0,1-.26.11c-.16,0-.26-.13-.18-.32C50.32,90.3,49.92,89.14,48.61,89Z"/><path class="b" d="M76,54.22c-.72.53-.69,1.38-.9,2.13-.45,1.57-.69,1.8-2.33,1.76a14.55,14.55,0,0,0-3.09.42c-.35.07-.84.37-1.07-.11s.26-.61.48-.87.31-.31.46-.46c1.9-1.9,2-3.23.37-5.48l3.69,1.52c.18.45-.4.41-.47.72.62.12.56-.4.69-.72.92.24,2,0,2.61,1.09Z"/><path class="ao" d="M77.29,67l-1.09.65c-.38,1.09-1.47,1.27-2.3,1.8-.84.32-1.5,1-2.33,1.32-1.11.46-1.42.31-1.56-.85a8.36,8.36,0,0,1-.21-1.49c.1-.7.66-1.08,1.1-1.53.72-.75,1.46-1.47,2.18-2.23a3.17,3.17,0,0,1,.91-.37c1,0,1.29.89,1.87,1.43a.51.51,0,0,0,.65,0,.67.67,0,0,1,.92.17A.91.91,0,0,1,77.29,67Z"/><path class="b" d="M73.81,69a13.83,13.83,0,0,1,2.39-1.3,1.25,1.25,0,0,1,.21,1.88c-1.34,2.05-2.63,4.12-3.93,6.18a1.34,1.34,0,0,1-.84.63.42.42,0,0,1-.31-.53,21.14,21.14,0,0,0,1.06-3.27A12.52,12.52,0,0,1,73.81,69Z"/><path class="b" d="M75.12,62l.21-.44c.15-.21.29-.38.61-.33A3.39,3.39,0,0,0,79,60.08l.65-.65c-.35,1.28-.69,2.56-1,3.83a1,1,0,0,1-.7.74,2.68,2.68,0,0,1-3.27-.23C74.31,63.06,75,62.61,75.12,62Z"/><path class="ad" d="M74.9,63.57a10.39,10.39,0,0,0,3,.43l.79.33c-.11.47-.64.56-.79,1-.25.22-.35.65-.81.54-.75-.45-1,.64-1.58.55A5.6,5.6,0,0,0,74,64.65C73.78,63.73,73.92,63.55,74.9,63.57Z"/><path class="aw" d="M56.63,95.7,65.06,94l.06.21-7.4,2.4C57.43,96.19,56.62,96.45,56.63,95.7Z"/><path class="ar" d="M71.43,75.94l.21.44c0,.91-.86,1.16-1.3,1.73-.61,0-.34-.41-.32-.69.1-1.22.21-2.43.31-3.65a.61.61,0,0,1-.15-.49c.06-.4-.05-1,.48-1s.6.46.67.83C71.52,74,72,75,71.43,75.94Z"/><path class="ax" d="M56.63,95.7c.33.34,1.06.17,1.09.87a9.63,9.63,0,0,0-4.56,1.79,1.22,1.22,0,0,1,.67-.92c.27-.12.21-.14.09-.59s.4-.44.55-.7C55.17,95.91,55.82,95.44,56.63,95.7Z"/><path class="b" d="M73.81,53.13c.22.3.84.35.7.84s-.69.59-1.12.73a.87.87,0,0,1-1.06-.52l-.24-.48c-.11-.21-.37-.44-.21-.67s.51,0,.77,0a1.77,1.77,0,0,0,.94.08Z"/><path class="b" d="M79.68,59l-2.39-3.7A4.15,4.15,0,0,1,79.68,59Z"/><path class="h" d="M58.82,97.89c-.29.29-.74.42-.87.87-.06-.13-.18-.26-.18-.39,0-.49-.78-1.09-.09-1.41S58.48,97.51,58.82,97.89Z"/><path class="q" d="M51.22,91.37h.21a2.9,2.9,0,0,0,.67.31c1,.25,1.07.86.62,1.65A2.81,2.81,0,0,1,51.22,91.37Z"/><path class="h" d="M58,99a4,4,0,0,1,1.24,1.73,3.68,3.68,0,0,1-1.68-1.51Z"/><path class="ay" d="M51.22,91.37l1.5,2a1.49,1.49,0,0,1,0,.21A2.86,2.86,0,0,1,51,91.16Z"/><path class="b" d="M77.07,65.73l.87-.44c-.09.63.24,1.41-.65,1.75a2.23,2.23,0,0,0-.23-1.1.12.12,0,0,1,0-.14S77.06,65.73,77.07,65.73Z"/><path class="l" d="M109.25,79c-.72,1.66-2.27,2.47-3.58,3.53l-1,.8c-.23.59-.52,1.1-1.3.88l-6.08,4.14c-.43-.44-.22-.79.17-1.08,2.1-1.54,4-3.3,6.06-4.77-.22.05-.43.53-.85.25-.37-.55.09-.86.37-1.21a24.58,24.58,0,0,1,4.21-3.88,19.07,19.07,0,0,0,3.62-3.56,1.53,1.53,0,0,0,.47-1.37c-.13-.5.12-.74.66-.65a3,3,0,0,0,1.59,0l1.08-.22a1.18,1.18,0,0,0,.84.42L126,73.79c.83.4,1.77.21,2.61.56-.78-.32-1.67-.13-2.42-.58l1.32-1.72a2.93,2.93,0,0,1,1.52.18c1,.36,2.06-.11,3.06.27-.51.55-1,1.1-1.39,1.5-.23.91,1.36-.46.71.86.16.56-.23.89-.58,1.18-1,.87-2.06,1.71-3.06,2.6a2.85,2.85,0,0,1-.55.35c-.3.18-.61.29-.88,0s0-.61.19-.85a1,1,0,0,1,.34-.24,2.87,2.87,0,0,0-1.15,1.69,3.6,3.6,0,0,1-.82,1.38.8.8,0,0,1-.3.09c-.51,0-.66.43-.92.75s-.62,1.13-1.41.67l0-.64c-.6-1.39-.47-2.28.44-3.15a.44.44,0,0,1,.53.46c.13-.49-.44-.54-.6-.86-.21-.53.16-.9.41-1.28s.75-1,1.11-1.47.35-.89-.41-1c-1.43-.2-2.87-.28-4.31-.43s-2.67-.17-4-.43a2,2,0,0,0-2.17.84c-.47.65-1,1.22-1.52,1.84-.29.36-.58.77-1.16.61a.39.39,0,0,1-.11-.64c-.24.79-1,1.48-1.07,2.44Z"/><path class="az" d="M113.58,72c-.52.32-1.13.15-2,.3,1.11.17,1,.46.59,1-1.89,2.7-4.57,4.57-7,6.72-.89.78-1.64,1.71-2.46,2.57-.12.92-1.08,1-1.53,1.63s-1.37.72-2.05,1.1a2.35,2.35,0,0,0-1.3,1.46c-.93.66-1.64,1.7-2.93,1.76a12.39,12.39,0,0,0-1.53-1.17l4.13-5a2,2,0,0,1,1-1.33c2.09-1.57,4.14-3.21,6.22-4.82a2.73,2.73,0,0,1,1.66-.59c1.28-1,2.62-1.91,3.8-3S112.39,71.92,113.58,72Z"/><path class="w" d="M106.4,75.73,98.24,82a6.79,6.79,0,0,1-.74.43,1.21,1.21,0,0,1-.41-1.78,8.22,8.22,0,0,1,2.28-3.08,27.47,27.47,0,0,0,2.55-2.16,1.68,1.68,0,0,1,1.88-.38A9.29,9.29,0,0,1,106.4,75.73Z"/><path class="a" d="M85.12,40.57a2.92,2.92,0,0,1,1.43,1.7c.23.63-.67.79-1.09,1.13a.48.48,0,0,1-.4,0c-.45-.23-.72-2.31-.33-2.62A1.76,1.76,0,0,1,85.12,40.57Z"/><path class="ba" d="M132.07,72.5c-1-.19-2.08.26-3.06-.27h.41c.94.12,1.92-.19,2.84.24Z"/><path class="ag" d="M76.42,117.67c1.65-1.62,3.27-3.27,5-4.83a2.24,2.24,0,0,0,.68-2.51c-.45-1.77-1.49-3.29-2-5-.29-.59.15-.85.52-1.11a1.22,1.22,0,0,0,.48-1.5,28,28,0,0,1-1-3.73c.58-1.77,1-2,2.89-1.34a2.06,2.06,0,0,1,.28,1.64c-.12,1.54-.34,3.11.78,4.44a5.6,5.6,0,0,0,.4.9c0,.56-.42.89-.66,1.32s-.66,1.07-.08,1.56,1,0,1.43-.3a5.42,5.42,0,0,1,1.28-.78.84.84,0,0,1,1,.11.83.83,0,0,1,.16,1.09c-.61.81-.68,1.85-1.19,2.69,0,.07,0,.14,0,.21a29.45,29.45,0,0,0-3.26,4.13c-.09-.26-.07-.58-.33-.74-1.25,1-2.5,2-3.72,3-.49.41-1.12.73-1.34,1.38-.5,1.47-1.84,1.86-3.07,2.15a17.5,17.5,0,0,1-2.63.53c.18-.23.14-.37-.17-.44a6.43,6.43,0,0,0-2.14-.19,4.77,4.77,0,0,1-3.36-1c1.49.24,3,.42,4.45.73a3.64,3.64,0,0,0,3.6-.8C75.32,119,76.28,118.84,76.42,117.67Z"/><path class="q" d="M47.29,107.47a11.46,11.46,0,0,0,2.18,2.81c.22.67.94,1,1.08,1.76-.3,0-.57.06-.25.42a8.57,8.57,0,0,0,.7.64,4.77,4.77,0,0,0-4.33.15c-1.17.58-2.09-.61-3.18-.85,0-.1,0-.2,0-.31h5.62c-.75-2.38-2.78-1.39-4.48-2h1.57c.56-.46.91-1,.53-1.73a.67.67,0,0,1,.27-.92A.23.23,0,0,1,47.29,107.47Z"/><path class="aa" d="M76.42,117.67c.31.11.64.21.41.66a1.83,1.83,0,0,1-2.38.85c.14-.57.76-.54,1.09-.86Z"/><path class="ab" d="M53.84,113.11a4.68,4.68,0,0,1-2.85-.86l4.15.31c0,.09,0,.19,0,.28Z"/><path class="c" d="M86.41,78.34c0,.6-.88,1.26-.35,1.65s1-.49,1.58-.8a11.45,11.45,0,0,0,1-.7c.26.13.27.29.22.42a3.13,3.13,0,0,0,.81,3.91c.53.52.38,1.07-.22,1.44a2.38,2.38,0,0,0-1.08,2.32c0,1.64,0,1.64-1.66,2.07L85.33,89c-.64-.35-.48-1-.44-1.5,0-.38.28-.71.22-1.1a3.38,3.38,0,0,0-.36-.54,2.13,2.13,0,0,1-.18-3.18,1,1,0,0,0,.15-.29c.11-.29.43-.59.18-.89s-.54.3-1,0A22,22,0,0,1,86.41,78.34Z"/><path class="ac" d="M94.89,88.32a24,24,0,0,0,2.6-1.73c.49-.91,1.5-1.16,2.24-1.75.39-.31.85-.54,1.24-.86l1.74-1.3c.72-.18,1.2-.76,2-1-.8.7-1.59,1.41-2.39,2.09-1.5,1.29-3,2.56-4.52,3.83a1.3,1.3,0,0,0-.48.69c-.47.47-1.15.76-1.29,1.52a2.25,2.25,0,0,0-1,.56,8.33,8.33,0,0,1-5.61,2.78,22.72,22.72,0,0,0-3,.56,2.16,2.16,0,0,0-1.41.73c-.65.38-1.07,1.07-1.83,1.29A1.25,1.25,0,0,1,82,94.47c0-.39-.07-.42-.47-.4-.76,0-1.36-.25-1.22-1.2.63-.34,1.38,0,2-.4.16-.59.69-.66,1.14-.84,1.7.17,3.15-.65,4.64-1.23,2-.79,4.13-1.37,6.15-2.16A1.62,1.62,0,0,1,94.89,88.32Z"/><path class="as" d="M80.3,92.87a1.32,1.32,0,0,0,2,.4.87.87,0,0,1,.93,0c.25.15.41.47.08.57-1.55.48-.45,1.07-.11,1.64.68.47,1.11,1.19,1.76,1.69a.71.71,0,0,1,0,1.14,1.74,1.74,0,0,1-2-.43,3,3,0,0,1-.42,0c-1-.14-1.9-.1-1.76,1.31,0,0-.08,0-.09,0a5.88,5.88,0,0,0-3.21-1.4c-.27,0-.3-.37-.38-.6l0-.42c.38-1.3.43-2.5-1.17-3.31,1-.19,1.54.63,2.28.25.5-.28.87-.19,1.06.39s.42.79,1,.69c-.94-.19-1.2-.66-.93-1.73L79,92.24l.22,0C79.6,92.44,79.86,92.8,80.3,92.87Z"/><path class="bb" d="M83.59,92.23l-1.29.24c-.67-.11-.42-.45-.38-.93.2-2.28,1.81-3.64,3.19-5.16a7.12,7.12,0,0,1,.22,2.6l.22,1.53a.69.69,0,0,1-.47,1.06C84.55,91.74,84.12,92.09,83.59,92.23Z"/><path class="k" d="M162.47,81.59c2-2.53,2-5,0-7.66A38.37,38.37,0,0,1,159,69c.19-.21.5-.4.55-.65.39-1.76,1.93-2.41,3.15-3.37.65-.51,1.34-1,2-1.5a2.78,2.78,0,0,1,1.92-.58,15,15,0,0,1,5.87,1.31c.58.17.68.59.6,1.1s-.1.94-.22,1.4,0,.85.55,1a1.28,1.28,0,0,1,.93,1c.39,1.13.73,2.27,1,3.43a4.88,4.88,0,0,1-.7,4.31c-1.15,1.65-1.73,3.66-3,5.24a.82.82,0,0,0-.21.5,22.52,22.52,0,0,1-.25,3.38,9.76,9.76,0,0,0,.21,2.8c-.56.54-.75.13-.82-.35-.14-.92-.49-.72-.88-.19a12.64,12.64,0,0,1-2,2.08,13.78,13.78,0,0,0-3.26.87,33.14,33.14,0,0,1-3.9-2.18,1.94,1.94,0,0,1-.27-1.66c.38-1.6.62-3.26,1.75-4.57C162.19,82.09,162.3,81.82,162.47,81.59Z"/><path class="c" d="M171.16,85.51a19.72,19.72,0,0,1-.41-3.42.83.83,0,0,1,.26-.69c1.81-1.8,2.34-4.38,3.82-6.39a2.33,2.33,0,0,0,.14-2c-.33-1.33-.71-2.65-1.08-4-.2-.69-.56-1.11-1.34-.68-.18.1-.39.28-.59.08s-.07-.41,0-.61a8.11,8.11,0,0,0,.5-3.62c0-.58,0-1.16,0-1.74,1.84.21,3.09,1.42,4.34,2.61v5.43a3.09,3.09,0,0,1,.32,1.55,10.26,10.26,0,0,0,.3,3.4c.14.4-.13.75-.19,1.14v.87c.06,1.63-1.12,2.67-1.9,3.88-.62,1-1.39,1.82-2.08,2.73-.28.36-.56.66-1.07.6S171.28,84.94,171.16,85.51Z"/><path class="k" d="M168.08,61.77c-.42,0-.71,0-.87-.29s0-.55.2-.78a1.65,1.65,0,0,1,2.78.3c.22.38.06.54-.3.58A7.68,7.68,0,0,0,168.08,61.77Z"/><path class="bc" d="M44.48,88.76c2.24,1,1.94,3.23,2.61,5,.25.39,0,.7-.23.92-1,1-2,1.91-3,2.92a5.78,5.78,0,0,1-3.1,1.22,33.82,33.82,0,0,1-5,.85c-1.16-.43-1.17-.55-.15-2.11.13-.07-.1-.15,0,0s0,0-.08.08a2.22,2.22,0,0,1-.38.18c-.26.11-.46.36-.78.31A2.86,2.86,0,0,1,33,94.84c.12-.57.52-1,.43-1.66s.31-.77.66-1c1.62-1.24,3.27-2.45,4.9-3.69a2.31,2.31,0,0,1,1.59-.54c1,0,2,.11,3,.16C44,88.08,44.5,88.13,44.48,88.76Z"/><path class="b" d="M38,107.24c-.82-.73-1.19-1.82-2-2.6-.26-.62-.87-.92-1.28-1.4-.25-.3-.62-.53-.46-1h0a11.38,11.38,0,0,1,3.26-.65,74.2,74.2,0,0,1,9.64-3.85,27.57,27.57,0,0,1,5.43-.56,10.09,10.09,0,0,1-3.48,1.59c-1.52.53-1.61.89-.52,2.17a.31.31,0,0,1,.06.29c-2.32,1.5-4.22,3.52-6.41,5.19a3.84,3.84,0,0,0-1,1.24A4.34,4.34,0,0,0,38,107.24Z"/><path class="bd" d="M35.57,99.2l6.82-1.28a2.87,2.87,0,0,0,1.72-1c.94-1.09,2-2.1,3-3.15,1.06-.78,1.68-2,2.92-2.69-.61,1-1.22,2.09-1.84,3.13a3.5,3.5,0,0,1-2.83,2.39l-.81.7a10.28,10.28,0,0,1-6.83,3c-.64,0-1.28.13-1.92.2a.87.87,0,0,0-.79-.44c-.38,0-.61-.2-.51-.63l.08-.13C34.88,99,35.26,99.48,35.57,99.2Z"/><path class="be" d="M50.13,81.38c.58.09,1.42-.31,1.71.28s-.42,1.21-.82,1.74a8.61,8.61,0,0,0-1.1,1.73,6.11,6.11,0,0,1-1.77,2.29A1.77,1.77,0,0,0,47.3,89l-.65-.2c-.15-.13-.33-.1-.51-.12-1.45-.16-1.56-.29-1.5-1.82.4-.64,1-.48,1.53-.33a1.75,1.75,0,0,0,2.47-1.34,7.49,7.49,0,0,1,.53-1.53c.17-.29.26-.77-.18-.77-1.21,0-2.22-.91-3.45-.71s-2.73.15-4.09.28c-.49,0-1,.19-1.32-.4a1.75,1.75,0,0,1,1.43-.85L46.28,81a2.21,2.21,0,0,1,1.54.37c.67.51,1.39,0,2.09.06C50,81.29,50.05,81.29,50.13,81.38Z"/><path class="c" d="M44.91,86.81a2,2,0,0,0,1.74,2H44.48c-1.35-.42-2.78-.08-4.13-.43-.32-.33-.83-.54-.74-1.14a1.45,1.45,0,0,1,.07-.35c.25-.34.65-.58.79-1a1.91,1.91,0,0,1,2.26-1.34C43.58,85.15,44.66,85.59,44.91,86.81Z"/><path class="b" d="M47.29,107.47h-.2c-.66.18-.91-.24-.85-.75.08-.68-.27-1-.74-1.3-.81-.55-.84-1-.19-1.64s1.72-1.16,2.43-2c.13-.15.41-.08.61,0,.52.33.87-.34,1.36-.23h.2c0,.71.6.8,1.11,1.12-.72.62-1.57,1.05-1.73,2.05-1-.81-1.63-.53-1.9.69A4.46,4.46,0,0,0,47.29,107.47Z"/><path class="bf" d="M45.34,96.59a29.31,29.31,0,0,1,2.83-2.39l.38.22c.41.24,1.09.26,1,.94s-.7.89-1.28,1C47.3,96.44,46.38,97.15,45.34,96.59Z"/><path class="bg" d="M49.71,101.6c-.23.67-.55,1.15-1.34.64-.35-.46-.09-.78.23-1.09a1.48,1.48,0,0,0,0-.21,4.42,4.42,0,0,0,.93-1.48A7.77,7.77,0,0,1,49.71,101.6Z"/><path class="y" d="M37.52,101.59a11.31,11.31,0,0,1-3.26.65C35.3,101.77,36.3,101.12,37.52,101.59Z"/><path class="ai" d="M48.6,101.15c-.07.36-.15.72-.23,1.09a6.58,6.58,0,0,0-2.81,2c-.61.76.33,1,.73.92.82-.11.7.24.61.77s-.45,1.12.19,1.58a3.17,3.17,0,0,0,.43,1.3c.53,1.13.44,1.28-.77,1.3h-.53a2.24,2.24,0,0,0-1-1.33c-.36.36.58,1-.23,1s-1.78.81-2.43-.34c-.32-.56-.46-1.09.43-1.41a4.65,4.65,0,0,0-1.81-.35c-.46-.54-.29-.92.25-1.33,2-1.53,3.91-3.09,5.85-4.65A2.25,2.25,0,0,1,48.6,101.15Z"/><path class="bh" d="M144.74,67.85a18,18,0,0,1,5.49.13A5.52,5.52,0,0,1,144.74,67.85Z"/><path class="ai" d="M39.91,87.25a2,2,0,0,1,.44,1.08,52.36,52.36,0,0,0-6.52,4.77c-.9,1.44-2.3,2.52-3,4.15a.49.49,0,0,1-.73.21A6.57,6.57,0,0,1,28.05,96c-1-.92-2.1-1.31-3.38-.52a3.25,3.25,0,0,1-.82.25c-1-1.84-1-1.84-3.08-1.52l-1.5.23a1,1,0,0,1-1.11,0,9.66,9.66,0,0,1-3-3.21c.18-1.07.35-2.14.55-3.21a1.56,1.56,0,0,1,.76-1.14c.88-.69,1.42-.57,1.95.43.82,1.79.82,1.77,2.81,1.47a45.48,45.48,0,0,0,6.05-1.65,3.59,3.59,0,0,1,2.22,0c.75-.57,1.52-.08,2.28-.06a17.45,17.45,0,0,0,3.15,0c.79,0,1.57-.09,2.35-.19A3.21,3.21,0,0,1,39.91,87.25Z"/><path class="am" d="M30.14,97.46a12.23,12.23,0,0,0,.7-1.21,6.28,6.28,0,0,1,3-3.15,4.85,4.85,0,0,1-.14,1.16,3.32,3.32,0,0,0,.79,3.63c.31.63-.19.92-.54,1.22a5.44,5.44,0,0,1-1,.51c-.73.46-1.6.23-2.38.45a14.19,14.19,0,0,1-3.12-.9c.11-.07.17-.14.2-.13.7.15,1.54.61,2.05.37S29.81,98.1,30.14,97.46Z"/><path class="v" d="M32.52,102l-.86-.67c-.23-.35-.46-.7-.68-1C32.2,100.24,32.44,101.06,32.52,102Z"/><path class="b" d="M10.59,87.9C10.29,87,10,86,9.7,85.08c.39-.17.83-.27,1,.21a21.31,21.31,0,0,0,2.92,4.5,2.78,2.78,0,0,1,.21.5C12.53,89.8,11.18,89.37,10.59,87.9Z"/><path class="b" d="M15.14,91.16a13.8,13.8,0,0,1,3,2.76,1.26,1.26,0,0,0,1.13.5,16,16,0,0,1-2.39.43A11.44,11.44,0,0,0,15.15,92a1.66,1.66,0,0,1-.44-1.08Z"/><path class="ac" d="M79.24,93.11c.37.67.46,1.67,1.64,1.45.13,0,.25.17.2.32s-.18.28-.26.27c-.7-.06-1.56.32-1.93-.67a1,1,0,0,0-.73-.72A1.65,1.65,0,0,1,79.24,93.11Z"/><path class="j" d="M177.24,76.6a10.07,10.07,0,0,1-.43-6.09c2.24.7,2.53,3.86,1.41,5.72C178,76.61,177.57,76.46,177.24,76.6Z"/><path class="bi" d="M126.17,73.77l3.58.54c-1.28,0-2.62.27-3.77-.52Z"/><path class="ay" d="M24.08,97.56A2.43,2.43,0,0,1,22.66,95,9,9,0,0,1,24.08,97.56Z"/><path class="bd" d="M33,99.62l1.53-1.73.44-.43c.35,0,.5.24.41.44-.23.52-.2,1.21-.83,1.5l0,0Z"/><path class="az" d="M83.59,92.23l2-1.72,2.53-1.63a2.55,2.55,0,0,1,1.39-.54c.93.46,1.84,0,2.72-.14.48-.1,1-.3,1.45-.42s1,.06.81.76c-2.61,1-5.23,2-7.83,3A15.78,15.78,0,0,1,83.59,92.23Z"/><path class="bj" d="M94.45,88.54c-.21-.76-.72-.48-1.2-.35-.94.25-1.78,1-2.86.61-.34-.1-.7-.14-.92-.46a23.66,23.66,0,0,0,3.9-.88l1.7-.16c-.31.35-.55.68-.18,1Z"/><path class="be" d="M73.38,65.08c-1,1.08-2,2.17-3,3.26a7.73,7.73,0,0,0,0,2.54,5.05,5.05,0,0,1-.41,2.89,8,8,0,0,0-.19.85c-.13.86-.63,1-1.34.7a1,1,0,0,1-.68-1.44c.2-.48.8-.78.59-1.65-1.39,1.18-3.07,1.69-4.36,2.86a10.85,10.85,0,0,1-1,.81c-.27.19-.49.71-.89.39s-.12-.68,0-1,.25-1,.42-1.46a1.41,1.41,0,0,0-.24-1.61,1.5,1.5,0,0,1-.27-1.7c.63-1.77,1.17-3.58,1.81-5.35a3.19,3.19,0,0,1,2.61-2.45,1.72,1.72,0,0,0,1.29-1.06c.33-.6.7-.76,1.08-.06a1.73,1.73,0,0,0,1.42.88,4.15,4.15,0,0,1,1.32.46l1.31.43C73.82,63.45,74,63.82,73.38,65.08Z"/><path class="b" d="M18.4,87.24a4.24,4.24,0,0,0-1.95-.43c-1.42-.68-3-.82-4.43-1.44-.28-.12-.76-.1-.71-.52s.5-.33.8-.4a6,6,0,0,1,4.57.7c1.29.78,2.89.9,4.23,1.64.61.34.9-.1,1.09-.65q.86-2.52,1.75-5c.15-.43.19-.93.65-1.19.29.1.29.35.26.55-.35,2.25-.7,4.5-1.09,6.74-.13.75-.68.82-1.33.72A26.2,26.2,0,0,0,18.4,87.24Z"/><path class="s" d="M33.18,83.12,39.26,82h0c.25.55-.17.81-.52,1a64.91,64.91,0,0,1-5.9,3.5.83.83,0,0,1-.72,0c-.51-.32-.37-.78-.28-1.24a12.06,12.06,0,0,0,.59-1.85C32.59,83.19,32.8,83,33.18,83.12Z"/><path class="b" d="M33.18,83.12l-.44.43a5.12,5.12,0,0,1-2,2c-.34.21-.67.45-1.08.16-.22-.33-.09-.59.13-.87,1.21-1.61,2.4-3.23,3.61-4.83.21-.27.42-.77.8-.55s.14.71,0,1.06C33.91,81.4,33.54,82.25,33.18,83.12Z"/><path class="ai" d="M29.7,85.72a34.22,34.22,0,0,1,3-2.17c.08,1-.63,1.83-.43,2.83a.28.28,0,0,1-.08.36,3.51,3.51,0,0,1-2.53-.15Z"/><path class="b" d="M73.38,65.08c0-.67,0-1.34-.65-1.74a5.46,5.46,0,0,1-.17-2.51c1,.28.74,2.9,2.56,1.21l-.22,1.53A1.74,1.74,0,0,0,74,64.65C73.81,64.79,73.59,64.93,73.38,65.08Z"/><path class="b" d="M29.7,86.59h2.61a5.51,5.51,0,0,1,4.22-.06c.31.37.23.56-.25.61s-.93-.13-1.36.11a8.08,8.08,0,0,1-3.94,0L29.48,87Z"/><path class="b" d="M79,60.08a2.23,2.23,0,0,1-2.54,1.5,2.28,2.28,0,0,0-1.16,0c.08-.24.18-.51.47-.51C77,61.11,78,60.39,79,60.08Z"/><path class="b" d="M8.83,81.8a1.36,1.36,0,0,1,.66-.86C9.7,81.56,9.86,82.14,8.83,81.8Z"/><path class="as" d="M8.23,82.36a9,9,0,0,1,.21-5.11C8.72,79,8.06,80.65,8.23,82.36Z"/><path class="a" d="M124.65,80.72a6.44,6.44,0,0,1,3.33-4l-1.42,1.91s.09.1.13.16l4.7-3.92a42.57,42.57,0,0,1,7,1.52,64,64,0,0,1-7.2,6.67c-.86.66-1,0-1.25-.62-.1-.27.07-.75-.39-.76s-.46.43-.56.72a14.18,14.18,0,0,0-1,2.24c-.42.31-.76.08-1-.21a3.74,3.74,0,0,0-2.13-1.11,1.06,1.06,0,0,1-.22-.29A4.19,4.19,0,0,1,124.65,80.72Z"/><path class="x" d="M124.86,83.13c1.44-.35,2.14.8,3.06,1.5.4.4.68.81.29,1.4-.14.22-.46.65.29.42.24-.07,0,.25,0,.35-.32.52-.65,1-1,1.53L124.68,92a2.11,2.11,0,0,1,0-.25,2.13,2.13,0,0,1,.38-2.16,1.5,1.5,0,0,1-1.34.22c-.44,0-.51-.38-.65-.72a15.56,15.56,0,0,0-.69-1.8c-.71-1.3-.22-2.44.44-3.56a.74.74,0,0,1,1-.39A1,1,0,0,0,124.86,83.13Z"/><path class="d" d="M162.47,81.59c-.48,1.59-1.21,3.09-1.55,4.72a9.41,9.41,0,0,0-.4,2.23c-.94-.75-1.08-1.9-1.45-2.93-.12-.32.14-.6.33-.86A21.33,21.33,0,0,1,162.47,81.59Z"/><path class="as" d="M157.47,99.19a.41.41,0,0,1-.11,0c-.4,0-.86.13-1.16-.29,0,0,.05-.23.1-.24a1.11,1.11,0,0,1,1.17.53Z"/><path class="bk" d="M82.94,97.9a5.51,5.51,0,0,1,1.94.2A1.13,1.13,0,0,1,86,97.71c.82.13,1.62.31,2.48.37-1.43-.58-2.17-1.93-3.25-2.9a1.32,1.32,0,0,1-.59-1,2.31,2.31,0,0,1,1.62-1,17.54,17.54,0,0,1,2.56-.5,9.74,9.74,0,0,0,5.89-2.42c.35-.3.71-.64,1.25-.44,1.32,1.46.67,3,.21,4.56-.28-.24,0-.62-.22-.87a5.15,5.15,0,0,0-.13-2.67c-.06-.19,0-.49-.32-.49-.13,0-.3.17-.4.31a7,7,0,0,1-2.59,2.08,5.86,5.86,0,0,0-2.07,4.39,10.09,10.09,0,0,0,.44,1.9c1.06,2.62.4,5-.73,7.52.31-.3.61-.61.93-.89a3.6,3.6,0,0,1,1.3-1,18.56,18.56,0,0,1-2.73,3c-1,.55-1.65,1.58-2.61,2.19l-.64.42a3.44,3.44,0,0,1,.56-2.67c.18-.22.37-.52.12-.77s-.59,0-.83.19c-.44.32-.86.66-1.28,1a1.2,1.2,0,0,1-1.67.07,1.35,1.35,0,0,1-.38-1.75,4.94,4.94,0,0,1,1.29-1.72c.43-.41.79,0,1.16.13a4.32,4.32,0,0,0,.86.43c.18,0,.37,0,.47-.14s0-.41-.19-.55a.72.72,0,0,0-.61-.14,6.7,6.7,0,0,1-2.32-.17c-1.19-1.6-1-3.41-.82-5.23Z"/><path class="g" d="M110.54,76.82a22.58,22.58,0,0,0,2.75-3.19,1.46,1.46,0,0,1,1.58-.63c3.13.59,6.32.68,9.48,1,.38,0,.87-.08,1.09.31s-.23.7-.43,1c-.67,1-1.68,1.81-2.07,3a.28.28,0,0,1,0,.42,9.14,9.14,0,0,0-.64,3.06.69.69,0,0,0-.19-.1c-1.71-.48-1.76-.49-1.25-2.22.23-.78,0-1-.7-1-.54,0-1.07-.1-1.61-.15-.28,0-.69-.15-.84,0-1,.89-1.92.21-2.89,0a4.09,4.09,0,0,0-2.36.64,3.15,3.15,0,0,1-3.18,0c0-.07,0-.14,0-.22A2.69,2.69,0,0,1,110.54,76.82Z"/><path class="s" d="M107.49,106.58c-.28.68-.63,1.08-1.29.34-2-2.28-4.51-4-6.75-6,1.38-1.48,2.75-2.89,5-3a31.61,31.61,0,0,0,3.83-.57c.48-.08.87-.07,1,.53a20.7,20.7,0,0,1-1.06,7.25,2,2,0,0,1-.68,1Z"/><path class="w" d="M103.36,84.2a2.77,2.77,0,0,1,1.3-.88c1.35.88,3,1.16,4.37,1.87.48.24.89.47.28,1l-8,6.8-.29-.12C101.83,90,102.6,87.09,103.36,84.2Z"/><path class="bl" d="M96,93.55a1.55,1.55,0,0,1,.22.87c-.07,2.68.91,5.12,1.73,7.6-.08.51.21,1,0,1.53-.68.55-1,.1-1.31-.45a2.43,2.43,0,0,0-.25-.2c-2.06-1.24-2-1.24-1.55-3.55C95.24,97.43,95.6,95.49,96,93.55Z"/><path class="af" d="M107.49,106.15l1.74-8.26c.7,1.14.6,2.49,1,3.72.7,2.12.63,2.16-1.18,3.41C108.53,105.39,108.17,106,107.49,106.15Z"/><path class="bm" d="M124.86,83.13c0,.41.34.61.52.9-.11.17-.25.1-.39.09-.57,0-1.2-.76-1.68-.12a3.32,3.32,0,0,0-.86,2.61,6.77,6.77,0,0,0,1.34,3c.14.14.11.28,0,.42-.43.25-.75.37-.9-.32a22.2,22.2,0,0,0-.71-2.23c-.12-.37-.27-.75-.78-.71,0-.14,0-.28,0-.43a4.09,4.09,0,0,1,.63-3.47l.2-.44a4.55,4.55,0,0,0,1.42-1.54c.2-.3.4-.66.79-.19a2.24,2.24,0,0,1,.05,1.4c-.08.44-.08.77.35,1Z"/><path class="ad" d="M122.05,82.9a29.36,29.36,0,0,0-.63,3.47C120.72,84.27,120.78,84,122.05,82.9Z"/><path class="s" d="M96.63,103.1l1.31.45c2.08,1.16,4.44,1.67,6.81,2.92a3.78,3.78,0,0,1-1.8,0c-1.91-.3-3.73-1.22-5.75-.82-.3,0-.67-.21-1-.33C95.43,104.37,96.11,103.75,96.63,103.1Z"/><path class="ag" d="M87.07,109.86a15.3,15.3,0,0,1,1.87-2c.2-.21.43-.37.74-.2A6.37,6.37,0,0,1,87.07,109.86Z"/><path class="q" d="M128.78,101.16c1.08-.4,1.94.21,2.83.63A7.29,7.29,0,0,1,128.78,101.16Z"/><path class="c" d="M123.77,90.06l0-.42,2.15-.75a15.57,15.57,0,0,0-1.28,2.9A5.92,5.92,0,0,1,123.77,90.06Z"/><path class="be" d="M60.29,72.36c-.44,1.66-.78,3.54-2.84,4.38-.83.34-1.64.74-2.46,1.11-.3.14-.62.32-.92.09a.73.73,0,0,1-.13-.9c1.28-3.38,2.25-6.87,3.86-10.11.2-.41.38-.93,1-.81a1.08,1.08,0,0,1,.84,1C59.86,68.82,60.06,70.5,60.29,72.36Z"/><path class="be" d="M44.91,86.81a6.28,6.28,0,0,1-2.17-2,5.56,5.56,0,0,1-2.64-1.6c-.35-.36-.62-.74-.19-1.22h.22c1.58-.13,3.16-.28,4.74-.39a4.45,4.45,0,0,1,2.84.4,2.38,2.38,0,0,0,1.8,0c.7-.12,1.13,0,.69.86a14.3,14.3,0,0,0-1.11,2.67c-.46,1.54-1.51,1.94-3,1.44A11.4,11.4,0,0,0,44.91,86.81Z"/><path class="be" d="M39.91,82c.59,1.3,1.94,1.83,2.83,2.82A1.55,1.55,0,0,0,41,86.14a1.07,1.07,0,0,1-1.09.89,23.81,23.81,0,0,1-3.26-.22l-4.34-.22v-.21C34.65,85,37,83.6,39.26,82Z"/><path class="b" d="M69.9,73.77a26,26,0,0,1,.43-5.43,4.68,4.68,0,0,0,0,.65c.07.51-.27,1.21.29,1.49S71.56,70.2,72,70c.61-.31,1.21-.65,1.81-1a30.29,30.29,0,0,1-1.76,6.41.81.81,0,0,1-.62.54c-.23-1.08-.46-2.17-.76-3.54l-.34,1.37Z"/><path class="be" d="M55.78,81.81,54,81.37c-.33-.07-.66-.13-.72-.53a.88.88,0,0,1,.4-.84,2.76,2.76,0,0,1,.77-.38c1.53-.4,3.06-.79,4.6-1.17.27-.07.62-.23.78.09s-.18.53-.38.7c-.93.8-1.87,1.58-2.81,2.36C56.36,81.72,56.13,82,55.78,81.81Z"/><path class="c" d="M50.13,81.38h-.22c-.37-.36-.35-.68.07-1A13.69,13.69,0,0,1,52.64,79a.58.58,0,0,1,.5,0c.23.13.14.38,0,.58-.37.73-.82,1.37-1.76,1.39A1.77,1.77,0,0,0,50.13,81.38Z"/><path class="bn" d="M55.78,81.81l.86-.21c-.8,1-2.08,1.52-2.82,2.59-.7.21-1.08.8-1.57,1.26a1.84,1.84,0,0,1-1.26.71c.94-1.6,2.59-2.41,3.94-3.55A3.08,3.08,0,0,0,55.78,81.81Z"/><path class="be" d="M63.7,76.87a8.28,8.28,0,0,1,2.72-1.64.36.36,0,0,1,.48.09c.15.27,0,.49-.21.66A4.3,4.3,0,0,1,63.7,76.87Z"/><path class="c" d="M61.21,74.71c-.07.62.07,1.73-.48,1.68s-.31-1.16-.5-1.79a1.08,1.08,0,0,1,.21-.7c.13-.25.34-.52.68-.39s.18.42.15.66S61.23,74.53,61.21,74.71Z"/><path class="bb" d="M67.51,97.46a4.4,4.4,0,0,1,6.62,2c.09.27.14.56.24.83s.15.86.62.93.63-.42.79-.76c.31-.7.65-.75,1.19-.2a5.78,5.78,0,0,0,1,.68c.22,0,.5-.06.6.13.7,1.32,1.82,2.51,1.36,4.21a9.11,9.11,0,0,1-2.27,3.08c-.22.25-.62.16-.94.08a12.48,12.48,0,0,1-2.3-.57,5.39,5.39,0,0,0-4,0,25.75,25.75,0,0,1-4.19,1.31.59.59,0,0,1-.91-.23.8.8,0,0,1,.23-1,32.57,32.57,0,0,1,2.72-2.7c-1.8.6-3.87,1.4-6,1.94-1.14.28-1.77-.51-1.32-1.6a21,21,0,0,1,2.7-5.4A7.57,7.57,0,0,1,67.51,97.46Z"/><path class="p" d="M67.51,97.46a5.29,5.29,0,0,1-1.91,1.72c-1.77,1-2.34,2.67-3.14,4.26-.37.74-.69,1.51-1,2.27-.12.27-.26.55-.06.82s.58.25.89.15c1.17-.37,2.35-.73,3.5-1.15s2.66-.6,3.8-1.45a20.78,20.78,0,0,1-3.41,4c-.32.34-1,.8,0,1.12a1.55,1.55,0,0,1-1.95-.17,8.21,8.21,0,0,0-2.42-.88,2.14,2.14,0,0,1-1.5-1.26c-.49-1.09-1.46-2-1.16-3.38.08-.38-.22-.47-.54-.51a.57.57,0,0,1-.56-.56c0-.42.34-.52.65-.6a11.51,11.51,0,0,0,3.6-1.12c1.07-.64,1.14-.93.37-1.88-.48-.62-1.12-1.26-.19-2,1,0,2,0,3,0A2.59,2.59,0,0,1,67.51,97.46Z"/><path class="bf" d="M79.9,105.28a25.29,25.29,0,0,0-2-4.34c-.27-.69-.52-1.4-.82-2.07a1.77,1.77,0,0,1,0-1.63,6.55,6.55,0,0,0,1.36.27c1.23,0,2.09.39,2.32,1.69.3,1.15.63,2.29.89,3.45.2.89.73,1.94-.9,2.1-.23,0-.43.35-.65.54Z"/><path class="bf" d="M75.41,116.35a11.64,11.64,0,0,1,2.9-1.9A2.92,2.92,0,0,1,75.41,116.35Z"/><path class="p" d="M56.29,105.91c.32.07.3.31.22.5-.18.41,0,1.1-.62,1.17-.26,0-.31-.43-.29-.71A1,1,0,0,1,56.29,105.91Z"/><path class="bm" d="M77.07,65.73a1.48,1.48,0,0,1,0,.21l-1.13.62c-.2.11-.41.23-.38-.18.2-.25.41-.5.59-.77C76.54,65,76.82,65.24,77.07,65.73Z"/><path class="at" d="M110.54,76.82l-1.31,2c-.12.06-.27.19-.38.16s-.07-.22,0-.33c.75-1.17,1.5-2.34,2.32-3.46C111.21,75.81,110.65,76.23,110.54,76.82Z"/><path class="x" d="M124.86,83.13c-.33.11-.7.33-1,.06s0-.66.15-1a3.62,3.62,0,0,0,.44-1.51h.19A8.17,8.17,0,0,1,124.86,83.13Z"/><path class="ay" d="M122.91,78.76l0-.42c.84.06.75.81.84,1.29s-.41.73-1,.94C122.86,79.89,122.89,79.32,122.91,78.76Z"/><path class="bj" d="M101,84a20.54,20.54,0,0,1-3.48,2.61c-.26-.28-.24-.51.11-.69A36.12,36.12,0,0,1,101,84Z"/><path class="bb" d="M83.61,104.19a11.19,11.19,0,0,1,2.64-.42c.42,0,.92-.06,1.12.43a2.17,2.17,0,0,1,0,1.78c-.22.45-.62.21-.93,0l-2.18-1.37Z"/><path class="bo" d="M84.93,109.57l-1.52,3c-.11.21-.2.54-.52.46s-.28-.39-.33-.63a1.06,1.06,0,0,1,.28-1c.65-.67,1.31-1.32,2-2Z"/><path class="ag" d="M84.67,94.2A5.49,5.49,0,0,1,86.78,96a5.14,5.14,0,0,0,2.56,1.69c.3.07.74.15.71.54s-.49.47-.82.59-.63-.06-1-.11c-1.13-.22-2.26-.41-3.4-.61a1.06,1.06,0,0,0-.71-.84,1.5,1.5,0,0,1-1-1.76A3.16,3.16,0,0,1,84.67,94.2Z"/><path class="am" d="M34.5,99.4a2.16,2.16,0,0,0,.42-1.94,1.81,1.81,0,0,1,1.73-.8,4.8,4.8,0,0,1-1,1.53c-.28.31-.67.65,0,1A1.74,1.74,0,0,1,34.5,99.4Z"/><path class="bp" d="M36.65,86.81a13.16,13.16,0,0,1,3.26.22v.22c-1.66-.39-3.33.08-5,0C35.41,86.77,36.15,87.23,36.65,86.81Z"/></svg>