<?xml version="1.0" encoding="utf-8"?>
<!-- Generator: Adobe Illustrator 24.0.3, SVG Export Plug-In . SVG Version: 6.00 Build 0)  -->
<svg version="1.1" id="Layer_1" xmlns="http://www.w3.org/2000/svg" xmlns:xlink="http://www.w3.org/1999/xlink" x="0px" y="0px"
	 viewBox="0 0 103.4 51.8" style="enable-background:new 0 0 103.4 51.8;" xml:space="preserve">
<style type="text/css">
	.st0{fill:#6B6B6B;}
</style>
<title>Asset 70</title>
<path class="st0" d="M103.2,29.3c-0.5-3.2-2.4-5.9-4.2-8.5c-0.6-0.6-0.9-1.4-1-2.3c0-1.1-0.7-2-1.6-2.4c-2-0.9-4.1-1.7-6.1-2.5
	c-0.9-0.5-2-0.2-2.6,0.6c-0.5,0.6-0.9,1.3-1.3,2c-0.1,0.2-0.1,0.5-0.3,0.6c-0.7,0.3-0.7,0.9-0.9,1.5c0,0.2-0.2,0.4-0.3,0.4
	c-0.6,0-1.2,0-1.8,0c-0.1,0-0.2-0.2-0.3-0.3c-0.3-0.8-0.7-1.6-1-2.4c1-1.1,1.6-2.5,1.8-4c0.1-0.6,0.1-1.3-0.2-1.9
	C83,9,82.1,8,81,7.5c-0.4-0.1-0.8-0.3-1.1-0.5c-0.3-0.2-0.5-0.5-0.6-0.8c-0.3-1.1-1-2-2-2.6c-1.2-0.6-2.5-1.2-3.8-1.7
	c-2.2-1-4.6-1.4-7-1.2c-0.5,0-1,0-1.5-0.2C64.1,0,63.1,0,62.2,0.3c-0.9,0.3-1.9,0.5-2.9,0.4c-1-0.1-1.9,0-2.9,0.2
	c-2,0.4-4.1,0.5-6.2,0.4c-0.3,0-0.5,0-0.8-0.1c-1.2-0.2-2.6-0.5-3.6-0.6c-1.1-0.1-2.2-0.1-3.3-0.2c-0.4,0-0.7-0.5-1-0.5
	c-1.1,0-2.2-0.2-3.2,0.5c-0.2,0.1-0.4,0.2-0.6,0.1c-1.3-0.2-2.7-0.1-4,0.3c-2.2,0.4-4.3,1.2-6.2,2.2c-1.5,0.5-2.7,1.8-3.1,3.3
	C24.3,6.7,24,7,23.8,7.1c-0.8,0.4-1.6,0.9-2.4,1.4c-1,0.7-1.6,1.8-1.5,3c0.1,1.7,0.8,3.3,1.9,4.5c0.1,0.2,0.2,0.4,0.2,0.5
	c-0.2,0.8-0.5,1.6-0.7,2.4h-2.6c-0.7-1.3-1.4-2.6-2.2-3.9c-0.1-0.2-0.2-0.3-0.4-0.4c-1-0.9-2.5-1-3.7-0.4c-2,1.1-4,2.3-6,3.5
	c-0.2,0.1-0.4,0.5-0.5,0.8c-0.3,0.7-0.6,1.3-0.9,2c-0.5,0.8-1.2,1.6-1.7,2.4c-0.7,1-1.3,2.1-1.8,3.3C0.7,28,0.2,29.8,0,31.6
	c-0.1,0.5-0.1,0.9,0,1.4c0.1,0.9,0.2,1.9,0.4,2.8c0.3,1.5,0.6,3,1.1,4.4c0.6,1.5,1.4,3,2.4,4.3c1.7,2.3,3.9,4.1,6.3,5.5
	c2,1,4.1,1.6,6.3,1.8c0.7,0,1.3,0,2-0.1c1.7,0,3.4-0.6,4.7-1.8c0.6-0.6,1.3-1.2,2-1.7c1-0.5,1.9-1.2,2.5-2.1c0.3-0.5,0.8-1,1.4-1.2
	c0.6-0.3,1.2-0.6,1.7-1.1c0.4-0.4,0.9-1,0.8-1.4c-0.2-0.9,0-1.8,0.5-2.6v-0.1c0.4-0.8,0.7-1.6,1.2-2.3c0.4-0.5,0.5-1.2,0.1-1.8
	c-0.3-0.5-0.4-1-0.7-1.7c0.3,0.2,0.4,0.3,0.5,0.3c0.1,0.1,0.1,0.1,0.2,0.2c0.7,1.2,1.8,2.1,3.1,2.6c0.8,0.3,1.4,1,1.5,1.8
	c0.3,1.1,0.6,2.2,1,3.3c0.8,1.6,2,2.9,3.5,3.7c2.3,1.3,4.9,1.8,7.5,1.5c0.9-0.1,1.8-0.2,2.7-0.2c1.5,0,3,0.2,4.5,0.2
	c1.6-0.1,3.1-0.6,4.3-1.6c0.8-0.6,1.6-1.4,2.2-2.2c0.7-0.8,1.3-1.8,1.7-2.8c0.3-0.8,0.5-1.6,0.6-2.5c0.1-0.5,0.4-1,0.9-1.2
	c1.3-0.6,2.5-1.5,3.3-2.7c0.3-0.4,0.7-0.7,1.1-1c-0.2,0.7-0.5,1.4-0.8,2c-0.3,0.4-0.2,0.9,0.2,1.3c0.5,0.5,0.8,1,1,1.6
	c0.3,1.2,1.3,2.3,1,3.7c0,0.1,0.1,0.2,0.1,0.3c0.5,0.9,1.2,1.7,2.2,2.2c0.5,0.2,0.9,0.5,1.3,0.8c0.5,0.5,0.9,1.1,1.5,1.5
	c1,0.7,2,1.6,2.9,2.5c0.5,0.5,1,0.8,1.7,1.1c1.4,0.6,2.9,0.9,4.4,0.8c2-0.1,4-0.6,5.8-1.5c1.5-0.8,2.9-1.7,4.2-2.8
	c2-1.6,3.7-3.7,4.8-6c0.9-2,1.5-4,1.8-6.2C103.5,33,103.4,31.2,103.2,29.3z"/>
</svg>
