<svg xmlns="http://www.w3.org/2000/svg" viewBox="0 0 139.29 127.2"><defs><style>.a{fill:#cdf7c9;opacity:0.5;}.b{fill:#ffd6d5;}.c,.d{fill:none;stroke-miterlimit:10;}.c{stroke:#6b6b6b;}.d{stroke:#000;}</style></defs><title>Asset 66</title><rect class="a" width="139.29" height="127.2"/><rect class="b" x="54.54" width="15.11" height="127.2"/><line class="c" x1="6.87" y1="15.18" x2="132.43" y2="15.18"/><line class="c" x1="6.87" y1="33.04" x2="132.43" y2="33.04"/><line class="c" x1="6.87" y1="50.89" x2="132.43" y2="50.89"/><line class="c" x1="6.87" y1="69.26" x2="132.43" y2="69.26"/><line class="c" x1="6.87" y1="87.11" x2="132.43" y2="87.11"/><line class="c" x1="6.87" y1="107.59" x2="132.43" y2="107.59"/><line class="d" x1="45.4" y1="49.24" x2="45.4" y2="52.19"/><line class="d" x1="110.52" y1="67.78" x2="110.52" y2="70.73"/><line class="d" x1="62.45" y1="67.78" x2="62.45" y2="70.73"/><line class="d" x1="89.07" y1="85.63" x2="89.07" y2="88.58"/><line class="d" x1="127.26" y1="49.24" x2="127.26" y2="52.19"/><line class="d" x1="80.51" y1="13.71" x2="80.51" y2="16.66"/><line class="d" x1="62.09" y1="105.94" x2="62.09" y2="108.89"/><line class="d" x1="63.37" y1="105.94" x2="63.37" y2="108.89"/><line class="d" x1="64.74" y1="106.11" x2="64.74" y2="109.06"/><line class="d" x1="66.12" y1="105.94" x2="66.12" y2="108.89"/><line class="d" x1="67.29" y1="104.88" x2="67.29" y2="109.94"/><line class="d" x1="68.67" y1="103.61" x2="68.67" y2="111.21"/><line class="d" x1="70.63" y1="104.88" x2="70.63" y2="109.94"/><line class="d" x1="72.2" y1="105.94" x2="72.2" y2="108.89"/><line class="d" x1="73.57" y1="105.94" x2="73.57" y2="108.89"/><line class="d" x1="76.32" y1="105.94" x2="76.32" y2="108.89"/><line class="d" x1="80.51" y1="105.94" x2="80.51" y2="108.89"/><line class="d" x1="81.81" y1="105.94" x2="81.81" y2="108.89"/><line class="d" x1="85.02" y1="105.94" x2="85.02" y2="108.89"/></svg>