<svg xmlns="http://www.w3.org/2000/svg" viewBox="0 0 232.58 188.94"><defs><style>.a{fill:#d0d5dd;}.b{fill:#eae9f0;}.c{fill:#424242;}.d,.e{fill:none;}.d{stroke:#424242;}.d,.e,.g{stroke-miterlimit:10;}.e,.g{stroke:#525151;}.f{fill:#4f4646;}.g{fill:#332c2a;}</style></defs><title>Asset 46</title><path class="a" d="M94.48,90.79,67.11,70.63l-.84,1.14A3.9,3.9,0,0,0,64.85,69c-2.37-1.75-6.75.17-9.78,4.29s-3.56,8.86-1.2,10.6a3.88,3.88,0,0,0,3.1.53l-.84,1.14,27.38,20.16c2.37,1.75,6.74-.17,9.77-4.28S96.85,92.54,94.48,90.79Z" transform="translate(0 -0.25)"/><text y="-0.25"/><path class="b" d="M215.43,101.61l.09,0h10.64V105l-17.75,12.38-13.77-7.2-.09-.22Z" transform="translate(0 -0.25)"/><path class="c" d="M215.43,100.05v1.56L194.55,110l-.1,0-2.17-1.74,23.07-8.46Z" transform="translate(0 -0.25)"/><path class="c" d="M208.41,117.42c-13.72-1.53-13.72-1.53-13.77-7.2Z" transform="translate(0 -0.25)"/><path class="b" d="M194.64,110.22c.05,5.67.05,5.67,13.77,7.2L226.16,105v59.08l-14.77,19.11H189.24l-4.35,3.91h-7.38V117.42l-6.3-9.12h5.43v-2.84A6.57,6.57,0,0,0,179,103.2c.57-.82,3.61,0,6.09.63l2.69,1.67s0,0,0,0a4.7,4.7,0,0,0,.73.94,5.72,5.72,0,0,0,2,.75l1.76,1.1,2.17,1.74.1,0Z" transform="translate(0 -0.25)"/><path class="a" d="M209.7,19.33a15.4,15.4,0,0,0-7.22-11.91c-9.26-5.91-23.38-3-28.53-2A48.06,48.06,0,0,0,160.89,9.9l0,.09-5.26-1.11A50.11,50.11,0,0,1,170.7,2.57c6.05-1.43,22.64-5.68,33.52,2.87,7,5.51,8.22,13.62,8.48,17.25l0,.17-3-.39Z" transform="translate(0 -0.25)"/><path class="b" d="M192.28,108.3l-1.76-1.1c.53.16,1.19.36,2,.65-4.52-5.08-8-9.65-12.68-12.23l2-76.8,3.91.51,23.94,3.14,3,.39,5.66.74V98.74l-3,1.1Z" transform="translate(0 -0.25)"/><path class="c" d="M187.82,105.51l2.7,1.69a5.72,5.72,0,0,1-2-.75A4.7,4.7,0,0,1,187.82,105.51Z" transform="translate(0 -0.25)"/><path class="c" d="M179.88,95.62c4.64,2.58,8.16,7.15,12.68,12.23-.85-.29-1.51-.49-2-.65l-2.7-1.69s0,0,0,0c-.37-.58-.72-1.17-1.2-1.29l-1.49-.38-1.88-1.17-3.48-2.18Z" transform="translate(0 -0.25)"/><path class="b" d="M181.85,18.82l-2,76.8c-.3-.17-.61-.33-.92-.49a18.19,18.19,0,0,0-8.64-1.72c-3,.09-6.06,0-9.09-.07q-5.31-.41-10.79-.65c-5.24-.39-10.49-.83-15.73-1-4.92-.19-7.41-1.69-7.29-7.13a6.67,6.67,0,0,0-1-3.21l-1.57-62.07-.32-12.59a126.6,126.6,0,0,1,30.85,2.18l.25.05L160.87,10c3,.63,7,1.42,11.86,2.31,5.46,1,10,1.71,13,2.17v4.86Z" transform="translate(0 -0.25)"/><path class="c" d="M176.64,102.87l6.6-.21,1.88,1.17c-2.48-.65-5.52-1.45-6.09-.63a6.57,6.57,0,0,1-2.39,2.26Z" transform="translate(0 -0.25)"/><polygon class="b" points="173.38 172.78 172.08 118.92 177.51 117.17 177.51 186.9 172.73 188.41 173.38 172.78"/><path class="b" d="M177.51,117.42l-5.43,1.74-15.64-15,8.95-1.67c.71.17,1.41.37,2.1.59l3.72,5.21Z" transform="translate(0 -0.25)"/><path class="c" d="M176.64,108.3h-5.43l-3.72-5.21c.88.27,1.73.58,2.57.92,2.49,1,4.49,2.45,6.58,1.45Z" transform="translate(0 -0.25)"/><path class="c" d="M183.24,102.66l-6.6.21v2.59c-2.09,1-4.09-.41-6.58-1.45-.84-.34-1.69-.65-2.57-.92l-.62-.87-5.16-.48c-1.29-.23-2.59-.4-3.88-.54C146.42,99.94,135,99,123.17,98v-19l3.26,3.75h0l.24,9.67c4.73-.1,9.57-.1,14.49,0,3.12.06,6.22.17,9.27.32,3.6.27,7.19.51,10.79.65q9.11.69,17.73,1.79c.31.16.62.32.92.49l-.12,4.86Z" transform="translate(0 -0.25)"/><path class="c" d="M166.87,102.22l.62.87c-.69-.22-1.39-.42-2.1-.59Z" transform="translate(0 -0.25)"/><path class="c" d="M161.23,93.34c3,.12,6.06.16,9.09.07A18.19,18.19,0,0,1,179,95.13Q170.34,94,161.23,93.34Z" transform="translate(0 -0.25)"/><path class="c" d="M166.87,102.22l-1.48.28c-1.21-.31-2.44-.56-3.68-.76Z" transform="translate(0 -0.25)"/><path class="b" d="M127.55,98.53l34.16,3.21c1.24.2,2.47.45,3.68.76l-8.95,1.67-35.31-2.6v-3Z" transform="translate(0 -0.25)"/><path class="b" d="M150.44,92.69q5.48.24,10.79.65C157.63,93.2,154,93,150.44,92.69Z" transform="translate(0 -0.25)"/><path class="c" d="M127.42,84.52c-.12,5.44,2.37,6.94,7.29,7.13,5.24.21,10.49.65,15.73,1-3.05-.15-6.15-.26-9.27-.32-4.92-.11-9.76-.11-14.49,0l-.24-9.67,0-1.38A6.67,6.67,0,0,1,127.42,84.52Z" transform="translate(0 -0.25)"/><path class="c" d="M126.44,82.69h0l-3.26-3.75v-.49l1.27-.58c.54,1.15,1.33,2.3,2,3.44Z" transform="translate(0 -0.25)"/><path class="b" d="M123.17,78.45v.49l-2-2.34-5.3-6.09V19.25h9l1.57,62.07c-.63-1.14-1.42-2.29-2-3.44Z" transform="translate(0 -0.25)"/><path class="c" d="M161.71,101.74l-34.16-3.21h-6.42V76.6l2,2.34V98c11.8,1.08,23.25,2,34.66,3.25C159.12,101.34,160.42,101.51,161.71,101.74Z" transform="translate(0 -0.25)"/><path class="b" d="M117,104.83l-10.73,8.47v13.9L80.21,103.31a9.71,9.71,0,0,0,3.69-1.09c3.17-1.71,4.43-4.87,5.43-7.38a22.75,22.75,0,0,0,1.52-6.52Z" transform="translate(0 -0.25)"/><polygon class="b" points="106.27 144.12 106.27 162.35 94.96 148.24 94.95 148.24 92.26 144.88 92.26 138.69 96.28 138.69 96.28 133.63 106.27 133.63 106.27 144.12"/><polygon class="b" points="173.38 172.78 172.73 188.41 110.83 185.81 106.27 181.62 106.27 162.35 106.27 144.12 106.27 133.63 106.27 128.63 106.27 126.95 106.27 113.06 117 104.58 121.13 101.33 156.44 103.92 172.08 118.92 173.38 172.78"/><rect class="b" x="96.28" y="128.63" width="9.99" height="5"/><polygon class="b" points="96.28 133.63 96.28 138.69 92.26 138.69 88.24 138.69 88.24 138.63 88.24 130.31 88.24 126.95 88.24 122.61 96.28 122.61 96.28 128.63 96.28 133.63"/><polygon class="b" points="92.26 144.88 94.95 148.24 57.4 148.24 0.5 148.24 0.5 139.99 8.53 139.99 13.53 139.99 17.44 139.99 42.2 139.99 42.2 138.63 88.24 138.63 88.24 138.69 92.26 138.69 92.26 144.88"/><rect class="a" x="42.2" y="126.95" width="46.04" height="3.36"/><rect class="b" x="0.5" y="148.23" width="56.9" height="10.43"/><polygon class="b" points="42.2 125 42.2 126.95 42.2 130.31 42.2 138.63 42.2 139.99 17.44 139.99 13.53 139.99 8.53 139.99 8.53 123.69 14.29 123.69 16.13 120.66 30.47 120.66 30.47 125 42.2 125"/><path class="d" d="M185.76,19.33V14.47c-3-.46-7.57-1.18-13-2.17-4.9-.89-8.84-1.68-11.86-2.31l-5.26-1.11-.25-.05a126.6,126.6,0,0,0-30.85-2.18l.32,12.59,1.57,62.07" transform="translate(0 -0.25)"/><path class="d" d="M155.36,9l.25-.16" transform="translate(0 -0.25)"/><line class="d" x1="209.7" y1="22.22" x2="209.7" y2="22.44"/><polyline class="d" points="179.88 95.38 181.85 18.57 185.76 19.09 209.7 22.23 212.68 22.61 218.34 23.36 218.34 98.5 215.35 99.59 192.28 108.06 190.52 106.95"/><line class="d" x1="187.81" y1="105.25" x2="185.12" y2="103.58"/><polyline class="d" points="171.21 108.06 176.64 108.06 176.64 105.22"/><polyline class="d" points="121.13 76.36 121.13 98.28 127.55 98.28 161.71 101.5"/><line class="d" x1="121.13" y1="98.28" x2="121.13" y2="101.32"/><line class="d" x1="177.51" y1="117.17" x2="177.51" y2="186.89"/><polyline class="d" points="172.73 188.41 177.51 186.9 184.89 186.9 189.24 182.99 189.89 182.99 211.39 182.99 226.16 163.88 226.16 104.8 226.16 101.33 215.52 101.33 215.43 101.36 194.55 109.75 194.45 109.8 192.28 108.06"/><line class="d" x1="189.89" y1="182.98" x2="189.89" y2="125.35"/><line class="d" x1="208.41" y1="117.17" x2="226.16" y2="104.79"/><polyline class="d" points="156.44 103.92 165.39 102.25 166.87 101.97 167.49 102.84 171.21 108.06 177.51 117.17 172.08 118.92 156.44 103.92 121.13 101.33 117 104.58 106.27 113.06 106.27 126.95 106.27 128.63 106.27 133.63 106.27 144.12 106.27 162.35 106.27 181.62 110.83 185.81 172.73 188.41 173.38 172.78 172.08 118.92"/><path class="d" d="M117,104.83,90.85,88.32a22.75,22.75,0,0,1-1.52,6.52c-1,2.51-2.26,5.67-5.43,7.38a9.71,9.71,0,0,1-3.69,1.09l26.06,23.89" transform="translate(0 -0.25)"/><line class="d" x1="94.96" y1="148.23" x2="106.27" y2="162.35"/><polyline class="d" points="92.26 138.69 92.26 144.88 94.95 148.24"/><line class="d" x1="96.28" y1="128.63" x2="106.27" y2="128.63"/><line class="d" x1="96.28" y1="133.63" x2="106.27" y2="133.63"/><polyline class="e" points="42.2 130.31 42.2 138.63 42.2 139.99 17.44 139.99 13.53 139.99"/><polyline class="e" points="8.53 139.99 8.53 123.69 14.29 123.69 16.13 120.66 30.47 120.66 30.47 125 42.2 125 42.2 126.95"/><line class="e" x1="42.2" y1="126.95" x2="42.2" y2="130.31"/><line class="e" x1="88.24" y1="138.63" x2="42.2" y2="138.63"/><polyline class="e" points="0.5 148.24 0.5 139.99 8.53 139.99 13.53 139.99"/><polyline class="e" points="94.96 148.24 94.95 148.24 57.4 148.24"/><rect class="e" x="0.5" y="148.23" width="56.9" height="10.43"/><polygon class="d" points="88.24 126.95 88.24 122.61 96.28 122.61 96.28 128.63 96.28 133.63 96.28 138.69 92.26 138.69 88.24 138.69 88.24 138.63 88.24 130.31 88.24 126.95"/><path class="d" d="M215.43,101.81v-1.76" transform="translate(0 -0.25)"/><polyline class="d" points="124.51 19 115.83 19 115.83 70.27 121.13 76.36 123.17 78.69 126.43 82.44"/><path class="f" d="M27.11,130.89a6.26,6.26,0,1,1-6.26-6.26A6.26,6.26,0,0,1,27.11,130.89Z" transform="translate(0 -0.25)"/><path class="g" d="M23.19,130.89a2.34,2.34,0,1,1-2.34-2.34A2.34,2.34,0,0,1,23.19,130.89Z" transform="translate(0 -0.25)"/><path class="f" d="M194.39,108.3a9.1,9.1,0,1,1-9.1-9.09A9.09,9.09,0,0,1,194.39,108.3Z" transform="translate(0 -0.25)"/><path class="g" d="M188.69,108.3a3.4,3.4,0,1,1-3.4-3.4A3.4,3.4,0,0,1,188.69,108.3Z" transform="translate(0 -0.25)"/><rect class="f" x="121.17" y="75.01" width="6.7" height="6.7"/><rect class="f" x="129.52" y="10.66" width="6.7" height="6.7"/><path class="a" d="M207.3,134.1h20.4v-.85a2.32,2.32,0,0,0,1.68.85c1.77,0,3.2-2.48,3.2-5.55s-1.43-5.55-3.2-5.55a2.32,2.32,0,0,0-1.68.85V123H207.3c-1.76,0-3.19,2.49-3.19,5.55S205.54,134.1,207.3,134.1Z" transform="translate(0 -0.25)"/></svg>