<svg xmlns="http://www.w3.org/2000/svg" viewBox="0 0 74.43 144.07"><defs><style>.a{fill:#063d5c;}.a,.b{fill-rule:evenodd;}.b,.c{fill:none;stroke:#063d5c;stroke-miterlimit:10;stroke-width:2px;}</style></defs><title>Asset 3</title><path class="a" d="M10.79.2a8.93,8.93,0,1,0,6.9,10.59A8.93,8.93,0,0,0,10.79.2"/><path class="b" d="M6.85,7.91c5.47-.65,18.6-1.64,30.67,3.35A32.54,32.54,0,0,1,52.15,22.51C57.43,30,57.54,38.21,57.57,43c.43,67.22-5.43,77-9.2,82.18a66.74,66.74,0,0,1-16.61,16"/><line class="c" x1="39.63" y1="134.49" x2="38.54" y2="143.96"/><line class="c" x1="36.29" y1="126.97" x2="45.22" y2="130.28"/><line class="c" x1="48.39" y1="124.69" x2="47.3" y2="134.16"/><line class="c" x1="51.39" y1="119.79" x2="70.65" y2="126.23"/><line class="c" x1="61.08" y1="123.22" x2="62.59" y2="133.44"/><line class="c" x1="63.84" y1="123.59" x2="72.95" y2="120.11"/><path class="c" d="M66.43,8.67q-1.73,5.78-3.7,11.72C61,25.75,59.1,31,57.19,36"/><path class="c" d="M73.68,9.91c-1.39,1.56-2.87,3.15-4.46,4.76Q66,17.93,62.53,21"/><path class="c" d="M60.92,2.25q.6,3,1.29,6.18.93,4.25,1.93,8.25"/><path class="c" d="M55.1,3.46q1.76,1.92,3.63,3.88,2.52,2.64,5,5.08"/></svg>