<svg xmlns="http://www.w3.org/2000/svg" viewBox="0 0 47.74 31.91"><defs><style>.a{fill:#2da537;stroke:#fff;stroke-miterlimit:10;}.b{fill:#fff;}</style></defs><title>Asset 1</title><path class="a" d="M23.2.94c-3.52,2.65-12.86,2.3-18.64,0C-5-2.88,5.27,19.6,5.76,21.68c1.46,6.08,15.09,2,15.64,8.12.47,5.19,21.76-3.63,21.05-6.31C42,21.7,55.79,10.17,38.54,8.15,35.87,7.84,26.54-1.58,23.2.94Z"/><path class="b" d="M19.41,10.88l.27.31c.16.18.28.18.46,0s.54-.4.79-.62.74-.67,1.1-1a.48.48,0,0,0,.1-.29,1.93,1.93,0,0,0,0-.34.83.83,0,0,1,.7-.75c.13,0,.13.07.1.16a2.17,2.17,0,0,0-.12.36.23.23,0,0,0,.08.18,1.83,1.83,0,0,0,.3.18.4.4,0,0,0,.5-.09,3,3,0,0,1,.71-.67.62.62,0,0,1,.69.19l.08.12a.25.25,0,0,1-.05.37.63.63,0,0,1-.62.15.76.76,0,0,0-.69.14c-.27.16-.55.28-.81.45-.49.3-1,.62-1.46.94a6.6,6.6,0,0,0-1.8,2.19A5.94,5.94,0,0,0,19,14.59a4.51,4.51,0,0,0,0,2.25.85.85,0,0,0,.24.36.44.44,0,0,0,.48.06.4.4,0,0,0,.24-.4,11,11,0,0,1,.32-2.35,11.51,11.51,0,0,1,.49-1.35,3.5,3.5,0,0,1,1.2-1.36c.41-.32.8-.65,1.22-.94s.89-.5,1.34-.74a.59.59,0,0,1,.65,0c.15.11.15.24,0,.33l-.67.36a9,9,0,0,0-1.3.78,7.57,7.57,0,0,0-1.93,2,1.46,1.46,0,0,0-.16.39.64.64,0,0,0,.52.69l.26,0a.35.35,0,0,0,.36-.17c.22-.37.42-.75.65-1.11a4.15,4.15,0,0,1,.46-.64,1,1,0,0,1,.71-.32c.05,0,.13.06.15.11a.57.57,0,0,1-.16.58l-.7.83a3.18,3.18,0,0,0-.68,2.57,5.47,5.47,0,0,0,.44,1.7,3.48,3.48,0,0,0,.73.9c.59.54,1.22,1,1.83,1.55a1.43,1.43,0,0,0,.9.35.58.58,0,0,1,.19,0,.28.28,0,0,1,.2.43,1.17,1.17,0,0,1-.62.54.53.53,0,0,1-.56-.17c-.63-.51-1.25-1-1.85-1.56a6.81,6.81,0,0,1-1-1.12,4.75,4.75,0,0,1-.52-1.09c-.19-.47-.35-1-.53-1.43a1.59,1.59,0,0,1-.06-.89.58.58,0,0,0-.5-.76c-.18-.06-.38-.15-.54,0a.63.63,0,0,0-.15.32,4.37,4.37,0,0,0,0,2,4.83,4.83,0,0,0,.42.93,8.27,8.27,0,0,0,.62,1,7,7,0,0,0,.84.88c.16.16.35.28.34.54a1.23,1.23,0,0,1,0,.2c-.05.21-.13.23-.28.07-.44-.46-.89-.91-1.31-1.39s-.67-.79-1-1.2a2.54,2.54,0,0,1-.18-.41,1.3,1.3,0,0,0-.21-.34.29.29,0,0,0-.36,0,.33.33,0,0,0-.14.37,6.22,6.22,0,0,0,.56,2,8.57,8.57,0,0,0,.52.81A8.22,8.22,0,0,0,22,22.73a3.15,3.15,0,0,0,.95.43c.46.16.93.28,1.4.42a.93.93,0,0,1,.54.51c.09.14,0,.24-.15.23a2,2,0,0,1-.55-.08c-.65-.23-1.29-.46-1.93-.71a2.83,2.83,0,0,1-1.1-.93c-.27-.35-.55-.68-.83-1,0,0-.05,0-.06-.07-.34-.48-.7-1-1-1.45a4.52,4.52,0,0,1-.65-1.75.66.66,0,0,0-.64-.63.41.41,0,0,0-.47.34c0,.31,0,.62,0,.93,0,.08,0,.16,0,.24s-.11.3-.31.22a.76.76,0,0,1-.52-.52c-.15-.54-.29-1.08-.44-1.61s-.32-1.07-.48-1.6a1.5,1.5,0,0,0-.76-.79l-.15-.1a.51.51,0,0,1-.21-.65c.08-.21.26-.28.43-.12a4,4,0,0,1,.58.66c.22.3.42.63.62,1a6.59,6.59,0,0,0,.47.77c.23.3.42.66.85.74s.5-.06.53-.4.05-.8.08-1.19A8,8,0,0,1,19,12.43a5.27,5.27,0,0,1,.43-.62c.06-.1.07-.15,0-.21A.41.41,0,0,1,19.41,10.88Z"/><path class="b" d="M24.58,12.24A3.52,3.52,0,0,1,25,12a4.24,4.24,0,0,1,1.79-.35,3.16,3.16,0,0,1,.74.16c.43.13.83.29,1.26.39a1.22,1.22,0,0,0,1.16-.4.35.35,0,0,0,0-.54,1.58,1.58,0,0,0-.63-.36c-.45-.12-.89-.28-1.34-.39a4.14,4.14,0,0,0-.7-.06c-.12,0-.16-.07-.18-.17a.35.35,0,0,1,.39-.42,3,3,0,0,1,.73.16,16.22,16.22,0,0,1,1.56.6,1.73,1.73,0,0,1,.61.45,5.37,5.37,0,0,0,.73.59c.3.27.59.58.88.86a8.11,8.11,0,0,1,.59.58,8.36,8.36,0,0,1,.72,1c.24.4.44.83.65,1.24a2.46,2.46,0,0,1,.09.29c0,.11.06.26-.07.31a.86.86,0,0,1-.42.06c-.08,0-.17-.11-.23-.2s-.15-.3-.24-.45l-.46-.71-.66-1.05a8.94,8.94,0,0,0-.51-.84,3.89,3.89,0,0,0-.65-.63.5.5,0,0,0-.78.33,1,1,0,0,0,.16.74c.25.39.5.79.72,1.2a9.86,9.86,0,0,1,.8,1.82,3.56,3.56,0,0,1,.17,1.88A5.83,5.83,0,0,1,30,20.93a5.05,5.05,0,0,1-1.8,1.1l-.11,0a.43.43,0,0,1-.48-.19.39.39,0,0,1,.21-.44c.41-.27.81-.55,1.24-.78a6.62,6.62,0,0,0,1.15-.81,2.6,2.6,0,0,0,.46-.66,3.76,3.76,0,0,0,.47-1.39,3,3,0,0,0-.32-1.72,12.85,12.85,0,0,0-.53-1.2A5.32,5.32,0,0,0,29,13.13a3.22,3.22,0,0,0-1.22-.52,7.91,7.91,0,0,0-2.33-.08A1.34,1.34,0,0,1,24.58,12.24Z"/><path class="b" d="M26.86,7.88c.83.11,1.66.19,2.47.34a6.37,6.37,0,0,1,2.38.93,2.88,2.88,0,0,1,.81.71c.2.28.47.51.69.78s.52.7.78,1c.09.12.19.23.27.35a3.87,3.87,0,0,1,.54,1.12.45.45,0,0,1-.13.45.21.21,0,0,1-.37,0c-.13-.2-.25-.42-.37-.63-.29-.54-.59-1.08-.89-1.62a3.2,3.2,0,0,0-.29-.51,1.79,1.79,0,0,0-.41-.37,10.2,10.2,0,0,0-2.63-1.34c-.46-.13-.94-.18-1.41-.27l-2.07-.39A.26.26,0,0,1,26,8.19c0-.14.1-.2.22-.22l.63,0Z"/><path class="b" d="M32.17,21.14c.22-.4.42-.79.64-1.17a5,5,0,0,0,.69-1.87,1.23,1.23,0,0,1,.13-.41.54.54,0,0,1,.23-.22c.16-.08.27,0,.28.15a2.46,2.46,0,0,1,0,.77c-.14.49-.33,1-.52,1.45-.1.27-.25.52-.38.79a1,1,0,0,1-.86.55A.62.62,0,0,1,32.17,21.14Z"/><path class="b" d="M30.8,22a1.11,1.11,0,0,1,1.21.91,1.13,1.13,0,0,1-.09.9,1.4,1.4,0,0,1-.31.33,6.63,6.63,0,0,1-.79.43c-.32.15-.66.28-1,.4a3.92,3.92,0,0,1-.59.15L28,25.42a.88.88,0,0,1-.53-.08,2,2,0,0,1-1-1.09.69.69,0,0,1,.51-.94c.79-.24,1.57-.48,2.35-.74.27-.09.53-.23.8-.33S30.64,22.06,30.8,22Zm-2,1.92c-.14,0-.21,0-.25-.17a3.9,3.9,0,0,0-.2-.47c-.06-.13-.14-.25-.32-.17a1.09,1.09,0,0,1-.3.07,1.3,1.3,0,0,0-.88.43.94.94,0,0,0-.19.46c0,.42.42.88.75,1.05a.25.25,0,0,0,.3-.07.23.23,0,0,0,.08-.28c-.06-.15-.1-.31-.15-.46.18-.09.29,0,.35.13s.11.28.16.41a.34.34,0,0,0,.35.22,1.35,1.35,0,0,0,.86-.31c.3-.22.26-.45.1-.76l-.1-.17.05-.05a1,1,0,0,1,.15.11,4.37,4.37,0,0,1,.23.49c.08.2.23.21.4.18a.9.9,0,0,0,.22-.06,3.59,3.59,0,0,0,1.14-.79.81.81,0,0,0,.18-.45,1.08,1.08,0,0,0-.37-.88.77.77,0,0,0-.5-.2,1.34,1.34,0,0,0-.84.31c-.23.18-.25.22-.1.48a2.64,2.64,0,0,1,.15.29l0,0c-.05,0-.11-.08-.15-.13s-.18-.27-.28-.4a.27.27,0,0,0-.14-.07,1.22,1.22,0,0,0-.78.28c-.12.08-.17.17-.13.29S28.73,23.71,28.82,23.93Z"/><path class="b" d="M29.07,23.78l-.26-.54c.17-.09.33-.19.49-.26a.19.19,0,0,1,.17.05.9.9,0,0,1,.18.28.41.41,0,0,0,.42.25.39.39,0,0,0,.29-.11.33.33,0,0,0,0-.38l-.24-.35c.3-.1.55-.19.81-.26a.35.35,0,0,1,.21.07.93.93,0,0,1,.35.72.5.5,0,0,1-.18.36c-.35.25-.72.48-1.08.71a.18.18,0,0,1-.17-.05,1.73,1.73,0,0,1-.18-.39.43.43,0,0,0-.59-.31C29.19,23.6,29.15,23.69,29.07,23.78Z"/><path class="b" d="M29.15,24c.25.48.25.48-.2.72a1.06,1.06,0,0,1-.21.11c-.21.08-.33,0-.37-.2a.68.68,0,0,0-.65-.6.43.43,0,0,0-.28.2.65.65,0,0,0,0,.34,1.76,1.76,0,0,0,.1.3l-.06,0-.37-.41a.54.54,0,0,1,0-.69.28.28,0,0,1,.11-.08c.27-.11.54-.2.82-.3.11,0,.16,0,.19.1a4.53,4.53,0,0,0,.23.55c.1.19.29.16.46.14S29.14,24.18,29.15,24Z"/></svg>