<svg xmlns="http://www.w3.org/2000/svg" viewBox="0 0 139.29 127.2"><defs><style>.a{fill:#fad2fc;opacity:0.5;}.b{fill:#ffd6d5;}.c,.d{fill:none;stroke-miterlimit:10;}.c{stroke:#6b6b6b;}.d{stroke:#000;}</style></defs><title>Asset 67</title><rect class="a" width="139.29" height="127.2"/><rect class="b" x="54.54" width="15.11" height="127.2"/><line class="c" x1="4.71" y1="15.59" x2="130.27" y2="15.59"/><line class="c" x1="4.71" y1="33.44" x2="130.27" y2="33.44"/><line class="c" x1="4.71" y1="51.29" x2="130.27" y2="51.29"/><line class="c" x1="4.71" y1="69.66" x2="130.27" y2="69.66"/><line class="c" x1="4.71" y1="87.51" x2="130.27" y2="87.51"/><line class="c" x1="4.71" y1="107.99" x2="130.27" y2="107.99"/><line class="d" x1="73.02" y1="105.94" x2="73.02" y2="108.89"/><line class="d" x1="48.79" y1="49.82" x2="48.79" y2="52.77"/><line class="d" x1="22.76" y1="32.48" x2="22.76" y2="35.43"/><line class="d" x1="84.79" y1="13.71" x2="84.79" y2="16.66"/><line class="d" x1="58.19" y1="106.52" x2="58.19" y2="109.47"/><line class="d" x1="59.46" y1="106.52" x2="59.46" y2="109.47"/><line class="d" x1="60.83" y1="106.7" x2="60.83" y2="109.65"/><line class="d" x1="62.21" y1="106.52" x2="62.21" y2="109.47"/><line class="d" x1="63.38" y1="105.46" x2="63.38" y2="110.53"/><line class="d" x1="64.76" y1="104.19" x2="64.76" y2="111.79"/><line class="d" x1="66.72" y1="104.19" x2="66.72" y2="111.79"/><line class="d" x1="68.29" y1="105.46" x2="68.29" y2="110.53"/><line class="d" x1="69.66" y1="106.52" x2="69.66" y2="109.47"/><line class="d" x1="72.41" y1="106.52" x2="72.41" y2="109.47"/><line class="d" x1="76.6" y1="106.52" x2="76.6" y2="109.47"/><line class="d" x1="77.9" y1="106.52" x2="77.9" y2="109.47"/><line class="d" x1="81.11" y1="106.52" x2="81.11" y2="109.47"/></svg>