<svg xmlns="http://www.w3.org/2000/svg" viewBox="0 0 13.29 36.11"><defs><style>.a{fill:#dfdedd;}.a,.b{stroke:#dfdedd;stroke-miterlimit:10;stroke-width:0.5px;}.b{fill:none;}</style></defs><title>Asset 4</title><path class="a" d="M13,35.75a1.88,1.88,0,0,0,0-.67c-.43-1.35-.85-2.71-1.28-4.06-.54-1.73-1.09-3.46-1.63-5.19a1,1,0,0,1,0-.56,2,2,0,0,1,.15-.71s0,0,0-.07A15.24,15.24,0,0,1,9.9,23c-.19-.7-.39-1.39-.59-2.09a.63.63,0,0,1,0-.36c.09-.24,0-.38-.27-.41a.16.16,0,0,1-.14-.06A.54.54,0,0,1,9,19.43c.23-.22.45-.43.68-.63a.43.43,0,0,0,.13-.46c-.19-.64-.39-1.28-.58-1.92-.15-.48-.29-1-.44-1.44-.63-.42-1.27-.86-1.94-1.33s-1.41-1-2.06-1.53l-.8.14.8-.14-1.08-.84c.07.27.15.54.23.81l2,7.27c.1.34.16.41.51.43A8.17,8.17,0,0,1,7.3,20c.23.05.23.26.3.43a.15.15,0,0,1,0,.2q-.32.26,0,.51a.49.49,0,0,1,.15.23c.26.76.5,1.51.72,2.28.11.41.35.78.45,1.2s.45.35.51.65h0c.28.06.34.29.42.52q1.41,4.61,2.84,9.21c.06.19.14.39.21.58s0,.1.1.08S13,35.79,13,35.75Z"/><line class="b" x1="2.59" y1="7.52" x2="3.78" y2="7.32"/><line class="b" x1="2.97" y1="8.68" x2="4.16" y2="8.48"/><line class="b" x1="3.34" y1="9.96" x2="4.53" y2="9.76"/><line class="b" x1="3.55" y1="11.21" x2="4.74" y2="11.01"/><path class="b" d="M5.13,12.06l-.39.06c.65.5,1.34,1,2.06,1.53s1.31.91,1.94,1.33a2,2,0,0,1-.07-.23c-.34-1-.63-2.1-.94-3.15-.21-.7-.44-1.4-.64-2.11s-.37-1.2-.57-1.8-.44-1.41-.63-2.12A.19.19,0,0,1,6,5.32a5.22,5.22,0,0,0,.76-.66c.35-.49.25-.75-.23-.9-.22-.07-.44-.15-.66-.2a4.19,4.19,0,0,0-1.44-.28c-.12,0-.16-.07-.19-.16-.09-.31-.18-.62-.28-.93a.33.33,0,0,1,.13-.46A.8.8,0,0,0,4.34.58a.81.81,0,0,0-.62-.3,2.79,2.79,0,0,0-2.53.87.68.68,0,0,0,.24,1.16.58.58,0,0,0,.26.09c.41,0,.47.26.53.56,0,0,0,.1,0,.15.11.36.11.36-.26.43A2.17,2.17,0,0,0,.33,4.81c-.18.39-.06.61.36.7l1.18.24A.35.35,0,0,1,2.18,6c.49,1.75,1,3.49,1.48,5.24l1.08.84Z"/></svg>