<svg xmlns="http://www.w3.org/2000/svg" viewBox="0 0 97.35 115.32"><defs><style>.a,.b,.c,.d,.e,.f{fill:none;}.a,.b,.c,.e,.f{stroke:#9a9491;stroke-miterlimit:10;}.b{stroke-width:1.5px;}.c{stroke-width:0.5px;}.e{stroke-width:3px;}.f{stroke-width:2px;}.g{fill:#86bc29;}</style></defs><title>Asset 4</title><line class="a" x1="46.32" y1="21.89" x2="65.81" y2="8.15"/><line class="a" x1="74.47" y1="41.65" x2="65.81" y2="8.15"/><line class="b" x1="8.15" y1="67.04" x2="54.47" y2="61.65"/><line class="b" x1="13.83" y1="99.38" x2="39.31" y2="107.17"/><line class="c" x1="40.36" y1="107.17" x2="31.15" y2="82.04"/><line class="a" x1="46.32" y1="21.89" x2="74.47" y2="41.65"/><line class="a" x1="57.53" y1="61.65" x2="28.15" y2="47.04"/><line class="d" x1="46.32" y1="18.02" x2="28.15" y2="47.04"/><line class="a" x1="8.15" y1="67.04" x2="31.15" y2="82.04"/><line class="e" x1="8.15" y1="67.04" x2="11.15" y2="102.04"/><line class="a" x1="83.56" y1="68.92" x2="89.19" y2="20.37"/><line class="a" x1="74.47" y1="41.65" x2="88.3" y2="21.89"/><line class="a" x1="54.47" y1="61.65" x2="49.92" y2="24.41"/><line class="c" x1="11.15" y1="102.04" x2="31.15" y2="82.13"/><line class="f" x1="8.15" y1="67.04" x2="28.15" y2="47.04"/><line class="b" x1="31.15" y1="82.13" x2="57.53" y2="61.65"/><line class="a" x1="46.32" y1="21.89" x2="83.56" y2="68.92"/><circle class="g" cx="28.15" cy="47.04" r="8.15"/><circle class="g" cx="31.15" cy="82.04" r="8.15"/><circle class="g" cx="74.47" cy="41.65" r="8.15"/><circle class="g" cx="8.15" cy="67.04" r="8.15"/><circle class="g" cx="11.15" cy="102.04" r="8.15"/><circle class="g" cx="54.47" cy="61.65" r="8.15"/><circle class="g" cx="89.19" cy="20.37" r="8.15"/><circle class="g" cx="83.56" cy="68.92" r="8.15"/><circle class="g" cx="46.32" cy="21.89" r="8.15"/><circle class="g" cx="39.31" cy="107.17" r="8.15"/><circle class="g" cx="65.81" cy="8.15" r="8.15"/></svg>