<svg xmlns="http://www.w3.org/2000/svg" viewBox="0 0 256.14 135.69"><defs><style>.a{fill:#f5f4e7;}.b{fill:#494552;}.c{fill:#6f7076;}.d{fill:#544a60;}.e{fill:#686570;}.f{fill:#75757c;}.g{fill:#26292c;}.h{fill:#efefee;}.i{fill:#d4d6d5;}.j{fill:#00000b;}.k{fill:#929097;}.l{fill:#a5a8a8;}.m{fill:#fff;}.n{fill:#feffff;}.o{fill:#928e98;}</style></defs><title>Asset 3</title><path class="a" d="M.64,1.42C-.77,3.17.24,5.23,2.81,21.84a73.7,73.7,0,0,1,.87,8.69c.1,2.65,0,4.84,0,6.08-.25,8-1.18,7.84-.44,10C3.85,48.34,6.05,53,6,54.14a.74.74,0,0,0,.1.48A1.12,1.12,0,0,0,7.46,55c.17-.12.19-.3.21-1.62s0-1.53-.17-1.63-.81.25-1,.38c-4.92,4-3.3,18.33-3.3,18.33.9,7.89,2.27,7.63,3.48,15.2,2.34,14.62-2.38,18.07,1.3,26.94,1,2.46,2.77,5.51,2.61,10-.13,3.61-1.39,5.06-.44,6.51s3.37,1.89,13,.44c9.14-1.38,10.81-2.37,17.89-3.13,7.89-.85,11.17-.2,12.75.2,4.23,1,5.16,2.39,8.89,3.8,6.22,2.34,10.67,1.21,17.81.86,6.66-.32,5.85.52,22.15,1.74,15.11,1.14,26.95,1.25,33.45,1.3,11.2.1,10.46-.28,30-.43,16.19-.12,14,.16,26.93,0,21.81-.26,22.38-1,29.54,0A137.28,137.28,0,0,0,240,135.65c12.08.35,14.61-1.38,15.63-3s.22-3-.43-10c-.59-6.33.06-6-.44-11.73-.73-8.52-2.08-8.3-2.6-16.07-.34-5.09.18-6.06-.44-11.73-.46-4.24-.9-5.06-1.3-8.69-.54-4.92-.18-7.51,0-13,.24-7.24.43-12.74-.43-18.68-1.3-8.91-3.35-7.83-4.78-16.51-1.87-11.35.89-17.83-3-20.41-1.4-.92-2.62-.68-6.52-.44-5.78.36-11.59-.22-17.37,0-13.44.52-20.16.78-25.2.87-10.95.19-10.47-.21-21.28,0-11.1.22-13.11.68-22.59.87-12.4.24-21.86-.31-23.89-.44C103.07,5.27,100.62,2,86.65,2.73c-12.72.69-10.18,3.39-23.46,4.34C45.69,8.31,27.47,4.6,20.62,3.16,9,.73,3.05-1.57.64,1.42Z"/><path class="b" d="M52.25,123.51c-1.42-.05-2.86.1-4.15-.76a2,2,0,0,0-2.06,0c-.41-1.66-2-1.43-3.14-2-2.32-1.2-4.64-2.38-6.94-3.6a14.12,14.12,0,0,1-4.44-3.69c-.41-1.22.34-1.88,1.18-2.5l1.3-.47c1.11-.18,2.47-.09,2-1.91a1.18,1.18,0,0,0,0-1.23,4.46,4.46,0,0,0-.13-2.43c.05-.35.12-.71-.39-.79l-1.12-.06c-.19-.19-.37-.24-.55,0h0a.29.29,0,0,0-.37,0l-2.14-.59c1.59-.17,3-1.33,4.75-.73a2.18,2.18,0,0,0,2.48-.31c1.26-1.42,3.14-1.67,4.67-2.62C45.87,98.2,48,96,50.45,94.39c1.11-.74.93-2.35,2.19-2.9a.55.55,0,0,0,1,0c1.19-1.6,2.38-3.22,3.52-4.86a1.7,1.7,0,0,0,0-2.06c0-.13,0-.27,0-.4.28-.14.28-.27,0-.41V83c.59-.43.35-1.07.41-1.63,1.21-1.26,2-2.34.57-4.22-.7-.92-2.22-2.73,0-4.17.5-.34.41-1.24-.19-1.8a3.68,3.68,0,0,1-1.2-3.37,2.9,2.9,0,0,1-2,.53h-.83l-.36-.41,0-1.21a1,1,0,0,1,1.42-.18c.79.62,1.29.1,1.91-.29,1.54-1,.88-2.4.68-3.61S56.19,61,55.05,60.94V60.2c.52-.05,1.08,0,1.33-.65.18-.48-.12-.57-.48-.62,0-2.46-1.93-4.08-3.1-5.9-.85-1.3-1.36-3.09-2.64-3.9-2-1.26-3.55-3-5.6-4.14-3.32-1.81-6.54-3.76-10.5-4-3.48-.21-6.38,1-9.23,2.76-.75.46-.65,1.1-.67,1.76h-.41A2.4,2.4,0,0,0,21.34,47a19.73,19.73,0,0,1-2.81,3.34,3.19,3.19,0,0,0-.88,2.49h0c-1.41.23-1.53,1.33-1.62,2.44s.81,1.25,1.7,1.22c0,.62-.1,1.17-.88,1.23l-.42.4v.4c-.84,0-1.25.6-1.62,1.22-.6,1.23-1,2.37.87,2.85.51.65,1.85-.05,2,1.22-1.54-1-2.12.35-2.87,1.24a9.7,9.7,0,0,1-3.63-.41c.59-1.27,1.44-2.44,1.54-3.9,0-.08.34-.13.53-.2,1.57-.46-.05-.8,0-1.21,1.1-3.61,2.21-7.3,4.31-10.4C20.58,44.34,23.91,40,30,38.71a17.19,17.19,0,0,1,10.78.7A35.18,35.18,0,0,1,54.68,50.8c.92,1,1.55,2.46,3.25,2.44v.41c-1.4,1.39-.82,2,.86,2.05,0,.53,0,1.07-.08,1.61v.82s-.14.09-.14.11a2,2,0,0,0,.15.29l.84,1.19c.54,1.37,1.09,2.74,1.63,4.1,0,.14,0,.27.08.4-.13.64.53.8.75,1.23-.61,1.55.17,3,.37,4.48,0,.42.08.84.11,1.26l-.12,0c-.61,0-1.64.33-1.41.63.81,1.06-.47,2.93,1.41,3.45a8.77,8.77,0,0,1-.49,4.51c-.41,1.32-.24,2.09,1.33,2,.31.32.56.76.94.91s.21-.37.25-.6l1.25-.21.23.42c0-.15.11-.31.16-.47l.86.23c1.87,1.46,3.12,1.24,4.42-.81.08-.1.16-.21.25-.31l0,0,.66.07c.34.33.6.22.8-.15h.15a2.35,2.35,0,0,1,1.55,1.46l2,3.89c.07.24-.11.79.49.43l.7,0h.83c-.24,1.35-2.3.43-2.42,1.94-.49.35-1,.72-1.47,1.06-1.16.78-2.41,1.42-.33,2.72.87.55.57,1.74.12,2.63-.66,1.3-1.38,2.57-2.07,3.85-1.07,0-2.21-.22-3,.85l-.2-.5c.08-1.18-.72-1.45-1.64-1.59.34-1.12,2.12-2.42,1.21-3.08s-.67-2.8-2.8-2.46c2,2.12,1.14,3.87-.34,5.57-.08.09-.07.25-.09.38-.71.3-1.51-.82-2.21.12l1,.69c0,.83-.62.82-1.22.81a.85.85,0,0,0-.81-.4c0-3.58-1.43-4.39-4.76-3.33-1.15.37-2,1.48-3.31,1.27-2.21-.38-3.22.54-3.31,2.69,0,.31,0,.7-.47.75-.78-1.47-1.53-1.59-3.29-.52a3.36,3.36,0,0,0-1.1,4.61l-1.6,1.14c0-.83-.25-1.51-1.31-1.24s-2.32,2.13-1.74,3.12c.84,1.42,0,1.37-.91,1.21s-1.71-.38-1.13,1c.25.6-.13,1-.39,1.47a2.91,2.91,0,0,0,.46,3.22c.71,1,1.32-.6,2.11-.37,1,.68-1,1.74.16,2.19a31.12,31.12,0,0,0,4.57,1.26A24.76,24.76,0,0,1,51,119.17c-1.79,1.11-1.74,1.62.43,2.88A1.52,1.52,0,0,1,52.25,123.51Zm13.41-32c-.29.05-.64,0-.62.49,0,0,.08.12.13.13.45,0,.43-.33.49-.62.14-.11.56.19.44-.31Zm6.1-2.43.18.16L71.78,89c-.91-1.43-2.11-.06-3.17-.27-.52-.1-.54.68-.24,1.38C69.34,89,70.66,89.47,71.76,89.06ZM73,94.32a6.14,6.14,0,0,1-1.78-.12c-1.09-.39-1.14.44-1.23,1-.18,1.06.73.71,1.21.71,1,0,1.88-.3,1.83-1.58l.17-.2Zm-2.56,3.79c0-.11-.07-.29-.15-.33s-.22.07-.34.12c0,.11.07.29.15.33S70.29,98.16,70.41,98.11ZM67.25,91.4c.11-.05.26-.08.3-.17s0-.21-.08-.32c-.1.06-.25.09-.3.18S67.21,91.29,67.25,91.4ZM14.91,63.62c-.11-.06-.21-.15-.31-.15s-.2.1-.3.15c.1.05.2.15.3.15S14.8,63.68,14.91,63.62ZM58.65,74.37l-.09-.13-.12.11.16.16Z"/><path class="c" d="M7.69,48.4c.22-.52.44-1,.67-1.54a3.25,3.25,0,0,0,.88-1.7l.81-1.45a1.86,1.86,0,0,0,.75-1.47l.95-.11h1.61c1.08,0,2.16.14,3.24.07,2-.12,2.73-1.29,1.89-3.14-.22-.48-.34-.79-.06-1.26.66-1.09,0-1.75-.82-2.37-1.45-.85-1.45-.85-.77-2.54a2.53,2.53,0,0,1,3.25.81c.67,2,2.23,2.87,4.21,3.09s3.14-.94,2.74-2.71c-.84,1.92-2.2,1.83-3.69,1.25l-.41-.4c0-.33.26-.83.12-1-1.34-1.34-.5-1.88.76-2.37A7.34,7.34,0,0,0,25,30.85h.81c1.29,0,2.66-.19,2.31,1.85-.05.3.24.5.51.5a.71.71,0,0,0,.7-.82c0-.93-.86-1.48-1.15-2.29a2.59,2.59,0,0,0,2.16-.85,2.74,2.74,0,0,1,2.4-.81c3.25.42,6.6.5,9.34,2.7a5.6,5.6,0,0,0,2.16,1.06,3.25,3.25,0,0,1,2.57,2c.24.67.68,1.22,1.5,1.06s.9-.88,1.08-1.54a20.38,20.38,0,0,0,.31-7.85c-.38-3.35-2.51-6-4.92-8.18s-6-1.78-8.94-3.07a1,1,0,0,0-.6,0c-3,.92-6.11.6-9.11,1.37-2.15.54-3.06,2.18-4,3.86-1,.21-1.93.7-2.89,0a2.71,2.71,0,0,0,0-.4l1.66-1.62.45-.41a.3.3,0,0,0,.3-.24l.62-.49,5.14-2.93a3.73,3.73,0,0,0,1.88-.65,7.77,7.77,0,0,0,2.61-.52l.39,0,.41,0,1.2-.08h.85l2,.07a26.56,26.56,0,0,1,6.48,1.86c.55.26,1.26.74,1.62-.29H45a.31.31,0,0,0,.35.15c0,.46-.52,1.09.37,1.32L48.94,18l.46.42c1,.87,1.55,2.35,3.05,2.7h0c.08,1.59,1.43,2.44,2.15,3.65l.47.79h0l.35.55q1.45,3.39,2.93,6.78l.28.67c0,.18.05.36.08.54l.27.7c0,.31.11.62.17.93l.06.4c.13.55.25,1.09.37,1.64a3,3,0,0,0,.32,1.75l.2,2.33a.29.29,0,0,0,0,.36c0,2.19,0,4.38,0,6.57a.27.27,0,0,0,0,.36l-.21.83c-.48,0-1-.05-1.29.42-.79,1.44-1.75,1.48-3,.54-.23-.17-.65-.1-1-.15A35.18,35.18,0,0,0,40.82,39.41,17.19,17.19,0,0,0,30,38.71C23.91,40,20.58,44.34,17.49,48.94c-2.1,3.1-3.21,6.79-4.31,10.4h-.82c-.31-.08-.8-.32-.92-.2-1.29,1.27-2.62.9-4,.2,0-.43,0-.85,0-1.27l.1-.1-.07-.11a3,3,0,0,0,.44-1.64c.18-.83,1.42-1.52.35-2.53l-.8-1,.07-.1-.09-.1c0-.15,0-.3,0-.45.52-1.08,0-2.17,0-3.25h0C7.56,48.66,7.62,48.53,7.69,48.4Zm12.48-8.93c0,.48,0,.81,0,1.15,0,.56-.24,1.43.55,1.5,1,.09.79-.85.84-1.48s-.14-1.34.32-1.94,1.64-.39,1.17-1.28-1.5-.14-2.14-.1C19.57,37.39,20.47,38.82,20.17,39.47Z"/><path class="d" d="M152.85,67.13l1.43-.29.08.63a23.74,23.74,0,0,0-2.42,1.73c-1.22,1-1.07,1.77.08,2.72a8.49,8.49,0,0,0,7.16,1.65,3.33,3.33,0,0,0,.44,3.21c.64-.51.32-1.08.43-1.56.48-.4.53-1.68,1.64-.81a15.45,15.45,0,0,1,2.08,1.35c.43.39,1.4,1.06-.05,1.49-.14-.3-.28-.3-.42.17-.23.18.3-.24-.19-.15-.27.06-.52.17-.54.49s0,.58.4.52.31-.37.33-.86c0-.17.21-.17.21-.17h.2c1.44,1.91,1.46,2.56-.34,3.35s-1.06,1.21,0,1.79a4.24,4.24,0,0,1,2.22,3.55c.06,1.37-1.57,1.77-2.68,2.33l-1.22-.18c-1.9-2-3.84-3.88-5.68-5.88-.85-.92-.46.39-.79.34a.94.94,0,0,1-.89-.43c-.22-.53,1.08-1.4-.38-1.63-1.61-2.63-6.67-4.57-9.16-3.51,0,.06.07.15.11.16,3,.48,3,.48,5.55,2.66.09.07.29.12.36.07,1.76-1.14.77.66,1.11,1-.53-.08-1.06.6-1.53.11-1.06-1.11-1.57-.12-2.12.5-.75-.09-.13-1.71-1.26-1.12-2.91,1.53-6.11,1-9.08,1-5.85-.19-11.71,0-17.56-.28a2.28,2.28,0,0,0-2.29,1.35c-.84,1.73-2.29,2.12-4.07,2.44-.94.17-3.21-1.23-3,1.51a1.56,1.56,0,0,1-.73.13c-1.41-.18-1.65-1.14-1.49-2.34,1-1.67,2.7-2.26,4.39-2.83.38-.13,1.1-.19,1-.46-.84-2.74,1.45-.38,1.87-1.19-1-1.18-.73-1.76.85-1.62a.87.87,0,0,0,.87-.4c.48-.31.33-1.39,1.38-1,1.46.51,2.35-.37,3.1-1.45,2-.19,4,.23,6,.11,1.21-.08,3,.69,3.71-1.28,1.59-.35,1,1.34,1.62,1.89.62-.38.9-1.11,1.67-1.07.25.72-.6,1.35-.1,2.33.52-1.57,1.45-1.33,2.58-.93a30.07,30.07,0,0,0,3.81.86c0-.19.08-.39.13-.59-2.32,0-4.06-1.79-6.41-1.69a.86.86,0,0,0-.42-.81c0-1.29,2.16-2.08.82-3.66.64,0,.83-.43.73-1,.17-.23.34-.46.5-.7l.49-.28.71-.16,1.24-.31,1.22,0,2.84,0,1.2.05a.65.65,0,0,0,.75.11l2,.33.44.11,1.28.22a.76.76,0,0,0,.86-.35l.9-.41.09.06.06-.11.1,0,.64-.28a.13.13,0,0,0,.2-.06A1,1,0,0,0,152.85,67.13Z"/><path class="d" d="M207.06,67.14,209.7,67l1.61,0h1.23l.39-.05c.41.07.83.34,1.22,0,1.47.16,2.62,1.11,4,1.58.36,1.84-.54,3.27-1.52,4.67-1.15,1.18-2.29,2.36-3.82,3.92L217,75.72l.82-.12,2.85,0,1.65.29,1.19.07.42,0a84.76,84.76,0,0,0,8.95,1.62,5.35,5.35,0,0,0,2.26.49,1.08,1.08,0,0,0,1,.32l1.8.51.64.27a1.68,1.68,0,0,0,1.31.21c.37.51.7,1.06,1.41,1.13l1.31.86c.64.85,1.83,1.32,1.77,2.64-.63.22-.9-.61-1.45-.51a38.51,38.51,0,0,1-6.79.18c0-.45-.36-.61-.71-.85-1.41-1-3.16-.47-4.6-1.19.21-2.17,1.91-.81,2.87-1.21.06.42.16.82.71.75s.46-.42.52-.75c.18-.07.5-.13.52-.23.12-.86-.58-.54-.94-.56-4.71-.14-9.38.68-14.1.42a.8.8,0,0,0-1,.79h-.38c-.84-1.58-2.24-.81-3.3-.58-.63.15-.3.84.42.93.5,1.66,1.28,2.63,3.35,2.18.94-.2,2.43-.85,3.18.7-2.61.32-5.23.59-7.83,1a1.45,1.45,0,0,1-1.53-.57c0-.53,0-1.12-.73-1.17s-.88.61-.92,1.21c-.78,0-1.61-.17-1.75-1s1.18-.78,1.29-1c.13-1.18-1-.53-.9-1.36l1.78.08.2.18-.17-.21c0-1-1.81-1.17-1.39-2,.68-1.29,1.9-2.29,1.28-4,1.47-.52.44-1.26,0-1.43-.95-.34-.95.62-1.09,1.2-.56,2.4-1.12,4.8-1.62,7.21-.44,2.15-1,2.55-3.14,2.27a21.51,21.51,0,0,0-2.42,0,2.7,2.7,0,0,0,1.57,1.61l.75,0h0a5.44,5.44,0,0,0,.78,2c-.25,1.12-1.51.61-2.06,1.27H203.3a11.78,11.78,0,0,1-5.73-4.52c.22-1.19-.83-2.06-.79-3.25,0-.63-1-.4-1-.13.16,1.32-1.16.88-1.55,1.47-.93-.08-.87-1.36-2.31-1.31-3.51.14-5-3.21-3-6.1,1.2.59,1.78-1,2.86-.82,4.24-.33,8.46.39,12.75-.64,2.51-.6,5.26-.25,7.59-1.79,1.79-.33,1.18-2.69,2.73-3.22a7.2,7.2,0,0,0-.48-.81c-.26-.34-.55-.3-.81,0s-.42.5-.63.75c-1.18-1.4-2.87-1-4.25-.86-3.49.36-6.92,1.24-10.41,1.52-1.27.1-2.83,1.45-4.05-.23a.9.9,0,0,0,.41-.8l7.7-1.07,2.87-.24A2.45,2.45,0,0,0,207.06,67.14Zm-4.84,18.93c.66-.09.92-.43.92-.84,0-1.34-1.24-.9-1.95-1.22-.32-.15-.77-.17-.76.27C200.45,85.52,202.44,84.66,202.22,86.07Zm12.58-5.46-2.05-.1C213.43,81.45,214.11,81.19,214.8,80.61Zm-20.47.93c-.12-.07-.22-.17-.32-.17s-.22.09-.33.14c.1.06.2.17.31.17S194.21,81.6,194.33,81.54Z"/><path class="e" d="M191.79,74.8c-1.08-.18-1.66,1.41-2.86.82l0-1.19c.21-.11.5-.16.62-.33a.22.22,0,0,0-.29-.31c-.18.11-.25.39-.37.59-.46-.33-1-.28-.95.11.05.65-.21.63-.69.51s-.83-.74-1.4-.24c.24.77,1.48,1.35,1.38,1.5-.93,1.38.15,2.9-.41,4.25-1.53-.48-3.15-.13-4.73-.71-.92-.33-2.22.52-3.36.28-3.64-.78-6.58,1.48-9.86,2.22-.26.06-.13.46.11.65,0,.54.06,1.19-.57,1.39-.79.26-.55-.51-.72-.87-.26-.53-1.81-.93-.17-1.66a1.47,1.47,0,0,0-.21-.5c-2-2.23-1.34-5.14-2-7.71a1.25,1.25,0,0,1,1.86-.3,3.39,3.39,0,0,0,3.42-.21c1.06-.6,1.9-2.47,3.58-1a.68.68,0,0,0,.42-.29c.56-1.65,2.19-2.81,2.11-4.74,1.31-.46,2.38,1.49,3.75.38l1,.77c.1,2-1.62,2.53-2.71,3.58L176,72.7a3.92,3.92,0,0,0,2.79,0,5.22,5.22,0,0,0,2.4-.73,1.09,1.09,0,0,0,1-.35l3.5-1.3.54-.2h.06a4,4,0,0,0,1.86-.53l.78-.13,2.86-.3c.46,2.33-1,1.69-2.65,1.52,2.46-.08.4,2.11,1.74,2.45C191.52,73.51,191.39,74.3,191.79,74.8Z"/><path class="e" d="M109.19,80.05l2.93-1.37,1.1-.26c-.21,1.84-1.8,2.51-3,3.36-2.78,1.91-6.09,2.37-9.49,3,1.42.79,2.81,0,4,.57a6.85,6.85,0,0,1,.29,1.58c-.12,1.61.68,2.21,2.18,2.35,2.17.21,3.66,1.63,5.27,2.93s2.62,3.62,5,4.17c.42.09.66.65.67,1.17-2.31-.75-4.42-2.06-6.88-2.4-1.75-.13-1.8-2.31-3.3-2.74l-.75-.36-1.64-.68-.74-.33-.51-.23-.47-.12a.69.69,0,0,0-.76-.39,2,2,0,0,0-1.39-.53c-1.45-1-3.18-1.3-4.74-2l0-1.14h0c.46,0,1,.07,1.19-.51.15-.37.32-.85.77-.24.21.29.25.89.77.38a1.31,1.31,0,0,0,.29-.94c0-.59-.46-.4-.86-.42a72.35,72.35,0,0,1-10.26-1.53l-1.72-.41h-.63a1.07,1.07,0,0,0-.93-.37l-.3,0c-.36-.43-.84-.37-1.32-.35-.29-.5-.78-.44-1.24-.45H81.53c-.13-.94,0-2-1.17-2.44-.09-.66.41-1,.73-1.5l3.3-.42,4.9.15,3.2.2h0l.33,0,5.41.69.4,0,2.44.37.4,0,1.57.29.88.11,1.36.14a1.06,1.06,0,0,0,1.07.27l1,.16A2.14,2.14,0,0,0,109.19,80.05Z"/><path class="e" d="M147.22,110.13l-.11,0-.07.08-1.07.16-.21-.17c-.69-1.72-2.8-2-3.62-3.57a15.87,15.87,0,0,0,4.35-1.43c.75-.32,1.09.21,1.57.55a80.17,80.17,0,0,0,8.86,5.5c2,1.08,4.3,1,6.29,1.91a25,25,0,0,0,12,2,3.59,3.59,0,0,0,3.5-4.41A8,8,0,0,0,177,107c-1.26-1.18-1.11-2.25-.85-3.57l1.74,1.5,2.51,3.25.84,1.58.6,1.94a12.31,12.31,0,0,1-1.32,3.82c-.48.72-1.92.16-1.73,1.49l-1.23.56-.64.25a44.1,44.1,0,0,1-9.54-.2l-.8-.11-1.94-.46a1.8,1.8,0,0,0-1.3-.41l-2-.78c-.21-.22-.41-.42-.71-.13l-10.73-6.48a1.42,1.42,0,0,0-1.36.44l-.67.16Z"/><path class="f" d="M135.64,70.33c1.34,1.58-.83,2.37-.82,3.66-2.41-.58-4.47-2.17-7-2.46-1.72-.3-3.39-1.46-5.22-.38-.92.31-1.79,1.08-2.82.28.15-1-.43-2,0-3a.24.24,0,0,1,.27-.18c.51,0,.88-.11.94-.69a.22.22,0,0,1,.27-.13A19.94,19.94,0,0,1,129,67a7.69,7.69,0,0,1,4.21,1.71c.24,1.14,1.15,1.14,2,1.2h0l.4.4Z"/><path class="e" d="M115.33,73.11l.28-1,.36-.42c.14,0,.21-.09.21-.22l1.13-1c1.12-.29,1.37-1.67,2.47-2-.42,1,.16,2,0,3-1.23.73-1.79,1.45,0,2.19,0,.25,0,.55.38.58.07,0,.24-.15.23-.22,0-.35-.33-.35-.59-.38.78-1,2.49-.93,2.81-2.45,1.83-1.08,3.5.08,5.23.38a.92.92,0,0,0,.48.83c.07.36.58.81.07,1.06a.87.87,0,0,1-1.33-.62c-.27-.84-1.25-.77-1.85-.92s-.51.78-.55,1.3h-2c-.7-.42-.43.2-.5.46l0,1.51c-.75,1.08-1.64,2-3.1,1.45-1.05-.36-.9.72-1.38,1-.92-.08-1.1-.76-1.23-1.49s.58-1.48-.45-1.91l-.27-.27C115.65,73.69,115.49,73.4,115.33,73.11Z"/><path class="d" d="M13.36,42.14h-1.6a17.09,17.09,0,0,0,.18-4,35.36,35.36,0,0,1,2-10.13l.48-1.2a.94.94,0,0,0,.41-.83L16,24.34a.84.84,0,0,1,.45.83,41.62,41.62,0,0,0,.41,7.73c-.68,1.69-.68,1.69.77,2.54-5.45-.32-4.23-.3-4.34,4.08C13.25,40.39,13.33,41.27,13.36,42.14Z"/><path class="b" d="M166.15,64.45c1.94.94,4.07.37,6.1.72.89.15,1.86.67,2.85.36a5.4,5.4,0,0,0,2.21.45,1.25,1.25,0,0,0,1.05.3l2,.81.12.37c-1.37,1.11-2.44-.84-3.75-.38a.83.83,0,0,0-.81-.41c-.43-.59-1.07-.34-1.63-.39a4,4,0,0,0-2.44-.42c-.45,0-.92-.07-1.21.41-.84-.15-1.8-.73-2.12.72-.13.59-.69.46-1.13.48-.1-.6.21-1.31-.36-1.84-.71.39-.36,1-.47,1.47-.64.05-1.52-.08-.93,1,.14.25,1,.22.42.74s-1,.2-1.11-.53c-.11-.43-.48-.48-.83-.55v-.2c0-.44,0-.82-.67-.61a6.36,6.36,0,0,0-1.81,1.25c-1.74-.89-3.28-2.61-5.54-1.17a5.28,5.28,0,0,1-1.73.4l-.08-.63,1.3-.58.4-.07,2.85-.74c1.8.11,3.48-.82,5.3-.56A2.18,2.18,0,0,0,166.15,64.45Z"/><path class="g" d="M116.54,76.16c.13.73.31,1.41,1.23,1.49a.87.87,0,0,1-.87.4c-1.58-.14-1.84.44-.85,1.62-.42.81-2.71-1.55-1.87,1.19.09.27-.63.33-1,.46-1.69.57-3.4,1.16-4.39,2.83l-1.19,0c-.46,0-.94-.11-1.24.38l-.8,0c-.36.15-.41.46-.42.8l-.4,0c-1.24-.52-2.63.22-4-.57,3.4-.63,6.71-1.09,9.49-3,1.25-.85,2.84-1.52,3-3.36h0c.4.08.71,0,.84-.44l.54-.48C115.51,77.46,115.55,76.11,116.54,76.16Z"/><path class="b" d="M16.43,25.17a.84.84,0,0,0-.45-.83c.39-1.37,1.5-2.3,2.15-3.51l.48-.61.26-.32a2.22,2.22,0,0,0,.37,0c1,.71,1.92.22,2.89,0,1.32.3,2.68.54,3,2.23,0,.32.3.7-.1.88s-.79-.1-.81-.56c-.05-.94-.83-1-1.43-1.18-2.3-.64-3.81.62-5.11,2.3-.63.81,0,1.63,0,2.44C17,26.06,16.85,25.42,16.43,25.17Z"/><path class="g" d="M192.62,68.87c.68.14,1.32-.46,2-.14a.9.9,0,0,1-.41.8,24.39,24.39,0,0,0-3.35,3.61c-1.34-.34.72-2.53-1.74-2.45,1.61.17,3.11.81,2.65-1.52l.46-.24A.32.32,0,0,0,192.62,68.87Z"/><path class="h" d="M119.78,68.44c-1.1.33-1.35,1.71-2.47,2-.56-1.71.87-2.89,1-4.47,1,.41.92,1.65,1.84,1.92a1.49,1.49,0,0,1-.14.37A.24.24,0,0,0,119.78,68.44Z"/><path class="h" d="M73.38,78.88c.43-.22.58-.86,1.2-.8h0v1.25c-1.08-.06-.61,1.36-1.45,1.52H73l-.8.15-.66-.07,0,0c-.09.1-.17.21-.25.31L71,81.1l.39-2.21,0,0Z"/><path class="e" d="M129,67a19.94,19.94,0,0,0-7.73.42,7.13,7.13,0,0,1,2.18-1.23l.67-.26,2.7,0,.69.26Z"/><path class="h" d="M192.25,68.93l-.46.24-2.86.3c-.27-.65-.85-1.64.09-1.82C190.17,67.43,191.67,67.27,192.25,68.93Z"/><path class="b" d="M181.17,116.65c-.58.12-1.23-.43-1.74.22l-.66.17c-.19-1.33,1.25-.77,1.73-1.49a12.31,12.31,0,0,0,1.32-3.82l.23.1.09.81C183,114.27,180.94,115.18,181.17,116.65Z"/><path class="h" d="M29.3,13.13a3.73,3.73,0,0,1-1.88.65,2.87,2.87,0,0,0-.56-2.09c-.32-.39-.09-.81.33-1a.53.53,0,0,1,.79.57C27.9,12.3,28.77,12.58,29.3,13.13Z"/><path class="h" d="M206.29,65.33c1.43-.28,2.5-.51,3.58-.67.45-.07,1-.06.84.7s-.44.53-1,.24C208.77,65.07,207.72,66.38,206.29,65.33Z"/><path class="e" d="M58.79,55.7c-1.68-.1-2.26-.66-.86-2.05l1.34.05c0,.39,0,.79,0,1.18l-.07.4Z"/><path class="h" d="M180.48,67.46l-.12-.37c1.43-.17.42-1.64,1.44-2.42.29,1.35.85,2.47-.35,3.56Z"/><path class="h" d="M116.54,76.16c-1,0-1,1.3-2,1.35-.25-1.43.55-2.38,1.5-3.26C117.12,74.68,116.43,75.51,116.54,76.16Z"/><path class="h" d="M23.84,11.44c.8.41.57,1.18.65,1.76s-.38,1-1,.91c-.32,0-.53-.4-.28-.52C24.2,13.1,22.78,11.89,23.84,11.44Z"/><path class="h" d="M188.15,69.6a4,4,0,0,1-1.86.53c-.14-.5-.39-1.07.31-1.32A1.16,1.16,0,0,1,188.15,69.6Z"/><path class="c" d="M59.27,53.7l-1.34-.05v-.41c.22-1.28.72-1.45,1.55-.4l.12.4-.06.41A1.28,1.28,0,0,1,59.27,53.7Z"/><path class="h" d="M45.67,15.56c-.89-.23-.34-.86-.37-1.32.56-.42,1.23-.78,1.53.15S46.32,15.43,45.67,15.56Z"/><path class="h" d="M178.81,72.7a3.92,3.92,0,0,1-2.79,0l2.72-.89C178.76,72.11,178.78,72.4,178.81,72.7Z"/><path class="h" d="M49.4,18.42,48.94,18c.1-.48-.12-1.15.64-1.27a.58.58,0,0,1,.47.28A1,1,0,0,1,49.4,18.42Z"/><path class="h" d="M92.49,77.7l-3.2-.2c.75-.58,1.72-.08,2.58-.69C92.58,76.3,92.4,77.28,92.49,77.7Z"/><path class="h" d="M25.67,9.78c-.11.34-.29.63-.69.57s-.38-.47-.37-.79.2-.54.5-.49A.66.66,0,0,1,25.67,9.78Z"/><path class="d" d="M135.23,69.93c-.88-.06-1.79-.06-2-1.2a2.81,2.81,0,0,1,2,.82Z"/><path class="h" d="M139.31,67.86l-1.24.31c.12-.53-.26-1.37.67-1.39C139.39,66.76,139.25,67.42,139.31,67.86Z"/><path class="h" d="M18.61,20.22l-.48.61-1.22-1.54A1.46,1.46,0,0,1,18.61,20.22Z"/><path class="h" d="M186,65.94c0,.27,0,.6-.39.54s-.53-.52-.62-.88c0-.1.17-.38.27-.39C185.78,65.2,186,65.55,186,65.94Z"/><path class="h" d="M22.28,16.71l-.62.49a1,1,0,0,1-.59-1.49C22,15.47,21.66,16.67,22.28,16.71Z"/><path class="h" d="M53.21,15.51c-.2-.3-.74-.4-.65-.88a.47.47,0,0,1,.64-.31.71.71,0,0,1,.55.74A.46.46,0,0,1,53.21,15.51Z"/><path class="h" d="M52.45,21.12c.3-.39.3-1.11,1-1,.11,0,.3.31.27.44-.15.76-.8.53-1.29.6Z"/><path class="h" d="M58.72,58.13v-.82a2.59,2.59,0,0,1,.86,2.41l-.84-1.19Z"/><path class="h" d="M109.19,80.05a2.14,2.14,0,0,1-1.86-.23C108,79.2,108.73,78.61,109.19,80.05Z"/><path class="h" d="M36.78,12.53l-2-.07C35.44,12.16,36.16,11,36.78,12.53Z"/><path class="h" d="M17.18,18.08c0,.33-.26.5-.53.38a.87.87,0,0,1-.45-.56c-.05-.35.27-.4.54-.38S17.16,17.79,17.18,18.08Z"/><path class="h" d="M50.13,13.2c0,.34-.25.5-.52.38a.84.84,0,0,1-.45-.56c-.06-.35.26-.4.53-.38S50.11,12.92,50.13,13.2Z"/><path class="h" d="M59.86,15.63c0,.47-.29.53-.56.43s-.6-.26-.6-.39c0-.37.4-.48.69-.44S59.74,15.52,59.86,15.63Z"/><path class="h" d="M143.37,67.85l-2.84,0A2.69,2.69,0,0,1,143.37,67.85Z"/><path class="h" d="M57.67,23.13c.19.13.42.21.46.33.08.35-.2.44-.46.41a.51.51,0,0,1-.34-.33C57.33,23.41,57.53,23.29,57.67,23.13Z"/><path class="h" d="M207.06,67.14a2.45,2.45,0,0,1-1.85.28C205.63,66,206.47,67.38,207.06,67.14Z"/><path class="h" d="M59.25,19.88c-.12-.17-.31-.32-.29-.43a.55.55,0,0,1,.38-.31c.28,0,.52.15.42.46C59.72,19.72,59.46,19.77,59.25,19.88Z"/><path class="h" d="M53.38,16.65c-.23.15-.37.3-.52.31s-.51-.15-.42-.46c0-.11.32-.21.48-.2S53.18,16.49,53.38,16.65Z"/><path class="h" d="M49.4,14.73c-.13.19-.21.43-.34.46-.34.09-.44-.19-.41-.45a.52.52,0,0,1,.34-.35C49.11,14.39,49.24,14.59,49.4,14.73Z"/><path class="h" d="M48.09,10.63a2.14,2.14,0,0,1-.58.23c-.3,0-.47-.21-.31-.5.06-.11.34-.17.49-.14S47.92,10.45,48.09,10.63Z"/><path class="h" d="M34.66,9.71A1.47,1.47,0,0,1,35,11.42C34.57,11,34.54,10.56,34.66,9.71Z"/><path class="h" d="M26.54,7.94a8.61,8.61,0,0,1-.92.12c-.18,0-.43-.09-.21-.33a.72.72,0,0,1,.53-.23C26.08,7.5,26.22,7.69,26.54,7.94Z"/><path class="h" d="M22.94,8.38c.32-.05.41.13.36.33a.62.62,0,0,1-.3.41c-.2.08-.38-.09-.33-.32A1.51,1.51,0,0,1,22.94,8.38Z"/><path class="h" d="M52.66,9.67c-.13-.22-.3-.38-.27-.49s.22-.26.34-.39c.09.13.26.25.26.37S52.82,9.44,52.66,9.67Z"/><path class="h" d="M113.22,78.42l-1.1.26c-.12-1.17.5-.92,1.16-.61a.63.63,0,0,0-.07.36Z"/><path class="h" d="M32.3,12.56l-.39,0c-.09-.31-.18-.61-.24-.93,0,0,.22-.16.29-.13C32.45,11.74,32.25,12.2,32.3,12.56Z"/><path class="h" d="M20.47,12.53c-.23.18-.35.34-.49.36s-.27-.14-.41-.22c.13-.12.23-.31.37-.36S20.22,12.42,20.47,12.53Z"/><path class="f" d="M135.23,69.93v-.38l1.14-.24c.1.59-.09,1-.73,1h0l-.4-.4Z"/><path class="h" d="M178.36,66.28a1.25,1.25,0,0,1-1.05-.3l1.08-.4Z"/><path class="h" d="M184.31,67.19c-.11,0-.26.16-.34.12s-.1-.21-.14-.33c.12,0,.26-.15.34-.12S184.27,67.08,184.31,67.19Z"/><path class="h" d="M211.31,67l-1.61,0A1.06,1.06,0,0,1,211.31,67Z"/><path class="h" d="M50.46,10c-.05.11-.07.28-.15.32s-.22-.08-.34-.13c.05-.11.08-.29.16-.32S50.35,10,50.46,10Z"/><path class="h" d="M45.87,11.72l.25-.21.23.37c-.1,0-.22.13-.31.11S45.93,11.82,45.87,11.72Z"/><path class="h" d="M45,14.09h-.07c-.24-.24-.37-.52-.14-.83a.31.31,0,0,1,.32,0C45.33,13.57,45.19,13.84,45,14.09Z"/><path class="h" d="M19.32,14.73l.2.25-.36.27c0-.1-.14-.21-.12-.3S19.2,14.82,19.32,14.73Z"/><path class="h" d="M103.91,79.25l-.88-.11.5-.52Z"/><path class="h" d="M15.56,16.91l-.19-.28.39-.2c0,.11.12.24.09.32S15.66,16.85,15.56,16.91Z"/><path class="h" d="M56.19,17.2l.34.14c0,.12-.07.3-.15.33s-.22-.08-.34-.13Z"/><path class="h" d="M54.15,18.83l.35.15c0,.11-.08.29-.16.32s-.22-.08-.34-.13Z"/><path class="h" d="M184.06,115.49a.67.67,0,0,1,.22,1,.22.22,0,0,1-.19,0c-.43-.34.07-.72,0-1.07Z"/><path class="h" d="M163.32,116.67a1.8,1.8,0,0,1,1.3.41l-.91,0Z"/><path class="e" d="M120.05,68.26a1.49,1.49,0,0,0,.14-.37l.8-.32C120.93,68.15,120.56,68.3,120.05,68.26Z"/><path class="h" d="M16.43,13.78l.54.5-.25.15-.29-.65Z"/><path class="h" d="M33.91,12.46l-1.2.08A.7.7,0,0,1,33.91,12.46Z"/><path class="h" d="M205.93,65.89c-.1,0-.24.12-.3.08s-.12-.19-.18-.3c.11,0,.25-.12.32-.08S205.88,65.78,205.93,65.89Z"/><path class="h" d="M204.15,66.89c-.06,0-.11.08-.16.08s-.1-.07-.15-.11Z"/><path class="h" d="M28.25,7.7,27.8,8a.67.67,0,0,1-.11-.14l.51-.19Z"/><path class="h" d="M152.85,67.13a1,1,0,0,1-.93.36A.82.82,0,0,1,152.85,67.13Z"/><path class="h" d="M145.32,68a.65.65,0,0,1-.75-.11Z"/><path class="h" d="M106.34,79.66a1.06,1.06,0,0,1-1.07-.27A.93.93,0,0,1,106.34,79.66Z"/><path class="h" d="M149.93,68.32a.76.76,0,0,1-.86.35A.84.84,0,0,1,149.93,68.32Z"/><path class="h" d="M59.46,17s0,.1-.07.13-.08,0-.12,0l.1-.23Z"/><path class="e" d="M113.21,78.43a.63.63,0,0,1,.07-.36l.77-.08C113.92,78.43,113.61,78.51,113.21,78.43Z"/><path class="h" d="M55.09,25.57l-.47-.79A.77.77,0,0,1,55.09,25.57Z"/><path class="h" d="M14.82,26a.94.94,0,0,1-.41.83A.79.79,0,0,1,14.82,26Z"/><path class="h" d="M182.19,71.62a1.09,1.09,0,0,1-1,.35A.85.85,0,0,1,182.19,71.62Z"/><path class="h" d="M166.56,117.54l.8.11C167,118,166.78,117.93,166.56,117.54Z"/><path class="h" d="M115.33,73.11c.16.29.32.58.49.87h-.52Z"/><path class="h" d="M59.15,34.12l-.15.7-.27-.7Z"/><path class="h" d="M58.65,33.58l-.28-.67Z"/><path class="h" d="M176.9,117.85l.64-.25Z"/><path class="h" d="M55.44,26.13l-.35-.55Z"/><path class="h" d="M186.23,70.12l-.54.2A.4.4,0,0,1,186.23,70.12Z"/><path class="h" d="M19.24,19.87a2.22,2.22,0,0,1-.37,0l.38-.43A2.71,2.71,0,0,1,19.24,19.87Z"/><path class="h" d="M21.36,17.44l-.45.41Z"/><path class="h" d="M92.81,77.71l-.33,0A.47.47,0,0,1,92.81,77.71Z"/><path class="h" d="M98.62,78.44l-.4,0C98.37,78.2,98.5,78.23,98.62,78.44Z"/><path class="h" d="M101.46,78.85l-.4,0C101.22,78.6,101.35,78.64,101.46,78.85Z"/><path class="h" d="M147.79,68.45l-.44-.11Z"/><path class="h" d="M137.36,68.33l-.49.28Z"/><polygon class="h" points="150.99 67.86 150.92 67.97 150.83 67.91 150.99 67.86"/><path class="h" d="M151.72,67.55l-.64.28Z"/><path class="h" d="M212.93,67l-.39.05C212.65,66.82,212.78,66.78,212.93,67Z"/><path class="h" d="M156,66.19l-.4.07C155.67,66.05,155.8,66,156,66.19Z"/><path class="h" d="M127.5,66.25l-.69-.26Z"/><path class="h" d="M124.11,66l-.67.26Z"/><path class="h" d="M59.16,55.28l.07-.4a1.57,1.57,0,0,1,.08.31S59.21,55.25,59.16,55.28Z"/><path class="h" d="M61.28,64.22c0-.13-.05-.26-.08-.4a1.65,1.65,0,0,1,.19.27S61.32,64.18,61.28,64.22Z"/><path class="c" d="M16.72,93.61,16.06,93l-.53-.79-.25-.34-.2-.4-3.39-7.31a.74.74,0,0,0-.39-.73c.44-1.46-.25-2.81-.38-4.22,0-.06.07-.13.05-.18a3.41,3.41,0,0,0-.17-.33,5.07,5.07,0,0,0-.15-2.29q.24-4.06.49-8.14c.32-1.57,1.48-2,2.86-2v0c.1.33-.23.83.33.94.12,0,.31-.33.47-.51,1.44.19.22,1.08.42,1.6a2.67,2.67,0,0,0-.75,3.29c.9,1.06,1,2-.24,2.92-.17.12-.16.48-.23.72-1.83,4.24-.46,8.35.46,12.5C14.91,89.81,16.89,91.29,16.72,93.61Z"/><path class="b" d="M65.29,111.88c-.93,2.84-1.63,5.77-3.63,8.14s-4.34,4.25-7.79,3.62c-.35-1.31-1.79-2.12-1.66-3.65.87.13,1.95-.92,2.46-.25,1.52,2,1.17-.31,1.66-.61,1-.06,1.26.53,1.22,1.41,0,1.15.61,1.11,1.24.57s1.15-.77,1.19-1.56c.85-.48,1.86-.86,1.76-2.1a1.56,1.56,0,0,0-1.08-1.27c-1.14-.53-1.33.54-1.94.91l0-.83c0-.43.07-.9-.41-1.17h-.42c-.13-.25-.26-.24-.39,0h-.82a4.19,4.19,0,0,1,.41-2.44c.47,0,1,0,1.25-.47h.76c-.16.56,1.48,1.4-.27,1.76-.14,0,0,.59.27.62.67.08,1.34,0,2,.07-.3-.73,0-1.34.21-2,.1-.47-.78-.29-1.18-.51l1.63-1.51c.48-.09,1-.28,1.43,0Z"/><path class="g" d="M69.33,99.18l.2.5c.76-1.07,1.9-.84,3-.85l-5.21,5.69-1.92.08c.31-.61.79-1,.55-1.95-.14-.52-.58-1.8.26-2.07,1.54-.51.24-1.2.31-1.77a.75.75,0,0,0-.83-.81h0c0-.13,0-.29.09-.38,1.48-1.7,2.37-3.45.34-5.57,2.13-.34,1.82,1.73,2.8,2.46s-.87,2-1.21,3.08C66.75,99.64,68.79,98.64,69.33,99.18ZM67.27,102l-.53.19.11.14.46-.28.16-.2Z"/><path class="g" d="M14,66.27c-1.38.08-2.54.46-2.86,2a9.27,9.27,0,0,1-4-5.27l1.94-.41a3.28,3.28,0,0,0,2.05,2,9.7,9.7,0,0,0,3.63.41c0,.12,0,.24,0,.35A.78.78,0,0,0,14,66.27Z"/><path class="b" d="M9.1,62.62,7.16,63,7,62.6c.25-1.07-.28-2.26.48-3.25,1.36.7,2.69,1.07,4-.2.12-.12.61.12.92.2,0,.26,0,.52,0,.79C10.5,59.9,9.68,61.11,9.1,62.62Z"/><path class="b" d="M65.58,110.63c-1.76-.76-1.73-2.12-1.14-3.59.45-1.11,1.21-1.71,2.44-.93l-.39,2v.84A3.93,3.93,0,0,0,65.58,110.63Z"/><path class="g" d="M76.25,88.57c.12-1.51,2.18-.59,2.42-1.94l.64-.06,1-.36A3.68,3.68,0,0,1,80,87.49c-1.43,1.82,0,1.62,1.13,1.64,0,.74-1,.55-1.17,1.11-.38,0-.77,0-.9.51-.52-.1-1.47.11-1.14-.83C78.68,87.73,77,88.72,76.25,88.57Z"/><path class="e" d="M80.35,86.21l-1,.36c0-.25.09-.49.14-.73.22-.7,1.37-.11,1.46-1.11-.26,0-.51-.08-.76-.15s-1,.29-1.11-.42a1.27,1.27,0,0,1,.38-.87c.43-.47.9-.23,1.14.2s.58.44,1,.29c.17.25.43.38.63.14.39-.44.75-1.14,1.36-.48.41.45.06,1.06-.36,1.52a4.12,4.12,0,0,0-.41.64c-.14.08-.28.16-.41.25Z"/><path class="g" d="M52.21,120c-.13,1.53,1.31,2.34,1.66,3.65l-1.62-.13a1.52,1.52,0,0,0-.79-1.46c-2.17-1.26-2.22-1.77-.43-2.88l.38,0,.79.45C52.21,119.71,52.21,119.85,52.21,120Z"/><path class="i" d="M42.9,120.74c1.1.58,2.73.35,3.14,2l-.3.51,0,0c-2.4-1.06-.52,1.61-1.76,1.67C43.65,123.62,42.71,122.36,42.9,120.74Z"/><path class="i" d="M32.3,122.41h1.22a.68.68,0,0,1-.11,1.3C32.6,123.85,32.52,123,32.3,122.41Z"/><path class="i" d="M41.55,123.31c-.12,0-.35.18-.43.13a.61.61,0,0,1-.19-.49c0-.13.26-.34.36-.32C41.59,122.69,41.66,122.94,41.55,123.31Z"/><path class="j" d="M79,90.75c.13-.48.52-.48.9-.51.42.32.07.59-.13.73A.49.49,0,0,1,79,90.75Z"/><path class="i" d="M39.81,123l-.08-.13.19-.1s0,.11,0,.15S39.85,122.93,39.81,123Z"/><path class="k" d="M16.43,58.53v-.4l.42-.4c.78-.06.87-.61.87-1.23,1.86-1.37,3-3.39,4.45-5.09,3.26-3.83,11.26-6.08,15.92-4.23,4.49,1.77,7.85,5,10.88,8.56.88,1,.37,1.71-.82,2-.34-.1-.67-.62-1-.17-.12.16.11.6.18.91-.65,1.09-1.29,2.18-1.93,3.27l-.44,0c-1.2-.38-.31-2.18-1.66-2.45-.71.11-.94-1.09-1.73-.64-.33.18-.26.56-.16.9s.55,1-.15,1.14-.72-.6-.81-1.13a2.23,2.23,0,0,1,0-1.55c-.35-.94-1.26-1.15-2-1.57a1.25,1.25,0,0,1-.84-1.13l.13-.11c1.1.18,1.9,1,3,1.55-1.69-4.34-3.7-5.21-8.68-4,.32.5.81.93.65,1.6a.65.65,0,0,1-.31,0C31,53,29.29,53,27.48,53.24a3.16,3.16,0,0,0-2.05,2A8.59,8.59,0,0,0,21,56.52c-.79-.16-1.1.53-1.87.8,1.71,1.24,1.86,2.8,1.74,4.46,0,.82,0,1.64,0,2.46h-.8c-.66-1-1.6-.33-2.42-.39l0,0c-.12-1.27-1.46-.57-2-1.22-.13-.54-.26-1.08-.4-1.62C16.52,60.56,16,59.32,16.43,58.53Zm30.43-1.86c-.13-1.27-1-1.46-1.83-1.65a.38.38,0,0,0-.45.49c.25.85,1.22.61,1.76,1.07C46.42,56.64,46.58,56.62,46.86,56.67Z"/><path class="c" d="M52.21,120c0-.14,0-.28,0-.42a1.19,1.19,0,0,0,.62-1.32c0-.15-.43-.27-.65-.27-.77,0-.73.61-.76,1.14l-.38,0a24.76,24.76,0,0,0-4.64-1.44,31.12,31.12,0,0,1-4.57-1.26c-1.2-.45.87-1.51-.16-2.19.51-.89.93.63,1.54-.06-.27-.89-1.09-2.73-.56-2.72,1.79,0,.75-1.53,1.45-1.92.08,0,.3.19.45.29A3,3,0,0,0,49,111.4a1.82,1.82,0,0,0,1-1.83A1.61,1.61,0,0,0,48.66,108a18.53,18.53,0,0,1-1.94-.53c-.52-.16-1.13-.31-.91-1s.74-.64,1.29-.74c.87-.16,1.3.94,2.34.69-.25-.63.15-1.33-.46-1.87.37-1.66.56-1.83,1.14-1.13,1.27,1.51,1.66.07,1.75-.61s.18-1.31.91-1.59c2-.78,4.07-.42,6.09,0,.84.18,2.14,2.13,2-.65,0-.3.27-.37.6-.24,1.43.58.75-.63.93-1.11a.85.85,0,0,1,.81.4c.22.63.79,1.6.58,1.81-1.08,1.09-.9,1.88.25,2.68-1,1.72-.85-1.1-1.58-.37-.44,0-.63-1.37-1.26-.2-.53,1-1.1,2-1.65,3-.72.47-1.26.59-1.25-.57,0-.48,0-1-.7-1s-.5.7-.5,1.14c0,1.89,0,3.78,0,5.66-.23.05-.59,0-.53.34,0,.18.34.33.52.49a4.19,4.19,0,0,0-.41,2.44c-.66.41-.08.84,0,1.26a1.82,1.82,0,0,0-1.81.54c-.23.3-1.11-.25-.91.6.1.47.62.44,1,.41.91-.07,1.41.26,1.35,1.23-.49.3-.14,2.57-1.66.61C54.16,119.07,53.08,120.12,52.21,120Zm-.76-4.53c-.06-.25-.07-.55-.42-.58-.07,0-.23.15-.23.22,0,.35.34.36.59.42.08.41.2.8.73.71.13,0,.34-.28.32-.37C52.28,115.37,51.81,115.53,51.45,115.46Zm3.63-11.36c.15.69-.37,1.69,1.16,2.18-.51-1-.83-1.57-1.16-2.18s-.08-1.79-1.22-2c-.35-.06-.73.11-.64.52A1.88,1.88,0,0,0,55.08,104.1Zm.59,5.36c-.43-.92.58-2.49-.73-2.62-1-.09-.4,1.43-.56,2.22s.13,1.85-1.07,1.78c-1-.06-.7-1.08-.81-1.77s.49-2.2-.64-2.21c-1.36,0-.58,1.46-.81,2.27a1.33,1.33,0,0,0,0,.2c.09,2.15.36,2.33,3.67,2.26C56.72,111.55,55.07,110.05,55.67,109.46Zm-.08-7.13c0-.12.16-.25.13-.34s-.21-.1-.32-.15c0,.11-.16.25-.13.33S55.48,102.28,55.59,102.33ZM50.8,116.45s.1,0,.12-.08,0-.1,0-.15l-.19.1Z"/><path class="k" d="M53.86,68.29h.83c-.13.69.62,1.14.62,1.61,0,.93,1.23,2.39.08,2.68-2.91.75-2,3-2,4.64-.09,2.32,1.28,4.79-.76,6.86-1,1,.6,2.61-.67,3.35-2.67,1.56-1.78,6.41-6,6.42,0,0-.08.11-.09.17-.36,1.78-2,2.31-3.24,3.18-2.24,1.62-4.25,3.64-7.18,4.25-.93.19-1.38-.75-2.25-.37-3.41,1.5-6.26.15-8.95-1.9.17-.1.4-.34.49-.3,3.53,1.8,7,.56,10.52-.12.87-.16,2.15-.36,1.69-1.9-.1-.34,0-.72.42-.74,3.17-.15,5-2.69,7.44-4.15a3,3,0,0,0,1.37-2.6c0-1.1.36-1.45,1.5-1.6,1.7-.22,2.67-3,1.47-4.33,2,.48,2.34-.72,2.35-2.18a7.42,7.42,0,0,1,.06-1.83c.56-1.89-.76-1.45-1.66-1.31-.34,0-.7.36-1.12.33s-.73,0-.82-.43a2.34,2.34,0,0,1,.48-1.7c.22-.36.6-.06.85.16.41.38.8.78,1.39.32s.48-1.11.31-1.68a5.39,5.39,0,0,1,.09-4c1,0,1.26,2.22,2.75.72-.9-.49-1.3-2.37-2.76-.73h-.76a.84.84,0,0,0-.83-.41c0-1.79-1.57-2.51-2.47-3.69l.42-.81h0c1.11-.5,2-1.35,3.27-1.62,1.62-.26,1.61,1.75,2.84,2,0,.4,0,.8,0,1.21s-.65.72-.14,1S53.82,68.61,53.86,68.29Z"/><path class="f" d="M24.17,99.18c2.69,2,5.54,3.4,8.95,1.9.87-.38,1.32.56,2.25.37,2.93-.61,4.94-2.63,7.18-4.25,1.21-.87,2.88-1.4,3.24-3.18,0-.06.06-.17.09-.17,4.25,0,3.36-4.86,6-6.42,1.27-.74-.36-2.3.67-3.35,2-2.07.67-4.54.76-6.86.06-1.6-.86-3.89,2-4.64,1.15-.29-.08-1.75-.08-2.68,0-.47-.75-.92-.62-1.61a2.9,2.9,0,0,0,2-.53,3.68,3.68,0,0,0,1.2,3.37c.6.56.69,1.46.19,1.8-2.21,1.44-.69,3.25,0,4.17,1.44,1.88.64,3-.57,4.22-.75.24-1.46-.71-2.42,0,.81.47.66,1.85,2,1.62v1.22c0,.13,0,.27,0,.4a1.07,1.07,0,0,0-1.12.7A8.59,8.59,0,0,1,53.53,89a3.17,3.17,0,0,0-.89,2.54c-1.26.55-1.08,2.16-2.19,2.9C48,96,45.87,98.2,43.29,99.79c-1.53.95-3.41,1.2-4.67,2.62a2.18,2.18,0,0,1-2.48.31c-1.74-.6-3.16.56-4.75.73l-.71-.15c-.1-.21-.22-.29-.4-.09l-1-.07-4.73-2.21a.3.3,0,0,0-.29-.13l-2.93-2.06L20.49,98l-.85-.8c-.3-.75-1.31-1-1.31-2l1.36,0A16.89,16.89,0,0,0,24.17,99.18Z"/><path class="f" d="M48.15,57.75c1.19-.3,1.7-1,.82-2-3-3.6-6.39-6.79-10.88-8.56-4.66-1.85-12.66.4-15.92,4.23-1.46,1.7-2.59,3.72-4.45,5.09-.88,0-1.63-.11-1.69-1.22,1.91.1,1.6-1.28,1.62-2.44h0c1.61-.16,1.61-1.82,2.41-2.72,1.31-1.45,3-2.68,3.69-4.61h.41a2.76,2.76,0,0,0,1.51-.44A15.85,15.85,0,0,1,40,44.45a28.31,28.31,0,0,1,9.52,7,8,8,0,0,1,2.44,3.78,4.57,4.57,0,0,0,4,3.68c.36,0,.66.14.48.62-.25.63-.81.6-1.33.65-.93,0-1.87.44-2.79,0-.64-.63-.76-.16-.84.39-.56-1.45-1.35-2.56-3.18-2l-.09-.4Z"/><path class="e" d="M62.41,99.22c-.18.48.5,1.69-.93,1.11-.33-.13-.61-.06-.6.24.13,2.78-1.17.83-2,.65-2-.44-4.06-.8-6.09,0-.73.28-.81.83-.91,1.59s-.48,2.12-1.75.61c-.58-.7-.77-.53-1.14,1.13-.89.86-1.89-.15-2.81.17a3.37,3.37,0,0,1,1.1-4.62c1.76-1.07,2.51-1,3.29.52.47,0,.45-.44.47-.75.09-2.15,1.1-3.07,3.31-2.69,1.26.21,2.16-.9,3.31-1.27C61,94.83,62.38,95.64,62.41,99.22Z"/><path class="e" d="M55.9,58.93a4.57,4.57,0,0,1-4-3.68,8,8,0,0,0-2.44-3.78,28.31,28.31,0,0,0-9.52-7,15.85,15.85,0,0,0-14.3.62,2.76,2.76,0,0,1-1.51.44c0-.66-.08-1.3.67-1.76,2.85-1.71,5.75-3,9.23-2.76,4,.24,7.18,2.19,10.5,4,2,1.11,3.62,2.88,5.6,4.14,1.28.81,1.79,2.6,2.64,3.9C54,54.85,55.87,56.47,55.9,58.93Z"/><path class="e" d="M44.54,109.87c-.15-.1-.37-.33-.45-.29-.7.39.34,2-1.45,1.92-.53,0,.29,1.83.56,2.72-.61.69-1-.83-1.54.06-.79-.23-1.4,1.36-2.11.37a2.91,2.91,0,0,1-.46-3.22c.26-.47.64-.87.39-1.47-.58-1.42.17-1.21,1.13-1s1.75.21.91-1.21c-.58-1,.54-2.82,1.74-3.12s1.28.41,1.31,1.24c-.43,2.17,1.07,2.67,2.65,3.07.71.17,1.73.13,1.33,1.24-.34.94-1.25.82-2.09.57C45.78,110.52,45.46,109.49,44.54,109.87Z"/><path class="g" d="M81.54,83.78c-.4.15-.7.18-1-.29s-.71-.67-1.14-.2a1.27,1.27,0,0,0-.38.87c.09.71.72.31,1.11.42s.5.1.76.15c-.09,1-1.24.41-1.46,1.11a1.92,1.92,0,0,0-1.61.78l-.7,0-.49-.43-2-3.89a2.35,2.35,0,0,0-1.55-1.46c.84-.16.37-1.58,1.45-1.52,1.52.53,2.75-.44,4.1-.82.64,0,.64-.84,1.22-.9l1.17.15c-.32.46-.82.84-.73,1.5A16.77,16.77,0,0,0,81.54,83.78Z"/><path class="f" d="M53.45,66.67c-1.23-.28-1.22-2.29-2.84-2h0c.46-.64.09-1.8,1.23-2,.11.47-.28,1.08.35,1.44,1.74-2.84,1.74-2.84,2.86-3.11,1.14.06,2.22.47,2.41,1.65s.86,2.64-.68,3.61c-.62.39-1.12.91-1.91.29A1,1,0,0,0,53.45,66.67Z"/><path class="k" d="M44.54,109.87c.92-.38,1.24.65,1.92.84.84.25,1.75.37,2.09-.57.4-1.11-.62-1.07-1.33-1.24-1.58-.4-3.08-.9-2.65-3.07l1.6-1.14c.92-.31,1.92.7,2.81-.16.61.54.21,1.24.46,1.87-1,.25-1.47-.85-2.34-.69-.55.1-1.12.14-1.29.74s.39.89.91,1a18.53,18.53,0,0,0,1.94.53A1.61,1.61,0,0,1,50,109.57a1.82,1.82,0,0,1-1,1.83A3,3,0,0,1,44.54,109.87Z"/><path class="e" d="M64.05,104.11c-1.15-.8-1.33-1.59-.25-2.68.21-.21-.36-1.18-.58-1.81.6,0,1.19,0,1.22-.81h2c-.07.57,1.23,1.26-.31,1.77-.84.27-.4,1.55-.26,2.07.24.91-.24,1.34-.55,1.95l-.12.09A1.66,1.66,0,0,0,64.05,104.11Z"/><path class="c" d="M52.64,91.49A3.17,3.17,0,0,1,53.53,89,8.59,8.59,0,0,0,56,85.27a1.07,1.07,0,0,1,1.12-.7,1.7,1.7,0,0,1,0,2.06c-1.14,1.64-2.33,3.26-3.52,4.86A.55.55,0,0,1,52.64,91.49Z"/><path class="e" d="M9.1,62.62c.58-1.51,1.4-2.72,3.3-2.48a.91.91,0,0,1,.82.41c-.19.07-.53.12-.53.2-.1,1.46-.95,2.63-1.54,3.9A3.28,3.28,0,0,1,9.1,62.62Z"/><path class="e" d="M23.75,45.51c-.73,1.93-2.38,3.16-3.69,4.61-.8.9-.8,2.56-2.41,2.72a3.19,3.19,0,0,1,.88-2.49A19.73,19.73,0,0,0,21.34,47,2.4,2.4,0,0,1,23.75,45.51Z"/><path class="e" d="M59.48,52.84c-.83-1.05-1.33-.88-1.55.4-1.7,0-2.33-1.4-3.25-2.44.33.05.75,0,1,.15,1.22.94,2.18.9,3-.54.25-.47.81-.42,1.29-.42,0,.72-.05,1.45-.07,2.17Z"/><path class="k" d="M14.77,65.41c0-.11,0-.23,0-.35.75-.89,1.33-2.2,2.87-1.24l0,0-.83,2.4A2.25,2.25,0,0,1,14.77,65.41Z"/><path class="g" d="M55.05,60.94c-1.12.27-1.12.27-2.86,3.11-.63-.36-.24-1-.35-1.44l.48-1.23c.4-.29.36-.56,0-.81a2.54,2.54,0,0,1,0-.39c.92.46,1.86,0,2.79,0Z"/><path class="g" d="M71,81.1l.39.13c-1.3,2-2.55,2.27-4.42.81l2.4-.59A2.6,2.6,0,0,0,71,81.1Z"/><path class="g" d="M73,94.35c0,1.28-.82,1.58-1.83,1.58-.48,0-1.39.35-1.21-.71.09-.58.14-1.41,1.23-1a6.14,6.14,0,0,0,1.78.12Z"/><path class="g" d="M62.39,71.14a18,18,0,0,1,0,4.08c-1.88-.52-.6-2.39-1.41-3.45C60.75,71.47,61.78,71.13,62.39,71.14Z"/><path class="c" d="M57.12,83c-1.35.23-1.2-1.15-2-1.62,1-.72,1.67.23,2.42,0C57.47,81.88,57.71,82.52,57.12,83Z"/><path class="h" d="M32.7,111a2.41,2.41,0,0,0-.48-1.88c-.27-.3-.49-.8-.07-1,.57-.33.79.25,1,.65.3.59.57,1.2.85,1.8Z"/><path class="g" d="M71.76,89.06c-1.1.41-2.42-.07-3.39,1.09-.3-.7-.28-1.48.24-1.38,1.06.21,2.26-1.16,3.17.27Z"/><path class="e" d="M17.65,52.84c0,1.16.29,2.54-1.62,2.44C16.12,54.17,16.24,53.07,17.65,52.84Z"/><path class="h" d="M36,108.57a2.43,2.43,0,0,0-.74.29c-.37.31-.75.77-1.16.23s.14-.8.51-1.09a2.13,2.13,0,0,1,1.43-.66A1.18,1.18,0,0,1,36,108.57Z"/><path class="f" d="M16.43,58.53c-.45.79.09,2-1.15,2.45-.57-.25-.42-.78-.47-1.23C15.18,59.13,15.59,58.55,16.43,58.53Z"/><path class="e" d="M69.33,99.18c-.54-.54-2.58.46-1.64-1.59C68.61,97.73,69.41,98,69.33,99.18Z"/><path class="g" d="M14.81,59.75c0,.45-.1,1,.47,1.23.14.54.27,1.08.4,1.62C13.86,62.12,14.21,61,14.81,59.75Z"/><path class="g" d="M65.64,98.8h-1.2l-1-.69c.7-.94,1.5.18,2.21-.12h0Z"/><path class="g" d="M13.22,60.55a.91.91,0,0,0-.82-.41c0-.27,0-.53,0-.79h.82C13.17,59.75,14.79,60.09,13.22,60.55Z"/><path class="j" d="M77.84,86.62a1.92,1.92,0,0,1,1.61-.78c0,.24-.09.48-.14.73l-.64.06Z"/><path class="g" d="M63.23,81.76l1.19.31c0,.23,0,.71-.25.6S63.54,82.08,63.23,81.76Z"/><path class="f" d="M53.86,68.29c0,.32-.11.82-.5.6s0-.67.14-1Z"/><path class="g" d="M70.41,98.11c-.12,0-.26.15-.34.12s-.1-.22-.15-.33c.12-.05.26-.15.34-.12S70.36,98,70.41,98.11Z"/><path class="g" d="M65.66,91.49c-.06.29,0,.64-.49.62,0,0-.13-.08-.13-.13,0-.45.33-.44.62-.49Z"/><path class="g" d="M67.25,91.4c0-.11-.12-.25-.08-.31s.2-.12.3-.18c0,.11.12.25.08.32S67.36,91.35,67.25,91.4Z"/><path class="h" d="M33.9,104.05c0,.32.12.67-.3,1l-.07-1A.29.29,0,0,1,33.9,104.05Z"/><path class="k" d="M14.91,63.62c-.11.06-.21.15-.31.15s-.2-.1-.3-.15c.1,0,.2-.15.3-.15S14.8,63.56,14.91,63.62Z"/><path class="h" d="M35.94,104.91a.83.83,0,0,1-.39-.79C36.06,104.2,36,104.56,35.94,104.91Z"/><path class="g" d="M65.66,91.49l.44-.31c.12.5-.3.2-.44.31Z"/><path class="j" d="M76.65,86.21l.49.43C76.54,87,76.72,86.45,76.65,86.21Z"/><path class="g" d="M65.67,81.86l.39,0c0,.16-.11.32-.16.47Z"/><path class="g" d="M72.2,81l.8-.15C72.8,81.23,72.54,81.34,72.2,81Z"/><path class="f" d="M58.65,74.37l0,.14-.16-.16.12-.11Z"/><path class="g" d="M71.59,80.92l0,0Z"/><path class="c" d="M57.12,84.17v-.41C57.4,83.9,57.4,84,57.12,84.17Z"/><path class="g" d="M71.78,89l.16.18-.18-.16Z"/><path class="f" d="M16.85,57.73l-.42.4Z"/><path class="g" d="M73,94.32l.2-.17c-.06.07-.11.14-.17.2Z"/><path class="e" d="M58.72,58.13v.4a2,2,0,0,1-.15-.29S58.67,58.17,58.72,58.13Z"/><path class="h" d="M34.43,104.06h-.55C34.06,103.82,34.24,103.87,34.43,104.06Z"/><path class="h" d="M9.24,45.16a3.25,3.25,0,0,1-.88,1.7C7.81,45.85,7.86,45.16,9.24,45.16Z"/><path class="h" d="M8.29,53.7c1.07,1-.17,1.7-.35,2.53A5.6,5.6,0,0,1,8.29,53.7Z"/><path class="h" d="M7.69,48.4c-.07.13-.13.26-.19.39C7.56,48.66,7.62,48.53,7.69,48.4Z"/><path class="h" d="M7.47,52.48l.09.1-.07.1A.46.46,0,0,1,7.47,52.48Z"/><path class="h" d="M7.5,57.87l.07.11-.1.1A.39.39,0,0,1,7.5,57.87Z"/><path class="f" d="M17.65,23.55c1.3-1.68,2.81-2.94,5.11-2.3.6.17,1.38.24,1.43,1.18,0,.46.33.78.81.56s.15-.56.1-.88c-.29-1.69-1.65-1.93-3-2.23.94-1.68,1.85-3.32,4-3.86,3-.77,6.14-.45,9.11-1.37a1,1,0,0,1,.6,0c2.9,1.29,6.5.92,8.94,3.07s4.54,4.83,4.92,8.18a20.38,20.38,0,0,1-.31,7.85c-.18.66-.26,1.39-1.08,1.54s-1.26-.39-1.5-1.06a3.25,3.25,0,0,0-2.57-2,5.6,5.6,0,0,1-2.16-1.06c-2.74-2.2-6.09-2.28-9.34-2.7a2.74,2.74,0,0,0-2.4.81,2.59,2.59,0,0,1-2.16.85l-3.19,0a4.49,4.49,0,0,0-2.35.86c-1.25.62-1.32,2.22-2.55,2.79a2.53,2.53,0,0,0-3.25-.81,41.62,41.62,0,0,1-.41-7.73c.42.25.57.89,1.21.82h0c1.1,1.17,3.87,1.15,5.35,0,.35-.28,1-.57.38-1.05-.28-.22-.85-.66-1.32.14a3.07,3.07,0,0,1-2.76,1.32A2.48,2.48,0,0,0,17.65,23.55Z"/><path class="j" d="M13.36,42.14c0-.87-.11-1.75-.09-2.62.11-4.38-1.11-4.4,4.34-4.08.78.62,1.48,1.28.82,2.37-.28.47-.16.78.06,1.26.84,1.85.12,3-1.89,3.14C15.52,42.28,14.44,42.17,13.36,42.14Zm2.65-1c.62-.08,1.52,0,1.57-1s-.84-1-1.59-1.06-1.52.06-1.53,1.13S15.24,41.1,16,41.16Zm-.1-2.95c.76,0,1.67,0,1.59-1s-1-.88-1.74-.92-1.32.19-1.29,1.1S15.32,38.13,15.91,38.21Z"/><path class="b" d="M20.09,33.71c1.23-.57,1.3-2.17,2.55-2.79A4.49,4.49,0,0,1,25,30.06c0,.27,0,.53,0,.79a7.34,7.34,0,0,1-1.18.75c-1.26.49-2.1,1-.76,2.37.14.14-.07.64-.12,1h0c-.26,0-.57,0-.76.1s0,.3.16.38c.35.22.71.4,1-.08h0c1.49.58,2.85.67,3.69-1.25.4,1.77-.87,2.91-2.74,2.71S20.76,35.75,20.09,33.71Z"/><path class="k" d="M20.17,39.47c.3-.65-.6-2.08.74-2.15.64,0,1.73-.69,2.14.1s-.8.81-1.17,1.28-.26,1.29-.32,1.94.15,1.57-.84,1.48c-.79-.07-.5-.94-.55-1.5C20.14,40.28,20.17,40,20.17,39.47Z"/><path class="g" d="M25,30.85c0-.26,0-.52,0-.79l3.19,0c.29.81,1.11,1.36,1.15,2.29a.71.71,0,0,1-.7.82c-.27,0-.56-.2-.51-.5.35-2-1-1.88-2.31-1.85Z"/><path class="h" d="M59.6,37.79c.56.5.34,1.14.32,1.75A3,3,0,0,1,59.6,37.79Z"/><path class="b" d="M22.94,34.94l.41.4h0l-.41-.4Z"/><path class="h" d="M59.17,35.75a2.53,2.53,0,0,1,.18.27s-.07.08-.12.13Z"/><path class="h" d="M60.18,48.8a1.32,1.32,0,0,1,0,.26s-.06.07-.1.1A.27.27,0,0,1,60.18,48.8Z"/><path class="c" d="M104.73,85.35l.4,0c.14.22.36.41.57.19s-.09-.66-.15-1l.8,0c.71.62-.13,1.23,0,1.86s.19,1.28,1,1.3.65-.7.67-1.2a3.87,3.87,0,0,0-.37-2.34l1.19,0c-.16,1.2.08,2.16,1.49,2.34a1.56,1.56,0,0,0,.73-.13c-.18-2.74,2.09-1.34,3-1.51,1.78-.32,3.23-.71,4.07-2.44a2.28,2.28,0,0,1,2.29-1.35c5.85.33,11.71.09,17.56.28,3,.09,6.17.58,9.08-1,1.13-.59.51,1,1.26,1.12.55-.62,1.06-1.61,2.12-.5.47.49,1-.19,1.52-.11l1.59-.36c-.34,1.51-2.84,1.43-2.63,3.46,1.45.06,1.51-1.65,2.64-1.84l.82,0a.94.94,0,0,0,.89.43,2.2,2.2,0,0,0,0,.36c.2.59-1.08.92-.26,1.63.62.53.68-.33,1.06-.38.11.23.26.65.32.64,1.68-.32,1.35.53.89,1.47l-.8-.12a.5.5,0,0,0-.85,0c-2.67.73-3.79,3.09-2.61,5.42a3.58,3.58,0,0,0,1.6,1.48c1.35.74,2.54-.62,4-.25.46.13.21-1.51.31-2.34s-.38-.94-1-.95c-.46,0-1-.17-1.31.27-.42.69.27.71.67.89s.41.51.2.81a1.7,1.7,0,0,1-1.56.78,1.78,1.78,0,0,1-1.78-1.38c-.23-1.18-.44-2.45.71-3.36a1.75,1.75,0,0,1,2.4,0c.43.36.78,1.09,1.46.33.74,0,1.79-.75,1.86.8,0,.12-.06.24-.08.36l-.21.51c-.26,2.72.4,3.67,2.46,3.48.42,0,1-.54,1,.33,0,.64-.46.88-1,1s-1.3-.84-2.08-.14c.14.62.64.83,1.13,1a2.63,2.63,0,0,1-1.62.7c-.23-.56-.87-.92-.81-1.62.29,0,.64,0,.61-.49,0,0-.08-.12-.12-.13-.45,0-.44.32-.49.62-2.69-.55-5.25-1.09-7.12,1.92a7.44,7.44,0,0,0-1.47,3.83c-.09,2.32,1.31,3.9,2.49,5.57,1.88,2.67,4.3,4.63,7.73,5h1.22c.56,1.25,1.84,1.2,2.86,1.62l1.61-.39c1.52,2.46,6.23,3.29,8.49,1.45.84-.69,2-1.21,1.46-2.73-2.19-5.93-5.14-11.28-10.81-14.63.3-1.17,1.66-1.29,2.18-2.09s2.24-.54,2-1.73c-.08-.42-1.5.6-2.36.14,0-.9,0-1.81,0-2.71.4-.16,1.1-.06,1-.74s-.69-.07-1-.24c0-.23,0-.45,0-.68,1.35-.46,2.14.35,2.81,1.55.27-1-.3-1.65-.46-2.48,1.72,1,3.64,1.28,5.32,2.16,1.14.59,1.18.5,1.52-.81.22-.83.73-1.63,2.08-.91-1.76.83-1.23,2.15-.92,3.82.63-1.8,1.89-.14,2.67-.93h.19c.08.62.22,1.06,1,1.21,2,.39,4,.88,6,1.43.85.25,1.95-.08,2.52.94-1.26,0-2.52-.15-3.77-.13A3.14,3.14,0,0,0,183.73,96a1.92,1.92,0,0,0,1.19,2.48,23.42,23.42,0,0,0,6.14,2.22c2.45.44,5,.88,7.51,1.17,2.86.34,5.88.15,8.66,1.36,1.45.63,4.59-.79,5.84-1.86,1.47-1.25.68-3.48,2.31-4.52.48,0,1,.1,1.28-.48,1,0,.78,1.18,1.44,1.52l-.18.25a3.65,3.65,0,0,0-1.6,2.71,2.68,2.68,0,0,1-2.22,2.88c-1.32.41-2.42,1.74-3.95,1.15-2.64-1-5.82,1-8.15-1.52,0,0-.13,0-.2,0-2.24.25-4.43-.33-6.65-.43-5.27-.24-10.43-.89-14.89-4.15-2-1.48-4.47-1-6.79-1-.47,0-.64.4-.77.81a4.1,4.1,0,0,0,3.41,4.91h0c-.26,1.32-.41,2.39.85,3.57a8,8,0,0,1,1.71,3.64,3.59,3.59,0,0,1-3.5,4.41,25,25,0,0,1-12-2c-2-.9-4.3-.83-6.29-1.91a80.17,80.17,0,0,1-8.86-5.5c-.48-.34-.82-.87-1.57-.55a15.87,15.87,0,0,1-4.35,1.43,18.46,18.46,0,0,1-4-2.53c-.27-1.35-2.26-1-2.45-2.4.45-1.79-.95-2.89-1.72-4.15-1.77-2.92-4.82-3.49-7.81-3.06-2.06.29-4.33,1.19-4.69,3.92l-3.27-.82c0-.52-.25-1.08-.67-1.17-2.39-.55-3.32-2.8-5-4.17s-3.1-2.72-5.27-2.93c-1.5-.14-2.3-.74-2.18-2.35A6.85,6.85,0,0,0,104.73,85.35Zm34,.89h-4.65c-.35,0-.71.08-.78.48a.46.46,0,0,0,.43.57c2-.05,1.48,1.44,1.53,2.55,0,.81,0,1.62,0,2.43,0,.44.2.79.71.79s.72-.34.73-.78a21.88,21.88,0,0,0,0-3c-.19-1.59.53-2.08,2-1.88,1,.65.42,1.7.6,2.55.23,1-.5,2.22.44,3.16.72.07,1.19-.13,1.16-1q0-.92,0-1.83c0-.66.29-1.24,1-1.25s1,.57,1,1.25,0,1.49,0,2.23a.51.51,0,0,0,.51.52.49.49,0,0,0,.58-.43c0-1.33.44-2.74-.3-4s-1.82-.7-2.77-.23c-.35-.93.35-2.3-1.32-2.17C139.42,85.77,139.09,86.23,138.76,86.24Zm12.66,6a54.31,54.31,0,0,0-2-5.47c-.45-.92-1.45-.68-1.84.29-.68,1.68-1.23,3.41-1.85,5.12-.11.32-.28.67.12.87a.7.7,0,0,0,.88-.27c1.26-1.53,2.48-1.51,3.71.07a.87.87,0,0,0,.7.21C151.42,93,151.51,92.72,151.42,92.21Zm-37.87-4.94c-.08-.76-.23-1.27-.87-1.4-.13,0-.45.19-.44.27C112.28,86.83,112.67,87.21,113.55,87.27Z"/><path class="e" d="M176.11,103.47a4.1,4.1,0,0,1-3.41-4.91c.13-.41.3-.81.77-.81,2.32,0,4.77-.51,6.79,1,4.46,3.26,9.62,3.91,14.89,4.15,2.22.1,4.41.68,6.65.43.07,0,.17,0,.2,0,2.33,2.55,5.51.5,8.15,1.52,1.53.59,2.63-.74,3.95-1.15a2.68,2.68,0,0,0,2.22-2.88,3.65,3.65,0,0,1,1.6-2.71c.39.78.77,1.57,1.15,2.35a1.85,1.85,0,0,0,.33,1.37,5.35,5.35,0,0,1-2.79,5.6l-2.06.65-4.46.08a4.06,4.06,0,0,0-2-.39l-1.2-.4a1.45,1.45,0,0,0-1.24-.38.9.9,0,0,0-.93-.17l-.69-.22a8,8,0,0,0-2.87-.33h-1.19c-2.62.13-5.25.21-7.87.41a12,12,0,0,1-7-1.43l-.72-.45-2.76-2.28a3.09,3.09,0,0,0-2-1.29,2.6,2.6,0,0,0-2.47-.33c-1.91.33-2.06.5-1.52,1.72Z"/><path class="h" d="M180.38,108.21,177.87,105C179.8,104.63,180.4,105.41,180.38,108.21Z"/><path class="h" d="M182.05,111.83l-.23-.1-.6-1.94c.66,0,1.53-.8,1.7.71C183,111.35,183.22,111.94,182.05,111.83Z"/><path class="h" d="M179.6,101.21a3.09,3.09,0,0,1,2,1.29c-.43.37-.79,1-1.49.68C179.22,102.74,179.71,101.88,179.6,101.21Z"/><path class="h" d="M214.55,108.06l2.06-.65c-.13.65-.26,1.34-1,1.51S214.6,108.7,214.55,108.06Z"/><path class="h" d="M208.06,107.75a4.06,4.06,0,0,1,2,.39C209.47,109.39,209.47,109.39,208.06,107.75Z"/><path class="h" d="M175.61,102.6c-.54-1.22-.39-1.39,1.52-1.72C176.39,101.24,176.43,102.31,175.61,102.6Z"/><path class="h" d="M221.49,109.37c0,.38,0,.86-.5.93s-.51-.39-.53-.66c-.08-.86.61-.57,1.06-.64A1.16,1.16,0,0,0,221.49,109.37Z"/><path class="l" d="M221.49,109.37a1.16,1.16,0,0,1,0-.37,1,1,0,0,0,.37-.08c.33.12.91,0,.89.49s-.53.4-.9.43Z"/><path class="h" d="M184.33,104.78l.72.45c-.49,0-.62,1.08-1.19.55S183.91,105,184.33,104.78Z"/><path class="h" d="M205.62,107a1.45,1.45,0,0,1,1.24.38C206.4,107.36,205.93,107.44,205.62,107Z"/><path class="h" d="M199.94,106.25h1.19A.75.75,0,0,1,199.94,106.25Z"/><path class="h" d="M219.4,101.81a1.85,1.85,0,0,1-.33-1.37C219.56,100.81,219.45,101.32,219.4,101.81Z"/><path class="h" d="M204,106.58l.69.22Z"/><path class="g" d="M180.52,90.28c-.78.79-2-.87-2.67.93-.31-1.67-.84-3,.92-3.82-1.35-.72-1.86.08-2.08.91-.34,1.31-.38,1.4-1.52.81-1.68-.88-3.6-1.16-5.32-2.16.16.83.73,1.44.46,2.48-.67-1.2-1.46-2-2.81-1.55-.23-.34.09-1.07-.56-1.06s-.37.59-.39.94c0,.72-.05,1.44-.08,2.16-.69-.1-.83.89-1.53.76,0-1.39.09-2.8-2-2.41,1.11-.56,2.74-1,2.68-2.33a4.24,4.24,0,0,0-2.22-3.55c-1.08-.58-1.84-1,0-1.79s1.78-1.44.34-3.35h0c1.45-.43.48-1.1.05-1.49a16.55,16.55,0,0,0-2.08-1.36c-.18-1.26.34-1.82,1.62-1.63a.61.61,0,0,0,.07.14s.07,0,.1,0l-.18-.15c0-.9.24-1.89-.8-2.45-.11-.22-.16-.52-.34-.64s-.42.13-.3.31.41.23.63.34c0,.43.15.93-.54,1.09-1.71.38-2.47,1.92-1.9,3.79-.11.48.21,1-.43,1.56a3.33,3.33,0,0,1-.44-3.21,12,12,0,0,1,2.45-5.33A6.36,6.36,0,0,1,163.44,67c.65-.21.66.17.67.61-2.7.92.94,1.81,0,2.8-.18.2.19.84.7.43s.83-.32.87.35c0,.39.62,1.32-.67.78-.15-.07-1.1,1.25.3,1.64.66,2.57,0,5.48,2,7.71a1.47,1.47,0,0,1,.21.5c-1.64.73-.09,1.13.17,1.66.17.36-.07,1.13.72.87.63-.2.55-.85.57-1.39.45.87.59,1.84,2.18,1.4,1-.29,2.19,1.49,3.58.44.06.12.17.23.17.34-.13,1.41.93,1,1.64,1.06a56,56,0,0,0,7.54.4c-.19,1.33-1.3.55-2,.8C180.69,88,179.87,89.23,180.52,90.28ZM169,85.91c-.13.1-.29.16-.3.24a.34.34,0,0,0,.14.31c.22.07.38,0,.36-.28S169.11,86,169,85.91Z"/><path class="f" d="M161.63,68.24a12,12,0,0,0-2.45,5.33A8.49,8.49,0,0,1,152,71.92c-1.15-1-1.3-1.68-.08-2.72a23.74,23.74,0,0,1,2.42-1.73,5.28,5.28,0,0,0,1.73-.4C158.35,65.63,159.89,67.35,161.63,68.24Z"/><path class="j" d="M162.93,88.27c2.1-.39,2,1,2,2.41-.23,1.63.63,3.66-1.64,4.56l-1.63,0c-.49-.21-1-.42-1.13-1,.78-.7,1.37.32,2.08.14s1.07-.38,1-1c0-.87-.6-.37-1-.33-2.06.19-2.72-.76-2.46-3.48l.21-.51c0-.12,0-.24.08-.37l1.23-.56Zm.81,1.9a1,1,0,0,0-1-1,1.55,1.55,0,0,0-1.45,1.57c0,.81.35,1.53,1.23,1.48S163.7,91.4,163.74,90.17Z"/><path class="f" d="M122.71,73.2h1.12c.11.37-.18,1.06.52,1,.42-.05.27-.64.31-1,0-.52,0-1.43.55-1.3s1.58.08,1.85.92a.87.87,0,0,0,1.33.62c.51-.25,0-.7-.07-1.06A10.15,10.15,0,0,1,131.94,74c-.67,2-2.5,1.2-3.71,1.28-2,.12-4-.3-6-.11,0-.51,0-1,0-1.51Z"/><path class="g" d="M161.71,88.09l-1.23.56c-.07-1.54-1.12-.81-1.86-.79l-1.41-1.59c.46-.94.79-1.79-.89-1.47-.06,0-.21-.41-.32-.64.69-1-.51-.85-.8-1.25a2.2,2.2,0,0,1,0-.36c.33,0-.06-1.26.79-.34C157.87,84.21,159.81,86.13,161.71,88.09Z"/><path class="g" d="M153.52,80.54l-1.59.36c-.33-.37.66-2.17-1.1-1-.07,0-.27,0-.36-.07-2.56-2.18-2.56-2.18-5.55-2.66,0,0-.07-.1-.11-.16,2.49-1.06,7.55.88,9.16,3.51l0,0Z"/><path class="c" d="M160.05,75.22c-.57-1.87.19-3.41,1.9-3.79.69-.16.5-.66.54-1.09h0c1,.56.8,1.55.8,2.45h0c-1.28-.19-1.8.37-1.62,1.63C160.58,73.54,160.53,74.82,160.05,75.22Z"/><path class="g" d="M131.94,74a10.15,10.15,0,0,0-3.62-1.64.92.92,0,0,1-.48-.83c2.51.29,4.57,1.88,7,2.46a.86.86,0,0,1,.42.81v0c-.77,0-1,.69-1.67,1.07C132.93,75.34,133.53,73.65,131.94,74Z"/><path class="g" d="M135.24,74.8c2.35-.1,4.09,1.71,6.41,1.69-.05.2-.09.4-.13.59a30.07,30.07,0,0,1-3.81-.86c-1.13-.4-2.06-.64-2.58.93-.5-1,.35-1.61.1-2.33Z"/><path class="g" d="M154.35,82.12l-.82,0c.14-.55.27-1.1.4-1.64l0,0C155.43,80.72,154.13,81.59,154.35,82.12Z"/><path class="g" d="M163.3,77.6c0,.31,0,.62-.33.68s-.41-.25-.4-.52.27-.43.54-.49C163.6,77.18,163.07,77.6,163.3,77.6Z"/><path class="g" d="M163.31,77.25c.13-.3.27-.3.41,0h-.41Z"/><path class="e" d="M204.44,89.45h.32c1,1.11,2.44.27,3.63,1.07-.75-1.1-.79-1.89.51-2.29.41-.41.66,1.05,1.35,0s-.89-.92-.55-1.6c.84.15,1.66-.77,2.51,0,.26.24.6.81.95.28,1.16-1.77,3-.61,4.41-.82a26.32,26.32,0,0,1,5.14-.3c0,1.2-.29,2.68,1.79,1.41a1.51,1.51,0,0,1,2.07.22c1,1,2.65.55,3.9.16.8-.25.24-1.44.38-2.2,2.18.1,4.39-.36,6.54.33-.07,1.63-1.55,1.47-2.51,2-.57-1.69-1.76.12-2.59-.44a.55.55,0,0,0-.71.66.62.62,0,0,0,.91.5,3.15,3.15,0,0,1,2.18-.06c.56.18,1.27.44.9,1.25-.26.56-.77,1-1.46.61-.37-.22-.76-.52-1-.11-1.57,2.24-4.07,1.15-6.1,1.71a7.19,7.19,0,0,1-3.8-.21,2.39,2.39,0,0,0-2.21.6c-.5.49,1,.31.62,1.11-.61,0-1.39-.08-1.57-.59-.73-2.13-2.82-1.22-4.17-1.72-.72-.26-.08,1.85-.61,2.77a4.6,4.6,0,0,0-.25.55h-.41a2.67,2.67,0,0,1-.4,0l-.34-.7c-1.87,1.11-2.8-.12-3.74-1.44a.78.78,0,0,0-.71-.23c-1.29.6-1.95-.21-2.45-1.15-.87.39-.06,1.46-1,1.7-.9-1.4-1-1.47-1.73-.6-1.2,1.44-1.6.73-1.9-.57-.13-.59-.28-1.17-.42-1.76.44-.21,1,1.12,1.37-.14h.22c.09.3.12.73.56.62C204.24,90,204.32,89.67,204.44,89.45Z"/><path class="f" d="M190.88,73.14a24.39,24.39,0,0,1,3.35-3.61c1.22,1.68,2.78.33,4.05.23,3.49-.28,6.92-1.16,10.41-1.52,1.38-.14,3.07-.54,4.25.86-.11,1.13-.91,2.09-.81,3.27-2.33,1.54-5.08,1.19-7.59,1.79-4.29,1-8.51.31-12.75.64C191.39,74.3,191.52,73.51,190.88,73.14Z"/><path class="g" d="M208.9,88.24c-1.3.4-1.26,1.19-.51,2.29-1.19-.8-2.67,0-3.63-1.07.55-.66,1.81-.15,2.06-1.27a1.57,1.57,0,0,0,.65-2c-.34-.6-.93.19-1.43,0h0c-.06-.29-.07-.69-.5-.59-.13,0-.17.4-.25.62a2.7,2.7,0,0,1-1.57-1.61,21.51,21.51,0,0,1,2.42,0c2.16.28,2.7-.12,3.14-2.27.5-2.41,1.06-4.81,1.62-7.21.14-.58.14-1.54,1.09-1.2.48.17,1.51.91,0,1.43.62,1.68-.6,2.68-1.28,4-.42.8,1.37,1,1.39,2l0,0-1.78-.08c-.09.83,1,.18.9,1.36-.11.22-1.45.07-1.29,1s1,1,1.75,1h0l.42.4,1.22-.43a1.45,1.45,0,0,0,1.53.57c2.6-.39,5.22-.66,7.83-1a109.28,109.28,0,0,1,13.42-.41,38.51,38.51,0,0,0,6.79-.18c.55-.1.82.73,1.45.51h0c-.64,1.35,1.32,1.74,1.09,2.93-1.17.66-1.81,2-3.19,2.45-.49.16,0,.61.28.87l0,.68c-1.59.73-.86-1.45-1.84-1.47l-.35-.45c1.26-.24,1.79-1.48,2.78-2,1.31-.73.07-1.28,0-1.9-.86.71-2.24-.83-2.93.67l-1.39-1c-.47.56,0,1.38-.65,1.79a.86.86,0,0,0-.78-.9c-2.15-.69-4.36-.23-6.54-.33-.46.2-.59.89-1.23.8.11-2.47-1.46-.11-2-.69-.38.07-.21-1-1-.36a4.38,4.38,0,0,1-3.89.66,26.32,26.32,0,0,0-5.14.3c-1.39.21-3.25-1-4.41.82-.35.53-.69,0-.95-.28-.85-.78-1.67.14-2.51,0C208.92,86.92,208.2,87.22,208.9,88.24Z"/><path class="e" d="M236.13,83.74a109.28,109.28,0,0,0-13.42.41c-.75-1.55-2.24-.9-3.18-.7-2.07.45-2.85-.52-3.35-2.18.89-.68,1.92-.23,2.88-.35h.38c2.53,0,5.05,0,7.58-.33,1.29-.15,3-.78,3.8,1.12,1.44.72,3.19.24,4.6,1.19C235.77,83.13,236.09,83.29,236.13,83.74Z"/><path class="g" d="M189,74.43l0,1.19c-2,2.89-.5,6.24,3,6.1,1.44,0,1.38,1.23,2.31,1.31.1.65.42.54,1,.48,1.07-.12,1.72.3,1,1.5-2-.68-3.91.58-6,.57a1.92,1.92,0,0,1,1.59-1c.51-.27.4-.75.4-1.2-.22-1.48-1.11-.16-1.63-.39h0c-.05-.18.1-.48-.25-.47,0,0-.06.31-.09.48-.7-.64-1.64-1-2-2-.48.52-.22,1.41-1.22,1.36l-.15-1.79c.56-1.35-.52-2.87.41-4.25.1-.15-1.14-.73-1.38-1.5.57-.5,1,.13,1.4.24s.74.14.69-.51c0-.39.49-.44.95-.11Z"/><path class="h" d="M216.6,73.17a2,2,0,0,0,2.9.69c1.46-.9,2.58,0,3.88,0-.56,1.24-2.38.28-2.71,1.74l-2.85,0a3.48,3.48,0,0,0-.2-.85c-.61,0-.56.55-.62,1l-4.22,1.37C214.31,75.53,215.45,74.35,216.6,73.17Z"/><path class="g" d="M230.82,81.7c-.8-1.9-2.51-1.27-3.8-1.12-2.53.29-5.05.28-7.58.33a.8.8,0,0,1,1-.79c4.72.26,9.39-.56,14.1-.42.36,0,1.06-.3.94.56,0,.1-.34.16-.52.23-.41.13-.82-.46-1.23,0C232.73,80.89,231,79.53,230.82,81.7Z"/><path class="g" d="M203.3,89.46c-.34,1.26-.93-.07-1.37.14l-.78-.14c-.84-.09-.22.56-.41.8l-.88-.35c0-.42.75-1.34-.15-1.13-1.51.33-1.43-.55-1.49-1.48-.77.31-.55,1.36-1.5,1.47,0-1.19,1.07-2.1.76-3.28l.09-.55A11.78,11.78,0,0,0,203.3,89.46Z"/><path class="j" d="M197.57,84.94l-.09.55L196.22,85c.73-1.2.08-1.62-1-1.5-.56.06-.88.17-1-.48.39-.59,1.71-.15,1.55-1.47,0-.27,1-.5,1,.13C196.74,82.88,197.79,83.75,197.57,84.94Z"/><path class="g" d="M212.13,72.37c-.1-1.18.7-2.14.81-3.27.21-.25.41-.5.63-.75s.55-.35.81,0a7.2,7.2,0,0,1,.48.81C213.31,69.68,213.92,72,212.13,72.37Z"/><path class="g" d="M202.22,86.07c.22-1.41-1.77-.55-1.79-1.79,0-.44.44-.42.76-.27.71.32,1.92-.12,1.95,1.22C203.14,85.64,202.88,86,202.22,86.07Z"/><path class="g" d="M219.06,80.92c-1,.12-2-.33-2.88.35-.72-.09-1.05-.78-.42-.93C216.82,80.11,218.22,79.34,219.06,80.92Z"/><path class="e" d="M206,86.18c.5.16,1.09-.63,1.43,0a1.57,1.57,0,0,1-.65,2A5.44,5.44,0,0,1,206,86.18Z"/><path class="e" d="M213.35,84.56l-1.22.43-.42-.4h0c0-.6,0-1.26.92-1.21S213.32,84,213.35,84.56Z"/><path class="g" d="M214.8,80.61c-.69.58-1.37.84-2.05-.1Z"/><path class="h" d="M239.88,79.44c.58.25,1.91-.45,1.41,1.13C240.58,80.5,240.25,80,239.88,79.44Z"/><path class="e" d="M233.69,80.49c.41-.46.82.13,1.23,0-.06.33-.09.69-.52.75S233.75,80.91,233.69,80.49Z"/><path class="m" d="M217,75.72c.06-.42,0-.94.62-1a3.48,3.48,0,0,1,.2.85Z"/><path class="g" d="M204.44,89.45c-.12.22-.2.59-.36.62-.44.11-.47-.32-.56-.62Z"/><path class="e" d="M205.3,86.21c.08-.22.12-.59.25-.62.43-.1.44.3.5.59Z"/><path class="h" d="M222.32,75.91a.71.71,0,0,1,1.19.07Z"/><path class="g" d="M194.33,81.54c-.12.06-.24.15-.34.14s-.21-.11-.31-.17c.11-.05.22-.15.33-.14S194.21,81.47,194.33,81.54Z"/><path class="h" d="M235.14,78.13a.88.88,0,0,1,1,.32A1.08,1.08,0,0,1,235.14,78.13Z"/><path class="h" d="M237.93,79l.64.27Z"/><path class="g" d="M212.15,81.3l.17.21-.2-.18Z"/><path class="h" d="M59.48,52.84l.37-.68a.94.94,0,0,1-.25,1.08Z"/><path class="c" d="M186.85,80.51,187,82.3c1,0,.74-.84,1.22-1.36.35,1,1.29,1.38,2,2h.35c0,.12,0,.23,0,.35l-.45,0c-.5.09-1.18-.22-1.44.4-.35.8.58.71.87,1.08a2.31,2.31,0,0,1,.2.56c-1.53.21-3.13.2-4.17,1.64h-.2a1,1,0,0,0-1-.41h-.31a56,56,0,0,1-7.54-.4c-.71-.07-1.77.35-1.64-1.06,0-.11-.11-.22-.17-.34-1.39,1-2.54-.73-3.58-.44-1.59.44-1.73-.53-2.18-1.4-.24-.19-.37-.59-.11-.65,3.28-.74,6.22-3,9.86-2.22,1.14.24,2.44-.61,3.36-.28C183.7,80.38,185.32,80,186.85,80.51Z"/><path class="c" d="M165.34,73.6c-1.4-.39-.45-1.71-.3-1.64,1.29.54.69-.39.67-.78,0-.67-.29-.81-.87-.35s-.88-.23-.7-.43c.91-1-2.73-1.88,0-2.8v.2c.08.47.46.51.83.55.11.73.58,1,1.11.53s-.28-.49-.42-.74c-.59-1.12.29-1,.93-1a.85.85,0,0,0,.83.37c.44,0,1,.11,1.13-.48.32-1.45,1.28-.87,2.12-.72.48.17.29,1.09.82,1,.69-.16.27-.9.39-1.38a4,4,0,0,1,2.44.42c.3,1.11.92,1,1.63.39a.83.83,0,0,1,.81.41c.08,1.93-1.55,3.09-2.11,4.74a.68.68,0,0,1-.42.29c-1.68-1.49-2.52.38-3.58,1a3.39,3.39,0,0,1-3.42.21A1.25,1.25,0,0,0,165.34,73.6ZM173,67.73a.58.58,0,0,0,.17.06s0-.1.05-.15a.48.48,0,0,0-.17,0S173,67.68,173,67.73Z"/><path class="g" d="M188.92,74.38c.12-.2.19-.48.37-.59a.22.22,0,0,1,.29.31c-.12.17-.41.22-.62.33Z"/><path class="b" d="M95.36,87.33,95,87.16a3.71,3.71,0,0,0-2.09-.48,2.23,2.23,0,0,0-2.44-.46.92.92,0,0,0-.8-.5l-.08-.08-.11,0a.92.92,0,0,0-.23-.29c.45-1-.32-.77-.82-.81l.45-1.23a72.35,72.35,0,0,0,10.26,1.53c.4,0,.84-.17.86.42a1.31,1.31,0,0,1-.29.94c-.52.51-.56-.09-.77-.38-.45-.61-.62-.13-.77.24-.23.58-.73.5-1.19.51-.2-.3-.23-.74-.74-.89-.1.62.19.86.74.9,0,.38,0,.76,0,1.14-.11.13-.23.25-.34.37.06-.69-.43-.61-.87-.63Z"/><path class="g" d="M111.35,95.5a.6.6,0,0,1-.08-.35c2.46.34,4.57,1.65,6.88,2.4l3.27.82c1,.28,2.16.17,2.8,1.24l-.77.32c-.72-1-1.62-.11-2.43-.22-.24-.66-1.13-1.18-1.34-.83-.78,1.22-1.56-.26-2.25.18-.81-1.52-1.23.14-1.84.23-1.11-.45-1.44-1.94-2.77-2.09,0-.57-.12-1-.79-.91l-.36-.32-.1-.06-.09.09C111.7,95.76,111.63,95.6,111.35,95.5Z"/><path class="b" d="M81.54,83.78a16.77,16.77,0,0,1-1.18-4.51c1.15.45,1,1.5,1.17,2.44.07.44.06,1,.7,1,.47,0,.49-.54.52-1,.46,0,1,0,1.24.45.21,1,.7.93,1.32.35l.3,0v1.21h0c-.38.16-.24.3,0,.44.45.55,1.07.3,1.63.36l.42.57c-1.15.35-2.42-.41-3.52.35l-1.38.11a4.12,4.12,0,0,1,.41-.64c.42-.46.77-1.07.36-1.52-.61-.66-1,0-1.36.48C82,84.16,81.71,84,81.54,83.78Z"/><path class="h" d="M96.63,88.12c.11-.12.23-.24.34-.37,1.56.72,3.29,1,4.74,2a1.17,1.17,0,0,0-.39.09c-2,1.27-3.61,1-4.71-1.19l0-.06Z"/><path class="g" d="M87.66,85.14l-.42-.57c0-.26-.07-.53-.11-.79l0-.85,1.72.41-.45,1.23.21.71Z"/><path class="h" d="M107.22,92.05c-.08.34,0,.88-.59.73a1.21,1.21,0,0,1-1-1.41Z"/><path class="g" d="M82.75,81.72c0,.41,0,.9-.52,1-.64.07-.63-.52-.7-1Z"/><path class="g" d="M85.61,83.76V82.55a1.07,1.07,0,0,1,.93.37l-.12.84Z"/><path class="g" d="M85.31,82.52c-.62.58-1.11.63-1.32-.35C84.47,82.15,85,82.09,85.31,82.52Z"/><path class="b" d="M86.42,83.76l.12-.84h.63c0,.28,0,.57,0,.85Z"/><path class="h" d="M103.86,90.69a.78.78,0,0,1-.76-.39A.69.69,0,0,1,103.86,90.69Z"/><path class="h" d="M104.84,91l-.51-.23Z"/><path class="h" d="M145.81,112.65c-.92,1.62-2.51.65-3.59.58s.28-1.42-.07-2.19l.6-.27,2.27-.19c0,.14,0,.28,0,.41C144.1,112.09,144.85,112.42,145.81,112.65Z"/><path class="i" d="M155.26,118.74c-.39-.6-.41,1.94-1,.11-.23-.72-.79-.18-1.2-.15-.66.06-1.41.3-1.54-.75l1.19,0c.33-.12.28-.24,0-.37l-.36-1.1.28-.26A3.85,3.85,0,0,1,155.26,118.74Z"/><path class="e" d="M145.06,111l0-.41c.13-.35.45-.36.74-.42l.21.17.68.28A1.19,1.19,0,0,1,145.06,111Z"/><path class="h" d="M148.51,109.72a1.42,1.42,0,0,1,1.36-.44c0,.38.14.9-.26,1.08S149,109.82,148.51,109.72Z"/><path class="h" d="M146.65,110.61l-.68-.28,1.07-.16Z"/><path class="h" d="M152.64,116.18l-.28.26C152.33,116.21,152.27,116,152.64,116.18Z"/><path class="h" d="M152.72,117.54c.28.13.33.25,0,.37Z"/><path class="h" d="M160.6,115.76c.3-.29.5-.09.71.13Z"/><path class="h" d="M147.22,110.13l.62-.25Z"/><path class="g" d="M145.76,110.16c-.29.06-.61.07-.74.42l-2.27.19c-.52-.88-1.1-1.52-2.24-.2,1-2-.06-2.8-1.42-3.44-.23-.11-.56-.4-.53-.56.15-.91-1.59-1.45-.47-2.51a18.46,18.46,0,0,0,4,2.53C143,108.18,145.07,108.44,145.76,110.16Z"/><path class="m" d="M222.64,65.2l-3-.29,0-.59C220.53,64.73,221.41,63.69,222.64,65.2Z"/><path class="n" d="M58.34,12.56l.17.09-.18-.08Z"/><path class="g" d="M122.61,71.15c-.32,1.52-2,1.45-2.81,2.45l0,0c-1.78-.74-1.22-1.46,0-2.19C120.82,72.23,121.69,71.46,122.61,71.15Z"/><path class="d" d="M135.24,69.93l.4.4Z"/><path class="d" d="M124.66,73.18c0,.36.11.95-.31,1-.7.07-.41-.62-.52-1Z"/><path class="d" d="M119.8,73.6c.26,0,.55,0,.59.38,0,.07-.16.23-.23.22-.34,0-.34-.33-.38-.58Z"/><path class="g" d="M122.71,73.2l-.5.46C122.28,73.4,122,72.78,122.71,73.2Z"/><path class="e" d="M167.39,67.47a.85.85,0,0,1-.83-.37c.11-.48-.24-1.08.47-1.47C167.6,66.16,167.29,66.87,167.39,67.47Z"/><path class="e" d="M171.85,65.86c-.12.48.3,1.22-.39,1.38-.53.12-.34-.8-.82-1C170.93,65.79,171.4,65.87,171.85,65.86Z"/><path class="e" d="M175.92,66.67c-.71.57-1.33.72-1.63-.39C174.85,66.33,175.49,66.08,175.92,66.67Z"/><path class="g" d="M164.94,68.35c-.37,0-.75-.08-.83-.55C164.46,67.87,164.83,67.92,164.94,68.35Z"/><path class="b" d="M107.59,84.19a3.87,3.87,0,0,1,.37,2.34c0,.5.15,1.22-.67,1.2s-.84-.67-1-1.3.73-1.24,0-1.86C106.65,84.08,107.13,84.18,107.59,84.19Z"/><path class="b" d="M105.55,84.59c.06.33.5.64.15,1s-.43,0-.57-.19C105.14,85.05,105.19,84.74,105.55,84.59Z"/><path class="d" d="M17.65,23.55a2.48,2.48,0,0,1,1.65,2.82A2.87,2.87,0,0,0,17.65,26h0C17.68,25.18,17,24.36,17.65,23.55Z"/><path class="l" d="M74.58,78.08l.45-.42h0l-.42.44Z"/><path class="d" d="M123.84,116.32c-3.14-1.67-5.21-4.36-7-7.31l-.32-1.25c0-.45.07-.91.11-1.36.07-.22.15-.44.22-.66l.21-1.61c.64-2-.82-3.27-1.46-4.84.61-.09,1-1.75,1.84-.23.69-.44,1.47,1,2.25-.18.21-.35,1.1.17,1.34.83,1,.52,1.42.92.41,2.07-.72.81-1.52,2.36-1.38,3.13a11.19,11.19,0,0,0,3,6.34,4.83,4.83,0,0,0,5.77.06c1.09-1,2-2.94,2.86-3.25,2-.7,1.24-1.84,1.47-3,.2-1-1.29-2,.07-2.91l.88,0,.36.43c.1.17.21.23.36,0,.05-.52.28-.87.85-.89.19,1.44,2.18,1,2.45,2.4-1.12,1.06.62,1.6.47,2.51,0,.16.3.45.53.56,1.36.64,2.42,1.41,1.42,3.44,1.14-1.32,1.72-.68,2.24.2l-.6.27a7.17,7.17,0,0,1-4.72-1.17l-.35-.48c-.34-1.21-.71-.45-1.07,0a1.22,1.22,0,0,0-.82.8c-1.6,1.39-3.2,2.75-4.77,4.16-.32.29-1.13.38-.69,1.15h0c-.46-.62-.74,0-1.09.17l-1.13.62a6.79,6.79,0,0,1-3.26.13Z"/><path class="h" d="M144.85,119.56a3.53,3.53,0,0,1,2.56-.6A1.73,1.73,0,0,1,144.85,119.56Z"/><path class="h" d="M135.19,110.18a1.22,1.22,0,0,1,.82-.8h1.07l.35.48C137,112.18,135.93,110.05,135.19,110.18Z"/><path class="h" d="M143.81,114.47c.39.81.21,1.37-.51,1.66a.57.57,0,0,1-.47-.26C142.42,114.91,143.52,115,143.81,114.47Z"/><path class="h" d="M127.5,116.28l1.13-.62c.22.94,0,1.54-1.12,1.46C127.5,116.84,127.5,116.56,127.5,116.28Z"/><path class="h" d="M137.26,112.59c-.15-.23-.31-.36-.32-.51s.1-.53.43-.44c.11,0,.23.3.22.46S137.42,112.37,137.26,112.59Z"/><path class="h" d="M138.45,113.35c.09.18.23.33.23.49,0,.36-.27.41-.51.33s-.21-.24-.31-.38Z"/><path class="h" d="M143.65,117.93c-.2-.12-.44-.19-.47-.31-.08-.32.18-.45.44-.41a.47.47,0,0,1,.35.32C144,117.64,143.78,117.78,143.65,117.93Z"/><path class="h" d="M129.73,115.49c.43.1,1-.26,1.24.51-.67.39-.86-.31-1.25-.51Z"/><path class="h" d="M140.49,113.84c-.22.17-.35.34-.49.36s-.27-.14-.41-.22c.12-.13.22-.33.37-.37S140.24,113.72,140.49,113.84Z"/><path class="h" d="M134.58,112.35c0-.11.07-.29.15-.32a.31.31,0,0,1,.32.14c0,.08-.08.22-.13.33Z"/><path class="h" d="M140.27,116c0-.11.08-.29.16-.32s.22.08.33.13c0,.11-.07.29-.15.32S140.39,116.06,140.27,116Z"/><path class="k" d="M19.69,95.15l-1.36,0-.14,0-.12-.07-.46-.4,0,0c0-.64.1-1.31-.89-1.2l0,0c.17-2.32-1.81-3.8-2.27-5.9-.92-4.15-2.29-8.26-.46-12.5a1.11,1.11,0,0,1,.39,1.28c-.56,2,.62,2.54,2.16,2.91.16,0,.28.25.43.39-.52.55-1,.2-1.49.06-.69-.2-1.05.05-1.06.76A14.21,14.21,0,0,0,14.84,85,35.55,35.55,0,0,0,19.69,95.15Z"/><path class="h" d="M24.56,100.93l4.73,2.21c-1.34,1.69-2.37,1.6-3.68-.22C25.13,102.26,23.79,102.26,24.56,100.93Z"/><path class="h" d="M17.58,97.68a8.34,8.34,0,0,1-2,2.91c-.45.38-.92,0-1.27-.28a.91.91,0,0,1,0-1.42,14.52,14.52,0,0,0,2.46-1.8C17.2,96.67,17.62,96.92,17.58,97.68Z"/><path class="h" d="M21.34,98.74l2.93,2.06c-1,0-.9,1-1.32,1.6a.88.88,0,0,1-1.05.4c-.68-.24-.15-.53,0-.88C22.2,100.8,20.79,99.93,21.34,98.74Z"/><path class="h" d="M11.55,92.3a3.27,3.27,0,0,0-.32-.5,2,2,0,0,1-.8-2.28c.13-.35.58-.18.65,0,.4.86,1.23,1.61.84,2.71,0,.07-.24.06-.37.09Z"/><path class="h" d="M15.53,92.24l.53.79C15,95,14.3,92.68,13,93.1,14,92,14.82,92.45,15.53,92.24Z"/><path class="h" d="M16.77,104a.54.54,0,0,1-.73.46c-.45-.16-1.15-.17-1-.92.06-.4.44-.45.79-.32S16.78,103.28,16.77,104Z"/><path class="h" d="M30.59,106.16c0,.55-.26.73-.63.75s-.72,0-.72-.46.29-.56.64-.64A.63.63,0,0,1,30.59,106.16Z"/><path class="h" d="M19.64,97.2l.85.8c-.19,0-.4.06-.59.11-.41.11-1,.6-1.18,0S19.29,97.47,19.64,97.2Z"/><path class="h" d="M13.34,99.43a.53.53,0,0,1-.57.47.63.63,0,0,1-.66-.62c0-.36.27-.42.54-.41A.66.66,0,0,1,13.34,99.43Z"/><path class="h" d="M17.65,95.17c-.44.46-1.16.63-1.34.08s.63-.41,1-.54a.68.68,0,0,1,.31.08l0,0Z"/><path class="h" d="M31.89,106.54c.07-.41-.16-1,.54-1,.17,0,.51.34.51.5,0,.71-.63.48-1,.54Z"/><path class="h" d="M10.74,93.52c0-.6,0-1.18.81-1.22h0c0,.59,0,1.19-.81,1.22Z"/><path class="h" d="M12.71,105.74c-.23.15-.36.3-.51.32s-.53-.11-.44-.43c0-.11.3-.23.46-.22S12.49,105.58,12.71,105.74Z"/><path class="c" d="M17.63,94.79a.68.68,0,0,0-.31-.08c-.19-.37-.38-.75-.58-1.12C17.73,93.48,17.65,94.15,17.63,94.79Z"/><path class="h" d="M15.47,102.3c-.09-.24-.22-.4-.19-.52s.23-.24.35-.36c.08.14.26.29.23.4S15.65,102.09,15.47,102.3Z"/><path class="h" d="M31.89,106.54c-.05.3,0,.65-.48.62a.17.17,0,0,1-.13-.13c0-.44.32-.43.61-.49Z"/><path class="h" d="M8.59,88.39c.12,0,.29.07.32.16s-.08.22-.13.33c-.11,0-.29-.08-.32-.16S8.54,88.5,8.59,88.39Z"/><path class="h" d="M11.5,87.28,11.32,87l.38-.2c0,.11.12.24.09.31S11.6,87.23,11.5,87.28Z"/><path class="h" d="M10.93,88.05c-.06.1-.1.24-.19.29s-.2,0-.3-.09c.05-.1.08-.25.16-.29S10.81,88,10.93,88.05Z"/><path class="h" d="M10.8,78.73a3.41,3.41,0,0,1,.17.33s0,.12-.05.18Z"/><path class="h" d="M11.3,83.46a.74.74,0,0,1,.39.73A.59.59,0,0,1,11.3,83.46Z"/><path class="h" d="M15.08,91.5l.2.4C15.06,91.84,14.92,91.75,15.08,91.5Z"/><path class="c" d="M17.65,95.17l0-.41.46.4Z"/><path class="b" d="M30.28,103.21c.18-.2.3-.12.4.09Z"/><path class="h" d="M87.66,85.14l1,.14.61.1a.92.92,0,0,1,.23.29,1.08,1.08,0,0,0-1,1.34h0a6,6,0,0,1-4.3-1.52C85.24,84.73,86.51,85.49,87.66,85.14Z"/><path class="h" d="M92.92,86.68a3.71,3.71,0,0,1,2.09.48C94.19,87.56,93.18,88.75,92.92,86.68Z"/><path class="h" d="M89.68,85.72a.92.92,0,0,1,.8.5c0,.83-.63.8-1.22.8h0Z"/><path class="h" d="M93.22,89.1a1.34,1.34,0,0,1,.49-.25c.35,0,.41.27.33.52s-.27.31-.37.29S93.45,89.41,93.22,89.1Z"/><path class="h" d="M88.68,90.16c-.05.11-.09.22-.14.34-.12,0-.29-.08-.32-.16s.07-.22.12-.33Z"/><path class="h" d="M96.61,88.67c-.08.29-.09.64-.53.6a.21.21,0,0,1-.13-.13c0-.45.32-.45.61-.53Z"/><path class="h" d="M91.73,87.56l.21.25-.37.24c0-.11-.13-.23-.11-.31S91.63,87.62,91.73,87.56Z"/><path class="h" d="M89.26,87c-.1.21-.17.57-.32.6-.43.1-.44-.3-.5-.6h.82Z"/><path class="h" d="M95.36,87.33l.4.16C95.5,87.76,95.42,87.59,95.36,87.33Z"/><path class="o" d="M19.69,95.15A35.55,35.55,0,0,1,14.84,85a14.21,14.21,0,0,1-.42-4.39c0-.71.37-1,1.06-.76.48.14,1,.49,1.49-.06-.15-.14-.27-.35-.43-.39-1.54-.37-2.72-1-2.16-2.91A1.11,1.11,0,0,0,14,75.21c.07-.24.06-.6.23-.72,1.27-.89,1.14-1.86.24-2.92,1.93-.42,1.53-1.95,1.56-3.28,1.9,0,.87-1.23.83-2l.83-2.4c.82.06,1.76-.65,2.42.39-.25,1.26.4,1.14,1.2.79l1.21,0,.84,0c.84-.19,2,.6,2.44-.81l.09-.16-.09.17-2.43,0h0c-.14-.29-.28-.28-.41,0l-.46.39H22.2c-.31-.52-.82-.4-1.3-.39V61.78c.47-.66.71-1.7,1.92-.83.58.43,1.08,0,1.46-.59-1-.36-2.44.26-2.59-1.41.41-.06.83-.14.75-.69,0-.13-.29-.35-.37-.32-.49.19-.31.65-.37,1-1-.59-.82-1.52-.67-2.44a8.58,8.58,0,0,1,4.38-1.27c1,1.53,1.82,2.94,0,4.59-.83.76.18,1,.85,1.09.1.85-.46,1.54-.59,2.71,1.18-2.2,2.53-.67,3.79-.62,1,0,2-.17,2.37,1.17s.86-.38,1.26,0c.15.1.3.21.45.3l.11-.15-.53-.18c-.28-1.21-.55-2.43-.83-3.64l0,0c.64.13,1.7,1.2,1.73-.23a2.83,2.83,0,0,0-1.15-2.6c.08-1.09,1.05-2.24-.19-3.27.16-.67-.33-1.1-.65-1.6,5-1.25,7-.38,8.68,4-1.14-.53-1.94-1.37-3-1.55-.1-.12-.14-.4-.37-.13l.24.24a1.25,1.25,0,0,0,.84,1.13c0,.55,0,1.09,0,1.64l-2.09.31a2.31,2.31,0,0,1,.88,2.11c-.39.57-.83.14-1.26.07s-1.07-.17-1.13.49.57.69,1,.6c1.3-.26,1.25.69,1.34,1.46s.11,1.5.88,1.25c1-.32,2,.1,3.12-.12a2.11,2.11,0,0,0-1.89-.88c-.44,0-1-.32-.78-.67.95-1.33-.93-1.34-.92-2.18,1.53-.06,1.71-.88,1.18-2.1l1.64-.41a2.23,2.23,0,0,0,0,1.55c.09.53.1,1.25.81,1.13s.27-.73.15-1.14-.17-.72.16-.9c.79-.45,1,.75,1.73.64.44,1.08-.07,1.66-1.28,1.9.62.64,1.49.85,1.35,1.75-.56.09-1.27-.24-1.6.49-.17.37.13.67.45.77.58.17.58,1.3,1.34.94s0-1.09.13-1.65a1.65,1.65,0,0,0-.11-.59l1.38-1.16.44,0,.34,0c0,1.33,1.54,1.13,2,2a3,3,0,0,1-.37,2.45h0c-.73.14-1.56-.27-2.34.37.61.73,1.32.32,1.92.44.9,1.18,2.49,1.9,2.47,3.69-.74,1-2.3,1.57-2,3.24.1.47-.26,1.09.41,1.42.65-.35.3-1,.38-1.44.27-1.25,1.33-1.92,2.08-2.81H51a5.39,5.39,0,0,0-.09,4c.17.57.3,1.21-.31,1.68s-1,.06-1.39-.32c-.25-.22-.63-.52-.85-.16a2.34,2.34,0,0,0-.48,1.7c.09.41.48.42.82.43s.78-.28,1.12-.33c.9-.14,2.22-.58,1.66,1.31a7.42,7.42,0,0,0-.06,1.83c0,1.46-.3,2.66-2.35,2.18,1.2,1.34.23,4.11-1.47,4.33-1.14.15-1.48.5-1.5,1.6A3,3,0,0,1,44.73,92c-2.44,1.46-4.27,4-7.44,4.15-.47,0-.52.4-.42.74.46,1.54-.82,1.74-1.69,1.9-3.48.68-7,1.92-10.52.12-.09,0-.32.2-.49.3A16.89,16.89,0,0,1,19.69,95.15Zm0-28.07c-.55.16-1.94.25-1.41.65,1.4,1.07,1,2.42,1.14,3.77,1.94-1.5.21-3,.26-4.43l.1-.15ZM35.92,83.8c0-2.27-1.35-3.71-3.42-3.67s-3.17,1.44-3.21,3.68,1.26,3.67,3.42,3.63C34.69,87.39,35.92,86,35.92,83.8Zm1.19,0c.06,3.55.06,3.55,3.38,3.46.55,0,1.43.28,1.44-.6s-.92-.59-1.41-.54c-1.5.18-2.09-.37-1.92-1.9.1-1,0-2,0-3,0-.57-.26-.87-.86-.85s-.62.43-.63.84C37.1,82.1,37.11,83,37.11,83.85Zm.69-16.12c.21.72.14,1.74,1.23,1.63s2.49.9,3.48-.93A7.48,7.48,0,0,1,37.8,67.73ZM27.5,67c-1.9.7-2.05,2.09-3,3.55C26.36,69.78,26.69,68.48,27.5,67Zm7.15-12.67a1.83,1.83,0,0,0,1.93.67c.09,0,.18-.46.12-.51C36.13,54,35.52,54.28,34.65,54.31Zm1.85,17.8c.41-.36.67-.65.43-1.09a.32.32,0,0,0-.33,0C36.32,71.26,36.36,71.59,36.5,72.11ZM47.76,83.2c.28,0,.35-.19.36-.39s-.08-.24-.12-.37a2.88,2.88,0,0,0-.35.45C47.61,83,47.72,83.11,47.76,83.2ZM33.32,65.47l-.3.19c.1,0,.2.15.3.15s.2-.1.3-.16Zm-9.79-6.81a.32.32,0,0,0,.13-.07.44.44,0,0,0,0-.16l-.19.1ZM20.8,71.57l-.08-.16s-.11.09-.11.14.05.11.08.16Z"/><path class="f" d="M16.85,66.25c0,.81,1.07,2-.83,2h-.81c-.2-.52,1-1.41-.42-1.6l-.8-.43v0a.78.78,0,0,1,.77-.86A2.25,2.25,0,0,0,16.85,66.25Z"/><path class="k" d="M15.21,68.28H16c0,1.33.37,2.86-1.56,3.28A2.67,2.67,0,0,1,15.21,68.28Z"/><path class="g" d="M14,66.25l.8.43c-.16.18-.35.53-.47.51C13.76,67.08,14.09,66.58,14,66.25Z"/><path class="k" d="M57.13,111.82c0-1.88,0-3.77,0-5.66,0-.44-.14-1,.5-1.14s.71.48.7,1c0,1.16.53,1,1.25.57,2.17.52,2.62,1.33,2.24,4l-1.62,1.51a.27.27,0,0,0-.22.07l-.4,0H58.37C58.06,111.72,57.58,111.84,57.13,111.82Zm1.19-2.26c0,.51,0,1.4,1.19,1.36a1.22,1.22,0,0,0,1.21-1.52c-.08-.8-.13-1.68-1.27-1.69S58.29,108.41,58.32,109.56Z"/><path class="e" d="M61.8,110.57c.38-2.69-.07-3.5-2.24-4,.55-1,1.12-2,1.65-3,.63-1.17.82.24,1.26.2a5.46,5.46,0,0,0,.92,2.46c-.77,1.44-.47,2.92-.16,4.41C62.76,110.29,62.28,110.48,61.8,110.57Z"/><path class="g" d="M56.33,119.13c.06-1-.44-1.3-1.35-1.23-.38,0-.9.06-1-.41-.2-.85.68-.3.91-.6a1.82,1.82,0,0,1,1.81-.54c0,.44-.19,1.18.26,1.23.67.07.92-.62,1-1.25l.79-.07,0,.83v0l-.39.42c-.41,1.46.05,2.2,1.65,2,0,.79-.7,1.15-1.19,1.56s-1.29.58-1.24-.57C57.59,119.66,57.34,119.07,56.33,119.13Z"/><path class="d" d="M60,119.55c-1.6.18-2.06-.56-1.65-2l.39-.42v0c.61-.37.8-1.44,1.94-.91a1.56,1.56,0,0,1,1.08,1.27C61.84,118.69,60.83,119.07,60,119.55Z"/><path class="e" d="M60,112.15a.27.27,0,0,1,.22-.07c.39.22,1.27,0,1.17.51-.16.69-.51,1.3-.21,2-.67,0-1.34,0-2-.07-.28,0-.41-.59-.27-.62,1.75-.36.11-1.2.27-1.76h.43C59.71,112.53,59.85,112.49,60,112.15Z"/><path class="e" d="M58,116.33c-.08.63-.33,1.32-1,1.25-.45,0-.21-.79-.26-1.23s-.65-.85,0-1.26h1.63C58.28,115.52,57.08,115.62,58,116.33Z"/><path class="e" d="M57.13,111.82c.45,0,.93-.1,1.24.36-.28.51-.78.45-1.25.47-.18-.16-.48-.31-.52-.49C56.54,111.81,56.9,111.87,57.13,111.82Z"/><path class="c" d="M58,116.33c-.88-.71.32-.81.38-1.24.48.27.38.74.41,1.17Z"/><path class="c" d="M57.92,115.09h-.39C57.66,114.85,57.79,114.84,57.92,115.09Z"/><path class="b" d="M65.64,98.8l0-.8a.75.75,0,0,1,.83.81Z"/><path class="e" d="M67.31,102.09l-.46.28-.11-.14.53-.19Z"/><path class="e" d="M67.27,102l.2-.15-.16.2Z"/><path class="g" d="M63.39,106.2a5.46,5.46,0,0,1-.92-2.46c.73-.73.62,2.09,1.58.37a1.66,1.66,0,0,1,1.2.58Z"/><path class="b" d="M51.41,119.12c0-.53,0-1.13.76-1.14.22,0,.61.12.65.27a1.19,1.19,0,0,1-.62,1.32Z"/><path class="o" d="M27.48,53.24C29.29,53,31,53,32.4,54.5,33,55.84,32,57,31.87,58.18c.53.72-.31,1.7.45,2.37l0,0c-.71,1-1.89.86-2.86,1.23-.11-1.42-1.69-.36-2.11-1.25,0-.33,0-.92.08-.95,1.38-.42.88-1.25.51-2.05C27.27,56.16,26.49,54.79,27.48,53.24Z"/><path class="d" d="M27.48,53.24c-1,1.55-.21,2.92.44,4.31.37.8.87,1.63-.51,2.05-.11,0-.06.62-.08.95l-1.06.38c-.67-.09-1.68-.33-.85-1.09,1.82-1.65,1-3.06,0-4.59A3.2,3.2,0,0,1,27.48,53.24Z"/><path class="b" d="M21,56.52c-.15.92-.37,1.85.67,2.44h0c.15,1.67,1.59,1,2.59,1.41-.38.61-.88,1-1.46.59-1.21-.87-1.45.17-1.92.83.12-1.66,0-3.22-1.74-4.46C19.94,57.05,20.25,56.36,21,56.52Z"/><path class="b" d="M44.94,61.8,43.56,63l-.21,0c.14-.9-.73-1.11-1.35-1.75,1.21-.24,1.72-.82,1.28-1.9C44.63,59.62,43.74,61.42,44.94,61.8Z"/><path class="g" d="M45.72,61.8l-.34,0c.64-1.09,1.28-2.18,1.93-3.27l.47.06A3,3,0,0,1,45.72,61.8Z"/><path class="g" d="M31.87,58.18C32,57,33,55.84,32.4,54.5a.65.65,0,0,0,.31,0c1.24,1,.27,2.18.19,3.27Z"/><path class="e" d="M46.86,56.67c-.28-.05-.44,0-.52-.09-.54-.46-1.51-.22-1.76-1.07A.38.38,0,0,1,45,55C45.86,55.21,46.73,55.4,46.86,56.67Z"/><path class="e" d="M38.43,58.14c0-.55,0-1.09,0-1.64.75.42,1.66.63,2,1.57l-1.64.41Z"/><path class="c" d="M20.9,64.24c.48,0,1-.13,1.3.39a1.05,1.05,0,0,0-.9.4c-.8.35-1.45.47-1.2-.79Z"/><path class="e" d="M47.78,58.55l-.47-.06c-.07-.31-.3-.75-.18-.91.35-.45.68.07,1,.17v.41l-.38.39Z"/><path class="k" d="M55.67,109.46c-.6.59,1,2.09-1,2.13-3.31.07-3.58-.11-3.67-2.26a1.33,1.33,0,0,1,0-.2c.23-.81-.55-2.29.81-2.27,1.13,0,.52,1.42.64,2.21s-.22,1.71.81,1.77c1.2.07.91-1,1.07-1.78s-.44-2.31.56-2.22C56.25,107,55.24,108.54,55.67,109.46Z"/><path class="e" d="M55.08,104.1a1.88,1.88,0,0,1-1.86-1.47c-.09-.41.29-.58.64-.52,1.14.2.94,1.25,1.22,2Z"/><path class="e" d="M55.08,104.1c.33.61.65,1.22,1.16,2.18-1.53-.49-1-1.49-1.16-2.18Z"/><path class="b" d="M51.45,115.46c.36.07.83-.09,1,.4,0,.09-.19.35-.32.37-.53.09-.65-.3-.73-.71Z"/><path class="e" d="M55.59,102.33c-.11,0-.28-.08-.32-.16s.08-.22.13-.33c.11,0,.29.07.32.15S55.64,102.21,55.59,102.33Z"/><path class="b" d="M51.39,115.52c-.25-.06-.55-.07-.59-.42,0-.07.16-.23.23-.22.35,0,.36.33.42.58Z"/><path class="b" d="M50.8,116.45l-.09-.13.19-.1s0,.11,0,.15S50.84,116.42,50.8,116.45Z"/><path class="e" d="M47.34,66.26a3,3,0,0,0,.37-2.45c.9,0,1.45-1.32,2.52-.68-1,.77-1,1.31.38,1.51h0C49.38,64.91,48.45,65.76,47.34,66.26Z"/><path class="f" d="M50.23,71.16c-.75.89-1.81,1.56-2.08,2.81l-.79,0c-.26-1.67,1.3-2.2,2-3.24A.84.84,0,0,1,50.23,71.16Z"/><path class="f" d="M51,71.16c1.46-1.64,1.86.24,2.76.73-1.49,1.5-1.77-.76-2.75-.72Z"/><path class="e" d="M46.93,67.06c-.6-.12-1.31.29-1.92-.44.78-.64,1.61-.23,2.34-.37Z"/><path class="k" d="M50.61,64.64c-1.38-.2-1.36-.74-.38-1.51-1.07-.64-1.62.66-2.52.68-.45-.88-2-.68-2-2a3,3,0,0,0,2.06-3.25h.46c1.83-.55,2.62.56,3.18,2h0a.77.77,0,0,0,.9.81l-.48,1.23C50.7,62.84,51.07,64,50.61,64.64Z"/><path class="k" d="M52.26,60.18a2.54,2.54,0,0,0,0,.39h-.85C51.5,60,51.62,59.55,52.26,60.18Z"/><path class="g" d="M48.24,58.56h-.47l.38-.39Z"/><path class="f" d="M51.42,60.57h.85c.41.25.45.52,0,.81A.77.77,0,0,1,51.42,60.57Z"/><path class="b" d="M17.65,26a2.87,2.87,0,0,1,1.65.37,3.07,3.07,0,0,0,2.76-1.32c.47-.8,1-.36,1.32-.14.58.48,0,.77-.38,1.05C21.52,27.15,18.75,27.17,17.65,26Z"/><path class="k" d="M16,41.16c-.77-.06-1.55.08-1.55-1S15.18,39,16,39.06s1.64,0,1.59,1.06S16.63,41.08,16,41.16Z"/><path class="b" d="M15.91,38.21c-.59-.08-1.41.19-1.44-.86s.54-1.14,1.29-1.1,1.65,0,1.74.92S16.67,38.18,15.91,38.21Z"/><path class="c" d="M22.94,34.94l.41.4c-.3.48-.66.3-1,.08-.15-.08-.42-.22-.16-.38S22.68,35,22.94,34.94Z"/><path class="k" d="M161.67,95.26l1.63,0c.31.49.86.86.81,1.54.3,1.45,1.79.72,2.63,1.46a30.43,30.43,0,0,1,4.54,4.84c1.29,1.81,2.94,3.53,3.36,5.89s-.72,3.63-2.91,3.68a23.12,23.12,0,0,1-5.17-.81l-1.61.39c-.43-1.47-1.53-1.74-2.86-1.62h-1.22c-.16-1.1-1.3-1-1.94-1.54-3.05-2.58-6.58-4.83-4.61-9.81.44-1.11,2.37-2.8,3.55-2.23,1.49.72,1.76-.11,2.18-1.07A2.63,2.63,0,0,0,161.67,95.26Z"/><path class="e" d="M184.12,86.59h.31c.09.69.34,1,1,.41h.2c1.56-.12,3.28.18,4.17-1.64a2.31,2.31,0,0,0-.2-.56c-.29-.37-1.22-.28-.87-1.08.26-.62.94-.31,1.44-.4.17.3.33.33.45,0,0-.12,0-.23,0-.35.52.23,1.41-1.09,1.63.39-1,.1-.65.68-.4,1.2a1.92,1.92,0,0,0-1.59,1c2.11,0,4-1.25,6-.57l1.26.48c.31,1.18-.79,2.09-.76,3.28.95-.11.73-1.16,1.5-1.47.06.93,0,1.81,1.49,1.48.9-.21.2.71.15,1.13-.35.33-.48.76,0,1,.61.34.84-.1.91-.65.19-.24-.43-.89.41-.8,0,.71.71,2,.25,2-1.71.17-1.84,2.07-3.17,2.5-1.4-.48-2.89-.83-3.17-2.63-.94.5.26,2.22-1.16,1.91a13.24,13.24,0,0,1-2.57-.75c-.82-.36-1.65-2-3-.74-.78-.9-2.28.41-2.5-.29-.46-1.52-1.25-.49-1.88-.41-.17-.75.37-1.11.49-1.61s.68-.93-.12-1.53L183,90.78c-1.88-.68-.2-1.9-.49-3a9.32,9.32,0,0,0-1.81,2.53h-.19c-.65-1,.17-2.32,1.65-2.89C182.82,87.14,183.93,87.92,184.12,86.59Z"/><path class="f" d="M215.38,96.8c-1.63,1-.84,3.27-2.31,4.52-1.25,1.07-4.39,2.49-5.84,1.86-2.78-1.21-5.8-1-8.66-1.36-2.51-.29-5.06-.73-7.51-1.17a23.42,23.42,0,0,1-6.14-2.22A1.92,1.92,0,0,1,183.73,96a3.14,3.14,0,0,1,2.74-2.22c1.25,0,2.51.08,3.77.13,1.55-.62,2.93.34,4.39.49-.68,1.56-2.35.45-3.35,1.26-.46.37-1.11.49-1.12,1.27a1.45,1.45,0,0,0,.79,1.51,27.15,27.15,0,0,0,7.78,2.42c2.83.39,5.7-.3,8.57.76a3.62,3.62,0,0,0,4.72-2.8c.2-.93,1-1.24,1.3-2Z"/><path class="f" d="M160.05,96c-.42,1-.69,1.79-2.18,1.07-1.18-.57-3.11,1.12-3.55,2.23-2,5,1.56,7.23,4.61,9.81.64.54,1.78.44,1.94,1.54-3.43-.32-5.85-2.28-7.73-5-1.18-1.67-2.58-3.25-2.49-5.57a7.44,7.44,0,0,1,1.47-3.83c1.87-3,4.43-2.47,7.12-1.92h0C159.18,95,159.82,95.4,160.05,96Z"/><path class="f" d="M134.43,102.5l-.36-.43c-.34-.71-1.1-.84-1.68-1.22a4.68,4.68,0,0,0-5.33-2.9c-1.12.12-2-.06-1.12,1.49.3.53-.26.94-.88,1h0c0-.56-.32-.8-.84-.83-.64-1.07-1.81-1-2.8-1.24.36-2.73,2.63-3.63,4.69-3.92,3-.43,6,.14,7.81,3.06.77,1.26,2.17,2.36,1.72,4.15-.57,0-.8.37-.85.89A2.23,2.23,0,0,0,134.43,102.5Z"/><path class="f" d="M166.56,111.84a23.12,23.12,0,0,0,5.17.81c2.19-.05,3.3-1.45,2.91-3.68s-2.07-4.08-3.36-5.89a30.43,30.43,0,0,0-4.54-4.84c-.84-.74-2.33,0-2.63-1.46a.76.76,0,0,0,.83-.83l.76,0c5.67,3.35,8.62,8.7,10.81,14.63.56,1.52-.62,2-1.46,2.73C172.79,115.13,168.08,114.3,166.56,111.84Z"/><path class="g" d="M194.63,94.35c-1.46-.15-2.84-1.11-4.39-.49-.57-1-1.67-.69-2.52-.94-2-.55-4-1-6-1.43-.81-.15-1-.59-1-1.21a9.32,9.32,0,0,1,1.81-2.53c.29,1.13-1.39,2.35.49,3l1.36-2.87c.8.6.23,1.06.12,1.53s-.66.86-.49,1.61c.63-.08,1.42-1.11,1.88.41.22.7,1.72-.61,2.5.29,1.3-1.27,2.13.38,3,.74a13.24,13.24,0,0,0,2.57.75c1.42.31.22-1.41,1.16-1.91.28,1.8,1.77,2.15,3.17,2.63,0,.24,0,.48,0,.72A9,9,0,0,1,194.63,94.35Z"/><path class="k" d="M157.21,86.27l1.41,1.59c-.68.76-1,0-1.46-.33a1.75,1.75,0,0,0-2.4,0c-1.15.91-.94,2.18-.71,3.36a1.78,1.78,0,0,0,1.78,1.38,1.7,1.7,0,0,0,1.56-.78c.21-.3.22-.63-.2-.81s-1.09-.2-.67-.89c.27-.44.85-.28,1.31-.27.62,0,1.09.25,1,.95s.15,2.47-.31,2.34c-1.43-.37-2.62,1-4,.25a3.58,3.58,0,0,1-1.6-1.48c-1.18-2.33-.06-4.69,2.61-5.42h.85Z"/><path class="k" d="M151.42,92.21c.09.51,0,.79-.31.82a.87.87,0,0,1-.7-.21c-1.23-1.58-2.45-1.6-3.71-.07a.7.7,0,0,1-.88.27c-.4-.2-.23-.55-.12-.87.62-1.71,1.17-3.44,1.85-5.12.39-1,1.39-1.21,1.84-.29A54.31,54.31,0,0,1,151.42,92.21Zm-2.85-4.44c-.53,1-1.17,1.82-.71,2.74a.91.91,0,0,0,1.27,0C149.75,89.58,148.93,88.85,148.57,87.77Z"/><path class="k" d="M139.74,86.24c1.67-.13,1,1.24,1.32,2.17.95-.47,2.06-.94,2.77.23s.34,2.63.3,4a.49.49,0,0,1-.58.43.51.51,0,0,1-.51-.52c0-.74,0-1.48,0-2.23S142.76,89,142,89s-1,.59-1,1.25-.05,1.22,0,1.83c0,.84-.44,1-1.16,1Q139.75,89.66,139.74,86.24Z"/><path class="k" d="M138.71,87.37c-1.44-.2-2.16.29-2,1.88a21.88,21.88,0,0,1,0,3c0,.44-.22.79-.73.78s-.69-.35-.71-.79c0-.81,0-1.62,0-2.43,0-1.11.49-2.6-1.53-2.55a.46.46,0,0,1-.43-.57c.07-.4.43-.47.78-.48h4.65C138.74,86.61,138.72,87,138.71,87.37Z"/><path class="g" d="M165.7,95.93l-.76,0c.07-1.4,2.07-2.53.59-4.16l.93-.74c.23.57-.24,1.35.4,1.75.29.18.48-.32.68-.55.86.46,2.28-.56,2.36-.14.22,1.19-1.45.84-2,1.73S166,94.76,165.7,95.93Z"/><path class="g" d="M215.38,96.8l-2.06,0-1.18-.07c.12-.49-.07-1.73.48-1.31,2.13,1.63.73-1.23,1.55-1.09a2.67,2.67,0,0,0,.4,0v.4c.28,1.25,1.09,1.18,2,.82,0,.26,0,.51.07.76C216.39,96.9,215.86,96.77,215.38,96.8Z"/><path class="j" d="M167.54,92.25c-.2.23-.39.73-.68.55-.64-.4-.17-1.18-.4-1.75,0-.38,0-.75,0-1.13,0-.72,0-1.44.08-2.16,0-.35-.13-.94.39-.94s.33.72.56,1.06c0,.23,0,.45,0,.68s0,.65,0,1C167.53,90.44,167.54,91.35,167.54,92.25Z"/><path class="d" d="M153.93,80.52c-.13.54-.26,1.09-.4,1.64-1.13.19-1.19,1.9-2.64,1.84-.21-2,2.29-2,2.63-3.46Z"/><path class="k" d="M138.71,87.37c0-.38,0-.76,0-1.13.33,0,.66-.47,1,0q0,3.42,0,6.84c-.94-.94-.21-2.12-.44-3.16C139.13,89.07,139.75,88,138.71,87.37Z"/><path class="f" d="M162.09,110.61c1.33-.12,2.43.15,2.86,1.62C163.93,111.81,162.65,111.86,162.09,110.61Z"/><path class="d" d="M155.2,82.91c.29.4,1.49.22.8,1.25-.38,0-.44.91-1.06.38C154.12,83.83,155.4,83.5,155.2,82.91Z"/><path class="d" d="M113.55,87.27c-.88-.06-1.27-.44-1.31-1.13,0-.08.31-.3.44-.27C113.32,86,113.47,86.51,113.55,87.27Z"/><path class="g" d="M167.53,89.54c0-.33,0-.65,0-1,.32.17.91-.34,1,.24S167.93,89.38,167.53,89.54Z"/><path class="f" d="M159.24,94.34c0-.3,0-.64.49-.62,0,0,.12.08.12.13,0,.45-.32.44-.61.49Z"/><path class="g" d="M156.41,86.15h-.85A.5.5,0,0,1,156.41,86.15Z"/><path class="g" d="M160.4,89l-.21.51Z"/><path class="d" d="M237.39,85.73a.86.86,0,0,1,.78.9c.15,2.24,1.74.12,2.41.79.36.36.71.38.8-.18s.21-1.35-.77-1.45h-.4c.69-1.5,2.07,0,2.93-.67.06.62,1.3,1.17,0,1.9-1,.56-1.52,1.8-2.78,2l.35.45-.51.44c-2.14,1.09-4.82.73-6.68,2.54-4.71-.23-9.12,1.75-13.78,1.87a12.22,12.22,0,0,1-2.57-.43c-.67-.14-1,0-.9.78l-1.28,0v-.4a4.6,4.6,0,0,1,.25-.55c.53-.92-.11-3,.61-2.77,1.35.5,3.44-.41,4.17,1.72.18.51,1,.63,1.57.59.43-.8-1.12-.62-.62-1.11a2.39,2.39,0,0,1,2.21-.6,7.19,7.19,0,0,0,3.8.21c2-.56,4.53.53,6.1-1.71.28-.41.67-.11,1,.11.69.41,1.2,0,1.46-.61.37-.81-.34-1.07-.9-1.25a3.15,3.15,0,0,0-2.18.06.62.62,0,0,1-.91-.5.55.55,0,0,1,.71-.66c.83.56,2-1.25,2.59.44C235.84,87.2,237.32,87.36,237.39,85.73Z"/><path class="i" d="M241.93,92.32l-.47-.4-.78,0,0-.92-.48-.43,0-.56.51-.44c1,0,.25,2.2,1.84,1.47l.83.18c-.19.56-1.41.09-1.12,1.13l-.16,0Z"/><path class="e" d="M215,94.74l1.28,0c.85,0,.79.34.33.84-.93.36-1.74.43-2-.82Z"/><path class="l" d="M240.17,90.52l.48.43h-.51Z"/><path class="k" d="M166.47,89.92c0,.38,0,.75,0,1.13l-.93.74c1.48,1.63-.52,2.76-.59,4.16a.76.76,0,0,1-.83.83c0-.68-.5-1-.81-1.54,2.27-.9,1.41-2.93,1.64-4.56C165.64,90.81,165.78,89.82,166.47,89.92Z"/><path class="c" d="M162.49,70.34c-.22-.11-.52-.16-.63-.34s.12-.43.3-.31.23.42.34.64Z"/><path class="c" d="M169,85.91c.07.09.2.18.2.27s-.14.35-.36.28a.34.34,0,0,1-.14-.31C168.75,86.07,168.91,86,169,85.91Z"/><path class="c" d="M163.3,72.78l.18.15s-.08,0-.1,0a.61.61,0,0,1-.07-.14Z"/><path class="e" d="M163.74,90.17c0,1.23-.35,2-1.2,2s-1.27-.67-1.23-1.48a1.55,1.55,0,0,1,1.45-1.57A1,1,0,0,1,163.74,90.17Z"/><path class="h" d="M225,74.15l-.41.39a1.29,1.29,0,0,1-.24-.4c0-.08.11-.2.16-.3Z"/><path class="h" d="M218.39,72.07c.05-.12.07-.3.15-.33a.36.36,0,0,1,.32.14c0,.08-.08.22-.13.34Z"/><path class="f" d="M214.17,94.35c-.82-.14.58,2.72-1.55,1.09-.55-.42-.36.82-.48,1.31-.16.11-.35.33-.47.3-2.2-.65-4.5-.6-6.7-1s-4.73.13-6.73-1.41c0-.24,0-.48,0-.72,1.33-.43,1.46-2.33,3.17-2.5.46,0-.25-1.29-.25-2l.78.14c.14.59.29,1.17.42,1.76.3,1.3.7,2,1.9.57.73-.87.83-.8,1.73.6.89-.24.08-1.31,1-1.7.5.94,1.16,1.75,2.45,1.15a.78.78,0,0,1,.71.23c.94,1.32,1.87,2.55,3.74,1.44Zm-12.48-1.26c.06.1.1.25.18.27s.2-.07.31-.11l-.24-.37Zm8,1.45-.2-.3c0,.1-.16.21-.15.31s.1.21.17.31Z"/><path class="d" d="M222.71,85.81a4.38,4.38,0,0,0,3.89-.66c.8-.61.63.43,1,.36-.15.87.47,1,1.11,1.27s.85,0,.9-.58c.64.09.77-.6,1.23-.8-.14.76.42,1.95-.38,2.2-1.25.39-2.93.85-3.9-.16a1.51,1.51,0,0,0-2.07-.22C222.42,88.49,222.72,87,222.71,85.81Z"/><path class="b" d="M208.9,88.24c-.7-1,0-1.32.8-1.6-.34.68,1.24.54.55,1.6S209.31,87.83,208.9,88.24Z"/><path class="f" d="M215,94.74h-.41v-.4H215Z"/><path class="e" d="M240.58,87.42c-.67-.67-2.26,1.45-2.41-.79.68-.41.18-1.23.65-1.79l1.39,1h.4Z"/><path class="c" d="M229.62,86.2c-.05.58-.3.79-.9.58s-1.26-.4-1.11-1.27C228.16,86.09,229.73,83.73,229.62,86.2Z"/><path class="d" d="M211.71,84.59l.42.4Z"/><path class="i" d="M245.51,84.07h-.44l.21-.51Z"/><path class="c" d="M191.79,84.55c-.25-.52-.64-1.1.4-1.2C192.19,83.8,192.3,84.28,191.79,84.55Z"/><path class="e" d="M190.55,83h-.34c0-.17,0-.48.09-.48C190.65,82.47,190.5,82.77,190.55,83Z"/><path class="f" d="M200.74,90.26c-.07.55-.3,1-.91.65-.45-.24-.32-.67,0-1Z"/><path class="g" d="M189.76,85.38c-.89,1.82-2.61,1.52-4.17,1.64C186.63,85.58,188.23,85.59,189.76,85.38Z"/><path class="g" d="M185.39,87c-.62.58-.87.28-1-.41A1,1,0,0,1,185.39,87Z"/><path class="g" d="M190.58,83.31c-.12.36-.28.33-.45,0Z"/><path class="e" d="M173,67.73s0-.14,0-.14a.48.48,0,0,1,.17,0s0,.15-.05.15A.58.58,0,0,1,173,67.73Z"/><path class="n" d="M89.26,87h-.81a1.08,1.08,0,0,1,1-1.34l.11,0,.08.08Z"/><path class="e" d="M97,86.61c-.55,0-.84-.28-.74-.9.51.15.54.59.74.89Z"/><path class="e" d="M89.26,85.38l-.61-.1-.21-.71C88.94,84.61,89.71,84.38,89.26,85.38Z"/><path class="n" d="M108.38,96.37c.13-.24.25-.48.38-.71.23-.39.55-.63,1-.32a1,1,0,0,1,.37.68c0,.43-.49.38-.77.44a3.19,3.19,0,0,1-1-.09Z"/><path class="n" d="M111.35,95.5c.28.1.35.26.13.5l-.4-.28Z"/><path class="e" d="M112,96.29l-.57.1.21-.42Z"/><path class="k" d="M124.22,99.61c.52,0,.85.27.84.83-.37,0-.84-.15-1,.36,0,.08.18.36.31.38.55.09.64-.33.7-.74.62-.06,1.18-.47.88-1-.86-1.55,0-1.37,1.12-1.49a4.68,4.68,0,0,1,5.33,2.9l-1.62-.3a5.83,5.83,0,0,0-4-1c.33.87.81,1.41,1.55,1.29,1-.15,1,.25,1.36,1,1.22,2.38.1,4.13-1,6-1.4,2.47-3.5,2.61-5.21.36-.46-.6-.3-1.63-1.34-1.87-.36-.08-.37-.67-.12-.86,1-.8.74-2,1-3,.31,0,.73,0,.64-.5,0-.14-.42-.21-.64-.31a3.29,3.29,0,0,1,.42-1.73Z"/><path class="f" d="M123.45,99.93a3.29,3.29,0,0,0-.42,1.73h0c-.21.1-.58.18-.61.32-.09.44.31.44.61.5h0c-.29,1,0,2.22-1,3-.25.19-.24.78.12.86,1,.24.88,1.27,1.34,1.87,1.71,2.25,3.81,2.11,5.21-.36,1.08-1.91,2.2-3.66,1-6-.39-.78-.41-1.18-1.36-1-.74.12-1.22-.42-1.55-1.29a5.88,5.88,0,0,1,4,1c.29,1.32,1.67.95,2.42,1.56-1.36.89.13,1.89-.07,2.91-.23,1.21.58,2.35-1.47,3-.9.31-1.77,2.21-2.86,3.25a4.83,4.83,0,0,1-5.77-.06,11.19,11.19,0,0,1-3-6.34c-.14-.77.66-2.32,1.38-3.13,1-1.15.59-1.55-.41-2.07C121.83,99.82,122.73,98.89,123.45,99.93Zm8.57,6.71-.45-.33c-.08.13-.27.29-.24.39s.23.25.36.37Z"/><path class="h" d="M115.59,99.29c.64,1.57,2.1,2.88,1.46,4.84-1.38-.26-1.08-1.5-1.4-2.38-.18-.5-.26-1.18-.9-1.21-1.1-.06,0,1.06-.74,1.38-.64-1-.53-2.37-1.79-3.1-.53-.31-.11-1.25.6-1.62C114.15,97.35,114.48,98.84,115.59,99.29Z"/><path class="e" d="M86.42,83.76l.71,0c0,.26.07.53.11.79-.56-.06-1.18.19-1.63-.36v-.44h.82Z"/><path class="g" d="M85.6,83.77v.44C85.36,84.07,85.22,83.93,85.6,83.77Z"/><path class="m" d="M147.44,113.87l.09-.17-.09.17Z"/><path class="g" d="M242.25,92.3c-.29-1,.93-.57,1.12-1.13.37-.14.52.13.7.36A2.46,2.46,0,0,1,242.25,92.3Z"/><path class="h" d="M66.08,77.66l.39-.38Z"/><path class="h" d="M116.51,107.76l.32,1.25c-1.41.72-2.64.43-4-.65A7.82,7.82,0,0,1,116.51,107.76Z"/><path class="h" d="M111.64,106.54c.1-1.87,1.25-1.15,2.22-.88-.77.22-1.33,1-2.22.88Z"/><path class="h" d="M117.6,118.9c.37,1.57-.06,1.93-1.42,1.19C116.63,119.71,117,119.38,117.6,118.9Z"/><path class="h" d="M110.4,99.19c-.44,0-.68-.16-.65-.49a.47.47,0,0,1,.54-.46c.3.05.74.09.6.56C110.83,99,110.51,99.1,110.4,99.19Z"/><path class="h" d="M116.57,114.59c.28.26.67.46.59.92a.5.5,0,0,1-.42.22.81.81,0,0,1-.57-.9A.27.27,0,0,1,116.57,114.59Z"/><path class="h" d="M114.58,111.69c1.14-.16,1.54,0,1.8.64C115.66,112.72,115.39,112.18,114.58,111.69Z"/><path class="h" d="M116.39,116.77l-.27.19-.2-.39c.1,0,.23-.12.31-.09S116.34,116.67,116.39,116.77Z"/><path class="h" d="M118,117.83c0,.11-.07.29-.15.32s-.22-.08-.34-.13c0-.12.08-.29.16-.33S117.88,117.78,118,117.83Z"/><path class="h" d="M114.47,103l.14.06-.2.16s-.08-.1-.07-.13A.25.25,0,0,1,114.47,103Z"/><path class="h" d="M123.84,116.32l.4.09C124.06,116.6,123.93,116.53,123.84,116.32Z"/><path class="h" d="M116.84,105.74c-.07.22-.15.44-.22.66C116.69,106.18,116.77,106,116.84,105.74Z"/><path class="g" d="M133.19,102.1c-.75-.61-2.13-.24-2.42-1.56l1.62.31c.58.38,1.34.51,1.68,1.22Z"/><path class="m" d="M137.08,109.39H136C136.37,108.94,136.74,108.18,137.08,109.39Z"/><path class="g" d="M134.43,102.5a2.23,2.23,0,0,1,.36,0C134.64,102.73,134.53,102.67,134.43,102.5Z"/><path class="j" d="M35.92,83.8c0,2.2-1.23,3.59-3.21,3.64-2.16,0-3.45-1.33-3.42-3.63s1.25-3.64,3.21-3.68S35.91,81.53,35.92,83.8Zm-5.25-.59c-.06,1.72.13,2.93,1.77,3.05,1.48.1,2-.86,2-2.18s0-2.71-1.86-2.74A1.77,1.77,0,0,0,30.67,83.21Z"/><path class="k" d="M37.11,83.85c0-.88,0-1.75,0-2.62,0-.41.08-.82.63-.84s.86.28.86.85c0,1,.09,2,0,3-.17,1.53.42,2.08,1.92,1.9.49,0,1.43-.44,1.41.54s-.89.59-1.44.6C37.17,87.4,37.17,87.4,37.11,83.85Z"/><path class="f" d="M37.6,60.58c0,.84,1.87.85.92,2.18-.24.35.34.64.78.67a2.11,2.11,0,0,1,1.89.88c-1.1.22-2.11-.2-3.12.12-.77.25-.81-.62-.88-1.25s0-1.72-1.34-1.46c-.45.09-1.08.07-1-.6s.67-.55,1.13-.49.87.5,1.26-.07Z"/><path class="k" d="M29.44,61.8c1-.37,2.15-.26,2.86-1.23.28,1.21.55,2.43.83,3.64l0,0c-.4-.43-.93,1.23-1.26,0S30.46,63,29.47,63Z"/><path class="f" d="M29.44,61.8l0,1.22c-1.26-.05-2.61-1.58-3.79.62.13-1.17.69-1.86.59-2.71l1.06-.38C27.75,61.44,29.33,60.38,29.44,61.8Z"/><path class="k" d="M37.8,67.73a7.48,7.48,0,0,0,4.71.7c-1,1.83-2.38.81-3.48.93S38,68.45,37.8,67.73Z"/><path class="c" d="M31.87,58.18l1-.46a2.83,2.83,0,0,1,1.15,2.6c0,1.43-1.09.36-1.73.23C31.56,59.88,32.4,58.9,31.87,58.18Z"/><path class="d" d="M37.6,60.58l-.38,0a2.31,2.31,0,0,0-.88-2.11l2.09-.31.35.34C39.31,59.7,39.13,60.52,37.6,60.58Z"/><path class="f" d="M19.68,67.07c-.05,1.44,1.68,2.93-.26,4.43-.16-1.35.26-2.7-1.14-3.77-.53-.4.86-.49,1.41-.65Z"/><path class="f" d="M43.35,63l.21,0a1.65,1.65,0,0,1,.11.59c-.16.56.62,1.28-.13,1.65s-.76-.77-1.34-.94c-.32-.1-.62-.4-.45-.77C42.08,62.76,42.79,63.09,43.35,63Z"/><path class="f" d="M27.5,67c-.81,1.5-1.14,2.8-3,3.55C25.45,69.07,25.6,67.68,27.5,67Z"/><path class="f" d="M23.36,64.22l2.43,0h0c-.43,1.41-1.6.62-2.44.81C23.35,64.77,23.35,64.5,23.36,64.22Z"/><path class="c" d="M34.65,54.31c.87,0,1.48-.33,2.05.16.06.05,0,.48-.12.51A1.83,1.83,0,0,1,34.65,54.31Z"/><path class="k" d="M47.36,74l.79,0c-.08.49.27,1.09-.38,1.44C47.1,75.08,47.46,74.46,47.36,74Z"/><path class="k" d="M36.5,72.11c-.14-.52-.18-.85.1-1.11a.32.32,0,0,1,.33,0C37.17,71.46,36.91,71.75,36.5,72.11Z"/><path class="k" d="M21.71,59c.06-.37-.12-.83.37-1,.08,0,.35.19.37.32.08.55-.34.63-.75.69Z"/><path class="k" d="M47.76,83.2c0-.09-.15-.24-.11-.31a2.88,2.88,0,0,1,.35-.45c0,.13.13.25.12.37S48,83.21,47.76,83.2Z"/><path class="k" d="M33.32,65.47l.3.18c-.1.06-.2.16-.3.16s-.2-.1-.3-.15Z"/><path class="k" d="M21.3,65a1.05,1.05,0,0,1,.9-.4h.29c0,.14,0,.29,0,.44Z"/><path class="c" d="M22.51,65.06c0-.15,0-.3,0-.44l.46-.39h.41c0,.28,0,.55,0,.82Z"/><path class="k" d="M23.53,58.66l-.08-.13.19-.1a.44.44,0,0,1,0,.16A.32.32,0,0,1,23.53,58.66Z"/><path class="k" d="M33.13,64.21l.53.18-.11.15c-.15-.09-.3-.2-.45-.3Z"/><path class="f" d="M20.8,71.57l-.11.14s-.08-.11-.08-.16.07-.09.11-.14Z"/><path class="f" d="M19.69,67.08l.09-.16-.1.15Z"/><path class="c" d="M37.57,55.37l-.24-.24c.23-.27.27,0,.37.13Z"/><path class="f" d="M25.79,64.24l.09-.17-.09.16Z"/><path class="f" d="M23.36,64.22H23C23.08,63.94,23.22,63.93,23.36,64.22Z"/><path class="d" d="M58.32,109.56c0-1.15.09-1.86,1.13-1.85s1.19.89,1.27,1.69a1.22,1.22,0,0,1-1.21,1.52C58.37,111,58.32,110.07,58.32,109.56Z"/><path class="b" d="M60,112.15c-.11.34-.25.38-.4,0Z"/><path class="b" d="M58.72,117.11l-.39.42Z"/><path class="k" d="M198.24,94.68c2,1.54,4.5,1,6.73,1.41s4.5.31,6.7,1c.12,0,.31-.19.47-.3l1.18.07c-.32.71-1.1,1-1.3,2a3.62,3.62,0,0,1-4.72,2.8c-2.87-1.06-5.74-.37-8.57-.76A27.15,27.15,0,0,1,191,98.39a1.45,1.45,0,0,1-.79-1.51c0-.78.66-.9,1.12-1.27,1-.81,2.67.3,3.35-1.26A9,9,0,0,0,198.24,94.68Z"/><path class="d" d="M148.57,87.77c.36,1.08,1.18,1.81.56,2.75a.91.91,0,0,1-1.27,0C147.4,89.59,148,88.81,148.57,87.77Z"/><path class="g" d="M240.58,87.42l0-1.63c1,.1.86.82.77,1.45S240.94,87.78,240.58,87.42Z"/><path class="e" d="M201.69,93.09l.25-.21.24.37c-.11,0-.23.14-.31.11S201.75,93.19,201.69,93.09Z"/><path class="k" d="M209.68,94.54l-.18.32c-.07-.1-.17-.2-.17-.31s.1-.21.15-.31Z"/><path class="f" d="M125.06,100.44c-.06.41-.15.83-.7.74-.13,0-.34-.3-.31-.38.17-.51.64-.32,1-.36Z"/><path class="f" d="M123,101.66c.22.1.61.17.64.31.09.46-.33.45-.64.5h0v-.82Z"/><path class="d" d="M132,106.64l-.33.43c-.13-.12-.32-.23-.36-.37s.16-.26.24-.39Z"/><path class="k" d="M123,101.66v.82c-.3-.06-.7-.06-.61-.5C122.45,101.84,122.82,101.76,123,101.66Z"/><path class="k" d="M30.67,83.21a1.77,1.77,0,0,1,1.95-1.87c1.87,0,1.86,1.44,1.86,2.74s-.56,2.28-2,2.18C30.8,86.14,30.61,84.93,30.67,83.21Z"/><path class="f" d="M141.16,82.24l3-.26c.6.39,1.64.63,1.61,1.22.63,1.21,3.33.36,4.92.88a52.83,52.83,0,0,1,8.7,3.52c2.5,1.37,5.66,2.61,6.59,4.6s-1.07,3.25-5.09,3.62a90.21,90.21,0,0,1-9.58.06l-2.93.57c-.9-1.2-3-1.28-5.38-1l-2.24.18c-.38-.93-2.47-.67-3.68-1-5.79-1.79-12.45-3.21-9.17-7.82a9,9,0,0,1,6.38-2.45c2.8.4,3.23-.36,3.94-1.25A8.26,8.26,0,0,0,141.16,82.24Z"/><path class="f" d="M166.54,86.13l.3,0a2.92,2.92,0,0,1,.21.78c.11.74.36.35.55.72a20.4,20.4,0,0,1,1,2.43,15.69,15.69,0,0,1,.87,3c.16,1.15,0,1.89-.39,2s-.66-.19-1-.34l-.28.22c-.14-.75-.36-.87-.6-.79l-.23,0c-.07-.57-.28-.5-.42-.77a7.91,7.91,0,0,1-1.26-5c0-.58.32-1.48.56-1.21s.33-.08.36-.58C166.38,86.49,166.47,86.35,166.54,86.13Z"/><path class="f" d="M65.88,112.66l-.63,1.2a4.77,4.77,0,0,1-2.2-.45c-1.86-.76-1.58.82-2.82.93a41.93,41.93,0,0,1-7.69,0c-2.71-.28-5.45-.23-8.47-1.52-2.86-1.21-4.1-3-3.28-4.58.67-1.33,2-2.2,3.07-3.22.06-.48.13-.95.19-1.43,1.94.67,2.72,0,3.11-1,.16-.29.33-.58.49-.88,1.4.62,1.74-.28,2.64-.38,4.35-.48,8.51-1.54,13.73,3.24,1.16,1.06,2.43,3.61,1.26,4.08-1.48.6-.58,1.35.41,2.31A1.91,1.91,0,0,0,65.88,112.66Z"/><path class="o" d="M32,72.93l1.85-.17c.4.51,1,.87,1.07,1.62.45,1.56,2.09.62,3.11,1.36a34,34,0,0,1,5.61,4.89c1.63,1.87,3.66,3.6,4.34,6.15s-.5,4-3,4.31a27.69,27.69,0,0,1-6-.42l-1.8.57c-.62-1.56-1.9-1.76-3.41-1.51l-1.38.11c-.29-1.19-1.58-1-2.35-1.51C26.43,85.78,22.2,83.64,24,78c.4-1.25,2.45-3.29,3.85-2.77,1.77.66,2-.28,2.39-1.37A3,3,0,0,0,32,72.93Z"/><path class="f" d="M11.22,38.34l.06-.88c.33-.14.58-.42,1-.36.93-.09.53-.94,1-1.35a18.46,18.46,0,0,1,3.27-2.22A10.15,10.15,0,0,1,20.5,32c1.44-.1,2.28.58,2.22,1.76A11,11,0,0,1,22,36.53l.18.9A1.26,1.26,0,0,0,21,38.9c0,.22,0,.43-.05.65-.71,0-.69.66-1.06,1-1.78,1.52-3.36,3.32-6.44,2-.69-.29-1.68-1.43-1.27-2,.53-.77,0-1-.58-1.24A1.35,1.35,0,0,0,11.22,38.34Z"/></svg>