<svg xmlns="http://www.w3.org/2000/svg" viewBox="0 0 165.56 389.73"><defs><style>.a{fill:#eae9f0;}.a,.d,.f{stroke:#525151;}.a,.c,.d,.f,.g{stroke-miterlimit:10;}.b,.c{fill:#525151;}.c{stroke:#c6c3cc;}.d,.g{fill:none;}.e{fill:#4f4646;}.f{fill:#332c2a;}.g{stroke:#d0d5dd;}.h{fill:#d0d5dd;}</style></defs><title>Asset 49</title><path class="a" d="M134,104.39l-39.55-2-55,2H.5V373.06h26l-.16,6.8a82.73,82.73,0,0,0,20.25,7.42,87,87,0,0,0,28.27,1.39c8.35-.76,21.67-2.11,35.7-10.35a73,73,0,0,0,7.72-5.26h34.3V104.39H134V373.06"/><polyline class="a" points="152.54 373.06 165.06 357.76 164.12 115.97 152.54 104.39"/><polyline class="b" points="25.53 35.79 25.53 104.39 5.14 104.39 5.14 40.11 25.53 35.79 40.37 37.95 39.44 103.44 25.53 104.39"/><line class="c" x1="34.34" y1="62.02" x2="40.36" y2="62.02"/><polyline class="d" points="26.46 373.06 26.46 360.77 29.7 353.36"/><path class="a" d="M77,340.15H98.77l8.65-5.1-13-4.63V7.17A80.5,80.5,0,0,0,76,1.82c-6.47-1-16.22-2.62-28.13.59a58.5,58.5,0,0,0-8.38,3v327c8.85.34,16.54.42,22.69.41,1.52,0,8.85,0,18.59-.33,5.41-.17,10.07-.39,13.76-.58l4.29,8.23v43.68l11.75-5.51"/><path class="d" d="M39.44,185.25a195.52,195.52,0,0,1,22.26-1.16c1.49,0,8.68.06,18.24.92,5.3.49,9.87,1.08,13.5,1.63"/><line class="a" x1="13.48" y1="373.06" x2="13.48" y2="104.39"/><line class="d" x1="29.7" y1="340.15" x2="46.85" y2="340.15"/><line class="d" x1="29.7" y1="340.15" x2="39.44" y2="330.42"/><line class="a" x1="29.7" y1="340.15" x2="29.7" y2="381.4"/><line class="d" x1="94.45" y1="269.54" x2="152.54" y2="268.92"/><path class="d" d="M39.44,103.26A195.52,195.52,0,0,1,61.7,102.1c1.49,0,8.68.06,18.24.92,5.3.49,9.87,1.08,13.5,1.63"/><line class="d" x1="109.28" y1="335.05" x2="109.28" y2="379.77"/><polyline class="a" points="77.43 298.99 72.35 313.65 72.35 387.84 72.35 313.65 46.85 313.73 50.87 298.99 77.43 298.99 77.43 388.42 46.55 387.28 46.85 313.73"/><line class="d" x1="164.13" y1="257.97" x2="153.1" y2="269"/><line class="c" x1="34.34" y1="65.73" x2="40.36" y2="65.73"/><path class="a" d="M101.75,268.19H92A16.74,16.74,0,0,1,75.34,251.5h0A16.74,16.74,0,0,1,92,234.81h9.72a16.74,16.74,0,0,1,16.69,16.69h0A16.74,16.74,0,0,1,101.75,268.19Z"/><path class="e" d="M83.65,277.09a6.26,6.26,0,1,1-6.26-6.26A6.26,6.26,0,0,1,83.65,277.09Z"/><path class="f" d="M79.73,277.09a2.34,2.34,0,1,1-2.34-2.34A2.34,2.34,0,0,1,79.73,277.09Z"/><path class="e" d="M73.11,244.1A9.1,9.1,0,1,1,64,235,9.09,9.09,0,0,1,73.11,244.1Z"/><path class="f" d="M67.41,244.1a3.4,3.4,0,1,1-3.4-3.4A3.4,3.4,0,0,1,67.41,244.1Z"/><rect class="e" x="85.86" y="272.73" width="6.7" height="6.7"/><rect class="e" x="45.32" y="272.73" width="6.7" height="6.7"/><rect class="e" x="82.51" y="143.63" width="6.7" height="6.7"/><rect class="e" x="44.17" y="143.63" width="6.7" height="6.7"/><rect class="e" x="83.65" y="224.04" width="6.7" height="6.7"/><rect class="e" x="45.32" y="224.04" width="6.7" height="6.7"/><path class="b" d="M52,113.76a4.49,4.49,0,1,1-4.49-4.49A4.49,4.49,0,0,1,52,113.76Z"/><path class="b" d="M90.35,113.76a4.49,4.49,0,1,1-4.49-4.49A4.49,4.49,0,0,1,90.35,113.76Z"/><ellipse class="d" cx="110.81" cy="251.51" rx="7.49" ry="14.21"/><path class="g" d="M135.4,251.5c0,3.06-1.43,5.55-3.2,5.55S129,254.56,129,251.5s1.43-5.55,3.19-5.55S135.4,248.44,135.4,251.5Z"/><path class="h" d="M109.2,257.05h20.39v-.85a2.34,2.34,0,0,0,1.69.85c1.76,0,3.19-2.49,3.19-5.55S133,246,131.28,246a2.34,2.34,0,0,0-1.69.85V246H109.2c-1.77,0-3.2,2.49-3.2,5.55S107.43,257.05,109.2,257.05Z"/><path class="g" d="M117.47,208.44c0,3.06-1.43,5.54-3.19,5.54s-3.2-2.48-3.2-5.54,1.43-5.55,3.2-5.55S117.47,205.37,117.47,208.44Z"/><path class="h" d="M91.27,214h20.4v-.85a2.32,2.32,0,0,0,1.68.85c1.77,0,3.2-2.48,3.2-5.54s-1.43-5.55-3.2-5.55a2.32,2.32,0,0,0-1.68.85v-.85H91.27c-1.76,0-3.19,2.48-3.19,5.55S89.51,214,91.27,214Z"/></svg>