<svg xmlns="http://www.w3.org/2000/svg" viewBox="0 0 40.21 32.35"><defs><style>.a{fill:#ba136c;stroke:#fff;stroke-miterlimit:10;}</style></defs><title>Asset 2</title><path class="a" d="M12.91,26.85v0h0Z"/><path class="a" d="M6.91,24.53h0l0,0Z"/><path class="a" d="M14.81,25.85v0h0Z"/><path class="a" d="M36.59,11.57a1.27,1.27,0,0,1-.11-1.67c-.36-.12-.39-.46-.53-.74a7.63,7.63,0,0,0-2.6-2.85c-1-.7-2-1.38-3.09-2-2.75-1.64-4.54-2-7-.22-1.4,1-2.45,2.38-3.83,3.44-1.68,1.29-3.21,2.77-4.85,4.13a52.07,52.07,0,0,1-7.51,4.72C4.3,18,2.09,20,1.33,23.31c-.05.21-.11.45-.37.53.58.55.21,1-.06,1.5a.59.59,0,0,1,.43.51,5.2,5.2,0,0,0,1.74,2.73,18.2,18.2,0,0,0,2.9,2,14.06,14.06,0,0,0,3.88-3.2,25.64,25.64,0,0,1,1.79-2,2.15,2.15,0,0,1,2.61-.6c.35.15,1.07.35.57,1,.43.65.08,1.2-.25,1.67A1,1,0,0,1,13.5,28a.81.81,0,0,1-.59-1.09c-.15-.15-.36-.28-.15-.52a.07.07,0,0,0,.11,0c-.67.1,0-.84-.69-.81s-1.89,1.66-1.56,2.36a6.72,6.72,0,0,0,3.63,3.4c2.13.91,3,.75,4.54-.84a5.9,5.9,0,0,0,1.85-3.12c-1.16-1.79-3-2.62-4.83-3.44s-3.75-1.32-5.58.1a13.91,13.91,0,0,1-2.88,1.38.69.69,0,0,1-.86-.2c-.12-.22.12-.52.4-.65-.5-.37-.13-.73,0-1.08.7-2,2.4-2.82,4.18-3.53a40.62,40.62,0,0,0,14.11-9.86A5.4,5.4,0,0,1,28.71,8l-.57-.79c1.08,1.06,2.77,1.23,3.58,2.61-.47,0-.6-.7-1.26-.53.4.9-.39,1.85.39,2.77.22.26-.08.13-.18.09-.66-.29-.63.28-.68.6a62,62,0,0,0-1.14,6.46c-.07,1.3-1.22,2.57-.61,3.7s2,1.94,3,2.89c1.36,1.24,2.33,1,3-.69a4.83,4.83,0,0,0,.26-1c.42-2.93.75-5.88,1.27-8.78C36,14.05,35.89,12.7,36.59,11.57Z"/><path class="a" d="M14.34,9.46c-.24-1.72.52-2.7,1.85-2.35,0-.35.25-.25.45-.21a6.07,6.07,0,0,1,2,0c1.05-.18,1.66-1,2.42-1.59,1.35-1.06,2.46-2.47,4.34-2.76a1.85,1.85,0,0,0-1.32-.88,28.33,28.33,0,0,0-10-1C12.43.7,10.55,1,9.8,2.84c-1.56,3.85-1.61,8-1.66,12.23,1.23-.7,2.41-1.25,3.45-2C12.85,12.17,14.47,11.47,14.34,9.46Z"/><path class="a" d="M16.21,7.11h0Z"/><path class="a" d="M14.34,9.46h0v0Z"/><path class="a" d="M6.49,15.12c.21.15.35.49.68.36s.28-.41.28-.69a54.89,54.89,0,0,1,.48-7.72,3.93,3.93,0,0,0-3.11,3.35A4.43,4.43,0,0,0,6.49,15.12Z"/><path class="a" d="M14.9,10.66a6,6,0,0,1,.54-.58c.23-.19.51-.32.74-.51.4-.33.5-.56-.12-.91-1.1-.62-1.35.14-1.71.81C14.9,9.7,14.39,10.37,14.9,10.66Z"/><path class="a" d="M14.34,9.46v0h0Z"/><path class="a" d="M27.58,23c-1.56.48-2.68-.58-3.88-1.29-.55-.33-1-.68-1.5,0a.33.33,0,0,1-.51.07c-.25-.21-.14-.4,0-.61a2,2,0,0,1,1.8-.88c.47-.39,1.24-.33,1.54-1-.17-.18-.36-.4-.21-.62s.31.11.47.1c.73-.06,1.12.5,1.62.88.32.25.54.83,1,.66s.26-.76.34-1.15c.23-1,.33-2.12.53-3.18.09-.45.15-.78-.38-1.07-1.24-.68-2.44-1.45-3.67-2.14-.39-.22-.88-.56-1.3-.21-1.23,1-2.41,2-3.68,3.13a12.26,12.26,0,0,1,2,1c.54.4.82.25,1.15-.15s.71-.81,1.09-1.18a.51.51,0,0,1,.82,0c.29.38-.08.55-.32.71a1.91,1.91,0,0,1-.53.22c-.62.18-.84.46-.54,1.18.48,1.17-.24,2-1.58,2.05a.16.16,0,0,0-.15.09c-.07.42-.15.86-.69.34-.7-.67-1.6-1-2.29-1.73-.44-.43-1.18-1-1.57-.92a10.56,10.56,0,0,0-2.58,1.43c-.58.38-.19,1.07-.36,1.6a.78.78,0,0,1,.05.65,8.45,8.45,0,0,0,.9.8c2.81,1.84,5.6,3.7,8.44,5.48a6.83,6.83,0,0,0,2.92,1.49,9.15,9.15,0,0,0,5.83-1.62c-1.45-1.32-2.84-2.59-4.24-3.85C28,23.13,27.86,22.9,27.58,23Z"/><path class="a" d="M14.28,20.33v0Z"/><path class="a" d="M39.66,25.82a9.83,9.83,0,0,0-3.9-5.88c-.29,1.66-.56,3.13-.8,4.6a1,1,0,0,0,.19,1,8,8,0,0,0,2.44,1.89C38.9,27.94,39.94,27.17,39.66,25.82Z"/><path class="a" d="M14.28,20.31l0,0h0Z"/><path class="a" d="M14.26,20.33c-.48,0-.17-1.12-1-.7-1.09.54-2.23,1-3.34,1.47a1.56,1.56,0,0,0-1,2.18c.18.61.25.75.8.36.73-.52,1.51-1.26,2.43-1.12,1.38.2,2.25.06,2.24-1.52C14,20.78,14,20.56,14.26,20.33Z"/><path class="a" d="M14.33,21h0v0h0Z"/><path class="a" d="M29.27,9.93c.21.15.46.32.64.17a.61.61,0,0,0,0-.76,1.19,1.19,0,0,0-1.29-.65c-.23,0-.56-.06-.59.22s.24.36.38.54C28.85,9.32,29,9.74,29.27,9.93Z"/><path class="a" d="M28.43,9.46h0Z"/></svg>