<?xml version="1.0" encoding="utf-8"?>
<!-- Generator: Adobe Illustrator 24.0.3, SVG Export Plug-In . SVG Version: 6.00 Build 0)  -->
<svg version="1.1" id="Layer_1" xmlns="http://www.w3.org/2000/svg" xmlns:xlink="http://www.w3.org/1999/xlink" x="0px" y="0px"
	 viewBox="0 0 45.3 38.4" style="enable-background:new 0 0 45.3 38.4;" xml:space="preserve">
<style type="text/css">
	.st0{fill:#3CAFC7;stroke:#CCCCCC;stroke-miterlimit:10;}
</style>
<title>Asset 4</title>
<path class="st0" d="M37.8,27c0.3,0.3,0.6,0.7,0.6,1.1c0,0.4-0.2,0.7-0.4,0.9c-0.1,0.1-0.3,0.3-0.3,0.4c-0.8,1.6-2.4,2.6-4.1,2.7
	c-0.7,0.1-1.4,0-2.1-0.2c-0.2-0.1-0.4-0.1-0.5,0c-0.5,0.4-1.3,0.5-1.9,0.3c-0.2,0-0.2,0-0.2,0.2c0,0.1,0,0.2,0,0.3
	c0.3,1.1,0.7,2.2,1,3.3c0.1,0.3,0.1,0.6,0,0.9c0,0.5-0.4,1-0.9,1c-0.2,0-0.4,0-0.5-0.1c-0.4-0.2-0.7-0.5-0.9-0.8
	c-1.2-1.7-2.1-3.5-3.2-5.2c-0.7-1.2-1.5-2.4-2.3-3.5c-0.3-0.5-0.6-1-0.7-1.5c0-0.3-0.2-0.4-0.5,0c-1.2,0.9-2.6,1.4-4.1,1.5
	c-0.4,0.1-0.9,0-1.2-0.3c-0.2-0.1-0.3-0.2-0.5-0.2c-1-0.2-1.9-0.6-2.7-1.1c-1.2-0.7-1.9-2.1-1.7-3.5c0-0.7,0-0.7-0.6-0.6
	c-0.4,0.1-0.8,0.1-1.3,0c-1.6-0.2-3.1-0.7-4.5-1.4C4,21,3.9,20.8,3.7,20.7c-0.3-0.4-0.7-0.8-1.2-0.8c-0.7-0.1-1.3-0.8-1.4-1.5
	c0-0.2-0.1-0.3-0.2-0.5c-0.2-0.2-0.3-0.5-0.2-0.7c0-0.8-0.1-1.5-0.2-2.2c-0.1-1.2,0.4-2.4,1.4-3.2c0.2-0.2,0.4-0.5,0.4-0.8
	c0-0.3,0.2-0.6,0.4-0.9c1-0.9,1.9-1.9,2.7-2.9C5.8,6.6,6.5,6.3,7,5.7c0.7-1,1.7-1.7,2.9-2c0.1,0,0.3-0.1,0.4-0.2
	c0.9-0.9,2.2-1.6,3.5-1.8c0.6-0.1,1.3-0.3,1.8-0.6C15.8,1,16,1,16.2,1.1c0.5,0.1,1,0.1,1.5,0c0.9-0.3,1.8-0.5,2.7-0.6
	c0.7,0.1,1.4,0.1,2.1,0c0.5-0.1,1.1,0,1.5,0.4c0.1,0.1,0.4,0.1,0.5,0c0,0,0,0,0,0l0,0C25,0.8,25.6,0.8,26,1l0.9,0.3
	c0.2,0.2,0.6,0.2,0.8,0l0,0c1-0.2,2.1,0.1,2.9,0.7c0.1,0.1,0.2,0.2,0.4,0.2c1.1,0.3,2.2,0.8,3.2,1.4C35,4,35.7,4.5,36.3,5.1
	c0.1,0.1,0.3,0.2,0.4,0.2c0.8,0.3,1.3,1,1.4,1.9c0,0.3,0.2,0.6,0.6,0.7c0.5,0.2,0.9,0.5,1.3,0.9c0.5,0.5,1,0.9,1.4,1.4
	c0.8,0.7,1.2,1.8,1.1,2.9c0,0.3,0,0.6,0.3,0.8c0.1,0.1,0.2,0.2,0.2,0.3c0,0.8,0.8,1.3,0.7,2.1c0,0.2,0.1,0.4,0.3,0.5
	c0.3,0.5,0.5,1,0.5,1.6v0.2c0.3,0.5,0.3,1.1,0,1.6c-0.3,1.4-0.7,2.8-1.2,4.2c-0.3,0.9-0.8,1.6-1.4,2.3c-1.1,1.1-2.6,1.6-4.1,1.3
	C37.9,28.1,38,27,37.8,27z"/>
</svg>
