<svg xmlns="http://www.w3.org/2000/svg" viewBox="0 0 105.35 83.65"><defs><style>.a{fill:#bebebe;}.b{fill:#f9f9f9;}.c{fill:#a2a2a2;}.d{fill:#c5c5c5;}.e{fill:#d4d4d4;}.f{fill:#c7c7c7;}.g{fill:#cbcbcb;}.h{fill:#f1f1f1;}.i{fill:#d6d6d6;}.j{fill:#f0f0f0;}.k{fill:#d3d3d3;}.l{fill:#a8a8a8;}.m{fill:#e4e4e4;}.n{fill:#f7f7f7;}.o{fill:#cfcfcf;}.p{fill:#b6b6b6;}.q{fill:#f8f8f8;}.r{fill:#a1a1a1;}.s{fill:#e1e1e1;}.t{fill:#bababa;}.u{fill:#c3c3c3;}.v{fill:silver;}.w{fill:#a0a0a0;}.x{fill:#adadad;}.y{fill:#bbb;}.z{fill:#9c9c9c;}.aa{fill:#999;}.ab{fill:#2c2c2c;}.ac{fill:#d1d1d1;}.ad{fill:#c9c9c9;}.ae{fill:#ababab;}.af{fill:#efefef;}.ag{fill:#c1c1c1;}.ah{fill:#e0e0e0;}.ai{fill:#d2d2d2;}.aj{fill:#d5d5d5;}.ak{fill:#bcbcbc;}.al{fill:#d7d7d7;}.am{fill:#cdcdcd;}.an{fill:#7a7a7a;}.ao{fill:#d8d8d8;}.ap{fill:#c8c8c8;}.aq{fill:#b3b3b3;}.ar{fill:#e7e7e7;}.as{fill:#cacaca;}.at{fill:#e3e3e3;}.au{fill:#696969;}</style></defs><title>Asset 20</title><path class="a" d="M103.84,20.76c.19,4.67-3.56,5.26-6.64,5.76-5.17.85-10.1,3.15-15.51,2.55C80,28.88,79.84,30.7,79,31.63c-1.82,2-2.07,5.29-5,6.51-1.11-.6-2.49.28-3.54-.65a3.92,3.92,0,0,1-1.24-3.21,2.39,2.39,0,0,1,2-1.94l.32-.1s-.36-.08-.39-.1a2,2,0,0,1-.88-1.35c-.74-2.66,1.14-4,2.7-5.53.91-1.34-.55-2.12-.79-3.19-.42-2.2.21-4.15,2.36-4.79,3.32-1,3.89-3.61,4.43-6.39.32-1.31.81-2.48,2.31-2.8A2.82,2.82,0,0,1,83.49,9c1.84,2.22,2.62,4.9,3.29,7.62a11.09,11.09,0,0,0,.57,1.33c-.06,4.19,1.75,5.59,6,4.56a16.88,16.88,0,0,0,5.17-1.84,7.76,7.76,0,0,1,2-.5C101.64,20.13,102.83,20,103.84,20.76Z"/><path class="b" d="M103.84,20.76c-1,.23-2,.94-3.12.43a11.88,11.88,0,0,0-10-2.67,7.07,7.07,0,0,1-5.48-1.47c-1.4-2.23-1.87-4.78-2.49-7.27-1.27-3.4,1.34-3.48,3.38-3.72A115,115,0,0,0,101.7,3.55l2.55,1.85c.09,4.9.34,9.79-.37,14.67C103.87,20.3,103.86,20.53,103.84,20.76Z"/><path class="c" d="M69.79,51.93a96,96,0,0,1-4.57,9.2c-4.77,7.53-11.85,12.23-20,15.45-2.49.44-5.23,1.76-6.58-1.85a3.2,3.2,0,0,1,2-3.3,4.77,4.77,0,0,1,3.75-.53,2.85,2.85,0,0,1,.7-.28A2.24,2.24,0,0,1,45.8,70c1-1.27,2-2.52,3.87-2.6,1.58-.07,2.16-1.15,2.31-2.57a6.92,6.92,0,0,1,.43-1.31c2.37-2.77,5.44-4.81,7.94-7.46,2.7-1.25,3.45-3.84,4.39-6.32a3,3,0,0,1,2.82-1.43C69.52,48.76,71,49.5,69.79,51.93Z"/><path class="d" d="M101.7,3.55c-2.29,4.83-6.93,4.11-11,4.63-2.68.35-5.56-.38-7.9,1.6l-1.08-1c-2.93-1.77-5.7-3.58-2.24-7.3C87.26-1.93,94.44,1.26,101.7,3.55Z"/><path class="e" d="M61.48,9.51l3.69-3.45c4.24.17,8.49-.65,12.74,0,1.4,1,2.74,2.09,2.25,4.14C78.85,13.37,76.61,15,73,15.31c-4.3.42-8.12,2.79-12.26,4A21.78,21.78,0,0,1,53,20.48c-1.81-.52-2.43-2-2.88-3.58a3.24,3.24,0,0,1,2.11-3.14C55.46,12.7,58.88,12,61.48,9.51Z"/><path class="f" d="M4.83,81C3.3,79.51,3.11,77.65,3.25,75.7A5.22,5.22,0,0,1,9.6,72.51a6.48,6.48,0,0,0,5.82-1.45c3.69-.52,5.43,3.72,8.94,3.62,3-.42,3.76,2,5.07,3.84A2.5,2.5,0,0,1,29,81.36c-3.82,1.27-7.94.23-11.76,1.56C12.94,83.13,9.11,80.59,4.83,81Z"/><path class="g" d="M15.66,71.87c-.92,3.8-1.66,7.51-6.81,3.33-1-.85-3.69.28-5.6.5-.28,0-.55,0-.83,0s-.53-.35-.44-.58.2-.37.31-.36c-.5-1.45-1-2.9-1.52-4.35.26-.17.35-.36.29-.56s-.13-.31-.2-.32l.07-1.08a2.48,2.48,0,0,1,1.76-2.12A44.67,44.67,0,0,1,11.14,65a8.84,8.84,0,0,1,1.45.18,3.63,3.63,0,0,1,1.28.66c1,1.64,1.27,3.56,1.86,5.35C15.7,71.4,15.68,71.63,15.66,71.87Z"/><path class="c" d="M28.49,80.79,28,79c-1.39-2.58.88-3.43,2.22-4.71,3-1.82,6.1-2.43,9.28-.4,1.22,2.37,3.5,2.47,5.73,2.66-4.89,2.6-9.77,5.24-15.5,5.47C29.28,81.65,28.38,81.71,28.49,80.79Z"/><path class="h" d="M25.4,29.52c.69-4.64,5.82-5.34,7.83-8.82,3.39.77,3.08,3.85,3.86,6.24-.49,3.7-4.58,4.9-5.67,8.19-1.15,1.49-2.45,2.72-4.49,2.76a3,3,0,0,1-1.44-.66,3.07,3.07,0,0,1-.76-2.15,5.59,5.59,0,0,1,.46-2.17A3.26,3.26,0,0,0,25.4,29.52Z"/><path class="i" d="M71.26,36.91,74,38.14a4.55,4.55,0,0,0-2.38,2.77c-3.37,3.16-7.39,1-11.11,1.35-2.48-.75-4.84-1.87-7.36-2.53-2.3-.89-3.54-2.31-2.44-4.9,2.2-2.27,4.31-.48,6.44.16C61.79,36.27,66.89,33.94,71.26,36.91Z"/><path class="h" d="M6.81,47.76c.74-2.78,3-3.59,5.41-4.3l.62.39c1.58,3.45,2.09,7,.59,10.59-1.64,2-3.51,2.43-5.66.8a7.07,7.07,0,0,1-1.48-2.63c-.49-1.46.18-2.79.46-4.16Z"/><path class="a" d="M44.79,18.21c.4-.62.81-1.24,1.21-1.87.81-.41.42-1.39.91-2,2-3.39,5.26-3.23,8.54-3C56.88,14,54.13,14,53.14,15.11A2.72,2.72,0,0,0,51,17c.12,2.28-.23,4.24-3,4.64a5,5,0,0,1-2.14-.79,2.82,2.82,0,0,1-1-1.11A3.09,3.09,0,0,1,44.79,18.21Z"/><path class="i" d="M79.75,10.53c.06-2-1.69-2.49-2.83-3.49-.83-.57-2.73-.23-1.93-2.22,1.92-.53,0-6.33,4.48-3.3-.57,2.84,1.19,5,2.24,7.3L80.6,11.45c-.39.16-.8.32-1-.18C79.45,11.07,79.57,10.8,79.75,10.53Z"/><path class="c" d="M4.83,81c4.74-2.13,9,1.14,13.59,1.12.09-.68.34-1.32,1.15-.84s.69,1.25,0,1.9C14.4,84.36,9.52,83.31,4.83,81Z"/><path class="j" d="M35.9,27.31,33.23,20.7c.73-1.43,2.3-1.48,3.5-2.13V18.5c3.07,1.49,3.63,4,2.77,7A3.83,3.83,0,0,1,38.83,27C37.92,27.8,37,28.26,35.9,27.31Z"/><path class="k" d="M53.14,15.11l2.31-3.75c1.56-2.07,3.89-1.63,6-1.85C60.59,14.19,56.9,14.7,53.14,15.11Z"/><path class="h" d="M12.59,41.49c1.17-2.5,3.48-4,5.31-5.88,2-.15,3.43.54,4,2.57,0,4.1-2.1,6-6.09,6A6.92,6.92,0,0,1,12.59,41.49Z"/><path class="a" d="M69.79,51.93a3.7,3.7,0,0,0-3.1-2.5c-2.81-2.57-1.65-4.67.79-6.62a3,3,0,0,1,3.21,1C71.77,46.66,71,49.32,69.79,51.93Z"/><path class="j" d="M20.64,38.16,17.9,35.62l4.56-4.31A9.33,9.33,0,0,0,24.4,34c.32,1.62,1.56,2.88,1.76,4.55C24.08,41.52,22.3,40.61,20.64,38.16Z"/><path class="i" d="M103.88,20.07c-.6-4.91-1-9.81.37-14.67C105.52,10.33,106.05,15.23,103.88,20.07Z"/><path class="c" d="M19.61,83.14c-.14-.64-.31-1.26-1.19-1.06.52-3.73,3.16-.38,4.76-1.32,1.31-.77,3.51,0,5.31,0l1.22,1.26C26.42,83.11,23.12,84.12,19.61,83.14Z"/><path class="i" d="M75,4.82,76.92,7c-3.88-.82-8,1.26-11.75-1h0c-.34-.19-.45-.38-.33-.56s.25-.27.36-.26C68.52,6.05,71.71,4.32,75,4.82Z"/><path class="l" d="M70.69,43.79l-3.29-.22a2.24,2.24,0,0,1-2.58.45c-1.11-1.62-4.46-.84-4.2-3.92l11,.81Z"/><path class="m" d="M2.15,54.49c.23-2.49,2-4.12,3.42-5.89A2,2,0,0,1,7,49.8a18.08,18.08,0,0,1,.07,2.44,2.32,2.32,0,0,1-.42,1.07A5.61,5.61,0,0,1,5.39,54.5a3.86,3.86,0,0,1-1,.6,3.15,3.15,0,0,1-1.22.1A1.76,1.76,0,0,1,2.15,54.49Z"/><path class="m" d="M3.18,67.63l-2.25.8h0C.33,67.87.68,66.9,0,66.37l.22-1c.27-.18.37-.37.31-.58s-.13-.33-.22-.34l0-1a3.52,3.52,0,0,1,1.52-.66,2.43,2.43,0,0,1,2.48,1.87A3.29,3.29,0,0,1,3.18,67.63Z"/><path class="m" d="M1.35,63.47l-1-.07C.16,60.71,0,58,1.26,55.5c1.15-.29,1.66.42,2,1.32.12.66.21,1.34.31,2s.23,1.32.29,2a3.15,3.15,0,0,1-.33,1.27C3.05,62.9,2,62.92,1.35,63.47Z"/><path class="h" d="M23.21,34.46l-.75-3.15,1.72,1.22.31.59A1.71,1.71,0,0,1,23.21,34.46Z"/><path class="m" d="M2,57.59l-.7-2.09c.3-.34.6-.67.89-1l1.24.19.42.52a2,2,0,0,1-.6,2.39A1.32,1.32,0,0,1,2,57.59Z"/><path class="b" d="M25.4,29.52a4.48,4.48,0,0,1,1,3.21,1,1,0,0,1-1.23,0,.93.93,0,0,1,.33-1.17Z"/><path class="j" d="M12.59,41.49a3.32,3.32,0,0,1,2.69,1,1.75,1.75,0,0,1-1.13.74,1.74,1.74,0,0,1-1.7-1A1.68,1.68,0,0,1,12.59,41.49Z"/><path class="n" d="M12.45,42.29l1.87.49c.54.77.38,1.54-.43,1.83s-1.28-.59-1.82-1.08l.15-.07C12.29,43.07,12.37,42.68,12.45,42.29Z"/><path class="j" d="M6.55,49.8l-1-1.2,1.24-.84v.13A1.17,1.17,0,0,1,6.55,49.8Z"/><path class="m" d="M0,66.37l.91,2.07Z"/><path class="b" d="M25.46,31.53v1.08a.68.68,0,0,1-1-.18l-.28.1Z"/><path class="m" d="M.31,64.42a3.73,3.73,0,0,1,.11.64c0,.09-.13.19-.2.28A3.55,3.55,0,0,1,.31,64.42Z"/><path class="o" d="M65.22,5.24l0,.82a4.66,4.66,0,0,1-.26-.61S65.12,5.31,65.22,5.24Z"/><path class="p" d="M.86,69.51a.7.7,0,0,1-.09.88A3.25,3.25,0,0,1,.86,69.51Z"/><path class="q" d="M79.75,10.53l.85.92c1.82,4.7.54,7.6-4.77,7.93-1.83.11-2.22,1.05-2.16,2.56.86,2.29-.67,3.33-2.27,4.32a3.51,3.51,0,0,1-2.17.67c-2.47-1.44-4.78-1-7.11.47-4.31,2.68-5.71,2.2-8.3-2.64-.18-1.84-2.41-3.69,0-5.51A168.85,168.85,0,0,1,79.75,10.53Z"/><path class="r" d="M71.26,36.91c-4.71.16-9.49,2.62-14.12-.38-.56-1.11-1.28-2.19-.91-3.54,2.48-3.83,6.64-2.15,10-3.08.48,0,1,.1,1.42.18a3.22,3.22,0,0,1,1.15.78c.41.55.83,1.1,1.25,1.64a3.89,3.89,0,0,1,.44,1.28C70.76,34.83,71,35.87,71.26,36.91Z"/><path class="s" d="M85.28,17.05c4-1.39,8.16-.44,12.23-.8,3.65-.32,2.73,2.89,3.21,4.94l-1.28,1.07c-2.74.28-5.51.26-8.26.37-3,.11-5.88-.57-6-4.57Z"/><path class="l" d="M85.22,18.06a5.67,5.67,0,0,0,6.3,2.6,11.21,11.21,0,0,1,7.92,1.6c-2.56,2.11-5.79,2.18-8.79,2.54C86.48,25.29,84.61,22.72,85.22,18.06Z"/><path class="t" d="M67.74,31.6l-1-.14c-.56-.81-1.77-.46-2.31-1.3-.52-1.63.8-2.53,1.47-3.69.88-.83,2.2-.72,3.11-1.47l1.48-.55c2,1,5.21-.33,6,3.06-2.42.6-5.32.64-5,4.37C70.1,33.16,68.92,32.34,67.74,31.6Z"/><path class="u" d="M76.44,27.51c-2.32-.41-4.75-.56-6-3.05l3.23-2.52C77.3,22.21,78.24,24.1,76.44,27.51Z"/><path class="i" d="M67.74,31.6c1.31-.93,2.48,0,3.69.28l1.47-1.05c.43-.24.7-.13.83.35a4.66,4.66,0,0,1-3.23,2.61l-1-.17c-.48-.57-1.45-.38-1.79-1.16Z"/><path class="v" d="M73.73,31.18a5,5,0,0,0-.83-.35c.35-.63.8-.74,1.36-.27Z"/><path class="t" d="M39.48,73.92c-2,4.1-5.46.59-8.07,1.55a2.52,2.52,0,0,1-1.09-.87,9.44,9.44,0,0,1-.95-4c.57-2.39-1.21-5.19,1.22-7.28a7.55,7.55,0,0,1,7.31-1.88c3.07.57,3.78,2.46,2.44,5C39.26,68.45,40,69.77,41.49,71a2.54,2.54,0,0,1,.33,1.3Z"/><path class="w" d="M61.27,57.06c-1.86,3.18-4,6.06-7.58,7.5-4.34-.52-4.55-.91-3.06-5.74,1.36-1.58,2.87-3,4.25-4.57s3.36-1.63,5.26-.61A2.76,2.76,0,0,1,61.27,57.06Z"/><path class="x" d="M41.82,72.34l-1-.14c-2.6-5.91-1.44-7.3,6.56-7.84a2.77,2.77,0,0,1,2.42,2c-.45,2.45-3.18,3.26-4,5.48-.08.24-.15.48-.23.73h0C44.37,72.43,43.05,73.13,41.82,72.34Z"/><path class="y" d="M49.25,67l-1.89-1.19c-3.5-.55-4.71-2.1-2.29-5.24,2.26-1,4.45-3.63,6.91-.3-1.3,2.17.17,3.26,1.71,4.31a7.68,7.68,0,0,1-.41.74C52.3,66.74,51.38,68.3,49.25,67Z"/><path class="z" d="M49.25,67a5.88,5.88,0,0,1,4-1.68c.39,1,1.11,2.85-.11,2.9-3.13.13-4.37,3.52-7.3,3.65C45.78,69.38,47.2,68,49.25,67Z"/><path class="aa" d="M61.27,57.06c-1.12-.44-1.22-1.28-.92-2.28-1.07-1.73-1-3.3.64-4.66a4.21,4.21,0,0,1,3.47-.54,2.29,2.29,0,0,1,1.09,1.73C64.75,53.69,64.34,56.37,61.27,57.06Z"/><path class="c" d="M65.55,51.31l-.72-1c-1.63-.63-3.31-1.2-3.74-3.22,0-1.63,1.23-2.68,1.91-4,.76-.66,1.56-1.22,2.63-.68l1.77,1.18c-.86,1.88-.75,3.87-.71,5.86Z"/><path class="ab" d="M45.64,72.58h0Z"/><path class="ac" d="M53.85,19.25l1.47,5.07c-2.42,3.57-4,3.6-8.64.15a3,3,0,0,1-.57-1.42,2.83,2.83,0,0,1,.8-2.1l.69-.36C48.74,19.38,49.88,18.16,51,17Z"/><path class="ad" d="M24.22,76.67c-4.06.55-5.87-2.91-8.56-4.8l0,0c-1-5.06,3.27-3.79,5.71-4.73,3.3.45,4,2.72,3.9,5.56C25.39,74.12,25.42,75.56,24.22,76.67Z"/><path class="ae" d="M24.22,76.67l-.59-4a2.45,2.45,0,0,1,1.22-.69,14.36,14.36,0,0,1,6.63,2.36c0,.39-.05.78-.07,1.17C31,77.35,28.5,77.24,28,79,26.71,78.27,26.24,76.22,24.22,76.67Z"/><path class="s" d="M8.29,54.17c1.54.89,2.63-.15,3.79-.88,3.12-2.06,5.62-1.36,7.58,1.72a2.81,2.81,0,0,1-1.24,2.83,8.62,8.62,0,0,0-2.69,5.09,4.51,4.51,0,0,1-3.59,3.56l-1-.08c-5.06.17-3.68-4.19-4.78-6.8a13.88,13.88,0,0,0,.94-4.54A2.14,2.14,0,0,1,8.29,54.17Z"/><path class="af" d="M12.14,66.49a10.31,10.31,0,0,0,1.93-5.89c.06-2,.73-3.47,3-3.7,3.25,1,4.73,3.43,5.3,6.59-.48,1.66-2.14,2-3.28,2.86-1.95,1.1-3.85,3.64-6,.27Z"/><path class="af" d="M7.77,59.11c2.69,1.7,1.2,5.35,3.38,7.3-2.43,1.89-5.37.47-8,1.22.08-.93.15-1.87.22-2.8.46-1.57.22-3.33,1.28-4.74C5.54,59.23,6.35,58.21,7.77,59.11Z"/><path class="m" d="M13.05,66.62C15.86,68,15.77,64.56,17.39,64c.71,1,1.82,1.13,2.85,1.52,1.44.54,2,1.5.76,2.85-1.6,1.45-4.41,1-5.36,3.49A4.81,4.81,0,0,1,13.05,66.62Z"/><path class="h" d="M38,25.72a10.65,10.65,0,0,0-1.31-7.22l6,.77c1.38,1.12,1.23,2.55.81,4C42.1,25.09,41.09,27.73,38,25.72Z"/><path class="h" d="M42.21,23.19c.16-1.31.31-2.61.46-3.92l1.26-.79c.59.35,1.33.4,1.83.92l0-.06c1.11,1.26.43,2.52,0,3.78A3.61,3.61,0,0,1,45,24.26a2.36,2.36,0,0,1-1.93.5C42.4,24.45,42,24,42.21,23.19Z"/><path class="j" d="M45.76,19.4l-1.83-.92.86-.27Z"/><path class="e" d="M35.9,27.31l2-.68c3.38.34,2.16,2.84,2.23,4.73-.11,1.92.74,3.85,0,5.77a22.3,22.3,0,0,0-2.67,4.67c-1,3.05-3,4-6,3.86a5.79,5.79,0,0,1-2.2-.58c-2-1.81-1.77-4-1-6.21.61-1.61,2.66-2.69,1.78-4.85C29.46,29.57,32.68,28.44,35.9,27.31Z"/><path class="ag" d="M30,34c1.35,1.08,3.23,2.06,3,4s-2.18.48-3.24,1c-1.36.74-2.31.19-3.08-.95A1.09,1.09,0,0,1,27,36.74Z"/><path class="j" d="M27,36.74l-.18.87a.53.53,0,0,1-.92,0,5,5,0,0,1-2.64-3.18l1.25-2,1,.18a6.57,6.57,0,0,1,.89.12c-.05.58-.1,1.17-.16,1.75a1.58,1.58,0,0,0-.28,2.12Z"/><path class="n" d="M25.92,36.6a1.64,1.64,0,0,1,.28-2.12C26.11,35.19,26,35.89,25.92,36.6Z"/><path class="h" d="M29.3,43.92l2,.32c3.79,1.58,5.73-.05,5.8-3.79,0-2.93,1.64-3.16,3.82-3,3.08-.59,1.21-3.41,2.21-4.94,1.2-1.39,2.4-2.78,4.39-3,2.87.72,4.27,2.46,3.71,5.5-.2,2.06,2.46,1.54,2.81,3.1.4.81,1.45,1.15,1.58,2.16.25,2.25-2.83,2.75-2.61,5-.06.44-.13.87-.19,1.31-.29,1.57-.36,3.21-1.68,4.38-4.22.67-4.17.72-7.59,4.46-.91,1-1.48,2.19-2.41,3.13a2.93,2.93,0,0,1-1.31.48c-3.55-.79-7-1.54-8.48-5.69-.57-1.58-2.45-2.6-4.1-3.41-1.9-.94-3.3-2.18-3-4.57C25.34,42.78,27.22,43,29.3,43.92Z"/><path class="ah" d="M51.23,35l-3.67-3.89c-.21-.95-1.34-.91-1.77-1.63a3.86,3.86,0,0,1-.23-3.25,3,3,0,0,1,1.83-2.61c2.58.94,5.27.59,7.93.69,2.09,2.69,4.2,3.41,7.27,1,1.69-1.31,4.16-2,6.37-.35a4.38,4.38,0,0,1-2.08,2.51c-2.49,2.07-5.52,2.75-8.58,3.33-.63.81-1.46,1.55-1,2.75a2.93,2.93,0,0,1-.15,2.93C55.09,36.32,53.46,34.53,51.23,35Z"/><path class="ai" d="M54.89,40.35,54,38.11l6.58,2c1.33,1.49,3.95.19,5,2.29l-1.19,1.9a9.71,9.71,0,0,1-3,1,18.31,18.31,0,0,1-4.73-.39C54.1,44.2,55.12,42,54.89,40.35Z"/><path class="aj" d="M29.3,43.92c-.85,1.9-3,.54-4.17,1.69-.95,1.58-.09,3.17,0,4.75.23,4-1.8,6.37-6,7a.85.85,0,0,1-.29-.82c.06-.3.13-.45.21-.44-2.07-1.6-4.55-2.19-7-2.86.77-3.25-1.86-6.5,0-9.76.87.12,1.78.33,2.25-.75a8,8,0,0,1,1-.26c2.65-.38,4.28-2,5.36-4.36,1.74-.13,3.64,1.25,5.21-.52.31,0,.62,0,.92,0l3,1.38C33.48,41,28.86,42.22,29.3,43.92Z"/><path class="j" d="M8.29,54.17l-.12.89a5.35,5.35,0,0,1-.83.74,3.2,3.2,0,0,1-1.09.33c-.2,0-.39,0-.59,0a2.73,2.73,0,0,1-1.1-.38,2.16,2.16,0,0,1-.68-.92,1,1,0,0,1,.28-1l.32-.26a1.3,1.3,0,0,1,1-.76l.89.1c.35-.32.47-.91,1.09-.9Z"/><path class="j" d="M7.49,52l-1.09.9.15-3.09c.09-.64.17-1.28.26-1.91A6.47,6.47,0,0,1,7.49,52Z"/><path class="ak" d="M44.37,22.39c.46-1,.91-2,1.36-3.05l1.87,1.25,0,0c-.84.54-.48,1.79-1.35,2.32A1.77,1.77,0,0,1,44.37,22.39Z"/><path class="al" d="M47,26.52l-.19,2.89c-2.44,2-4.27,5.55-8.39,3.33.16-2.07.58-4.16-.55-6.11,0-.31.11-.61.17-.91l4.18-2.53.88,1.11c.61,0,1.23,0,1.84.06l.56.24L46,25A7.5,7.5,0,0,0,47,26.52Z"/><path class="m" d="M5.51,52.79c-.35.25-.69.51-1,.77C4.54,52.93,4.82,52.58,5.51,52.79Z"/><path class="m" d="M4.16,53.81a5.89,5.89,0,0,1,0,.84.61.61,0,0,1-.92.13l.14-.1Z"/><path class="i" d="M5.5,60.87l-2.1,4-2-1.36,1.19-1.89c.57-.56,1-1.26,2-1.3A1.43,1.43,0,0,1,5.5,60.87Z"/><path class="m" d="M4.63,60.78l-2.09.8c0-.29,0-.57-.07-.86l.23-.62a2.1,2.1,0,0,1,1-.8,1.68,1.68,0,0,1,1.21.38A.82.82,0,0,1,4.63,60.78Z"/><path class="m" d="M2,57.59a5.38,5.38,0,0,1,.7-.28,1,1,0,0,1,.82.7A1.9,1.9,0,0,1,2.9,59.6a.78.78,0,0,1-1-.14Z"/><path class="m" d="M1.87,59.46q.41.09.81.15l.5.43-.47.45-.24.23Z"/><path class="m" d="M3.24,54.78a5.66,5.66,0,0,0,.92-.13l1,.18.38.46.33.5a2.19,2.19,0,0,1-.19,1.77,2,2,0,0,1-1.6.79,2.14,2.14,0,0,1-1.07-.59l-.4-.45C2.85,56.47,3.05,55.62,3.24,54.78Z"/><path class="am" d="M57.29,33.6c-3.17-.94,0-2.72-.53-4,2.58.75,5.38-1.43,7.87.58l2.06,1.29C63.52,32,60.29,32.31,57.29,33.6Z"/><path class="an" d="M67.68,32.46l1.79,1.16Z"/><path class="i" d="M64.63,30.17c-2.6-.48-5.41,1.74-7.87-.58,3.06-2.21,6.87-.8,10.12-2.07C66.74,28.92,65.56,29.44,64.63,30.17Z"/><path class="ao" d="M21,68.34c-.48-2-3.55-2-3.61-4.37l4.08-.62c1.75-2.06-2-3.23-.84-5.22,5.3-3.93,7.46-3.51,11,2.11a3.72,3.72,0,0,1-.18,4.05c-.57,2,1.47,4.15-.54,6-1,3.64-3.86,2.45-6.27,2.42l-1-.06C23.65,70.65,22.28,69.52,21,68.34Z"/><path class="ap" d="M45.73,61.62c-.78,1.9.24,3.1,1.63,4.17-3.86.42-7,1.58-6.52,6.41l-4.33-1.88c0-2.74,4.75-4.5,1.05-7.51-1.84-2.05-.69-3.5.95-4.86A1.22,1.22,0,0,1,40,58h0c2,.07,3.6-3.08,5.85-.67C47.62,58.84,48.1,60.29,45.73,61.62Z"/><path class="k" d="M39,58c-.49,1.61-1,3.22-1.48,4.84l-6.14,1.48-.71-3.06C32.07,57,33.14,56.54,39,58Z"/><path class="ad" d="M24.61,72.69c.88-3.94,4.39-1,6.27-2.42l.6,4C28.87,75.15,26.69,74.13,24.61,72.69Z"/><path class="f" d="M45.73,61.62a2.31,2.31,0,0,0-.81-3.15c-1.47-4.16,1.56-6,4.39-7.09,1.95-.77,3.85-1.88,6-2.3,2.16.87,5.37-1.64,6.65,2.06-.53,1.21-1,2.43-1.58,3.64-4.26-.42-4.89,4.71-8.38,5.47C49.72,59.91,47.85,61.33,45.73,61.62Z"/><path class="aq" d="M61.93,51.14l-7.2-.67a2.19,2.19,0,0,1-2.87,0C51.11,47.57,53.7,48,55,47.26c2.42,1.25,4.71-2.69,7.16-.17l2.64,3.18Z"/><path class="g" d="M62.19,47.09c-2.15.16-3.64,3-6.2,1.54a2.51,2.51,0,0,1-.71-2.17c1.17-3,4.3-1.14,6.15-2.45l3,.28Z"/><path class="j" d="M45.07,25.43l-1-.21a1.28,1.28,0,0,1,.22-1.87l.09-1,2,.11c.31-.66.61-.66.91,0l.06,1.12c-.13,1-.27,1.93-.4,2.89l-1.91-1.07.34-.25Z"/><path class="i" d="M47.33,22.51c-.31,0-.61,0-.91,0,.16-.79.19-1.67,1.2-1.93C47.52,21.22,47.43,21.86,47.33,22.51Z"/><path class="n" d="M20.87,59.27A11.6,11.6,0,0,1,23.69,61c.55.63,1.06,2.07.72,2.59-.85,1.31-2,.08-2.94-.27L17,56.9l2.06-.75c0,.3,0,.6,0,.9A3.17,3.17,0,0,1,20.87,59.27Z"/><path class="g" d="M4.63,60.78c0-.31,0-.63.1-.94a1.12,1.12,0,0,1-.41-1A3.83,3.83,0,0,0,5.5,56.16a1.46,1.46,0,0,1,.67-.92,5.05,5.05,0,0,0,.12-.56.76.76,0,0,1,.94.34,5.92,5.92,0,0,0,.94,0c1.69,3.33,1.69,3.33-.4,4L5.5,60.87Q5.06,60.84,4.63,60.78Z"/><path class="i" d="M44.29,23.35c-.07.63-.15,1.25-.22,1.87l-1-.92Z"/><path class="ar" d="M41.63,41.14c-.59-.3-1.19-.58-1.76-.91-.42-.25-.79-.58-1.21-.89-2.27,2,2.54,5.69-1.87,7.29-2.84,1-3.7-1.54-5.49-2.39a5.51,5.51,0,0,0,5-4,8.57,8.57,0,0,1,2.9-4.33,1.41,1.41,0,0,1,1.38-.07C41.78,37.45,42.78,39.07,41.63,41.14Z"/><path class="as" d="M40.13,36.05l-1-.11c-2.91-.45-1.46-1.91-.75-3.2l8.39-3.33c.26.57.51,1.14.76,1.71l-3.23,2.17C43.11,34.48,43.33,37.87,40.13,36.05Z"/><path class="ar" d="M20.87,59.27l-1.8-2.22c1.84-2.19,3.69-4.3,3.53-7.52a4.39,4.39,0,0,1,2.53-3.92c2.22,2.32,6.27,1.23,8.11,4.37.24.42,1.41.53,1.25,1.24-1.08,4.7,3,5.07,5.54,6.78q-.49,0-1,0a19.54,19.54,0,0,0-8.33,3.26C27.94,58,24.75,56.89,20.87,59.27Z"/><path class="ar" d="M51.86,50.13l2.87.34c-3.32,2.6-7.1,4.64-9.81,8-1.54-.86-3.32.64-4.84-.48,1.16-2.75-2.74-2.58-2.6-5.17.68-1.41,5.22,4.45,4-1.51,4.85,0,1.89-3.23,1.9-5.78,2.74,1.73,4,5.2,7.46,4.51C51.22,49.65,51.56,49.7,51.86,50.13Z"/><path class="h" d="M40.13,36.05l4.21-2.76c3.13,4-1.5,5.34-2.71,7.85Z"/><path class="at" d="M54.89,40.35c1.13.77,1.12,2.06,1.49,3.18-.92,3.08-3,2.33-5.08,1.53C48.88,40.73,54.18,42.29,54.89,40.35Z"/><path class="at" d="M51.86,50.13l-1-.09c.14-1.33-1.72-2.88.43-4,1.74-.85,3.4-1.07,4.88.52-.06.69-.11,1.37-.17,2.06Z"/><path class="v" d="M56.16,46.57l-4.88-.52c0-.33,0-.66,0-1l5.08-1.53,5,.48Z"/><path class="m" d="M6.17,55.24a2.73,2.73,0,0,0-.07.64c-.26.43-.57.5-.95.14l.06-1.19Z"/><path class="m" d="M7.23,55l-.94-.34Z"/><path class="m" d="M4.78,58.87c0,.33,0,.65,0,1l-.5-.05h-.5a.65.65,0,0,1-1-.15l0,0c.13-.61.26-1.23.38-1.85l1,0A1.56,1.56,0,0,1,4.78,58.87Z"/><path class="m" d="M2.7,59.63l1,.15-1,.72A8.42,8.42,0,0,1,2.7,59.63Z"/><path class="m" d="M4.78,58.87l-.69-1.16.77-1a.66.66,0,0,1,.3-.91V56a4.36,4.36,0,0,0,.95-.14C6,57,6,58.21,4.78,58.87Z"/><path class="m" d="M5.16,55.78a1.37,1.37,0,0,1-.3.91Z"/><path class="au" d="M45.07,25.43l.43-.59-.42.61Z"/></svg>