<svg xmlns="http://www.w3.org/2000/svg" viewBox="0 0 163.72 242.79"><defs><style>.a{fill:#eae9f0;}.b{fill:#424242;}.c{fill:#d0d5dd;}.d{fill:#4f4646;}.e{fill:#332c2a;}.f,.g{fill:none;stroke-miterlimit:10;}.f{stroke:#525151;}.g{stroke:#424242;}</style></defs><title>Asset 47</title><polygon class="a" points="163.22 161 163.22 224.37 153.44 224.37 146.93 218.68 114.02 218.68 104.57 229.69 104.57 157.43 157.68 154.16 163.22 161"/><path class="b" d="M149.15,116.85l.08,0c-.83,5.91-.87,12-2.81,17.17-.74,2-5.81,2-9.4,3.08,0-.1,0-.21,0-.31C136,125.5,139.38,119.2,149.15,116.85Z" transform="translate(0 -0.25)"/><path class="b" d="M140.77,91.11c1.86,6.15.73,7.06-8.64,6.59V92Z" transform="translate(0 -0.25)"/><path class="a" d="M142.5,224.62l-23.26,2v8.62l23.26-1.61Zm20.72,0v11.46l-4.89,3.21-53.76,3.22V230l9.45-11h32.91l6.51,5.69Z" transform="translate(0 -0.25)"/><path class="b" d="M119.24,226.66l23.26-2v9l-23.26,1.61Z" transform="translate(0 -0.25)"/><path class="a" d="M114,140.74v7.5c-3.81.73-7.11,1.19-9.71,1.49-3.16.37-5.62.54-7,.63-3.7.24-6.49.3-7.38.31-1.71,0-3.17,0-4.27,0l-.13,0c-.3-2-.88-4.19,0-5.37a16,16,0,0,0,2.19-4.15c1.29.1,2.62.18,4,.25l3.21.15.2.26c3.1.38,5.57.95,8,.89a58,58,0,0,0,7.69-1.15Z" transform="translate(0 -0.25)"/><polygon class="a" points="104.57 157.43 104.57 229.69 90.24 229.69 90.24 155.84 104.57 157.43"/><polygon class="a" points="96.43 236.43 97.08 242.25 74.68 239.03 87.31 235.03 96.43 236.43"/><path class="b" d="M110.83,141.57a58,58,0,0,1-7.69,1.15c-2.46.06-4.93-.51-8-.89l-.2-.26c-2.26-3-3.85-6.22,0-10.5l.21,1.06C95.43,143.63,104.93,139,110.83,141.57Z" transform="translate(0 -0.25)"/><path class="b" d="M95.11,132.13l-.21-1.06c.06-.08.14-.16.21-.24C95.1,131.28,95.1,131.72,95.11,132.13Z" transform="translate(0 -0.25)"/><path class="b" d="M93.55,124.37l1.35,6.7c-3.84,4.28-2.25,7.5,0,10.5l-3.21-.15c-1.38-.07-2.71-.15-4-.25,1.61-4.52,1.2-9.33,1.49-14.08a8.26,8.26,0,0,1,.65-1.8c.64,1.88,1.14,3.32,1.63,4.76l1.08-.18c.13-1.71.26-3.42.42-5.38Z" transform="translate(0 -0.25)"/><path class="b" d="M90.25,123.77l2.72.72c-.16,2-.29,3.67-.42,5.38l-1.08.18c-.49-1.44-1-2.88-1.63-4.76Z" transform="translate(0 -0.25)"/><path class="a" d="M132.13,97.7c9.37.47,10.5-.44,8.64-6.59l-8.64.91Zm-37,33.13c-.07.08-.15.16-.21.24l-1.35-6.7L93,121.52l-4-1.65V13l2-2,1.52-1.54.12-.12H142.5l1.65,3.7L149.1,24.1v92.53l.05.22C139.38,119.2,136,125.5,137,136.77H96.05l-.94-4.65C95.1,131.72,95.1,131.28,95.11,130.83Z" transform="translate(0 -0.25)"/><path class="b" d="M60.87,134.83a52,52,0,0,0-5.3-.62c-3.09-.16-4.59-1.38-5.31-4.53-2.76-12-2.86-12-15.19-12.9l-6.71-.45c0-7.82,0-15.28,0-22.73C28.27,75,28.21,56.3,28,37.65c0-3.25,1.13-5,3.61-7.29,8.77-8.2,19.89-6.36,30.13-8.21a129.54,129.54,0,0,1,17-1.74c-5.88,2.74-4.92,7.55-4.89,12.33.17,27.48.12,55,.22,82.44,0,.64-.08,1.33-.11,2-.1,1.8.17,3.5,3.38,3.89,1,.12,1.42,4.22,2.12,6.53.18-1.76.37-3.68.66-6.52l10.12,2.68-.41,1.52a8.26,8.26,0,0,0-.65,1.8c-.29,4.75.12,9.56-1.49,14.08a16,16,0,0,1-2.19,4.15c-.86,1.18-.28,3.4,0,5.37.06.44.11.86.13,1.26H70.56c4.06-4.3,3.56-11.28,11.34-10.77-1.49-2.83-2.71-5.15-3.9-7.43l-11,5.54c.33,3.14.67,6.35,1,9.91-3.6.07-5.12-2.12-5.4-5-.26-2.67.24-5.41.47-9C62.58,135.11,61.79,135,60.87,134.83Z" transform="translate(0 -0.25)"/><polygon class="a" points="90.24 155.84 90.24 229.69 104.57 229.69 104.57 242.25 97.08 242.25 96.43 236.43 87.31 235.03 87.31 155.84 90.24 155.84"/><polygon class="a" points="87.31 155.84 87.31 235.03 74.68 239.03 74.59 153.81 87.31 155.84"/><path class="b" d="M93,121.52l.58,2.85-.58.12-2.72-.72-10.12-2.68c-.29,2.84-.48,4.76-.66,6.52-.7-2.31-1.17-6.41-2.12-6.53-3.21-.39-3.48-2.09-3.38-3.89l15,1.73v1Z" transform="translate(0 -0.25)"/><path class="a" d="M78.88,20.31l2.19-1.58L88.92,13V118.92l-15-1.73c0-.68.11-1.37.11-2-.1-27.48,0-55-.22-82.44,0-4.78-1-9.59,4.89-12.33Z" transform="translate(0 -0.25)"/><path class="c" d="M84.67.27c3.62.26,6.83,4,7.79,9.18L90.94,11l-.35-.35c-.58-4.16-3-7.18-5.69-7.38-2.19-.16-4.34,1.52-5.42,4.28a11.92,11.92,0,0,0,1.36,10.87l.23.32-2.19,1.58A15.48,15.48,0,0,1,77.14,6C78.64,2.3,81.63.05,84.67.27Z" transform="translate(0 -0.25)"/><path class="a" d="M74.59,154.07,61.31,152H85.66c0-.4-.07-.82-.13-1.26l.13,0c1.1,0,2.56,0,4.27,0,.89,0,3.68-.07,7.38-.31,1.38-.09,3.84-.26,7-.63,2.6-.3,5.9-.76,9.71-1.49v0l29,1.9,14.65,4.23-53.11,3.26L90.24,156.1H87.31Z" transform="translate(0 -0.25)"/><path class="d" d="M65.52,164.77a6.13,6.13,0,1,1-6.13,6.13A6.12,6.12,0,0,1,65.52,164.77Zm2.29,6.13a2.29,2.29,0,1,0-2.29,2.29A2.29,2.29,0,0,0,67.81,170.9Z" transform="translate(0 -0.25)"/><circle class="e" cx="65.52" cy="170.64" r="2.29"/><path class="d" d="M56.62,185.69a8.9,8.9,0,1,1-8.9,8.9A8.91,8.91,0,0,1,56.62,185.69Zm3.33,8.9a3.33,3.33,0,1,0-3.33,3.33A3.33,3.33,0,0,0,60,194.59Z" transform="translate(0 -0.25)"/><path class="b" d="M61.26,150l-.39-15.18c.92.15,1.71.28,2.29.36-.23,3.62-.73,6.36-.47,9,.28,2.86,1.8,5.05,5.4,5-.37-3.56-.71-6.77-1-9.91l11-5.54c1.19,2.28,2.41,4.6,3.9,7.43-7.78-.51-7.28,6.47-11.34,10.77H61.31l0-1.07v0A3,3,0,0,0,61.26,150Z" transform="translate(0 -0.25)"/><path class="a" d="M61.31,152l13.28,2.12.09,85.22L45.61,232,44,212.74l-.33-38.12,2.85-3.78,8.42-11.17.3.78a3.24,3.24,0,0,1,0-1.16c.54-3.19,5.74-5,6.07-8.41Zm10.34,19A6.13,6.13,0,1,0,65.52,177,6.12,6.12,0,0,0,71.65,170.9Zm-6.13,23.69a8.9,8.9,0,1,0-8.9,8.9A8.91,8.91,0,0,0,65.52,194.59Z" transform="translate(0 -0.25)"/><path class="b" d="M61.26,150a3,3,0,0,1,0,.84Z" transform="translate(0 -0.25)"/><path class="e" d="M56.62,191.27a3.33,3.33,0,1,1-3.33,3.32A3.33,3.33,0,0,1,56.62,191.27Z" transform="translate(0 -0.25)"/><path class="b" d="M54.92,159.67c-.68-1.8-1.35-3.59-2-5.38l.75-.37,1.76,2.73c2.12-3.38,3.6-5.72,5.25-8.36a4.7,4.7,0,0,1,.61,1.72l0,.84v0c-.33,3.39-5.53,5.22-6.07,8.41Z" transform="translate(0 -0.25)"/><path class="b" d="M55.22,160.45l-.3-.78.29-.38A3.24,3.24,0,0,0,55.22,160.45Z" transform="translate(0 -0.25)"/><path class="a" d="M52.89,154.29c.68,1.79,1.35,3.58,2,5.38L46.5,170.84l-8.12-3.63,3-9.53v-8.41l12.27,4.65Z" transform="translate(0 -0.25)"/><polygon class="b" points="43.98 212.49 45.61 231.71 38.76 229.57 38.76 212.49 43.98 212.49"/><polygon class="a" points="0.65 159.38 10.09 136.53 41.37 148.03 41.37 149.01 41.37 157.43 38.38 166.96 37.79 168.82 31.92 172.44 0.65 159.38"/><path class="f" d="M74,117.19c-.1,1.8.17,3.5,3.38,3.89,1,.12,1.42,4.22,2.12,6.53.18-1.76.37-3.68.66-6.52l10.12,2.68,2.72.72c-.16,2-.29,3.67-.42,5.38l-1.08.18c-.49-1.44-1-2.88-1.63-4.76a8.26,8.26,0,0,0-.65,1.8c-.29,4.75.12,9.56-1.49,14.08" transform="translate(0 -0.25)"/><polyline class="g" points="149.1 116.38 149.1 23.84 144.15 12.78 142.5 9.07 92.58 9.07 92.46 9.2 90.94 10.73 88.92 12.78 88.92 118.67 88.92 119.61 92.97 121.27 93.55 124.11 94.9 130.81 95.11 131.88 96.05 136.53 136.83 136.53"/><polygon class="g" points="104.57 242.25 104.57 229.69 104.57 157.43 157.68 154.16 163.22 161 163.22 224.37 163.22 235.82 158.33 239.03 104.57 242.25"/><polyline class="g" points="163.22 224.37 153.44 224.37 146.93 218.68 114.02 218.68 104.57 229.69 90.24 229.69 90.24 155.84 104.57 157.43"/><polyline class="g" points="87.31 155.84 74.59 153.81 61.31 151.69 70.56 151.69"/><polygon class="g" points="38.38 166.96 37.79 168.82 31.92 172.44 0.65 159.38 10.09 136.53 41.37 148.03 41.37 149.01 41.37 157.43 38.38 166.96"/><line class="g" x1="5.86" y1="153.77" x2="35.51" y2="164.9"/><polyline class="g" points="157.68 154.16 143.03 149.94 114.02 148.03 114.02 147.99 114.02 140.49 110.83 141.31 98.06 140.49"/><path class="g" d="M85.66,150.67c1.1,0,2.56,0,4.27,0,.89,0,3.68-.07,7.38-.31,1.38-.09,3.84-.26,7-.63,2.6-.3,5.9-.76,9.71-1.49" transform="translate(0 -0.25)"/><polyline class="g" points="74.59 153.78 74.59 153.81 74.68 239.03 45.61 231.71 43.98 212.49 38.76 212.49 38.76 229.57 38.76 229.69"/><polyline class="g" points="90.24 155.84 87.31 155.84 87.31 235.03 74.68 239.03 97.08 242.25"/><polyline class="g" points="78.75 20.16 78.88 20.05 81.07 18.48 88.92 12.78"/><polyline class="g" points="68.09 116.25 73.97 116.94 88.92 118.67"/><polyline class="g" points="43.98 212.49 43.65 174.37 46.5 170.59 54.92 159.41 55.21 159.03 55.4 158.78"/><polyline class="g" points="60.48 119.61 60.87 134.57 61.26 149.75 61.28 150.59 61.28 150.63 61.31 151.69"/><line class="g" x1="41.37" y1="149.01" x2="53.64" y2="153.66"/><polyline class="g" points="38.37 166.96 38.38 166.96 46.5 170.59 47.23 170.91"/><path class="g" d="M103.14,141.74c-2.57,0-5.32-.06-8.23-.17l-3.21-.15c-1.38-.07-2.71-.15-4-.25l-1.09-.08" transform="translate(0 -0.25)"/><polyline class="g" points="38.57 229.51 38.76 229.57 45.61 231.71 47.04 232.16"/><line class="g" x1="143.03" y1="96.17" x2="144.15" y2="12.77"/><polyline class="g" points="87.31 235.03 96.43 236.43 97.08 242.25 104.57 242.25"/><path class="f" d="M60,194.59a3.33,3.33,0,1,1-3.33-3.32A3.33,3.33,0,0,1,60,194.59Z" transform="translate(0 -0.25)"/><circle class="f" cx="65.52" cy="170.64" r="2.29"/><path class="g" d="M92.46,9.45c.05.22.09.44.12.67" transform="translate(0 -0.25)"/><path class="g" d="M79,20.5l-.14-.19" transform="translate(0 -0.25)"/></svg>