<svg xmlns="http://www.w3.org/2000/svg" viewBox="0 0 68.46 27.84"><defs><style>.a,.c{fill:none;}.a,.b{stroke:#919191;}.a,.b,.c{stroke-miterlimit:10;}.b{fill:#919191;}.c{stroke:#6b6b6b;stroke-width:0.25px;}</style></defs><title>Asset 65</title><polygon class="a" points="38.35 4.68 18.14 18.3 4.36 24.83 15.45 14.32 35.66 0.69 38.35 4.68"/><polygon class="b" points="21.84 15.84 10.1 23.76 1.55 26.76 7.41 19.78 19.15 11.86 21.84 15.84"/><path class="c" d="M68.38,14.05A47.53,47.53,0,0,0,50.55,2.71C46.87,1.43,41.11-.49,37.28,2c-.55.36-1.51,1.12-3.42,2.64a61.17,61.17,0,0,1-5.18,4c-1.76,1.11-1.71.8-3.8,2.1a44.26,44.26,0,0,0-4.37,3.13A14.23,14.23,0,0,1,17,16.17a18.69,18.69,0,0,0-3.55,2.4c-1.17.94-1.43.92-2.87,2a25.72,25.72,0,0,1-3.05,2.26,35.27,35.27,0,0,0-3.15,2"/></svg>