<svg xmlns="http://www.w3.org/2000/svg" viewBox="0 0 94.9 59.47"><defs><style>.a{isolation:isolate;}.b{opacity:0.5;mix-blend-mode:overlay;}.c{fill:#6b6b6b;}</style></defs><title>Asset 71</title><g class="a"><g class="b"><path class="c" d="M20.94,7.07c-1,2.83-1.87,5.68-1.61,8.72.18,2.14.19,4.33,1.1,6.34.61,1.36,1.32,2.68,2.06,4,.54.95,1.2,1.82,1.8,2.73a10.4,10.4,0,0,0,5.49,3.87,29.11,29.11,0,0,0,4,.58,40.81,40.81,0,0,0,7.81.35c2,0,4.06.27,6.08.43,1,.07,2,.21,3,.22,5.81.07,11.63.15,17.44.14,3.19,0,6.39-.18,9.58-.24.94,0,1.88.12,2.82.19.46,0,.92.07,1.38.07a1.45,1.45,0,0,0,1.42-1.13,1.77,1.77,0,0,0,.12-.78c-.31-3.2-.29-6.44-1.47-9.51A14.69,14.69,0,0,0,77,17c-2-1.56-3.9-3.12-5.91-4.59-1.27-.92-2.67-1.67-4-2.49s-2.52-1.55-3.79-2.29A46.39,46.39,0,0,0,52.57,3C49,2,45.48,1.05,41.88.32a21.3,21.3,0,0,0-5.7-.24,34.05,34.05,0,0,0-6.28,1,16.09,16.09,0,0,0-9,6Z"/><path class="c" d="M24.31,43.29c-.74,1.15-1.49,2.27-2.21,3.41a11,11,0,0,0-1.46,5.19,2,2,0,0,0,1.43,1.83,29.24,29.24,0,0,1,8.23,3.57,7.06,7.06,0,0,0,2.39.82c1.47.28,3,.43,4.45.64a3.74,3.74,0,0,1,1.07.16,7.14,7.14,0,0,0,3.91.44,22.36,22.36,0,0,1,2.59,0c2.93,0,5.86-.15,8.79-.14,2.29,0,4.57.16,6.86.24.24,0,.48,0,.72,0,.91,0,1.82,0,2.72,0A5.8,5.8,0,0,0,66.57,59q3.39-1.38,6.8-2.73c1.59-.63,3.21-1.21,4.79-1.86,2.26-.93,3.36-2.85,4.06-5a27.73,27.73,0,0,0,1.22-7.73c0-1.72-.43-2.48-2.27-3.19a9.6,9.6,0,0,0-2.94-.63c-4.28-.21-8.56-.44-12.85-.48-9.91-.09-19.82-.07-29.73-.09-.61,0-1.21.11-1.81.07-1.37-.07-2.72-.24-4.08-.29C27.92,37,26.08,37,24.24,37c-.7,0-1.4-.07-2.1,0a14.7,14.7,0,0,0-1.83.34,2,2,0,0,1-.42.07c-1.17-.1-2.34-.22-3.51-.29-.63,0-.95.23-1.14.93A23.24,23.24,0,0,1,14,40.92c-.3.69-.66,1.35-.91,2.06-.46,1.31-.16,2,1.18,2.82a2.32,2.32,0,0,0,2.95-.19,14.79,14.79,0,0,0,1-1.2,5.33,5.33,0,0,1,.4-.42c.38-.37.76-.76,1.17-1.1s.62-.55.86-.5C21.9,42.62,23.08,43,24.31,43.29Z"/><path class="c" d="M1.57,20.78l1-1c.07.94.11,1.81.2,2.67a7.11,7.11,0,0,1-1.2,4.4A8,8,0,0,0,0,30.9a1.55,1.55,0,0,0,.44,1,6.23,6.23,0,0,1,2.44,5.47,14,14,0,0,0,0,1.45,3.49,3.49,0,0,0,.87,2.33c.41.49.82.73,1.43.25a.78.78,0,0,1,.68,0,6.65,6.65,0,0,1,1,.83,2.32,2.32,0,0,0,3.33.13,38.38,38.38,0,0,0,2.73-3.09,3.08,3.08,0,0,0,.38-.93c.23-.66.44-1.33.65-2a3.28,3.28,0,0,0-.42-2.58,11.16,11.16,0,0,1-1.44-4.32,20.9,20.9,0,0,1,.08-2.74c.06-.89-.07-1.15-1-1.15s-1.77.18-2.66.27c-.32,0-.65,0-1,0l0-.28c.42-.2.83-.42,1.27-.59a12.58,12.58,0,0,0,6.53-5.91,19.75,19.75,0,0,0,1.13-3.19c.2-.64.39-1.29.53-1.95.07-.31.16-.76,0-1-.84-1-.49-2.06-.18-3.1.21-.75.78-1.51.06-2.23A2.65,2.65,0,0,0,14.1,7a29.4,29.4,0,0,1-3.55.82A9.34,9.34,0,0,0,6.17,10.6,16.4,16.4,0,0,0,1.37,20a3.75,3.75,0,0,0,0,.67Z"/><path class="c" d="M90.12,38.76a12.73,12.73,0,0,0,1.61-.68,1.29,1.29,0,0,0,.54-.8.77.77,0,0,0-.5-1c-.39-.12-.79-.22-1.17-.37a1,1,0,0,1-.56-.51c.73.13,1.45.28,2.18.38a2.34,2.34,0,0,0,2.52-1.71,7.62,7.62,0,0,0-1.84-6.67,1.07,1.07,0,0,0-.75-.3c-.14,0-.25.39-.37.59a.14.14,0,0,1,0-.11,2.8,2.8,0,0,0-1.64-2.76,24.55,24.55,0,0,0-3.91-1.66,1.87,1.87,0,0,0-1.9.44l-.24.16c-1.18.81-1,.79-.89,2.2a45.9,45.9,0,0,1,.47,6.92c-.06,1.55.47,1.66,1.58,1.63a2,2,0,0,0,.62.41c.92.2,1.86.32,2.78.51a1.28,1.28,0,0,1,1.08,1.23c-.72.12-1.4.26-2.09.33s-1.3.08-1.95.12v.29l1.75.23a4.83,4.83,0,0,1,1,.15c.18.06.3.3.46.46-.19.14-.36.36-.56.39-.81.12-1.63.19-2.45.29-.54.06-1,.16-.57,1a2.31,2.31,0,0,0-.4-.16,2.36,2.36,0,0,0-1.07-.1c-.16.05-.25.59-.21.89A31.47,31.47,0,0,1,83.33,48c0,.31-.09.61-.11.73.75.33,1.41.58,2,.91a3.89,3.89,0,0,0,4.84-1.42,1.41,1.41,0,0,1,.5-.57l-.5,1.51.21.1c.7-.65,1.65-1.14,1.44-2.53.55.7,1,.53,1.35.07a7.58,7.58,0,0,0,1.6-6.67,2.29,2.29,0,0,0-2.77-1.63l-1.74.38Z"/><path class="c" d="M27.47,34.22c-.24-.19-.4-.33-.57-.44-1.9-1.24-3-3.22-4.37-4.9a16.65,16.65,0,0,1-3.13-6.3.93.93,0,0,0-.58-.47A5.41,5.41,0,0,1,18,22h1.33l-.39-1c-1.07.68-2.12,1.23-3,1.94a7.62,7.62,0,0,0-3.13,4.46c-.43,2,.52,4.79,2.18,5.78a8.38,8.38,0,0,0,1.77.48c.51.16,1,.37,1.5.57.33.13.65.4,1,.41a19.6,19.6,0,0,0,4.26-.09,27.84,27.84,0,0,1,3.67-.19A2.32,2.32,0,0,0,27.47,34.22Z"/><path class="c" d="M7.39,47.7C7,48,6.3,48.14,6,48.58a1.29,1.29,0,0,0,.59,1.75,19.36,19.36,0,0,0,2.73,1.46c.75.32,1.58.48,2.36.73a1.19,1.19,0,0,0,1.36-.43,1.16,1.16,0,0,0,.11-1.4,3.4,3.4,0,0,0-2.52-2.16A31,31,0,0,1,7.39,47.7Z"/><path class="c" d="M20.92,7.09c-.14-.12-.27-.35-.42-.36a5.36,5.36,0,0,0-3.2.73L19.43,10c.46-.91,1-1.94,1.51-3Z"/></g></g></svg>