<svg xmlns="http://www.w3.org/2000/svg" viewBox="0 0 79.76 83.86"><defs><style>.a{fill:#6b6b6b;}</style></defs><title>Asset 69</title><path class="a" d="M31.12,79.17v2.66c0,.5-.13,1-.16,1.49a.51.51,0,0,1-.91.33,2.9,2.9,0,0,1-.95-1.82.73.73,0,0,0-.11-.4,4.91,4.91,0,0,1-.58-1.55c-.08-.32-.3-.61-.24-1a2.7,2.7,0,0,0-.39-1.82,3.11,3.11,0,0,1-.36-1,3.24,3.24,0,0,0-.49-.94,2.14,2.14,0,0,0-.83-1,4.57,4.57,0,0,1-.26,1.63c-.11.4-.36.7-.65.72a.75.75,0,0,1-.85-.84c0-.66,0-1.32,0-2A3,3,0,0,1,23,74a2.13,2.13,0,0,1-.93-.11.45.45,0,0,0-.25-.07,3.61,3.61,0,0,1-1.73-.46.32.32,0,0,0-.34,0c-.21.12-.4,0-.62,0-.45,0-.57-.41-.75-.69a.8.8,0,0,0-.68-.42c-.83-.06-1.67-.13-2.51-.17a8.79,8.79,0,0,1-1.64-.32,2.22,2.22,0,0,1-1.25-.62,1.27,1.27,0,0,1-.29-.68,25,25,0,0,1-.13-3.77c0-.22-.08-.39-.31-.38a5.22,5.22,0,0,0-1.36.09c-.36.1-.27.38-.37.57a1.14,1.14,0,0,1-.23.38A2.87,2.87,0,0,1,8.31,68c-.35.07-.67.24-1,.28-.14,0-.22.16-.21.33,0,.64-.15,1.25-.16,1.89,0,.34,0,.81-.26,1s-.49.76-.76,1.13a1.47,1.47,0,0,1-.67.61,3.84,3.84,0,0,1-1.2.25c-1.08,0-2.16,0-3.24,0a3.76,3.76,0,0,1-.66-.17c-.16,0-.1-.22-.1-.35V69.16C0,57.91,0,46.66.05,35.42c0-3.45.05-6.9.1-10.35,0-.39.25-.56.82-.59a4,4,0,0,1,1.6.34c.15.05.34,0,.46.16a.15.15,0,0,0,.11,0,.11.11,0,0,0,0-.15c-.26-.44-.49-.89-.78-1.31A3,3,0,0,1,2,22.65a20.52,20.52,0,0,1-.44-2.18,9,9,0,0,1-.08-2.06,8.83,8.83,0,0,1,.45-2.31,26.06,26.06,0,0,1,1.3-2.52,5.25,5.25,0,0,1,.86-1.21c.24-.24.4-.58.69-.77a13.5,13.5,0,0,1,1.13-.9c.25-.13.36-.41.58-.59A7,7,0,0,1,9,8.86c.56-.18,1.14-.3,1.7-.48a2.6,2.6,0,0,1,.79,0,.43.43,0,0,0,.45-.29,3.81,3.81,0,0,1,1.29-1.5,10.18,10.18,0,0,0,1.06-1,1.86,1.86,0,0,1,1-.52A5,5,0,0,0,16.6,4.7a4.6,4.6,0,0,1,1.09-.28,6.17,6.17,0,0,0,1.77-.7c.85-.43,1.74-.79,2.61-1.18A7.15,7.15,0,0,1,23.92,2l1.7-.28c.51-.09,1,0,1.52-.11a21.59,21.59,0,0,1,3.68-.11A4.57,4.57,0,0,1,32,1.7a18.07,18.07,0,0,1,4,1.74,1,1,0,0,0,.46,0,12.48,12.48,0,0,1,1.93,0,2.83,2.83,0,0,0,1-.1,10.44,10.44,0,0,0,1.46-.38c.56-.21,1.17-.18,1.73-.36a.45.45,0,0,1,.23,0,12.51,12.51,0,0,0,1.36.25,19,19,0,0,1,2.21.59,9.17,9.17,0,0,0,1.37.35,9.27,9.27,0,0,1,1.48.22,1.91,1.91,0,0,0,.59,0A2.69,2.69,0,0,1,52.22,6a1.28,1.28,0,0,0,.73.86,1.76,1.76,0,0,1,.59.66,5.36,5.36,0,0,1,.51.87c.2.46.59.81.77,1.3a12.84,12.84,0,0,0,.5,1.35c.3.62.55,1.27.86,1.89a17.79,17.79,0,0,1,.72,1.93,2.65,2.65,0,0,0,.48.67A7.17,7.17,0,0,1,58,16.75a7,7,0,0,0,.44,1.06.37.37,0,0,0,.19-.22,2.53,2.53,0,0,1,.64-1c.07-.05.15-.11.14-.21a3.49,3.49,0,0,1,.14-1.16c.08-.42.23-.81.33-1.22a2.94,2.94,0,0,0,.18-.82,3.71,3.71,0,0,1,.64-1.7c.15-.25.33-.48.47-.74a4.38,4.38,0,0,1,.88-1,6.44,6.44,0,0,0,1.13-1.37A12,12,0,0,1,65,6.21a3.4,3.4,0,0,1,1.37-1c.44-.15.9-.39,1.37-.08a.57.57,0,0,1,.25.26,9,9,0,0,1,.29,1,8.62,8.62,0,0,0,.21,1.44.89.89,0,0,1,0,.46A.6.6,0,0,0,69.4,9a.6.6,0,0,1,.21-.08,13.72,13.72,0,0,1,2.22-.14,6.5,6.5,0,0,0,1.06-.17c.3,0,.48-.32.48-.66,0-.85-.06-1.71,0-2.55.07-.66,0-1.33.13-2a1.68,1.68,0,0,1,.85-1.3A8.53,8.53,0,0,0,76.09.82a1.7,1.7,0,0,1,.45-.26,4.86,4.86,0,0,0,.53-.31,1.24,1.24,0,0,1,1.64.13,1,1,0,0,1,.25.68c0,1.16.17,2.31.15,3.46,0,1.58-.08,3.16,0,4.73.07,1,0,2,.13,3,.1.67,0,1.34.13,2a5.17,5.17,0,0,1,.1,1.36c0,.73,0,1.46,0,2.19s.06,1.48,0,2.21c-.11,1.14-.09,2.27-.13,3.4,0,.27-.17.55-.11.83.18.85,0,1.71.14,2.56a38.55,38.55,0,0,1,.12,4c0,1.64-.1,3.29,0,4.92s0,3.47.12,5.2c.2,2.44,0,4.88.11,7.32a20.5,20.5,0,0,0-.19,2.34c0,.13.05.28.05.42a8.28,8.28,0,0,1-.24,1.92.91.91,0,0,0,0,.23c0,.21,0,.42,0,.63a15.12,15.12,0,0,1-.17,3c-.13,1.12,0,2.23-.09,3.35a3.6,3.6,0,0,1-.24,1c-.05.16,0,.33-.09.48a.94.94,0,0,1-1.2.34,2.42,2.42,0,0,0-2.1.09.41.41,0,0,0-.2.21,1.56,1.56,0,0,1-.42.65s-.11.11-.1.16a2.18,2.18,0,0,1-.18,1c-.19.59,0,1.22-.21,1.81a1.7,1.7,0,0,0,0,.81,2,2,0,0,1-.18.86c-.13.4-.42.47-.85.35a5.7,5.7,0,0,1-.72-.29.58.58,0,0,1-.34-.29c-.28-.63-.9-.69-1.43-.9a14.32,14.32,0,0,1-1.62-.8,12.74,12.74,0,0,1-1.74-1.45,7.34,7.34,0,0,0-1.21-.73,16.56,16.56,0,0,0-1.72-.9c-.52-.22-1.07-.4-1.59-.63a5.25,5.25,0,0,1-1.12-.54.66.66,0,0,1-.36-.58,4.87,4.87,0,0,1,.21-1.15c.14-.51.62-.72,1.07-.92a2.11,2.11,0,0,0,.79-.56A6,6,0,0,1,65.13,57c.14-.09.19-.16.18-.3a4.29,4.29,0,0,1,.41-2.12.71.71,0,0,0,0-.5,2.93,2.93,0,0,1,.09-2c0-.1.06-.17,0-.23a3.1,3.1,0,0,0-1.24-.66c-.77-.12-1.55-.17-2.32-.28a4.69,4.69,0,0,1-1.3-.33.88.88,0,0,0-1,.17,4.37,4.37,0,0,1-1.81.94,2.81,2.81,0,0,1-.72.17c-.31,0-.5.25-.36.51.25.44,0,.85-.06,1.24a4,4,0,0,1-.48,1.26,3.62,3.62,0,0,1-.37.56,1.27,1.27,0,0,0-.32.85c-.06.42-.1.83-.12,1.26A2,2,0,0,0,56,58.82a3.07,3.07,0,0,1,.36,1.52.44.44,0,0,1-.2.39.87.87,0,0,0-.34.81,6.35,6.35,0,0,1,0,1.51,2.71,2.71,0,0,0-.08,1.19,3.33,3.33,0,0,1,.09,1.43,8.58,8.58,0,0,1-.36,2.57.53.53,0,0,0,0,.22c0,.61,0,1.22,0,1.82a10.71,10.71,0,0,1,.12,1.39c0,.68-.43,1-1,1a4.8,4.8,0,0,1-.63-.15,4,4,0,0,0-1.5,0,12.49,12.49,0,0,0-2,.67h0c-.18,0-.39,0-.51.16a.94.94,0,0,0-.06.64,11.62,11.62,0,0,1-.18,2c-.06.76-.23,1.51-.24,2.28a3.87,3.87,0,0,1-.21.94.75.75,0,0,0,0,.29,1.31,1.31,0,0,1-1.28,1.32,29.16,29.16,0,0,1-3,.09,1.67,1.67,0,0,1-1.27-.5c-.23-.25-.58-.26-.87-.41a.56.56,0,0,1-.23-.16c-.21-.3-.4-.15-.49.06a2.41,2.41,0,0,1-.45.55l-.45.55a2.21,2.21,0,0,1-1,.72,6.21,6.21,0,0,0-.59.26,3.37,3.37,0,0,1-1.26.13H37a.87.87,0,0,1-.91-.82,2.91,2.91,0,0,0-.17-.72.77.77,0,0,0-1.11-.55,3.43,3.43,0,0,1-1.1.1,1.88,1.88,0,0,1-1.38-.35A4.59,4.59,0,0,0,31.12,79.17Z"/></svg>