<svg xmlns="http://www.w3.org/2000/svg" xmlns:xlink="http://www.w3.org/1999/xlink" viewBox="0 0 114.39 131.49"><defs><style>.a{isolation:isolate;}.b{opacity:0.3;fill:url(#a);}.b,.e{mix-blend-mode:overlay;}.c,.d{fill:#8dc9cb;}.d{stroke:#fff;stroke-miterlimit:10;}.e{opacity:0.5;}.f{fill:#fff;}</style><linearGradient id="a" x1="1464.58" y1="1390.51" x2="1550.29" y2="1476.22" gradientTransform="translate(1564.65 1496.63) rotate(180)" gradientUnits="userSpaceOnUse"><stop offset="0" stop-color="#fff" stop-opacity="0.1"/><stop offset="0.84" stop-color="#282726"/></linearGradient></defs><title>Asset 70</title><g class="a"><path class="b" d="M56.26,125.75a1.67,1.67,0,0,0,1.91,0c3.8-2.23,7.63-4.42,11.46-6.63Q90,107.39,110.29,95.69a2.51,2.51,0,0,0,1.46-2.49q-.06-29.94,0-59.87a2.42,2.42,0,0,0-1.4-2.41c-5-2.82-9.94-5.69-14.9-8.55L58.15.79a1.69,1.69,0,0,0-1.92,0Q44.44,7.64,32.65,14.44,18.36,22.71,4,30.94a2.32,2.32,0,0,0-1.37,2.32c0,10,0,19.91,0,29.87s0,19.85,0,29.77a3,3,0,0,0,1.78,3c9.85,5.62,19.66,11.31,29.49,17Q45.09,119.29,56.26,125.75Z"/><path class="c" d="M58.13,3.27a1.65,1.65,0,0,0-1.91,0c-3.8,2.24-7.63,4.43-11.46,6.63Q24.44,21.63,4.09,33.32a2.52,2.52,0,0,0-1.45,2.5q.06,29.93,0,59.86A2.42,2.42,0,0,0,4,98.09c5,2.82,9.94,5.69,14.9,8.56q18.65,10.77,37.3,21.57a1.7,1.7,0,0,0,1.92,0q11.78-6.84,23.58-13.64,14.3-8.26,28.62-16.5a2.32,2.32,0,0,0,1.37-2.31c0-10,0-19.92,0-29.88s0-19.84,0-29.77a3,3,0,0,0-1.78-3q-14.77-8.43-29.49-17Q69.31,9.74,58.13,3.27Z"/><path class="d" d="M113.89,98.46c-3.07,2-6.33,3.77-9.51,5.61q-11.82,6.87-23.68,13.67-11.17,6.44-22.35,12.9a2.07,2.07,0,0,1-2.33,0q-11.31-6.56-22.64-13.07L5.81,101.66c-1.39-.8-2.76-1.63-4.17-2.4A2,2,0,0,1,.5,97.33Q.53,65.66.5,34a1.89,1.89,0,0,1,1.08-1.83Q20.36,21.36,39.1,10.53c5.4-3.11,10.81-6.21,16.18-9.38A3.14,3.14,0,0,1,58.88,1Q78.4,12.39,98,23.63l15.92,9.17Zm-2.18-32.61c0-9.92,0-19.84.05-29.77a3,3,0,0,0-1.78-3q-14.78-8.43-29.49-17Q69.32,9.7,58.13,3.24a1.64,1.64,0,0,0-1.9,0c-3.81,2.24-7.64,4.43-11.46,6.63Q24.44,21.6,4.1,33.29a2.51,2.51,0,0,0-1.45,2.5q.06,29.93,0,59.86a2.43,2.43,0,0,0,1.4,2.42c5,2.81,9.94,5.68,14.89,8.55q18.66,10.77,37.31,21.57a1.7,1.7,0,0,0,1.92,0q11.77-6.84,23.58-13.64Q96,106.28,110.37,98a2.32,2.32,0,0,0,1.37-2.31C111.69,85.77,111.71,75.81,111.71,65.85Z"/><g class="e"><path class="f" d="M47.07,104.71v2.66c0,.5-.13,1-.16,1.49a.51.51,0,0,1-.91.34,2.92,2.92,0,0,1-1-1.82.79.79,0,0,0-.11-.41,4.91,4.91,0,0,1-.58-1.55c-.08-.32-.3-.61-.24-1a2.72,2.72,0,0,0-.39-1.82,3.21,3.21,0,0,1-.36-1,3.17,3.17,0,0,0-.49-1,2.17,2.17,0,0,0-.83-.94,4.34,4.34,0,0,1-.26,1.62c-.11.4-.36.7-.65.72a.76.76,0,0,1-.85-.84c0-.66,0-1.31,0-2a3.12,3.12,0,0,1-1.31.26,2.07,2.07,0,0,1-.92-.11.5.5,0,0,0-.26-.06,3.62,3.62,0,0,1-1.73-.47.37.37,0,0,0-.34,0c-.21.12-.4,0-.62,0-.45-.05-.57-.41-.74-.7a.82.82,0,0,0-.69-.41c-.83-.07-1.67-.14-2.51-.17a8.83,8.83,0,0,1-1.64-.33,2.22,2.22,0,0,1-1.25-.62A1.27,1.27,0,0,1,28,96a25.14,25.14,0,0,1-.12-3.78c0-.21-.09-.39-.31-.38a5.27,5.27,0,0,0-1.37.09c-.36.11-.27.39-.37.57a1.3,1.3,0,0,1-.22.38,2.86,2.86,0,0,1-1.34.68,9.22,9.22,0,0,1-1,.28.29.29,0,0,0-.21.33c.05.64-.15,1.26-.16,1.89,0,.34,0,.81-.26,1a4.83,4.83,0,0,0-.75,1.13,1.44,1.44,0,0,1-.68.61,3.84,3.84,0,0,1-1.2.25c-1.08,0-2.16,0-3.23,0a3.36,3.36,0,0,1-.66-.17c-.17,0-.11-.22-.11-.34V94.7c0-11.25-.06-22.49,0-33.74,0-3.45,0-6.9.09-10.35,0-.38.26-.56.82-.59a4,4,0,0,1,1.6.34c.15.06.34,0,.46.16s.09,0,.11,0a.11.11,0,0,0,0-.15c-.26-.43-.49-.89-.78-1.3a3.21,3.21,0,0,1-.36-.86A20,20,0,0,1,17.52,46,8.91,8.91,0,0,1,17.44,44a8.76,8.76,0,0,1,.45-2.3c.34-.9.88-1.68,1.3-2.53a4.77,4.77,0,0,1,.87-1.2,4.23,4.23,0,0,1,.68-.78c.41-.26.7-.67,1.13-.9.25-.13.36-.41.58-.59a7.1,7.1,0,0,1,2.49-1.24c.56-.19,1.14-.31,1.7-.49a2.6,2.6,0,0,1,.79,0,.45.45,0,0,0,.45-.3,4,4,0,0,1,1.29-1.5,10.18,10.18,0,0,0,1.06-1,1.93,1.93,0,0,1,1-.52,4.65,4.65,0,0,0,1.31-.32A5.11,5.11,0,0,1,33.64,30a6.2,6.2,0,0,0,1.77-.71c.86-.42,1.74-.78,2.62-1.18a7.32,7.32,0,0,1,1.85-.55c.56-.1,1.13-.18,1.69-.27s1,0,1.53-.12A23.7,23.7,0,0,1,46.77,27a5.1,5.1,0,0,1,1.14.22,18.31,18.31,0,0,1,4,1.73,1,1,0,0,0,.46.05,12.47,12.47,0,0,1,1.93,0,2.81,2.81,0,0,0,1-.09,14.21,14.21,0,0,0,1.46-.38c.56-.22,1.17-.19,1.73-.36a.45.45,0,0,1,.23,0c.44.15.92.15,1.36.26a16.73,16.73,0,0,1,2.21.59,10.55,10.55,0,0,0,1.37.34,9.27,9.27,0,0,1,1.48.22,1.65,1.65,0,0,0,.59,0,2.69,2.69,0,0,1,2.44,1.83,1.28,1.28,0,0,0,.73.87,1.76,1.76,0,0,1,.59.66,5.27,5.27,0,0,1,.51.86c.2.46.59.82.77,1.3a12.23,12.23,0,0,0,.5,1.36c.3.62.55,1.26.86,1.88a18.61,18.61,0,0,1,.72,1.93,3.63,3.63,0,0,0,.48.68,6.77,6.77,0,0,1,.57,1.26,7,7,0,0,0,.44,1.06.37.37,0,0,0,.19-.22,2.5,2.5,0,0,1,.64-1,.26.26,0,0,0,.14-.22,3.49,3.49,0,0,1,.15-1.16c.07-.41.22-.81.33-1.21a3.42,3.42,0,0,0,.17-.82,3.71,3.71,0,0,1,.64-1.71c.15-.25.34-.47.47-.73a4.43,4.43,0,0,1,.88-1,6.21,6.21,0,0,0,1.13-1.37A11.64,11.64,0,0,1,81,31.76a3.45,3.45,0,0,1,1.38-1c.43-.14.89-.38,1.37-.07A.53.53,0,0,1,84,31,9.6,9.6,0,0,1,84.24,32a8.62,8.62,0,0,0,.21,1.44.9.9,0,0,1,0,.46.59.59,0,0,0,.87.58.9.9,0,0,1,.21-.08,13.72,13.72,0,0,1,2.22-.14,5.43,5.43,0,0,0,1.06-.16c.3,0,.48-.33.48-.67,0-.85-.06-1.7,0-2.54.07-.67,0-1.34.13-2a1.75,1.75,0,0,1,.85-1.3A7.83,7.83,0,0,0,92,26.36a2,2,0,0,1,.45-.26,3.64,3.64,0,0,0,.53-.31,1.25,1.25,0,0,1,1.64.13,1,1,0,0,1,.25.69c0,1.15.17,2.3.15,3.46,0,1.57-.08,3.16,0,4.73.07,1,0,2,.13,3,.1.67,0,1.34.13,2a5.23,5.23,0,0,1,.1,1.36c0,.73,0,1.46,0,2.2s.06,1.48,0,2.21c-.11,1.13-.09,2.26-.13,3.4,0,.27-.17.54-.11.83.18.84,0,1.71.14,2.55a38.66,38.66,0,0,1,.12,4c0,1.64-.1,3.29,0,4.92s0,3.47.12,5.19c.2,2.44.05,4.89.11,7.33a20.31,20.31,0,0,0-.19,2.34c0,.13,0,.27,0,.41a7.91,7.91,0,0,1-.24,1.93.87.87,0,0,0,0,.23c0,.21,0,.42,0,.63a15,15,0,0,1-.17,3c-.13,1.13,0,2.24-.09,3.35a3.74,3.74,0,0,1-.24,1c0,.15,0,.32-.09.47a.93.93,0,0,1-1.2.34,2.42,2.42,0,0,0-2.1.1.35.35,0,0,0-.2.21,1.56,1.56,0,0,1-.42.65s-.11.11-.1.15a2.32,2.32,0,0,1-.17,1c-.2.6,0,1.22-.22,1.81a1.74,1.74,0,0,0,0,.82,1.88,1.88,0,0,1-.18.85c-.13.4-.42.47-.85.35a5.7,5.7,0,0,1-.72-.29.61.61,0,0,1-.34-.28c-.28-.64-.9-.7-1.43-.91a12.82,12.82,0,0,1-1.62-.8,12.06,12.06,0,0,1-1.74-1.45A8.1,8.1,0,0,0,82.21,89a16.56,16.56,0,0,0-1.72-.9c-.52-.22-1.06-.39-1.58-.62a6.19,6.19,0,0,1-1.13-.54.7.7,0,0,1-.36-.59,4.88,4.88,0,0,1,.21-1.14c.14-.52.63-.73,1.07-.92a2.23,2.23,0,0,0,.79-.56,6.08,6.08,0,0,1,1.59-1.16.29.29,0,0,0,.18-.3,4.31,4.31,0,0,1,.41-2.12.67.67,0,0,0,0-.49,3,3,0,0,1,.09-2c0-.09.07-.17,0-.23a3.1,3.1,0,0,0-1.23-.65c-.78-.13-1.55-.18-2.32-.28a4.67,4.67,0,0,1-1.31-.33.86.86,0,0,0-1,.16,4.51,4.51,0,0,1-1.81,1,3.29,3.29,0,0,1-.72.17c-.31,0-.5.24-.36.51a1.46,1.46,0,0,1-.06,1.23,3.87,3.87,0,0,1-.48,1.26,3.2,3.2,0,0,1-.37.56,1.27,1.27,0,0,0-.32.85q-.09.63-.12,1.26A2,2,0,0,0,72,84.37a3,3,0,0,1,.36,1.52.45.45,0,0,1-.2.39.86.86,0,0,0-.34.8,5.86,5.86,0,0,1,0,1.51,2.6,2.6,0,0,0-.07,1.2,3.48,3.48,0,0,1,.08,1.43,8.21,8.21,0,0,1-.36,2.56.58.58,0,0,0,0,.23,15.61,15.61,0,0,0,0,1.81,11,11,0,0,1,.12,1.4c0,.67-.43,1-1,1a3.64,3.64,0,0,1-.63-.16,4,4,0,0,0-1.5,0,12.52,12.52,0,0,0-2,.68h0c-.18,0-.39,0-.51.16a.94.94,0,0,0-.06.64,12.73,12.73,0,0,1-.17,2c-.07.76-.24,1.51-.25,2.29a3.54,3.54,0,0,1-.21.94.73.73,0,0,0,0,.29,1.31,1.31,0,0,1-1.28,1.31,26.5,26.5,0,0,1-3,.09,1.66,1.66,0,0,1-1.27-.49c-.23-.25-.58-.27-.87-.41a.58.58,0,0,1-.23-.17c-.21-.29-.39-.14-.49.06a2.21,2.21,0,0,1-.45.55l-.44.55a2.17,2.17,0,0,1-1,.72,6.28,6.28,0,0,0-.59.27,3.58,3.58,0,0,1-1.26.12c-.42,0-.84,0-1.26,0a.85.85,0,0,1-.9-.82,3.61,3.61,0,0,0-.18-.72.78.78,0,0,0-1.11-.55,3.74,3.74,0,0,1-1.1.11,1.85,1.85,0,0,1-1.38-.36A5.37,5.37,0,0,0,47.07,104.71Z"/></g><path class="f" d="M25.26,55.62H23.18c0-.25,0-1.06,0-2.44s0-2.24,0-2.56v-2c0-.89,0-1.54,0-2a3.65,3.65,0,0,0-.58-2.18,2.31,2.31,0,0,0-1.88-.66,5.55,5.55,0,0,0-2,.48,15.89,15.89,0,0,0-2.4,1.21c0,.1,0,.62,0,1.57s0,1.81,0,2.6q0,1.53,0,3.69c0,1.44,0,2.2,0,2.27H14.32c0-.07,0-.6,0-1.62s0-2.52,0-4.53V46.23c0-1.24,0-2.56,0-4h2.06l0,1.52,0,0a17.35,17.35,0,0,1,3.07-1.47,6.7,6.7,0,0,1,2.05-.42A3.57,3.57,0,0,1,24.21,43a4,4,0,0,1,1,2.91c0,1.11,0,2.06,0,2.87s0,1.45,0,1.95q0,1.2,0,3C25.25,54.92,25.26,55.55,25.26,55.62Z"/><path class="f" d="M40.29,48.46H30.76A5.91,5.91,0,0,0,31.35,51,4.83,4.83,0,0,0,33.13,53a5.66,5.66,0,0,0,1.74.73,9.45,9.45,0,0,0,2.35.25c.5,0,1,0,1.38,0l.77,0-.24,1.75-.7,0c-.39,0-.86,0-1.39,0a11,11,0,0,1-3.68-.55,6.93,6.93,0,0,1-2.56-1.51,6.73,6.73,0,0,1-1.46-2.06,6.33,6.33,0,0,1-.6-2.78,7.74,7.74,0,0,1,.45-2.71,7.41,7.41,0,0,1,1.35-2.26,5.13,5.13,0,0,1,1.93-1.38A6.32,6.32,0,0,1,37,42.3a4.41,4.41,0,0,1,1.64,1.12,5.59,5.59,0,0,1,1.19,2.08A9.81,9.81,0,0,1,40.29,48.46Zm-2-1.48a4.3,4.3,0,0,0-1.12-2.56,3.16,3.16,0,0,0-2.38-.93,3.42,3.42,0,0,0-2.46.94A5,5,0,0,0,30.92,47Z"/><path class="f" d="M54.64,55.62h-2V54.09l0,0a17.42,17.42,0,0,1-2.3,1.25,6.46,6.46,0,0,1-2.7.64,3.73,3.73,0,0,1-2.85-1.08,4.21,4.21,0,0,1-1-3c0-.7,0-1.54,0-2.51s0-1.67,0-2.11c0-.8,0-1.79,0-3s0-1.84,0-2h2.09c0,.12,0,.75,0,1.9s0,2.07,0,2.76,0,1.36,0,2.26,0,1.55,0,1.93a4.15,4.15,0,0,0,.54,2.28,1.91,1.91,0,0,0,1.66.73,6.42,6.42,0,0,0,2.58-.64,13.29,13.29,0,0,0,2.06-1.1c0-.11,0-.6,0-1.46s0-2,0-3.24c0-.92,0-2,0-3.31s0-2,0-2.11h2.09c0,.15,0,.65,0,1.49s0,2.27,0,4.29c0,1.13,0,2.13,0,3S54.62,53.42,54.64,55.62Z"/><path class="f" d="M67.17,43.83a22.69,22.69,0,0,0-2.22.72c-1,.37-2.15.87-3.45,1.48,0,.1,0,.54,0,1.33s0,1.51,0,2.19q0,1.56,0,3.69c0,1.43,0,2.22,0,2.38H59.46c0-.15,0-.65,0-1.48s0-2.26,0-4.29c0-.81,0-2,0-3.42s0-2.86,0-4.16h2v2h0a28.64,28.64,0,0,1,2.94-1.46A16.29,16.29,0,0,1,66.78,42Z"/><path class="f" d="M81.57,48.94A7.86,7.86,0,0,1,81,51.87a6.63,6.63,0,0,1-1.57,2.39A6,6,0,0,1,75.11,56a6.4,6.4,0,0,1-2.37-.43,6.07,6.07,0,0,1-2-1.26,6.39,6.39,0,0,1-1.55-2.37,8.43,8.43,0,0,1-.08-5.77,6.43,6.43,0,0,1,1.46-2.29,6.19,6.19,0,0,1,2-1.42,6.53,6.53,0,0,1,2.48-.49,6.42,6.42,0,0,1,2.49.46,5.62,5.62,0,0,1,2,1.36,6.62,6.62,0,0,1,1.49,2.34A8,8,0,0,1,81.57,48.94Zm-2.11.1a7.4,7.4,0,0,0-.4-2.42,4.86,4.86,0,0,0-1.25-2,3.43,3.43,0,0,0-1.22-.77,4.08,4.08,0,0,0-1.47-.27,3.66,3.66,0,0,0-2.85,1.19,5.21,5.21,0,0,0-1.1,1.82,6.91,6.91,0,0,0-.4,2.3,7.27,7.27,0,0,0,.41,2.47,4.67,4.67,0,0,0,1.32,1.94,3.49,3.49,0,0,0,1.19.71,4.15,4.15,0,0,0,1.42.24A4,4,0,0,0,76.66,54a3.57,3.57,0,0,0,1.26-.84,5,5,0,0,0,1.14-1.85A6.37,6.37,0,0,0,79.46,49Z"/><path class="f" d="M96.15,55.62H94.07c0-.25,0-1.06,0-2.44s0-2.24,0-2.56,0-1.13,0-2,0-1.54,0-2a3.58,3.58,0,0,0-.58-2.18,2.29,2.29,0,0,0-1.87-.66,5.55,5.55,0,0,0-2,.48,15.89,15.89,0,0,0-2.4,1.21c0,.1,0,.62,0,1.57s0,1.81,0,2.6c0,1,0,2.25,0,3.69s0,2.2,0,2.27H85.21c0-.07,0-.6,0-1.62s0-2.52,0-4.53c0-.92,0-2,0-3.24s0-2.56,0-4h2.05v1.55a17.38,17.38,0,0,1,3.08-1.47,6.64,6.64,0,0,1,2-.42A3.57,3.57,0,0,1,95.1,43a4,4,0,0,1,1,2.91c0,1.11,0,2.06,0,2.87s0,1.45,0,1.95c0,.8,0,1.8,0,3S96.15,55.55,96.15,55.62Z"/><path class="f" d="M25.74,81.83a6.43,6.43,0,0,1-1.06,3.72,6.36,6.36,0,0,1-2.87,2.31,11,11,0,0,1-2.67.74,24.78,24.78,0,0,1-3.61.23H14.35c0-.68,0-1.94,0-3.77s0-4,0-6.63c0-1.58,0-3.11,0-4.6s0-3,0-4.54h2.09l0,6.08a16.65,16.65,0,0,1,4.33.48,8.49,8.49,0,0,1,2.71,1.23,5.35,5.35,0,0,1,1.71,2A6.06,6.06,0,0,1,25.74,81.83Zm-2.11.06a4,4,0,0,0-.9-2.68,5.07,5.07,0,0,0-2.33-1.56,9.25,9.25,0,0,0-1.59-.39A11.33,11.33,0,0,0,17,77.12H16.4c0,.19,0,.89,0,2.1s0,2.2,0,3c0,1.47,0,2.5,0,3.11s0,1.22,0,1.84a14.41,14.41,0,0,0,2.65-.22,7.19,7.19,0,0,0,2.07-.67A4.55,4.55,0,0,0,23,84.49,5.16,5.16,0,0,0,23.63,81.89Z"/><path class="f" d="M37,76.83a21.83,21.83,0,0,0-2.23.72c-1,.37-2.14.87-3.44,1.48,0,.1,0,.54,0,1.33s0,1.51,0,2.19q0,1.56,0,3.69c0,1.43,0,2.22,0,2.38H29.3c0-.15,0-.65,0-1.48s0-2.26,0-4.29c0-.81,0-2,0-3.42s0-2.86,0-4.16h2.05v2h0a28.64,28.64,0,0,1,2.94-1.46A16.74,16.74,0,0,1,36.62,75Z"/><path class="f" d="M42,72.72H39.72V70.45H42Zm-.12,15.9H39.84c0-.15,0-1,0-2.6s0-2.91,0-3.94,0-1.9,0-3,0-2.36,0-3.82h2.08c0,1.27,0,2.45-.05,3.56s0,2.08,0,2.94c0,2,0,3.69,0,4.93S41.92,88.58,41.92,88.62Z"/><path class="f" d="M57,88.81H55.84a27.71,27.71,0,0,1-3.9-.22,10,10,0,0,1-2.76-.86,6.45,6.45,0,0,1-2.66-2.24,5.55,5.55,0,0,1-.91-3.11,6.29,6.29,0,0,1,1-3.55,6.7,6.7,0,0,1,2.92-2.42,10.77,10.77,0,0,1,2.57-.79A15.6,15.6,0,0,1,55,75.37l0-6.08H57c0,.17,0,1.4,0,3.69s0,4.6,0,6.94c0,1.85,0,3.53,0,5S57,87.73,57,88.81Zm-2-9.26V77.12a13,13,0,0,0-2.48.22,8.45,8.45,0,0,0-2,.61,4.63,4.63,0,0,0-2,1.73,4.71,4.71,0,0,0-.73,2.64,3.87,3.87,0,0,0,.7,2.33,4.92,4.92,0,0,0,1.74,1.53,7.88,7.88,0,0,0,2.05.73,11.6,11.6,0,0,0,2.39.24h.34c0-.08,0-.73,0-2S55,82.07,55,79.55Z"/><path class="f" d="M71.93,75.15c0,.2,0,1.07,0,2.62s0,3,0,4.41c0,.95,0,1.92,0,2.9s0,1.89,0,2.7a6.89,6.89,0,0,1-.77,3.54,5.61,5.61,0,0,1-2.19,2,10.9,10.9,0,0,1-2.73.92,19.88,19.88,0,0,1-3.91.33l-.21-1.67a27.62,27.62,0,0,0,2.77-.17,9.74,9.74,0,0,0,2.23-.5,4.2,4.2,0,0,0,2.15-1.54,4.48,4.48,0,0,0,.63-2.33h-.63A14.63,14.63,0,0,1,66,88a8.14,8.14,0,0,1-2.84-1.19,5.83,5.83,0,0,1-2.61-5.13,5.42,5.42,0,0,1,1-3.26,7.08,7.08,0,0,1,2.72-2.24A9,9,0,0,1,67,75.39a21.29,21.29,0,0,1,3.46-.24h1.52Zm-2,7c0-.63,0-1.42,0-2.37s0-1.93,0-3h-.34a12.33,12.33,0,0,0-2.15.16,8.43,8.43,0,0,0-1.93.59,4.44,4.44,0,0,0-2.05,1.7,4.56,4.56,0,0,0-.72,2.53,4.25,4.25,0,0,0,.71,2.47,4.59,4.59,0,0,0,1.89,1.59,8.2,8.2,0,0,0,1.87.62,10.06,10.06,0,0,0,2.24.24h.49c0-.11,0-.59,0-1.47S69.91,83.36,69.91,82.16Z"/><path class="f" d="M87,81.46H77.46a5.78,5.78,0,0,0,.6,2.56A4.76,4.76,0,0,0,79.84,86a5.66,5.66,0,0,0,1.74.73,9.37,9.37,0,0,0,2.34.25c.5,0,1,0,1.38,0l.77,0-.24,1.75-.69,0c-.4,0-.87,0-1.4,0a11,11,0,0,1-3.67-.55,6.89,6.89,0,0,1-2.57-1.51,6.54,6.54,0,0,1-1.45-2.06,6.19,6.19,0,0,1-.6-2.78,7.74,7.74,0,0,1,.44-2.71,7.41,7.41,0,0,1,1.35-2.26,5.21,5.21,0,0,1,1.93-1.38,6,6,0,0,1,2.39-.49,5.93,5.93,0,0,1,2.18.37,4.52,4.52,0,0,1,1.65,1.12,5.71,5.71,0,0,1,1.18,2.08A9.51,9.51,0,0,1,87,81.46ZM85,80a4.36,4.36,0,0,0-1.11-2.56,3.19,3.19,0,0,0-2.38-.93,3.43,3.43,0,0,0-2.47.94A5.07,5.07,0,0,0,77.62,80Z"/><path class="f" d="M98.19,76.83a21.06,21.06,0,0,0-2.22.72c-1,.37-2.15.87-3.45,1.48,0,.1,0,.54,0,1.33s0,1.51,0,2.19q0,1.56,0,3.69c0,1.43,0,2.22,0,2.38H90.47c0-.15,0-.65,0-1.48s0-2.26,0-4.29c0-.81,0-2,0-3.42s0-2.86,0-4.16h2v2h0a28.64,28.64,0,0,1,2.94-1.46A16.74,16.74,0,0,1,97.79,75Z"/></g></svg>