<svg xmlns="http://www.w3.org/2000/svg" xmlns:xlink="http://www.w3.org/1999/xlink" viewBox="0 0 114.39 131.49"><defs><style>.a{isolation:isolate;}.b,.c{fill:#2e4432;}.c{stroke:#fff;stroke-miterlimit:10;}.d{fill:#fff;}.e{opacity:0.3;mix-blend-mode:overlay;fill:url(#a);}.f{opacity:0.2;}</style><linearGradient id="a" x1="1749.58" y1="500.17" x2="1835.29" y2="585.88" gradientTransform="translate(1849.65 608.77) rotate(180)" gradientUnits="userSpaceOnUse"><stop offset="0" stop-color="#fff" stop-opacity="0.1"/><stop offset="0.84" stop-color="#282726"/></linearGradient></defs><title>Asset 42</title><g class="a"><path class="b" d="M58.13,3.27a1.65,1.65,0,0,0-1.91,0c-3.8,2.24-7.63,4.43-11.46,6.63Q24.44,21.63,4.09,33.32a2.52,2.52,0,0,0-1.45,2.5q.06,29.93,0,59.86A2.42,2.42,0,0,0,4,98.09c5,2.82,9.94,5.69,14.9,8.56q18.65,10.77,37.3,21.57a1.7,1.7,0,0,0,1.92,0q11.78-6.84,23.58-13.64,14.3-8.26,28.62-16.5a2.32,2.32,0,0,0,1.37-2.31c0-10,0-19.92,0-29.88s0-19.84,0-29.77a3,3,0,0,0-1.78-3q-14.77-8.43-29.49-17Q69.31,9.74,58.13,3.27Z"/><path class="c" d="M113.89,98.46c-3.07,2-6.33,3.77-9.51,5.61q-11.82,6.87-23.68,13.67-11.17,6.44-22.35,12.9a2.07,2.07,0,0,1-2.33,0q-11.31-6.56-22.64-13.07L5.81,101.66c-1.39-.8-2.76-1.63-4.17-2.4A2,2,0,0,1,.5,97.33Q.53,65.66.5,34a1.89,1.89,0,0,1,1.08-1.83Q20.36,21.36,39.1,10.53c5.4-3.11,10.81-6.21,16.18-9.38A3.14,3.14,0,0,1,58.88,1Q78.4,12.39,98,23.63l15.92,9.17Zm-2.18-32.61c0-9.92,0-19.84.05-29.77a3,3,0,0,0-1.78-3q-14.78-8.43-29.49-17Q69.32,9.7,58.13,3.24a1.64,1.64,0,0,0-1.9,0c-3.81,2.24-7.64,4.43-11.46,6.63Q24.44,21.6,4.1,33.29a2.51,2.51,0,0,0-1.45,2.5q.06,29.93,0,59.86a2.43,2.43,0,0,0,1.4,2.42c5,2.81,9.94,5.68,14.89,8.55q18.66,10.77,37.31,21.57a1.7,1.7,0,0,0,1.92,0q11.77-6.84,23.58-13.64Q96,106.28,110.37,98a2.32,2.32,0,0,0,1.37-2.31C111.69,85.77,111.71,75.81,111.71,65.85Z"/><path class="d" d="M26.72,39.21H24.4V37h2.32Zm-.12,15.9H24.52c0-.14,0-1,0-2.59s0-2.91,0-3.94v-3c0-1.09,0-2.36-.05-3.82H26.6c0,1.27,0,2.45,0,3.56s0,2.08,0,2.94c0,2,0,3.69,0,4.93S26.6,55.08,26.6,55.11Z"/><path class="d" d="M42.5,55.11H40.42q0-.36,0-2.43c0-1.38,0-2.24,0-2.56v-2c0-.89,0-1.54,0-2A3.65,3.65,0,0,0,39.87,44,2.33,2.33,0,0,0,38,43.3a5.55,5.55,0,0,0-2,.48A15.89,15.89,0,0,0,33.6,45c0,.1,0,.62,0,1.57s0,1.81,0,2.6c0,1,0,2.25,0,3.69s0,2.19,0,2.26H31.56c0-.06,0-.6,0-1.61s0-2.53,0-4.53V45.73c0-1.24,0-2.56-.05-4h2.06l0,1.52,0,0a18.26,18.26,0,0,1,3.07-1.48,7,7,0,0,1,2.05-.41,3.57,3.57,0,0,1,2.71,1.06,4,4,0,0,1,1,2.91c0,1.11,0,2.06,0,2.87s0,1.45,0,1.95q0,1.2,0,3T42.5,55.11Z"/><path class="d" d="M54.51,51.25A3.29,3.29,0,0,1,54,53a3.77,3.77,0,0,1-1.24,1.24,6.2,6.2,0,0,1-1.91.76,10.87,10.87,0,0,1-2.44.26c-.43,0-.88,0-1.34-.06l-.78-.08-.08-1.72.91.07q.8.06,1.59.06c.31,0,.7,0,1.19-.08a4.06,4.06,0,0,0,1.2-.29,2.33,2.33,0,0,0,1-.71,1.65,1.65,0,0,0,.32-1,1.28,1.28,0,0,0-.28-.87,3.16,3.16,0,0,0-.76-.66,9.47,9.47,0,0,0-1.45-.75,13.39,13.39,0,0,1-1.53-.78,4,4,0,0,1-1.35-1.27,3.11,3.11,0,0,1-.47-1.72,3.06,3.06,0,0,1,.53-1.75,3.89,3.89,0,0,1,1.44-1.25,5.12,5.12,0,0,1,1.72-.56,11.63,11.63,0,0,1,1.83-.14l1.32,0,.59,0,.15,1.75c-.06,0-.33,0-.81,0s-1-.05-1.58-.05a6.19,6.19,0,0,0-1.16.1,3.17,3.17,0,0,0-.93.31,1.83,1.83,0,0,0-.81.7,1.46,1.46,0,0,0-.25.79,1.33,1.33,0,0,0,.35.91,3,3,0,0,0,.8.64c.36.21.86.46,1.48.75a14.12,14.12,0,0,1,1.36.7A4.68,4.68,0,0,1,54,49.56,3,3,0,0,1,54.51,51.25Z"/><path class="d" d="M68.51,48H59a5.91,5.91,0,0,0,.59,2.56,4.83,4.83,0,0,0,1.78,1.93,5.66,5.66,0,0,0,1.74.73,9.45,9.45,0,0,0,2.35.25c.5,0,1,0,1.38,0l.77,0-.24,1.75-.7,0c-.39,0-.86,0-1.39,0a11,11,0,0,1-3.68-.55A6.93,6.93,0,0,1,59,53.11a6.85,6.85,0,0,1-1.46-2.06,6.33,6.33,0,0,1-.6-2.78,7.74,7.74,0,0,1,.45-2.71,7.41,7.41,0,0,1,1.35-2.26,5.1,5.1,0,0,1,1.93-1.38,6,6,0,0,1,2.39-.49,5.93,5.93,0,0,1,2.18.37,4.41,4.41,0,0,1,1.64,1.12A5.51,5.51,0,0,1,68.09,45,9.76,9.76,0,0,1,68.51,48Zm-2-1.48a4.33,4.33,0,0,0-1.11-2.56A3.19,3.19,0,0,0,63,43a3.43,3.43,0,0,0-2.47.94,5,5,0,0,0-1.37,2.55Z"/><path class="d" d="M80.79,53.4l-.16,1.77H79.9a14.48,14.48,0,0,1-3.17-.33,9.88,9.88,0,0,1-2.65-1,6.57,6.57,0,0,1-2.5-2.31,6,6,0,0,1-.89-3.2,5.38,5.38,0,0,1,.82-2.91,6.69,6.69,0,0,1,2.13-2.17,9.29,9.29,0,0,1,2.84-1.17,15,15,0,0,1,3.42-.4h.54l.11,1.77h-.41a14.91,14.91,0,0,0-2.5.18,9.43,9.43,0,0,0-2,.58,4.49,4.49,0,0,0-2.07,1.67,4.22,4.22,0,0,0-.76,2.42,4.46,4.46,0,0,0,.72,2.59,4.69,4.69,0,0,0,1.9,1.62,7.67,7.67,0,0,0,2.08.64,13.93,13.93,0,0,0,2.46.2h.83Z"/><path class="d" d="M91.51,53.48l-.24,1.67-.46,0h-.62a6.37,6.37,0,0,1-4.09-1.12,4.22,4.22,0,0,1-1.38-3.46c0-1,0-2,0-3.14s0-2.5,0-4.15H82.54V41.77h2.33V38.65h1.92v3.12h4.72v1.55H86.79c0,.18,0,.73,0,1.64s0,1.59,0,2v3.27a3,3,0,0,0,.92,2.47,4.39,4.39,0,0,0,2.85.76h1Z"/><path class="d" d="M34.76,81.33a6.23,6.23,0,0,1-3.93,6,10.61,10.61,0,0,1-2.67.73,23.32,23.32,0,0,1-3.61.24H23.37c0-.68,0-1.94,0-3.77s0-4,0-6.63c0-1.58,0-3.11,0-4.6s0-3,0-4.54h2.09l0,6.08a16.65,16.65,0,0,1,4.33.48,8.49,8.49,0,0,1,2.71,1.23,5.35,5.35,0,0,1,1.71,2A6,6,0,0,1,34.76,81.33Zm-2.11,0a4,4,0,0,0-.9-2.67,5.07,5.07,0,0,0-2.33-1.56,9.25,9.25,0,0,0-1.59-.39,10.24,10.24,0,0,0-1.77-.14h-.64c0,.19,0,.89,0,2.1s0,2.2,0,3c0,1.47,0,2.5,0,3.11s0,1.22,0,1.84a14.41,14.41,0,0,0,2.65-.22,7.19,7.19,0,0,0,2.07-.67A4.55,4.55,0,0,0,32,84,5.17,5.17,0,0,0,32.65,81.38Z"/><path class="d" d="M46,76.33a19.53,19.53,0,0,0-2.23.72c-1,.37-2.14.87-3.44,1.48,0,.1,0,.54,0,1.32s0,1.52,0,2.2q0,1.56,0,3.69c0,1.43,0,2.22,0,2.37H38.32q0-.23,0-1.47c0-.84,0-2.26,0-4.29,0-.81,0-2,0-3.42s0-2.86,0-4.16h2v2h0a28.64,28.64,0,0,1,2.94-1.46,16.74,16.74,0,0,1,2.32-.85Z"/><path class="d" d="M57.87,80.6c0,2.18,0,4,0,5.33s0,2.11,0,2.21l-1.23.1q-1.09.09-2.82.09a12.45,12.45,0,0,1-2.18-.2,7.58,7.58,0,0,1-1.88-.57A4.55,4.55,0,0,1,48,86.23a3.47,3.47,0,0,1,.12-4.2,5.37,5.37,0,0,1,2.14-1.48,12.4,12.4,0,0,1,2.29-.64,28.87,28.87,0,0,1,3.26-.43,3.48,3.48,0,0,0-.51-1.69,2.71,2.71,0,0,0-1.28-1,5.54,5.54,0,0,0-1.29-.34,13.33,13.33,0,0,0-1.66-.1c-.4,0-.73,0-1,0L49,76.45l.21-1.76.79,0c.39,0,.92,0,1.6,0a10.57,10.57,0,0,1,2.77.33,4.68,4.68,0,0,1,2,1,4.23,4.23,0,0,1,1.13,1.69A8.51,8.51,0,0,1,57.87,80.6Zm-2,3.18V82.64c0-.45,0-1,0-1.58-.38,0-1.06.1-2,.23a11.19,11.19,0,0,0-2.44.59,3.79,3.79,0,0,0-1.31.83,1.84,1.84,0,0,0-.57,1.37A2,2,0,0,0,50,85.52a3,3,0,0,0,1.33.84,6.67,6.67,0,0,0,1.43.32,12.4,12.4,0,0,0,1.65.1H55l.8,0c0-.06,0-.35,0-.87S55.86,84.66,55.86,83.78Z"/><path class="d" d="M64.93,72.21H62.61V70h2.32Zm-.12,15.9H62.73c0-.14,0-1,0-2.59s0-2.91,0-3.94,0-1.91,0-3,0-2.36,0-3.82h2.08c0,1.27,0,2.45,0,3.56s0,2.08,0,2.94c0,2,0,3.69,0,4.93S64.81,88.08,64.81,88.11Z"/><path class="d" d="M80.71,88.11H78.62c0-.24,0-1,0-2.43s0-2.24,0-2.56,0-1.13,0-2,0-1.54,0-2A3.65,3.65,0,0,0,78.07,77a2.29,2.29,0,0,0-1.87-.66,5.51,5.51,0,0,0-2,.48A15.89,15.89,0,0,0,71.81,78c0,.1,0,.62,0,1.57s0,1.81,0,2.6c0,1,0,2.25,0,3.69s0,2.19,0,2.26H69.77c0-.06,0-.6,0-1.61s0-2.53,0-4.53c0-.92,0-2,0-3.24s0-2.56,0-4h2v1.55a18.3,18.3,0,0,1,3.08-1.48,6.89,6.89,0,0,1,2-.41,3.57,3.57,0,0,1,2.71,1.06,4,4,0,0,1,1,2.91c0,1.11,0,2.06,0,2.87s0,1.45,0,2c0,.8,0,1.8,0,3S80.71,88.05,80.71,88.11Z"/><path class="d" d="M93.17,76.33a19.53,19.53,0,0,0-2.23.72c-1,.37-2.14.87-3.44,1.48,0,.1,0,.54,0,1.32s0,1.52,0,2.2q0,1.56,0,3.69c0,1.43,0,2.22,0,2.37H85.45q0-.23,0-1.47c0-.84,0-2.26,0-4.29,0-.81,0-2,0-3.42s0-2.86,0-4.16h2v2h0a28.64,28.64,0,0,1,2.94-1.46,16.74,16.74,0,0,1,2.32-.85Z"/><path class="e" d="M56.26,128.22a1.67,1.67,0,0,0,1.91,0c3.8-2.23,7.63-4.42,11.46-6.62Q90,109.87,110.29,98.16a2.5,2.5,0,0,0,1.46-2.49q-.06-29.92,0-59.86a2.42,2.42,0,0,0-1.4-2.42c-5-2.81-9.94-5.69-14.9-8.55Q76.8,14.05,58.15,3.26a1.7,1.7,0,0,0-1.92,0Q44.44,10.12,32.65,16.92,18.36,25.17,4,33.41a2.34,2.34,0,0,0-1.37,2.32c0,10,0,19.92,0,29.88s0,19.84,0,29.76a3,3,0,0,0,1.78,3c9.85,5.62,19.66,11.3,29.49,17Q45.09,121.76,56.26,128.22Z"/><g class="f"><path class="d" d="M79,65.83a.29.29,0,0,0-.32.23,8.56,8.56,0,0,1-4.28,4.6,2.07,2.07,0,0,0-1.3,2,6,6,0,0,1-1.78,3.78c-.74.86-1.44,1.76-2.19,2.61a3.16,3.16,0,0,0-.71,2.73A7.52,7.52,0,0,1,63.24,90a6.66,6.66,0,0,1-3.83-.1,12.06,12.06,0,0,0-6.08-.2A6.82,6.82,0,0,1,45.24,84a10.24,10.24,0,0,1,0-3.66,2.61,2.61,0,0,0-.6-2.37c-.82-1-1.65-2-2.45-3a5,5,0,0,1-1.1-4,1,1,0,0,0-.43-1.06c-.85-.66-1.68-1.33-2.5-2A8.82,8.82,0,0,1,36,64.61a7.79,7.79,0,0,0,.15,3c.43,2.13-.44,3.18-2.59,3.47a10.7,10.7,0,0,1-7-1.41c-.77-.44-1-.18-1.26.51a45,45,0,0,1-3.07,6.08A13,13,0,0,1,20,79c-2.34,2.44-5.79,2.35-8.33-.2a13.43,13.43,0,0,1-3.66-8.24C7.1,62.24,9.51,55,15.6,49.2a12.36,12.36,0,0,1,6.72-3.63,9.91,9.91,0,0,1,6.11,1.2,1.59,1.59,0,0,1,.86,1c.39,1.51.85,3,.2,4.6-.08.19-.35.4-.12.58a1,1,0,0,0,.9.18c.32-.09.27-.39.22-.64a10,10,0,0,1,.26-4.58,1.1,1.1,0,0,0-.08-.74,1.59,1.59,0,0,1,1.1-2.4c1.58-.44,2.7-1.57,3.95-2.52a1.85,1.85,0,0,0,.69-1.4,1.91,1.91,0,0,1,2.73-1.62c.8.43.93,0,1-.56A4.42,4.42,0,0,1,43.4,35a4.09,4.09,0,0,1,4.8,1.45,1.62,1.62,0,0,0,1.62.66,11.86,11.86,0,0,1,5.74.81,3.65,3.65,0,0,1,2.3,3c.13.84.25,1.69.38,2.53,0,.21,0,.52.24.55s.32-.34.38-.56c.3-1,.58-2.06.87-3.09a3.43,3.43,0,0,1,3.65-2.79,27.32,27.32,0,0,1,5.26.57,1.34,1.34,0,0,0,1.41-.42,4,4,0,0,1,6.61,1,4.9,4.9,0,0,1,.48,2c.07.74.15,1.08,1,.58a1.59,1.59,0,0,1,2,.28,1.19,1.19,0,0,1,.43,1.44c-.34.74,0,1.2.44,1.68a6.67,6.67,0,0,0,4,2.46,1.6,1.6,0,0,1,1.43,2,13.91,13.91,0,0,0-.16,2.73,8.42,8.42,0,0,1-.16,2.35c0,.2-.12.46.19.55a.49.49,0,0,0,.36,0c.23-.16,0-.33,0-.49-.47-1.75.43-5,2.72-5.63a10.5,10.5,0,0,1,11.17,2.84c4,4,5.79,8.94,6.57,14.36a19.64,19.64,0,0,1-2,12.21,10.64,10.64,0,0,1-4.83,5c-3.13,1.49-5.73.88-7.85-1.86A29.68,29.68,0,0,1,88.39,73c-.61-1.62-.56-1.33-1.81-.87a9.91,9.91,0,0,1-6.49.46c-1.82-.56-2.35-1.52-1.89-3.34A12,12,0,0,0,79,65.83Zm-17.5,7.1a16.87,16.87,0,0,0-1.5-6.6,2.77,2.77,0,0,0-2.27-2A2.68,2.68,0,0,0,55.13,66,15,15,0,0,0,53,71.78,5.45,5.45,0,0,0,54.8,77a4,4,0,0,0,6.51-2.18A14.86,14.86,0,0,0,61.45,72.93Z"/></g></g></svg>